<?xml version="1.0" encoding="utf-8"?>
<!-- Generator: Adobe Illustrator 16.0.0, SVG Export Plug-In . SVG Version: 6.00 Build 0)  -->
<!DOCTYPE svg PUBLIC "-//W3C//DTD SVG 1.1//EN" "http://www.w3.org/Graphics/SVG/1.1/DTD/svg11.dtd">
<svg version="1.1" id="Layer_1" xmlns="http://www.w3.org/2000/svg" xmlns:xlink="http://www.w3.org/1999/xlink" x="0px" y="0px"
	 width="144px" height="144px" viewBox="0 0 144 144" enable-background="new 0 0 144 144" xml:space="preserve">
<g>
	<path fill="#FFFFFF" d="M88.826,64.421c0.123-0.041,0.246-0.082,0.37-0.123c0.64,0.615,1.184,1.568,1.938,1.78
		c2.301,0.649,3.215,2.691,4.609,4.216c1.424,1.559,2.528,3.505,5.082,3.121c1.52-0.228,3.054-0.445,4.526-0.863
		c1.594-0.452,2.102-1.693,1.648-3.383c-1.08-4.023-3.4-7.321-6.081-10.404c-1.796-2.065-3.644-4.086-5.431-6.16
		c-1.504-1.746-2.933-3.556-4.433-5.306c-0.968-1.129-1.936-1.242-3.405-0.758c-0.563,0.185-1.248,0.038-1.873-0.017
		c-0.422-0.037-0.839-0.271-1.251-0.253c-2.628,0.108-5.254,0.262-7.88,0.399c-0.55,0.029-1.104,0.015-1.647,0.082
		c-2.678,0.33-5.349,0.71-8.029,1.013c-2.226,0.25-4.231,0.92-5.802,2.61c-0.895,0.963-1.888,1.844-2.715,2.86
		c-1.602,1.968-3.097,4.022-4.674,6.012c-1.53,1.931-3.142,3.797-4.646,5.747c-0.652,0.845-1.027,1.909-1.698,2.735
		c-1.919,2.364-2.417,4.907-1.33,7.772c0.63,1.661,1.874,2.532,3.678,2.615c1.694,0.079,3.094-0.667,4.215-1.715
		c3.225-3.017,6.318-6.172,9.472-9.264c0.483-0.474,1.014-0.899,1.702-1.505c0.115,0.635,0.221,0.937,0.217,1.237
		c-0.023,2.226-0.065,4.451-0.107,6.676c-0.03,1.648,0.053,1.787,1.741,1.735c2.065-0.062,4.129-0.199,6.19-0.351
		c2.646-0.193,5.287-0.439,7.931-0.645c0.43-0.033,0.894-0.057,1.296,0.065c1.955,0.598,3.936,0.325,5.895,0.16
		c1.429-0.12,1.47-0.327,0.928-1.562c-0.078-0.179-0.118-0.381-0.137-0.576c-0.166-1.769-0.368-3.535-0.465-5.308
		C88.614,66.19,88.766,65.304,88.826,64.421z M65.777,85.044c-1.979,0.033-2.992,1.25-3.915,2.512
		c-1.923,2.633-3.963,5.204-5.623,7.999c-1.758,2.96-3.147,6.142-4.664,9.242c-0.795,1.624-0.375,3.342,1.003,4.516
		c0.363,0.309,0.669,0.684,1.031,0.994c1.621,1.389,3.215,2.812,4.894,4.127c1,0.784,2.15,1.372,3.209,2.084
		c3.365,2.263,6.702,4.568,10.086,6.801c1.153,0.76,2.478,1.077,3.716,0.196c1.587-1.128,2.841-2.543,3.385-4.491
		c0.375-1.34-0.209-2.555-0.329-3.818c-0.226-2.389-1.843-3.532-3.398-4.794c-1.416-1.148-2.987-2.105-4.413-3.245
		c-1.443-1.154-1.616-2.857-0.561-4.372c1.799-2.584,3.61-5.159,5.417-7.737c0.6-0.855,0.426-2.313-0.338-3.016
		c-1.727-1.584-3.392-3.241-5.184-4.747C68.794,86.2,67.372,85.218,65.777,85.044z M63.351,29.372
		c0.122,0.864,0.261,1.726,0.363,2.593c0.369,3.141,1.625,5.925,3.712,8.243c1.038,1.154,2.347,2.309,3.766,2.824
		c2.925,1.062,6.056,1.458,9.157,0.851c1.236-0.241,2.577-0.798,3.492-1.628c1.521-1.379,2.8-3.046,4.046-4.694
		c0.439-0.581,0.525-1.452,0.697-2.208c0.362-1.596,0.188-3.197,0.148-4.817c-0.034-1.424-0.249-2.612-1.001-3.771
		c-0.275-0.426-0.351-0.986-0.645-1.394c-1.021-1.417-1.367-3.376-3.221-4.127c-1.27-0.515-2.528-1.112-3.851-1.425
		c-1.38-0.327-2.83-0.356-4.249-0.52c-2.73-0.315-5.258,0.457-7.58,1.731C64.962,22.798,63.602,25.769,63.351,29.372z
		 M92.554,80.882c-0.687,0.812-1.306,1.524-1.902,2.255c-1.513,1.85-3.012,3.71-4.521,5.562c-0.954,1.171-1.938,2.317-2.87,3.506
		c-0.528,0.675-0.556,1.307,0.355,1.746c0.573,0.277,1.116,0.618,1.67,0.937c0.563,0.323,1.128,0.614,0.888,1.479
		c-0.035,0.126,0.698,0.688,0.858,0.609c0.801-0.396,1.218-0.051,1.738,0.516c0.857,0.933,1.823,1.766,2.748,2.636
		c1.163,1.094,1.822,3.415,1.045,4.319c-1.55,1.809-3.088,3.672-4.89,5.209c-2.527,2.155-3.032,3.93-1.703,7.018
		c0.856,1.99,4.275,3.751,6.77,2.409c2.129-1.145,4.042-2.817,5.774-4.535c2.053-2.034,3.778-4.395,5.702-6.564
		c2.471-2.787,2.827-5.983,1.757-9.37c-0.521-1.651-1.277-3.264-2.159-4.758c-1.528-2.591-3.482-4.867-5.999-6.562
		c-2.035-1.37-3.796-2.902-4.441-5.4C93.304,81.622,92.998,81.415,92.554,80.882z"/>
	<path fill-rule="evenodd" clip-rule="evenodd" d="M88.826,64.421c-0.061,0.882-0.212,1.769-0.164,2.645
		c0.097,1.772,0.299,3.539,0.465,5.308c0.019,0.195,0.059,0.397,0.137,0.576c0.542,1.235,0.501,1.442-0.928,1.562
		c-1.959,0.165-3.939,0.438-5.895-0.16c-0.402-0.122-0.866-0.099-1.296-0.065c-2.644,0.205-5.285,0.451-7.931,0.645
		c-2.062,0.151-4.125,0.288-6.19,0.351c-1.688,0.052-1.771-0.087-1.741-1.735c0.042-2.225,0.084-4.45,0.107-6.676
		c0.003-0.301-0.102-0.603-0.217-1.237c-0.688,0.606-1.219,1.031-1.702,1.505c-3.154,3.092-6.248,6.248-9.472,9.264
		c-1.121,1.048-2.521,1.794-4.215,1.715c-1.805-0.083-3.048-0.954-3.678-2.615c-1.086-2.865-0.589-5.408,1.33-7.772
		c0.67-0.826,1.045-1.89,1.698-2.735c1.504-1.95,3.117-3.816,4.646-5.747c1.577-1.989,3.072-4.043,4.674-6.012
		c0.827-1.017,1.82-1.897,2.715-2.86c1.57-1.69,3.576-2.36,5.802-2.61c2.68-0.303,5.352-0.684,8.029-1.013
		c0.544-0.067,1.098-0.053,1.647-0.082c2.626-0.137,5.252-0.292,7.88-0.399c0.412-0.017,0.829,0.217,1.251,0.253
		c0.625,0.055,1.31,0.202,1.873,0.017c1.47-0.484,2.438-0.371,3.405,0.758c1.5,1.75,2.929,3.56,4.433,5.306
		c1.787,2.074,3.635,4.094,5.431,6.16c2.681,3.083,5.001,6.381,6.081,10.404c0.453,1.69-0.055,2.931-1.648,3.383
		c-1.473,0.418-3.007,0.636-4.526,0.863c-2.554,0.384-3.658-1.562-5.082-3.121c-1.395-1.525-2.309-3.567-4.609-4.216
		c-0.754-0.212-1.298-1.166-1.938-1.78C89.072,64.339,88.949,64.38,88.826,64.421z M48.836,67.586
		c1.721,0.298,3.049-1.763,2.515-3.866C50.45,65.104,49.696,66.264,48.836,67.586z M77.134,71.857
		c1.109,0.146,2.042,0.3,2.981,0.373c0.304,0.023,0.655-0.115,0.918-0.284c0.094-0.06,0.064-0.577-0.035-0.625
		c-0.339-0.164-0.732-0.284-1.107-0.291c-0.697-0.012-1.396,0.068-2.093,0.11c-0.059-0.13-0.116-0.26-0.175-0.391
		C77.48,71.074,77.337,71.397,77.134,71.857z M54.971,73.076c-1.259-0.393-2.621,0.564-2.839,1.889
		C53.18,74.268,54.075,73.672,54.971,73.076z M78.876,50.597c-0.12-0.104-0.24-0.209-0.36-0.313
		c-0.99,0.598-1.294,1.686-1.848,2.596c0.14,0.101,0.279,0.202,0.418,0.303C77.683,52.321,78.279,51.459,78.876,50.597z
		 M84.863,69.984c0.167,0.097,0.334,0.193,0.502,0.29c0.427-0.73,0.866-1.455,1.261-2.202c0.046-0.085-0.133-0.341-0.265-0.442
		c-0.063-0.048-0.337,0.04-0.387,0.134C85.586,68.494,85.229,69.242,84.863,69.984z M66.842,69.568
		c0.164,0.046,0.328,0.093,0.492,0.14c0.234-0.838,0.468-1.677,0.702-2.515C66.616,67.667,66.598,68.576,66.842,69.568z
		 M99.17,59.974c0.1-0.23,0.199-0.46,0.299-0.69c-0.516-0.238-1.025-0.487-1.556-0.684c-0.029-0.011-0.221,0.42-0.337,0.646
		C98.107,59.488,98.639,59.731,99.17,59.974z M74.262,52.226c0.138,0.115,0.275,0.23,0.413,0.346
		c0.522-0.621,1.046-1.242,1.568-1.862c-0.147-0.124-0.296-0.248-0.443-0.372C75.287,50.968,74.774,51.597,74.262,52.226z"/>
	<path fill-rule="evenodd" clip-rule="evenodd" d="M65.777,85.044c1.595,0.174,3.017,1.156,4.317,2.25
		c1.792,1.506,3.457,3.163,5.184,4.747c0.764,0.702,0.938,2.16,0.338,3.016c-1.807,2.578-3.618,5.153-5.417,7.737
		c-1.055,1.515-0.882,3.218,0.561,4.372c1.425,1.14,2.997,2.097,4.413,3.245c1.556,1.262,3.173,2.405,3.398,4.794
		c0.12,1.264,0.704,2.479,0.329,3.818c-0.544,1.948-1.798,3.363-3.385,4.491c-1.238,0.881-2.562,0.563-3.716-0.196
		c-3.385-2.232-6.722-4.538-10.086-6.801c-1.059-0.712-2.209-1.3-3.209-2.084c-1.678-1.315-3.273-2.738-4.894-4.127
		c-0.362-0.311-0.668-0.686-1.031-0.994c-1.378-1.174-1.798-2.892-1.003-4.516c1.517-3.101,2.906-6.282,4.664-9.242
		c1.66-2.795,3.699-5.366,5.623-7.999C62.785,86.294,63.798,85.077,65.777,85.044z M70.942,113.067
		c-0.411,1.664-1.234,3.116-0.9,4.988C71.452,116.721,71.977,114.034,70.942,113.067z M73.594,94.904
		c0.209-0.343,1.163-0.559,0.548-1.386c-0.508-0.685-1.233-1.217-1.907-1.762c-0.141-0.114-0.476,0.013-0.721,0.028
		c0.022,0.279-0.06,0.64,0.084,0.822C72.199,93.371,72.868,94.082,73.594,94.904z M76.734,118.312
		c-0.295-0.316-0.5-0.537-0.706-0.758c-0.222,0.425-0.546,0.831-0.624,1.28c-0.045,0.26,0.308,0.589,0.48,0.887
		C76.148,119.284,76.413,118.846,76.734,118.312z"/>
	<path fill-rule="evenodd" clip-rule="evenodd" d="M63.351,29.372c0.251-3.603,1.611-6.574,4.835-8.343
		c2.322-1.274,4.85-2.046,7.58-1.731c1.419,0.164,2.869,0.192,4.249,0.52c1.322,0.313,2.581,0.911,3.851,1.425
		c1.854,0.751,2.199,2.711,3.221,4.127c0.294,0.407,0.369,0.968,0.645,1.394c0.752,1.16,0.967,2.347,1.001,3.771
		c0.039,1.62,0.214,3.221-0.148,4.817c-0.172,0.756-0.258,1.627-0.697,2.208c-1.246,1.648-2.525,3.315-4.046,4.694
		c-0.915,0.83-2.256,1.387-3.492,1.628c-3.101,0.607-6.231,0.211-9.157-0.851c-1.418-0.515-2.728-1.67-3.766-2.824
		c-2.086-2.317-3.343-5.102-3.712-8.243C63.612,31.098,63.473,30.235,63.351,29.372z"/>
	<path fill-rule="evenodd" clip-rule="evenodd" d="M92.554,80.882c0.444,0.533,0.75,0.74,0.819,1.01
		c0.646,2.498,2.406,4.03,4.441,5.4c2.517,1.694,4.471,3.971,5.999,6.562c0.882,1.494,1.638,3.106,2.159,4.758
		c1.07,3.387,0.714,6.583-1.757,9.37c-1.924,2.17-3.649,4.53-5.702,6.564c-1.732,1.718-3.646,3.391-5.774,4.535
		c-2.494,1.342-5.913-0.419-6.77-2.409c-1.329-3.088-0.824-4.862,1.703-7.018c1.802-1.537,3.34-3.4,4.89-5.209
		c0.777-0.904,0.118-3.226-1.045-4.319c-0.925-0.87-1.891-1.703-2.748-2.636c-0.521-0.566-0.938-0.912-1.738-0.516
		c-0.16,0.079-0.894-0.483-0.858-0.609c0.24-0.864-0.324-1.155-0.888-1.479c-0.554-0.318-1.097-0.659-1.67-0.937
		c-0.911-0.439-0.884-1.071-0.355-1.746c0.932-1.188,1.916-2.335,2.87-3.506c1.51-1.852,3.009-3.712,4.521-5.562
		C91.248,82.406,91.867,81.694,92.554,80.882z M92.787,84.663c-0.166,0.153-0.332,0.307-0.497,0.46
		c0.613,0.641,1.227,1.281,1.84,1.922c0.126-0.117,0.252-0.234,0.378-0.352C93.935,86.017,93.36,85.34,92.787,84.663z"/>
	<path fill-rule="evenodd" clip-rule="evenodd" fill="#FFFFFF" d="M48.836,67.586c0.86-1.322,1.614-2.482,2.515-3.866
		C51.885,65.823,50.557,67.884,48.836,67.586z"/>
	<path fill-rule="evenodd" clip-rule="evenodd" fill="#FFFFFF" d="M77.134,71.857c0.203-0.46,0.347-0.783,0.489-1.106
		c0.059,0.13,0.116,0.26,0.175,0.391c0.697-0.042,1.396-0.122,2.093-0.11c0.375,0.006,0.769,0.126,1.107,0.291
		c0.1,0.048,0.129,0.565,0.035,0.625c-0.263,0.168-0.614,0.307-0.918,0.284C79.176,72.157,78.243,72.003,77.134,71.857z"/>
	<path fill-rule="evenodd" clip-rule="evenodd" fill="#FFFFFF" d="M54.971,73.076c-0.896,0.596-1.791,1.191-2.839,1.889
		C52.35,73.641,53.711,72.684,54.971,73.076z"/>
	<path fill-rule="evenodd" clip-rule="evenodd" fill="#FFFFFF" d="M78.876,50.597c-0.597,0.862-1.193,1.724-1.79,2.586
		c-0.139-0.101-0.278-0.202-0.418-0.303c0.554-0.91,0.857-1.998,1.848-2.596C78.636,50.388,78.756,50.493,78.876,50.597z"/>
	<path fill-rule="evenodd" clip-rule="evenodd" fill="#FFFFFF" d="M84.863,69.984c0.366-0.742,0.723-1.49,1.111-2.221
		c0.05-0.094,0.323-0.183,0.387-0.134c0.132,0.102,0.311,0.357,0.265,0.442c-0.395,0.748-0.834,1.472-1.261,2.202
		C85.197,70.177,85.03,70.081,84.863,69.984z"/>
	<path fill-rule="evenodd" clip-rule="evenodd" fill="#FFFFFF" d="M66.842,69.568c-0.244-0.992-0.226-1.901,1.194-2.375
		c-0.234,0.838-0.468,1.677-0.702,2.515C67.17,69.661,67.006,69.615,66.842,69.568z"/>
	<path fill-rule="evenodd" clip-rule="evenodd" fill="#FFFFFF" d="M99.17,59.974c-0.531-0.243-1.062-0.486-1.594-0.729
		c0.116-0.226,0.308-0.656,0.337-0.646c0.53,0.196,1.04,0.445,1.556,0.684C99.369,59.513,99.27,59.744,99.17,59.974z"/>
	<path fill-rule="evenodd" clip-rule="evenodd" fill="#FFFFFF" d="M74.262,52.226c0.513-0.629,1.025-1.258,1.538-1.887
		c0.147,0.124,0.296,0.248,0.443,0.372c-0.522,0.62-1.046,1.241-1.568,1.862C74.537,52.457,74.399,52.341,74.262,52.226z"/>
	<path fill-rule="evenodd" clip-rule="evenodd" fill="#FFFFFF" d="M70.942,113.067c1.035,0.967,0.51,3.653-0.9,4.988
		C69.708,116.184,70.531,114.731,70.942,113.067z"/>
	<path fill-rule="evenodd" clip-rule="evenodd" fill="#FFFFFF" d="M73.594,94.904c-0.726-0.822-1.395-1.533-1.996-2.297
		c-0.144-0.183-0.062-0.543-0.084-0.822c0.246-0.016,0.581-0.143,0.721-0.028c0.674,0.545,1.399,1.077,1.907,1.762
		C74.757,94.346,73.803,94.562,73.594,94.904z"/>
	<path fill-rule="evenodd" clip-rule="evenodd" fill="#FFFFFF" d="M76.734,118.312c-0.321,0.533-0.586,0.972-0.85,1.409
		c-0.173-0.298-0.525-0.627-0.48-0.887c0.078-0.449,0.402-0.855,0.624-1.28C76.234,117.775,76.439,117.996,76.734,118.312z"/>
	<path fill-rule="evenodd" clip-rule="evenodd" fill="#FFFFFF" d="M92.787,84.663c0.573,0.677,1.147,1.354,1.721,2.03
		c-0.126,0.117-0.252,0.234-0.378,0.352c-0.613-0.641-1.227-1.281-1.84-1.922C92.455,84.97,92.621,84.816,92.787,84.663z"/>
</g>
</svg>
