<?xml version="1.0" encoding="utf-8"?>
<!-- Generator: Adobe Illustrator 16.0.0, SVG Export Plug-In . SVG Version: 6.00 Build 0)  -->
<!DOCTYPE svg PUBLIC "-//W3C//DTD SVG 1.1//EN" "http://www.w3.org/Graphics/SVG/1.1/DTD/svg11.dtd">
<svg version="1.1" id="Layer_1" xmlns="http://www.w3.org/2000/svg" xmlns:xlink="http://www.w3.org/1999/xlink" x="0px" y="0px"
	 width="144px" height="144px" viewBox="0 0 144 144" enable-background="new 0 0 144 144" xml:space="preserve">
<g>
	<path fill="#FFFFFF" d="M92.394,41.608c-0.089-0.102-0.177-0.205-0.265-0.307c0.141-0.4,0.218-0.839,0.434-1.193
		c1.617-2.649,3.243-5.294,4.91-7.912c0.491-0.77,1.146-1.434,1.689-2.172c1.865-2.53,3.74-5.054,5.56-7.616
		c0.892-1.255,1.784-2.536,2.438-3.919c0.23-0.488-0.054-1.515-0.469-1.922c-0.358-0.352-1.32-0.388-1.864-0.176
		c-0.699,0.272-1.39,0.828-1.839,1.441c-2.447,3.343-4.776,6.773-7.234,10.108c-1.774,2.408-3.608,4.783-5.565,7.043
		c-1.295,1.495-2.833,2.785-4.319,4.103c-0.243,0.215-0.783,0.095-1.186,0.129c0.001-0.414-0.151-0.914,0.026-1.229
		c1.348-2.389,2.679-4.794,4.178-7.089c1.151-1.763,2.589-3.336,3.803-5.061c0.797-1.134,1.398-2.404,2.13-3.586
		c1.423-2.298,2.869-4.582,4.324-6.86c0.186-0.291,0.439-0.58,0.73-0.752c0.874-0.517,1.266-1.394,0.861-2.078
		c-0.427-0.722-1.55-0.968-2.321-0.334c-1.408,1.158-2.813,2.347-4.049,3.681c-1.213,1.311-2.156,2.868-3.322,4.228
		c-1.296,1.511-2.782,2.861-4.052,4.392c-1.393,1.68-2.649,3.474-3.933,5.243c-0.561,0.773-0.997,1.636-1.563,2.404
		c-0.649,0.883-1.437,1.667-2.061,2.566c-0.647,0.932-1.171,1.951-1.751,2.93c-0.689,1.164-1.717,2.253-1.986,3.507
		c-0.314,1.464-0.051,3.079,0.114,4.612c0.156,1.457,0.911,2.962,0.678,4.321c-0.321,1.868-1.168,3.703-2.077,5.397
		c-1.162,2.168-2.573,4.208-3.947,6.255c-1.998,2.978-4.036,5.93-6.098,8.864c-2.935,4.176-5.909,8.323-8.863,12.485
		c-2.654,3.74-5.114,7.638-8.006,11.184c-3.005,3.684-6.136,7.25-10.038,10.166c-2.824,2.111-5.199,4.89-7.381,7.795
		c-2.116,2.816-3.233,5.712-3.211,9.237c0.012,1.845,0.294,3.412,1.664,4.609c1.097,0.96,2.304,1.814,3.542,2.588
		c2.956,1.85,6.009,1.297,8.693-0.37c3.202-1.988,5.402-4.989,7.014-8.438c2.157-4.614,4.423-9.178,6.704-13.732
		c1.539-3.073,3.284-6.007,5.662-8.555c1.018-1.089,1.711-2.498,2.468-3.811c1.45-2.513,2.781-5.096,4.27-7.585
		c1.96-3.277,4.059-6.471,6.036-9.739c2.64-4.363,5.538-8.541,8.782-12.476c0.507-0.615,1.141-1.136,1.589-1.787
		c1.567-2.277,3.493-4.201,6.031-5.269c2.338-0.984,4.793-1.743,7.258-2.353c2.27-0.561,4.119-1.639,5.624-3.38
		c1.721-1.992,3.547-3.905,5.13-6c2.515-3.331,4.87-6.783,7.286-10.188c0.55-0.775,1.024-1.608,1.615-2.35
		c1.69-2.124,3.565-4.143,4.24-6.865c0.132-0.532-0.089-1.38-0.47-1.756c-0.545-0.537-1.282-0.248-1.757,0.368
		c-0.82,1.065-1.551,2.207-2.432,3.218c-3.121,3.582-6.443,7.001-9.379,10.726c-1.66,2.105-3.56,3.835-5.629,5.451
		c-0.304,0.236-0.672,0.391-1.01,0.583c-0.083-0.538,0.002-0.883,0.182-1.167c1.358-2.141,2.604-4.37,4.138-6.378
		c2.61-3.419,5.427-6.681,8.113-10.043c0.819-1.026,1.544-2.138,2.223-3.264c0.544-0.902,0.089-2.811-0.769-3.225
		c-1.12-0.542-1.649,0.411-2.254,1.072c-1.499,1.64-3.051,3.237-4.467,4.947c-1.8,2.174-3.492,4.437-5.22,6.67
		c-0.894,1.155-1.643,2.45-2.671,3.464c-1.641,1.617-3.441,3.075-5.22,4.545C93.466,41.325,92.886,41.413,92.394,41.608z"/>
	<path fill-rule="evenodd" clip-rule="evenodd" d="M92.394,41.608c0.492-0.195,1.072-0.283,1.461-0.604
		c1.778-1.47,3.579-2.928,5.22-4.545c1.028-1.014,1.777-2.309,2.671-3.464c1.728-2.233,3.42-4.496,5.22-6.67
		c1.416-1.71,2.968-3.308,4.467-4.947c0.604-0.661,1.134-1.614,2.254-1.072c0.857,0.415,1.312,2.323,0.769,3.225
		c-0.679,1.126-1.403,2.238-2.223,3.264c-2.687,3.363-5.503,6.625-8.113,10.043c-1.534,2.008-2.779,4.238-4.138,6.378
		c-0.18,0.284-0.265,0.628-0.182,1.167c0.338-0.192,0.706-0.347,1.01-0.583c2.069-1.616,3.969-3.346,5.629-5.451
		c2.936-3.725,6.258-7.144,9.379-10.726c0.881-1.011,1.611-2.153,2.432-3.218c0.475-0.616,1.212-0.905,1.757-0.368
		c0.381,0.376,0.602,1.224,0.47,1.756c-0.675,2.722-2.55,4.741-4.24,6.865c-0.591,0.742-1.065,1.575-1.615,2.35
		c-2.416,3.406-4.771,6.858-7.286,10.188c-1.583,2.096-3.409,4.009-5.13,6c-1.505,1.741-3.354,2.819-5.624,3.38
		c-2.465,0.61-4.92,1.369-7.258,2.353c-2.538,1.068-4.464,2.991-6.031,5.269c-0.448,0.651-1.082,1.172-1.589,1.787
		c-3.244,3.935-6.143,8.112-8.782,12.476c-1.977,3.269-4.076,6.462-6.036,9.739c-1.489,2.489-2.82,5.072-4.27,7.585
		c-0.757,1.312-1.451,2.722-2.468,3.811c-2.378,2.548-4.124,5.481-5.662,8.555c-2.28,4.555-4.547,9.118-6.704,13.732
		c-1.612,3.449-3.812,6.45-7.014,8.438c-2.684,1.667-5.737,2.22-8.693,0.37c-1.238-0.773-2.444-1.628-3.542-2.588
		c-1.369-1.197-1.652-2.765-1.664-4.609c-0.021-3.525,1.096-6.421,3.211-9.237c2.182-2.905,4.557-5.684,7.381-7.795
		c3.902-2.916,7.033-6.482,10.038-10.166c2.892-3.546,5.352-7.443,8.006-11.184c2.954-4.162,5.928-8.31,8.863-12.485
		c2.062-2.934,4.1-5.886,6.098-8.864c1.374-2.047,2.785-4.087,3.947-6.255c0.909-1.694,1.756-3.529,2.077-5.397
		c0.233-1.359-0.521-2.864-0.678-4.321c-0.165-1.533-0.429-3.148-0.114-4.612c0.27-1.253,1.297-2.343,1.986-3.507
		c0.58-0.979,1.104-1.998,1.751-2.93c0.624-0.898,1.411-1.683,2.061-2.566c0.566-0.769,1.003-1.631,1.563-2.404
		c1.283-1.769,2.54-3.563,3.933-5.243c1.27-1.531,2.756-2.881,4.052-4.392c1.166-1.36,2.109-2.917,3.322-4.228
		c1.235-1.334,2.641-2.523,4.049-3.681c0.771-0.634,1.895-0.388,2.321,0.334c0.404,0.684,0.013,1.561-0.861,2.078
		c-0.291,0.172-0.545,0.461-0.73,0.752c-1.455,2.278-2.901,4.562-4.324,6.86c-0.731,1.183-1.333,2.453-2.13,3.586
		c-1.214,1.725-2.651,3.298-3.803,5.061c-1.499,2.294-2.83,4.7-4.178,7.089c-0.178,0.314-0.025,0.814-0.026,1.229
		c0.402-0.034,0.942,0.086,1.186-0.129c1.486-1.317,3.024-2.607,4.319-4.103c1.957-2.26,3.791-4.635,5.565-7.043
		c2.458-3.335,4.787-6.766,7.234-10.108c0.449-0.613,1.14-1.169,1.839-1.441c0.544-0.212,1.506-0.176,1.864,0.176
		c0.415,0.407,0.699,1.434,0.469,1.922c-0.653,1.383-1.546,2.664-2.438,3.919c-1.819,2.562-3.694,5.086-5.56,7.616
		c-0.544,0.738-1.198,1.402-1.689,2.172c-1.667,2.618-3.293,5.263-4.91,7.912c-0.216,0.354-0.293,0.793-0.434,1.193
		C92.217,41.403,92.305,41.506,92.394,41.608z M62.257,91.079c-0.254,0.233-0.562,0.43-0.753,0.707
		c-1.243,1.794-2.469,3.599-3.68,5.414c-0.311,0.466-0.551,0.979-0.823,1.471c0.399,0.07,0.672,0.033,0.778-0.12
		c1.485-2.146,2.963-4.301,4.395-6.483c0.162-0.246,0.037-0.679,0.045-1.026c1.317-0.463,1.532-1.688,1.938-2.778
		C63.023,88.866,62.513,89.889,62.257,91.079z M83.869,45.906c0.714,0.343,1.458,0.636,2.137,1.037
		c2.621,1.548,5.344,2.715,8.482,2.34c0.42-0.05,0.942-0.227,1.19-0.53c0.515-0.627,0.876-1.38,1.123-1.789
		c-0.144-0.89-0.548-1.7-0.301-2.165c0.854-1.608,1.846-3.164,2.95-4.614c1.417-1.861,3.033-3.569,4.488-5.402
		c1.262-1.588,2.367-3.299,3.635-4.882c1.54-1.924,3.202-3.751,4.751-5.669c0.342-0.424,0.426-1.057,0.629-1.594
		c-0.147-0.088-0.294-0.176-0.441-0.264c-0.497,0.526-1.034,1.021-1.486,1.584c-1.735,2.164-3.458,4.337-5.157,6.53
		c-1.898,2.448-3.806,4.892-5.633,7.392c-1.473,2.015-3.021,4.039-5.284,5.082c-2.529,1.167-3.136,1.141-4.513-0.625
		c-0.438-0.56-0.359-1.501-0.604-2.238c-0.188-0.567-0.361-0.994,0.292-1.429c0.298-0.199,0.359-0.75,0.529-1.142
		c-0.097-0.058-0.193-0.116-0.289-0.174c-0.422,0.396-0.841,0.792-1.264,1.185c-1.438,1.336-2.98,2.521-5.09,2.054
		c-0.698-0.155-1.381-0.674-1.916-1.188c-0.654-0.629-1.146-1.427-1.701-2.145c-1.393,1.044-1.53,1.553-1.146,3.792
		c0.251,1.46-0.303,2.112-1.904,2.092c0,0.589-0.038,1.179,0.007,1.764c0.168,2.222,1.46,4.366,0.46,6.668
		c-0.437,1.006,0.115,1.535,0.902,2.014c1.824,1.108,3.635,2.24,5.436,3.387c0.631,0.401,1.192,0.524,1.859,0.049
		c1.186-0.846,2.413-1.635,3.699-2.5c-0.029-0.167-0.087-0.487-0.134-0.75c0.659-0.231,1.227-0.408,1.775-0.629
		c0.675-0.271,1.285-0.509,1.642,0.458c0.06,0.161,0.617,0.326,0.783,0.225c0.703-0.43,1.345-0.96,1.795-1.294
		c-0.666-0.988-1.156-1.716-1.775-2.633c-3.634,0.039-6.884-1.7-9.896-4.03L83.869,45.906z M43.47,107.224
		c-2.233-0.749-1.08-2.897-2.052-4.219c-0.229,0.52-0.479,0.85-0.508,1.197c-0.099,1.191-0.235,2.398-0.135,3.58
		c0.084,1.007-0.1,1.515-1.36,1.288c0.079,1.404,0.15,2.688,0.227,4.065c-0.399-0.19-0.7-0.334-1.394-0.664
		c0.415,1.869,0.759,3.422,1.104,4.974c-2.014-3.3-1.583-6.974-1.487-10.595c-0.199,0.01-0.397,0.02-0.596,0.03
		c-0.951,5.3-0.487,10.635-0.081,15.979c-1.162-4.814-1.013-9.735-1.12-14.711c-1.182,0.199-1.408,1.096-1.5,1.865
		c-0.437,3.686-0.568,7.392-0.013,11.074c0.288,1.912,0.788,3.792,1.204,5.741c-0.69-0.362-0.986-1.658-2.173-1.503
		c-0.132,0.018-0.331-0.406-0.481-0.637c-0.064-0.098-0.06-0.24-0.127-0.333c-0.121-0.166-0.272-0.31-0.507-0.567
		c-0.182,0.574-0.315,0.995-0.496,1.566c-2.382-2.443-1.529-5.582-2.321-8.322c-0.275,0.321-0.497,0.66-0.48,0.987
		c0.089,1.741,0.079,3.51,0.4,5.212c0.606,3.206,4.6,5.397,7.687,4.398c2.988-0.966,4.465-3.483,5.673-5.992
		c2.71-5.629,5.067-11.428,7.702-17.095c1.021-2.195,2.276-4.312,3.655-6.304c1.88-2.718,4.003-5.265,5.98-7.917
		c4.029-5.408,8.08-10.801,12.005-16.283c0.949-1.326,2.393-2.571,1.964-4.575c-0.053-0.248,0.281-0.637,0.521-0.874
		c0.366-0.361,0.898-0.577,1.198-0.977c0.562-0.748,1.511-1.674,1.385-2.358c-0.182-0.984-0.082-1.375,0.813-1.569
		c-0.219-0.641-0.405-1.188-0.593-1.735c0.09-0.066,0.18-0.132,0.269-0.198c0.709,0.318,1.418,0.636,2.127,0.954
		c0.061-0.102,0.122-0.204,0.183-0.306c-0.621-1.259-2.234-1.312-3.092-2.378c0.465-0.056,0.908-0.03,1.28,0.146
		c0.61,0.29,1.147,0.75,1.771,0.994c0.379,0.148,0.863,0.027,1.301,0.027c0.054-0.172,0.106-0.345,0.16-0.518
		c-1.653-1.011-3.307-2.022-4.959-3.033c0.021-0.095,0.044-0.189,0.065-0.283c0.356,0.061,0.762,0.034,1.06,0.2
		c1.28,0.715,2.521,1.5,3.795,2.228c0.312,0.179,0.693,0.235,1.044,0.348c0.062-0.154,0.125-0.308,0.188-0.461
		c-1.706-1.212-3.39-2.457-5.141-3.599c-0.246-0.16-0.974,0.047-1.21,0.317c-0.568,0.652-0.955,1.458-1.455,2.174
		c-1.807,2.582-3.614,5.162-5.45,7.722c-1.37,1.911-2.798,3.781-4.176,5.687c-1.09,1.508-2.177,3.02-3.206,4.57
		c-1.753,2.642-3.399,5.354-5.203,7.96c-1.28,1.848-2.038,4.011-3.552,5.708c-0.094,0.105-0.054,0.323-0.136,0.451
		c-0.813,1.266-1.618,2.537-2.472,3.774c-0.276,0.4-0.64,0.921-1.049,1.016c-1.698,0.391-1.608,1.607-1.506,2.6
		c-0.476,0.634-0.731,1.292-1.179,1.473c-0.382,0.153-0.984-0.243-1.587-0.426c0,1.152,0,2.215,0,3.403
		c-1.169-0.298-1.082,0.457-1.064,1.178c0.016,0.657,0.003,1.314,0.003,1.973c-0.195,0.003-0.389,0.006-0.583,0.01
		c-0.09-1.508-0.179-3.017-0.269-4.524c-0.16,0.012-0.319,0.023-0.478,0.035C41.545,103.101,42.984,104.984,43.47,107.224z
		 M53.306,102.134c-3.183,5.155-4.897,10.997-7.747,16.671C47.288,117.945,52.712,106.207,53.306,102.134z M115.705,30.541
		c-3.667,3.798-6.994,7.869-9.883,12.293C109.696,39.203,112.845,34.987,115.705,30.541z M34.246,124.734
		c-0.309-4.545-0.621-9.132-0.931-13.695C31.961,112.693,32.774,123.629,34.246,124.734z M77.235,55.044
		c1.893,1.265,3.759,2.54,5.667,3.749c0.227,0.144,0.686-0.079,1.036-0.131c-0.088-0.286-0.085-0.693-0.278-0.838
		c-1.618-1.218-3.241-2.437-4.929-3.555C77.624,53.534,77.501,53.649,77.235,55.044z M96.658,16.709
		c-0.078-0.061-0.155-0.123-0.232-0.184c-0.112,0.03-0.27,0.022-0.331,0.095c-1.12,1.344-2.263,2.672-3.309,4.072
		c-0.174,0.234,0.08,0.789,0.137,1.195c0.118-0.01,0.237-0.021,0.355-0.031C94.405,20.141,95.531,18.425,96.658,16.709z
		 M31.864,117.639c-0.841,1.174-0.387,4.603,0.748,5.366C32.354,121.15,32.123,119.495,31.864,117.639z M101.438,46.313
		c-0.756,0-1.317-0.035-1.872,0.016c-0.233,0.021-0.452,0.223-0.677,0.342c0.317,0.414,0.611,0.851,0.973,1.222
		c0.082,0.084,0.489,0.01,0.597-0.118C100.775,47.398,101.017,46.958,101.438,46.313z M104.646,19.863
		c-0.119-0.097-0.238-0.193-0.357-0.29c-0.971,0.735-1.62,1.698-2.074,2.797c0.116,0.085,0.232,0.17,0.349,0.256
		C103.258,21.705,103.952,20.784,104.646,19.863z M86.326,29.601c0.169,0.073,0.337,0.146,0.505,0.218
		c0.303-0.735,0.604-1.471,0.907-2.206c-0.149-0.065-0.299-0.13-0.447-0.195C86.765,28.049,85.98,28.559,86.326,29.601z
		 M92.435,22.979c-1.452-0.237-1.741,0.146-1.546,2.201C91.484,24.332,91.908,23.728,92.435,22.979z M98.471,27.558
		c0.145,0.11,0.289,0.22,0.435,0.329c0.546-0.722,1.092-1.443,1.638-2.165c-0.131-0.099-0.262-0.199-0.394-0.298
		C99.59,26.136,99.03,26.847,98.471,27.558z M99.74,51.923c-0.098-0.164-0.195-0.328-0.293-0.492
		c-0.513,0.312-1.025,0.625-1.537,0.936c0.094,0.158,0.188,0.316,0.282,0.474C98.709,52.535,99.225,52.229,99.74,51.923z"/>
	<path fill-rule="evenodd" clip-rule="evenodd" fill="#FFFFFF" d="M43.47,107.224c-0.486-2.239-1.925-4.123-0.427-6.049
		c0.159-0.012,0.318-0.023,0.478-0.035c0.089,1.508,0.179,3.017,0.269,4.524c0.194-0.004,0.389-0.007,0.583-0.01
		c0-0.658,0.012-1.315-0.003-1.973c-0.018-0.721-0.105-1.476,1.064-1.178c0-1.188,0-2.251,0-3.403
		c0.603,0.183,1.206,0.579,1.587,0.426c0.447-0.181,0.703-0.839,1.179-1.473c-0.103-0.992-0.192-2.209,1.506-2.6
		c0.409-0.095,0.773-0.615,1.049-1.016c0.854-1.237,1.659-2.509,2.472-3.774c0.082-0.128,0.042-0.346,0.136-0.451
		c1.514-1.697,2.272-3.86,3.552-5.708c1.804-2.605,3.45-5.318,5.203-7.96c1.028-1.551,2.116-3.062,3.206-4.57
		c1.378-1.906,2.806-3.776,4.176-5.687c1.836-2.56,3.644-5.14,5.45-7.722c0.5-0.715,0.887-1.522,1.455-2.174
		c0.236-0.271,0.964-0.478,1.21-0.317c1.751,1.142,3.435,2.387,5.141,3.599c-0.062,0.153-0.125,0.307-0.188,0.461
		c-0.351-0.113-0.732-0.169-1.044-0.348c-1.274-0.728-2.515-1.513-3.795-2.228c-0.298-0.167-0.703-0.139-1.06-0.2
		c-0.021,0.094-0.044,0.188-0.065,0.283c1.652,1.011,3.306,2.022,4.959,3.033c-0.054,0.172-0.106,0.345-0.16,0.518
		c-0.438,0-0.922,0.121-1.301-0.027c-0.623-0.245-1.16-0.705-1.771-0.994c-0.372-0.176-0.815-0.202-1.28-0.146
		c0.857,1.066,2.471,1.119,3.092,2.378c-0.061,0.102-0.122,0.204-0.183,0.306c-0.709-0.318-1.418-0.636-2.127-0.954
		c-0.089,0.066-0.179,0.132-0.269,0.198c0.188,0.547,0.374,1.094,0.593,1.735c-0.896,0.194-0.995,0.585-0.813,1.569
		c0.126,0.684-0.822,1.61-1.385,2.358c-0.3,0.399-0.832,0.616-1.198,0.977c-0.24,0.236-0.574,0.626-0.521,0.874
		c0.429,2.004-1.015,3.249-1.964,4.575c-3.925,5.482-7.976,10.875-12.005,16.283c-1.977,2.652-4.1,5.199-5.98,7.917
		c-1.378,1.992-2.634,4.108-3.655,6.304c-2.635,5.667-4.992,11.466-7.702,17.095c-1.208,2.509-2.685,5.026-5.673,5.992
		c-3.087,0.999-7.081-1.192-7.687-4.398c-0.321-1.702-0.311-3.471-0.4-5.212c-0.017-0.327,0.205-0.666,0.48-0.987
		c0.792,2.74-0.061,5.879,2.321,8.322c0.181-0.571,0.314-0.992,0.496-1.566c0.235,0.258,0.386,0.401,0.507,0.567
		c0.067,0.093,0.063,0.235,0.127,0.333c0.15,0.23,0.35,0.654,0.481,0.637c1.188-0.155,1.483,1.141,2.173,1.503
		c-0.416-1.949-0.916-3.829-1.204-5.741c-0.555-3.683-0.424-7.389,0.013-11.074c0.091-0.77,0.318-1.666,1.5-1.865
		c0.106,4.976-0.042,9.896,1.12,14.711c-0.406-5.345-0.87-10.68,0.081-15.979c0.199-0.011,0.397-0.021,0.596-0.03
		c-0.096,3.621-0.527,7.295,1.487,10.595c-0.345-1.552-0.689-3.104-1.104-4.974c0.694,0.33,0.995,0.474,1.394,0.664
		c-0.077-1.377-0.148-2.661-0.227-4.065c1.26,0.227,1.445-0.281,1.36-1.288c-0.1-1.182,0.037-2.389,0.135-3.58
		c0.029-0.348,0.279-0.678,0.508-1.197C42.391,104.326,41.237,106.475,43.47,107.224z"/>
	<path fill-rule="evenodd" clip-rule="evenodd" fill="#FFFFFF" d="M83.899,45.874c3.013,2.331,6.263,4.069,9.896,4.03
		c0.619,0.917,1.109,1.646,1.775,2.633c-0.45,0.334-1.092,0.864-1.795,1.294c-0.166,0.101-0.724-0.064-0.783-0.225
		c-0.356-0.967-0.967-0.729-1.642-0.458c-0.549,0.221-1.116,0.398-1.775,0.629c0.047,0.263,0.104,0.583,0.134,0.75
		c-1.286,0.864-2.514,1.653-3.699,2.5c-0.667,0.476-1.229,0.353-1.859-0.049c-1.801-1.147-3.611-2.279-5.436-3.387
		c-0.787-0.479-1.339-1.007-0.902-2.014c1-2.302-0.292-4.446-0.46-6.668c-0.045-0.584-0.007-1.175-0.007-1.764
		c1.602,0.02,2.155-0.632,1.904-2.092c-0.385-2.239-0.247-2.748,1.146-3.792c0.556,0.718,1.047,1.516,1.701,2.145
		c0.535,0.514,1.218,1.033,1.916,1.188c2.109,0.468,3.652-0.718,5.09-2.054c0.423-0.393,0.842-0.79,1.264-1.185
		c0.096,0.058,0.192,0.116,0.289,0.174c-0.17,0.392-0.231,0.943-0.529,1.142c-0.653,0.436-0.48,0.862-0.292,1.429
		c0.245,0.737,0.167,1.679,0.604,2.238c1.377,1.765,1.983,1.791,4.513,0.625c2.264-1.043,3.812-3.067,5.284-5.082
		c1.827-2.5,3.734-4.944,5.633-7.392c1.699-2.192,3.422-4.366,5.157-6.53c0.452-0.562,0.989-1.058,1.486-1.584
		c0.147,0.088,0.294,0.176,0.441,0.264c-0.203,0.537-0.287,1.169-0.629,1.594c-1.549,1.918-3.211,3.745-4.751,5.669
		c-1.268,1.583-2.373,3.294-3.635,4.882c-1.455,1.833-3.071,3.541-4.488,5.402c-1.104,1.45-2.097,3.005-2.95,4.614
		c-0.247,0.465,0.157,1.274,0.301,2.165c-0.247,0.409-0.608,1.162-1.123,1.789c-0.248,0.303-0.771,0.479-1.19,0.53
		c-3.139,0.375-5.861-0.792-8.482-2.34c-0.679-0.401-1.423-0.694-2.138-1.036c-1.195-0.768-2.389-1.536-3.582-2.304
		c-0.079,0.144-0.159,0.289-0.238,0.433C81.331,44.649,82.615,45.261,83.899,45.874z"/>
	<path fill-rule="evenodd" clip-rule="evenodd" fill="#FFFFFF" d="M53.306,102.134c-0.594,4.073-6.019,15.812-7.747,16.671
		C48.409,113.131,50.124,107.289,53.306,102.134z"/>
	<path fill-rule="evenodd" clip-rule="evenodd" fill="#FFFFFF" d="M115.705,30.541c-2.86,4.446-6.009,8.662-9.883,12.293
		C108.711,38.41,112.038,34.339,115.705,30.541z"/>
	<path fill-rule="evenodd" clip-rule="evenodd" fill="#FFFFFF" d="M34.246,124.734c-1.471-1.105-2.285-12.041-0.931-13.695
		C33.625,115.603,33.937,120.189,34.246,124.734z"/>
	<path fill-rule="evenodd" clip-rule="evenodd" fill="#FFFFFF" d="M77.235,55.044c0.266-1.395,0.389-1.51,1.496-0.776
		c1.688,1.118,3.311,2.337,4.929,3.555c0.193,0.146,0.19,0.553,0.278,0.838c-0.351,0.053-0.81,0.275-1.036,0.131
		C80.994,57.584,79.128,56.309,77.235,55.044z"/>
	<path fill-rule="evenodd" clip-rule="evenodd" fill="#FFFFFF" d="M62.219,91.042c-0.008,0.347,0.116,0.779-0.045,1.025
		c-1.432,2.183-2.91,4.337-4.395,6.483c-0.106,0.153-0.379,0.19-0.778,0.12c0.272-0.491,0.512-1.005,0.823-1.471
		c1.211-1.815,2.438-3.62,3.68-5.414c0.191-0.277,0.499-0.474,0.753-0.707L62.219,91.042z"/>
	<path fill-rule="evenodd" clip-rule="evenodd" fill="#FFFFFF" d="M96.658,16.709c-1.127,1.716-2.253,3.432-3.38,5.147
		c-0.118,0.01-0.237,0.021-0.355,0.031c-0.057-0.406-0.311-0.961-0.137-1.195c1.046-1.4,2.188-2.729,3.309-4.072
		c0.062-0.073,0.219-0.065,0.331-0.095C96.503,16.587,96.58,16.648,96.658,16.709z"/>
	<path fill-rule="evenodd" clip-rule="evenodd" fill="#FFFFFF" d="M31.864,117.639c0.259,1.856,0.489,3.512,0.748,5.366
		C31.477,122.241,31.023,118.812,31.864,117.639z"/>
	<path fill-rule="evenodd" clip-rule="evenodd" fill="#FFFFFF" d="M101.438,46.313c-0.421,0.645-0.662,1.084-0.979,1.462
		c-0.107,0.127-0.515,0.202-0.597,0.118c-0.361-0.371-0.655-0.808-0.973-1.222c0.225-0.119,0.443-0.32,0.677-0.342
		C100.12,46.279,100.682,46.313,101.438,46.313z"/>
	<path fill-rule="evenodd" clip-rule="evenodd" fill="#FFFFFF" d="M62.257,91.079c0.256-1.19,0.767-2.213,1.9-2.816
		c-0.406,1.091-0.621,2.315-1.938,2.779L62.257,91.079z"/>
	<path fill-rule="evenodd" clip-rule="evenodd" fill="#FFFFFF" d="M104.646,19.863c-0.694,0.921-1.389,1.842-2.083,2.763
		c-0.116-0.085-0.232-0.17-0.349-0.256c0.454-1.1,1.104-2.062,2.074-2.797C104.408,19.67,104.527,19.767,104.646,19.863z"/>
	<path fill-rule="evenodd" clip-rule="evenodd" fill="#FFFFFF" d="M86.326,29.601c-0.346-1.042,0.438-1.551,0.965-2.183
		c0.148,0.065,0.298,0.13,0.447,0.195c-0.303,0.735-0.604,1.471-0.907,2.206C86.663,29.746,86.495,29.673,86.326,29.601z"/>
	<path fill-rule="evenodd" clip-rule="evenodd" fill="#FFFFFF" d="M92.435,22.979c-0.526,0.75-0.95,1.354-1.546,2.201
		C90.693,23.125,90.982,22.741,92.435,22.979z"/>
	<path fill-rule="evenodd" clip-rule="evenodd" fill="#FFFFFF" d="M98.471,27.558c0.56-0.711,1.119-1.422,1.679-2.133
		c0.132,0.099,0.263,0.199,0.394,0.298c-0.546,0.722-1.092,1.443-1.638,2.165C98.76,27.778,98.615,27.668,98.471,27.558z"/>
	<path fill-rule="evenodd" clip-rule="evenodd" fill="#FFFFFF" d="M99.74,51.923c-0.516,0.306-1.031,0.612-1.548,0.917
		c-0.094-0.158-0.188-0.315-0.282-0.474c0.512-0.312,1.024-0.624,1.537-0.936C99.545,51.595,99.643,51.759,99.74,51.923z"/>
	<path fill-rule="evenodd" clip-rule="evenodd" d="M83.899,45.874c-1.284-0.613-2.568-1.225-3.852-1.838
		c0.079-0.145,0.159-0.289,0.238-0.433c1.193,0.769,2.387,1.537,3.582,2.304C83.869,45.906,83.899,45.874,83.899,45.874z"/>
</g>
</svg>
