<?xml version="1.0" encoding="utf-8"?>
<!-- Generator: Adobe Illustrator 16.0.0, SVG Export Plug-In . SVG Version: 6.00 Build 0)  -->
<!DOCTYPE svg PUBLIC "-//W3C//DTD SVG 1.1//EN" "http://www.w3.org/Graphics/SVG/1.1/DTD/svg11.dtd">
<svg version="1.1" id="Layer_1" xmlns="http://www.w3.org/2000/svg" xmlns:xlink="http://www.w3.org/1999/xlink" x="0px" y="0px"
	 width="144px" height="144px" viewBox="0 0 144 144" enable-background="new 0 0 144 144" xml:space="preserve">
<g>
	<path fill="#FFFFFF" d="M95.567,110.904c0.058-0.131,0.116-0.261,0.174-0.392c1.229,0.107,2.457,0.231,3.688,0.317
		c2.333,0.163,4.666,0.338,7.002,0.439c1.397,0.062,1.69-0.254,1.623-1.421c-0.055-0.922-0.645-1.383-1.752-1.225
		c-0.94,0.135-1.854,0.511-2.794,0.578c-1.31,0.093-2.639,0.069-3.948-0.037c-1.298-0.105-2.658-0.174-3.853-0.628
		c-1.287-0.489-2.789-0.79-3.607-2.152c-0.081-0.136-0.358-0.14-0.52-0.243c-1.373-0.881-2.876-1.62-4.07-2.699
		c-1.204-1.088-1.173-2.8-1.355-4.331c-0.244-2.042-0.43-4.092-0.682-6.134c-0.354-2.872-0.83-5.731-1.097-8.61
		c-0.281-3.047-0.356-6.113-0.565-9.168c-0.131-1.903,0.626-3.239,2.283-4.052c0.734-0.36,1.424-0.842,2.062-1.358
		c0.774-0.626,1.373-1.53,2.223-1.991c2.506-1.36,4.235-3.388,5.694-5.772c0.762-1.245,1.93-2.135,2.468-3.659
		c0.793-2.243,1.042-4.544,1.375-6.834c0.252-1.738,0.072-1.764,1.926-1.753c-0.497-0.966-0.997-1.838-1.402-2.753
		c-0.712-1.606-0.299-2.491,1.323-2.935c0.014-0.957-0.556-1.366-1.413-1.4c-1.436-0.059-2.875-0.078-4.312-0.074
		c-3.875,0.012-7.75,0.052-11.626,0.062c-0.665,0.002-1.459,0.086-1.53-0.906c-0.064-0.892,0.109-1.644,1.149-1.959
		c0.341-0.104,0.579-0.546,0.998-0.968c-2.773-0.438-5.198-0.68-7.55-1.233c-2.238-0.527-4.448-0.865-6.743-0.661
		c-1.701,0.151-3.408,0.253-5.114,0.335c-1.554,0.075-3.125-0.022-4.661,0.171c-1.357,0.171-2.64,0.218-4.003-0.057
		c-1.547-0.311-3.157-0.357-4.743-0.417c-2.141-0.082-4.288-0.139-6.426-0.055c-0.745,0.029-1.534,0.41-2.188,0.815
		c-0.52,0.323-0.757,0.9-0.16,1.518c0.242,0.251,0.394,0.684,0.412,1.042c0.178,3.504,0.32,7.01,0.467,10.516
		c0.023,0.554-0.053,1.121,0.039,1.661c0.379,2.22,0.975,4.417,1.169,6.649c0.209,2.4,0.86,4.609,1.995,6.688
		c0.887,1.625,1.935,3.296,3.803,3.775c2.367,0.606,3.986,2.257,5.869,3.553c0.238,0.164,0.388,0.499,0.511,0.784
		c1.82,4.232,2.428,8.713,2.677,13.262c0.11,2.008,0.219,4.016,0.28,6.024c0.082,2.676,0.168,5.354,0.157,8.03
		c-0.016,3.784-2.006,6.541-5.196,8.149c-3.27,1.648-6.813,2.724-10.613,2.038c-0.218-0.039-0.53-0.01-0.686,0.122
		c-1.994,1.679-4.243,1.263-6.517,0.883c-0.645-0.107-1.338,0.002-1.999,0.091c-0.621,0.083-1.222,0.352-1.842,0.396
		c-1.864,0.133-3.737,0.15-5.599,0.296c-3.486,0.272-6.967,0.599-10.449,0.916c-0.274,0.025-0.538,0.156-0.807,0.238
		c0.008,0.16,0.017,0.32,0.025,0.479c0.672,0,1.349,0.051,2.016-0.009c2.734-0.243,5.469-0.491,8.197-0.79
		c3.983-0.437,7.951-0.239,11.91,0.246c0.363,0.045,0.856,0.414,0.979,0.747c0.241,0.654,0.577,0.731,1.185,0.62
		c1.17-0.215,2.349-0.439,3.533-0.509c4.49-0.264,8.983-0.471,13.476-0.69c3.364-0.164,6.729-0.314,10.094-0.47
		c2.785-0.128,5.568-0.288,8.355-0.368c2.63-0.074,5.356-0.584,7.635,1.361c0.06,0.052,0.137,0.12,0.204,0.119
		c0.217-0.005,0.53,0.039,0.625-0.08c0.128-0.16,0.108-0.454,0.112-0.692c0.004-0.206-0.048-0.413-0.076-0.621
		c0.517,0.06,0.952,0.214,1.347,0.14c2.601-0.483,5.171-0.664,7.703,0.368c0.32,0.13,0.943,0.176,1.076-0.001
		c0.908-1.214,2.297-0.859,3.423-0.964c2.439-0.226,4.911-0.139,7.369-0.136c7.154,0.008,14.31,0.04,21.465,0.055
		c0.649,0.002,1.191-0.16,1.104-1.234c-2.046,0-4.064-0.013-6.084,0.003c-1.954,0.015-3.908,0.074-5.861,0.085
		c-4.247,0.023-8.493,0.057-12.739,0.031c-2.306-0.014-4.614-0.081-6.912-0.256C96.686,111.768,96.136,111.221,95.567,110.904z"/>
	<path fill-rule="evenodd" clip-rule="evenodd" d="M95.567,110.904c0.568,0.316,1.118,0.863,1.706,0.908
		c2.298,0.175,4.606,0.242,6.912,0.256c4.246,0.025,8.492-0.008,12.739-0.031c1.953-0.011,3.907-0.07,5.861-0.085
		c2.02-0.016,4.038-0.003,6.084-0.003c0.087,1.074-0.455,1.236-1.104,1.234c-7.155-0.015-14.311-0.047-21.465-0.055
		c-2.458-0.003-4.93-0.09-7.369,0.136c-1.126,0.104-2.515-0.25-3.423,0.964c-0.133,0.177-0.756,0.131-1.076,0.001
		c-2.532-1.032-5.103-0.852-7.703-0.368c-0.395,0.074-0.83-0.08-1.347-0.14c0.028,0.208,0.08,0.415,0.076,0.621
		c-0.004,0.238,0.016,0.532-0.112,0.692c-0.095,0.119-0.408,0.075-0.625,0.08c-0.067,0.001-0.145-0.067-0.204-0.119
		c-2.278-1.945-5.005-1.436-7.635-1.361c-2.787,0.08-5.571,0.24-8.355,0.368c-3.365,0.155-6.729,0.306-10.094,0.47
		c-4.493,0.22-8.986,0.427-13.476,0.69c-1.184,0.069-2.363,0.294-3.533,0.509c-0.608,0.111-0.944,0.034-1.185-0.62
		c-0.123-0.333-0.616-0.702-0.979-0.747c-3.959-0.485-7.927-0.683-11.91-0.246c-2.729,0.299-5.463,0.547-8.197,0.79
		c-0.667,0.06-1.344,0.009-2.016,0.009c-0.008-0.159-0.017-0.319-0.025-0.479c0.269-0.082,0.533-0.213,0.807-0.238
		c3.482-0.317,6.963-0.644,10.449-0.916c1.862-0.146,3.735-0.163,5.599-0.296c0.62-0.045,1.221-0.313,1.842-0.396
		c0.661-0.089,1.354-0.198,1.999-0.091c2.274,0.38,4.523,0.796,6.517-0.883c0.156-0.132,0.467-0.161,0.686-0.122
		c3.8,0.686,7.344-0.39,10.613-2.038c3.19-1.608,5.18-4.365,5.196-8.149c0.011-2.677-0.075-5.354-0.157-8.03
		c-0.061-2.009-0.17-4.017-0.28-6.024c-0.249-4.549-0.857-9.029-2.677-13.262c-0.123-0.285-0.272-0.62-0.511-0.784
		c-1.883-1.296-3.502-2.946-5.869-3.553c-1.868-0.479-2.916-2.149-3.803-3.775c-1.135-2.079-1.786-4.288-1.995-6.688
		c-0.194-2.233-0.79-4.43-1.169-6.649c-0.092-0.54-0.016-1.107-0.039-1.661c-0.147-3.506-0.29-7.011-0.467-10.516
		c-0.018-0.358-0.169-0.791-0.412-1.042c-0.597-0.617-0.36-1.194,0.16-1.518c0.654-0.406,1.443-0.786,2.188-0.815
		c2.138-0.084,4.285-0.027,6.426,0.055c1.586,0.061,3.196,0.106,4.743,0.417c1.363,0.274,2.646,0.228,4.003,0.057
		c1.536-0.194,3.107-0.097,4.661-0.171c1.706-0.082,3.413-0.184,5.114-0.335c2.295-0.204,4.505,0.134,6.743,0.661
		c2.352,0.553,4.776,0.795,7.55,1.233c-0.419,0.422-0.657,0.864-0.998,0.968c-1.04,0.315-1.214,1.067-1.149,1.959
		c0.071,0.992,0.865,0.908,1.53,0.906c3.876-0.011,7.751-0.051,11.626-0.062c1.437-0.004,2.876,0.015,4.312,0.074
		c0.857,0.035,1.427,0.444,1.413,1.4c-1.622,0.444-2.035,1.329-1.323,2.935c0.405,0.915,0.905,1.787,1.402,2.753
		c-1.854-0.011-1.674,0.015-1.926,1.753c-0.333,2.29-0.582,4.592-1.375,6.834c-0.538,1.524-1.706,2.414-2.468,3.659
		c-1.459,2.384-3.188,4.412-5.694,5.772c-0.85,0.461-1.448,1.365-2.223,1.991c-0.638,0.516-1.327,0.998-2.062,1.358
		c-1.657,0.813-2.414,2.148-2.283,4.052c0.209,3.055,0.284,6.121,0.565,9.168c0.267,2.879,0.743,5.738,1.097,8.61
		c0.252,2.042,0.438,4.092,0.682,6.134c0.183,1.531,0.151,3.243,1.355,4.331c1.194,1.079,2.697,1.818,4.07,2.699
		c0.161,0.104,0.438,0.107,0.52,0.243c0.818,1.362,2.32,1.663,3.607,2.152c1.194,0.454,2.555,0.522,3.853,0.628
		c1.31,0.106,2.639,0.13,3.948,0.037c0.939-0.067,1.854-0.443,2.794-0.578c1.107-0.158,1.697,0.303,1.752,1.225
		c0.067,1.167-0.226,1.482-1.623,1.421c-2.336-0.102-4.669-0.276-7.002-0.439c-1.23-0.086-2.459-0.21-3.688-0.317
		C95.684,110.644,95.625,110.773,95.567,110.904z M79.268,46.056c-0.075-0.004-0.151-0.008-0.228-0.012
		c0-1.397,0.029-2.795-0.011-4.191c-0.023-0.854-0.438-1.28-1.392-1.172c-0.987,0.111-1.993,0.108-2.99,0.089
		c-2.433-0.046-4.876-0.008-7.293-0.236c-2.203-0.208-4.364-0.847-6.566-1.073c-3.272-0.337-6.562-0.89-9.854-0.08
		c-0.18,0.044-0.396-0.023-0.588-0.066c-0.85-0.188-1.689-0.501-2.546-0.554c-1.534-0.093-2.188,0.394-1.983,1.931
		c0.318,2.39,0.297,4.827,0.39,7.245c0.05,1.302-0.079,2.621,0.077,3.907c0.258,2.121,0.575,4.248,1.068,6.324
		c0.399,1.679,0.768,3.517,1.724,4.881c2.152,3.071,4.906,5.624,8.19,7.525c0.472,0.273,1.055,0.372,1.489,0.687
		c0.626,0.454,0.987,0.639,1.239-0.343c0.086-0.333,0.631-0.549,0.967-0.818c0.226,0.383,0.614,0.751,0.651,1.151
		c0.199,2.129,0.296,4.268,0.47,6.4c0.02,0.244,0.3,0.467,0.46,0.699c0.168-0.189,0.418-0.352,0.492-0.573
		c1.216-3.634,3.704-6.081,7.015-7.891c1.58-0.863,3.022-2.014,4.42-3.163c1.663-1.367,2.367-3.4,3.367-5.233
		c0.989-1.81,1.437-3.697,1.311-5.732c-0.098-1.577-0.344-3.153-0.321-4.727C78.848,49.371,79.11,47.714,79.268,46.056z
		 M65.903,85.004c-0.003,0-0.007,0.001-0.01,0.001c0.025,0.277,0.039,0.557,0.079,0.831c0.353,2.395,0.689,4.791,1.076,7.181
		c0.246,1.519,0.543,3.03,0.864,4.536c0.231,1.086,0.503,2.166,0.82,3.23c0.679,2.278,1.159,4.635,2.652,6.598
		c1.042,1.37,2.715,2.373,3.595,1.748c1.469-1.041,3.342-1.049,4.676-2.715c1.905-2.377,2.52-4.845,2.256-7.66
		c-0.188-2.006-0.637-3.987-0.967-5.98c-0.279-1.687-0.572-3.371-0.83-5.061c-0.16-1.051-0.243-2.113-0.403-3.165
		c-0.128-0.838-0.332-1.663-0.476-2.499c-0.055-0.318-0.111-0.669-0.033-0.969c0.157-0.6,0.509-1.16,0.592-1.762
		c0.109-0.79,0.029-1.605,0.043-2.409c0.026-1.569-1.675-4.071-3.202-4.471c-1.005-0.264-2.176-0.042-3.1-0.439
		c-2.119-0.91-3.409,0.284-4.766,1.505c-0.147,0.132-0.321,0.233-0.485,0.347c-2.394,1.654-2.939,4.103-2.825,6.781
		C65.521,82.094,65.75,83.547,65.903,85.004z M82.859,49.049c-0.65,1.626-0.531,2.799,0.426,3.945
		c1.706,2.044,3.424,4.093,4.953,6.269c1.218,1.733,2.65,3.14,4.462,4.201c0.69,0.404,1.265,0.634,1.764-0.295
		c0.429-0.798,1.012-1.513,1.483-2.291c0.394-0.649,0.562-1.298-0.134-1.922c-0.647-0.581-1.277-1.194-1.835-1.859
		c-1.994-2.374-3.998-4.742-5.905-7.185c-0.713-0.914-1.172-2.026-1.746-3.048c0.115-0.073,0.23-0.146,0.345-0.22
		c3.211,4.016,5.953,8.445,10.259,12.063c0.395-1.146,0.798-1.989,0.919-2.872c0.037-0.265-0.717-0.635-1.104-0.961
		c-0.122-0.103-0.24-0.213-0.345-0.333c-2.017-2.311-4.053-4.606-6.028-6.952c-0.371-0.439-0.5-1.083-0.74-1.632
		c0.519,0.369,1.13,0.657,1.54,1.122c1.99,2.259,3.913,4.578,5.898,6.841c0.214,0.244,0.68,0.269,1.029,0.395
		c0.103-0.331,0.335-0.692,0.267-0.982c-0.052-0.223-0.475-0.372-0.747-0.529c-0.564-0.326-1.23-0.537-1.689-0.971
		c-0.749-0.71-1.459-1.5-2.014-2.367c-0.692-1.08-1.869-1.96-1.623-3.526c0.965,1.089,1.887,2.209,2.663,3.422
		c0.83,1.299,1.876,2.22,3.388,2.57c0.65-1.059,0.469-1.934-0.527-2.665c-1.445-1.061-2.175-2.569-2.809-4.136
		c0.201-0.181,0.4-0.362,0.602-0.543c0.188,0.395,0.332,0.819,0.573,1.178c0.508,0.757,1.055,1.491,1.613,2.211
		c0.152,0.196,0.405,0.312,0.612,0.465c0.128-0.257,0.351-0.509,0.366-0.773c0.045-0.797-0.036-1.601,0.019-2.396
		c0.069-1.007-0.417-1.401-1.346-1.371c-1.186,0.038-2.369,0.131-3.554,0.148c-2.782,0.039-5.563,0.048-8.346,0.065
		c-1.113,0.007-2.382-0.224-2.293,1.555c0.002,0.032-0.036,0.073-0.066,0.097c-0.629,0.511-0.416,1.063-0.036,1.575
		c2.311,3.111,4.562,6.271,6.989,9.288c1.031,1.282,2.458,2.242,3.673,3.383c0.241,0.227,0.337,0.609,0.499,0.919
		c-0.128,0.069-0.257,0.138-0.385,0.207C89.412,57.992,86.477,53.347,82.859,49.049z M63.39,98.172
		c-0.158-0.008-0.316-0.016-0.475-0.022c-0.067,0.525-0.196,1.053-0.188,1.577c0.014,0.874,0.201,1.752,0.159,2.62
		c-0.061,1.257-0.265,2.507-0.399,3.762c-0.204,1.904-0.354,3.816-0.623,5.711c-0.119,0.84,0.285,0.87,0.873,0.837
		c2.429-0.139,4.859-0.265,7.288-0.425c0.47-0.031,0.95-0.146,1.392-0.313c0.25-0.094,0.602-0.372,0.598-0.562
		c-0.004-0.229-0.292-0.569-0.533-0.658c-0.743-0.277-1.51-0.559-2.29-0.658c-2.591-0.331-3.918-2.115-4.588-4.306
		c-0.586-1.919-0.696-3.984-1.009-5.986C63.512,99.225,63.457,98.697,63.39,98.172z M93.487,64.741
		c-0.863-0.365-1.601-0.477-2.046-0.897c-2.289-2.161-4.371-4.504-6.186-7.1c-0.758-1.083-1.872-1.916-2.824-2.862
		c-0.131,0.047-0.262,0.094-0.392,0.141c0.085,0.787-0.094,1.757,0.303,2.329c1.513,2.181,3.167,4.27,4.862,6.315
		c0.723,0.872,1.654,1.578,2.529,2.313c0.546,0.458,1.163,0.829,1.899,1.344C92.152,65.881,92.791,65.335,93.487,64.741z
		 M69.387,108.107c-2.93-6.3-3.436-13.168-4.911-19.833c-0.215,0.413-0.339,0.826-0.312,1.229c0.113,1.695,0.236,3.393,0.421,5.082
		c0.349,3.191,0.611,6.402,1.182,9.556c0.228,1.259,1.111,2.427,1.824,3.556C67.949,108.264,68.604,108.6,69.387,108.107z
		 M89.247,109.408c0.423-0.176,0.74-0.247,0.964-0.431c0.078-0.064,0.002-0.492-0.131-0.61c-1.545-1.371-3.075-2.764-4.692-4.047
		c-0.881-0.697-1.2-1.496-0.818-2.482c0.238-0.618,0.208-1.085-0.413-1.193c-0.258-0.045-0.782,0.428-0.896,0.764
		c-0.357,1.047-0.609,2.134-0.822,3.222c-0.051,0.259,0.124,0.707,0.34,0.852c1.501,0.999,3.033,1.952,4.571,2.896
		C87.974,108.76,88.638,109.08,89.247,109.408z M88.579,67.994c-0.814-0.5-1.485-0.774-1.977-1.238
		c-1.75-1.657-3.431-3.388-5.167-5.061c-0.201-0.194-0.652-0.351-0.873-0.256c-0.479,0.204-0.675,1.721-0.258,2.117
		c1.925,1.829,3.135,4.39,6.101,5.168C87.645,69.049,87.882,68.457,88.579,67.994z M83.31,70.999c0.49-0.236,1.01-0.41,1.419-0.727
		c0.137-0.106,0.112-0.701-0.049-0.866c-1.651-1.683-3.339-3.33-5.036-4.966c-0.198-0.191-0.55-0.409-0.77-0.357
		c-0.725,0.17-1.182,1.447-0.692,2.02c1.286,1.505,2.623,2.97,3.982,4.41C82.399,70.762,82.846,70.811,83.31,70.999z M81.131,59.11
		c0.136,0.346,0.177,0.697,0.37,0.909c1.816,1.991,3.646,3.97,5.505,5.921c0.257,0.27,0.676,0.48,1.042,0.522
		c0.28,0.033,0.596-0.244,0.896-0.383c-0.133-0.253-0.225-0.542-0.408-0.75c-0.281-0.317-0.658-0.55-0.938-0.869
		c-1.699-1.931-3.374-3.884-5.085-5.805c-0.203-0.228-0.651-0.492-0.848-0.409C81.416,58.351,81.31,58.793,81.131,59.11z
		 M82.057,73.165c0.105-0.092,0.212-0.184,0.317-0.276c-0.556-0.693-1.098-1.398-1.669-2.079c-0.941-1.123-1.866-2.264-2.879-3.32
		c-0.252-0.262-0.938-0.431-1.199-0.272c-0.273,0.165-0.511,0.984-0.356,1.16c0.873,0.997,1.359,2.482,3.063,2.545
		c0.324,0.012,0.908,0.548,0.897,0.824C80.172,73.254,81.228,73.018,82.057,73.165z M80.438,49.82
		c0.163,0.034,0.326,0.067,0.489,0.101c0.153-0.485,0.428-0.967,0.439-1.455c0.056-2.227,0.054-4.455,0.029-6.683
		c-0.004-0.336-0.236-0.67-0.362-1.004c-0.197,0.322-0.557,0.64-0.565,0.968c-0.055,1.966-0.029,3.935-0.03,5.903
		C80.438,48.373,80.438,49.097,80.438,49.82z M68.238,38.814c1.155,0.615,7.001,0.572,7.562-0.006
		C74.543,37.784,69.818,37.743,68.238,38.814z M82.404,110.608c0.35-0.06,0.75-0.038,1.031-0.21c0.163-0.101,0.267-0.68,0.168-0.759
		c-0.676-0.544-1.384-1.065-2.145-1.476c-0.261-0.14-0.797-0.054-1.032,0.141c-0.175,0.145-0.198,0.7-0.062,0.95
		C80.787,110.035,81.32,110.755,82.404,110.608z M94.874,111.891c-1.033-0.727-2.053-1.475-3.117-2.15
		c-0.116-0.074-0.609,0.2-0.716,0.417c-0.126,0.256-0.156,0.782,0.004,0.921C92.083,111.971,93.229,112.633,94.874,111.891z
		 M82.126,106.1c-0.106,0.139-0.212,0.276-0.318,0.414c0.093,0.158,0.153,0.355,0.285,0.469c0.859,0.737,1.653,1.629,2.644,2.104
		c0.441,0.212,1.088,1.525,2.015,0.132C85.181,108.16,83.653,107.13,82.126,106.1z M83.202,87.835
		c-0.079-1.331-0.142-2.366-0.204-3.401c-0.119-0.054-0.238-0.106-0.357-0.16c-0.309,0.328-0.825,0.622-0.887,0.991
		C81.59,86.252,81.943,87.107,83.202,87.835z M60.004,107.978c-1.091,0.846-1.978,1.517-2.836,2.222
		c-0.107,0.088-0.137,0.396-0.066,0.533c0.062,0.121,0.32,0.218,0.479,0.202C58.397,110.853,59.873,109.223,60.004,107.978z
		 M82.984,83.478c-0.2-2.249-0.348-2.518-1.285-2.422C81.476,82.955,81.563,83.132,82.984,83.478z M83.036,96.442
		c0.346,0.914,0.641,1.694,0.936,2.475C84.812,97.357,84.524,96.688,83.036,96.442z M75.37,70.646
		c0.136-0.102,0.271-0.203,0.406-0.305c-0.299-0.405-0.537-1.069-0.909-1.155c-0.545-0.126-1.275,0.045-1.322,1.015
		C74.177,70.355,74.773,70.5,75.37,70.646z M83.62,89.159c-0.119-0.056-0.238-0.111-0.358-0.167
		c-0.357,0.372-0.714,0.743-1.071,1.115c0.385,0.349,0.77,0.697,1.154,1.047c0.12-0.079,0.239-0.157,0.359-0.236
		C83.677,90.332,83.648,89.746,83.62,89.159z M82.547,75.174c-0.368-0.398-0.598-0.646-0.827-0.895
		c-0.165,0.297-0.458,0.594-0.461,0.894c-0.003,0.319,0.267,0.643,0.417,0.964C81.927,75.859,82.177,75.583,82.547,75.174z
		 M79.547,110.468c-0.32-0.95-0.927-0.896-1.543-0.69c-0.157,0.054-0.241,0.325-0.358,0.497c0.46,0.114,0.916,0.243,1.381,0.333
		C79.155,110.632,79.308,110.536,79.547,110.468z M83.449,92.818c-0.18,0.145-0.359,0.289-0.54,0.434
		c0.313,0.395,0.626,0.789,0.938,1.183c0.157-0.184,0.483-0.47,0.444-0.536C84.059,93.51,83.739,93.173,83.449,92.818z"/>
	<path fill-rule="evenodd" clip-rule="evenodd" fill="#FFFFFF" d="M79.268,46.056c-0.157,1.658-0.42,3.315-0.442,4.975
		c-0.022,1.574,0.224,3.15,0.321,4.727c0.126,2.035-0.321,3.922-1.311,5.732c-1,1.833-1.704,3.866-3.367,5.233
		c-1.398,1.149-2.841,2.3-4.42,3.163c-3.311,1.811-5.799,4.257-7.015,7.891c-0.074,0.222-0.324,0.384-0.492,0.573
		c-0.16-0.232-0.44-0.455-0.46-0.699c-0.174-2.132-0.271-4.271-0.47-6.4c-0.037-0.4-0.425-0.768-0.651-1.151
		c-0.335,0.27-0.881,0.485-0.967,0.818c-0.252,0.982-0.613,0.797-1.239,0.343c-0.434-0.314-1.017-0.413-1.489-0.687
		c-3.285-1.902-6.039-4.455-8.19-7.525c-0.956-1.365-1.325-3.202-1.724-4.881c-0.493-2.077-0.811-4.203-1.068-6.324
		c-0.156-1.286-0.027-2.605-0.077-3.907c-0.093-2.418-0.072-4.854-0.39-7.245c-0.205-1.537,0.45-2.024,1.983-1.931
		c0.857,0.053,1.697,0.366,2.546,0.554c0.193,0.043,0.408,0.11,0.588,0.066c3.292-0.81,6.582-0.257,9.854,0.08
		c2.203,0.227,4.363,0.865,6.566,1.073c2.417,0.229,4.86,0.19,7.293,0.236c0.997,0.019,2.003,0.022,2.99-0.089
		c0.954-0.108,1.368,0.318,1.392,1.172c0.04,1.396,0.011,2.794,0.011,4.191C79.116,46.048,79.192,46.052,79.268,46.056z
		 M76.631,59.2c0.039-1.01-0.754-1.775-1.698-1.824c-0.493-0.025-1.058-0.067-1.451-0.319c-0.833-0.532-1.487-0.51-1.826,0.376
		c-0.576,1.508-1.501,2.664-2.888,3.488c-0.714,0.424-1.405,0.901-2.045,1.428c-0.262,0.215-0.548,0.883-0.511,0.909
		c1.147,0.826,2.252,1.843,3.549,2.271c0.631,0.208,1.809-0.525,2.43-1.143c1.524-1.516,2.872-3.209,4.283-4.839
		C76.571,59.435,76.603,59.265,76.631,59.2z"/>
	<path fill-rule="evenodd" clip-rule="evenodd" fill="#FFFFFF" d="M65.903,85.004c-0.153-1.457-0.382-2.91-0.444-4.371
		c-0.114-2.679,0.431-5.127,2.825-6.781c0.164-0.113,0.338-0.215,0.485-0.347c1.357-1.222,2.647-2.415,4.766-1.505
		c0.924,0.397,2.095,0.175,3.1,0.439c1.527,0.399,3.229,2.901,3.202,4.471c-0.014,0.804,0.066,1.619-0.043,2.409
		c-0.083,0.602-0.435,1.162-0.592,1.762c-0.078,0.3-0.021,0.65,0.033,0.969c0.144,0.836,0.348,1.661,0.476,2.499
		c0.16,1.052,0.243,2.114,0.403,3.165c0.258,1.689,0.551,3.374,0.83,5.061c0.33,1.993,0.778,3.975,0.967,5.98
		c0.264,2.815-0.351,5.283-2.256,7.66c-1.334,1.666-3.207,1.674-4.676,2.715c-0.88,0.625-2.553-0.378-3.595-1.748
		c-1.494-1.963-1.973-4.319-2.652-6.598c-0.317-1.064-0.588-2.145-0.82-3.23c-0.32-1.506-0.618-3.018-0.864-4.536
		c-0.387-2.39-0.723-4.786-1.076-7.181c-0.041-0.274-0.054-0.554-0.079-0.831C65.896,85.005,65.9,85.004,65.903,85.004z"/>
	<path fill-rule="evenodd" clip-rule="evenodd" fill="#FFFFFF" d="M82.859,49.049c3.617,4.297,6.553,8.943,11.069,12.091
		c0.128-0.069,0.257-0.138,0.385-0.207c-0.162-0.311-0.258-0.693-0.499-0.919c-1.215-1.141-2.642-2.102-3.673-3.383
		c-2.428-3.017-4.679-6.177-6.989-9.288c-0.38-0.511-0.593-1.064,0.036-1.575c0.03-0.024,0.068-0.065,0.066-0.097
		c-0.089-1.779,1.18-1.547,2.293-1.555c2.782-0.017,5.563-0.026,8.346-0.065c1.185-0.017,2.368-0.11,3.554-0.148
		c0.929-0.03,1.415,0.363,1.346,1.371c-0.055,0.795,0.026,1.6-0.019,2.396c-0.016,0.264-0.238,0.516-0.366,0.773
		c-0.207-0.153-0.46-0.269-0.612-0.465c-0.559-0.721-1.105-1.454-1.613-2.211c-0.241-0.359-0.386-0.783-0.573-1.178
		c-0.201,0.181-0.4,0.362-0.602,0.543c0.634,1.567,1.363,3.075,2.809,4.136c0.996,0.731,1.178,1.606,0.527,2.665
		c-1.512-0.35-2.558-1.271-3.388-2.57c-0.776-1.213-1.698-2.333-2.663-3.422c-0.246,1.566,0.931,2.446,1.623,3.526
		c0.555,0.866,1.265,1.656,2.014,2.367c0.459,0.434,1.125,0.646,1.689,0.971c0.272,0.157,0.695,0.306,0.747,0.529
		c0.068,0.291-0.164,0.651-0.267,0.982c-0.35-0.126-0.815-0.151-1.029-0.395c-1.985-2.264-3.908-4.582-5.898-6.841
		c-0.41-0.465-1.021-0.753-1.54-1.122c0.24,0.549,0.369,1.193,0.74,1.632c1.976,2.346,4.012,4.641,6.028,6.952
		c0.104,0.12,0.223,0.23,0.345,0.333c0.388,0.327,1.142,0.697,1.104,0.961c-0.121,0.882-0.524,1.726-0.919,2.872
		c-4.306-3.618-7.048-8.048-10.259-12.063c-0.114,0.073-0.229,0.146-0.345,0.22c0.574,1.022,1.033,2.134,1.746,3.048
		c1.907,2.443,3.911,4.811,5.905,7.185c0.558,0.665,1.188,1.278,1.835,1.859c0.695,0.624,0.527,1.273,0.134,1.922
		c-0.472,0.778-1.055,1.492-1.483,2.291c-0.499,0.929-1.073,0.699-1.764,0.295c-1.812-1.061-3.244-2.468-4.462-4.201
		c-1.529-2.176-3.247-4.224-4.953-6.269C82.328,51.848,82.209,50.675,82.859,49.049z"/>
	<path fill-rule="evenodd" clip-rule="evenodd" fill="#FFFFFF" d="M63.39,98.172c0.067,0.525,0.123,1.053,0.204,1.575
		c0.313,2.002,0.423,4.067,1.009,5.986c0.67,2.19,1.997,3.975,4.588,4.306c0.78,0.1,1.546,0.381,2.29,0.658
		c0.241,0.089,0.529,0.429,0.533,0.658c0.004,0.19-0.349,0.469-0.598,0.562c-0.442,0.167-0.922,0.282-1.392,0.313
		c-2.428,0.16-4.858,0.286-7.288,0.425c-0.587,0.033-0.992,0.003-0.873-0.837c0.27-1.895,0.419-3.807,0.623-5.711
		c0.134-1.255,0.338-2.505,0.399-3.762c0.042-0.868-0.146-1.746-0.159-2.62c-0.008-0.524,0.121-1.052,0.188-1.577
		C63.073,98.156,63.231,98.164,63.39,98.172z"/>
	<path fill-rule="evenodd" clip-rule="evenodd" fill="#FFFFFF" d="M93.487,64.741c-0.696,0.594-1.335,1.14-1.854,1.583
		c-0.736-0.515-1.354-0.886-1.899-1.344c-0.875-0.735-1.807-1.441-2.529-2.313c-1.695-2.046-3.35-4.135-4.862-6.315
		c-0.396-0.571-0.218-1.542-0.303-2.329c0.13-0.047,0.261-0.094,0.392-0.141c0.952,0.946,2.066,1.779,2.824,2.862
		c1.814,2.595,3.896,4.938,6.186,7.1C91.887,64.265,92.624,64.376,93.487,64.741z"/>
	<path fill-rule="evenodd" clip-rule="evenodd" fill="#FFFFFF" d="M69.387,108.107c-0.783,0.492-1.438,0.156-1.796-0.41
		c-0.713-1.129-1.596-2.297-1.824-3.556c-0.571-3.153-0.833-6.364-1.182-9.556c-0.185-1.689-0.308-3.387-0.421-5.082
		c-0.027-0.403,0.097-0.816,0.312-1.229C65.952,94.939,66.458,101.808,69.387,108.107z"/>
	<path fill-rule="evenodd" clip-rule="evenodd" fill="#FFFFFF" d="M89.247,109.408c-0.609-0.328-1.273-0.648-1.898-1.031
		c-1.538-0.943-3.07-1.896-4.571-2.896c-0.216-0.145-0.391-0.593-0.34-0.852c0.213-1.088,0.465-2.175,0.822-3.222
		c0.114-0.336,0.639-0.809,0.896-0.764c0.621,0.108,0.651,0.575,0.413,1.193c-0.382,0.986-0.062,1.785,0.818,2.482
		c1.617,1.283,3.147,2.676,4.692,4.047c0.133,0.118,0.209,0.546,0.131,0.61C89.987,109.161,89.67,109.232,89.247,109.408z"/>
	<path fill-rule="evenodd" clip-rule="evenodd" fill="#FFFFFF" d="M88.579,67.994c-0.697,0.463-0.935,1.055-2.174,0.73
		c-2.966-0.778-4.176-3.339-6.101-5.168c-0.417-0.396-0.221-1.913,0.258-2.117c0.221-0.095,0.672,0.062,0.873,0.256
		c1.736,1.672,3.417,3.404,5.167,5.061C87.094,67.22,87.765,67.494,88.579,67.994z"/>
	<path fill-rule="evenodd" clip-rule="evenodd" fill="#FFFFFF" d="M83.31,70.999c-0.464-0.188-0.91-0.237-1.146-0.486
		c-1.359-1.44-2.696-2.904-3.982-4.41c-0.489-0.573-0.032-1.849,0.692-2.02c0.22-0.052,0.571,0.166,0.77,0.357
		c1.697,1.636,3.385,3.283,5.036,4.966c0.161,0.165,0.186,0.76,0.049,0.866C84.319,70.589,83.8,70.762,83.31,70.999z"/>
	<path fill-rule="evenodd" clip-rule="evenodd" fill="#FFFFFF" d="M81.131,59.11c0.179-0.317,0.285-0.759,0.533-0.863
		c0.196-0.083,0.645,0.181,0.848,0.409c1.711,1.921,3.386,3.875,5.085,5.805c0.28,0.318,0.657,0.551,0.938,0.869
		c0.184,0.208,0.275,0.497,0.408,0.75c-0.3,0.139-0.615,0.416-0.896,0.383c-0.366-0.042-0.785-0.252-1.042-0.522
		c-1.858-1.952-3.688-3.93-5.505-5.921C81.308,59.807,81.267,59.456,81.131,59.11z"/>
	<path fill-rule="evenodd" clip-rule="evenodd" fill="#FFFFFF" d="M82.057,73.165c-0.829-0.147-1.885,0.089-1.825-1.419
		c0.011-0.275-0.573-0.812-0.897-0.824c-1.704-0.063-2.19-1.548-3.063-2.545c-0.154-0.176,0.083-0.996,0.356-1.16
		c0.262-0.158,0.947,0.01,1.199,0.272c1.013,1.056,1.938,2.198,2.879,3.32c0.571,0.681,1.113,1.386,1.669,2.079
		C82.269,72.981,82.162,73.073,82.057,73.165z"/>
	<path fill-rule="evenodd" clip-rule="evenodd" fill="#FFFFFF" d="M80.438,49.82c0-0.723,0-1.447,0-2.17
		c0.001-1.968-0.024-3.937,0.03-5.903c0.009-0.328,0.368-0.646,0.565-0.968c0.126,0.334,0.358,0.668,0.362,1.004
		c0.024,2.228,0.026,4.456-0.029,6.683c-0.012,0.488-0.286,0.97-0.439,1.455C80.765,49.887,80.602,49.854,80.438,49.82z"/>
	<path fill-rule="evenodd" clip-rule="evenodd" fill="#FFFFFF" d="M68.238,38.814c1.58-1.071,6.305-1.03,7.562-0.006
		C75.239,39.386,69.394,39.429,68.238,38.814z"/>
	<path fill-rule="evenodd" clip-rule="evenodd" fill="#FFFFFF" d="M82.404,110.608c-1.084,0.146-1.617-0.573-2.04-1.354
		c-0.136-0.25-0.112-0.806,0.062-0.95c0.235-0.194,0.771-0.28,1.032-0.141c0.761,0.41,1.469,0.932,2.145,1.476
		c0.099,0.079-0.005,0.658-0.168,0.759C83.154,110.57,82.754,110.549,82.404,110.608z"/>
	<path fill-rule="evenodd" clip-rule="evenodd" fill="#FFFFFF" d="M94.874,111.891c-1.645,0.742-2.791,0.08-3.829-0.812
		c-0.16-0.139-0.13-0.665-0.004-0.921c0.106-0.217,0.6-0.491,0.716-0.417C92.821,110.416,93.841,111.164,94.874,111.891z"/>
	<path fill-rule="evenodd" clip-rule="evenodd" fill="#FFFFFF" d="M82.126,106.1c1.527,1.03,3.055,2.061,4.625,3.119
		c-0.927,1.394-1.573,0.08-2.015-0.132c-0.99-0.476-1.784-1.367-2.644-2.104c-0.132-0.113-0.192-0.311-0.285-0.469
		C81.914,106.376,82.02,106.238,82.126,106.1z"/>
	<path fill-rule="evenodd" clip-rule="evenodd" fill="#FFFFFF" d="M83.202,87.835c-1.259-0.728-1.612-1.583-1.448-2.57
		c0.062-0.369,0.578-0.663,0.887-0.991c0.119,0.054,0.238,0.106,0.357,0.16C83.061,85.469,83.123,86.504,83.202,87.835z"/>
	<path fill-rule="evenodd" clip-rule="evenodd" fill="#FFFFFF" d="M60.004,107.978c-0.131,1.245-1.607,2.875-2.424,2.957
		c-0.159,0.016-0.417-0.081-0.479-0.202c-0.07-0.137-0.041-0.445,0.066-0.533C58.026,109.494,58.913,108.823,60.004,107.978z"/>
	<path fill-rule="evenodd" clip-rule="evenodd" fill="#FFFFFF" d="M82.984,83.478c-1.421-0.346-1.509-0.522-1.285-2.422
		C82.637,80.96,82.784,81.229,82.984,83.478z"/>
	<path fill-rule="evenodd" clip-rule="evenodd" fill="#FFFFFF" d="M83.036,96.442c1.488,0.246,1.776,0.915,0.936,2.475
		C83.677,98.137,83.382,97.356,83.036,96.442z"/>
	<path fill-rule="evenodd" clip-rule="evenodd" fill="#FFFFFF" d="M75.37,70.646c-0.597-0.146-1.193-0.291-1.825-0.445
		c0.047-0.97,0.777-1.142,1.322-1.015c0.372,0.086,0.61,0.75,0.909,1.155C75.641,70.443,75.506,70.544,75.37,70.646z"/>
	<path fill-rule="evenodd" clip-rule="evenodd" fill="#FFFFFF" d="M83.62,89.159c0.028,0.587,0.057,1.173,0.084,1.759
		c-0.12,0.079-0.239,0.157-0.359,0.236c-0.385-0.35-0.77-0.698-1.154-1.047c0.357-0.372,0.714-0.743,1.071-1.115
		C83.382,89.048,83.501,89.104,83.62,89.159z"/>
	<path fill-rule="evenodd" clip-rule="evenodd" fill="#FFFFFF" d="M82.547,75.174c-0.37,0.409-0.62,0.686-0.871,0.963
		c-0.15-0.321-0.42-0.645-0.417-0.964c0.003-0.3,0.296-0.597,0.461-0.894C81.949,74.527,82.179,74.775,82.547,75.174z"/>
	<path fill-rule="evenodd" clip-rule="evenodd" fill="#FFFFFF" d="M79.547,110.468c-0.239,0.068-0.392,0.164-0.521,0.14
		c-0.465-0.09-0.921-0.219-1.381-0.333c0.117-0.172,0.201-0.443,0.358-0.497C78.62,109.571,79.227,109.518,79.547,110.468z"/>
	<path fill-rule="evenodd" clip-rule="evenodd" fill="#FFFFFF" d="M83.449,92.818c0.29,0.354,0.609,0.691,0.843,1.08
		c0.039,0.066-0.287,0.353-0.444,0.536c-0.312-0.394-0.625-0.788-0.938-1.183C83.09,93.107,83.27,92.963,83.449,92.818z"/>
	<path fill-rule="evenodd" clip-rule="evenodd" d="M76.631,59.2c-0.028,0.064-0.06,0.234-0.157,0.347
		c-1.411,1.629-2.759,3.323-4.283,4.839c-0.621,0.618-1.798,1.351-2.43,1.143c-1.297-0.427-2.402-1.445-3.549-2.271
		c-0.037-0.026,0.25-0.694,0.511-0.909c0.641-0.527,1.332-1.004,2.045-1.428c1.387-0.824,2.312-1.979,2.888-3.488
		c0.338-0.886,0.993-0.908,1.826-0.376c0.394,0.251,0.958,0.293,1.451,0.319C75.877,57.425,76.67,58.19,76.631,59.2z M73.061,58.451
		c-0.32,0.24-0.575,0.389-0.778,0.59c-1.062,1.054-2.126,2.108-3.154,3.196c-0.199,0.21-0.368,0.808-0.339,0.824
		c0.662,0.347,1.287,1.219,2.112,0.579c1.094-0.85,2.146-1.782,3.063-2.816c0.315-0.356,0.293-1.148,0.183-1.691
		C74.091,58.863,73.488,58.704,73.061,58.451z"/>
	<path fill-rule="evenodd" clip-rule="evenodd" fill="#FFFFFF" d="M73.061,58.451c0.428,0.252,1.03,0.412,1.086,0.682
		c0.11,0.543,0.133,1.334-0.183,1.691c-0.917,1.034-1.969,1.966-3.063,2.816c-0.825,0.64-1.45-0.232-2.112-0.579
		c-0.029-0.016,0.14-0.613,0.339-0.824c1.028-1.088,2.092-2.142,3.154-3.196C72.485,58.84,72.74,58.691,73.061,58.451z"/>
</g>
</svg>
