<?xml version="1.0" encoding="utf-8"?>
<!-- Generator: Adobe Illustrator 16.0.0, SVG Export Plug-In . SVG Version: 6.00 Build 0)  -->
<!DOCTYPE svg PUBLIC "-//W3C//DTD SVG 1.1//EN" "http://www.w3.org/Graphics/SVG/1.1/DTD/svg11.dtd">
<svg version="1.1" id="Layer_1" xmlns="http://www.w3.org/2000/svg" xmlns:xlink="http://www.w3.org/1999/xlink" x="0px" y="0px"
	 width="144px" height="144px" viewBox="0 0 144 144" enable-background="new 0 0 144 144" xml:space="preserve">
<g>
	<path fill="#FFFFFF" d="M90.355,80.2c0.227-3.506,0.428-6.837,0.669-10.166c0.062-0.859,0.09-1.78,0.424-2.546
		c0.593-1.359,1.184-2.948,2.796-3.325c1.566-0.366,3.225-0.388,4.847-0.453c1.753-0.07,3.51-0.016,5.265-0.016
		c-0.046-0.128-0.092-0.256-0.139-0.383c0.486-0.293,0.939-0.686,1.466-0.853c0.592-0.188,1.251-0.239,1.877-0.219
		c0.416,0.013,0.825,0.254,1.237,0.393c-0.282,0.319-0.564,0.638-0.855,0.968c0.795,0,1.641,0,2.351,0
		c-0.109-0.411-0.21-0.79-0.311-1.167c0.614-0.079,1.243-0.261,1.832-0.173c0.178,0.027,0.245,0.799,0.395,1.343
		c0.719-0.092,1.606-0.275,2.501-0.31c3.822-0.147,7.647-0.362,11.47-0.329c2.337,0.021,3.986-1.179,5.761-2.392
		c-1.261-0.807-0.92-2.291,0.747-3.609c-0.362-0.474-0.932-0.904-1.042-1.431c-0.193-0.923,0.305-1.975-0.688-2.753
		c-0.183-0.143-0.026-0.719-0.026-1.032c1.526-0.231,2.903-0.439,4.648-0.704c-0.575-0.344-0.854-0.463-1.072-0.652
		c-0.351-0.305-0.911-0.631-0.947-0.993c-0.215-2.132-0.549-4.302-0.339-6.409c0.114-1.141-0.167-1.911-0.706-2.695
		c-0.295-0.431-0.881-0.651-1.279-1.026c-0.42-0.395-0.772-0.86-1.256-1.411c-0.741,0.234-0.662,0.105-1.711-0.541
		c-1.627-1.004-3.372-1.818-5.078-2.69c-0.149-0.076-0.383,0.013-0.455,0.018c-0.496,0.962-0.971,1.819-1.385,2.704
		c-0.407,0.87-0.752,1.769-1.2,2.835c-8.646,0.531-17.511,0.722-26.416,0.107c-0.078,0.507-0.144,0.927-0.202,1.306
		c-0.835,0.18-1.591,0.43-2.362,0.494c-1.982,0.164-3.971,0.269-5.958,0.354c-3.584,0.152-7.169,0.288-10.754,0.401
		c-2.473,0.078-2.489,0.04-2.464-2.396c0-0.045-0.107-0.092-0.11-0.094c-0.427,0.218-0.816,0.571-1.229,0.601
		c-2.374,0.168-4.753,0.292-7.132,0.371c-4.5,0.152-9,0.297-13.501,0.372c-1.38,0.023-2.762-0.239-4.146-0.281
		c-0.864-0.026-1.341-0.228-1.619-1.178c-0.344-1.177-0.743-2.605-2.355-2.604c-1.387,0.001-2.214-0.261-2.22-1.898
		c-0.001-0.382-0.882-0.881-1.446-1.085c-0.236-0.086-0.921,0.391-1.022,0.726c-0.474,1.576-0.714,3.227-1.247,4.779
		c-0.264,0.771-0.66,1.741-1.929,1.521c-0.598-0.104-0.891,0.2-0.53,0.886c0.407,0.772,0.114,1.196-0.751,1.472
		c-0.566,0.181-1,0.754-1.516,1.119c-0.41,0.29-0.83,0.592-1.291,0.775c-0.427,0.169-0.912,0.2-1.375,0.268
		c-0.968,0.143-2.037,0.589-2.886,0.329c-1.303-0.398-2.457-1.287-3.923-2.106c-0.173,0.574-0.552,1.186-0.49,1.75
		c0.148,1.359,0.915,2.422,2.088,3.152c1.926,1.197,2.159,2.314,0.852,4.166c0.665,1.125,0.13,2.897-1.145,3.927
		c-1.315,1.062-2.627,2.131-3.89,3.254c-0.319,0.283-0.711,0.888-0.603,1.157c0.18,0.445,0.717,0.767,1.147,1.08
		c0.209,0.152,0.522,0.158,0.784,0.245c0.948,0.313,1.892,0.635,2.84,0.948c0.625,0.207,1.364,0.271,1.838,0.66
		c0.251,0.207,0.044,0.97,0.044,1.514c0.489,0.028,0.996,0.058,1.551,0.09c0.035,0.336-0.01,0.638,0.101,0.864
		c1.25,2.561,1.314,5.321,1.086,8.037c-0.187,2.227-0.804,4.422-1.292,6.618c-0.401,1.804-0.725,3.653-1.39,5.363
		c-0.637,1.634-1.677,3.109-2.526,4.663c-0.435,0.796-0.924,1.578-1.238,2.422c-0.593,1.591-1.153,3.201-1.589,4.841
		c-0.827,3.107-1.46,6.287-0.571,9.459c0.441,1.577,0.894,3.378,2.925,3.897c1.21,0.309,2.244,1.577,2.316,2.811
		c0.058,0.996-0.022,2.001,0.059,2.994c0.046,0.574,0.291,1.133,0.446,1.698c0.127-0.015,0.254-0.029,0.382-0.044
		c-0.187,0.491-0.374,0.982-0.542,1.422c1.306-0.321,2.451-0.775,3.623-0.859c3.215-0.23,6.441-0.294,9.662-0.445
		c1.743-0.082,3.484-0.23,5.228-0.306c0.631-0.027,1.268,0.062,1.9,0.111c0.772,0.062,1.543,0.138,2.526,0.228
		c-0.046-1.054-0.002-1.902-0.136-2.723c-0.295-1.802,1.223-2.964,1.562-4.571c0.16-0.755,1.171-1.271-0.369-1.513
		c-0.154-0.024-0.37-0.222-0.401-0.372c-0.3-1.432-0.677-2.827,0.023-4.308c0.679-1.436,1.126-2.98,1.71-4.572
		c-1.444-0.018-1.541-0.029-1.396-1.188c0.156-1.248,0.521-2.469,0.792-3.702c0.206-0.937,0.604-1.642,1.74-1.389
		c0.432-1.597,0.8-3.132,1.267-4.637c0.476-1.535,0.726-3.287,1.652-4.505c1.493-1.961,3.456-3.563,5.233-5.306
		c0.127-0.126,0.347-0.166,0.53-0.226c1.122-0.359,2.229-0.782,3.372-1.049c1.027-0.239,2.09-0.456,2.934,0.598
		c0.395,0.492,0.948,1.028,1.522,1.171c1.141,0.283,2.351,0.271,3.522,0.447c1.277,0.191,2.539,0.494,3.818,0.68
		c1.574,0.229,3.163,0.562,4.739,0.534c2.855-0.053,5.709-0.309,8.557-0.552c0.674-0.058,1.322-0.403,1.982-0.616
		c-0.031-0.091-0.063-0.182-0.095-0.271c-0.43,0.064-0.86,0.129-1.387,0.208C89.206,81.189,89.206,80.23,90.355,80.2z"/>
	<path fill-rule="evenodd" clip-rule="evenodd" d="M90.355,80.2c-1.149,0.03-1.149,0.989-1.293,2.073
		c0.526-0.079,0.957-0.144,1.387-0.208c0.031,0.09,0.063,0.181,0.095,0.271c-0.66,0.213-1.309,0.559-1.982,0.616
		c-2.848,0.243-5.701,0.499-8.557,0.552c-1.576,0.028-3.165-0.306-4.739-0.534c-1.279-0.186-2.541-0.488-3.818-0.68
		c-1.172-0.176-2.382-0.164-3.522-0.447c-0.574-0.143-1.128-0.679-1.522-1.171c-0.844-1.054-1.907-0.837-2.934-0.598
		c-1.144,0.267-2.25,0.689-3.372,1.049c-0.183,0.06-0.402,0.1-0.53,0.226c-1.777,1.742-3.74,3.345-5.233,5.306
		c-0.927,1.218-1.176,2.97-1.652,4.505c-0.467,1.505-0.835,3.04-1.267,4.637c-1.136-0.253-1.534,0.452-1.74,1.389
		c-0.271,1.233-0.636,2.454-0.792,3.702c-0.146,1.159-0.048,1.171,1.396,1.188c-0.584,1.592-1.031,3.137-1.71,4.572
		c-0.7,1.48-0.323,2.876-0.023,4.308c0.031,0.15,0.247,0.348,0.401,0.372c1.541,0.241,0.529,0.758,0.369,1.513
		c-0.339,1.607-1.858,2.77-1.562,4.571c0.134,0.82,0.089,1.669,0.136,2.723c-0.983-0.09-1.754-0.166-2.526-0.228
		c-0.633-0.05-1.27-0.139-1.9-0.111c-1.744,0.075-3.484,0.224-5.228,0.306c-3.221,0.151-6.447,0.215-9.662,0.445
		c-1.172,0.084-2.317,0.538-3.623,0.859c0.168-0.439,0.355-0.931,0.542-1.422c-0.127,0.015-0.254,0.029-0.382,0.044
		c-0.155-0.565-0.399-1.124-0.446-1.698c-0.081-0.993-0.001-1.998-0.059-2.994c-0.072-1.233-1.106-2.502-2.316-2.811
		c-2.032-0.52-2.484-2.32-2.925-3.897c-0.889-3.172-0.256-6.352,0.571-9.459c0.436-1.64,0.996-3.25,1.589-4.841
		c0.314-0.844,0.803-1.626,1.238-2.422c0.849-1.554,1.889-3.029,2.526-4.663c0.666-1.71,0.989-3.56,1.39-5.363
		c0.488-2.196,1.105-4.392,1.292-6.618c0.229-2.716,0.164-5.476-1.086-8.037c-0.11-0.226-0.066-0.528-0.101-0.864
		c-0.555-0.032-1.062-0.062-1.551-0.09c0-0.544,0.207-1.307-0.044-1.514c-0.474-0.389-1.212-0.453-1.838-0.66
		c-0.948-0.313-1.892-0.635-2.84-0.948c-0.261-0.087-0.574-0.092-0.784-0.245c-0.431-0.312-0.967-0.635-1.147-1.08
		c-0.108-0.269,0.284-0.874,0.603-1.157c1.263-1.123,2.575-2.192,3.89-3.254c1.275-1.03,1.81-2.802,1.145-3.927
		c1.308-1.852,1.074-2.969-0.852-4.166c-1.174-0.729-1.94-1.793-2.088-3.152c-0.062-0.563,0.317-1.175,0.49-1.75
		c1.466,0.819,2.62,1.708,3.923,2.106c0.85,0.26,1.918-0.187,2.886-0.329c0.463-0.068,0.948-0.099,1.375-0.268
		c0.46-0.183,0.881-0.485,1.291-0.775c0.516-0.365,0.95-0.938,1.516-1.119c0.865-0.276,1.158-0.699,0.751-1.472
		c-0.361-0.686-0.068-0.989,0.53-0.886c1.27,0.221,1.665-0.75,1.929-1.521c0.533-1.552,0.773-3.203,1.247-4.779
		c0.101-0.335,0.786-0.812,1.022-0.726c0.564,0.204,1.445,0.703,1.446,1.085c0.006,1.637,0.833,1.899,2.22,1.898
		c1.612-0.001,2.011,1.427,2.355,2.604c0.278,0.95,0.755,1.152,1.619,1.178c1.384,0.042,2.766,0.304,4.146,0.281
		c4.501-0.075,9.001-0.22,13.501-0.372c2.379-0.08,4.758-0.203,7.132-0.371c0.413-0.029,0.802-0.383,1.229-0.601
		c0.002,0.002,0.11,0.048,0.11,0.094c-0.025,2.436-0.009,2.474,2.464,2.396c3.585-0.114,7.17-0.249,10.754-0.401
		c1.987-0.084,3.976-0.19,5.958-0.354c0.771-0.063,1.527-0.313,2.362-0.494c0.059-0.378,0.124-0.799,0.202-1.306
		c8.905,0.614,17.771,0.423,26.416-0.107c0.448-1.066,0.793-1.965,1.2-2.835c0.414-0.885,0.889-1.741,1.385-2.704
		c0.072-0.004,0.306-0.094,0.455-0.018c1.706,0.872,3.451,1.687,5.078,2.69c1.049,0.646,0.97,0.775,1.711,0.541
		c0.483,0.551,0.836,1.016,1.256,1.411c0.398,0.375,0.984,0.595,1.279,1.026c0.539,0.785,0.82,1.555,0.706,2.695
		c-0.21,2.106,0.124,4.276,0.339,6.409c0.036,0.361,0.597,0.688,0.947,0.993c0.218,0.189,0.497,0.309,1.072,0.652
		c-1.745,0.264-3.122,0.473-4.648,0.704c0,0.312-0.156,0.889,0.026,1.032c0.992,0.778,0.494,1.83,0.688,2.753
		c0.11,0.527,0.68,0.957,1.043,1.43c-1.668,1.319-2.009,2.803-0.748,3.61c-1.774,1.213-3.424,2.413-5.761,2.392
		c-3.822-0.033-7.647,0.182-11.47,0.329c-0.895,0.035-1.782,0.218-2.501,0.31c-0.149-0.543-0.217-1.316-0.395-1.343
		c-0.589-0.087-1.218,0.095-1.832,0.173c0.101,0.378,0.201,0.756,0.311,1.167c-0.71,0-1.556,0-2.351,0
		c0.291-0.33,0.573-0.649,0.855-0.968c-0.412-0.139-0.821-0.38-1.237-0.393c-0.626-0.02-1.285,0.031-1.877,0.219
		c-0.526,0.167-0.979,0.56-1.466,0.853c0.047,0.127,0.093,0.255,0.139,0.383c-1.755,0-3.512-0.055-5.265,0.016
		c-1.622,0.065-3.28,0.087-4.847,0.453c-1.612,0.377-2.203,1.965-2.796,3.325c-0.334,0.766-0.361,1.688-0.424,2.546
		C90.783,73.363,90.582,76.694,90.355,80.2z M28.958,77.91c-0.326,1.529-0.326,1.521,0.92,1.478
		c0.142-0.005,0.282,0.169,0.436,0.223c1.051,0.367,2.089,0.809,3.172,1.016c0.229,0.044,0.625-0.78,0.967-1.236
		c0.344,0.202,0.879,0.517,1.507,0.885c-1.301,0.453-2.606,0.863-3.873,1.369c-0.511,0.204-1.349,0.306-0.954,1.4
		c0.705-0.132,1.404-0.263,2.104-0.394c0.011,0.071,0.021,0.144,0.032,0.216c-1.438,0.679-2.875,1.357-4.041,1.908
		c-0.429-0.31-0.675-0.623-0.945-0.646c-0.3-0.024-0.621,0.217-0.934,0.342c0.129,0.277,0.27,0.55,0.383,0.833
		c0.128,0.322,0.232,0.654,0.402,1.139c1.814-0.651,3.631-1.304,5.449-1.956c0.043,0.129,0.087,0.257,0.131,0.386
		c-1.344,0.531-2.691,1.054-4.029,1.598c-0.588,0.239-1.186,0.479-1.722,0.812c-0.203,0.127-0.243,0.515-0.357,0.783
		c0.243,0.085,0.486,0.235,0.729,0.235c0.266,0,0.536-0.128,0.797-0.221c1.238-0.435,2.475-0.877,3.711-1.316
		c-0.053,0.3-0.191,0.415-0.35,0.484c-1.927,0.847-3.874,1.65-5.774,2.552c-0.474,0.225-0.801,0.757-1.196,1.147
		c0.095,0.148,0.189,0.297,0.284,0.445c0.863-0.133,1.726-0.266,2.588-0.397c-0.596,0.498-1.204,0.886-1.868,1.077
		c-0.782,0.225-1.301,0.518-1.136,1.464c0.389,0.039,0.713,0.072,1.039,0.104c-0.654,0.436-1.382,0.585-2.027,0.903
		c-0.35,0.172-0.559,0.632-0.832,0.962c0.381,0.097,0.758,0.249,1.143,0.272c0.256,0.016,0.521-0.164,0.787-0.237
		c0.56-0.155,1.124-0.298,1.686-0.446c-0.991,1.096-2.841,0.849-3.491,2.583c0.523,0.065,0.872,0.108,1.42,0.177
		c-0.626,0.324-1.113,0.464-1.43,0.775c-0.265,0.26-0.332,0.722-0.486,1.095c0.36,0.012,0.733,0.086,1.079,0.021
		c0.593-0.114,1.168-0.315,1.751-0.48c0.021,0.096,0.043,0.192,0.064,0.288c-0.753,0.319-1.525,0.6-2.254,0.968
		c-1.023,0.518-1.032,1.259-0.136,1.87c-0.19,0.403-0.377,0.799-0.563,1.194c0.093,0.095,0.186,0.19,0.278,0.285
		c0.886-0.28,1.771-0.561,2.657-0.841c-0.519,0.575-1.24,0.781-1.714,1.242c-0.332,0.322-0.325,0.994-0.47,1.51
		c0.39,0.005,0.805,0.101,1.163-0.003c0.735-0.214,1.439-0.534,2.156-0.811c-0.191,0.428-0.493,0.629-0.818,0.784
		c-0.537,0.257-1.081,0.501-1.634,0.719c-0.934,0.368-0.603,1.162-0.458,1.734c0.062,0.244,0.78,0.425,1.209,0.445
		c0.417,0.021,0.846-0.201,1.269-0.316c0.038,0.093,0.076,0.186,0.113,0.278c-0.405,0.202-0.864,0.34-1.2,0.624
		c-0.286,0.242-0.431,0.65-0.638,0.985c0.374,0.051,0.797,0.239,1.113,0.127c1.342-0.478,2.646-1.059,3.979-1.564
		c0.244-0.093,0.554-0.014,1.028-0.014c-1.063,0.93-2.662,0.666-3.35,2.334c1.144-0.188,1.992-0.328,2.815-0.464
		c-0.118,0.434-0.249,0.778-0.275,1.132c-0.005,0.069,0.395,0.256,0.598,0.242c1.109-0.079,2.221-0.168,3.318-0.341
		c0.229-0.036,0.552-0.444,0.553-0.682c0-0.225-0.331-0.563-0.583-0.645c-0.346-0.112-0.755-0.028-1.137-0.028
		c-0.004-0.151-0.008-0.303-0.012-0.454c1.279,0,2.558-0.013,3.836,0.02c0.13,0.004,0.311,0.26,0.37,0.432
		c0.249,0.735,0.716,0.566,1.33,0.513c1.94-0.17,3.938-0.754,5.769,0.521c0.946,0.658,1.716,0.279,2.143-0.654
		c0.288-0.63,0.376-1.361,0.492-2.057c0.387-2.329,0.755-4.661,1.112-6.995c0.107-0.703,0.022-1.462,0.253-2.115
		c1.046-2.968,2.23-5.888,3.249-8.864c0.584-1.706,0.917-3.497,1.416-5.234c0.884-3.077,2.089-6.012,3.985-8.626
		c2.017-2.779,4.039-5.527,6.427-8.04c1.454-1.529,2.686-3.216,4.68-4.199c0.062,0.292,0.131,0.614,0.204,0.95
		c0.353,0,0.631,0.026,0.903-0.004c1.927-0.21,3.849-0.49,5.78-0.63c1.671-0.122,3.356-0.032,5.029-0.136
		c2.531-0.158,5.055-0.454,7.586-0.574c0.589-0.027,1.463,0.244,1.752,0.679c0.896,1.345,0.81,1.399,2.111,0.361
		c0.153-0.122,0.315-0.267,0.496-0.314c1.155-0.305,1.58-1.191,2.128-2.174c1.403-2.517,1.919-3.774,5.441-2.933
		c0.379,0.09,0.798,0.075,1.19,0.036c3.189-0.316,6.371-0.74,9.567-0.956c3.817-0.257,7.647-0.33,11.471-0.505
		c2.023-0.092,4.048-0.201,6.067-0.364c0.864-0.07,1.911-0.217,2.042-1.263c0.162-1.298,0.116-2.641-0.003-3.95
		c-0.104-1.158-0.542-1.304-1.646-0.83c-0.361,0.155-0.757,0.288-1.146,0.314c-2.371,0.163-4.744,0.289-7.116,0.436
		c-0.54,0.033-1.078,0.098-1.65,0.151c0-0.622,0-1.276,0-2.007c1.281-0.135,2.498-0.237,3.704-0.411
		c0.286-0.042,0.537-0.326,0.805-0.499c-0.273-0.207-0.549-0.591-0.819-0.587c-0.947,0.012-1.892,0.175-2.84,0.25
		c-5.152,0.407-10.307,0.792-15.456,1.233c-0.4,0.034-0.769,0.446-1.152,0.682c0.402,0.141,0.795,0.361,1.207,0.405
		c0.785,0.083,1.61-0.053,2.363,0.13c0.557,0.135,1.025,0.632,1.741,1.106c0,0-0.019,0.319-0.036,0.618
		c-1.961,0.263-3.803,0.691-5.648,0.712c-2.255,0.027-4.473,1.176-6.836-0.178c-1.057-0.605-2.118-1.695-3.587-1.51
		c0-0.076,0-0.151,0-0.333c0.962-0.373,2.054-0.255,3.111-0.712c1.14-0.492,1.937-0.886,2.322-2.029
		c0.245-0.021,0.442-0.045,0.641-0.053c3.302-0.125,6.605-0.225,9.906-0.383c1.587-0.076,3.169-0.255,4.752-0.401
		c2.522-0.231,5.043-0.479,7.565-0.7c0.305-0.026,0.686-0.018,0.921,0.139c1.223,0.812,1.21,0.831,1.792-0.665
		c1.2,0.053,2.476,0.186,3.745,0.146c1.248-0.04,2.619,0.495,3.648-0.832c0.673-0.867,1.011-1.717,0.938-2.822
		c-0.098-1.469-0.282-1.621-1.695-1.154c-0.395-0.192-0.999-0.468-1.184-0.295c-0.99,0.927-2.176,0.84-3.37,0.89
		c-2.146,0.09-4.288,0.262-6.434,0.339c-1.525,0.055-3.054,0.011-4.581,0.011c2.185-0.392,4.385-0.559,6.58-0.782
		c0.318-0.033,0.609-0.337,0.913-0.516c-0.248-0.273-0.46-0.731-0.748-0.786c-1.207-0.229-2.438-0.462-3.658-0.463
		c-2.225,0-4.449,0.143-6.672,0.267c-1.346,0.076-2.686,0.238-4.03,0.348c-2.005,0.165-4.011,0.317-6.018,0.475
		c0.043-0.101,0.086-0.201,0.129-0.302c-0.289-0.287-0.563-0.8-0.871-0.822c-1.303-0.093-2.615-0.039-3.924-0.039
		c-0.073,0.099-0.146,0.197-0.22,0.295c0.318,0.391,0.637,0.781,0.911,1.119c-1.111,0.268-1.175,1.203-1.166,2.312
		c0.777,0.041,1.46,0.077,2.143,0.113c-0.483,0.29-0.976,0.368-1.466,0.361c-0.909-0.012-1.37,0.284-1.414,1.309
		c-0.044,1.031-0.348,2.05-0.496,2.854c-0.634,0.101-1.27,0.161-1.885,0.311c-0.966,0.234-1.908,0.713-2.877,0.766
		c-3.781,0.204-7.569,0.306-11.355,0.387c-0.896,0.02-1.829-0.386-2.686-0.242c-1.1,0.185-1.779-0.037-2.317-1.01
		c-0.146-0.264-0.642-0.331-0.97-0.5c-0.296-0.151-0.624-0.275-0.861-0.493c-0.178-0.165-0.175-0.592-0.357-0.678
		c-2.133-1-2.003-3.07-2.288-4.896c-0.193-1.242-0.232-1.359-1.644-1.054c0.191,1.181-0.522,1.458-1.498,1.322
		c-0.463-0.064-0.893-0.345-1.354-0.452c-0.428-0.098-0.892-0.181-1.317-0.115c-0.699,0.107-1.367,0.459-1.808-0.503
		c-0.109-0.238-0.676-0.388-1.024-0.374c-1.503,0.062-3.002,0.214-4.504,0.305c-2.461,0.149-4.922,0.311-7.386,0.399
		c-1.349,0.048-2.703-0.019-4.053-0.081c-1.138-0.052-2.273-0.249-3.408-0.233c-0.691,0.01-1.902,1.964-1.693,2.607
		c0.062,0.191,0.386,0.432,0.581,0.423c1.786-0.077,3.585-0.097,5.35-0.349c1.524-0.218,2.943-0.025,3.958,0.835
		c-2.626,0.181-5.354,0.423-8.088,0.536c-1.853,0.077-3.772-0.227-5.084,1.558c-0.042,0.056-0.165,0.05-0.21,0.106
		c-0.945,1.166-1.91,2.316-2.802,3.522c-0.171,0.232-0.176,0.766-0.02,1.003c0.118,0.178,0.62,0.143,0.948,0.13
		c0.634-0.025,1.266-0.145,1.898-0.149c5.278-0.035,10.556-0.098,15.833-0.056c2.616,0.021,5.23,0.24,7.844,0.386
		c0.218,0.012,0.425,0.165,0.646,0.223c1.039,0.276,2.068,0.635,3.125,0.776c0.683,0.092,1.406-0.186,2.115-0.219
		c2.348-0.111,4.697-0.195,7.047-0.261c0.209-0.006,0.425,0.2,0.714,0.346c-0.686,0.344-1.235,0.62-1.486,0.746
		c-0.709-0.221-1.17-0.481-1.636-0.488c-1.559-0.023-3.143-0.121-4.672,0.111c-3.091,0.469-3.135-0.174-4.121,3.073
		c-0.262,0.862-0.725,1.664-1.095,2.493c-0.171-0.051-0.341-0.102-0.512-0.153c0.273-1.432,0.547-2.863,0.828-4.335
		c-0.875-0.197-1.752-0.396-2.73-0.616c0.019-0.919-0.653-0.961-1.44-0.945c-6.96,0.138-13.923,0.217-20.882,0.41
		c-1.567,0.043-3.149,0.364-4.675,0.749c-0.797,0.201-1.799,0.567-1.549,2.058c1.977-0.352,3.888-0.691,5.799-1.031
		c0.038,0.136,0.075,0.273,0.112,0.41c-0.583,0.381-1.128,0.852-1.759,1.125c-1.51,0.653-3.076,1.178-4.584,1.836
		c-0.362,0.158-0.585,0.633-0.872,0.962c0.415,0.015,0.854,0.126,1.24,0.026c0.973-0.251,1.921-0.597,2.879-0.904
		c0.035,0.107,0.069,0.214,0.104,0.321c-1.624,0.663-3.256,1.307-4.864,2.005c-0.357,0.155-0.632,0.502-0.944,0.761
		c0.096,0.17,0.192,0.339,0.288,0.509c2.462-0.773,4.924-1.545,7.498-2.353c-0.298,0.805-2.223,0.799-0.923,2.038
		c-1.476,0.563-2.85,1.205-4.292,1.599c-1.102,0.301-1.108,0.789-0.488,1.453c0.263,0.282,0.839,0.458,1.227,0.396
		c0.642-0.104,1.246-0.438,1.866-0.676c-0.015,0.099-0.029,0.198-0.044,0.297c0.413,0.16,0.835,0.47,1.237,0.446
		c0.608-0.036,1.161-0.316,1.09-1.14c-0.016-0.184,0.166-0.492,0.334-0.565c1.05-0.461,2.123-0.871,3.188-1.298
		c-1.586,0.98,0.119,1.805,0.038,2.532c-0.426,0.481-0.813,0.917-1.348,1.521c0.707,0.116,1.043,0.172,1.746,0.288
		c-1.068,0.367-1.816,0.578-2.527,0.876c-1.526,0.641-1.519,0.66-1.388,1.76c1.93-0.557,3.833-1.105,5.736-1.653
		c0.035,0.135,0.07,0.27,0.106,0.404c-1.605,0.513-3.218,1.002-4.81,1.555c-0.352,0.123-0.626,0.468-0.936,0.711
		c0.071,0.102,0.141,0.204,0.211,0.305c0.342,0.039,0.684,0.078,1.03,0.117c0.02,0.391,0.036,0.719,0.066,1.312
		c1.944-0.563,3.743-1.084,5.542-1.606c0.018,0.047,0.035,0.093,0.053,0.14c-2.686,1.317-5.371,2.636-8.256,4.052
		c0.396-0.682,0.607-1.044,0.818-1.406c-0.437-0.069-0.885-0.238-1.306-0.186c-0.81,0.1-1.604,0.323-2.554,0.528
		c0.117,0.998,0.238,2.041,0.387,3.316c0.653-0.276,1.196-0.506,1.629-0.689c0.866,1.192,1.943,0.02,2.929,0.256
		C32.271,78.957,30.661,78.716,28.958,77.91z M82.663,77.511c-0.23,0.208-0.358,0.425-0.51,0.442
		c-0.722,0.082-1.448,0.122-2.175,0.153c-1.375,0.06-2.89,0.01-3.741-1.087c-0.917-1.182-1.547-2.657-2.009-4.098
		c-0.461-1.44-1.01-2.729-2.201-3.698c-0.202-0.165-0.301-0.458-0.443-0.694c-1.144-1.898-3.193-2.451-4.99-1.345
		c-2.033,1.25-3.612,5.533-2.861,7.775c0.047,0.14,0.16,0.258,0.249,0.382c0.312,0.431,0.612,0.872,0.945,1.286
		c0.318,0.396,0.667,0.769,1.011,1.144c0.508,0.553,1.414,1.066,1.462,1.654c0.137,1.658,1.194,1.632,2.336,1.677
		c5.229,0.204,10.419-0.28,15.62-0.719c1.723-0.145,2.757-1.239,2.598-2.817c-0.062-0.601,0.113-1.235,0.245-1.841
		c0.121-0.553,0.477-1.089,0.47-1.629c-0.015-1.184-0.281-2.365-0.278-3.547c0.003-1.215,0.21-2.429,0.317-3.645
		c0.056-0.633-0.22-0.961-0.886-0.982c-2.943-0.091-5.885-0.224-8.828-0.268c-0.353-0.005-0.893,0.366-1.034,0.697
		c-0.524,1.225-1.107,2.475-1.32,3.772c-0.422,2.563,0.035,5.007,2.822,6.314C80.42,76.886,81.477,77.12,82.663,77.511z
		 M84.402,44.764c-3.163,0-6.157-0.02-9.151,0.008c-1.514,0.014-1.764,0.346-1.583,1.836c0.018,0.146,0.042,0.312-0.007,0.443
		c-0.563,1.519-0.403,1.947,1.193,2.195c1.72,0.266,3.47,0.439,5.208,0.459c3.692,0.042,7.39,0.069,10.979-1.104
		c0.825-0.27,0.981-0.669,1.07-1.437c0.12-1.03-0.578-2.143,0.302-3.118c0.083-0.091-0.134-0.661-0.331-0.754
		c-0.451-0.214-0.992-0.415-1.471-0.365c-1.722,0.18-3.426,0.544-5.15,0.676C84.696,43.663,84.338,43.847,84.402,44.764z
		 M32.845,48.842c0.113,0.08,0.226,0.159,0.339,0.238c0.297-0.154,0.681-0.236,0.876-0.474c1.372-1.677,2.714-3.377,4.036-5.094
		c0.141-0.183,0.198-0.583,0.091-0.758c-0.099-0.163-0.495-0.265-0.717-0.211c-0.726,0.175-1.418,0.518-2.149,0.641
		c-1.142,0.193-1.436,0.978-1.592,1.933c-0.044,0.271-0.124,0.536-0.187,0.803C33.309,46.894,33.077,47.868,32.845,48.842z
		 M29.942,70.896c0.271-0.876,1.89-0.521,1.502-1.798c-2.173-0.255-2.721,0.226-2.642,2.267c0.017,0.437-0.03,0.882,0.037,1.31
		c0.062,0.395,0.149,0.855,0.4,1.123c0.135,0.144,0.879,0.022,0.927-0.12c0.118-0.351-0.009-0.783-0.04-1.223
		c1.284-0.699,1.284-0.699,1.282-1.559C30.948,70.896,30.488,70.896,29.942,70.896z M19.598,103.071
		c0.164,1.344,0.281,2.524,0.483,3.691c0.027,0.153,0.5,0.334,0.757,0.319c0.467-0.025,0.982-0.093,1.37-0.323
		c0.286-0.17,0.4-0.627,0.591-0.956c-0.296-0.168-0.583-0.444-0.892-0.473c-0.318-0.028-0.658,0.187-0.99,0.295
		C20.376,104.843,22.201,103.18,19.598,103.071z M126.871,59.967c0.096,0.112,0.19,0.225,0.286,0.337
		c0.824,0,1.651,0.025,2.474-0.016c0.235-0.012,0.646-0.205,0.655-0.337c0.021-0.323-0.091-0.915-0.241-0.946
		c-0.744-0.15-1.542-0.285-2.271-0.152C127.417,58.918,127.169,59.577,126.871,59.967z M21.418,108.426
		c-0.059-0.176-0.066-0.407-0.181-0.489c-0.216-0.155-0.549-0.366-0.731-0.294c-0.214,0.085-0.468,0.46-0.445,0.683
		c0.083,0.819,1.437,1.678,2.264,1.47c0.404-0.101,0.785-0.295,1.155-0.439C23.212,107.792,22.975,107.687,21.418,108.426z
		 M19.946,102.164c0.144,0.105,0.288,0.211,0.431,0.315c0.502-0.401,1.317-0.73,1.432-1.223c0.155-0.668-0.213-1.464-0.414-2.189
		c-0.01-0.034-0.818,0.023-0.849,0.144C20.291,100.182,20.133,101.177,19.946,102.164z M132.307,48.665
		c-0.02-0.324,0.012-0.772-0.096-1.185c-0.048-0.187-0.354-0.356-0.576-0.427c-0.102-0.033-0.394,0.173-0.415,0.3
		c-0.143,0.88-0.271,1.765-0.325,2.653c-0.016,0.24,0.236,0.498,0.365,0.747c0.31-0.188,0.775-0.307,0.891-0.577
		C132.327,49.765,132.261,49.249,132.307,48.665z M29.289,82.956c0.264-0.771,0.417-1.274,0.608-1.762
		c0.208-0.529,0.125-0.912-0.509-0.86c-0.337,0.027-0.856,0.203-0.944,0.44c-0.224,0.606-0.302,1.286-0.3,1.936
		C28.145,82.799,28.938,82.885,29.289,82.956z M40.847,38.467c-0.832-0.513-1.484-0.925-2.161-1.291
		c-0.021-0.012-0.423,0.442-0.427,0.683c-0.009,0.66,1.222,1.47,1.847,1.24C40.317,39.022,40.474,38.794,40.847,38.467z
		 M30.972,50.084c-1.057,0.07-1.835,1.123-1.628,2.202C30.516,52.129,31.049,51.407,30.972,50.084z M33.746,116.138
		c0.103,0.136,0.206,0.271,0.309,0.407c0.592-0.375,1.205-0.725,1.762-1.146c0.127-0.096,0.13-0.46,0.069-0.664
		c-0.036-0.118-0.379-0.276-0.474-0.223C34.713,114.906,33.734,115.059,33.746,116.138z M57.923,80.336
		c-0.385-0.339-0.584-0.514-0.784-0.689c-0.341,0.402-0.717,0.782-0.989,1.227c-0.044,0.072,0.364,0.424,0.563,0.646
		C57.071,81.169,57.429,80.819,57.923,80.336z M20.919,97.076c0.377,0.318,0.738,0.704,0.798,0.662
		c0.349-0.245,0.854-0.583,0.865-0.906c0.012-0.321-0.494-0.662-0.773-0.995C21.545,96.204,21.282,96.571,20.919,97.076z
		 M70.926,45.083c0.446,0.422,0.685,0.647,0.922,0.872c0.304-0.36,0.69-0.684,0.87-1.098c0.065-0.152-0.356-0.516-0.556-0.783
		C71.815,44.357,71.467,44.641,70.926,45.083z M34.542,111.947c-0.479,0.289-0.857,0.517-1.235,0.744
		c0.375,0.183,0.757,0.521,1.124,0.505c0.392-0.018,0.769-0.37,1.152-0.576C35.273,112.42,34.963,112.22,34.542,111.947z
		 M26.842,55.502c-1-0.024-1.716,0.653-1.751,1.655C26.161,57.174,26.861,56.512,26.842,55.502z M61.595,77.352
		c-0.11-0.109-0.22-0.218-0.329-0.326c-1.224,0.06-1.45,0.327-1.136,1.857C60.728,78.257,61.161,77.804,61.595,77.352z
		 M90.778,69.837c-1.215-0.301-1.381,0.259-1.344,0.902c0.012,0.209,0.338,0.401,0.52,0.601
		C90.211,70.872,90.468,70.405,90.778,69.837z M37.885,40.692c-0.346,0.327-0.562,0.531-0.777,0.734
		c0.284,0.203,0.551,0.527,0.857,0.568c0.236,0.032,0.519-0.292,0.781-0.458C38.499,41.294,38.252,41.053,37.885,40.692z
		 M42.205,111.332c-0.205,0.121-0.409,0.242-0.613,0.362c-0.213,0.202-0.426,0.403-0.639,0.604c0.223,0.211,0.461,0.606,0.664,0.589
		c0.302-0.026,0.729-0.291,0.822-0.554C42.535,112.062,42.297,111.671,42.205,111.332z M22.512,95.831
		c0.264-0.485,0.509-0.755,0.525-1.038c0.009-0.154-0.368-0.332-0.571-0.498c-0.18,0.262-0.43,0.505-0.51,0.796
		C21.918,95.224,22.212,95.449,22.512,95.831z M41.891,116.168c-0.152-0.154-0.304-0.308-0.455-0.461
		c-0.312,0.294-0.624,0.587-0.936,0.881c0.165,0.165,0.33,0.33,0.494,0.495C41.292,116.777,41.592,116.473,41.891,116.168z"/>
	<path fill-rule="evenodd" clip-rule="evenodd" fill="#FFFFFF" d="M28.958,77.91c1.704,0.806,3.314,1.047,4.787-0.491
		c-0.986-0.236-2.063,0.937-2.929-0.256c-0.433,0.184-0.976,0.413-1.629,0.689c-0.149-1.275-0.271-2.318-0.387-3.316
		c0.95-0.205,1.744-0.429,2.554-0.528c0.421-0.053,0.87,0.116,1.306,0.186c-0.211,0.362-0.422,0.725-0.818,1.406
		c2.885-1.416,5.57-2.734,8.256-4.052c-0.018-0.047-0.035-0.093-0.053-0.14c-1.799,0.521-3.598,1.042-5.542,1.606
		c-0.03-0.593-0.046-0.921-0.066-1.312c-0.346-0.04-0.688-0.078-1.03-0.117c-0.07-0.102-0.141-0.204-0.211-0.305
		c0.31-0.243,0.584-0.588,0.936-0.711c1.591-0.553,3.204-1.042,4.81-1.555c-0.036-0.135-0.071-0.27-0.106-0.404
		c-1.903,0.548-3.806,1.097-5.736,1.653c-0.131-1.101-0.139-1.119,1.388-1.76c0.711-0.298,1.459-0.51,2.527-0.876
		c-0.703-0.116-1.039-0.171-1.746-0.288c0.535-0.604,0.922-1.04,1.348-1.521c0.081-0.727-1.625-1.552-0.038-2.532
		c-1.065,0.427-2.138,0.837-3.188,1.298c-0.168,0.074-0.351,0.382-0.334,0.565c0.071,0.824-0.482,1.104-1.09,1.14
		c-0.402,0.023-0.824-0.286-1.237-0.446c0.015-0.099,0.029-0.198,0.044-0.297c-0.62,0.238-1.224,0.573-1.866,0.676
		c-0.388,0.062-0.963-0.114-1.227-0.396c-0.621-0.664-0.614-1.151,0.488-1.453c1.442-0.394,2.816-1.036,4.292-1.599
		c-1.299-1.239,0.625-1.233,0.923-2.038c-2.574,0.808-5.036,1.58-7.498,2.353c-0.096-0.17-0.192-0.339-0.288-0.509
		c0.312-0.259,0.587-0.606,0.944-0.761c1.608-0.698,3.241-1.342,4.864-2.005c-0.035-0.107-0.069-0.214-0.104-0.321
		c-0.958,0.308-1.906,0.653-2.879,0.904c-0.385,0.1-0.825-0.011-1.24-0.026c0.287-0.329,0.51-0.804,0.872-0.962
		c1.508-0.658,3.074-1.183,4.584-1.836c0.63-0.273,1.175-0.744,1.759-1.125c-0.037-0.137-0.075-0.273-0.112-0.41
		c-1.911,0.34-3.822,0.679-5.799,1.031c-0.25-1.491,0.751-1.857,1.549-2.058c1.526-0.384,3.108-0.706,4.675-0.749
		c6.959-0.193,13.921-0.272,20.882-0.41c0.787-0.016,1.458,0.026,1.44,0.945c0.978,0.221,1.855,0.419,2.73,0.616
		c-0.281,1.472-0.554,2.903-0.828,4.335c0.171,0.051,0.341,0.102,0.512,0.153c0.371-0.829,0.833-1.63,1.095-2.493
		c0.986-3.247,1.03-2.604,4.121-3.073c1.529-0.232,3.114-0.135,4.672-0.111c0.465,0.007,0.927,0.267,1.636,0.488
		c0.25-0.126,0.8-0.402,1.486-0.746c-0.289-0.146-0.504-0.352-0.714-0.346c-2.35,0.066-4.699,0.15-7.047,0.261
		c-0.709,0.034-1.433,0.311-2.115,0.219c-1.057-0.142-2.086-0.5-3.125-0.776c-0.22-0.058-0.427-0.211-0.646-0.223
		c-2.614-0.146-5.229-0.365-7.844-0.386c-5.277-0.042-10.556,0.021-15.833,0.056c-0.633,0.004-1.265,0.125-1.898,0.149
		c-0.328,0.013-0.83,0.048-0.948-0.13c-0.157-0.237-0.152-0.771,0.02-1.003c0.892-1.206,1.857-2.356,2.802-3.522
		c0.045-0.056,0.169-0.05,0.21-0.106c1.312-1.785,3.231-1.481,5.084-1.558c2.733-0.113,5.462-0.355,8.088-0.536
		c-1.015-0.86-2.435-1.054-3.958-0.835c-1.765,0.252-3.564,0.272-5.35,0.349c-0.194,0.009-0.518-0.232-0.581-0.423
		c-0.209-0.644,1.002-2.598,1.693-2.607c1.135-0.016,2.271,0.181,3.408,0.233c1.35,0.062,2.704,0.129,4.053,0.081
		c2.464-0.088,4.925-0.25,7.386-0.399c1.502-0.091,3.001-0.244,4.504-0.305c0.348-0.014,0.916,0.136,1.024,0.374
		c0.441,0.963,1.109,0.61,1.808,0.503c0.425-0.065,0.889,0.017,1.317,0.115c0.462,0.106,0.891,0.387,1.354,0.452
		c0.976,0.136,1.688-0.141,1.498-1.322c1.412-0.306,1.451-0.188,1.644,1.054c0.285,1.826,0.155,3.896,2.288,4.896
		c0.183,0.086,0.179,0.513,0.357,0.678c0.237,0.218,0.565,0.342,0.861,0.493c0.329,0.169,0.825,0.235,0.97,0.5
		c0.538,0.973,1.218,1.194,2.317,1.01c0.856-0.144,1.79,0.261,2.686,0.242c3.786-0.081,7.574-0.183,11.355-0.387
		c0.969-0.052,1.911-0.531,2.877-0.766c0.615-0.149,1.251-0.209,1.885-0.311c0.148-0.804,0.452-1.823,0.496-2.854
		c0.044-1.025,0.505-1.321,1.414-1.309c0.49,0.006,0.982-0.072,1.466-0.361c-0.683-0.036-1.365-0.072-2.143-0.113
		c-0.009-1.109,0.055-2.044,1.166-2.312c-0.274-0.337-0.593-0.728-0.911-1.119c0.073-0.098,0.146-0.197,0.22-0.295
		c1.309,0,2.621-0.054,3.924,0.039c0.308,0.022,0.582,0.535,0.871,0.822c-0.043,0.101-0.086,0.201-0.129,0.302
		c2.007-0.158,4.013-0.31,6.018-0.475c1.345-0.11,2.685-0.272,4.03-0.348c2.223-0.125,4.447-0.268,6.672-0.267
		c1.221,0,2.451,0.233,3.658,0.463c0.288,0.055,0.5,0.513,0.748,0.786c-0.304,0.178-0.595,0.483-0.913,0.516
		c-2.195,0.224-4.396,0.391-6.58,0.782c1.527,0,3.056,0.044,4.581-0.011c2.146-0.078,4.288-0.25,6.434-0.339
		c1.194-0.05,2.38,0.037,3.37-0.89c0.185-0.173,0.789,0.104,1.184,0.295c1.413-0.466,1.598-0.314,1.695,1.154
		c0.072,1.105-0.266,1.956-0.938,2.822c-1.029,1.327-2.4,0.792-3.648,0.832c-1.27,0.041-2.545-0.092-3.745-0.146
		c-0.582,1.495-0.569,1.477-1.792,0.665c-0.235-0.157-0.616-0.166-0.921-0.139c-2.522,0.22-5.043,0.469-7.565,0.7
		c-1.583,0.146-3.165,0.325-4.752,0.401c-3.301,0.158-6.604,0.258-9.906,0.383c-0.198,0.008-0.396,0.032-0.641,0.053
		c-0.386,1.143-1.183,1.537-2.322,2.029c-1.058,0.457-2.149,0.34-3.111,0.712c0,0.182,0,0.257,0,0.333
		c1.469-0.185,2.53,0.905,3.587,1.51c2.363,1.354,4.581,0.205,6.836,0.178c1.846-0.021,3.688-0.449,5.648-0.712
		c0.018-0.298,0.036-0.617,0.036-0.618c-0.716-0.474-1.185-0.971-1.741-1.106c-0.753-0.183-1.578-0.046-2.363-0.13
		c-0.412-0.044-0.805-0.265-1.207-0.405c0.384-0.236,0.752-0.648,1.152-0.682c5.149-0.441,10.304-0.826,15.456-1.233
		c0.948-0.075,1.893-0.238,2.84-0.25c0.271-0.003,0.546,0.381,0.819,0.587c-0.268,0.173-0.519,0.457-0.805,0.499
		c-1.206,0.174-2.423,0.276-3.704,0.411c0,0.73,0,1.385,0,2.007c0.572-0.054,1.11-0.118,1.65-0.151
		c2.372-0.146,4.745-0.272,7.116-0.436c0.389-0.027,0.784-0.159,1.146-0.314c1.104-0.475,1.541-0.328,1.646,0.83
		c0.119,1.309,0.165,2.652,0.003,3.95c-0.131,1.045-1.178,1.193-2.042,1.263c-2.02,0.164-4.044,0.272-6.067,0.364
		c-3.823,0.175-7.653,0.248-11.471,0.505c-3.196,0.215-6.378,0.639-9.567,0.956c-0.393,0.039-0.812,0.055-1.19-0.036
		c-3.522-0.841-4.038,0.417-5.441,2.933c-0.548,0.982-0.973,1.869-2.128,2.174c-0.181,0.047-0.343,0.192-0.496,0.314
		c-1.302,1.039-1.216,0.984-2.111-0.361c-0.289-0.435-1.163-0.707-1.752-0.679c-2.531,0.12-5.055,0.416-7.586,0.574
		c-1.673,0.104-3.358,0.015-5.029,0.136c-1.932,0.14-3.854,0.42-5.78,0.63c-0.272,0.03-0.55,0.004-0.903,0.004
		c-0.072-0.336-0.141-0.658-0.204-0.95c-1.994,0.983-3.226,2.669-4.68,4.199c-2.388,2.513-4.41,5.261-6.427,8.04
		c-1.896,2.614-3.101,5.549-3.985,8.626c-0.499,1.737-0.832,3.528-1.416,5.234c-1.019,2.977-2.203,5.896-3.249,8.864
		c-0.23,0.653-0.146,1.412-0.253,2.115c-0.357,2.334-0.725,4.666-1.112,6.995c-0.116,0.695-0.205,1.427-0.492,2.057
		c-0.427,0.934-1.197,1.312-2.143,0.654c-1.831-1.274-3.828-0.69-5.769-0.521c-0.613,0.054-1.081,0.223-1.33-0.513
		c-0.059-0.172-0.24-0.428-0.37-0.432c-1.278-0.032-2.558-0.02-3.836-0.02c0.004,0.151,0.008,0.303,0.012,0.454
		c0.382,0,0.791-0.084,1.137,0.028c0.252,0.081,0.583,0.42,0.583,0.645c0,0.237-0.324,0.646-0.553,0.682
		c-1.097,0.173-2.208,0.262-3.318,0.341c-0.203,0.014-0.603-0.173-0.598-0.242c0.027-0.354,0.158-0.698,0.275-1.132
		c-0.823,0.136-1.671,0.275-2.815,0.464c0.688-1.668,2.287-1.404,3.35-2.334c-0.474,0-0.784-0.079-1.028,0.014
		c-1.332,0.506-2.637,1.087-3.979,1.564c-0.316,0.112-0.739-0.076-1.113-0.127c0.208-0.335,0.352-0.743,0.638-0.985
		c0.336-0.284,0.794-0.422,1.2-0.624c-0.038-0.093-0.076-0.186-0.113-0.278c-0.423,0.115-0.852,0.337-1.269,0.316
		c-0.429-0.021-1.147-0.201-1.209-0.445c-0.145-0.572-0.477-1.366,0.458-1.734c0.553-0.218,1.097-0.462,1.634-0.719
		c0.325-0.155,0.627-0.356,0.818-0.784c-0.717,0.276-1.421,0.597-2.156,0.811c-0.357,0.104-0.773,0.008-1.163,0.003
		c0.145-0.516,0.138-1.188,0.47-1.51c0.474-0.461,1.196-0.667,1.714-1.242c-0.885,0.28-1.771,0.561-2.657,0.841
		c-0.093-0.095-0.186-0.19-0.278-0.285c0.186-0.396,0.373-0.791,0.563-1.194c-0.896-0.611-0.887-1.353,0.136-1.87
		c0.729-0.368,1.501-0.648,2.254-0.968c-0.021-0.096-0.043-0.192-0.064-0.288c-0.583,0.165-1.159,0.366-1.751,0.48
		c-0.346,0.065-0.719-0.009-1.079-0.021c0.154-0.373,0.221-0.835,0.486-1.095c0.317-0.312,0.804-0.451,1.43-0.775
		c-0.548-0.068-0.897-0.111-1.42-0.177c0.649-1.734,2.5-1.487,3.491-2.583c-0.562,0.148-1.126,0.291-1.686,0.446
		c-0.266,0.073-0.53,0.253-0.787,0.237c-0.385-0.023-0.762-0.176-1.143-0.272c0.273-0.33,0.482-0.79,0.832-0.962
		c0.646-0.318,1.374-0.468,2.027-0.903c-0.325-0.032-0.65-0.065-1.039-0.104c-0.165-0.946,0.354-1.239,1.136-1.464
		c0.664-0.191,1.271-0.579,1.868-1.077c-0.863,0.132-1.726,0.265-2.588,0.397c-0.095-0.148-0.189-0.297-0.284-0.445
		c0.395-0.391,0.723-0.923,1.196-1.147c1.901-0.901,3.847-1.705,5.774-2.552c0.158-0.069,0.297-0.185,0.35-0.484
		c-1.237,0.439-2.473,0.882-3.711,1.316c-0.261,0.093-0.531,0.221-0.797,0.221c-0.243,0-0.486-0.15-0.729-0.235
		c0.114-0.269,0.154-0.656,0.357-0.783c0.536-0.332,1.133-0.572,1.722-0.812c1.338-0.544,2.686-1.066,4.029-1.598
		c-0.043-0.129-0.087-0.257-0.131-0.386c-1.817,0.652-3.635,1.305-5.449,1.956c-0.17-0.484-0.274-0.816-0.402-1.139
		c-0.113-0.283-0.254-0.556-0.383-0.833c0.312-0.125,0.634-0.366,0.934-0.342c0.27,0.022,0.516,0.336,0.945,0.646
		c1.167-0.551,2.604-1.229,4.041-1.908c-0.011-0.072-0.021-0.145-0.032-0.216c-0.7,0.131-1.4,0.262-2.104,0.394
		c-0.396-1.095,0.442-1.196,0.954-1.4c1.267-0.506,2.571-0.916,3.873-1.369c-0.627-0.368-1.163-0.683-1.507-0.885
		c-0.342,0.456-0.737,1.28-0.967,1.236c-1.083-0.207-2.121-0.648-3.172-1.016c-0.154-0.054-0.294-0.228-0.436-0.223
		C28.631,79.431,28.632,79.439,28.958,77.91z M117.016,50.917c-1.955,0.113-3.811,0.22-5.667,0.328
		c-0.159,0.009-0.323,0.005-0.476,0.045c-1.336,0.351-1.586,0.926-1.061,2.484c0.598-0.147,1.657-0.175,1.734-0.464
		c0.448-1.686,1.655-0.684,2.433-0.946c0.196,0.432,0.343,0.751,0.491,1.077c0.321-0.606,0.538-1.016,0.755-1.425
		c0.304,0.276,0.582,0.59,0.921,0.813c0.224,0.148,0.533,0.167,0.869,0.262C117.016,52.271,117.016,51.618,117.016,50.917z
		 M97.971,44.858c0.003,0.15,0.005,0.301,0.008,0.451c3.027-0.199,6.055-0.398,9.081-0.598c-0.006-0.114-0.012-0.228-0.018-0.342
		C104.019,44.532,100.994,44.695,97.971,44.858z M62.89,45.68c-0.828,0-1.533,0-2.302,0C61.243,47.015,61.663,47.015,62.89,45.68z"
		/>
	<path fill-rule="evenodd" clip-rule="evenodd" fill="#FFFFFF" d="M82.663,77.511c-1.187-0.391-2.243-0.625-3.2-1.073
		c-2.787-1.308-3.244-3.751-2.822-6.314c0.213-1.297,0.796-2.547,1.32-3.772c0.142-0.331,0.682-0.702,1.034-0.697
		c2.943,0.043,5.885,0.177,8.828,0.268c0.666,0.021,0.941,0.349,0.886,0.982c-0.107,1.216-0.314,2.43-0.317,3.645
		c-0.003,1.182,0.264,2.363,0.278,3.547c0.007,0.54-0.349,1.076-0.47,1.629c-0.132,0.605-0.307,1.24-0.245,1.841
		c0.159,1.578-0.875,2.673-2.598,2.817c-5.201,0.438-10.392,0.923-15.62,0.719c-1.142-0.045-2.199-0.019-2.336-1.677
		c-0.048-0.588-0.954-1.102-1.462-1.654c-0.344-0.375-0.693-0.747-1.011-1.144c-0.333-0.414-0.633-0.855-0.945-1.286
		c-0.089-0.124-0.202-0.242-0.249-0.382c-0.751-2.242,0.828-6.524,2.861-7.775c1.797-1.105,3.846-0.553,4.99,1.345
		c0.143,0.236,0.241,0.53,0.443,0.694c1.191,0.97,1.74,2.258,2.201,3.698c0.462,1.44,1.092,2.916,2.009,4.098
		c0.852,1.097,2.366,1.146,3.741,1.087c0.727-0.031,1.453-0.071,2.175-0.153C82.305,77.936,82.433,77.719,82.663,77.511z"/>
	<path fill-rule="evenodd" clip-rule="evenodd" fill="#FFFFFF" d="M84.402,44.764c-0.064-0.917,0.294-1.102,1.059-1.16
		c1.725-0.132,3.429-0.496,5.15-0.676c0.479-0.05,1.02,0.151,1.471,0.365c0.197,0.094,0.414,0.664,0.331,0.754
		c-0.88,0.975-0.182,2.088-0.302,3.118c-0.089,0.768-0.245,1.167-1.07,1.437c-3.589,1.173-7.286,1.146-10.979,1.104
		c-1.738-0.02-3.488-0.193-5.208-0.459c-1.597-0.248-1.757-0.676-1.193-2.195c0.049-0.131,0.024-0.297,0.007-0.443
		c-0.181-1.49,0.069-1.823,1.583-1.836C78.245,44.745,81.239,44.764,84.402,44.764z"/>
	<path fill-rule="evenodd" clip-rule="evenodd" fill="#FFFFFF" d="M32.845,48.842c0.232-0.974,0.464-1.948,0.697-2.922
		c0.063-0.268,0.143-0.533,0.187-0.803c0.156-0.955,0.45-1.74,1.592-1.933c0.731-0.124,1.423-0.466,2.149-0.641
		c0.222-0.053,0.618,0.048,0.717,0.211c0.107,0.176,0.05,0.576-0.091,0.758c-1.322,1.716-2.665,3.417-4.036,5.094
		c-0.195,0.237-0.579,0.32-0.876,0.474C33.071,49.001,32.958,48.922,32.845,48.842z"/>
	<path fill-rule="evenodd" clip-rule="evenodd" fill="#FFFFFF" d="M29.942,70.896c0.546,0,1.006,0,1.466,0
		c0.002,0.86,0.002,0.86-1.282,1.559c0.031,0.439,0.158,0.872,0.04,1.223c-0.048,0.143-0.792,0.264-0.927,0.12
		c-0.251-0.268-0.338-0.729-0.4-1.123c-0.067-0.428-0.02-0.873-0.037-1.31c-0.079-2.041,0.469-2.522,2.642-2.267
		C31.832,70.375,30.212,70.02,29.942,70.896z"/>
	<path fill-rule="evenodd" clip-rule="evenodd" fill="#FFFFFF" d="M19.598,103.071c2.603,0.108,0.778,1.771,1.319,2.554
		c0.333-0.108,0.672-0.323,0.99-0.295c0.309,0.028,0.595,0.305,0.892,0.473c-0.191,0.329-0.305,0.786-0.591,0.956
		c-0.388,0.23-0.903,0.298-1.37,0.323c-0.257,0.015-0.73-0.166-0.757-0.319C19.879,105.596,19.762,104.415,19.598,103.071z"/>
	<path fill-rule="evenodd" clip-rule="evenodd" fill="#FFFFFF" d="M126.871,59.967c0.298-0.39,0.546-1.049,0.902-1.114
		c0.729-0.133,1.527,0.002,2.271,0.152c0.15,0.031,0.263,0.623,0.241,0.946c-0.01,0.132-0.42,0.325-0.655,0.337
		c-0.822,0.042-1.649,0.016-2.474,0.016C127.062,60.192,126.967,60.08,126.871,59.967z"/>
	<path fill-rule="evenodd" clip-rule="evenodd" fill="#FFFFFF" d="M21.418,108.426c1.557-0.739,1.794-0.634,2.062,0.93
		c-0.371,0.145-0.751,0.339-1.155,0.439c-0.828,0.208-2.181-0.65-2.264-1.47c-0.022-0.223,0.231-0.598,0.445-0.683
		c0.182-0.072,0.515,0.139,0.731,0.294C21.352,108.019,21.359,108.25,21.418,108.426z"/>
	<path fill-rule="evenodd" clip-rule="evenodd" fill="#FFFFFF" d="M19.946,102.164c0.187-0.987,0.345-1.982,0.6-2.953
		c0.031-0.12,0.839-0.178,0.849-0.144c0.201,0.726,0.569,1.521,0.414,2.189c-0.114,0.492-0.929,0.821-1.432,1.223
		C20.233,102.375,20.089,102.27,19.946,102.164z"/>
	<path fill-rule="evenodd" clip-rule="evenodd" fill="#FFFFFF" d="M132.307,48.665c-0.046,0.583,0.021,1.1-0.156,1.512
		c-0.115,0.27-0.581,0.39-0.891,0.577c-0.129-0.25-0.381-0.507-0.365-0.747c0.055-0.888,0.183-1.773,0.325-2.653
		c0.021-0.127,0.313-0.333,0.415-0.3c0.223,0.071,0.528,0.24,0.576,0.427C132.318,47.893,132.287,48.341,132.307,48.665z"/>
	<path fill-rule="evenodd" clip-rule="evenodd" fill="#FFFFFF" d="M29.289,82.956c-0.351-0.071-1.145-0.157-1.145-0.246
		c-0.002-0.649,0.076-1.329,0.3-1.936c0.088-0.237,0.607-0.413,0.944-0.44c0.633-0.052,0.717,0.331,0.509,0.86
		C29.706,81.682,29.553,82.185,29.289,82.956z"/>
	<path fill-rule="evenodd" clip-rule="evenodd" fill="#FFFFFF" d="M40.847,38.467c-0.374,0.328-0.53,0.555-0.741,0.633
		c-0.625,0.229-1.856-0.58-1.847-1.24c0.003-0.241,0.406-0.695,0.427-0.683C39.363,37.542,40.015,37.954,40.847,38.467z"/>
	<path fill-rule="evenodd" clip-rule="evenodd" fill="#FFFFFF" d="M30.972,50.084c0.078,1.323-0.456,2.045-1.628,2.202
		C29.136,51.208,29.915,50.155,30.972,50.084z"/>
	<path fill-rule="evenodd" clip-rule="evenodd" fill="#FFFFFF" d="M33.746,116.138c-0.012-1.079,0.967-1.231,1.665-1.626
		c0.095-0.054,0.438,0.104,0.474,0.223c0.062,0.204,0.059,0.568-0.069,0.664c-0.557,0.422-1.169,0.771-1.762,1.146
		C33.952,116.409,33.849,116.273,33.746,116.138z"/>
	<path fill-rule="evenodd" clip-rule="evenodd" fill="#FFFFFF" d="M57.923,80.336c-0.495,0.483-0.852,0.833-1.21,1.184
		c-0.199-0.223-0.608-0.574-0.563-0.646c0.272-0.444,0.648-0.824,0.989-1.227C57.339,79.822,57.539,79.997,57.923,80.336z"/>
	<path fill-rule="evenodd" clip-rule="evenodd" fill="#FFFFFF" d="M20.919,97.076c0.363-0.505,0.626-0.872,0.89-1.239
		c0.279,0.333,0.785,0.674,0.773,0.995c-0.012,0.323-0.516,0.661-0.865,0.906C21.657,97.78,21.296,97.395,20.919,97.076z"/>
	<path fill-rule="evenodd" clip-rule="evenodd" fill="#FFFFFF" d="M70.926,45.083c0.541-0.442,0.889-0.726,1.236-1.009
		c0.199,0.267,0.621,0.631,0.556,0.783c-0.18,0.414-0.565,0.738-0.87,1.098C71.61,45.729,71.372,45.504,70.926,45.083z"/>
	<path fill-rule="evenodd" clip-rule="evenodd" fill="#FFFFFF" d="M34.542,111.947c0.421,0.272,0.731,0.473,1.041,0.673
		c-0.383,0.206-0.761,0.559-1.152,0.576c-0.366,0.017-0.748-0.322-1.124-0.505C33.686,112.464,34.063,112.236,34.542,111.947z"/>
	<path fill-rule="evenodd" clip-rule="evenodd" fill="#FFFFFF" d="M26.842,55.502c0.019,1.009-0.682,1.671-1.751,1.655
		C25.126,56.155,25.842,55.478,26.842,55.502z"/>
	<path fill-rule="evenodd" clip-rule="evenodd" fill="#FFFFFF" d="M61.595,77.352c-0.434,0.452-0.867,0.905-1.465,1.531
		c-0.314-1.53-0.088-1.798,1.136-1.857C61.375,77.134,61.485,77.242,61.595,77.352z"/>
	<path fill-rule="evenodd" clip-rule="evenodd" fill="#FFFFFF" d="M90.778,69.837c-0.311,0.568-0.567,1.035-0.824,1.503
		c-0.182-0.2-0.508-0.391-0.52-0.601C89.397,70.096,89.563,69.536,90.778,69.837z"/>
	<path fill-rule="evenodd" clip-rule="evenodd" fill="#FFFFFF" d="M37.885,40.692c0.367,0.36,0.614,0.602,0.861,0.844
		c-0.262,0.166-0.545,0.49-0.781,0.458c-0.306-0.041-0.573-0.366-0.857-0.568C37.323,41.223,37.539,41.019,37.885,40.692z"/>
	<path fill-rule="evenodd" clip-rule="evenodd" fill="#FFFFFF" d="M42.205,111.332c0.092,0.339,0.331,0.729,0.234,1.002
		c-0.093,0.263-0.521,0.527-0.822,0.554c-0.203,0.018-0.441-0.378-0.664-0.589c0.213-0.201,0.426-0.402,0.639-0.604
		C41.796,111.574,42,111.453,42.205,111.332z"/>
	<path fill-rule="evenodd" clip-rule="evenodd" fill="#FFFFFF" d="M22.512,95.831c-0.299-0.382-0.594-0.607-0.557-0.74
		c0.081-0.291,0.33-0.534,0.51-0.796c0.203,0.166,0.581,0.344,0.571,0.498C23.021,95.076,22.775,95.346,22.512,95.831z"/>
	<path fill-rule="evenodd" clip-rule="evenodd" fill="#FFFFFF" d="M41.891,116.168c-0.299,0.305-0.598,0.609-0.897,0.915
		c-0.165-0.165-0.33-0.33-0.494-0.495c0.312-0.294,0.624-0.587,0.936-0.881C41.587,115.86,41.739,116.014,41.891,116.168z"/>
	<path fill-rule="evenodd" clip-rule="evenodd" d="M117.016,50.917c0,0.701,0,1.354,0,2.173c-0.336-0.095-0.646-0.114-0.869-0.262
		c-0.339-0.224-0.617-0.538-0.921-0.813c-0.217,0.409-0.434,0.818-0.755,1.425c-0.148-0.326-0.295-0.645-0.491-1.077
		c-0.777,0.262-1.984-0.739-2.433,0.946c-0.077,0.29-1.137,0.317-1.734,0.464c-0.525-1.558-0.275-2.133,1.061-2.484
		c0.152-0.04,0.316-0.036,0.476-0.045C113.205,51.137,115.061,51.03,117.016,50.917z"/>
	<path fill-rule="evenodd" clip-rule="evenodd" d="M97.971,44.858c3.023-0.163,6.048-0.326,9.071-0.489
		c0.006,0.114,0.012,0.228,0.018,0.342c-3.026,0.199-6.054,0.398-9.081,0.598C97.976,45.159,97.974,45.009,97.971,44.858z"/>
	<path fill-rule="evenodd" clip-rule="evenodd" d="M62.89,45.68c-1.227,1.335-1.646,1.334-2.302,0
		C61.357,45.68,62.062,45.68,62.89,45.68z"/>
</g>
</svg>
