<?xml version="1.0" encoding="utf-8"?>
<!-- Generator: Adobe Illustrator 16.0.0, SVG Export Plug-In . SVG Version: 6.00 Build 0)  -->
<!DOCTYPE svg PUBLIC "-//W3C//DTD SVG 1.1//EN" "http://www.w3.org/Graphics/SVG/1.1/DTD/svg11.dtd">
<svg version="1.1" id="Layer_1" xmlns="http://www.w3.org/2000/svg" xmlns:xlink="http://www.w3.org/1999/xlink" x="0px" y="0px"
	 width="144px" height="144px" viewBox="0 0 144 144" enable-background="new 0 0 144 144" xml:space="preserve">
<g>
	<path fill="#FFFFFF" d="M72.316,41.356c1.638,0.47,1.896,1.579,2.034,2.706c0.334,2.703-0.302,5.452,0.61,8.159
		c0.462,1.373,0.289,2.924,0.604,4.414c0.474,2.241,0.38,4.603,0.665,6.921c0.393,3.189,0.09,6.464,0.085,9.702
		c-0.001,0.654,0,1.31,0,1.954c0.364,0.028,0.487,0.064,0.6,0.043c0.813-0.152,1.417-0.09,1.467,0.982
		c0.046,0.99-0.358,1.305-1.287,1.156c-0.799-0.128-0.854,0.462-0.808,0.991c0.243,2.708,0.485,5.417,0.805,8.117
		c0.113,0.959,0.451,1.891,0.669,2.839c0.382,1.658,0.965,3.307,1.076,4.984c0.19,2.865,0.007,5.754,0.124,8.626
		c0.079,1.96,0.583,3.91,0.567,5.862c-0.017,2.196-0.378,4.394-0.658,6.582c-0.035,0.277-0.46,0.682-0.746,0.721
		c-1.761,0.24-3.536,0.553-5.303,0.532c-2.121-0.024-4.251-0.273-6.355-0.582c-1.808-0.265-3.586-0.734-5.371-1.142
		c-0.914-0.209-1.82-0.46-2.72-0.726c-1.19-0.353-2.392-0.684-3.55-1.127c-1.098-0.42-2.154-0.952-3.21-1.474
		c-1.036-0.512-2.063-1.047-3.064-1.623c-0.441-0.255-0.791-0.663-1.212-0.959c-1.826-1.284-3.652-2.566-5.499-3.819
		c-0.894-0.607-1.015-1.585-1.427-2.465c-1.139-2.432-2.491-4.765-3.762-7.135c-0.257-0.479-0.53-0.951-0.903-1.62
		c-0.15,0.402-0.217,0.538-0.251,0.682c-0.123,0.526-0.08,1.375-0.381,1.52c-0.762,0.368-1.416-0.13-1.91-0.796
		c-0.192-0.259-0.499-0.432-0.754-0.644c-0.068,0.073-0.136,0.146-0.205,0.219c1.135,1.616,2.22,3.271,3.42,4.836
		c0.91,1.187,1.969,2.253,3.113,3.236c0.422,0.363,0.603,1.001,1.014,1.386c1.032,0.967,2.144,1.849,3.201,2.789
		c0.406,0.361,0.696,0.872,1.136,1.174c1.228,0.84,2.497,1.621,3.766,2.399c1.836,1.126,3.608,2.402,5.553,3.297
		c1.999,0.919,4.174,1.457,6.272,2.164c0.73,0.246,1.46,0.497,2.189,0.748c0.99,0.341,1.958,0.887,2.972,0.988
		c3.109,0.312,6.234,0.503,9.358,0.634c0.958,0.039,1.928-0.336,2.899-0.401c1.314-0.088,2.637-0.062,3.956-0.08
		c2.299-0.033,4.602-0.01,6.834-0.704c1.199-0.373,2.393-0.788,3.618-1.04c1.809-0.371,3.643-0.613,5.467-0.91
		c0.187-0.03,0.374-0.06,0.519-0.082c0.165-0.564,0.159-1.217,0.48-1.503c0.662-0.591,1.492-1,2.267-1.461
		c1.902-1.132,4.298-1.554,5.429-3.796c0.042-0.084,0.193-0.132,0.303-0.161c0.859-0.225,1.738-0.392,2.573-0.686
		c0.306-0.107,0.714-0.501,0.722-0.774c0.032-1.081,0.463-1.885,1.272-2.573c0.512-0.436,0.977-0.949,1.372-1.494
		c0.933-1.283,1.808-2.607,2.714-3.91c0.159-0.228,0.407-0.403,0.527-0.646c0.756-1.535,1.443-3.104,2.237-4.619
		c1.068-2.037,2.137-4.08,3.346-6.033c1.054-1.702,1.215-3.616,1.596-5.479c0.347-1.69,0.514-3.417,0.802-5.12
		c0.354-2.083,0.977-4.147,1.075-6.239c0.135-2.874,0.605-5.809-0.528-8.631c-0.291-0.723-0.449-1.505-0.607-2.272
		c-0.294-1.426-0.502-2.87-0.828-4.287c-0.183-0.794-0.509-1.559-0.812-2.32c-0.521-1.307-1.19-2.567-1.584-3.909
		c-0.505-1.718-1.196-3.289-2.31-4.707c-0.671-0.854-1.146-1.861-1.722-2.792c-0.824-1.333-1.528-2.771-2.524-3.962
		c-1.197-1.432-2.665-2.636-3.979-3.976c-0.398-0.407-0.611-0.999-1.02-1.392c-0.587-0.565-1.303-0.995-1.914-1.538
		c-0.835-0.742-1.526-1.69-2.453-2.275c-1.745-1.102-3.645-1.955-5.425-3.005c-3.066-1.812-6.322-3.321-9.753-4.051
		c-2.279-0.485-4.58-1.472-7.087-0.942c-0.917,0.194-1.977-0.43-2.976-0.454c-4.075-0.096-8.152-0.099-12.228-0.149
		c-0.7-0.008-1.104,0.144-1.143,0.988c-0.017,0.375-0.447,0.828-0.809,1.067c-0.562,0.373-1.226,0.593-1.846,0.877
		c0.02,0.123,0.041,0.246,0.061,0.369c0.469,0,0.951,0.068,1.405-0.014c1.001-0.182,1.988-0.438,2.98-0.666
		c0.193-0.044,0.382-0.105,0.576-0.146c1.635-0.349,3.264-0.74,4.91-1.022c0.989-0.17,1.624,0.339,1.702,1.367
		c0.076,1.022-0.841,2.382-1.628,2.347c-0.891-0.041-1.778-0.372-2.658-0.343c-1.498,0.049-2.991,0.272-4.483,0.443
		c-0.307,0.035-0.603,0.159-0.904,0.242c0.011,0.122,0.021,0.244,0.032,0.366c0.319,0.037,0.639,0.105,0.958,0.105
		c2.198,0.002,4.396-0.012,6.593-0.016c1.474-0.003,1.522,0.053,1.519,1.562c-0.007,3.038-0.016,6.076-0.014,9.114
		C73.756,38.455,74.126,40.121,72.316,41.356z M28.657,87.325c0.233-0.564,0.423-0.791,0.379-0.958
		c-0.155-0.597-0.512-1.16-0.572-1.759c-0.282-2.822-0.52-5.65-0.679-8.482c-0.016-0.288,0.606-0.611,0.933-0.919
		c0.304,0.327,0.798,0.613,0.878,0.988c0.32,1.491,0.457,3.021,0.771,4.515c0.17,0.809,0.56,1.57,0.851,2.353
		c0.1-0.007,0.2-0.015,0.299-0.021c0.027-0.428,0.16-0.882,0.062-1.278c-0.362-1.459-0.933-2.878-1.179-4.353
		c-0.309-1.853-0.51-3.771-0.612-5.602c-0.209-3.729,0.322-7.499,0.551-11.251c0.007-0.119,0.027-0.242,0.069-0.352
		c0.606-1.594,1.18-3.202,1.838-4.774c0.909-2.173,1.734-4.401,2.87-6.454c1.157-2.091,2.632-4.008,3.996-5.983
		c0.663-0.961,1.382-1.884,2.087-2.815c1.218-1.608,2.325-3.323,3.702-4.781c1.313-1.39,2.876-2.557,4.4-3.73
		c0.829-0.639,1.777-1.141,2.721-1.606c1.081-0.533,2.209-0.97,3.327-1.423c2.399-0.973,4.83-1.809,7.472-1.798
		c0.401,0.001,0.803-0.186,1.204-0.286c-0.018-0.134-0.037-0.268-0.055-0.402c-0.409-0.032-0.819-0.049-1.226-0.1
		c-0.447-0.056-0.889-0.143-1.333-0.217c0.139-0.542,0.272-1.084,0.419-1.624c0.039-0.143,0.115-0.276,0.348-0.818
		c-0.927,0.322-1.555,0.491-2.141,0.755c-1.025,0.461-2.052,0.931-3.025,1.489c-0.874,0.5-1.604,1.326-2.523,1.659
		c-2.929,1.06-4.975,3.374-7.451,5.064c-2.219,1.515-4.35,3.206-6.305,5.046c-1.681,1.583-3.107,3.449-4.553,5.264
		c-0.913,1.146-1.482,2.604-2.513,3.605c-1.339,1.299-2.021,2.917-2.76,4.504c-0.805,1.728-1.353,3.575-2.017,5.369
		c-0.605,1.635-1.479,3.225-1.761,4.914c-0.428,2.563-0.505,5.193-0.616,7.8c-0.056,1.32,0.188,2.631,0.406,3.957
		c0.442,2.698-0.173,5.508,0.653,8.234c0.28,0.925,0.01,2.002,0.168,2.981C27.9,85.036,28.277,86.004,28.657,87.325z M32.716,86.378
		c-0.196,0.063-0.392,0.126-0.588,0.189c0.533,1.453,1.066,2.906,1.599,4.36c0.182-0.064,0.363-0.128,0.545-0.191
		C33.753,89.283,33.234,87.831,32.716,86.378z"/>
	<path fill-rule="evenodd" clip-rule="evenodd" d="M72.316,41.356c1.81-1.235,1.439-2.901,1.438-4.477
		c-0.002-3.038,0.007-6.076,0.014-9.114c0.004-1.509-0.045-1.565-1.519-1.562c-2.197,0.004-4.396,0.018-6.593,0.016
		c-0.32,0-0.639-0.069-0.958-0.105c-0.011-0.122-0.021-0.244-0.032-0.366c0.301-0.083,0.597-0.208,0.904-0.242
		c1.492-0.17,2.985-0.394,4.483-0.443c0.88-0.029,1.768,0.303,2.658,0.343c0.787,0.035,1.704-1.325,1.628-2.347
		c-0.078-1.028-0.713-1.537-1.702-1.367c-1.646,0.283-3.275,0.674-4.91,1.022c-0.194,0.041-0.383,0.102-0.576,0.146
		c-0.992,0.228-1.979,0.484-2.98,0.666c-0.455,0.082-0.936,0.014-1.405,0.014c-0.02-0.123-0.041-0.246-0.061-0.369
		c0.621-0.285,1.284-0.505,1.846-0.877c0.361-0.239,0.792-0.693,0.809-1.067c0.038-0.845,0.442-0.997,1.143-0.988
		c4.076,0.05,8.153,0.053,12.228,0.149c0.999,0.023,2.059,0.647,2.976,0.454c2.507-0.53,4.808,0.457,7.087,0.942
		c3.431,0.73,6.687,2.239,9.753,4.051c1.78,1.051,3.68,1.904,5.425,3.005c0.927,0.585,1.618,1.533,2.453,2.275
		c0.611,0.543,1.327,0.973,1.914,1.538c0.408,0.393,0.621,0.985,1.02,1.392c1.313,1.339,2.781,2.543,3.979,3.976
		c0.996,1.191,1.7,2.629,2.524,3.962c0.575,0.931,1.051,1.938,1.722,2.792c1.113,1.417,1.805,2.988,2.31,4.707
		c0.394,1.342,1.063,2.602,1.584,3.909c0.303,0.761,0.629,1.526,0.812,2.32c0.326,1.417,0.534,2.861,0.828,4.287
		c0.158,0.767,0.316,1.549,0.607,2.272c1.134,2.822,0.663,5.757,0.528,8.631c-0.099,2.092-0.722,4.156-1.075,6.239
		c-0.288,1.703-0.455,3.43-0.802,5.12c-0.381,1.862-0.542,3.776-1.596,5.479c-1.209,1.953-2.277,3.996-3.346,6.033
		c-0.794,1.515-1.481,3.084-2.237,4.619c-0.12,0.243-0.368,0.419-0.527,0.646c-0.906,1.303-1.781,2.627-2.714,3.91
		c-0.396,0.545-0.86,1.059-1.372,1.494c-0.81,0.688-1.24,1.492-1.272,2.573c-0.008,0.273-0.416,0.667-0.722,0.774
		c-0.835,0.294-1.714,0.461-2.573,0.686c-0.109,0.029-0.261,0.077-0.303,0.161c-1.131,2.242-3.526,2.664-5.429,3.796
		c-0.774,0.461-1.604,0.87-2.267,1.461c-0.321,0.286-0.315,0.938-0.48,1.503c-0.145,0.022-0.332,0.052-0.519,0.082
		c-1.824,0.297-3.658,0.539-5.467,0.91c-1.226,0.252-2.419,0.667-3.618,1.04c-2.232,0.694-4.535,0.671-6.834,0.704
		c-1.319,0.019-2.642-0.008-3.956,0.08c-0.972,0.065-1.941,0.44-2.899,0.401c-3.124-0.131-6.249-0.321-9.358-0.634
		c-1.014-0.102-1.982-0.647-2.972-0.988c-0.729-0.251-1.459-0.502-2.189-0.748c-2.098-0.707-4.273-1.245-6.272-2.164
		c-1.945-0.895-3.717-2.171-5.553-3.297c-1.269-0.778-2.539-1.56-3.766-2.399c-0.44-0.302-0.73-0.812-1.136-1.174
		c-1.057-0.94-2.169-1.822-3.201-2.789c-0.411-0.385-0.592-1.022-1.014-1.386c-1.144-0.983-2.203-2.05-3.113-3.236
		c-1.201-1.565-2.286-3.22-3.42-4.836c0.068-0.072,0.136-0.146,0.205-0.219c0.255,0.212,0.562,0.385,0.754,0.644
		c0.495,0.666,1.148,1.164,1.91,0.796c0.301-0.145,0.258-0.993,0.381-1.52c0.034-0.144,0.101-0.279,0.251-0.682
		c0.374,0.669,0.646,1.141,0.903,1.62c1.271,2.37,2.623,4.703,3.762,7.135c0.412,0.88,0.534,1.857,1.427,2.465
		c1.847,1.253,3.673,2.535,5.499,3.819c0.421,0.296,0.771,0.704,1.212,0.959c1.001,0.576,2.028,1.111,3.064,1.623
		c1.056,0.521,2.113,1.054,3.21,1.474c1.158,0.443,2.359,0.774,3.55,1.127c0.9,0.266,1.806,0.517,2.72,0.726
		c1.785,0.407,3.563,0.877,5.371,1.142c2.104,0.309,4.234,0.558,6.355,0.582c1.767,0.021,3.542-0.292,5.303-0.532
		c0.286-0.039,0.711-0.443,0.746-0.721c0.28-2.188,0.642-4.386,0.658-6.582c0.016-1.952-0.488-3.902-0.567-5.862
		c-0.117-2.872,0.066-5.761-0.124-8.626c-0.111-1.678-0.694-3.326-1.076-4.984c-0.218-0.948-0.556-1.88-0.669-2.839
		c-0.319-2.7-0.562-5.409-0.805-8.117c-0.047-0.529,0.009-1.119,0.808-0.991c0.929,0.148,1.333-0.166,1.287-1.156
		c-0.05-1.072-0.653-1.135-1.467-0.982c-0.112,0.021-0.235-0.015-0.6-0.043c0-0.645-0.001-1.3,0-1.954
		c0.005-3.238,0.308-6.513-0.085-9.702c-0.285-2.318-0.191-4.68-0.665-6.921c-0.315-1.49-0.143-3.042-0.604-4.414
		c-0.912-2.707-0.276-5.456-0.61-8.159C74.212,42.935,73.954,41.826,72.316,41.356z M118.394,74.298
		c-0.123,1.169,0.284,2.33,1.437,3.188c0.894,0.665,2.115,0.5,2.287-0.562c0.197-1.222,1.383-2.372,0.424-3.733
		c-0.06-0.085,0.063-0.291,0.085-0.442c0.101-0.697,0.309-1.401,0.269-2.091c-0.089-1.529-0.35-3.047-0.454-4.577
		c-0.098-1.433,0.046-2.892-0.152-4.306c-0.271-1.93-1.053-3.674-3.033-4.436c-0.559-0.215-1.291,0.021-1.944,0.05
		c0.149,0.603,0.302,1.206,0.447,1.81c0.04,0.169,0.06,0.342,0.093,0.536c-0.904-0.218-1.705-0.499-2.524-0.574
		c-0.438-0.041-0.908,0.274-1.364,0.428c0.208,0.518,0.309,1.128,0.652,1.531c0.417,0.489,1.058,0.779,1.568,1.196
		c1.374,1.122,2.733,2.262,4.088,3.407c0.101,0.084,0.112,0.272,0.186,0.465c-0.19,0.085-0.32,0.165-0.462,0.203
		c-0.509,0.136-1.269-0.399-1.472,0.547c-0.173,0.801-0.217,1.47,0.568,2.129c0.623,0.523,0.976,1.402,1.34,2.175
		c0.092,0.195-0.213,0.831-0.374,0.845c-0.681,0.062-0.857,0.396-0.863,1.004c-0.001,0.118-0.325,0.232-0.334,0.239
		c-0.438-0.466-0.946-1.211-1.106-1.142c-0.674,0.287-1.3,0.764-1.816,1.294c-0.162,0.166,0.08,1.048,0.128,1.047
		C116.756,74.519,117.446,74.412,118.394,74.298z M91.2,72.525c0.012-0.219,0.026-0.447,0.033-0.676
		c0.025-0.767,0.349-1.758-0.974-1.687c-0.979,0.053-1.114-0.343-1.029-1.212c0.041-0.424-0.266-1.176-0.589-1.291
		c-1.74-0.618-3.748,0.896-3.858,2.726c-0.021,0.355-0.414,0.688-0.63,1.034c-0.235,0.377-0.649,0.756-0.654,1.138
		c-0.008,0.615-0.072,1.485,0.953,1.475c0.844-0.008,1.021,0.396,1.112,1.173c0.057,0.481,0.64,1.3,0.944,1.281
		c1.127-0.069,1.386,0.345,1.545,1.39c0.08,0.526,0.869,1.091,1.463,1.341c0.402,0.168,1.454-0.146,1.469-0.309
		c0.056-0.632-0.192-1.289-0.316-1.938c-0.013-0.063,0.051-0.141,0.08-0.212c2.255-0.078,2.965-0.488,3.097-1.792
		C94,73.453,93.54,73.021,91.2,72.525z M95.233,62.859c-0.062,1.045-0.363,1.9-0.066,2.398c0.24,0.402,1.2,0.375,1.856,0.543
		c0.163,2.223,0.18,2.241,2.424,2.725c0.327,0.444,0.716,1.02,1.146,1.053c0.92,0.071,1.59-0.31,1.741-1.458
		c0.16-1.215-0.693-1.088-1.389-1.253c0.064-1.889-1.372-1.89-2.641-2.082c0-0.266-0.018-0.46,0.003-0.649
		c0.179-1.636,0.138-1.717-1.51-1.689c-0.712,0.012-1.052-0.144-0.954-0.927c0.104-0.836-0.366-1.123-1.155-1.113
		c-1.174,0.014-2.836,1.397-2.829,2.55c0.003,0.454,0.324,1.109,0.695,1.307c0.495,0.264,1.133,0.227,1.366-0.643
		C94.001,63.323,94.652,63.179,95.233,62.859z M76.957,57.634c-0.081,0.026-0.161,0.052-0.242,0.077
		c0.322,1.116,0.531,2.283,1.002,3.332c0.442,0.985,1.107,1.89,1.779,2.747c0.572,0.731,1.858,0.772,1.896,0.169
		c0.086-1.356,0.255-2.913-0.305-4.045c-0.553-1.12-1.554-1.931-1.567-3.413c-0.007-0.842-0.883-1.371-1.88-1.217
		c-0.999,0.154-0.636,0.93-0.68,1.513C76.939,57.073,76.957,57.354,76.957,57.634z M78.895,71.942
		c-0.024,0.003-0.049,0.007-0.073,0.011c0.021,0.317-0.078,0.751,0.091,0.924c0.287,0.294,0.732,0.545,1.132,0.579
		c0.278,0.024,0.861-0.372,0.846-0.532c-0.125-1.208,0.58-2.073,1.091-3.028c0.496-0.928,0.287-2.224-0.575-2.625
		c-0.841-0.391-1.395-0.78-1.281-1.799c0.016-0.144-0.365-0.467-0.571-0.475c-0.573-0.021-1.559-0.073-1.648,0.166
		c-0.246,0.646-0.236,1.46-0.104,2.165C78.092,68.881,78.521,70.406,78.895,71.942z M117.192,69.542
		c0.061-1.05-1.715-2.286-2.792-1.951c-0.799,0.248-1.664,0.366-2.384,0.757c-0.521,0.282-0.986,0.855-1.229,1.407
		c-0.269,0.613,0.125,1.035,0.83,1.118c0.158,0.019,0.346,0.209,0.432,0.368c0.733,1.364,1.905,0.974,3.002,0.729
		C116.058,71.745,117.141,70.455,117.192,69.542z M111.077,39.638c-0.433-0.839-0.673-1.971-1.133-2.068
		c-1.268-0.27-1.809-1.162-2.568-1.978c-0.735-0.79-1.653-1.46-2.604-1.975c-0.435-0.235-1.14,0.029-1.722,0.066
		c0.05,0.502-0.08,1.15,0.185,1.478c0.65,0.804,1.468,1.477,2.252,2.164c0.22,0.192,0.572,0.377,0.84,0.347
		c1.397-0.159,1.944,0.351,1.803,1.805c-0.081,0.842,1.046,1.744,1.895,1.518C110.424,40.889,110.667,40.195,111.077,39.638z
		 M84.056,91.113c-0.112-1.168-1.001-2.382-2.254-3.321c-0.32-0.241-0.959-0.284-1.339-0.134c-0.227,0.09-0.308,0.729-0.326,1.127
		c-0.034,0.712,0.078,1.432,0.039,2.144c-0.062,1.111,0.102,1.834,1.422,2.244C83.27,93.692,84.041,93.359,84.056,91.113z
		 M87.307,53.732c0.036-0.27,0.106-0.658,0.135-1.049c0.079-1.11-0.257-1.404-1.312-1.173c-1.163,0.255-2.582,2.322-1.953,3.181
		c0.585,0.799,1.495,1.334,1.734,2.439c0.021,0.097,1.439,0.195,1.712-0.127c0.571-0.676,0.852-1.619,1.125-2.493
		C88.775,54.424,87.932,54.064,87.307,53.732z M107.904,76.718c1.371-0.015,2.852-1.167,2.819-2.195
		c-0.028-0.914-1.468-1.85-2.796-1.816c-1.615,0.039-2.489,0.852-2.446,2.272C105.515,76.05,106.465,76.732,107.904,76.718z
		 M87.44,91.299c-0.055,0.773-0.296,1.952,1.398,1.478c0.098-0.027,0.42,0.329,0.447,0.533c0.221,1.622,0.199,1.572,1.703,1.367
		c1.245-0.171,0.748-1.141,0.854-1.767c0.127-0.75-0.519-0.729-1.059-0.732c-0.424-0.003-1.218-0.05-1.218-0.076
		c0-1.111-0.835-1.278-1.427-1.356c0.123-0.815,0.228-1.505,0.332-2.193c-0.653-0.037-1.521-0.345-1.904-0.04
		c-0.431,0.341-0.564,1.239-0.539,1.884C86.039,90.664,86.793,90.904,87.44,91.299z M104.104,68.981
		c-0.925-0.021-2.438,1.329-2.484,2.215c-0.04,0.769,1.368,2.154,2.193,2.158c0.874,0.005,2.294-1.341,2.332-2.209
		C106.18,70.368,104.888,68.999,104.104,68.981z M80.206,23.52c0.119-1.775,0.12-1.781-1.383-1.853
		c-0.476-0.023-0.971-0.083-1.425,0.016c-0.367,0.08-0.94,0.335-0.979,0.582c-0.099,0.623-0.153,1.417,0.155,1.899
		c0.428,0.67,1.16,1.185,1.849,1.634c0.349,0.228,0.945,0.321,1.32,0.181c0.283-0.106,0.508-0.665,0.552-1.046
		C80.359,24.394,80.232,23.832,80.206,23.52z M93.146,98.476c-1.36-0.089-1.415,1.926-2.873,1.721
		c-0.041-0.005-0.199,0.284-0.168,0.4c0.11,0.417,0.291,1.172,0.424,1.167c0.638-0.021,1.296-0.186,1.894-0.43
		c0.333-0.137,0.645-0.483,0.82-0.813c0.563-1.052,1.14-2.021,2.391-2.452c0.157-0.054,0.157-1.311-0.152-1.721
		c-0.22-0.289-1.166-0.266-1.637-0.051c-0.356,0.162-0.511,0.834-0.684,1.305C93.074,97.841,93.146,98.138,93.146,98.476z
		 M86.218,31.371c-0.022-1.178-0.589-1.614-1.659-1.132c-0.827,0.373-1.379,1.184-0.95,1.928c0.749,1.301,1.57-0.04,2.746-0.39
		c-0.367,0.615-0.642,0.913-0.727,1.257c-0.107,0.437-0.196,0.975-0.024,1.343c0.084,0.181,0.892,0.254,1.168,0.07
		c0.651-0.432,1.354-0.957,1.702-1.619c0.267-0.507,0.022-1.282,0.005-1.938c-0.611,0.12-1.223,0.239-1.834,0.361
		C86.535,31.274,86.429,31.312,86.218,31.371z M83.566,84.805c-0.035,0-0.07,0-0.105,0c0-0.516,0.048-1.037-0.02-1.543
		c-0.035-0.269-0.294-0.74-0.413-0.729c-0.958,0.096-1.979,0.119-2.839,0.493c-0.848,0.37-0.753,1.25-0.216,1.915
		c0.521,0.646,1.102,1.273,1.763,1.763c0.36,0.266,0.971,0.358,1.416,0.269c0.204-0.041,0.325-0.703,0.4-1.1
		C83.618,85.528,83.566,85.162,83.566,84.805z M115.014,51.904c-0.157,0.021-0.621-0.008-0.99,0.165
		c-0.291,0.136-0.615,0.503-0.652,0.8c-0.038,0.314,0.169,0.747,0.41,0.984c0.264,0.26,0.675,0.442,1.048,0.503
		c0.754,0.125,1.525,0.146,2.29,0.21c-0.1-0.724-0.2-1.449-0.319-2.318c0.871-0.064,0.71-0.921,0.354-1.521
		c-0.227-0.382-0.959-0.464-1.465-0.681C115.49,50.592,115.291,51.139,115.014,51.904z M113.395,76.206
		c-1.389-0.03-3.306,1.969-3.232,2.935c0.071,0.94,1.141,1.577,2.036,1.212c1.106-0.451,2.07-2.033,1.834-3.218
		C113.95,76.724,113.521,76.381,113.395,76.206z M85.408,44.967c0,0.439-0.09,0.759,0.021,0.974c0.18,0.349,0.598,0.929,0.729,0.883
		c0.439-0.155,0.946-0.469,1.147-0.864c0.248-0.487,0.124-1.061-0.666-1.036c-0.812,0.027-0.797-0.482-0.682-1.044
		c0.146-0.711-0.207-1.004-0.849-0.917c-0.841,0.115-1.168-0.128-1.104-1.03c0.021-0.304-0.529-0.948-0.646-0.91
		c-0.453,0.148-0.974,0.432-1.19,0.821c-0.106,0.19,0.359,1.004,0.639,1.045c0.751,0.11,0.837,0.489,0.747,1.072
		c-0.113,0.736,0.208,1.047,0.931,1.007C84.755,44.955,85.025,44.967,85.408,44.967z M97.734,79.176
		c0.042-0.967-0.586-1.757-1.447-1.822c-0.837-0.064-2.388,1.377-2.42,2.247c-0.031,0.82,0.843,1.56,1.878,1.589
		C96.93,81.223,97.679,80.465,97.734,79.176z M84.039,82.499c0.207,0.694,0.23,1.361,0.569,1.762
		c0.438,0.519,1.092,0.899,1.722,1.193c0.386,0.181,1.034,0.269,1.318,0.061c0.269-0.196,0.424-0.938,0.264-1.256
		c-0.452-0.895-1.003-1.78-1.695-2.493c-0.359-0.37-1.108-0.497-1.666-0.468C84.352,81.309,84.195,82.107,84.039,82.499z
		 M82.403,77.331c-0.27-0.517-0.438-1.181-0.862-1.549c-0.385-0.334-1.061-0.473-1.586-0.429c-0.185,0.016-0.391,0.817-0.431,1.274
		c-0.056,0.628-0.02,1.279,0.082,1.903c0.079,0.486,0.319,0.948,0.487,1.42c0.573-0.269,1.275-0.415,1.683-0.842
		C82.138,78.729,82.174,78.037,82.403,77.331z M93.047,28.21c0.656-0.076,1.091-0.035,1.431-0.196
		c0.257-0.121,0.523-0.488,0.548-0.767c0.029-0.337-0.093-0.801-0.327-1.021c-0.446-0.418-1.015-0.707-1.538-1.041
		c-0.872-0.558-1.602-0.253-2.189,0.449c-0.578,0.69-0.57,1.477,0.208,1.951C91.789,27.958,92.564,28.058,93.047,28.21z
		 M107.408,105.026c1.329-0.004,2.565-0.938,2.639-1.991c0.056-0.804,0.604-0.844,1.089-1.171c0.435-0.293,0.646-0.946,0.882-1.475
		c0.037-0.083-0.396-0.526-0.481-0.49c-0.512,0.214-0.986,0.518-1.472,0.796c-0.025,0.015-0.032,0.071-0.039,0.11
		c-0.16,0.887-0.537,1.53-1.526,1.751c-0.473,0.104-0.985,0.409-1.287,0.78c-0.255,0.312-0.307,0.854-0.295,1.29
		C106.922,104.805,107.334,104.971,107.408,105.026z M108.588,64.748c-0.603,0.293-1.345,0.419-1.625,0.847
		c-0.407,0.622-0.051,1.276,0.645,1.66c0.164,0.09,0.271,0.285,0.405,0.429c0.595,0.633,1.942,0.755,2.451,0.223
		c0.518-0.542,0.417-1.785-0.279-2.331C109.746,65.232,109.183,65.048,108.588,64.748z M118.114,85.377
		c0.576-0.358,1.179-0.567,1.516-0.989c0.337-0.424,0.498-1.048,0.568-1.604c0.063-0.494-0.104-1.018-0.169-1.527
		c-0.448,0.082-0.975,0.044-1.324,0.275c-0.53,0.351-1.006,0.84-1.379,1.36c-0.338,0.473-0.729,1.092-0.671,1.597
		C116.691,84.807,117.513,85.034,118.114,85.377z M101.043,58.36c-0.419,0.226-1.078,0.366-1.198,0.699
		c-0.149,0.419,0.024,1.069,0.282,1.48c0.182,0.291,0.726,0.455,1.123,0.488c0.58,0.048,0.947,0.097,1.048,0.822
		c0.034,0.245,0.854,0.654,1.091,0.537c0.392-0.193,0.67-0.729,0.84-1.179c0.041-0.109-0.551-0.667-0.815-0.642
		c-0.874,0.083-1.163-0.253-1.126-1.071C102.324,58.695,101.826,58.471,101.043,58.36z M103.209,87.803
		c-0.112,0.052-0.009-0.039,0.091-0.035c0.698,0.03,1.134-0.234,0.901-0.976c-0.111-0.355-0.424-0.845-0.72-0.904
		c-0.642-0.13-1.267-0.013-1.253,0.954c0.004,0.274-0.456,0.539-0.663,0.837c-0.237,0.34-0.65,0.751-0.593,1.059
		c0.091,0.49,0.41,1.129,0.813,1.316c0.402,0.187,1.374,0.037,1.479-0.219C103.476,89.326,103.262,88.643,103.209,87.803z
		 M112.714,90.453c-0.197,0.941,0.307,1.22,1.213,1.129c1.09-0.11,1.968-1.521,1.912-3.029c-0.022-0.637-0.261-0.828-0.892-0.729
		C113.981,87.974,112.75,89.341,112.714,90.453z M112.683,60.927c-0.405,0.236-1.151,0.476-1.148,0.708
		c0.006,0.547,0.241,1.215,0.62,1.603c0.445,0.456,1.118,0.728,1.738,0.958c0.33,0.122,0.879,0.128,1.104-0.07
		c0.228-0.2,0.276-0.73,0.228-1.092C115.128,62.317,113.518,61.1,112.683,60.927z M76.947,80.205c0.024,0,0.049,0,0.073,0
		c0,0.399,0.009,0.799-0.002,1.198c-0.017,0.601,0.01,1.145,0.833,1.151c0.746,0.007,1.129-0.346,1.119-1.083
		c-0.012-0.958,0.022-1.929-0.13-2.866c-0.05-0.305-0.625-0.725-0.959-0.724c-0.312,0.002-0.783,0.438-0.896,0.777
		C76.831,79.128,76.947,79.686,76.947,80.205z M82.023,45.965c-0.688,0.394-1.21,0.829-1.809,1.005
		c-0.977,0.287-0.622,1.048-0.567,1.562c0.04,0.375,0.505,0.907,0.877,1.007c1.088,0.292,2.681-1.655,2.313-2.797
		C82.745,46.455,82.351,46.265,82.023,45.965z M111.323,48.839c-1.068-0.014-1.341,0.202-1.326,1.053
		c0.018,1.026,1.054,1.954,2.183,2.03c0.944,0.064,1.167-0.472,1.178-1.249C113.371,49.573,112.576,48.855,111.323,48.839z
		 M91.935,65.086c-0.142-0.119-0.487-0.654-0.879-0.691c-1.433-0.135-2.377,0.547-2.322,1.564c0.048,0.872,0.47,1.507,1.442,1.528
		C91.26,67.511,91.924,66.755,91.935,65.086z M84.451,101.521c-0.353-2.11-0.559-2.339-1.999-2.325
		c-0.781,0.008-1.027,0.352-0.984,1.108c0.115,1.976,0.569,2.631,1.971,2.389C83.832,102.624,84.117,101.929,84.451,101.521z
		 M95.492,72.689c0.901-0.021,1.542-0.79,1.497-1.797c-0.022-0.499-1.347-1.363-2.084-1.389c-0.917-0.031-1.174,0.493-1.152,1.292
		C93.783,71.888,94.535,72.711,95.492,72.689z M76.229,44.155c0.007,0,0.015,0,0.021,0c0,0.319,0.002,0.639,0,0.958
		c-0.003,0.594,0.024,1.131,0.851,1.143c0.788,0.011,1.197-0.277,1.176-1.112c-0.018-0.677,0.059-1.356,0.037-2.034
		c-0.029-0.934-0.804-0.951-1.397-0.878c-0.265,0.033-0.524,0.602-0.667,0.973C76.143,43.483,76.229,43.835,76.229,44.155z
		 M82.33,114.025c-0.401,1.109,0.11,1.56,1.417,1.472c1.457-0.099,0.981-1.143,1.056-1.926c0.105-1.112-0.462-1.423-1.505-1.383
		C82.029,112.238,82.181,113.018,82.33,114.025z M100.446,37.096c-1.287,0.016-1.809,0.738-1.166,1.695
		c0.349,0.52,0.786,1.102,1.322,1.334c0.442,0.191,1.369,0.107,1.591-0.204C102.771,39.109,101.438,37.083,100.446,37.096z
		 M88.228,37.139c1.634-0.016,2.465-0.774,2.441-2.212c-0.011-0.702-0.261-1.036-1.015-0.944c-0.679,0.083-2.209,1.327-2.31,1.99
		C87.246,36.614,87.253,37.227,88.228,37.139z M109.943,60.723c0.463-0.27,1.009-0.423,1.244-0.78
		c0.183-0.275,0.113-1.077-0.085-1.178c-0.728-0.375-1.542-0.628-2.352-0.775c-0.337-0.061-1.015,0.205-1.06,0.421
		c-0.091,0.436-0.012,1.126,0.282,1.375C108.484,60.218,109.211,60.396,109.943,60.723z M107.218,85.271
		c0.516-0.299,1.072-0.464,1.344-0.836c0.179-0.244,0.068-1.067-0.122-1.15c-0.759-0.331-1.592-0.53-2.416-0.658
		c-0.313-0.049-0.962,0.214-0.967,0.353c-0.017,0.469,0.039,1.104,0.34,1.382C105.848,84.778,106.528,84.946,107.218,85.271z
		 M99.658,41.958c0.019-0.699-1.304-2.163-2.008-2.223c-0.957-0.082-1.456,0.398-1.076,1.263c0.317,0.723,0.888,1.425,1.524,1.892
		C98.795,43.401,99.636,42.82,99.658,41.958z M77.719,50.003c-0.683,0.038-1.402-0.016-1.323,1.043
		c0.071,0.977,0.776,1.735,1.744,1.733c0.771-0.001,1.445-0.122,1.402-1.158C79.503,50.691,78.762,50.006,77.719,50.003z
		 M85.513,58.202c-0.095-0.125-0.343-0.797-0.721-0.879c-1.032-0.226-1.966,0.737-2,1.864c-0.022,0.707,0.127,1.266,1.012,1.296
		C85.037,60.525,85.45,60.097,85.513,58.202z M83.763,67.532c0.834-0.012,2.041-1.142,2.193-2.052c0.167-1-0.303-1.514-1.146-1.049
		c-0.75,0.414-1.423,1.136-1.871,1.878C82.605,66.861,82.75,67.617,83.763,67.532z M99.201,73.867
		c-0.441,0.204-0.984,0.314-1.285,0.646c-0.187,0.206-0.158,0.942,0.041,1.099c0.568,0.445,1.242,0.823,1.934,1.026
		c0.826,0.244,1.293-0.276,1.092-1.163C100.783,74.599,100.296,73.954,99.201,73.867z M106.861,56.125
		c0.034-1.234-0.63-2.055-1.455-2.072c-0.82-0.017-1.258,0.318-1.252,1.193c0.007,1.003,0.699,1.852,1.571,1.908
		C106.679,57.214,106.867,56.642,106.861,56.125z M106.092,106.442c-0.636-0.292-1.016-0.626-1.368-0.599
		c-1.027,0.078-1.625,0.775-1.831,1.741c-0.09,0.422,0.038,0.891,0.066,1.338c0.459-0.029,1.088,0.119,1.342-0.124
		C104.918,108.21,105.36,107.438,106.092,106.442z M81.544,33.989c-1.313-0.329-1.255,0.618-1.269,1.535
		c-0.017,1.101,0.804,1.021,1.492,1.045c1.11,0.04,1.078-0.769,1.106-1.557C82.908,34.093,82.485,33.791,81.544,33.989z
		 M100.704,109.107c-0.679,0.127-1.243,0.067-1.494,0.319c-0.371,0.373-0.574,0.952-0.729,1.479
		c-0.044,0.148,0.327,0.601,0.515,0.604c0.903,0.019,1.907,0.104,2.425-0.862c0.185-0.343,0.206-0.891,0.061-1.247
		C101.393,109.184,100.845,109.154,100.704,109.107z M94.154,67.953c-0.35-0.347-0.657-0.923-1.057-0.995
		c-0.913-0.167-1.815,0.744-1.828,1.609c-0.012,0.885,0.563,1.017,1.262,1.061C93.583,69.695,93.978,69.163,94.154,67.953z
		 M83.571,96.799c-0.029-1.306-0.896-2.189-1.847-2.07c-0.327,0.042-0.826,0.464-0.862,0.758c-0.114,0.952,1.033,2.052,1.97,1.906
		C83.164,97.341,83.438,96.913,83.571,96.799z M103.016,30.882c-0.05-1.405-0.952-2.266-2.082-2.179
		c-0.269,0.021-0.712,0.476-0.716,0.737c-0.016,0.954,1.108,1.97,2.089,1.909C102.604,31.331,102.881,30.977,103.016,30.882z
		 M91.247,45.627c-0.126,0.181-0.555,0.529-0.614,0.933c-0.116,0.779,0.767,1.619,1.548,1.658c0.7,0.034,1.03-0.272,1.032-0.985
		C93.215,46.347,92.544,45.63,91.247,45.627z M94.377,42.906c-0.124,0.185-0.527,0.52-0.562,0.889
		c-0.082,0.871,0.785,1.704,1.612,1.747c0.731,0.038,0.996-0.329,1-1.009C96.433,43.685,95.63,42.898,94.377,42.906z M97.771,49.399
		c1.69-0.083,1.98-0.414,1.924-1.678c-0.028-0.636-0.318-0.812-0.924-0.752c-1.03,0.103-1.746,0.741-1.605,1.666
		C97.218,48.98,97.659,49.266,97.771,49.399z M101.694,52.634c0.788,0.156,1.26-0.165,1.224-1.057
		c-0.039-0.93-0.632-1.252-1.471-1.341c-0.971-0.102-1.074,0.46-1.106,1.229C100.3,52.44,100.766,52.74,101.694,52.634z
		 M108.813,47.767c0.066-1.221-0.741-2.125-1.637-2.177c-0.576-0.034-1.035,0.063-1.044,0.799c-0.011,0.875,0.905,1.803,1.891,1.772
		C108.341,48.151,108.649,47.854,108.813,47.767z M90.843,49.355c-0.533-0.399-1.016-0.968-1.615-1.146
		c-0.542-0.162-1.175,0.11-1.119,0.969c0.062,0.945,0.569,1.432,1.466,1.535C90.365,50.804,90.623,50.329,90.843,49.355z
		 M108.022,92.12c-0.152-0.109-0.443-0.477-0.778-0.523c-0.817-0.115-1.754,0.661-1.776,1.381c-0.018,0.551,0.072,1.011,0.823,1.009
		C107.311,93.985,107.988,93.429,108.022,92.12z M97.181,29.745c0.05-0.833-0.391-1.152-1.166-1.08
		c-0.68,0.064-1.516-0.086-1.535,1.004c-0.021,1.188,0.933,0.96,1.606,1.075C96.821,30.87,97.208,30.506,97.181,29.745z
		 M103.54,96.597c1.319-0.034,2.046-0.753,1.91-1.688c-0.04-0.273-0.494-0.679-0.771-0.69c-0.978-0.041-1.731,0.712-1.635,1.612
		C103.078,96.157,103.438,96.448,103.54,96.597z M100.294,81.721c-0.122-0.09-0.363-0.419-0.634-0.445
		c-1.024-0.098-1.98,0.732-1.897,1.656c0.025,0.274,0.378,0.707,0.627,0.741C99.37,83.81,100.27,82.964,100.294,81.721z
		 M104.23,63.68c-0.03,0.723-0.007,1.255,0.903,1.252c1.139-0.003,1.202-0.811,1.165-1.542c-0.019-0.354-0.477-0.926-0.805-0.979
		C104.557,62.258,104.094,62.787,104.23,63.68z M82.482,26.987c1.001-0.188,1.637-0.233,1.674-1.227
		c0.031-0.865-0.468-1.004-1.146-0.96c-0.701,0.044-1.629-0.084-1.521,0.988C81.531,26.217,82.135,26.589,82.482,26.987z
		 M98.416,104.554c-0.157-1.138-0.254-1.844-0.352-2.55c-0.485,0.101-1.201,0.044-1.402,0.339c-0.289,0.421-0.448,1.266-0.207,1.621
		C96.698,104.323,97.496,104.308,98.416,104.554z M112.559,86.726c-0.077-0.049-0.403-0.43-0.663-0.389
		c-0.693,0.109-1.718-0.216-1.785,1.041c-0.031,0.573,0.105,1.04,0.749,0.891C111.558,88.107,112.734,88.535,112.559,86.726z
		 M117.573,77.288c-0.14,0.109-0.279,0.22-0.419,0.33c0.095,0.698,0.126,1.418,0.346,2.075c0.039,0.116,1.122,0.138,1.27-0.09
		c0.289-0.447,0.499-1.221,0.293-1.635C118.873,77.589,118.093,77.503,117.573,77.288z M79.38,37.097
		c-0.088,0.124-0.479,0.427-0.508,0.76c-0.061,0.727,0.203,1.341,1.116,1.359c0.636,0.012,0.947-0.243,0.971-0.91
		C80.989,37.437,80.594,37.051,79.38,37.097z M87.26,112.164c-0.573,0.722-1.06,1.093-1.193,1.564
		c-0.16,0.563,0.082,1.057,0.883,1.063c0.926,0.009,1.217-0.55,1.194-1.273C88.133,113.183,87.732,112.859,87.26,112.164z
		 M99.705,57.106c-0.167-0.104-0.508-0.459-0.896-0.523c-0.905-0.149-1.243,0.473-1.115,1.233c0.049,0.289,0.542,0.644,0.884,0.713
		C99.333,58.68,99.806,58.326,99.705,57.106z M84.139,106.53c0.088-1.283-0.471-1.476-1.192-1.497
		c-0.701-0.021-0.872,0.372-0.867,0.992c0.005,0.733,0.287,1.215,1.056,1.061C83.564,107,83.94,106.646,84.139,106.53z
		 M85.617,38.441c-1.14-0.021-1.521,0.343-1.518,1.142c0.003,0.691,0.378,0.867,0.984,0.87c0.861,0.004,1.132-0.533,1.039-1.232
		C86.078,38.877,85.712,38.578,85.617,38.441z M88.027,100.504c-0.746-0.575-1.122-1.037-1.596-1.183
		c-0.529-0.164-0.994,0.09-0.985,0.82c0.011,0.917,0.617,1.165,1.33,1.165C87.067,101.307,87.358,100.95,88.027,100.504z
		 M92.437,57.644c-0.091-0.052-0.383-0.341-0.704-0.378c-0.886-0.103-1.233,0.477-1.164,1.25c0.022,0.248,0.434,0.645,0.679,0.654
		C91.973,59.195,92.624,58.978,92.437,57.644z M98.309,90.958c-0.005,0.192-0.009,0.385-0.013,0.577
		c0.438,0.24,0.852,0.604,1.318,0.693c0.704,0.135,0.836-0.393,0.804-0.985c-0.035-0.68-0.34-1.097-1.043-0.917
		C98.99,90.424,98.662,90.74,98.309,90.958z M109.502,88.728c-0.175-0.012-0.35-0.023-0.524-0.035
		c-0.287,0.451-0.664,0.875-0.813,1.368c-0.053,0.174,0.426,0.705,0.709,0.745c0.839,0.121,1.252-0.431,1.207-1.21
		C110.063,89.297,109.705,89.017,109.502,88.728z M92.575,81.219c-0.101,0.161-0.463,0.514-0.545,0.922
		c-0.191,0.96,0.626,0.991,1.216,0.985c0.243-0.003,0.645-0.48,0.688-0.782C94.02,81.731,93.878,81.118,92.575,81.219z
		 M85.507,96.133c1.189-0.142,1.354-0.79,1.204-1.419c-0.065-0.271-0.644-0.558-1.011-0.589c-0.811-0.07-1.023,0.555-0.863,1.181
		C84.931,95.672,85.354,95.954,85.507,96.133z M111.833,94.136c1.156,0.039,1.566-0.414,1.433-1.149
		c-0.053-0.293-0.546-0.671-0.878-0.716c-0.835-0.113-1.109,0.506-1.027,1.199C111.396,93.772,111.758,94.036,111.833,94.136z
		 M94.535,108.873c-0.175-0.014-0.349-0.028-0.522-0.042c-0.279,0.366-0.69,0.696-0.805,1.108c-0.162,0.588,0.147,0.951,0.847,0.971
		c0.78,0.021,1.163-0.328,1.062-1.056C95.068,109.507,94.737,109.199,94.535,108.873z M87.938,44.242
		c1.126,0.103,1.511-0.323,1.398-1.015c-0.053-0.324-0.463-0.781-0.77-0.833c-0.594-0.102-1.263,0.064-1.104,0.921
		C87.534,43.706,87.836,44.053,87.938,44.242z M88.606,61.625c-0.066-0.052-0.329-0.433-0.61-0.447
		c-0.646-0.032-1.35,0.145-1.261,1.004c0.033,0.327,0.417,0.823,0.709,0.877C88.16,63.191,88.665,62.838,88.606,61.625z"/>
	<path fill-rule="evenodd" clip-rule="evenodd" d="M28.657,87.325c-0.38-1.321-0.757-2.289-0.918-3.291
		c-0.158-0.979,0.112-2.057-0.168-2.981c-0.826-2.727-0.21-5.536-0.653-8.234c-0.217-1.326-0.462-2.637-0.406-3.957
		c0.111-2.606,0.188-5.236,0.616-7.8c0.282-1.688,1.156-3.278,1.761-4.914c0.664-1.793,1.212-3.641,2.017-5.369
		c0.739-1.587,1.421-3.205,2.76-4.504c1.031-1,1.601-2.459,2.513-3.605c1.445-1.815,2.872-3.681,4.553-5.264
		c1.955-1.841,4.085-3.532,6.305-5.046c2.477-1.69,4.522-4.004,7.451-5.064c0.919-0.333,1.65-1.158,2.523-1.659
		c0.973-0.558,2-1.028,3.025-1.489c0.585-0.264,1.213-0.433,2.141-0.755c-0.232,0.542-0.309,0.675-0.348,0.818
		c-0.146,0.54-0.28,1.082-0.419,1.624c0.444,0.074,0.887,0.161,1.333,0.217c0.406,0.051,0.817,0.068,1.226,0.1
		c0.018,0.134,0.037,0.269,0.055,0.402c-0.401,0.1-0.803,0.288-1.204,0.286c-2.642-0.011-5.073,0.826-7.472,1.798
		c-1.118,0.454-2.247,0.891-3.327,1.423c-0.943,0.465-1.892,0.967-2.721,1.606c-1.523,1.173-3.086,2.34-4.4,3.73
		c-1.377,1.458-2.484,3.173-3.702,4.781c-0.705,0.931-1.424,1.854-2.087,2.815c-1.363,1.975-2.839,3.892-3.996,5.983
		c-1.136,2.053-1.96,4.281-2.87,6.454c-0.658,1.572-1.231,3.18-1.838,4.774c-0.042,0.11-0.062,0.233-0.069,0.352
		c-0.229,3.752-0.76,7.522-0.551,11.251c0.103,1.831,0.304,3.75,0.612,5.602c0.246,1.475,0.816,2.894,1.179,4.353
		c0.099,0.396-0.035,0.851-0.062,1.278c-0.1,0.007-0.2,0.015-0.299,0.021c-0.291-0.782-0.681-1.544-0.851-2.353
		c-0.313-1.493-0.451-3.023-0.771-4.515c-0.08-0.375-0.574-0.661-0.878-0.988c-0.326,0.308-0.949,0.631-0.933,0.919
		c0.159,2.832,0.397,5.66,0.679,8.482c0.06,0.599,0.417,1.162,0.572,1.759C29.08,86.534,28.891,86.761,28.657,87.325z"/>
	<path fill-rule="evenodd" clip-rule="evenodd" d="M32.716,86.378c0.519,1.453,1.037,2.905,1.556,4.358
		c-0.182,0.063-0.363,0.127-0.545,0.191c-0.533-1.454-1.066-2.907-1.599-4.36C32.324,86.504,32.52,86.441,32.716,86.378z"/>
	<path fill-rule="evenodd" clip-rule="evenodd" fill="#FFFFFF" d="M118.394,74.298c-0.947,0.114-1.638,0.221-2.329,0.233
		c-0.048,0.001-0.29-0.881-0.128-1.047c0.517-0.53,1.143-1.007,1.816-1.294c0.16-0.069,0.669,0.676,1.106,1.142
		c0.009-0.007,0.333-0.121,0.334-0.239c0.006-0.608,0.183-0.941,0.863-1.004c0.161-0.015,0.466-0.65,0.374-0.845
		c-0.364-0.773-0.717-1.652-1.34-2.175c-0.785-0.659-0.741-1.329-0.568-2.129c0.203-0.946,0.963-0.411,1.472-0.547
		c0.142-0.038,0.271-0.118,0.462-0.203c-0.073-0.192-0.085-0.38-0.186-0.465c-1.354-1.145-2.714-2.285-4.088-3.407
		c-0.511-0.417-1.151-0.708-1.568-1.196c-0.344-0.403-0.444-1.013-0.652-1.531c0.456-0.154,0.926-0.469,1.364-0.428
		c0.819,0.075,1.62,0.355,2.524,0.574c-0.033-0.194-0.053-0.367-0.093-0.536c-0.146-0.604-0.298-1.207-0.447-1.81
		c0.653-0.029,1.386-0.266,1.944-0.05c1.98,0.761,2.763,2.506,3.033,4.436c0.198,1.415,0.055,2.874,0.152,4.306
		c0.104,1.529,0.365,3.048,0.454,4.577c0.04,0.69-0.168,1.394-0.269,2.091c-0.021,0.151-0.145,0.357-0.085,0.442
		c0.959,1.361-0.227,2.512-0.424,3.733c-0.172,1.062-1.394,1.228-2.287,0.562C118.678,76.628,118.271,75.467,118.394,74.298z"/>
	<path fill-rule="evenodd" clip-rule="evenodd" fill="#FFFFFF" d="M91.2,72.525c2.34,0.496,2.8,0.928,2.646,2.439
		c-0.132,1.304-0.842,1.714-3.098,1.792c-0.028,0.071-0.092,0.148-0.079,0.212c0.124,0.649,0.372,1.307,0.316,1.938
		c-0.015,0.163-1.066,0.477-1.469,0.309c-0.594-0.25-1.383-0.814-1.463-1.341c-0.159-1.045-0.418-1.459-1.545-1.39
		c-0.305,0.019-0.888-0.8-0.944-1.281c-0.092-0.777-0.269-1.181-1.112-1.173c-1.025,0.011-0.961-0.859-0.953-1.475
		c0.005-0.382,0.419-0.761,0.654-1.138c0.216-0.346,0.608-0.678,0.63-1.034c0.11-1.831,2.118-3.344,3.858-2.726
		c0.323,0.115,0.63,0.867,0.589,1.291c-0.085,0.869,0.051,1.266,1.029,1.212c1.322-0.072,0.999,0.919,0.974,1.687
		C91.227,72.078,91.212,72.307,91.2,72.525z M85.537,71.528c0.156,0.569,0.271,1.154,0.486,1.701c0.115,0.294,0.4,0.522,0.609,0.78
		c0.262-0.229,0.694-0.421,0.756-0.695C87.736,71.771,87.393,71.466,85.537,71.528z M87.636,74.951
		c0.462,0.518,0.721,0.809,0.979,1.099c0.251-0.315,0.675-0.614,0.704-0.949c0.027-0.315-0.359-0.668-0.563-1.004
		C88.454,74.327,88.152,74.558,87.636,74.951z"/>
	<path fill-rule="evenodd" clip-rule="evenodd" fill="#FFFFFF" d="M95.233,62.859c-0.581,0.319-1.232,0.463-1.312,0.761
		c-0.233,0.87-0.871,0.907-1.366,0.643c-0.371-0.198-0.692-0.854-0.695-1.307c-0.007-1.153,1.655-2.536,2.829-2.55
		c0.789-0.01,1.259,0.277,1.155,1.113c-0.098,0.783,0.242,0.939,0.954,0.927c1.647-0.028,1.688,0.053,1.51,1.689
		c-0.021,0.189-0.003,0.383-0.003,0.649c1.269,0.192,2.705,0.193,2.641,2.082c0.695,0.165,1.549,0.038,1.389,1.253
		c-0.151,1.148-0.821,1.529-1.741,1.458c-0.43-0.033-0.818-0.609-1.146-1.053c-2.244-0.484-2.261-0.502-2.424-2.725
		c-0.656-0.167-1.616-0.141-1.856-0.543C94.87,64.759,95.171,63.905,95.233,62.859z"/>
	<path fill-rule="evenodd" clip-rule="evenodd" fill="#FFFFFF" d="M76.957,57.634c0-0.28-0.018-0.561,0.004-0.838
		c0.044-0.583-0.319-1.358,0.68-1.513c0.997-0.153,1.873,0.375,1.88,1.217c0.014,1.482,1.015,2.293,1.567,3.413
		c0.56,1.133,0.391,2.689,0.305,4.045c-0.038,0.604-1.324,0.562-1.896-0.169c-0.672-0.857-1.337-1.762-1.779-2.747
		c-0.471-1.049-0.68-2.216-1.002-3.332C76.796,57.686,76.876,57.66,76.957,57.634z"/>
	<path fill-rule="evenodd" clip-rule="evenodd" fill="#FFFFFF" d="M78.895,71.942c-0.373-1.536-0.803-3.062-1.094-4.613
		c-0.133-0.705-0.143-1.519,0.104-2.165c0.09-0.239,1.075-0.187,1.648-0.166c0.206,0.007,0.587,0.331,0.571,0.475
		c-0.113,1.02,0.44,1.409,1.281,1.799c0.862,0.401,1.071,1.697,0.575,2.625c-0.511,0.955-1.216,1.819-1.091,3.028
		c0.016,0.16-0.567,0.557-0.846,0.532c-0.399-0.034-0.845-0.285-1.132-0.579c-0.169-0.173-0.069-0.607-0.091-0.924
		C78.846,71.95,78.87,71.946,78.895,71.942z"/>
	<path fill-rule="evenodd" clip-rule="evenodd" fill="#FFFFFF" d="M117.192,69.542c-0.052,0.913-1.135,2.203-2.141,2.428
		c-1.097,0.245-2.269,0.636-3.002-0.729c-0.086-0.159-0.273-0.35-0.432-0.368c-0.705-0.083-1.099-0.505-0.83-1.118
		c0.242-0.552,0.708-1.125,1.229-1.407c0.72-0.391,1.585-0.509,2.384-0.757C115.478,67.256,117.253,68.492,117.192,69.542z"/>
	<path fill-rule="evenodd" clip-rule="evenodd" fill="#FFFFFF" d="M111.077,39.638c-0.41,0.558-0.653,1.251-1.054,1.358
		c-0.849,0.226-1.976-0.676-1.895-1.518c0.142-1.454-0.405-1.963-1.803-1.805c-0.268,0.03-0.62-0.155-0.84-0.347
		c-0.784-0.687-1.602-1.36-2.252-2.164c-0.265-0.328-0.135-0.976-0.185-1.478c0.582-0.038,1.287-0.302,1.722-0.066
		c0.951,0.515,1.869,1.185,2.604,1.975c0.76,0.815,1.301,1.708,2.568,1.978C110.404,37.667,110.645,38.798,111.077,39.638z"/>
	<path fill-rule="evenodd" clip-rule="evenodd" fill="#FFFFFF" d="M84.056,91.113c-0.015,2.246-0.786,2.579-2.458,2.06
		c-1.32-0.41-1.484-1.133-1.422-2.244c0.039-0.712-0.073-1.432-0.039-2.144c0.019-0.398,0.1-1.037,0.326-1.127
		c0.38-0.15,1.019-0.107,1.339,0.134C83.055,88.731,83.943,89.945,84.056,91.113z"/>
	<path fill-rule="evenodd" clip-rule="evenodd" fill="#FFFFFF" d="M87.307,53.732c0.625,0.332,1.469,0.691,1.441,0.778
		c-0.273,0.874-0.554,1.816-1.125,2.493c-0.272,0.322-1.691,0.225-1.712,0.127c-0.239-1.104-1.149-1.64-1.734-2.439
		c-0.629-0.859,0.79-2.926,1.953-3.181c1.055-0.231,1.391,0.063,1.312,1.173C87.413,53.074,87.343,53.462,87.307,53.732z"/>
	<path fill-rule="evenodd" clip-rule="evenodd" fill="#FFFFFF" d="M107.904,76.718c-1.439,0.015-2.39-0.668-2.423-1.739
		c-0.043-1.421,0.831-2.233,2.446-2.272c1.328-0.033,2.768,0.902,2.796,1.816C110.756,75.551,109.275,76.703,107.904,76.718z"/>
	<path fill-rule="evenodd" clip-rule="evenodd" fill="#FFFFFF" d="M87.44,91.299c-0.647-0.395-1.401-0.635-1.412-0.903
		c-0.025-0.645,0.108-1.543,0.539-1.884c0.383-0.305,1.251,0.003,1.904,0.04c-0.104,0.688-0.209,1.378-0.332,2.193
		c0.592,0.078,1.427,0.245,1.427,1.356c0,0.026,0.794,0.073,1.218,0.076c0.54,0.003,1.186-0.018,1.059,0.732
		c-0.105,0.626,0.392,1.596-0.854,1.767c-1.504,0.205-1.482,0.255-1.703-1.367c-0.027-0.204-0.35-0.561-0.447-0.533
		C87.145,93.251,87.386,92.072,87.44,91.299z"/>
	<path fill-rule="evenodd" clip-rule="evenodd" fill="#FFFFFF" d="M104.104,68.981c0.783,0.018,2.075,1.387,2.041,2.163
		c-0.038,0.869-1.458,2.214-2.332,2.209c-0.825-0.004-2.233-1.389-2.193-2.158C101.666,70.31,103.18,68.96,104.104,68.981z"/>
	<path fill-rule="evenodd" clip-rule="evenodd" fill="#FFFFFF" d="M80.206,23.52c0.026,0.312,0.153,0.874,0.09,1.413
		c-0.044,0.381-0.269,0.94-0.552,1.046c-0.375,0.14-0.972,0.046-1.32-0.181c-0.688-0.449-1.421-0.964-1.849-1.634
		c-0.309-0.482-0.254-1.276-0.155-1.899c0.038-0.247,0.611-0.502,0.979-0.582c0.454-0.1,0.949-0.039,1.425-0.016
		C80.326,21.739,80.325,21.745,80.206,23.52z"/>
	<path fill-rule="evenodd" clip-rule="evenodd" fill="#FFFFFF" d="M93.146,98.476c0-0.338-0.072-0.635,0.015-0.874
		c0.173-0.471,0.327-1.143,0.684-1.305c0.471-0.215,1.417-0.238,1.637,0.051c0.31,0.41,0.31,1.667,0.152,1.721
		c-1.251,0.432-1.827,1.4-2.391,2.452c-0.176,0.33-0.487,0.677-0.82,0.813c-0.598,0.244-1.256,0.408-1.894,0.43
		c-0.133,0.005-0.313-0.75-0.424-1.167c-0.031-0.116,0.127-0.405,0.168-0.4C91.731,100.401,91.786,98.387,93.146,98.476z"/>
	<path fill-rule="evenodd" clip-rule="evenodd" fill="#FFFFFF" d="M86.218,31.371c0.211-0.06,0.317-0.097,0.427-0.119
		c0.611-0.123,1.223-0.241,1.834-0.361c0.018,0.656,0.262,1.431-0.005,1.938c-0.349,0.662-1.051,1.187-1.702,1.619
		c-0.276,0.184-1.084,0.111-1.168-0.07c-0.172-0.369-0.083-0.906,0.024-1.343c0.085-0.344,0.359-0.642,0.727-1.257
		c-1.176,0.35-1.997,1.691-2.746,0.39c-0.429-0.744,0.123-1.555,0.95-1.928C85.629,29.757,86.195,30.193,86.218,31.371z"/>
	<path fill-rule="evenodd" clip-rule="evenodd" fill="#FFFFFF" d="M83.566,84.805c0,0.357,0.052,0.724-0.014,1.068
		c-0.075,0.396-0.196,1.059-0.4,1.1c-0.445,0.09-1.056-0.003-1.416-0.269c-0.661-0.489-1.241-1.117-1.763-1.763
		c-0.537-0.665-0.632-1.545,0.216-1.915c0.859-0.374,1.881-0.397,2.839-0.493c0.119-0.012,0.378,0.46,0.413,0.729
		c0.067,0.506,0.02,1.027,0.02,1.543C83.496,84.805,83.531,84.805,83.566,84.805z"/>
	<path fill-rule="evenodd" clip-rule="evenodd" fill="#FFFFFF" d="M115.014,51.904c0.277-0.765,0.477-1.312,0.675-1.858
		c0.506,0.216,1.238,0.298,1.465,0.681c0.356,0.6,0.518,1.457-0.354,1.521c0.119,0.87,0.22,1.594,0.319,2.318
		c-0.765-0.064-1.536-0.085-2.29-0.21c-0.373-0.062-0.784-0.244-1.048-0.503c-0.241-0.237-0.448-0.669-0.41-0.984
		c0.037-0.297,0.361-0.664,0.652-0.8C114.393,51.896,114.856,51.925,115.014,51.904z"/>
	<path fill-rule="evenodd" clip-rule="evenodd" fill="#FFFFFF" d="M113.395,76.206c0.127,0.175,0.556,0.518,0.638,0.929
		c0.236,1.185-0.728,2.767-1.834,3.218c-0.896,0.365-1.965-0.271-2.036-1.212C110.089,78.175,112.006,76.176,113.395,76.206z"/>
	<path fill-rule="evenodd" clip-rule="evenodd" fill="#FFFFFF" d="M85.408,44.967c-0.383,0-0.653-0.012-0.923,0.002
		c-0.723,0.04-1.044-0.271-0.931-1.007c0.09-0.583,0.004-0.962-0.747-1.072c-0.279-0.041-0.745-0.855-0.639-1.045
		c0.217-0.389,0.737-0.673,1.19-0.821c0.117-0.038,0.667,0.605,0.646,0.91c-0.063,0.902,0.264,1.145,1.104,1.03
		c0.642-0.088,0.994,0.205,0.849,0.917c-0.115,0.562-0.13,1.071,0.682,1.044c0.79-0.025,0.914,0.549,0.666,1.036
		c-0.201,0.395-0.708,0.708-1.147,0.864c-0.132,0.046-0.55-0.535-0.729-0.883C85.318,45.726,85.408,45.406,85.408,44.967z"/>
	<path fill-rule="evenodd" clip-rule="evenodd" fill="#FFFFFF" d="M97.734,79.176c-0.056,1.289-0.805,2.047-1.989,2.014
		c-1.035-0.029-1.909-0.769-1.878-1.589c0.032-0.87,1.583-2.312,2.42-2.247C97.148,77.419,97.776,78.209,97.734,79.176z"/>
	<path fill-rule="evenodd" clip-rule="evenodd" fill="#FFFFFF" d="M84.039,82.499c0.156-0.392,0.312-1.19,0.512-1.201
		c0.558-0.029,1.307,0.098,1.666,0.468c0.692,0.713,1.243,1.599,1.695,2.493c0.16,0.317,0.005,1.06-0.264,1.256
		c-0.284,0.208-0.933,0.12-1.318-0.061c-0.63-0.294-1.284-0.675-1.722-1.193C84.27,83.86,84.246,83.193,84.039,82.499z"/>
	<path fill-rule="evenodd" clip-rule="evenodd" fill="#FFFFFF" d="M82.403,77.331c-0.229,0.706-0.266,1.397-0.627,1.778
		c-0.407,0.427-1.109,0.573-1.683,0.842c-0.168-0.472-0.408-0.934-0.487-1.42c-0.102-0.624-0.138-1.275-0.082-1.903
		c0.04-0.457,0.246-1.259,0.431-1.274c0.525-0.044,1.201,0.095,1.586,0.429C81.966,76.15,82.134,76.814,82.403,77.331z"/>
	<path fill-rule="evenodd" clip-rule="evenodd" fill="#FFFFFF" d="M93.047,28.21c-0.482-0.152-1.258-0.253-1.868-0.625
		c-0.778-0.474-0.786-1.261-0.208-1.951c0.588-0.702,1.317-1.007,2.189-0.449c0.523,0.334,1.092,0.623,1.538,1.041
		c0.234,0.22,0.356,0.684,0.327,1.021c-0.024,0.278-0.291,0.646-0.548,0.767C94.138,28.175,93.703,28.134,93.047,28.21z"/>
	<path fill-rule="evenodd" clip-rule="evenodd" fill="#FFFFFF" d="M107.408,105.026c-0.074-0.056-0.486-0.222-0.491-0.399
		c-0.012-0.436,0.04-0.978,0.295-1.29c0.302-0.371,0.814-0.676,1.287-0.78c0.989-0.221,1.366-0.864,1.526-1.751
		c0.007-0.039,0.014-0.096,0.039-0.11c0.485-0.278,0.96-0.582,1.472-0.796c0.086-0.036,0.519,0.407,0.481,0.49
		c-0.236,0.528-0.447,1.182-0.882,1.475c-0.484,0.327-1.033,0.367-1.089,1.171C109.974,104.088,108.737,105.022,107.408,105.026z"/>
	<path fill-rule="evenodd" clip-rule="evenodd" fill="#FFFFFF" d="M108.588,64.748c0.595,0.3,1.158,0.484,1.597,0.828
		c0.696,0.546,0.797,1.789,0.279,2.331c-0.509,0.533-1.856,0.41-2.451-0.223c-0.135-0.145-0.241-0.339-0.405-0.429
		c-0.695-0.384-1.052-1.038-0.645-1.66C107.243,65.167,107.985,65.042,108.588,64.748z"/>
	<path fill-rule="evenodd" clip-rule="evenodd" fill="#FFFFFF" d="M118.114,85.377c-0.602-0.343-1.423-0.57-1.459-0.889
		c-0.059-0.505,0.333-1.124,0.671-1.597c0.373-0.521,0.849-1.01,1.379-1.36c0.35-0.231,0.876-0.193,1.324-0.275
		c0.065,0.51,0.232,1.033,0.169,1.527c-0.07,0.557-0.231,1.181-0.568,1.604C119.293,84.81,118.69,85.019,118.114,85.377z"/>
	<path fill-rule="evenodd" clip-rule="evenodd" fill="#FFFFFF" d="M101.043,58.36c0.783,0.111,1.281,0.335,1.244,1.136
		c-0.037,0.817,0.252,1.153,1.126,1.071c0.265-0.025,0.856,0.533,0.815,0.642c-0.17,0.45-0.448,0.985-0.84,1.179
		c-0.237,0.117-1.057-0.292-1.091-0.537c-0.101-0.725-0.468-0.774-1.048-0.822c-0.397-0.033-0.941-0.197-1.123-0.488
		c-0.258-0.411-0.432-1.062-0.282-1.48C99.965,58.726,100.624,58.586,101.043,58.36z"/>
	<path fill-rule="evenodd" clip-rule="evenodd" fill="#FFFFFF" d="M103.209,87.803c0.053,0.84,0.267,1.523,0.057,2.032
		c-0.105,0.256-1.077,0.405-1.479,0.219c-0.403-0.188-0.723-0.826-0.813-1.316c-0.058-0.308,0.355-0.719,0.593-1.059
		c0.207-0.298,0.667-0.562,0.663-0.837c-0.014-0.967,0.611-1.084,1.253-0.954c0.296,0.06,0.608,0.549,0.72,0.904
		c0.232,0.741-0.203,1.006-0.901,0.976C103.2,87.764,103.097,87.854,103.209,87.803z"/>
	<path fill-rule="evenodd" clip-rule="evenodd" fill="#FFFFFF" d="M112.714,90.453c0.036-1.112,1.268-2.479,2.233-2.63
		c0.631-0.099,0.869,0.093,0.892,0.729c0.056,1.509-0.822,2.919-1.912,3.029C113.021,91.673,112.517,91.395,112.714,90.453z"/>
	<path fill-rule="evenodd" clip-rule="evenodd" fill="#FFFFFF" d="M112.683,60.927c0.835,0.172,2.445,1.39,2.541,2.107
		c0.049,0.362,0,0.892-0.228,1.092c-0.225,0.198-0.773,0.192-1.104,0.07c-0.62-0.23-1.293-0.502-1.738-0.958
		c-0.379-0.388-0.614-1.056-0.62-1.603C111.531,61.403,112.277,61.163,112.683,60.927z"/>
	<path fill-rule="evenodd" clip-rule="evenodd" fill="#FFFFFF" d="M76.947,80.205c0-0.52-0.116-1.077,0.039-1.546
		c0.112-0.34,0.583-0.775,0.896-0.777c0.334-0.001,0.909,0.419,0.959,0.724c0.152,0.938,0.118,1.908,0.13,2.866
		c0.01,0.737-0.373,1.09-1.119,1.083c-0.823-0.007-0.85-0.551-0.833-1.151c0.011-0.399,0.002-0.799,0.002-1.198
		C76.996,80.205,76.972,80.205,76.947,80.205z"/>
	<path fill-rule="evenodd" clip-rule="evenodd" fill="#FFFFFF" d="M82.023,45.965c0.327,0.3,0.722,0.49,0.814,0.777
		c0.367,1.143-1.226,3.089-2.313,2.797c-0.372-0.1-0.837-0.632-0.877-1.007c-0.055-0.515-0.409-1.275,0.567-1.562
		C80.813,46.794,81.336,46.359,82.023,45.965z"/>
	<path fill-rule="evenodd" clip-rule="evenodd" fill="#FFFFFF" d="M111.323,48.839c1.253,0.016,2.048,0.734,2.034,1.834
		c-0.011,0.777-0.233,1.312-1.178,1.249c-1.129-0.076-2.165-1.004-2.183-2.03C109.982,49.041,110.255,48.825,111.323,48.839z"/>
	<path fill-rule="evenodd" clip-rule="evenodd" fill="#FFFFFF" d="M91.935,65.086c-0.011,1.669-0.675,2.424-1.759,2.401
		c-0.973-0.021-1.395-0.656-1.442-1.528c-0.055-1.018,0.89-1.699,2.322-1.564C91.447,64.432,91.793,64.968,91.935,65.086z"/>
	<path fill-rule="evenodd" clip-rule="evenodd" fill="#FFFFFF" d="M84.451,101.521c-0.334,0.408-0.619,1.104-1.013,1.172
		c-1.401,0.242-1.855-0.413-1.971-2.389c-0.043-0.757,0.203-1.101,0.984-1.108C83.893,99.182,84.099,99.41,84.451,101.521z"/>
	<path fill-rule="evenodd" clip-rule="evenodd" fill="#FFFFFF" d="M95.492,72.689c-0.957,0.021-1.709-0.802-1.739-1.894
		c-0.021-0.799,0.235-1.323,1.152-1.292c0.737,0.025,2.062,0.89,2.084,1.389C97.034,71.9,96.394,72.668,95.492,72.689z"/>
	<path fill-rule="evenodd" clip-rule="evenodd" fill="#FFFFFF" d="M76.229,44.155c0-0.32-0.086-0.671,0.021-0.95
		c0.143-0.372,0.402-0.94,0.667-0.973c0.594-0.072,1.368-0.056,1.397,0.878c0.021,0.677-0.055,1.357-0.037,2.034
		c0.021,0.835-0.388,1.124-1.176,1.112c-0.826-0.012-0.854-0.549-0.851-1.143c0.002-0.319,0-0.639,0-0.958
		C76.243,44.155,76.235,44.155,76.229,44.155z"/>
	<path fill-rule="evenodd" clip-rule="evenodd" fill="#FFFFFF" d="M82.33,114.025c-0.149-1.008-0.301-1.787,0.968-1.837
		c1.043-0.04,1.61,0.271,1.505,1.383c-0.074,0.783,0.401,1.827-1.056,1.926C82.44,115.585,81.929,115.135,82.33,114.025z"/>
	<path fill-rule="evenodd" clip-rule="evenodd" fill="#FFFFFF" d="M100.446,37.096c0.991-0.012,2.325,2.014,1.747,2.825
		c-0.222,0.312-1.148,0.395-1.591,0.204c-0.536-0.232-0.974-0.814-1.322-1.334C98.638,37.834,99.159,37.111,100.446,37.096z"/>
	<path fill-rule="evenodd" clip-rule="evenodd" fill="#FFFFFF" d="M88.228,37.139c-0.975,0.088-0.981-0.525-0.883-1.167
		c0.101-0.663,1.631-1.907,2.31-1.99c0.754-0.092,1.004,0.242,1.015,0.944C90.692,36.365,89.861,37.123,88.228,37.139z"/>
	<path fill-rule="evenodd" clip-rule="evenodd" fill="#FFFFFF" d="M109.943,60.723c-0.732-0.328-1.459-0.505-1.97-0.938
		c-0.294-0.249-0.373-0.939-0.282-1.375c0.045-0.217,0.723-0.482,1.06-0.421c0.81,0.147,1.624,0.4,2.352,0.775
		c0.198,0.102,0.268,0.903,0.085,1.178C110.952,60.3,110.406,60.453,109.943,60.723z"/>
	<path fill-rule="evenodd" clip-rule="evenodd" fill="#FFFFFF" d="M107.218,85.271c-0.689-0.324-1.37-0.492-1.821-0.91
		c-0.301-0.277-0.356-0.913-0.34-1.382c0.005-0.139,0.653-0.401,0.967-0.353c0.824,0.128,1.657,0.327,2.416,0.658
		c0.19,0.083,0.301,0.906,0.122,1.15C108.29,84.807,107.733,84.972,107.218,85.271z"/>
	<path fill-rule="evenodd" clip-rule="evenodd" fill="#FFFFFF" d="M99.658,41.958c-0.022,0.862-0.863,1.443-1.56,0.932
		c-0.637-0.467-1.207-1.169-1.524-1.892c-0.38-0.865,0.119-1.345,1.076-1.263C98.354,39.795,99.677,41.259,99.658,41.958z"/>
	<path fill-rule="evenodd" clip-rule="evenodd" fill="#FFFFFF" d="M77.72,50.004c1.042,0.001,1.783,0.687,1.822,1.618
		c0.043,1.036-0.631,1.157-1.402,1.158c-0.968,0.001-1.673-0.756-1.744-1.733C76.316,49.987,77.036,50.041,77.72,50.004z"/>
	<path fill-rule="evenodd" clip-rule="evenodd" fill="#FFFFFF" d="M85.513,58.202c-0.062,1.895-0.476,2.323-1.709,2.281
		c-0.885-0.03-1.034-0.59-1.012-1.296c0.034-1.127,0.968-2.09,2-1.864C85.17,57.405,85.418,58.078,85.513,58.202z"/>
	<path fill-rule="evenodd" clip-rule="evenodd" fill="#FFFFFF" d="M83.764,67.531c-1.014,0.085-1.158-0.67-0.824-1.223
		c0.448-0.742,1.121-1.464,1.871-1.878c0.843-0.465,1.312,0.049,1.146,1.049C85.804,66.39,84.597,67.52,83.764,67.531z"/>
	<path fill-rule="evenodd" clip-rule="evenodd" fill="#FFFFFF" d="M99.201,73.867c1.095,0.087,1.582,0.731,1.781,1.607
		c0.201,0.887-0.266,1.407-1.092,1.163c-0.691-0.203-1.365-0.581-1.934-1.026c-0.199-0.156-0.228-0.893-0.041-1.099
		C98.217,74.182,98.76,74.071,99.201,73.867z"/>
	<path fill-rule="evenodd" clip-rule="evenodd" fill="#FFFFFF" d="M106.861,56.125c0.006,0.517-0.183,1.09-1.136,1.029
		c-0.872-0.056-1.564-0.905-1.571-1.908c-0.006-0.875,0.432-1.21,1.252-1.193C106.231,54.069,106.896,54.89,106.861,56.125z"/>
	<path fill-rule="evenodd" clip-rule="evenodd" fill="#FFFFFF" d="M106.092,106.442c-0.731,0.996-1.174,1.768-1.791,2.356
		c-0.254,0.243-0.883,0.095-1.342,0.124c-0.028-0.447-0.156-0.916-0.066-1.338c0.206-0.966,0.804-1.663,1.831-1.741
		C105.076,105.816,105.456,106.15,106.092,106.442z"/>
	<path fill-rule="evenodd" clip-rule="evenodd" fill="#FFFFFF" d="M81.544,33.989c0.941-0.199,1.364,0.104,1.33,1.023
		c-0.028,0.789,0.004,1.597-1.106,1.557c-0.688-0.025-1.509,0.056-1.492-1.045C80.289,34.607,80.23,33.66,81.544,33.989z"/>
	<path fill-rule="evenodd" clip-rule="evenodd" fill="#FFFFFF" d="M100.704,109.107c0.141,0.047,0.688,0.076,0.777,0.293
		c0.146,0.356,0.124,0.904-0.061,1.247c-0.518,0.966-1.521,0.881-2.425,0.862c-0.188-0.004-0.559-0.456-0.515-0.604
		c0.154-0.526,0.357-1.105,0.729-1.479C99.461,109.175,100.025,109.234,100.704,109.107z"/>
	<path fill-rule="evenodd" clip-rule="evenodd" fill="#FFFFFF" d="M94.154,67.953c-0.177,1.21-0.571,1.742-1.623,1.675
		c-0.698-0.044-1.273-0.176-1.262-1.061c0.013-0.865,0.915-1.775,1.828-1.609C93.497,67.03,93.805,67.606,94.154,67.953z"/>
	<path fill-rule="evenodd" clip-rule="evenodd" fill="#FFFFFF" d="M83.571,96.799c-0.134,0.114-0.407,0.542-0.739,0.594
		c-0.937,0.146-2.084-0.954-1.97-1.906c0.036-0.294,0.535-0.716,0.862-0.758C82.676,94.609,83.542,95.493,83.571,96.799z"/>
	<path fill-rule="evenodd" clip-rule="evenodd" fill="#FFFFFF" d="M103.016,30.882c-0.135,0.095-0.412,0.448-0.709,0.467
		c-0.98,0.062-2.104-0.955-2.089-1.909c0.004-0.261,0.447-0.717,0.716-0.737C102.063,28.616,102.966,29.478,103.016,30.882z"/>
	<path fill-rule="evenodd" clip-rule="evenodd" fill="#FFFFFF" d="M91.247,45.627c1.297,0.002,1.968,0.719,1.966,1.606
		c-0.002,0.713-0.332,1.019-1.032,0.985c-0.781-0.039-1.664-0.879-1.548-1.658C90.692,46.157,91.121,45.808,91.247,45.627z"/>
	<path fill-rule="evenodd" clip-rule="evenodd" fill="#FFFFFF" d="M94.377,42.906c1.253-0.008,2.056,0.779,2.051,1.627
		c-0.004,0.68-0.269,1.047-1,1.009c-0.827-0.043-1.694-0.876-1.612-1.747C93.85,43.425,94.253,43.09,94.377,42.906z"/>
	<path fill-rule="evenodd" clip-rule="evenodd" fill="#FFFFFF" d="M97.771,49.399c-0.111-0.133-0.553-0.419-0.605-0.764
		c-0.141-0.925,0.575-1.562,1.605-1.666c0.605-0.061,0.896,0.116,0.924,0.752C99.751,48.985,99.461,49.316,97.771,49.399z"/>
	<path fill-rule="evenodd" clip-rule="evenodd" fill="#FFFFFF" d="M101.694,52.634c-0.929,0.106-1.395-0.194-1.354-1.169
		c0.032-0.769,0.136-1.331,1.106-1.229c0.839,0.088,1.432,0.411,1.471,1.341C102.954,52.469,102.482,52.79,101.694,52.634z"/>
	<path fill-rule="evenodd" clip-rule="evenodd" fill="#FFFFFF" d="M108.813,47.767c-0.164,0.087-0.473,0.384-0.79,0.395
		c-0.985,0.031-1.901-0.898-1.891-1.772c0.009-0.736,0.468-0.833,1.044-0.799C108.072,45.642,108.88,46.546,108.813,47.767z"/>
	<path fill-rule="evenodd" clip-rule="evenodd" fill="#FFFFFF" d="M90.843,49.355c-0.22,0.974-0.478,1.449-1.269,1.358
		c-0.896-0.104-1.404-0.59-1.466-1.535c-0.056-0.859,0.577-1.131,1.119-0.969C89.827,48.387,90.31,48.956,90.843,49.355z"/>
	<path fill-rule="evenodd" clip-rule="evenodd" fill="#FFFFFF" d="M108.022,92.12c-0.034,1.309-0.712,1.865-1.731,1.866
		c-0.751,0.002-0.841-0.458-0.823-1.009c0.022-0.72,0.959-1.496,1.776-1.381C107.579,91.644,107.87,92.011,108.022,92.12z"/>
	<path fill-rule="evenodd" clip-rule="evenodd" fill="#FFFFFF" d="M97.181,29.745c0.027,0.761-0.359,1.125-1.095,1
		c-0.674-0.115-1.628,0.113-1.606-1.075c0.02-1.091,0.855-0.94,1.535-1.004C96.79,28.593,97.23,28.912,97.181,29.745z"/>
	<path fill-rule="evenodd" clip-rule="evenodd" fill="#FFFFFF" d="M103.54,96.597c-0.103-0.148-0.462-0.439-0.496-0.766
		c-0.097-0.9,0.657-1.653,1.635-1.612c0.277,0.012,0.731,0.417,0.771,0.69C105.586,95.844,104.859,96.562,103.54,96.597z"/>
	<path fill-rule="evenodd" clip-rule="evenodd" fill="#FFFFFF" d="M100.294,81.721c-0.024,1.243-0.924,2.089-1.904,1.952
		c-0.249-0.034-0.602-0.467-0.627-0.741c-0.083-0.924,0.873-1.754,1.897-1.656C99.931,81.302,100.172,81.631,100.294,81.721z"/>
	<path fill-rule="evenodd" clip-rule="evenodd" fill="#FFFFFF" d="M104.23,63.68c-0.137-0.893,0.326-1.422,1.264-1.269
		c0.328,0.053,0.786,0.625,0.805,0.979c0.037,0.73-0.026,1.539-1.165,1.542C104.224,64.935,104.2,64.403,104.23,63.68z"/>
	<path fill-rule="evenodd" clip-rule="evenodd" fill="#FFFFFF" d="M82.482,26.987c-0.348-0.398-0.951-0.77-0.993-1.199
		c-0.108-1.073,0.819-0.944,1.521-0.988c0.679-0.043,1.178,0.095,1.146,0.96C84.119,26.754,83.483,26.8,82.482,26.987z"/>
	<path fill-rule="evenodd" clip-rule="evenodd" fill="#FFFFFF" d="M98.416,104.554c-0.92-0.246-1.718-0.23-1.961-0.59
		c-0.241-0.355-0.082-1.2,0.207-1.621c0.201-0.295,0.917-0.238,1.402-0.339C98.162,102.71,98.259,103.416,98.416,104.554z"/>
	<path fill-rule="evenodd" clip-rule="evenodd" fill="#FFFFFF" d="M112.559,86.726c0.176,1.81-1.001,1.382-1.699,1.543
		c-0.644,0.149-0.78-0.317-0.749-0.891c0.067-1.257,1.092-0.932,1.785-1.041C112.155,86.296,112.481,86.677,112.559,86.726z"/>
	<path fill-rule="evenodd" clip-rule="evenodd" fill="#FFFFFF" d="M117.573,77.288c0.52,0.215,1.3,0.301,1.489,0.681
		c0.206,0.414-0.004,1.188-0.293,1.635c-0.147,0.228-1.23,0.206-1.27,0.09c-0.22-0.657-0.251-1.377-0.346-2.075
		C117.294,77.508,117.434,77.397,117.573,77.288z"/>
	<path fill-rule="evenodd" clip-rule="evenodd" fill="#FFFFFF" d="M79.38,37.097c1.214-0.046,1.609,0.34,1.579,1.209
		c-0.023,0.667-0.335,0.922-0.971,0.91c-0.913-0.019-1.177-0.632-1.116-1.359C78.9,37.523,79.292,37.22,79.38,37.097z"/>
	<path fill-rule="evenodd" clip-rule="evenodd" fill="#FFFFFF" d="M87.26,112.164c0.473,0.695,0.873,1.019,0.884,1.354
		c0.022,0.724-0.269,1.282-1.194,1.273c-0.801-0.007-1.043-0.5-0.883-1.063C86.2,113.257,86.687,112.886,87.26,112.164z"/>
	<path fill-rule="evenodd" clip-rule="evenodd" fill="#FFFFFF" d="M99.705,57.106c0.101,1.22-0.372,1.574-1.128,1.423
		c-0.342-0.069-0.835-0.424-0.884-0.713c-0.128-0.76,0.21-1.383,1.115-1.233C99.197,56.647,99.538,57.002,99.705,57.106z"/>
	<path fill-rule="evenodd" clip-rule="evenodd" fill="#FFFFFF" d="M84.139,106.53c-0.198,0.115-0.574,0.47-1.004,0.556
		c-0.769,0.154-1.051-0.327-1.056-1.061c-0.005-0.62,0.166-1.014,0.867-0.992C83.668,105.055,84.227,105.247,84.139,106.53z"/>
	<path fill-rule="evenodd" clip-rule="evenodd" fill="#FFFFFF" d="M85.617,38.441c0.095,0.137,0.461,0.437,0.506,0.779
		c0.093,0.699-0.178,1.236-1.039,1.232c-0.606-0.003-0.981-0.179-0.984-0.87C84.096,38.784,84.478,38.419,85.617,38.441z"/>
	<path fill-rule="evenodd" clip-rule="evenodd" fill="#FFFFFF" d="M88.027,100.504c-0.669,0.446-0.96,0.803-1.251,0.803
		c-0.713,0-1.319-0.248-1.33-1.165c-0.009-0.73,0.456-0.984,0.985-0.82C86.905,99.467,87.281,99.929,88.027,100.504z"/>
	<path fill-rule="evenodd" clip-rule="evenodd" fill="#FFFFFF" d="M92.437,57.644c0.188,1.334-0.464,1.552-1.189,1.525
		c-0.245-0.009-0.656-0.406-0.679-0.654c-0.069-0.772,0.278-1.353,1.164-1.25C92.054,57.302,92.346,57.592,92.437,57.644z"/>
	<path fill-rule="evenodd" clip-rule="evenodd" fill="#FFFFFF" d="M98.309,90.958c0.354-0.218,0.682-0.534,1.066-0.632
		c0.703-0.18,1.008,0.237,1.043,0.917c0.032,0.593-0.1,1.12-0.804,0.985c-0.467-0.09-0.881-0.453-1.318-0.693
		C98.3,91.343,98.304,91.15,98.309,90.958z"/>
	<path fill-rule="evenodd" clip-rule="evenodd" fill="#FFFFFF" d="M109.502,88.728c0.203,0.289,0.562,0.569,0.578,0.868
		c0.045,0.779-0.368,1.331-1.207,1.21c-0.283-0.04-0.762-0.571-0.709-0.745c0.149-0.493,0.526-0.917,0.813-1.368
		C109.152,88.704,109.327,88.716,109.502,88.728z"/>
	<path fill-rule="evenodd" clip-rule="evenodd" fill="#FFFFFF" d="M92.575,81.219c1.303-0.101,1.444,0.513,1.358,1.125
		c-0.043,0.302-0.444,0.779-0.688,0.782c-0.59,0.006-1.407-0.025-1.216-0.985C92.112,81.732,92.475,81.38,92.575,81.219z"/>
	<path fill-rule="evenodd" clip-rule="evenodd" fill="#FFFFFF" d="M85.507,96.133c-0.153-0.179-0.576-0.461-0.67-0.827
		c-0.16-0.626,0.053-1.251,0.863-1.181c0.367,0.031,0.945,0.317,1.011,0.589C86.861,95.343,86.696,95.991,85.507,96.133z"/>
	<path fill-rule="evenodd" clip-rule="evenodd" fill="#FFFFFF" d="M111.833,94.136c-0.075-0.1-0.438-0.363-0.473-0.666
		c-0.082-0.693,0.192-1.312,1.027-1.199c0.332,0.045,0.825,0.423,0.878,0.716C113.399,93.722,112.989,94.175,111.833,94.136z"/>
	<path fill-rule="evenodd" clip-rule="evenodd" fill="#FFFFFF" d="M94.535,108.873c0.202,0.326,0.533,0.634,0.581,0.981
		c0.102,0.728-0.281,1.077-1.062,1.056c-0.699-0.02-1.009-0.383-0.847-0.971c0.114-0.412,0.525-0.742,0.805-1.108
		C94.187,108.845,94.36,108.859,94.535,108.873z"/>
	<path fill-rule="evenodd" clip-rule="evenodd" fill="#FFFFFF" d="M87.938,44.242c-0.102-0.189-0.403-0.537-0.476-0.927
		c-0.158-0.857,0.511-1.023,1.104-0.921c0.307,0.053,0.717,0.509,0.77,0.833C89.448,43.919,89.063,44.345,87.938,44.242z"/>
	<path fill-rule="evenodd" clip-rule="evenodd" fill="#FFFFFF" d="M88.606,61.625c0.059,1.213-0.446,1.566-1.162,1.434
		c-0.292-0.054-0.676-0.55-0.709-0.877c-0.089-0.859,0.614-1.036,1.261-1.004C88.277,61.192,88.54,61.573,88.606,61.625z"/>
	<path fill-rule="evenodd" clip-rule="evenodd" d="M85.536,71.528c1.856-0.062,2.2,0.243,1.853,1.786
		c-0.062,0.274-0.494,0.466-0.756,0.695c-0.209-0.258-0.494-0.486-0.609-0.78C85.809,72.683,85.693,72.098,85.536,71.528z"/>
	<path fill-rule="evenodd" clip-rule="evenodd" d="M87.636,74.951c0.517-0.394,0.818-0.624,1.12-0.854
		c0.204,0.336,0.591,0.688,0.563,1.004c-0.029,0.335-0.453,0.634-0.704,0.949C88.356,75.76,88.098,75.469,87.636,74.951z"/>
</g>
</svg>
