<?xml version="1.0" encoding="utf-8"?>
<!-- Generator: Adobe Illustrator 16.0.0, SVG Export Plug-In . SVG Version: 6.00 Build 0)  -->
<!DOCTYPE svg PUBLIC "-//W3C//DTD SVG 1.1//EN" "http://www.w3.org/Graphics/SVG/1.1/DTD/svg11.dtd">
<svg version="1.1" id="Layer_1" xmlns="http://www.w3.org/2000/svg" xmlns:xlink="http://www.w3.org/1999/xlink" x="0px" y="0px"
	 width="144px" height="144px" viewBox="0 0 144 144" enable-background="new 0 0 144 144" xml:space="preserve">
<g>
	<path fill="#FFFFFF" d="M95.734,18.307c-0.026-0.001-0.327-0.048-0.623-0.027c-2.418,0.167-4.834,0.375-7.254,0.512
		c-1.435,0.082-2.875,0.039-4.312,0.098c-0.469,0.019-0.928,0.25-1.396,0.274c-2.928,0.145-5.85,0.164-8.784,0.472
		c-3.528,0.371-7.118,0.178-10.682,0.174c-1.021-0.001-2.04-0.268-3.062-0.283c-1.095-0.016-2.194,0.189-3.289,0.164
		c-0.652-0.016-1.292-0.335-1.951-0.432c-0.604-0.089-1.048,0.13-0.907,0.871c0.206,1.088-1.148,2.429,0.53,3.292
		c0.076,0.039,0.043,0.303,0.047,0.462c0.137,4.899,0.317,9.797,0.393,14.697c0.055,3.616,0.208,7.205,0.962,10.762
		c0.123,0.579-0.281,1.571-0.764,1.898c-0.586,0.397-1.51,0.364-2.292,0.393c-2.837,0.105-5.68,0.09-8.513,0.248
		c-3.288,0.182-6.569,0.489-9.852,0.759c-2.258,0.186-4.515,0.385-6.767,0.621c-0.243,0.025-0.455,0.336-0.682,0.515
		c0.217,0.188,0.412,0.488,0.657,0.539c0.421,0.086,0.895-0.064,1.306,0.042c0.235,0.06,0.554,0.431,0.553,0.66
		c-0.005,0.998-1.192,1.843-2.239,1.654c-0.083-0.4-0.167-0.806-0.25-1.212c-0.116-0.046-0.232-0.092-0.348-0.138
		c-0.196,0.345-0.597,0.718-0.553,1.029c0.235,1.684-0.497,3.292-0.083,5.064c0.285,1.222,0.966,2.761-0.045,4.112
		c-0.088,0.118-0.055,0.458,0.053,0.571c1.16,1.218,0.627,2.468,0.04,3.898c0.079,0.041,0.247,0.09,0.366,0.195
		c1.308,1.157,1.325,1.422,0.323,2.867c-0.303,0.438-0.539,0.923-0.83,1.429c1.745-0.024,1.976,0.307,2.23,2.002
		c0.285,1.903,0.83,3.767,1.152,5.666c0.24,1.413,1.496,2.902-0.147,4.288c-0.067,0.057,0.203,0.769,0.348,0.781
		c0.763,0.063,1.177,0.345,1.186,1.163c0.002,0.16,0.28,0.431,0.448,0.444c0.17,0.015,0.489-0.198,0.523-0.359
		c0.24-1.109,1.082-1.122,1.947-1.164c1.854-0.091,3.679,0.058,5.567-0.348c3-0.645,6.12-0.694,9.17-1.176
		c1.137-0.179,2.309-0.185,3.464-0.177c1.322,0.009,2.648,0.072,3.959,0.225c0.281,0.032,0.69,0.525,0.726,0.842
		c0.2,1.756,0.449,3.525,0.409,5.284c-0.086,3.703-0.342,7.401-0.525,11.103c-0.035,0.717-0.055,1.436-0.077,2.153
		c-0.094,3.021-0.483,6.07-0.191,9.053c0.272,2.784,1.094,5.509,0.862,8.366c-0.145,1.781-0.096,1.741,1.531,1.107
		c0.797-0.311,0.648-0.64,0.25-1.132c-0.242-0.3-0.602-0.601-0.655-0.94c-0.395-2.54-0.785-5.084-1.058-7.639
		c-0.219-2.053-0.292-4.122-0.374-6.186c-0.011-0.271,0.309-0.78,0.484-0.784c0.32-0.007,0.771,0.202,0.94,0.467
		c0.218,0.341,0.306,0.829,0.286,1.246c-0.077,1.64,0.583,3.144,0.812,4.727c0.202,1.394,0.562,2.765,0.838,4.148
		c0.246,1.233,0.432,2.48,0.744,3.696c0.065,0.252,0.569,0.392,0.872,0.583c0.038-0.33,0.118-0.661,0.106-0.989
		c-0.036-1.029-0.28-2.091-0.084-3.069c0.087-0.438,1.052-0.674,1.573-1.062c0.428-0.319,0.931-0.61,0.397-1.347
		c-0.189-0.261,0.001-0.987,0.25-1.336c0.524-0.736,1.2-1.364,1.814-2.037c-0.075-0.07-0.15-0.141-0.225-0.212
		c-1.286,0.655-2.146,1.75-2.953,2.932c-0.254,0.372-0.712,0.798-1.098,0.819c-0.266,0.016-0.731-0.582-0.829-0.975
		c-0.561-2.258-1.185-4.516-1.509-6.813c-0.464-3.298-0.832-6.624-0.978-9.949c-0.163-3.709,0.011-7.431-0.057-11.145
		c-0.016-0.892,0.208-1.319,1.053-1.555c0.374-0.104,0.672-0.479,1.004-0.731c-0.077-0.166-0.153-0.331-0.23-0.497
		c-3.262,0.245-6.525,0.482-9.787,0.738c-0.83,0.064-1.654,0.2-2.482,0.283c-2.693,0.27-5.386,0.549-8.083,0.765
		c-0.259,0.021-0.803-0.396-0.789-0.578c0.096-1.26-0.674-1.136-1.477-1.03c-1.261,0.165-1.47-0.038-1.055-1.271
		c0.333-0.987,0.334-1.703-1.062-1.871c0.25-0.645,0.455-1.171,0.679-1.746c-1.612-1.49-3.031,0.747-4.849,0.27
		c0.964-2.154,3.401-2.859,4.379-4.865c-2.292-0.055-3.301,2.729-5.488,2.285c-0.256-0.622-0.618-0.99-0.913-1.405
		c-0.167-0.236-0.25-0.544-0.329-0.831c-0.123-0.452-0.274-0.911-0.292-1.372c-0.017-0.442,0.053-0.916,0.212-1.327
		c0.164-0.423,0.48-0.787,0.826-1.327c-1.881,0.246-1.297-1.057-1.21-1.792c0.1-0.84,0.565-1.636,0.945-2.645
		c-0.289,0.235-0.418,0.425-0.576,0.452c-0.389,0.066-0.791,0.057-1.188,0.078c0.048-0.412-0.015-0.883,0.166-1.225
		c0.721-1.366,1.519-2.692,2.345-4.133c-0.492,0-0.866,0-1.483,0c0.142-0.625,0.106-1.296,0.417-1.706
		c1.627-2.15,3.459-4.121,5.773-5.555c1.165-0.722,1.47-0.571,1.954,0.807c0.477-0.366,0.891-0.777,1.384-1.038
		c0.497-0.263,1.072-0.376,1.612-0.556c-0.103,0.513-0.065,1.121-0.336,1.52c-0.663,0.978-2.414,1.099-2.208,2.798
		c0.008,0.067-0.171,0.153-0.256,0.237c-1.969,1.967-3.954,3.917-5.894,5.912c-0.618,0.636-1.113,1.389-1.665,2.089
		c0.355,0.083,0.542,0.023,0.665-0.102c1.271-1.294,2.508-2.623,3.801-3.896c2.229-2.196,4.515-4.337,6.723-6.554
		c0.536-0.537,0.728-1.633,1.314-1.859c1.281-0.495,2.713-0.596,4.208-0.881c-0.033,0.755-0.052,1.19-0.083,1.895
		c0.56-0.514,0.863-0.911,1.263-1.138c2.048-1.165,4.239-0.645,6.4-0.484c1.622,0.121,3.245,0.216,4.751,0.315
		c-0.232-1.008-0.614-1.784-0.54-2.515c0.198-1.956,1.155-3.928-0.462-5.74c-0.133-0.15-0.105-0.456-0.127-0.691
		c-0.054-0.557-0.026-1.131-0.15-1.671c-0.573-2.504-0.705-5.007-0.142-7.532c0.055-0.248-0.032-0.545-0.11-0.802
		c-0.183-0.605-0.55-1.195-0.573-1.802c-0.073-1.869-0.056-3.743,0.004-5.613c0.026-0.812,0.26-1.617,0.363-2.429
		c0.057-0.451-0.011-0.921,0.072-1.365c0.071-0.382,0.244-1.039,0.428-1.059c1.59-0.177,3.192-0.248,4.791-0.329
		c1.231-0.062,2.477,0.002,3.691-0.169c1.201-0.17,2.301-1.129,3.614-0.397c0.106,0.059,0.327,0,0.452-0.075
		c1.472-0.886,3.014-0.733,4.607-0.424c0.691,0.134,1.64,0.289,2.111-0.057c1.243-0.91,2.594-0.563,3.891-0.653
		c1.221-0.084,2.496-0.104,3.68,0.158c1.857,0.411,3.681,0.658,5.575,0.376c0.322-0.048,0.915,0.119,1.001,0.337
		c0.496,1.262,1.246,1.245,2.27,0.668c0.714-0.402,1.25-0.234,1.297,0.698c0.045,0.878,0.117,1.758,0.091,2.635
		c-0.156,5.215-0.315,10.431-0.52,15.645c-0.086,2.181-0.3,4.357-0.421,6.537c-0.023,0.423,0.18,0.858,0.159,1.282
		c-0.025,0.547-0.048,1.154-0.294,1.617c-0.408,0.767-0.995,1.44-1.507,2.154c0.959,0.295,1.88,0.382,2.549,0.838
		c0.72,0.491,1.319,0.325,1.749-0.085c0.729-0.696,1.374-0.884,1.802-0.456c1.114-0.384,1.916-0.822,2.752-0.904
		c0.927-0.091,1.919,0.347,2.82,0.192c1.47-0.251,2.818-0.418,4.359-0.083c1.482,0.323,3.137-0.258,4.708-0.207
		c2.34,0.077,4.675,0.353,7.01,0.562c0.393,0.035,0.778,0.154,1.168,0.235c-0.122,0.53-0.08,1.228-0.408,1.548
		c-0.393,0.385-1.127,0.667-1.665,0.601c-0.878-0.108-1.198,0.199-1.002,0.935c0.231,0.868,0.657,1.685,0.923,2.338
		c0.763-0.27,1.268-0.448,1.772-0.626c0.104,0.472,0.282,0.942,0.3,1.417c0.176,4.738,0.288,9.478,0.494,14.215
		c0.144,3.295,0.387,6.587,0.631,9.876c0.074,1.006-0.167,1.416-1.292,1.4c-1.661-0.023-3.324,0.2-4.988,0.295
		c-3.58,0.206-7.159,0.456-10.742,0.577c-2.846,0.096-5.696,0.012-8.545,0.049c-0.327,0.005-0.852,0.203-0.938,0.439
		c-0.246,0.669-0.377,1.4-0.438,2.116c-0.173,2.014-0.353,4.029-0.4,6.048c-0.025,1.095,0.021,2.118-1.108,2.724
		c-0.029,0.016,0.005,0.148,0.019,0.374c1.125-0.242,1.007,0.525,0.95,1.245c-0.114,1.47-0.332,2.938-0.331,4.408
		c0.006,4.499-0.508,9.016,0.449,13.487c0.221,1.029,0.391,1.997,1.821,1.808c0.146,0.973,0.532,1.96-0.734,2.356
		c-1.192,0.373-1.759-0.212-1.679-1.503c-0.272,0.093-0.411,0.165-0.558,0.186c-0.608,0.085-1.22,0.155-1.83,0.23
		c0.055-0.602,0.12-1.201,0.159-1.804c0.019-0.28,0.079-0.625-0.054-0.825c-0.101-0.153-0.487-0.204-0.727-0.166
		c-1.323,0.208-2.641,0.456-4.034,0.704c0.32-1.315,1.557-2.331,1.01-3.818c-0.542,0.122-0.954,0.228-1.373,0.304
		c-0.396,0.072-0.798,0.112-1.37,0.189c1.671,1.315,1.679,1.486,0.299,2.912c-0.527,0.547-1.119,1.044-1.566,1.648
		c-0.131,0.176,0.12,0.928,0.221,0.934c0.543,0.027,1.137,0.011,1.631-0.19c1.296-0.525,2.538-1.183,3.831-1.718
		c0.224-0.093,0.742,0.069,0.858,0.269c0.293,0.501-0.624,2.699-1.203,2.792c-2.14,0.342-4.295,0.593-6.447,0.855
		c-0.593,0.072-1.203,0.014-1.792,0.104c-1.87,0.289-3.729,0.66-5.604,0.921c-1.148,0.159-2.559-0.204-3.419,0.345
		c-1.182,0.755-2.266,0.484-3.415,0.539c-1.505,0.072-3.01,0.162-4.526,0.244c0.273,1.385,0.215,1.452-1.179,1.455
		c-0.24,0-0.501-0.072-0.715-0.001c-0.352,0.119-0.696,0.298-0.988,0.523c-0.065,0.05,0.042,0.528,0.17,0.585
		c0.336,0.148,0.728,0.235,1.096,0.23c0.301-0.004,0.594-0.229,0.902-0.265c3.196-0.379,6.395-0.724,9.589-1.113
		c1.054-0.129,2.105-0.323,3.142-0.554c1.259-0.28,2.494-0.666,3.754-0.944c2.112-0.467,4.222-0.992,6.36-1.288
		c1.53-0.212,3.123-0.231,4.656-0.062c0.866,0.097,1.67,0.751,2.61,1.206c0.082-0.076,0.389-0.227,0.461-0.452
		c0.36-1.121,1.235-0.966,2.061-0.859c2.306,0.297,4.605,0.647,6.914,0.925c0.262,0.031,0.564-0.274,0.848-0.424
		c-0.253-0.19-0.482-0.494-0.763-0.553c-1.167-0.244-2.373-0.328-3.514-0.653c-0.509-0.145-1.189-0.661-1.281-1.113
		c-0.331-1.623-0.417-3.294-0.649-4.939c-0.137-0.971-0.049-2.064-1.18-2.623c-0.14-0.069-0.184-0.419-0.197-0.644
		c-0.061-0.997-0.119-1.995-0.132-2.993c-0.029-2.29,0.005-4.581-0.062-6.869c-0.034-1.212-0.215-2.42-0.348-3.628
		c-0.338-3.053,0.294-5.994,1.061-8.909c0.201-0.766,0.543-1.979,1.029-2.095c1.552-0.364,3.203-0.309,4.815-0.415
		c0.758-0.051,1.518-0.089,2.274-0.153c0.719-0.061,1.435-0.162,2.153-0.22c0.672-0.054,1.357-0.007,2.016-0.124
		c0.792-0.142,1.55-0.507,2.343-0.6c1.07-0.125,2.159-0.105,3.241-0.109c1.999-0.007,3.999,0.018,5.998,0.021
		c0.714,0.001,1.051,0.19,0.771,1.012c-0.261,0.763,0.164,0.939,0.889,0.856c0.569-0.065,1.158,0.045,1.738,0.076
		c0.149,0.008,0.308,0.047,0.446,0.011c1.322-0.345,2.104-2.071,1.455-3.288c-0.951-1.783-2.2-3.397-2.521-5.504
		c-0.336-2.204-1.249-4.367-1.289-6.56c-0.091-5.016,0.193-10.039,0.335-15.059c0.029-1.038,0.126-2.074,0.147-3.112
		c0.012-0.521,0.128-1.257-0.156-1.53c-0.976-0.94-0.603-1.757,0.176-2.822c-0.494-0.14-0.865-0.361-1.208-0.323
		c-1.883,0.212-3.757,0.506-5.639,0.729c-0.453,0.053-0.929-0.114-1.388-0.083c-2.413,0.166-4.82,0.413-7.235,0.532
		c-2.005,0.099-4.018,0.027-6.025,0.093c-1.72,0.056-2.41-0.241-2.802-1.766c-0.489-1.909-0.863-3.856-1.145-5.807
		c-0.362-2.514-0.156-5.06-0.417-7.605c-0.397-3.879-0.133-7.827-0.12-11.746C95.607,21.69,95.686,20.061,95.734,18.307z
		 M90.16,97.634c-2.977,1.893-5.764,3.437-7.236,6.462c2.403-1.764,4.719-3.632,7.016-5.523
		C90.066,98.469,90.04,98.179,90.16,97.634z M84.855,94.862c0.072,0.072,0.146,0.146,0.218,0.219
		c1.992-1.266,3.985-2.53,5.978-3.796c-0.022-0.146-0.044-0.293-0.066-0.439c-0.367-0.017-0.845-0.191-1.083-0.024
		c-1.514,1.062-2.98,2.19-4.445,3.319C85.214,94.327,85.054,94.619,84.855,94.862z M82.781,107.735c0,0.527,0,1.157,0,2.05
		c1.243-1.227,2.351-2.32,3.459-3.413c-0.144-0.184-0.287-0.366-0.43-0.549C84.83,106.442,83.85,107.061,82.781,107.735z
		 M65.871,118.136c-1.813,1.614-1.813,1.614-1.681,2.808c1.336-0.831,2.61-1.623,3.883-2.414c-0.054-0.127-0.108-0.253-0.163-0.379
		C67.218,118.617,66.518,119.393,65.871,118.136z M75.003,118.827c-0.079-0.131-0.158-0.263-0.237-0.395
		c-0.517,0.338-0.995,0.8-1.562,0.977c-0.538,0.168-1.169,0.036-1.758,0.036c-0.031-0.105-0.062-0.212-0.093-0.317
		c-0.47,0.546-0.941,1.092-1.411,1.639c0.054,0.117,0.108,0.235,0.162,0.353c0.366-0.035,0.756-0.007,1.092-0.127
		c0.269-0.095,0.447-0.418,0.709-0.56C72.929,119.88,73.969,119.359,75.003,118.827z M79.013,112.737
		c-2.14,0.348-2.788,2.369-4.277,3.446c0.068,0.077,0.138,0.153,0.206,0.229C76.299,115.188,77.655,113.963,79.013,112.737z
		 M42.152,56.627c0.15,0.149,0.299,0.299,0.449,0.448c0.822-0.828,1.644-1.656,2.466-2.484c-0.167-0.165-0.334-0.329-0.501-0.494
		C43.761,54.94,42.957,55.783,42.152,56.627z M36.65,67.569c1.416-0.737,2.384-2.474,1.654-3.347
		C38.405,65.722,36.592,66.022,36.65,67.569z M114.864,57.25c0.671,1.936,1.583,2.49,2.937,1.935
		C116.861,58.567,115.92,57.946,114.864,57.25z M80.183,106.557c-1.487-0.09-2.307,0.562-2.336,1.832
		C78.639,107.768,79.284,107.262,80.183,106.557z M90.293,97.723c0.117,0.111,0.234,0.224,0.352,0.335
		c0.728-0.285,1.491-0.537,1.459-1.521c-0.113-0.108-0.227-0.217-0.34-0.326C91.273,96.715,90.783,97.219,90.293,97.723z
		 M34.846,70.108c1.564-1.881,1.564-1.881,1.315-2.516C34.611,69.201,34.611,69.201,34.846,70.108z M83.43,96.548
		c-0.062-0.104-0.123-0.208-0.184-0.312c-0.752,0.79-2.116,0.776-2.365,2.231C81.73,97.828,82.58,97.188,83.43,96.548z
		 M114.278,56.855c-0.007-1.235-0.38-1.563-1.738-1.371C113.207,56.01,113.697,56.397,114.278,56.855z"/>
	<path fill-rule="evenodd" clip-rule="evenodd" d="M95.734,18.307c-0.049,1.754-0.127,3.384-0.133,5.015
		c-0.013,3.918-0.277,7.867,0.12,11.746c0.261,2.546,0.055,5.092,0.417,7.605c0.281,1.951,0.655,3.898,1.145,5.807
		c0.392,1.524,1.082,1.822,2.802,1.766c2.008-0.066,4.021,0.006,6.025-0.093c2.415-0.119,4.822-0.366,7.235-0.532
		c0.459-0.031,0.935,0.136,1.388,0.083c1.882-0.223,3.756-0.517,5.639-0.729c0.343-0.039,0.714,0.183,1.208,0.323
		c-0.778,1.065-1.151,1.881-0.176,2.822c0.284,0.273,0.168,1.008,0.156,1.53c-0.021,1.038-0.118,2.074-0.147,3.112
		c-0.142,5.02-0.426,10.042-0.335,15.059c0.04,2.192,0.953,4.355,1.289,6.56c0.32,2.106,1.569,3.721,2.521,5.504
		c0.649,1.217-0.133,2.943-1.455,3.288c-0.139,0.036-0.297-0.003-0.446-0.011c-0.58-0.031-1.169-0.142-1.738-0.076
		c-0.725,0.083-1.149-0.094-0.889-0.856c0.28-0.821-0.057-1.011-0.771-1.012c-1.999-0.003-3.999-0.027-5.998-0.021
		c-1.082,0.004-2.171-0.016-3.241,0.109c-0.793,0.093-1.551,0.458-2.343,0.6c-0.658,0.117-1.344,0.07-2.016,0.124
		c-0.719,0.058-1.435,0.159-2.153,0.22c-0.757,0.064-1.517,0.103-2.274,0.153c-1.612,0.106-3.264,0.051-4.815,0.415
		c-0.486,0.115-0.828,1.329-1.029,2.095c-0.767,2.915-1.398,5.856-1.061,8.909c0.133,1.208,0.313,2.416,0.348,3.628
		c0.066,2.288,0.032,4.579,0.062,6.869c0.013,0.998,0.071,1.996,0.132,2.993c0.014,0.225,0.058,0.574,0.197,0.644
		c1.131,0.559,1.043,1.652,1.18,2.623c0.232,1.646,0.318,3.316,0.649,4.939c0.092,0.452,0.772,0.969,1.281,1.113
		c1.141,0.325,2.347,0.409,3.514,0.653c0.28,0.059,0.51,0.362,0.763,0.553c-0.283,0.149-0.586,0.455-0.848,0.424
		c-2.309-0.277-4.608-0.628-6.914-0.925c-0.825-0.106-1.7-0.262-2.061,0.859c-0.072,0.226-0.379,0.376-0.461,0.452
		c-0.94-0.455-1.744-1.109-2.61-1.206c-1.533-0.17-3.126-0.15-4.656,0.062c-2.139,0.296-4.248,0.821-6.36,1.288
		c-1.26,0.278-2.495,0.664-3.754,0.944c-1.037,0.23-2.088,0.425-3.142,0.554c-3.194,0.39-6.394,0.734-9.589,1.113
		c-0.308,0.036-0.601,0.261-0.902,0.265c-0.368,0.005-0.76-0.082-1.096-0.23c-0.127-0.057-0.235-0.535-0.17-0.585
		c0.292-0.226,0.637-0.404,0.988-0.523c0.214-0.071,0.475,0.001,0.715,0.001c1.394-0.003,1.452-0.07,1.179-1.455
		c1.516-0.082,3.021-0.172,4.526-0.244c1.149-0.055,2.233,0.216,3.415-0.539c0.86-0.549,2.271-0.186,3.419-0.345
		c1.874-0.261,3.733-0.632,5.604-0.921c0.589-0.091,1.199-0.032,1.792-0.104c2.152-0.263,4.308-0.514,6.447-0.855
		c0.579-0.093,1.496-2.291,1.203-2.792c-0.116-0.199-0.635-0.361-0.858-0.269c-1.293,0.535-2.535,1.192-3.831,1.718
		c-0.494,0.201-1.088,0.218-1.631,0.19c-0.101-0.006-0.352-0.758-0.221-0.934c0.447-0.604,1.039-1.102,1.566-1.648
		c1.38-1.426,1.372-1.597-0.299-2.912c0.572-0.077,0.975-0.117,1.37-0.189c0.419-0.076,0.831-0.182,1.373-0.304
		c0.547,1.487-0.689,2.503-1.01,3.818c1.394-0.248,2.711-0.496,4.034-0.704c0.239-0.038,0.626,0.013,0.727,0.166
		c0.133,0.2,0.072,0.545,0.054,0.825c-0.039,0.603-0.104,1.202-0.159,1.804c0.61-0.075,1.222-0.146,1.83-0.23
		c0.146-0.021,0.285-0.093,0.558-0.186c-0.08,1.291,0.486,1.876,1.679,1.503c1.267-0.396,0.88-1.384,0.734-2.356
		c-1.431,0.189-1.601-0.778-1.821-1.808c-0.957-4.472-0.443-8.988-0.449-13.487c-0.001-1.47,0.217-2.938,0.331-4.408
		c0.057-0.72,0.175-1.487-0.95-1.245c-0.014-0.226-0.048-0.358-0.019-0.374c1.13-0.605,1.083-1.629,1.108-2.724
		c0.048-2.019,0.228-4.034,0.4-6.048c0.062-0.716,0.192-1.447,0.438-2.116c0.087-0.236,0.611-0.435,0.938-0.439
		c2.849-0.037,5.699,0.047,8.545-0.049c3.583-0.121,7.162-0.371,10.742-0.577c1.664-0.095,3.327-0.318,4.988-0.295
		c1.125,0.016,1.366-0.395,1.292-1.4c-0.244-3.289-0.487-6.581-0.631-9.876c-0.206-4.737-0.318-9.477-0.494-14.215
		c-0.018-0.475-0.196-0.945-0.3-1.417c-0.505,0.178-1.01,0.356-1.772,0.626c-0.266-0.653-0.691-1.47-0.923-2.338
		c-0.196-0.735,0.124-1.042,1.002-0.935c0.538,0.066,1.272-0.216,1.665-0.601c0.328-0.32,0.286-1.018,0.408-1.548
		c-0.39-0.081-0.775-0.2-1.168-0.235c-2.335-0.208-4.67-0.485-7.01-0.562c-1.571-0.052-3.226,0.53-4.708,0.207
		c-1.541-0.335-2.89-0.169-4.359,0.083c-0.901,0.155-1.894-0.283-2.82-0.192c-0.836,0.082-1.638,0.521-2.752,0.904
		c-0.428-0.428-1.072-0.24-1.802,0.456c-0.43,0.41-1.029,0.576-1.749,0.085c-0.669-0.456-1.59-0.543-2.549-0.838
		c0.512-0.714,1.099-1.387,1.507-2.154c0.246-0.462,0.269-1.07,0.294-1.617c0.021-0.424-0.183-0.859-0.159-1.282
		c0.121-2.18,0.335-4.355,0.421-6.537c0.204-5.213,0.363-10.429,0.52-15.645c0.026-0.877-0.046-1.757-0.091-2.635
		c-0.047-0.932-0.583-1.101-1.297-0.698c-1.023,0.577-1.773,0.594-2.27-0.668c-0.086-0.218-0.679-0.385-1.001-0.337
		c-1.895,0.282-3.718,0.034-5.575-0.376c-1.184-0.262-2.459-0.243-3.68-0.158c-1.297,0.09-2.647-0.257-3.891,0.653
		c-0.472,0.346-1.42,0.191-2.111,0.057c-1.594-0.309-3.136-0.462-4.607,0.424c-0.125,0.075-0.346,0.134-0.452,0.075
		c-1.312-0.732-2.413,0.227-3.614,0.397c-1.214,0.171-2.46,0.106-3.691,0.169c-1.599,0.082-3.201,0.152-4.791,0.329
		c-0.185,0.021-0.357,0.677-0.428,1.059c-0.083,0.444-0.015,0.914-0.072,1.365c-0.103,0.812-0.337,1.617-0.363,2.429
		c-0.06,1.87-0.077,3.745-0.004,5.613c0.023,0.607,0.391,1.197,0.573,1.802c0.078,0.257,0.165,0.554,0.11,0.802
		c-0.563,2.525-0.431,5.027,0.142,7.532c0.124,0.54,0.096,1.114,0.15,1.671c0.022,0.236-0.006,0.542,0.127,0.691
		c1.617,1.812,0.66,3.785,0.462,5.74c-0.074,0.73,0.308,1.507,0.54,2.515c-1.506-0.099-3.129-0.194-4.751-0.315
		c-2.161-0.161-4.352-0.681-6.4,0.484c-0.4,0.227-0.703,0.625-1.263,1.138c0.031-0.704,0.05-1.139,0.083-1.895
		c-1.495,0.285-2.927,0.386-4.208,0.881c-0.586,0.227-0.779,1.322-1.314,1.859c-2.208,2.217-4.494,4.358-6.723,6.554
		c-1.292,1.273-2.529,2.601-3.801,3.896c-0.123,0.125-0.31,0.185-0.665,0.102c0.552-0.7,1.047-1.453,1.665-2.089
		c1.94-1.995,3.925-3.945,5.894-5.912c0.085-0.084,0.264-0.17,0.256-0.237c-0.206-1.699,1.545-1.82,2.208-2.798
		c0.271-0.399,0.233-1.007,0.336-1.52c-0.541,0.18-1.116,0.293-1.612,0.556c-0.493,0.261-0.907,0.672-1.384,1.038
		c-0.484-1.378-0.79-1.529-1.954-0.807c-2.314,1.435-4.146,3.405-5.773,5.555c-0.31,0.41-0.275,1.081-0.417,1.706
		c0.617,0,0.991,0,1.483,0c-0.827,1.441-1.624,2.767-2.345,4.133c-0.181,0.342-0.117,0.813-0.166,1.225
		c0.396-0.021,0.798-0.012,1.188-0.078c0.157-0.027,0.287-0.217,0.576-0.452c-0.379,1.009-0.845,1.805-0.945,2.645
		c-0.087,0.735-0.671,2.038,1.21,1.792c-0.346,0.541-0.662,0.904-0.826,1.327c-0.159,0.411-0.229,0.885-0.212,1.327
		c0.017,0.461,0.169,0.92,0.292,1.372c0.078,0.287,0.161,0.595,0.329,0.831c0.294,0.415,0.656,0.783,0.913,1.405
		c2.188,0.443,3.196-2.34,5.488-2.285c-0.978,2.006-3.415,2.711-4.379,4.865c1.818,0.478,3.237-1.76,4.849-0.27
		c-0.224,0.575-0.428,1.102-0.679,1.746c1.396,0.168,1.395,0.884,1.062,1.871c-0.415,1.232-0.206,1.436,1.055,1.271
		c0.803-0.105,1.573-0.229,1.477,1.03c-0.014,0.182,0.529,0.599,0.789,0.578c2.697-0.216,5.39-0.495,8.083-0.765
		c0.829-0.083,1.652-0.219,2.482-0.283c3.261-0.256,6.524-0.493,9.787-0.738c0.077,0.166,0.154,0.331,0.23,0.497
		c-0.332,0.252-0.63,0.627-1.004,0.731c-0.845,0.235-1.069,0.663-1.053,1.555c0.067,3.714-0.106,7.436,0.057,11.145
		c0.146,3.325,0.513,6.651,0.978,9.949c0.324,2.298,0.948,4.556,1.509,6.813c0.098,0.393,0.563,0.99,0.829,0.975
		c0.386-0.021,0.844-0.447,1.098-0.819c0.807-1.182,1.667-2.276,2.953-2.932c0.075,0.071,0.15,0.142,0.225,0.212
		c-0.614,0.673-1.29,1.301-1.814,2.037c-0.249,0.349-0.439,1.075-0.25,1.336c0.534,0.736,0.03,1.027-0.397,1.347
		c-0.521,0.389-1.486,0.624-1.573,1.062c-0.195,0.979,0.048,2.04,0.084,3.069c0.012,0.328-0.068,0.659-0.106,0.989
		c-0.302-0.191-0.807-0.331-0.872-0.583c-0.312-1.216-0.498-2.463-0.744-3.696c-0.276-1.384-0.637-2.755-0.838-4.148
		c-0.229-1.583-0.888-3.087-0.812-4.727c0.02-0.417-0.068-0.905-0.286-1.246c-0.169-0.265-0.62-0.474-0.94-0.467
		c-0.175,0.004-0.495,0.514-0.484,0.784c0.082,2.063,0.154,4.133,0.374,6.186c0.273,2.555,0.663,5.099,1.058,7.639
		c0.053,0.34,0.413,0.641,0.655,0.94c0.399,0.492,0.547,0.821-0.25,1.132c-1.627,0.634-1.676,0.674-1.531-1.107
		c0.232-2.857-0.59-5.582-0.862-8.366c-0.292-2.982,0.098-6.032,0.191-9.053c0.022-0.718,0.042-1.437,0.077-2.153
		c0.183-3.701,0.439-7.399,0.525-11.103c0.041-1.759-0.209-3.528-0.409-5.284c-0.036-0.316-0.445-0.81-0.726-0.842
		c-1.311-0.152-2.637-0.216-3.959-0.225c-1.155-0.008-2.328-0.002-3.464,0.177c-3.05,0.481-6.17,0.531-9.17,1.176
		c-1.888,0.405-3.713,0.257-5.567,0.348c-0.866,0.042-1.707,0.055-1.947,1.164c-0.035,0.161-0.353,0.374-0.523,0.359
		c-0.167-0.014-0.446-0.284-0.448-0.444c-0.009-0.818-0.423-1.1-1.186-1.163c-0.146-0.013-0.416-0.725-0.348-0.781
		c1.643-1.386,0.387-2.875,0.147-4.288c-0.322-1.899-0.867-3.763-1.152-5.666c-0.254-1.695-0.486-2.026-2.23-2.002
		c0.291-0.506,0.526-0.991,0.83-1.429c1.002-1.445,0.985-1.71-0.323-2.867c-0.119-0.105-0.287-0.154-0.366-0.195
		c0.587-1.43,1.12-2.681-0.04-3.898c-0.107-0.113-0.141-0.453-0.053-0.571c1.012-1.351,0.331-2.89,0.045-4.112
		c-0.414-1.772,0.318-3.38,0.083-5.064c-0.043-0.311,0.357-0.685,0.553-1.029c0.116,0.046,0.232,0.092,0.348,0.138
		c0.083,0.406,0.167,0.812,0.25,1.212c1.047,0.188,2.234-0.657,2.239-1.654c0.001-0.229-0.318-0.6-0.553-0.66
		c-0.411-0.105-0.885,0.044-1.306-0.042c-0.245-0.05-0.439-0.351-0.657-0.539c0.227-0.179,0.439-0.49,0.682-0.515
		c2.252-0.236,4.509-0.436,6.767-0.621c3.283-0.27,6.563-0.577,9.852-0.759c2.833-0.158,5.676-0.143,8.513-0.248
		c0.782-0.029,1.707,0.005,2.292-0.393c0.482-0.327,0.886-1.32,0.764-1.898c-0.754-3.557-0.907-7.146-0.962-10.762
		c-0.075-4.899-0.256-9.798-0.393-14.697c-0.004-0.159,0.028-0.423-0.047-0.462c-1.678-0.863-0.324-2.204-0.53-3.292
		c-0.141-0.741,0.303-0.959,0.907-0.871c0.658,0.097,1.298,0.417,1.951,0.432c1.095,0.025,2.193-0.18,3.289-0.164
		c1.022,0.015,2.042,0.282,3.062,0.283c3.563,0.004,7.154,0.197,10.682-0.174c2.935-0.308,5.856-0.327,8.784-0.472
		c0.469-0.023,0.928-0.255,1.396-0.274c1.437-0.06,2.877-0.016,4.312-0.098c2.42-0.138,4.836-0.345,7.254-0.512
		C95.407,18.259,95.708,18.305,95.734,18.307z M93.659,45.288c-0.015,0-0.03,0-0.045,0c-0.022,0.357-0.055,0.715-0.066,1.072
		c-0.011,0.358-0.021,0.718,0.002,1.075c0.045,0.71-0.03,1.483,0.245,2.095c0.102,0.228,1.052,0.03,1.603,0.11
		c1.345,0.195,1.443,0.111,1.132-1.248c-0.277-1.214-0.646-2.412-0.847-3.638c-0.179-1.094-0.106-2.231-0.306-3.32
		c-0.069-0.379-0.621-0.67-0.952-1.001c-0.255,0.385-0.699,0.756-0.73,1.159C93.597,42.816,93.659,44.055,93.659,45.288z
		 M33.173,80.563c-0.098-0.149-0.195-0.299-0.293-0.448c-0.642,0.221-1.32,0.372-1.916,0.684c-0.473,0.246-1.233,0.741-1.193,1.032
		c0.185,1.314,0.551,2.614,0.968,3.881c0.24,0.729,0.93,0.669,1.303,0.181c0.435-0.567,0.646-1.307,0.935-1.93
		c-0.524-0.367-0.921-0.646-1.244-0.871C32.268,82.154,32.721,81.359,33.173,80.563z M30.104,55.894
		c1.165-0.061,1.791-0.454,1.648-1.511c-0.024-0.176-0.508-0.448-0.74-0.413C29.871,54.144,30.244,55.06,30.104,55.894z
		 M123.899,83.547c-0.647-0.445-0.964-0.785-1.333-0.859c-0.157-0.031-0.645,0.545-0.594,0.747c0.077,0.308,0.456,0.647,0.778,0.747
		C122.955,84.246,123.287,83.903,123.899,83.547z"/>
	<path fill-rule="evenodd" clip-rule="evenodd" d="M90.16,97.634c-0.12,0.545-0.094,0.835-0.221,0.938
		c-2.297,1.892-4.612,3.76-7.016,5.523C84.396,101.07,87.184,99.526,90.16,97.634z"/>
	<path fill-rule="evenodd" clip-rule="evenodd" d="M84.855,94.862c0.198-0.243,0.358-0.535,0.601-0.722
		c1.465-1.129,2.932-2.258,4.445-3.319c0.238-0.167,0.716,0.008,1.083,0.024c0.022,0.146,0.044,0.293,0.066,0.439
		c-1.992,1.266-3.985,2.53-5.978,3.796C85.001,95.008,84.928,94.935,84.855,94.862z"/>
	<path fill-rule="evenodd" clip-rule="evenodd" d="M82.781,107.735c1.068-0.675,2.049-1.293,3.029-1.912
		c0.143,0.183,0.286,0.365,0.43,0.549c-1.108,1.093-2.216,2.187-3.459,3.413C82.781,108.893,82.781,108.263,82.781,107.735z"/>
	<path fill-rule="evenodd" clip-rule="evenodd" d="M65.871,118.136c0.647,1.257,1.347,0.481,2.04,0.015
		c0.054,0.126,0.108,0.252,0.163,0.379c-1.273,0.791-2.547,1.583-3.883,2.414C64.058,119.75,64.058,119.75,65.871,118.136z"/>
	<path fill-rule="evenodd" clip-rule="evenodd" d="M75.003,118.827c-1.034,0.532-2.074,1.053-3.098,1.605
		c-0.262,0.142-0.44,0.465-0.709,0.56c-0.336,0.12-0.726,0.092-1.092,0.127c-0.054-0.117-0.108-0.235-0.162-0.353
		c0.47-0.547,0.941-1.093,1.411-1.639c0.031,0.105,0.062,0.212,0.093,0.317c0.589,0,1.22,0.132,1.758-0.036
		c0.566-0.177,1.045-0.639,1.562-0.977C74.845,118.564,74.924,118.696,75.003,118.827z"/>
	<path fill-rule="evenodd" clip-rule="evenodd" d="M79.013,112.737c-1.357,1.226-2.714,2.451-4.071,3.676
		c-0.068-0.076-0.138-0.152-0.206-0.229C76.225,115.106,76.873,113.085,79.013,112.737z"/>
	<path fill-rule="evenodd" clip-rule="evenodd" d="M42.152,56.627c0.805-0.844,1.609-1.687,2.413-2.53
		c0.167,0.165,0.334,0.329,0.501,0.494c-0.822,0.828-1.644,1.656-2.466,2.484C42.452,56.926,42.302,56.776,42.152,56.627z"/>
	<path fill-rule="evenodd" clip-rule="evenodd" d="M36.65,67.569c-0.059-1.546,1.755-1.847,1.654-3.347
		C39.035,65.095,38.066,66.832,36.65,67.569z"/>
	<path fill-rule="evenodd" clip-rule="evenodd" d="M114.864,57.25c1.056,0.696,1.997,1.316,2.937,1.935
		C116.447,59.74,115.535,59.187,114.864,57.25z"/>
	<path fill-rule="evenodd" clip-rule="evenodd" d="M80.183,106.557c-0.898,0.705-1.544,1.211-2.336,1.832
		C77.876,107.119,78.695,106.467,80.183,106.557z"/>
	<path fill-rule="evenodd" clip-rule="evenodd" d="M90.293,97.723c0.49-0.504,0.98-1.008,1.471-1.512
		c0.113,0.109,0.227,0.218,0.34,0.326c0.032,0.983-0.731,1.235-1.459,1.521C90.527,97.946,90.41,97.834,90.293,97.723z"/>
	<path fill-rule="evenodd" clip-rule="evenodd" d="M34.846,70.108c-0.235-0.907-0.235-0.907,1.315-2.516
		C36.41,68.227,36.41,68.227,34.846,70.108z"/>
	<path fill-rule="evenodd" clip-rule="evenodd" d="M83.43,96.548c-0.85,0.641-1.699,1.28-2.549,1.92
		c0.249-1.455,1.613-1.441,2.365-2.231C83.307,96.34,83.368,96.444,83.43,96.548z"/>
	<path fill-rule="evenodd" clip-rule="evenodd" d="M114.278,56.855c-0.581-0.458-1.071-0.845-1.738-1.371
		C113.898,55.292,114.271,55.621,114.278,56.855z"/>
	<path fill-rule="evenodd" clip-rule="evenodd" fill="#FFFFFF" d="M93.659,45.288c0-1.233-0.062-2.472,0.035-3.697
		c0.031-0.403,0.476-0.774,0.73-1.159c0.331,0.331,0.883,0.622,0.952,1.001c0.199,1.089,0.127,2.226,0.306,3.32
		c0.201,1.226,0.569,2.424,0.847,3.638c0.312,1.359,0.213,1.443-1.132,1.248c-0.551-0.08-1.501,0.118-1.603-0.11
		c-0.275-0.612-0.2-1.385-0.245-2.095c-0.022-0.357-0.013-0.717-0.002-1.075c0.012-0.357,0.044-0.715,0.066-1.072
		C93.629,45.288,93.645,45.288,93.659,45.288z"/>
	<path fill-rule="evenodd" clip-rule="evenodd" fill="#FFFFFF" d="M33.173,80.563c-0.453,0.796-0.906,1.591-1.439,2.528
		c0.323,0.226,0.72,0.504,1.244,0.871c-0.289,0.623-0.5,1.362-0.935,1.93c-0.374,0.488-1.063,0.549-1.303-0.181
		c-0.417-1.267-0.784-2.566-0.968-3.881c-0.041-0.291,0.72-0.786,1.193-1.032c0.595-0.312,1.273-0.463,1.916-0.684
		C32.978,80.265,33.076,80.414,33.173,80.563z"/>
	<path fill-rule="evenodd" clip-rule="evenodd" fill="#FFFFFF" d="M30.104,55.894c0.14-0.834-0.232-1.75,0.908-1.924
		c0.232-0.035,0.716,0.237,0.74,0.413C31.895,55.44,31.268,55.833,30.104,55.894z"/>
	<path fill-rule="evenodd" clip-rule="evenodd" fill="#FFFFFF" d="M123.899,83.547c-0.612,0.356-0.944,0.699-1.148,0.635
		c-0.322-0.1-0.701-0.439-0.778-0.747c-0.051-0.202,0.437-0.778,0.594-0.747C122.936,82.762,123.252,83.102,123.899,83.547z"/>
</g>
</svg>
