<?xml version="1.0" encoding="utf-8"?>
<!-- Generator: Adobe Illustrator 16.0.0, SVG Export Plug-In . SVG Version: 6.00 Build 0)  -->
<!DOCTYPE svg PUBLIC "-//W3C//DTD SVG 1.1//EN" "http://www.w3.org/Graphics/SVG/1.1/DTD/svg11.dtd">
<svg version="1.1" id="Layer_1" xmlns="http://www.w3.org/2000/svg" xmlns:xlink="http://www.w3.org/1999/xlink" x="0px" y="0px"
	 width="144px" height="144px" viewBox="0 0 144 144" enable-background="new 0 0 144 144" xml:space="preserve">
<g>
	<path fill="#FFFFFF" d="M75.179,41.222c-0.155-0.215-0.238-0.294-0.28-0.392c-2.027-4.7-4.141-9.366-8.895-12.007
		c-2.213-1.229-4.521-2.325-6.879-3.239c-1.208-0.468-2.628-0.377-3.944-0.585c-1.172-0.186-2.335-0.634-3.499-0.62
		c-2.973,0.035-5.948,0.206-8.913,0.441c-1.13,0.09-2.297,0.357-3.34,0.798c-3.34,1.41-5.743,4.078-8.439,6.379
		c-2.518,2.147-3.565,5.121-4.654,7.937c-1.166,3.017-1.238,6.401-0.708,9.654c0.573,3.514,1.193,7,2.671,10.331
		c2.255,5.083,4.812,9.981,8.132,14.425c2.041,2.732,4.372,5.263,6.715,7.75c2.622,2.784,5.543,5.298,8.022,8.195
		c0.653,0.764,1.187,1.562,1.943,2.305c0.645,0.633,1.359,1.394,1.988,2.144c1.203,1.436,2.418,2.861,3.64,4.281
		c3.759,4.37,6.447,9.389,8.61,14.673c1.321,3.228,2.225,6.624,3.38,9.922c0.471,1.345,1.061,2.653,1.69,3.933
		c0.368,0.748,0.893,1.391,1.843,0.53c0.176-0.159,0.662-0.087,0.956,0.018c0.777,0.276,1.21-0.21,1.117-0.766
		c-0.214-1.292,0.194-2.491,0.258-3.72c0.127-2.445,0.374-4.736,1.501-7.009c1.104-2.226,1.79-4.679,2.479-7.084
		c0.938-3.27,2.493-6.228,4.47-8.928c2.927-4,6.487-7.437,10.205-10.705c0.956-0.841,1.993-1.622,2.807-2.588
		c3.355-3.988,6.696-7.992,9.932-12.078c2.199-2.778,4.222-5.697,6.308-8.563c1.791-2.461,3.127-5.154,3.715-8.146
		c0.282-1.434,0.345-2.927,0.354-4.395c0.022-3.217,0.268-6.479-0.168-9.641c-0.535-3.879-2.489-7.243-5.373-9.959
		c-3.362-3.166-7.479-4.725-11.954-5.572c-6.407-1.213-12.378-0.541-17.568,3.776c-2.188,1.82-4.695,3.3-6.1,5.96
		C76.713,39.599,75.892,40.342,75.179,41.222z"/>
	<path fill-rule="evenodd" clip-rule="evenodd" d="M75.179,41.222c0.713-0.88,1.534-1.623,2.021-2.544
		c1.404-2.66,3.911-4.14,6.1-5.96c5.19-4.317,11.161-4.99,17.568-3.776c4.475,0.847,8.592,2.406,11.954,5.572
		c2.884,2.716,4.838,6.08,5.373,9.959c0.436,3.162,0.19,6.424,0.168,9.641c-0.01,1.467-0.072,2.96-0.354,4.395
		c-0.588,2.992-1.924,5.685-3.715,8.146c-2.086,2.867-4.108,5.785-6.308,8.563c-3.235,4.086-6.576,8.09-9.932,12.078
		c-0.813,0.966-1.851,1.747-2.807,2.588c-3.718,3.269-7.278,6.705-10.205,10.705c-1.977,2.7-3.532,5.658-4.47,8.928
		c-0.688,2.405-1.375,4.858-2.479,7.084c-1.127,2.272-1.374,4.563-1.501,7.009c-0.063,1.229-0.472,2.428-0.258,3.72
		c0.093,0.556-0.34,1.042-1.117,0.766c-0.294-0.104-0.78-0.177-0.956-0.018c-0.95,0.86-1.475,0.218-1.843-0.53
		c-0.629-1.279-1.219-2.588-1.69-3.933c-1.155-3.298-2.059-6.694-3.38-9.922c-2.163-5.284-4.852-10.303-8.61-14.673
		c-1.222-1.42-2.437-2.846-3.64-4.281c-0.628-0.75-1.343-1.511-1.988-2.144c-0.756-0.742-1.29-1.541-1.943-2.305
		c-2.479-2.897-5.401-5.411-8.022-8.195c-2.343-2.487-4.675-5.018-6.715-7.75c-3.319-4.444-5.877-9.343-8.132-14.425
		c-1.478-3.331-2.098-6.817-2.671-10.331c-0.53-3.253-0.458-6.638,0.708-9.654c1.088-2.816,2.136-5.79,4.654-7.937
		c2.696-2.301,5.099-4.969,8.439-6.379c1.043-0.44,2.209-0.708,3.34-0.798c2.965-0.235,5.94-0.406,8.913-0.441
		c1.164-0.014,2.327,0.435,3.499,0.62c1.316,0.208,2.736,0.117,3.944,0.585c2.358,0.914,4.666,2.01,6.879,3.239
		c4.753,2.641,6.867,7.308,8.895,12.007C74.94,40.927,75.023,41.007,75.179,41.222z M73.005,43.294
		c0.037-0.769,0.072-1.381,0.097-1.995c0.075-1.888-0.837-3.387-1.774-4.941c-1.407-2.332-3.03-4.445-5.45-5.732
		c-2.158-1.147-4.419-2.111-6.679-3.051c-1.422-0.591-2.897-1.13-4.401-1.434c-1.55-0.313-3.163-0.316-4.749-0.447
		c-2.851-0.236-5.642,0.104-8.323,1.077c-2.985,1.084-5.63,2.662-7.889,5.004c-2.957,3.066-5.449,6.371-5.838,10.697
		c-0.236,2.625,0.167,5.308,0.283,7.965c0.126-0.085,0.253-0.17,0.38-0.255c0.776,0.449,1.552,0.897,2.41,1.393
		c-0.53,0.716-1.033,1.397-1.662,2.248c0.991-0.095,1.647-0.157,2.288-0.218c-0.061,1.598-2.407,2.16-1.095,4.062
		c0.433-0.529,0.802-0.978,1.17-1.428c0.103,0.071,0.206,0.143,0.309,0.214c-0.492,0.793-0.984,1.586-1.64,2.641
		c1.216-0.361,2.153-0.64,3.09-0.919c0.095,0.114,0.189,0.228,0.284,0.341c-0.647,0.868-1.294,1.736-1.965,2.635
		c0.373,0.077,0.684,0.142,1.261,0.262c-0.914,0.566-1.756,1.056-0.571,2.014c0.775-0.677,1.541-1.347,2.307-2.016
		c0.089,0.09,0.177,0.18,0.266,0.27c-0.752,0.866-1.504,1.731-2.256,2.597c0.065,0.065,0.131,0.13,0.196,0.195
		c0.576-0.249,1.151-0.497,1.896-0.818c0,0.626,0,1.021,0,1.493c0.264-0.089,0.407-0.16,0.559-0.185
		c0.542-0.089,1.087-0.162,1.631-0.241c-0.18,0.567-0.341,1.141-0.55,1.698c-0.065,0.174-0.269,0.292-0.386,0.452
		c-0.25,0.342-0.486,0.694-0.728,1.042c0.463,0.067,0.685-0.08,0.926-0.175c0.268-0.106,0.555-0.166,0.833-0.246
		c-0.033,0.28-0.017,0.578-0.109,0.836c-0.201,0.562-0.458,1.104-0.692,1.655c0.08,0.079,0.16,0.158,0.239,0.236
		c0.759-0.296,1.517-0.599,2.28-0.885c0.318-0.119,0.649-0.202,0.975-0.302c0.07,0.349,0.14,0.697,0.217,1.084
		c0.337-0.036,0.707-0.075,1.141-0.121c0.053,0.406,0.097,0.736,0.146,1.112c0.194-0.027,0.346-0.072,0.494-0.064
		c0.405,0.021,0.81,0.064,1.214,0.099c-0.07,0.363-0.054,0.776-0.229,1.078c-0.337,0.576-0.793,1.082-1.181,1.631
		c-0.49,0.692-0.961,1.398-1.44,2.099c0.084,0.065,0.168,0.132,0.251,0.198c0.683-0.392,1.365-0.782,2.048-1.174
		c-0.182,0.662-0.548,1.027-0.821,1.451c-0.197,0.306-0.271,0.691-0.399,1.04c0.389-0.104,0.872-0.099,1.151-0.334
		c1.267-1.062,2.477-2.194,3.651-3.249c0.776,2.619-1.514,4.033-2.256,6.176c0.482-0.006,0.907-0.092,1.261-0.299
		c1.06-0.623,2.08-1.314,3.146-1.925c0.212-0.122,0.56-0.005,0.845,0.001c-0.044,0.257-0.014,0.562-0.145,0.761
		c-0.539,0.814-1.127,1.596-1.86,2.617c1.237-0.146,2.233-0.264,3.53-0.416c-0.52,1.049-0.875,1.765-1.295,2.613
		c0.478,0,0.82-0.021,1.16,0.006c0.323,0.024,0.821-0.001,0.918,0.175c0.132,0.235,0.02,0.674-0.108,0.974
		c-0.245,0.573-0.575,1.111-0.899,1.72c0.402,0.142,0.736,0.259,1.139,0.4c-0.311,0.354-0.538,0.613-1.039,1.184
		c0.883,0.048,1.46,0.078,1.913,0.103c0.069,0.4,0.147,0.854,0.225,1.307c0.17,0.056,0.34,0.112,0.509,0.168
		c0.218-0.407,0.437-0.814,0.751-1.401c0.26,1.235,0.446,2.122,0.676,3.216c0.575-0.447,1.008-0.785,1.441-1.122
		c0.054,0.036,0.107,0.072,0.161,0.108c-0.231,0.562-0.462,1.126-0.71,1.729c0.828-0.103,1.473-0.183,2.117-0.264
		c0.053,0.681,0.105,1.36,0.151,1.957c0.706-0.262,1.371-0.509,2.036-0.756c0.067,0.137,0.134,0.273,0.201,0.41
		c-0.694,0.54-1.387,1.081-2.082,1.623c0.433,0.691,0.824,1.315,1.397,2.23c0.713-1.441,1.31-2.647,1.906-3.854
		c0.088,0.004,0.176,0.008,0.264,0.011c-0.114,0.767-0.228,1.532-0.356,2.397c1.275-0.111,1.891,0.353,1.715,1.705
		c-0.033,0.256,0.587,0.721,0.989,0.889c1.562,0.647,1.743,0.994,1.49,2.687c-0.106,0.707,0.016,1.448,0.038,2.325
		c-0.78,0.318-1.22,0.052-1.038-1.023c0.118-0.701,0.442-1.38,0.481-2.079c0.02-0.363-0.346-1.048-0.595-1.076
		c-1.573-0.179-2.777-0.586-2.203-2.913c-0.601,0.457-0.887,0.698-1.197,0.904c-0.318,0.211-0.659,0.387-1.134,0.662
		c6.203,7.527,9.704,16.575,15.115,24.574c0-0.837,0-1.674,0-2.562c-1.236-0.645-1.48-1.384-0.813-3.607
		c0.278,0.868,0.558,1.737,0.836,2.605c0.11-0.026,0.22-0.052,0.329-0.078c0.045-0.3,0.092-0.599,0.133-0.899
		c0.343-2.518,0.495-5.08,1.073-7.543c0.75-3.193,2.357-6.078,3.894-8.966c0.304-0.571,0.342-1.362,0.771-1.773
		c1.901-1.826,3.77-3.632,3.916-6.628c0.292,0.337,0.526,0.606,0.861,0.993c0.2-0.373,0.367-0.627,0.479-0.903
		c0.431-1.066,0.754-2.188,1.289-3.198c0.688-1.302,1.136-1.326,2.134-0.404c0.86-1.183,1.669-2.415,2.618-3.527
		c0.281-0.331,0.956-0.328,1.451-0.477c0.43-0.129,0.992-0.125,1.267-0.405c1.228-1.253,2.444-2.528,3.533-3.901
		c3.217-4.054,7.055-7.59,9.73-12.104c2.293-3.87,4.565-7.713,5.989-12.016c1.163-3.513,1.159-6.867-0.741-10.133
		c-0.558-0.958-1.079-1.952-1.487-2.98c-1.657-4.173-4.506-7.366-8.142-9.878c-4.72-3.26-10.031-3.241-15.291-2.125
		c-4.248,0.902-7.438,3.728-9.921,7.244c-1.205,1.706-2.221,3.546-3.324,5.33C74.572,44.046,73.708,43.631,73.005,43.294z
		 M115.65,48.625c0.111-0.024,0.224-0.047,0.336-0.071c0.033-0.36,0.129-0.726,0.089-1.077c-0.356-3.101-1.295-6.04-2.527-8.893
		c-0.96-2.222-2.504-3.915-4.521-5.254c-2.893-1.92-6.09-2.84-9.496-3.155c-0.195-0.018-0.413,0.217-0.621,0.334
		c0.201,0.142,0.382,0.333,0.604,0.419c2.29,0.893,4.679,1.622,6.509,3.366c1.605,1.53,3.145,3.133,4.651,4.761
		c0.526,0.568,0.94,1.27,1.284,1.971c1.096,2.239,2.132,4.508,3.199,6.762C115.296,48.079,115.484,48.346,115.65,48.625z
		 M114.114,64.43c0.404-0.26,0.713-0.347,0.808-0.54c0.525-1.067,1.07-2.135,1.478-3.25c1.036-2.842,1.077-5.832,1.138-8.807
		c0.007-0.305-0.254-0.615-0.39-0.923c-0.135,0.292-0.338,0.57-0.392,0.876c-0.353,1.979-0.611,3.976-1.021,5.941
		C115.287,59.876,114.709,61.998,114.114,64.43z M81.279,103.987c-0.082-0.084-0.163-0.168-0.244-0.252
		c-0.237,0.188-0.582,0.328-0.693,0.574c-0.37,0.823-0.684,1.677-0.969,2.536c-0.198,0.597-0.158,1.33-0.495,1.813
		c-1.229,1.765-1.562,3.793-1.922,5.822c-0.035,0.2,0.128,0.436,0.198,0.654c0.082-0.004,0.165-0.008,0.247-0.013
		C78.694,111.411,79.986,107.699,81.279,103.987z M82.199,102.27c2.556-3.06,5.111-6.119,7.667-9.179
		c-0.1-0.081-0.199-0.162-0.299-0.244C86.9,95.816,83.051,97.815,82.199,102.27z M112.908,64.083
		c-0.107-0.062-0.215-0.124-0.322-0.186c-1.876,3.06-3.752,6.119-5.627,9.178C110.101,70.803,112.13,67.835,112.908,64.083z
		 M71.283,120.286c0.953,1.775,0.854,3.954,2.183,5.688C74.211,124.75,72.607,120.631,71.283,120.286z M42.014,72.282
		c-0.005-0.133-0.011-0.267-0.017-0.4c-0.432,0.098-0.923,0.098-1.28,0.318c-0.427,0.263-0.7,0.767-1.11,1.07
		c-0.983,0.728-0.604,1.258,0.225,1.886C40.586,74.163,41.3,73.223,42.014,72.282z M49.209,81.886
		c-0.118-0.109-0.235-0.22-0.353-0.329c-0.847,0.38-1.694,0.76-2.682,1.203c0.498,0.571,0.749,0.941,1.082,1.208
		c0.166,0.132,0.645,0.18,0.706,0.086C48.417,83.356,48.802,82.614,49.209,81.886z M48.178,85.228
		c0.614,0.354,1.246,0.801,1.303,0.736c0.421-0.473,0.729-1.049,1.071-1.592c-0.094-0.068-0.188-0.138-0.282-0.206
		C49.7,84.456,49.128,84.745,48.178,85.228z M36.227,65.786c-1.441,0.081-2.002,0.62-1.995,1.831
		C34.886,67.018,35.438,66.511,36.227,65.786z M46.782,80.251c-0.066-0.103-0.132-0.203-0.198-0.306
		c-0.474,0.288-0.974,0.543-1.406,0.885c-0.121,0.096-0.041,0.445-0.053,0.678c0.236-0.032,0.55,0.02,0.693-0.113
		C46.181,81.058,46.466,80.638,46.782,80.251z M87.887,91.805c0.432-0.592,0.796-1.086,1.135-1.597
		c0.009-0.014-0.266-0.215-0.408-0.328c-0.314,0.489-0.632,0.977-0.937,1.473C87.655,91.388,87.734,91.483,87.887,91.805z"/>
	<path fill-rule="evenodd" clip-rule="evenodd" fill="#FFFFFF" d="M73.005,43.294c0.703,0.337,1.567,0.751,2.409,1.154
		c1.104-1.784,2.119-3.624,3.324-5.33c2.483-3.516,5.673-6.342,9.921-7.244C93.919,30.759,99.23,30.74,103.95,34
		c3.636,2.512,6.484,5.705,8.142,9.878c0.408,1.028,0.93,2.021,1.487,2.98c1.9,3.266,1.904,6.62,0.741,10.133
		c-1.424,4.303-3.696,8.146-5.989,12.016c-2.676,4.514-6.514,8.05-9.73,12.104c-1.089,1.373-2.306,2.648-3.533,3.901
		c-0.274,0.28-0.837,0.276-1.267,0.405c-0.495,0.148-1.17,0.146-1.451,0.477c-0.949,1.112-1.758,2.345-2.618,3.527
		c-0.998-0.922-1.445-0.897-2.134,0.404c-0.535,1.01-0.858,2.132-1.289,3.198c-0.112,0.276-0.279,0.53-0.479,0.903
		c-0.335-0.387-0.569-0.656-0.861-0.993c-0.146,2.996-2.015,4.802-3.916,6.628c-0.429,0.411-0.467,1.202-0.771,1.773
		c-1.536,2.888-3.144,5.772-3.894,8.966c-0.578,2.463-0.73,5.025-1.073,7.543c-0.041,0.301-0.088,0.6-0.133,0.899
		c-0.109,0.026-0.219,0.052-0.329,0.078c-0.278-0.868-0.558-1.737-0.836-2.605c-0.667,2.224-0.423,2.963,0.813,3.607
		c0,0.889,0,1.726,0,2.562c-5.411-7.999-8.913-17.047-15.115-24.574c0.475-0.275,0.816-0.451,1.134-0.662
		c0.31-0.206,0.596-0.447,1.197-0.904c-0.574,2.327,0.63,2.734,2.203,2.913c0.249,0.028,0.615,0.713,0.595,1.076
		c-0.039,0.699-0.363,1.378-0.481,2.079c-0.182,1.075,0.258,1.342,1.038,1.023c-0.022-0.877-0.144-1.618-0.038-2.325
		c0.253-1.692,0.072-2.039-1.49-2.687c-0.402-0.168-1.022-0.633-0.989-0.889c0.175-1.353-0.44-1.816-1.715-1.705
		c0.129-0.865,0.243-1.631,0.356-2.397c-0.088-0.003-0.176-0.007-0.264-0.011c-0.596,1.206-1.193,2.412-1.906,3.854
		c-0.573-0.915-0.964-1.539-1.397-2.23c0.694-0.542,1.388-1.083,2.082-1.623c-0.067-0.137-0.134-0.273-0.201-0.41
		c-0.665,0.247-1.331,0.494-2.036,0.756c-0.046-0.597-0.099-1.276-0.151-1.957c-0.645,0.081-1.289,0.161-2.117,0.264
		c0.248-0.604,0.479-1.167,0.71-1.729c-0.054-0.036-0.107-0.072-0.161-0.108c-0.433,0.337-0.867,0.675-1.441,1.122
		c-0.23-1.094-0.417-1.98-0.676-3.216c-0.314,0.587-0.533,0.994-0.751,1.401c-0.169-0.056-0.339-0.112-0.509-0.168
		c-0.078-0.453-0.156-0.906-0.225-1.307c-0.453-0.024-1.029-0.055-1.913-0.103c0.501-0.57,0.729-0.83,1.039-1.184
		c-0.403-0.142-0.736-0.259-1.139-0.4c0.324-0.608,0.654-1.146,0.899-1.72c0.128-0.3,0.24-0.738,0.108-0.974
		c-0.098-0.176-0.596-0.15-0.918-0.175c-0.34-0.026-0.683-0.006-1.16-0.006c0.421-0.849,0.775-1.564,1.295-2.613
		c-1.296,0.152-2.293,0.271-3.53,0.416c0.733-1.021,1.322-1.803,1.86-2.617c0.131-0.198,0.101-0.504,0.145-0.761
		c-0.285-0.006-0.633-0.123-0.845-0.001c-1.066,0.61-2.086,1.302-3.146,1.925c-0.354,0.207-0.779,0.293-1.261,0.299
		c0.742-2.143,3.032-3.557,2.256-6.176c-1.174,1.055-2.384,2.187-3.651,3.249c-0.28,0.235-0.762,0.229-1.151,0.334
		c0.128-0.349,0.202-0.734,0.399-1.04c0.273-0.424,0.639-0.789,0.821-1.451c-0.683,0.392-1.365,0.782-2.048,1.174
		c-0.083-0.066-0.167-0.133-0.251-0.198c0.479-0.7,0.951-1.406,1.44-2.099c0.388-0.549,0.844-1.055,1.181-1.631
		c0.176-0.302,0.159-0.715,0.229-1.078c-0.405-0.035-0.809-0.078-1.214-0.099c-0.148-0.008-0.3,0.037-0.494,0.064
		c-0.05-0.376-0.093-0.707-0.146-1.112c-0.435,0.046-0.804,0.085-1.141,0.121c-0.078-0.387-0.147-0.735-0.217-1.084
		c-0.325,0.1-0.657,0.183-0.975,0.302c-0.763,0.286-1.521,0.589-2.28,0.885c-0.08-0.079-0.159-0.158-0.239-0.236
		c0.234-0.551,0.491-1.093,0.692-1.655c0.093-0.258,0.076-0.556,0.109-0.836c-0.278,0.08-0.565,0.14-0.833,0.246
		c-0.241,0.096-0.463,0.242-0.926,0.175c0.242-0.348,0.477-0.7,0.728-1.042c0.118-0.16,0.321-0.278,0.386-0.452
		c0.208-0.557,0.37-1.13,0.55-1.698c-0.544,0.079-1.089,0.152-1.631,0.241c-0.151,0.025-0.295,0.096-0.559,0.185
		c0-0.472,0-0.867,0-1.493c-0.744,0.321-1.32,0.57-1.896,0.818c-0.065-0.065-0.131-0.13-0.196-0.195
		c0.752-0.866,1.504-1.731,2.256-2.597c-0.089-0.09-0.177-0.18-0.266-0.27c-0.766,0.669-1.532,1.339-2.307,2.016
		c-1.185-0.958-0.343-1.448,0.571-2.014c-0.577-0.12-0.889-0.185-1.261-0.262c0.671-0.899,1.318-1.767,1.965-2.635
		c-0.095-0.113-0.189-0.227-0.284-0.341c-0.937,0.279-1.875,0.558-3.09,0.919c0.655-1.055,1.147-1.848,1.64-2.641
		c-0.103-0.071-0.206-0.143-0.309-0.214c-0.369,0.45-0.737,0.899-1.17,1.428c-1.312-1.902,1.034-2.464,1.095-4.062
		c-0.641,0.061-1.297,0.124-2.288,0.218c0.629-0.851,1.132-1.531,1.662-2.248c-0.858-0.496-1.634-0.944-2.41-1.393
		c-0.126,0.085-0.253,0.169-0.38,0.255c-0.116-2.657-0.52-5.34-0.283-7.965c0.39-4.326,2.881-7.631,5.838-10.697
		c2.259-2.342,4.904-3.92,7.889-5.004c2.681-0.974,5.472-1.313,8.323-1.077c1.586,0.131,3.199,0.134,4.749,0.447
		c1.503,0.304,2.979,0.842,4.401,1.434c2.26,0.939,4.521,1.903,6.679,3.051c2.42,1.287,4.043,3.401,5.45,5.732
		c0.938,1.554,1.85,3.053,1.774,4.941C73.077,41.913,73.042,42.526,73.005,43.294z M47.606,31.936
		c-0.601-0.202-1.423-0.734-2.211-0.688c-1.325,0.078-2.686,0.372-3.929,0.845c-2.268,0.866-4.479,1.888-6.036,3.905
		c-0.536,0.694-0.81,1.171,0.327,1.533c0.628,0.2,1.196,0.631,1.749,1.018c0.78,0.546,1.235,0.502,1.787-0.414
		c1.573-2.609,3.769-4.162,7.021-3.635c0.603,0.098,1.234,0.014,1.892,0.014C47.971,33.504,47.813,32.827,47.606,31.936z
		 M71.495,109.522c-0.375,0.929-0.15,2.516,0.527,3.052c0.2,0.159,0.55,0.13,0.831,0.188c0.034-0.216,0.168-0.482,0.088-0.639
		C72.48,111.229,71.969,110.362,71.495,109.522z M70.52,107.243c-0.826-0.054-1.652-0.107-2.739-0.179
		C68.799,108.038,69.608,108.365,70.52,107.243z"/>
	<path fill-rule="evenodd" clip-rule="evenodd" fill="#FFFFFF" d="M115.65,48.625c-0.166-0.279-0.354-0.546-0.493-0.837
		c-1.067-2.253-2.104-4.522-3.199-6.762c-0.344-0.701-0.758-1.403-1.284-1.971c-1.507-1.628-3.046-3.231-4.651-4.761
		c-1.83-1.744-4.219-2.473-6.509-3.366c-0.223-0.086-0.403-0.277-0.604-0.419c0.208-0.117,0.426-0.352,0.621-0.334
		c3.406,0.315,6.604,1.235,9.496,3.155c2.018,1.34,3.562,3.033,4.521,5.254c1.232,2.853,2.171,5.792,2.527,8.893
		c0.04,0.351-0.056,0.717-0.089,1.077C115.874,48.578,115.762,48.601,115.65,48.625z"/>
	<path fill-rule="evenodd" clip-rule="evenodd" fill="#FFFFFF" d="M114.114,64.43c0.595-2.432,1.173-4.553,1.62-6.702
		c0.41-1.966,0.669-3.963,1.021-5.941c0.054-0.306,0.257-0.584,0.392-0.876c0.136,0.308,0.396,0.619,0.39,0.923
		c-0.061,2.975-0.102,5.964-1.138,8.807c-0.407,1.115-0.952,2.182-1.478,3.25C114.827,64.083,114.519,64.169,114.114,64.43z"/>
	<path fill-rule="evenodd" clip-rule="evenodd" fill="#FFFFFF" d="M81.279,103.987c-1.293,3.712-2.585,7.424-3.878,11.136
		c-0.082,0.005-0.165,0.009-0.247,0.013c-0.07-0.219-0.233-0.454-0.198-0.654c0.359-2.029,0.692-4.058,1.922-5.822
		c0.337-0.483,0.297-1.217,0.495-1.813c0.285-0.859,0.599-1.713,0.969-2.536c0.111-0.246,0.456-0.386,0.693-0.574
		C81.116,103.819,81.197,103.903,81.279,103.987z"/>
	<path fill-rule="evenodd" clip-rule="evenodd" fill="#FFFFFF" d="M82.199,102.27c0.852-4.454,4.701-6.453,7.368-9.423
		c0.1,0.082,0.199,0.163,0.299,0.244C87.311,96.15,84.755,99.21,82.199,102.27z"/>
	<path fill-rule="evenodd" clip-rule="evenodd" fill="#FFFFFF" d="M112.908,64.083c-0.778,3.752-2.808,6.72-5.949,8.992
		c1.875-3.06,3.751-6.119,5.627-9.178C112.693,63.959,112.801,64.021,112.908,64.083z"/>
	<path fill-rule="evenodd" clip-rule="evenodd" fill="#FFFFFF" d="M71.283,120.286c1.324,0.345,2.928,4.464,2.183,5.688
		C72.138,124.24,72.236,122.062,71.283,120.286z"/>
	<path fill-rule="evenodd" clip-rule="evenodd" fill="#FFFFFF" d="M42.014,72.282c-0.714,0.94-1.428,1.881-2.182,2.874
		c-0.829-0.628-1.208-1.158-0.225-1.886c0.41-0.304,0.683-0.808,1.11-1.07c0.357-0.22,0.848-0.22,1.28-0.318
		C42.003,72.016,42.009,72.149,42.014,72.282z"/>
	<path fill-rule="evenodd" clip-rule="evenodd" fill="#FFFFFF" d="M49.209,81.886c-0.407,0.729-0.792,1.471-1.247,2.168
		c-0.061,0.094-0.54,0.046-0.706-0.086c-0.333-0.267-0.584-0.637-1.082-1.208c0.987-0.443,1.834-0.823,2.682-1.203
		C48.974,81.666,49.091,81.776,49.209,81.886z"/>
	<path fill-rule="evenodd" clip-rule="evenodd" fill="#FFFFFF" d="M48.178,85.228c0.951-0.482,1.522-0.771,2.093-1.062
		c0.094,0.068,0.188,0.138,0.282,0.206c-0.343,0.543-0.65,1.119-1.071,1.592C49.424,86.028,48.792,85.581,48.178,85.228z"/>
	<path fill-rule="evenodd" clip-rule="evenodd" fill="#FFFFFF" d="M36.227,65.786c-0.789,0.725-1.341,1.231-1.995,1.831
		C34.224,66.406,34.786,65.867,36.227,65.786z"/>
	<path fill-rule="evenodd" clip-rule="evenodd" fill="#FFFFFF" d="M46.782,80.251c-0.316,0.387-0.602,0.807-0.964,1.144
		c-0.143,0.133-0.458,0.081-0.693,0.113c0.012-0.232-0.068-0.582,0.053-0.678c0.432-0.342,0.932-0.597,1.406-0.885
		C46.65,80.048,46.716,80.148,46.782,80.251z"/>
	<path fill-rule="evenodd" clip-rule="evenodd" fill="#FFFFFF" d="M87.887,91.805c-0.152-0.321-0.231-0.417-0.21-0.452
		c0.305-0.496,0.622-0.983,0.937-1.473c0.143,0.113,0.417,0.314,0.408,0.328C88.683,90.719,88.318,91.213,87.887,91.805z"/>
	<path fill-rule="evenodd" clip-rule="evenodd" d="M47.606,31.936c0.207,0.892,0.365,1.569,0.6,2.578
		c-0.657,0-1.289,0.084-1.892-0.014c-3.253-0.527-5.449,1.026-7.021,3.635c-0.552,0.916-1.007,0.96-1.787,0.414
		c-0.553-0.387-1.121-0.817-1.749-1.018c-1.136-0.362-0.863-0.839-0.327-1.533c1.557-2.017,3.768-3.039,6.036-3.905
		c1.243-0.474,2.604-0.768,3.929-0.845C46.183,31.201,47.005,31.733,47.606,31.936z M44.887,31.996
		c-2.935,0.344-5.469,1.684-7.76,3.517c-0.285,0.228-0.529,0.993-0.375,1.2c0.665,0.898,1.528,0.992,2.024,0.3
		c1.669-2.325,3.879-3.546,6.771-3.518c0.215,0.002,0.611-0.322,0.61-0.493c-0.001-0.281-0.201-0.628-0.426-0.819
		C45.545,32.027,45.202,32.057,44.887,31.996z"/>
	<path fill-rule="evenodd" clip-rule="evenodd" d="M71.495,109.522c0.474,0.84,0.985,1.707,1.446,2.601
		c0.08,0.156-0.054,0.423-0.088,0.639c-0.281-0.058-0.631-0.028-0.831-0.188C71.345,112.038,71.121,110.451,71.495,109.522z"/>
	<path fill-rule="evenodd" clip-rule="evenodd" d="M70.52,107.243c-0.912,1.122-1.721,0.795-2.739-0.179
		C68.868,107.136,69.694,107.189,70.52,107.243z"/>
	<path fill-rule="evenodd" clip-rule="evenodd" fill="#FFFFFF" d="M44.887,31.996c0.315,0.061,0.658,0.031,0.843,0.188
		c0.225,0.19,0.425,0.538,0.426,0.819c0.001,0.171-0.395,0.495-0.61,0.493c-2.891-0.028-5.102,1.193-6.771,3.518
		c-0.496,0.691-1.36,0.598-2.024-0.3c-0.154-0.208,0.09-0.972,0.375-1.2C39.417,33.68,41.952,32.34,44.887,31.996z"/>
</g>
</svg>
