<?xml version="1.0" encoding="utf-8"?>
<!-- Generator: Adobe Illustrator 16.0.0, SVG Export Plug-In . SVG Version: 6.00 Build 0)  -->
<!DOCTYPE svg PUBLIC "-//W3C//DTD SVG 1.1//EN" "http://www.w3.org/Graphics/SVG/1.1/DTD/svg11.dtd">
<svg version="1.1" id="Layer_1" xmlns="http://www.w3.org/2000/svg" xmlns:xlink="http://www.w3.org/1999/xlink" x="0px" y="0px"
	 width="144px" height="144px" viewBox="0 0 144 144" enable-background="new 0 0 144 144" xml:space="preserve">
<g>
	<path fill="#FFFFFF" d="M14.427,84.718c0.611-0.779,1.229-1.518,1.789-2.298c0.47-0.653,0.924-1.236,1.912-0.67
		c0.353-1.737,2.591-2.096,2.633-3.988c0.001-0.051,0.118-0.099,0.179-0.15c2.049-1.714,4.056-3.483,6.16-5.127
		c1.989-1.554,4.068-2.994,6.14-4.438c0.277-0.193,0.76-0.208,1.108-0.13c0.142,0.032,0.236,0.529,0.253,0.82
		c0.139,2.336,0.215,4.678,0.388,7.011c0.188,2.531,0.434,5.058,0.704,7.581c0.121,1.133,0.345,2.256,0.555,3.377
		c0.478,2.553,0.969,5.103,1.467,7.651c0.529,2.708,1.071,5.413,1.611,8.118c0.5,2.509,1.039,5.011,1.493,7.527
		c0.238,1.324,0.235,2.694,0.52,4.005c0.223,1.023-0.052,1.396-1.053,1.483c-1.812,0.16-3.614,0.502-5.427,0.562
		c-1.856,0.061-3.721-0.188-5.581-0.181c-1.008,0.005-2.482-0.089-2.915,0.487c-0.701,0.932-1.563,0.865-2.375,1.157
		c-0.741,0.266-1.525,0.411-2.576,0.685c1.224,1.008,2.276,0.638,3.289,0.497c1.957-0.271,3.903-0.67,5.869-0.819
		c3.098-0.236,6.213-0.247,9.312-0.473c3.313-0.241,6.61-0.755,9.925-0.91c4.677-0.219,9.364-0.241,14.047-0.298
		c1.502-0.019,3.007,0.189,4.51,0.175c2.268-0.021,4.537-0.226,6.803-0.21c3.875,0.027,7.748,0.189,11.623,0.243
		c1.061,0.015,2.125-0.232,3.186-0.222c1.92,0.019,3.839,0.203,5.758,0.2c1.713-0.004,3.427-0.249,5.14-0.241
		c2.167,0.01,4.332,0.211,6.5,0.249c2.805,0.048,5.61,0.014,8.415,0.021c3.319,0.009,6.639,0.012,9.958,0.045
		c0.463,0.005,0.951,0.099,1.377,0.274c0.254,0.105,0.407,0.453,0.606,0.691c-0.245,0.143-0.483,0.395-0.737,0.411
		c-4.083,0.263-8.167,0.493-12.251,0.74c-0.393,0.024-0.779,0.141-1.173,0.167c-2.095,0.141-4.189,0.305-6.287,0.381
		c-1.031,0.037-2.068-0.152-3.103-0.147c-5.262,0.02-10.522,0.069-15.782,0.109c-0.187,0.002-0.372,0.025-0.558,0.026
		c-3.047,0.016-6.095,0.039-9.142,0.038c-1.004-0.001-2.011-0.128-3.013-0.087c-2.9,0.118-5.796,0.352-8.697,0.432
		c-4.25,0.117-8.507,0.053-12.754,0.229c-4.277,0.178-8.544,0.572-12.818,0.841c-2.298,0.144-4.599,0.267-6.9,0.316
		c-3.174,0.069-6.349,0.062-9.524,0.08c-0.237,0.002-0.526,0.028-0.704-0.089c-0.987-0.652-1.782-0.054-2.742,0.308
		c0.526,1.005,1.372,1.122,2.247,1.102c4.982-0.121,9.964-0.26,14.947-0.394c0.12-0.004,0.24-0.014,0.359-0.024
		c3.265-0.317,6.525-0.722,9.797-0.928c3.435-0.215,6.881-0.25,10.323-0.345c4.986-0.137,9.971-0.304,14.958-0.374
		c9.983-0.142,19.968-0.207,29.95-0.346c3.704-0.051,7.408-0.202,11.11-0.339c2.504-0.093,5.006-0.227,7.508-0.368
		c1.664-0.094,3.344-0.118,4.982-0.381c1.864-0.299,3.683-0.521,5.529,0.055c0.322,0.101,0.723-0.053,1.154-0.096
		c-1.188-2.049-2.774-3.765-2.363-6.239c0.032-0.197-0.096-0.571-0.238-0.624c-1.156-0.432-2.335-1.141-3.505-1.136
		c-3.656,0.013-7.277,0.733-10.96,0.664c-3.063-0.058-6.133,0.131-9.198,0.253c-0.876,0.035-1.336-0.228-1.442-1.152
		c-0.185-1.607-0.441-3.206-0.683-4.807c-0.307-2.025-0.671-4.043-0.932-6.074c-0.303-2.36-0.494-4.735-0.78-7.099
		c-0.404-3.332-0.895-6.654-1.267-9.989c-0.284-2.555-0.544-5.121-0.633-7.688c-0.123-3.556-0.091-7.117-0.068-10.675
		c0.002-0.27,0.462-0.537,0.709-0.805c0.229,0.288,0.62,0.557,0.655,0.868c0.094,0.815,0.031,1.647,0.031,2.589
		c2.356-0.341,1.516,1.217,1.372,2.364c0.984,0,1.805,0,2.597,0c0.438,1.487,0.444,1.46,1.93,1.777
		c0.354,0.076,0.723,0.331,0.975,0.605c1.897,2.061,3.711,4.2,5.656,6.214c3.211,3.322,6.511,6.56,9.742,9.863
		c0.328,0.336,0.595,0.873,0.622,1.333c0.046,0.765,0.346,1.025,1.074,1.127c0.451,0.063,1.233,0.433,1.229,0.649
		c-0.036,1.443,0.824,2.041,1.98,2.48c0.449,0.171,0.864,0.431,1.295,0.649c0.065-0.571,0.172-1.142,0.179-1.714
		c0.004-0.303-0.203-0.602-0.252-0.912c-0.122-0.774-0.033-1.356,0.931-1.628c0.584-0.164,1.05-0.748,1.764-1.293
		c-0.609-0.373-1.007-0.591-1.375-0.851c-0.237-0.168-0.638-0.431-0.61-0.593c0.163-0.989-0.557-1.487-1.046-2.122
		c-0.727-0.943-1.416-1.917-2.167-2.839c-1.286-1.578-2.127-3.488-3.836-4.765c-0.836-0.624-1.286-1.614-0.634-2.757
		c0.113-0.198,0.005-0.666-0.17-0.848c-0.168-0.175-0.633-0.281-0.831-0.171c-0.682,0.377-1.409,0.502-1.812-0.17
		c-0.324-0.541-0.271-1.308-0.39-1.974c-0.062-0.349-0.037-0.778-0.235-1.019c-0.144-0.174-0.593-0.139-0.901-0.125
		c-0.528,0.024-1.054,0.105-1.613,0.167c-0.059-0.366-0.155-0.576-0.111-0.75c0.354-1.386-0.298-1.706-1.562-1.74
		c-0.499-0.014-1.025-0.597-1.457-1.008c-0.304-0.29-0.425-0.762-0.701-1.091c-1.236-1.474-2.547-2.888-3.74-4.396
		c-1.95-2.464-3.821-4.99-5.744-7.477c-0.768-0.994-1.608-1.933-2.372-2.93c-1.246-1.627-2.5-3.25-3.67-4.932
		c-1.15-1.653-2.527-3.104-3.819-4.635c-1.662-1.968-3.131-4.099-4.686-6.158c-0.047-0.062-0.114-0.111-0.179-0.156
		c-1.824-1.286-2.735-3.331-4.121-4.983c-0.927-1.104-1.684-2.35-2.573-3.488c-0.228-0.291-0.67-0.415-1.198-0.722
		c-0.029,0.61-0.121,0.972-0.051,1.298c0.273,1.258-0.295,1.564-1.419,1.38c-0.605-0.099-1.112-0.054-1.494,0.638
		c-0.306,0.553-0.921,0.939-1.411,1.385c-0.629,0.574-1.224,0.465-1.765-0.133c-0.21-0.231-0.366-0.514-0.593-0.724
		c-0.875-0.81-0.778-1.289,0.297-1.819c0.899-0.444,1.738-1.007,2.627-1.476c1.075-0.568,2.127-1.249,3.275-1.586
		c0.972-0.286,1.255-0.695,1.033-1.592c-1.842-0.826-1.876-0.814-2.65,0.774c-0.063,0.131-0.174,0.27-0.299,0.334
		c-1.214,0.63-2.524,1.12-3.635,1.896c-1.558,1.089-3.687,1.573-4.31,3.763c-0.044,0.156-0.398,0.21-0.587,0.342
		c-1.384,0.961-2.812,1.869-4.13,2.913c-1.248,0.988-2.325,2.19-3.574,3.176c-2.237,1.765-4.534,3.456-6.831,5.144
		c-3.278,2.408-6.555,4.817-9.876,7.164c-2.479,1.751-5.051,3.371-7.534,5.117c-1.222,0.86-2.333,1.878-3.501,2.815
		c-2.344,1.88-4.697,3.75-7.039,5.632c-1.008,0.811-1.97,1.683-3.008,2.453c-1.714,1.27-3.49,2.457-5.209,3.719
		c-1.38,1.013-2.686,2.126-4.078,3.121c-1.809,1.292-3.674,2.505-5.506,3.764c-0.193,0.133-0.443,0.327-0.473,0.522
		c-0.076,0.487-0.04,0.99-0.049,1.487c0.404-0.117,0.829-0.188,1.207-0.363c0.632-0.293,1.375-0.638,1.714,0.182
		c0.806,1.949,1.31,3.97-0.479,5.71C13.185,83.574,13.393,84.058,14.427,84.718z"/>
	<path fill-rule="evenodd" clip-rule="evenodd" d="M14.427,84.718c-1.035-0.66-1.242-1.144-0.497-1.869
		c1.789-1.74,1.285-3.761,0.479-5.71c-0.339-0.819-1.082-0.475-1.714-0.182c-0.377,0.175-0.803,0.246-1.207,0.363
		c0.009-0.497-0.027-1,0.049-1.487c0.03-0.195,0.28-0.39,0.473-0.522c1.833-1.259,3.697-2.472,5.506-3.764
		c1.392-0.994,2.698-2.108,4.078-3.121c1.72-1.262,3.495-2.45,5.209-3.719c1.038-0.77,2-1.642,3.008-2.453
		c2.342-1.882,4.695-3.751,7.039-5.632c1.168-0.937,2.279-1.956,3.501-2.815c2.483-1.746,5.055-3.365,7.534-5.117
		c3.321-2.347,6.598-4.756,9.876-7.164c2.297-1.688,4.594-3.379,6.831-5.144c1.249-0.985,2.327-2.188,3.574-3.176
		c1.318-1.044,2.746-1.952,4.13-2.913c0.188-0.131,0.543-0.186,0.587-0.342c0.623-2.19,2.752-2.674,4.31-3.763
		c1.11-0.776,2.421-1.265,3.635-1.896c0.125-0.064,0.235-0.204,0.299-0.334c0.774-1.588,0.809-1.6,2.65-0.774
		c0.222,0.897-0.062,1.307-1.033,1.592c-1.148,0.337-2.2,1.019-3.275,1.586c-0.889,0.469-1.728,1.032-2.627,1.476
		c-1.075,0.531-1.172,1.009-0.297,1.819c0.227,0.21,0.383,0.493,0.593,0.724c0.541,0.598,1.136,0.707,1.765,0.133
		c0.49-0.446,1.105-0.832,1.411-1.385c0.382-0.692,0.889-0.737,1.494-0.638c1.124,0.184,1.692-0.123,1.419-1.38
		c-0.07-0.326,0.021-0.688,0.051-1.298c0.528,0.307,0.971,0.431,1.198,0.722c0.89,1.138,1.646,2.383,2.573,3.488
		c1.386,1.652,2.297,3.697,4.121,4.983c0.064,0.045,0.132,0.095,0.179,0.156c1.555,2.06,3.023,4.19,4.686,6.158
		c1.292,1.531,2.669,2.981,3.819,4.635c1.17,1.681,2.424,3.305,3.67,4.932c0.764,0.997,1.604,1.936,2.372,2.93
		c1.923,2.486,3.794,5.013,5.744,7.477c1.193,1.508,2.504,2.922,3.74,4.396c0.276,0.329,0.397,0.801,0.701,1.091
		c0.432,0.411,0.958,0.994,1.457,1.008c1.264,0.034,1.915,0.354,1.562,1.74c-0.044,0.174,0.053,0.384,0.111,0.75
		c0.56-0.061,1.085-0.142,1.613-0.167c0.309-0.014,0.758-0.049,0.901,0.125c0.198,0.241,0.173,0.67,0.235,1.019
		c0.118,0.666,0.065,1.433,0.39,1.974c0.402,0.672,1.13,0.547,1.812,0.17c0.198-0.11,0.663-0.004,0.831,0.171
		c0.175,0.182,0.283,0.649,0.17,0.848c-0.652,1.143-0.202,2.133,0.634,2.757c1.709,1.276,2.55,3.187,3.836,4.765
		c0.751,0.922,1.44,1.896,2.167,2.839c0.489,0.635,1.209,1.133,1.046,2.122c-0.027,0.162,0.373,0.425,0.61,0.593
		c0.368,0.26,0.766,0.478,1.375,0.851c-0.714,0.545-1.18,1.129-1.764,1.293c-0.964,0.271-1.053,0.854-0.931,1.628
		c0.049,0.311,0.256,0.609,0.252,0.912c-0.007,0.572-0.113,1.143-0.179,1.714c-0.431-0.219-0.846-0.479-1.295-0.649
		c-1.156-0.439-2.017-1.037-1.98-2.48c0.005-0.217-0.777-0.586-1.229-0.649c-0.729-0.102-1.028-0.362-1.074-1.127
		c-0.027-0.46-0.294-0.997-0.622-1.333c-3.231-3.304-6.531-6.541-9.742-9.863c-1.945-2.014-3.759-4.153-5.656-6.214
		c-0.252-0.274-0.62-0.529-0.975-0.605c-1.485-0.317-1.491-0.291-1.93-1.777c-0.792,0-1.612,0-2.597,0
		c0.144-1.147,0.984-2.706-1.372-2.364c0-0.942,0.062-1.774-0.031-2.589c-0.035-0.311-0.427-0.58-0.655-0.868
		c-0.247,0.268-0.707,0.535-0.709,0.805c-0.022,3.559-0.055,7.12,0.068,10.675c0.089,2.566,0.349,5.133,0.633,7.688
		c0.372,3.335,0.862,6.657,1.267,9.989c0.286,2.363,0.478,4.738,0.78,7.099c0.261,2.031,0.625,4.049,0.932,6.074
		c0.241,1.601,0.498,3.199,0.683,4.807c0.106,0.925,0.566,1.188,1.442,1.152c3.065-0.122,6.135-0.311,9.198-0.253
		c3.683,0.069,7.304-0.651,10.96-0.664c1.17-0.005,2.349,0.704,3.505,1.136c0.143,0.053,0.271,0.427,0.238,0.624
		c-0.411,2.475,1.176,4.19,2.363,6.239c-0.432,0.043-0.832,0.196-1.154,0.096c-1.847-0.576-3.665-0.354-5.529-0.055
		c-1.639,0.263-3.318,0.287-4.982,0.381c-2.502,0.142-5.004,0.275-7.508,0.368c-3.702,0.137-7.406,0.288-11.11,0.339
		c-9.982,0.139-19.967,0.204-29.95,0.346c-4.986,0.07-9.972,0.237-14.958,0.374c-3.442,0.095-6.888,0.13-10.323,0.345
		c-3.272,0.206-6.532,0.61-9.797,0.928c-0.119,0.011-0.239,0.021-0.359,0.024c-4.982,0.134-9.964,0.272-14.947,0.394
		c-0.875,0.021-1.721-0.097-2.247-1.102c0.959-0.361,1.754-0.96,2.742-0.308c0.178,0.117,0.467,0.091,0.704,0.089
		c3.175-0.019,6.35-0.011,9.524-0.08c2.301-0.05,4.603-0.173,6.9-0.316c4.273-0.269,8.541-0.663,12.818-0.841
		c4.247-0.177,8.503-0.112,12.754-0.229c2.901-0.08,5.797-0.313,8.697-0.432c1.002-0.041,2.009,0.086,3.013,0.087
		c3.047,0.001,6.095-0.022,9.142-0.038c0.186-0.001,0.371-0.024,0.558-0.026c5.26-0.04,10.521-0.09,15.782-0.109
		c1.034-0.005,2.071,0.185,3.103,0.147c2.098-0.076,4.192-0.24,6.287-0.381c0.394-0.026,0.78-0.143,1.173-0.167
		c4.084-0.247,8.168-0.478,12.251-0.74c0.254-0.017,0.492-0.269,0.737-0.411c-0.199-0.238-0.353-0.586-0.606-0.691
		c-0.426-0.176-0.914-0.27-1.377-0.274c-3.319-0.033-6.639-0.036-9.958-0.045c-2.805-0.007-5.61,0.027-8.415-0.021
		c-2.168-0.038-4.333-0.239-6.5-0.249c-1.713-0.008-3.427,0.237-5.14,0.241c-1.919,0.003-3.838-0.182-5.758-0.2
		c-1.061-0.011-2.125,0.236-3.186,0.222c-3.875-0.054-7.748-0.216-11.623-0.243c-2.267-0.016-4.535,0.188-6.803,0.21
		c-1.502,0.015-3.007-0.193-4.51-0.175c-4.683,0.057-9.371,0.079-14.047,0.298c-3.315,0.155-6.612,0.669-9.925,0.91
		c-3.099,0.226-6.214,0.236-9.312,0.473c-1.966,0.149-3.912,0.549-5.869,0.819c-1.013,0.141-2.065,0.511-3.289-0.497
		c1.051-0.273,1.835-0.419,2.576-0.685c0.812-0.292,1.674-0.226,2.375-1.157c0.433-0.576,1.907-0.482,2.915-0.487
		c1.86-0.008,3.725,0.241,5.581,0.181c1.812-0.06,3.615-0.401,5.427-0.562c1.001-0.088,1.276-0.46,1.053-1.483
		c-0.285-1.311-0.282-2.681-0.52-4.005c-0.454-2.517-0.993-5.019-1.493-7.527c-0.54-2.705-1.082-5.41-1.611-8.118
		c-0.498-2.549-0.99-5.099-1.467-7.651c-0.21-1.121-0.434-2.244-0.555-3.377c-0.271-2.523-0.517-5.05-0.704-7.581
		c-0.173-2.333-0.249-4.674-0.388-7.011c-0.017-0.292-0.112-0.788-0.253-0.82c-0.348-0.079-0.831-0.063-1.108,0.13
		c-2.071,1.444-4.151,2.883-6.14,4.438c-2.104,1.644-4.111,3.413-6.16,5.127c-0.061,0.052-0.178,0.1-0.179,0.15
		c-0.042,1.893-2.28,2.251-2.633,3.988c-0.988-0.566-1.442,0.017-1.912,0.67C15.656,83.2,15.038,83.938,14.427,84.718z
		 M66.059,44.229c0.612,0.021,1.241,0.029,1.355,0.839c0.247,1.755,0.451,3.516,0.733,5.265c0.269,1.665,0.62,3.316,0.925,4.976
		c0.107,0.584,0.298,1.234,1.001,0.879c0.304-0.153,0.542-1.006,0.395-1.375c-0.427-1.068-0.203-2.192-0.446-3.292
		c-0.597-2.698-0.566-5.532-0.88-8.301c-0.045-0.398-0.55-0.969-0.933-1.055c-0.734-0.165-2.057,1.259-2.12,2.093
		c-0.712-0.153-1.355-0.027-1.353,0.818c0.002,0.72,0.521,0.998,1.321,0.764C66.059,45.307,66.059,44.768,66.059,44.229z
		 M100.988,65.353c0.009,0,0.018-0.001,0.027-0.001c0-1.359,0.042-2.721-0.011-4.078c-0.079-2.045-1.189-3.488-2.819-3.551
		c-1.103-0.043-2.221,0.106-3.322,0.251c-2.979,0.393-5.953,0.828-8.929,1.249c-3.409,0.482-6.818,0.973-10.229,1.45
		c-3.247,0.454-6.495,0.901-9.745,1.34c-1.1,0.148-2.21,0.229-3.306,0.403c-2.687,0.426-5.359,0.961-8.055,1.312
		c-2.392,0.312-4.809,0.438-7.215,0.642c-2.887,0.244-5.781,0.425-8.656,0.767c-0.728,0.086-1.794,0.519-2.011,1.067
		c-0.478,1.209-0.663,2.589-0.695,3.907c-0.045,1.823,0.121,3.656,0.268,5.479c0.19,2.368,0.389,4.739,0.695,7.095
		c0.422,3.247,0.845,6.501,1.454,9.716c0.811,4.286,1.826,8.533,2.705,12.807c0.608,2.957,1.109,5.937,1.73,8.891
		c0.081,0.383,0.585,0.945,0.916,0.961c1.714,0.081,3.436,0.041,5.154-0.012c2.764-0.083,5.541-0.078,8.285-0.365
		c1.703-0.179,3.954,1.113,4.942-1.634c0.389-1.082,1.067-2.023,0.895-3.274c-0.278-2.008-0.699-4.033-0.645-6.04
		c0.059-2.17-1.678-3.774-1.511-5.906c0.01-0.133-0.269-0.276-0.392-0.432c-0.438-0.548-0.198-0.95,0.375-1.057
		c2.133-0.396,4.268-0.826,6.421-1.053c1.541-0.162,3.114,0.006,4.671-0.034c0.324-0.008,0.905-0.27,0.916-0.442
		c0.042-0.66,0.29-1.207,0.925-1.1c0.754,0.128,0.81,0.834,0.747,1.534c-0.225,2.481-0.537,4.964-0.577,7.45
		c-0.041,2.538,0.188,5.081,0.328,7.62c0.023,0.426,0.084,0.915,0.312,1.25c0.443,0.653,0.965,1.667,1.547,1.735
		c1.781,0.21,3.611,0.116,5.413,0.001c1.692-0.108,3.371-0.423,5.061-0.593c1.419-0.143,2.845-0.215,4.269-0.306
		c3.646-0.233,7.288-0.508,10.937-0.673c3.701-0.167,3.633,0.787,3.539-3.737c-0.003-0.12,0.002-0.242-0.018-0.359
		c-0.537-3.229-1.149-6.447-1.598-9.688c-0.547-3.96-0.99-7.937-1.413-11.912c-0.378-3.546-0.736-7.096-0.975-10.652
		C101.174,72.043,101.118,68.695,100.988,65.353z M63.382,99.08c-0.047,0.795-0.217,1.611-0.12,2.395
		c0.321,2.581,0.798,5.145,1.093,7.728c0.145,1.271,0.065,2.573,0.004,3.857c-0.047,0.995,0.354,1.405,1.328,1.345
		c1.979-0.125,3.956-0.266,5.937-0.339c1.61-0.059,2.029-0.407,1.648-1.926c-0.597-2.378-0.703-4.781-0.645-7.202
		c0.057-2.346,0.193-4.689,0.245-7.035c0.007-0.316-0.201-0.815-0.445-0.924c-0.529-0.234-1.154-0.399-1.726-0.367
		c-2.761,0.156-5.517,0.388-8.274,0.593c-0.066,0.14-0.133,0.28-0.199,0.42C62.604,98.099,62.981,98.574,63.382,99.08z
		 M77.245,36.169c-0.466,0.276-0.822,0.48-1.17,0.697c-0.467,0.29-0.897,0.661-1.396,0.871c-1.193,0.502-2.53,0.776-2.946,2.283
		c-0.06,0.218-0.209,0.546-0.37,0.581c-1.361,0.295-1.121,1.042-0.884,2.12c0.591,2.685,0.906,5.43,1.421,8.134
		c0.396,2.077,0.888,4.139,1.426,6.183c0.152,0.578,0.591,1.095,0.958,1.596c0.19,0.26,0.514,0.422,0.777,0.628
		c0.065-0.335,0.242-0.692,0.179-1.001c-0.386-1.877-0.875-3.734-1.234-5.616c-0.371-1.942-0.663-3.902-0.935-5.861
		c-0.234-1.695-0.392-3.401-0.583-5.103c0.129-0.059,0.258-0.118,0.387-0.176c0.347,0.258,0.94,0.47,0.999,0.782
		c0.319,1.705,0.533,3.43,0.732,5.154c0.268,2.322,0.433,4.657,0.745,6.972c0.231,1.705,0.528,1.807,2.027,0.85
		c0.072,0.803,0.271,1.542,0.173,2.24c-0.171,1.219,0.039,1.59,1.261,1.42c1.404-0.196,2.793-0.504,4.188-0.769
		c0.612-0.116,1.223-0.246,1.831-0.37c-0.071-1.462-1.313-2.409-2.654-2.095c-0.22,0.052-0.497-0.166-0.755-0.237
		c-0.354-0.099-0.716-0.176-1.073-0.263c-0.051,0.362-0.124,0.723-0.146,1.086c-0.025,0.421-0.006,0.846-0.006,1.276
		c-1.373-0.162-0.93-1.143-1.215-1.756c-1.099-2.36-1.642-4.843-1.945-7.405c-0.102-0.855-0.303-1.704-0.519-2.54
		c-0.512-1.978-1.075-3.942-1.57-5.924c-0.061-0.245,0.172-0.562,0.268-0.846c0.27,0.151,0.68,0.237,0.784,0.464
		c0.375,0.82,0.612,1.701,0.974,2.528c0.142,0.324,0.474,0.564,0.718,0.843c0.142-0.36,0.439-0.739,0.398-1.076
		C77.87,40.042,77.565,38.255,77.245,36.169z M123.163,114.989c0.002,0.038,0.005,0.075,0.007,0.113c1.915,0,3.83,0.003,5.745-0.001
		c0.874-0.003,1.44-0.386,1.524-1.309c0.074-0.81-0.102-1.451-1.098-1.463c-1.397-0.016-2.795-0.065-4.19-0.028
		c-3.575,0.094-7.149,0.249-10.725,0.338c-2.073,0.051-4.149,0.017-6.224,0.027c-0.565,0.003-1.215-0.042-1.082,0.83
		c0.107,0.716,0.074,1.591,1.146,1.631c2.666,0.098,5.333,0.261,7.999,0.242C118.565,115.354,120.864,115.125,123.163,114.989z
		 M106.008,115.118c0.253-2.052-0.431-2.576-2.553-2.39c-2.967,0.26-5.941,0.441-8.914,0.609c-2.743,0.155-5.492,0.219-8.232,0.403
		c-0.384,0.026-0.736,0.513-1.103,0.786c0.361,0.192,0.723,0.549,1.087,0.552c5.276,0.041,10.553,0.034,15.83,0.039
		C103.396,115.119,104.67,115.118,106.008,115.118z M57.614,60.32c-0.268-0.334-0.69-0.616-0.719-0.935
		c-0.183-1.988-0.26-3.986-0.412-5.979c-0.047-0.618,0.208-1.478-0.776-1.612c-0.785-0.106-2.673,1.684-2.603,2.485
		c0.17,1.962,0.487,3.914,0.607,5.879c0.071,1.165,0.702,1.527,1.671,1.555c1.115,0.031,2.236,0.021,3.347-0.069
		c0.419-0.034,0.816-0.345,1.224-0.529c-0.174-0.378-0.297-0.791-0.531-1.128C58.747,59.016,58.3,59.924,57.614,60.32z
		 M79.573,43.773c-0.1,0.02-0.2,0.039-0.3,0.058c0.277,1.223,0.589,2.438,0.825,3.669c0.267,1.392,0.501,2.791,0.68,4.196
		c0.094,0.733,0.546,0.95,1.047,0.665c0.318-0.182,0.607-0.816,0.547-1.19c-0.212-1.309-0.683-2.578-0.87-3.889
		c-0.503-3.516-0.918-7.044-1.35-10.57c-0.07-0.576-0.048-1.195-0.883-1.08c-0.909,0.125-0.551,0.84-0.5,1.317
		C79.009,39.227,79.3,41.5,79.573,43.773z M64.023,47.87c0.025-0.004,0.05-0.008,0.075-0.011c-0.071-0.427-0.029-0.928-0.246-1.258
		c-0.208-0.317-0.687-0.458-1.046-0.675c-0.18,0.303-0.501,0.603-0.51,0.911c-0.017,0.625,0.135,1.255,0.219,1.883
		c0.209,1.562,0.521,3.119,0.607,4.687c0.125,2.291,0.257,4.564,1.452,6.592c0.197,0.334,0.768,0.448,1.166,0.664
		c0.022-0.393,0.165-0.827,0.046-1.171c-0.483-1.394-1.046-2.758-0.44-4.262c0.055-0.136,0.034-0.321,0-0.472
		c-0.3-1.327-0.645-2.644-0.909-3.978C64.247,49.82,64.158,48.84,64.023,47.87z M62.975,60.945c0-0.504,0.06-0.942-0.01-1.357
		c-0.417-2.479-0.872-4.953-1.3-7.43c-0.175-1.012-0.249-2.046-0.51-3.033c-0.089-0.337-0.609-0.561-0.932-0.835
		c-0.214,0.352-0.614,0.708-0.609,1.057c0.02,1.303,0.239,2.602,0.261,3.905c0.043,2.679,0.108,5.338,1.644,7.695
		C61.981,60.945,62.443,60.945,62.975,60.945z M104.599,58.471c2.179,0.375,2.179,0.375,1.579,2.364
		c-0.023,0.077-0.067,0.159-0.056,0.231c0.069,0.443,0.151,0.884,0.23,1.325c0.397-0.16,0.786-0.351,1.196-0.47
		c0.352-0.102,0.726-0.122,1.091-0.178c0.003,0.322,0.026,0.646,0.004,0.966c-0.041,0.564-0.111,1.126-0.167,1.666
		c1.594,0.384,1.977-0.933,2.679-1.613c0.165-0.16-0.331-1.167-0.686-1.668c-1.053-1.485-2.213-2.894-3.279-4.371
		c-0.845-1.169-1.451-1.174-2.074,0.115C104.884,57.32,104.786,57.865,104.599,58.471z M87.589,48.917
		c0.113-0.021,0.227-0.043,0.34-0.064c-0.385-1.8-0.721-3.612-1.179-5.393c-0.209-0.814-0.61-1.595-1.028-2.332
		c-0.121-0.213-0.604-0.223-0.921-0.325c-0.077,0.286-0.257,0.587-0.215,0.854c0.439,2.793,0.895,5.584,1.393,8.367
		c0.124,0.689,0.352,1.383,0.673,2.001c0.121,0.233,0.646,0.256,0.986,0.375c0.074-0.299,0.224-0.603,0.207-0.897
		C87.795,50.639,87.679,49.779,87.589,48.917z M89.204,45.733c-0.151,0.403-0.241,0.521-0.227,0.624
		c0.248,1.833,0.478,3.669,0.804,5.488c0.047,0.259,0.596,0.618,0.878,0.59c0.271-0.027,0.657-0.468,0.716-0.779
		c0.33-1.739-0.153-3.387-0.846-4.948C90.346,46.296,89.706,46.086,89.204,45.733z M41.475,63.029c0.713,0,1.349,0.038,1.979-0.01
		c0.668-0.051,1.339-0.148,1.991-0.297c0.298-0.068,0.765-0.285,0.789-0.479c0.047-0.383-0.08-0.847-0.285-1.186
		c-0.25-0.411-0.654-0.728-1.025-1.121C42.787,60.332,41.332,61.554,41.475,63.029z M46.68,58.947
		c0.375,0.649,0.747,1.301,1.129,1.946c0.132,0.223,0.257,0.471,0.449,0.632c0.342,0.289,0.732,0.521,1.102,0.776
		c0.104-0.423,0.336-0.862,0.286-1.266c-0.126-0.999-0.456-1.973-0.561-2.973c-0.079-0.75-0.397-0.934-1.073-0.883
		C46.93,57.26,46.907,58.006,46.68,58.947z M97.067,56.573c-0.432-0.963-0.723-1.688-1.097-2.369
		c-0.059-0.105-0.69-0.078-0.723,0.012c-0.476,1.292-1.328,0.936-2.251,0.622c-0.52-0.177-0.932,0.02-0.916,0.701
		c0.013,0.551,0.024,1.047,0.784,1.038C94.165,56.562,95.464,56.573,97.067,56.573z M66.413,55.465
		c1.373-0.021,1.578-0.274,1.385-1.302c-0.137-0.732-0.186-1.48-0.323-2.212c-0.085-0.458-0.177-0.957-0.428-1.327
		c-0.141-0.208-0.618-0.267-0.93-0.241c-0.135,0.012-0.359,0.425-0.334,0.631C65.96,52.488,66.192,53.956,66.413,55.465z
		 M43.275,53.876c-1.792-0.104-2.894,1.02-2.84,2.718c0.011,0.354,0.296,0.7,0.456,1.049c0.35-0.249,0.777-0.438,1.031-0.762
		c0.404-0.517,0.73-1.107,1.015-1.702C43.112,54.815,43.149,54.384,43.275,53.876z M72.544,32.34
		c-0.998,0.579-1.936,0.958-2.608,1.611c-0.208,0.202,0.221,1.199,0.534,1.727c0.119,0.201,1.02,0.247,1.079,0.125
		C72.032,34.816,72.792,33.885,72.544,32.34z M122.662,78.142c-1.241-0.064-2.48,0.708-2.776,1.557
		c-0.278,0.802,0.229,1.169,0.852,1.416c0.604,0.239,1.229,0.269,1.446-0.502C122.401,79.843,122.494,79.039,122.662,78.142z
		 M94.612,40.828c-0.443,0-0.904,0-1.361,0c-0.181,0.904-0.383,1.747-0.496,2.6c-0.033,0.254,0.127,0.7,0.31,0.771
		c0.214,0.084,0.739-0.078,0.802-0.252C94.215,42.979,95.379,42.226,94.612,40.828z M23.489,70.296
		c-0.569-0.405-0.973-0.837-1.11-0.765c-0.635,0.336-1.195,0.813-1.783,1.239c0.392,0.53,0.784,1.06,1.176,1.59
		C22.281,71.749,22.79,71.137,23.489,70.296z M130.729,86.09c-0.121,0.087-0.243,0.174-0.364,0.26c0,0.544-0.054,1.095,0.019,1.628
		c0.052,0.378,0.259,1.031,0.425,1.041c0.472,0.025,1.055-0.101,1.405-0.393c0.24-0.2,0.367-0.946,0.193-1.155
		C131.951,86.925,131.302,86.539,130.729,86.09z M99.257,47.386c-0.346-0.503-0.556-1.093-0.819-1.118
		c-0.322-0.031-0.835,0.335-1.008,0.665c-0.298,0.57-0.458,1.237-0.535,1.88c-0.018,0.145,0.761,0.56,0.807,0.51
		C98.232,48.752,98.692,48.115,99.257,47.386z M67.817,57.088c-0.124,0.076-0.248,0.152-0.371,0.229c0,0.786-0.04,1.576,0.025,2.356
		c0.019,0.223,0.325,0.568,0.534,0.595c0.36,0.047,1.071-0.109,1.071-0.183c0.003-0.689-0.007-1.417-0.235-2.054
		C68.702,57.645,68.172,57.398,67.817,57.088z M87.937,57.111c0.769-0.282,1.861,0.847,2.127-0.535
		c0.132-0.689,0.208-1.702-0.893-1.732C87.521,54.799,88.698,56.461,87.937,57.111z M119.239,78.312
		c-0.143-0.572-0.326-1.051-0.368-1.541c-0.051-0.596-0.279-1.002-0.868-0.733c-0.389,0.178-0.851,0.628-0.911,1.014
		C116.922,78.139,117.513,78.496,119.239,78.312z M87.763,33.178c-0.178-0.163-0.503-0.648-0.697-0.601
		c-0.412,0.1-0.845,0.416-1.097,0.766c-0.154,0.215-0.02,0.664,0.037,1c0.057,0.334,0.177,0.658,0.269,0.987
		c0.34-0.214,0.774-0.36,0.994-0.662C87.509,34.337,87.55,33.863,87.763,33.178z M125.021,82.003
		c-0.127-0.104-0.255-0.207-0.383-0.31c-0.556,0.316-1.146,0.591-1.643,0.981c-0.109,0.087,0.003,0.736,0.192,0.867
		c0.448,0.31,1.005,0.464,1.517,0.681C124.81,83.482,124.915,82.743,125.021,82.003z M50.427,49.058
		c-1.394-0.075-2.156,0.399-2.166,1.219c-0.009,0.715,0.441,0.9,1.003,0.818C50.438,50.924,50.359,50,50.427,49.058z M24.105,68.831
		c0.866,0.179,1.68,0.099,2.17-0.73c0.129-0.218,0.012-0.847-0.168-0.937C25.314,66.768,23.987,67.892,24.105,68.831z
		 M29.612,63.594c-0.654,0.586-1.071,0.961-1.488,1.335c0.36,0.294,0.792,0.881,1.063,0.814c0.402-0.099,0.757-0.625,0.99-1.047
		C30.259,64.549,29.92,64.169,29.612,63.594z M126.859,81.065c-0.105,0.112-0.211,0.226-0.316,0.338
		c0.12,0.501,0.165,1.046,0.412,1.475c0.063,0.109,0.861-0.035,1.141-0.274c0.215-0.185,0.309-0.93,0.173-1.026
		C127.875,81.299,127.34,81.222,126.859,81.065z M72.123,57.72c-0.155,0.009-0.309,0.018-0.464,0.027
		c-0.171,0.321-0.46,0.633-0.489,0.966c-0.054,0.634,0.158,1.274,0.949,1.173c0.307-0.039,0.824-0.584,0.778-0.798
		C72.792,58.6,72.399,58.172,72.123,57.72z M73.701,31.823c-0.174,0.11-0.498,0.314-0.822,0.519c0.286,0.213,0.557,0.455,0.864,0.63
		c0.232,0.133,0.519,0.266,0.769,0.247c0.296-0.022,0.579-0.207,0.867-0.321c-0.166-0.291-0.271-0.662-0.518-0.847
		C74.639,31.883,74.262,31.92,73.701,31.823z M19.185,72.52c-0.841,0.078-1.218,0.113-1.777,0.165
		c0.119,0.754,0.21,1.39,0.342,2.018c0.007,0.034,0.497,0.059,0.536-0.021C18.575,74.079,18.808,73.451,19.185,72.52z
		 M114.568,69.501c0.544,0.397,0.938,0.836,1.09,0.765c0.329-0.155,0.73-0.57,0.734-0.883c0.004-0.299-0.459-0.604-0.717-0.906
		C115.388,68.743,115.1,69.01,114.568,69.501z M90.508,36.583c-0.562-0.446-0.851-0.835-1.184-0.877
		c-0.191-0.025-0.659,0.533-0.635,0.793c0.033,0.339,0.431,0.643,0.671,0.962C89.654,37.236,89.948,37.011,90.508,36.583z
		 M114.217,74.308c0.486,0.518,0.746,0.795,1.007,1.072c0.285-0.355,0.638-0.681,0.812-1.084c0.049-0.112-0.423-0.634-0.666-0.642
		C115.07,73.645,114.761,73.978,114.217,74.308z M82.628,39.81c0.423-0.412,0.685-0.667,0.947-0.921
		c-0.295-0.186-0.587-0.511-0.886-0.518c-0.284-0.007-0.575,0.32-0.862,0.5C82.041,39.123,82.256,39.374,82.628,39.81z
		 M85.422,31.88c0.278-0.54,0.578-0.865,0.507-1.039c-0.117-0.288-0.443-0.577-0.742-0.669c-0.15-0.046-0.653,0.429-0.619,0.512
		C84.71,31.032,84.997,31.32,85.422,31.88z M79.115,44.299c-0.617-0.392-0.961-0.633-1.337-0.807
		c-0.033-0.016-0.44,0.485-0.383,0.624c0.136,0.323,0.407,0.647,0.71,0.812C78.229,44.995,78.576,44.648,79.115,44.299z
		 M128.587,85.04c0.587,0.351,0.841,0.61,1.114,0.632c0.223,0.018,0.469-0.25,0.704-0.391c-0.246-0.235-0.458-0.556-0.752-0.675
		C129.479,84.537,129.177,84.785,128.587,85.04z"/>
	<path fill-rule="evenodd" clip-rule="evenodd" fill="#FFFFFF" d="M100.988,65.353c0.13,3.343,0.186,6.69,0.409,10.027
		c0.238,3.557,0.597,7.106,0.975,10.652c0.423,3.976,0.866,7.952,1.413,11.912c0.448,3.241,1.061,6.46,1.598,9.688
		c0.02,0.117,0.015,0.239,0.018,0.359c0.094,4.524,0.162,3.57-3.539,3.737c-3.648,0.165-7.291,0.439-10.937,0.673
		c-1.424,0.091-2.85,0.163-4.269,0.306c-1.689,0.17-3.368,0.484-5.061,0.593c-1.802,0.115-3.632,0.209-5.413-0.001
		c-0.582-0.068-1.104-1.082-1.547-1.735c-0.229-0.335-0.289-0.824-0.312-1.25c-0.14-2.539-0.369-5.082-0.328-7.62
		c0.04-2.486,0.353-4.969,0.577-7.45c0.062-0.7,0.007-1.406-0.747-1.534c-0.635-0.107-0.883,0.439-0.925,1.1
		c-0.011,0.173-0.592,0.435-0.916,0.442c-1.557,0.04-3.131-0.128-4.671,0.034c-2.154,0.227-4.288,0.657-6.421,1.053
		c-0.573,0.106-0.812,0.509-0.375,1.057c0.124,0.155,0.402,0.299,0.392,0.432c-0.167,2.132,1.57,3.736,1.511,5.906
		c-0.055,2.007,0.367,4.032,0.645,6.04c0.173,1.251-0.505,2.192-0.895,3.274c-0.988,2.747-3.239,1.455-4.942,1.634
		c-2.745,0.287-5.521,0.282-8.285,0.365c-1.718,0.053-3.44,0.093-5.154,0.012c-0.331-0.016-0.835-0.578-0.916-0.961
		c-0.622-2.954-1.122-5.934-1.73-8.891c-0.879-4.273-1.894-8.521-2.705-12.807c-0.608-3.215-1.032-6.469-1.454-9.716
		c-0.306-2.355-0.504-4.727-0.695-7.095c-0.146-1.823-0.312-3.656-0.268-5.479c0.033-1.317,0.217-2.698,0.695-3.907
		c0.217-0.548,1.283-0.98,2.011-1.067c2.875-0.341,5.77-0.522,8.656-0.767c2.406-0.204,4.823-0.33,7.215-0.642
		c2.696-0.352,5.368-0.887,8.055-1.312c1.096-0.174,2.206-0.255,3.306-0.403c3.25-0.439,6.498-0.886,9.745-1.34
		c3.41-0.477,6.819-0.967,10.229-1.45c2.976-0.421,5.949-0.856,8.929-1.249c1.102-0.145,2.22-0.294,3.322-0.251
		c1.63,0.063,2.74,1.506,2.819,3.551c0.053,1.357,0.011,2.719,0.011,4.078C101.006,65.352,100.997,65.352,100.988,65.353z
		 M78.01,71.409c0.01,0.198,0.02,0.396,0.029,0.595c1.478,0.096,2.961,0.149,4.432,0.314c0.429,0.048,1.046,0.315,1.193,0.65
		c0.828,1.881,1.058,3.887,0.905,5.931c-0.014,0.189-0.198,0.491-0.354,0.527c-1.23,0.284-2.472,0.525-3.713,0.763
		c-0.866,0.165-1.099-0.257-1.081-1.074c0.039-1.718,0.021-3.438-0.044-5.155c-0.012-0.311-0.361-0.608-0.555-0.912
		c-0.239,0.264-0.68,0.522-0.685,0.79c-0.05,2.397-0.084,4.8,0.017,7.194c0.033,0.78,0.438,1.314,1.556,0.948
		c1.678-0.549,3.462-0.763,5.179-1.205c0.372-0.096,0.744-0.502,0.953-0.86c0.779-1.337,0.094-2.71-0.066-4.044
		c-0.167-1.395-0.543-2.775-0.954-4.125c-0.104-0.343-0.659-0.705-1.055-0.769c-0.819-0.134-1.715,0.089-2.498-0.129
		C80.004,70.497,79.06,71.08,78.01,71.409z M48.46,73.544c0.786-0.09,1.563-0.191,2.344-0.263c0.832-0.076,1.287,0.283,1.284,1.158
		c-0.003,1.078,0,2.155,0.026,3.232c0.02,0.82-0.373,1.18-1.168,1.126c-1.385-0.095-2.771-0.182-4.152-0.318
		c-0.212-0.021-0.595-0.342-0.569-0.44c0.295-1.159-0.777-2.36,0.154-3.544c0.159-0.201-0.364-0.939-0.572-1.43
		c-0.311,0.259-0.822,0.47-0.897,0.785c-0.264,1.106-0.469,2.244-0.529,3.379c-0.103,1.957,1.615,3.472,3.491,3.215
		c0.898-0.123,1.802-0.223,2.707-0.267c0.943-0.045,1.889-0.01,2.982-0.01c0.176-3.214-0.249-6.228-0.794-9.051
		c-1.042,0.201-1.816,0.368-2.597,0.498C48.73,71.852,48.168,72.491,48.46,73.544z"/>
	<path fill-rule="evenodd" clip-rule="evenodd" fill="#FFFFFF" d="M63.382,99.08c-0.401-0.506-0.778-0.981-1.155-1.456
		c0.066-0.14,0.133-0.28,0.199-0.42c2.758-0.205,5.514-0.437,8.274-0.593c0.572-0.032,1.197,0.133,1.726,0.367
		c0.244,0.108,0.452,0.607,0.445,0.924c-0.052,2.346-0.188,4.689-0.245,7.035c-0.059,2.421,0.048,4.824,0.645,7.202
		c0.381,1.519-0.038,1.867-1.648,1.926c-1.98,0.073-3.958,0.214-5.937,0.339c-0.974,0.061-1.375-0.35-1.328-1.345
		c0.061-1.284,0.14-2.587-0.004-3.857c-0.295-2.583-0.772-5.146-1.093-7.728C63.165,100.691,63.334,99.875,63.382,99.08z"/>
	<path fill-rule="evenodd" clip-rule="evenodd" fill="#FFFFFF" d="M77.245,36.169c0.32,2.086,0.625,3.874,0.845,5.671
		c0.041,0.337-0.257,0.716-0.398,1.076c-0.244-0.278-0.576-0.519-0.718-0.843c-0.361-0.827-0.599-1.708-0.974-2.528
		c-0.104-0.227-0.515-0.313-0.784-0.464c-0.096,0.284-0.328,0.602-0.268,0.846c0.495,1.981,1.059,3.946,1.57,5.924
		c0.216,0.836,0.417,1.685,0.519,2.54c0.304,2.562,0.847,5.045,1.945,7.405c0.285,0.613-0.158,1.594,1.215,1.756
		c0-0.43-0.02-0.854,0.006-1.276c0.021-0.364,0.095-0.724,0.146-1.086c0.357,0.086,0.719,0.164,1.073,0.263
		c0.258,0.071,0.535,0.289,0.755,0.237c1.341-0.314,2.583,0.633,2.654,2.095c-0.608,0.124-1.219,0.253-1.831,0.37
		c-1.396,0.265-2.784,0.573-4.188,0.769c-1.222,0.17-1.432-0.201-1.261-1.42c0.099-0.698-0.101-1.438-0.173-2.24
		c-1.499,0.958-1.796,0.855-2.027-0.85c-0.312-2.315-0.478-4.65-0.745-6.972c-0.199-1.724-0.413-3.45-0.732-5.154
		c-0.059-0.312-0.652-0.524-0.999-0.782c-0.129,0.059-0.258,0.118-0.387,0.176c0.191,1.702,0.349,3.408,0.583,5.103
		c0.271,1.959,0.563,3.919,0.935,5.861c0.359,1.882,0.849,3.739,1.234,5.616c0.063,0.309-0.113,0.666-0.179,1.001
		c-0.264-0.207-0.587-0.369-0.777-0.628c-0.367-0.5-0.806-1.018-0.958-1.596c-0.538-2.044-1.03-4.106-1.426-6.183
		c-0.515-2.704-0.83-5.449-1.421-8.134c-0.237-1.077-0.477-1.824,0.884-2.12c0.16-0.035,0.31-0.363,0.37-0.581
		c0.416-1.507,1.753-1.781,2.946-2.283c0.499-0.21,0.93-0.582,1.396-0.871C76.423,36.649,76.779,36.445,77.245,36.169z"/>
	<path fill-rule="evenodd" clip-rule="evenodd" fill="#FFFFFF" d="M123.163,114.989c-2.299,0.136-4.598,0.365-6.897,0.381
		c-2.666,0.019-5.333-0.145-7.999-0.242c-1.071-0.04-1.038-0.915-1.146-1.631c-0.133-0.872,0.517-0.827,1.082-0.83
		c2.074-0.011,4.15,0.023,6.224-0.027c3.575-0.089,7.149-0.244,10.725-0.338c1.396-0.037,2.793,0.013,4.19,0.028
		c0.996,0.012,1.172,0.653,1.098,1.463c-0.084,0.923-0.65,1.306-1.524,1.309c-1.915,0.004-3.83,0.001-5.745,0.001
		C123.168,115.064,123.165,115.027,123.163,114.989z"/>
	<path fill-rule="evenodd" clip-rule="evenodd" fill="#FFFFFF" d="M106.008,115.118c-1.338,0-2.611,0.001-3.885,0
		c-5.277-0.005-10.554,0.002-15.83-0.039c-0.364-0.003-0.726-0.359-1.087-0.552c0.366-0.273,0.719-0.76,1.103-0.786
		c2.74-0.185,5.489-0.248,8.232-0.403c2.973-0.168,5.947-0.35,8.914-0.609C105.577,112.542,106.261,113.066,106.008,115.118z"/>
	<path fill-rule="evenodd" clip-rule="evenodd" fill="#FFFFFF" d="M57.614,60.32c0.686-0.396,1.132-1.305,1.808-0.333
		c0.233,0.337,0.357,0.75,0.531,1.128c-0.407,0.184-0.804,0.495-1.224,0.529c-1.11,0.091-2.232,0.1-3.347,0.069
		c-0.969-0.027-1.6-0.39-1.671-1.555c-0.121-1.965-0.437-3.917-0.607-5.879c-0.07-0.802,1.818-2.592,2.603-2.485
		c0.985,0.134,0.729,0.994,0.776,1.612c0.152,1.992,0.229,3.99,0.412,5.979C56.924,59.704,57.346,59.986,57.614,60.32z"/>
	<path fill-rule="evenodd" clip-rule="evenodd" fill="#FFFFFF" d="M66.09,44.26c0.063-0.834,1.386-2.258,2.12-2.093
		c0.383,0.086,0.888,0.657,0.933,1.055c0.314,2.769,0.283,5.603,0.88,8.301c0.243,1.099,0.019,2.224,0.446,3.292
		c0.147,0.369-0.091,1.222-0.395,1.375c-0.703,0.354-0.894-0.295-1.001-0.879c-0.305-1.659-0.656-3.311-0.925-4.976
		c-0.283-1.749-0.486-3.51-0.733-5.265c-0.114-0.81-0.744-0.817-1.355-0.839L66.09,44.26z"/>
	<path fill-rule="evenodd" clip-rule="evenodd" fill="#FFFFFF" d="M79.573,43.773c-0.273-2.274-0.564-4.546-0.804-6.824
		c-0.051-0.478-0.409-1.192,0.5-1.317c0.835-0.115,0.812,0.504,0.883,1.08c0.432,3.526,0.847,7.055,1.35,10.57
		c0.188,1.311,0.658,2.58,0.87,3.889c0.061,0.374-0.229,1.008-0.547,1.19c-0.501,0.285-0.953,0.068-1.047-0.665
		c-0.179-1.405-0.413-2.804-0.68-4.196c-0.236-1.23-0.548-2.446-0.825-3.669C79.373,43.812,79.474,43.793,79.573,43.773z"/>
	<path fill-rule="evenodd" clip-rule="evenodd" fill="#FFFFFF" d="M64.023,47.87c0.134,0.97,0.223,1.95,0.414,2.909
		c0.265,1.333,0.609,2.651,0.909,3.978c0.034,0.151,0.055,0.335,0,0.472c-0.605,1.504-0.043,2.868,0.44,4.262
		c0.119,0.344-0.023,0.778-0.046,1.171c-0.398-0.215-0.968-0.33-1.166-0.664c-1.195-2.028-1.327-4.302-1.452-6.592
		c-0.085-1.568-0.397-3.125-0.607-4.687c-0.084-0.628-0.236-1.257-0.219-1.883c0.009-0.308,0.33-0.607,0.51-0.911
		c0.359,0.218,0.837,0.358,1.046,0.675c0.217,0.33,0.175,0.832,0.246,1.258C64.074,47.862,64.049,47.866,64.023,47.87z"/>
	<path fill-rule="evenodd" clip-rule="evenodd" fill="#FFFFFF" d="M62.975,60.945c-0.532,0-0.994,0-1.456-0.001
		c-1.535-2.355-1.6-5.014-1.644-7.693c-0.021-1.303-0.241-2.602-0.261-3.905c-0.005-0.349,0.395-0.705,0.609-1.057
		c0.323,0.275,0.843,0.498,0.932,0.835c0.261,0.987,0.335,2.021,0.51,3.033c0.428,2.478,0.882,4.951,1.3,7.43
		C63.035,60.003,62.975,60.441,62.975,60.945z"/>
	<path fill-rule="evenodd" clip-rule="evenodd" fill="#FFFFFF" d="M104.599,58.471c0.188-0.606,0.285-1.151,0.518-1.631
		c0.623-1.29,1.229-1.285,2.074-0.115c1.066,1.477,2.227,2.885,3.279,4.371c0.354,0.501,0.851,1.508,0.686,1.668
		c-0.702,0.68-1.085,1.997-2.679,1.613c0.056-0.539,0.126-1.102,0.167-1.666c0.022-0.321-0.001-0.645-0.004-0.966
		c-0.365,0.056-0.739,0.076-1.091,0.178c-0.41,0.119-0.799,0.31-1.196,0.47c-0.079-0.441-0.161-0.882-0.23-1.325
		c-0.012-0.072,0.032-0.154,0.056-0.231C106.777,58.845,106.777,58.845,104.599,58.471z"/>
	<path fill-rule="evenodd" clip-rule="evenodd" fill="#FFFFFF" d="M87.589,48.917c0.09,0.861,0.206,1.721,0.256,2.585
		c0.017,0.294-0.133,0.598-0.207,0.897c-0.341-0.119-0.865-0.142-0.986-0.375c-0.321-0.618-0.549-1.312-0.673-2.001
		c-0.498-2.783-0.953-5.574-1.393-8.367c-0.042-0.267,0.138-0.568,0.215-0.854c0.317,0.103,0.8,0.112,0.921,0.325
		c0.418,0.737,0.819,1.517,1.028,2.332c0.458,1.781,0.794,3.593,1.179,5.393C87.815,48.874,87.702,48.896,87.589,48.917z"/>
	<path fill-rule="evenodd" clip-rule="evenodd" fill="#FFFFFF" d="M89.204,45.733c0.502,0.353,1.142,0.562,1.325,0.975
		c0.692,1.562,1.176,3.209,0.846,4.948c-0.059,0.311-0.445,0.752-0.716,0.779c-0.282,0.028-0.831-0.332-0.878-0.59
		c-0.326-1.819-0.556-3.655-0.804-5.488C88.963,46.254,89.053,46.137,89.204,45.733z"/>
	<path fill-rule="evenodd" clip-rule="evenodd" fill="#FFFFFF" d="M41.475,63.029c-0.144-1.476,1.312-2.698,3.449-3.093
		c0.371,0.393,0.775,0.709,1.025,1.121c0.206,0.339,0.333,0.803,0.285,1.186c-0.024,0.194-0.491,0.411-0.789,0.479
		c-0.652,0.149-1.323,0.246-1.991,0.297C42.824,63.067,42.188,63.029,41.475,63.029z"/>
	<path fill-rule="evenodd" clip-rule="evenodd" fill="#FFFFFF" d="M46.68,58.947c0.228-0.94,0.25-1.687,1.333-1.768
		c0.676-0.051,0.994,0.134,1.073,0.883c0.105,1,0.435,1.974,0.561,2.973c0.051,0.404-0.182,0.843-0.286,1.266
		c-0.37-0.255-0.76-0.488-1.102-0.776c-0.191-0.162-0.317-0.41-0.449-0.632C47.426,60.248,47.055,59.596,46.68,58.947z"/>
	<path fill-rule="evenodd" clip-rule="evenodd" fill="#FFFFFF" d="M97.067,56.573c-1.604,0-2.902-0.011-4.202,0.004
		c-0.76,0.009-0.771-0.487-0.784-1.038c-0.016-0.682,0.396-0.878,0.916-0.701c0.923,0.314,1.775,0.67,2.251-0.622
		c0.032-0.089,0.664-0.117,0.723-0.012C96.345,54.885,96.636,55.61,97.067,56.573z"/>
	<path fill-rule="evenodd" clip-rule="evenodd" fill="#FFFFFF" d="M66.413,55.465c-0.221-1.509-0.452-2.977-0.63-4.451
		c-0.025-0.206,0.199-0.62,0.334-0.631c0.312-0.026,0.79,0.033,0.93,0.241c0.251,0.371,0.343,0.869,0.428,1.327
		c0.137,0.732,0.186,1.48,0.323,2.212C67.99,55.191,67.786,55.445,66.413,55.465z"/>
	<path fill-rule="evenodd" clip-rule="evenodd" fill="#FFFFFF" d="M43.275,53.876c-0.126,0.508-0.163,0.939-0.338,1.304
		c-0.285,0.595-0.611,1.185-1.015,1.702c-0.253,0.324-0.681,0.513-1.031,0.762c-0.159-0.349-0.445-0.695-0.456-1.049
		C40.382,54.896,41.483,53.772,43.275,53.876z"/>
	<path fill-rule="evenodd" clip-rule="evenodd" fill="#FFFFFF" d="M72.544,32.34c0.248,1.544-0.512,2.476-0.996,3.463
		c-0.059,0.121-0.959,0.075-1.079-0.125c-0.313-0.528-0.742-1.524-0.534-1.727C70.608,33.299,71.546,32.919,72.544,32.34z"/>
	<path fill-rule="evenodd" clip-rule="evenodd" fill="#FFFFFF" d="M122.662,78.142c-0.168,0.897-0.261,1.701-0.479,2.471
		c-0.218,0.771-0.843,0.741-1.446,0.502c-0.622-0.247-1.13-0.614-0.852-1.416C120.182,78.85,121.421,78.077,122.662,78.142z"/>
	<path fill-rule="evenodd" clip-rule="evenodd" fill="#FFFFFF" d="M94.612,40.828c0.767,1.398-0.397,2.151-0.746,3.12
		c-0.062,0.174-0.588,0.336-0.802,0.252c-0.183-0.071-0.343-0.518-0.31-0.771c0.113-0.854,0.315-1.696,0.496-2.6
		C93.708,40.828,94.169,40.828,94.612,40.828z"/>
	<path fill-rule="evenodd" clip-rule="evenodd" fill="#FFFFFF" d="M23.489,70.296c-0.699,0.84-1.208,1.452-1.717,2.064
		c-0.392-0.53-0.784-1.061-1.176-1.59c0.587-0.426,1.148-0.902,1.783-1.239C22.516,69.459,22.92,69.891,23.489,70.296z"/>
	<path fill-rule="evenodd" clip-rule="evenodd" fill="#FFFFFF" d="M130.729,86.09c0.572,0.449,1.222,0.835,1.678,1.381
		c0.174,0.209,0.047,0.955-0.193,1.155c-0.351,0.292-0.934,0.418-1.405,0.393c-0.166-0.01-0.373-0.663-0.425-1.041
		c-0.072-0.533-0.019-1.084-0.019-1.628C130.486,86.264,130.608,86.177,130.729,86.09z"/>
	<path fill-rule="evenodd" clip-rule="evenodd" fill="#FFFFFF" d="M99.257,47.386c-0.564,0.729-1.024,1.366-1.556,1.937
		c-0.046,0.049-0.824-0.366-0.807-0.51c0.077-0.643,0.237-1.31,0.535-1.88c0.173-0.33,0.686-0.696,1.008-0.665
		C98.701,46.293,98.911,46.883,99.257,47.386z"/>
	<path fill-rule="evenodd" clip-rule="evenodd" fill="#FFFFFF" d="M67.817,57.088c0.354,0.31,0.885,0.557,1.024,0.944
		c0.229,0.637,0.239,1.365,0.235,2.054c0,0.074-0.711,0.23-1.071,0.183c-0.208-0.027-0.515-0.373-0.534-0.595
		c-0.065-0.781-0.025-1.57-0.025-2.356C67.57,57.241,67.693,57.165,67.817,57.088z"/>
	<path fill-rule="evenodd" clip-rule="evenodd" fill="#FFFFFF" d="M87.937,57.111c0.762-0.65-0.415-2.312,1.234-2.267
		c1.101,0.03,1.024,1.043,0.893,1.732C89.798,57.958,88.705,56.83,87.937,57.111z"/>
	<path fill-rule="evenodd" clip-rule="evenodd" fill="#FFFFFF" d="M119.239,78.312c-1.727,0.184-2.317-0.174-2.147-1.261
		c0.061-0.386,0.522-0.836,0.911-1.014c0.589-0.269,0.817,0.138,0.868,0.733C118.913,77.262,119.097,77.74,119.239,78.312z"/>
	<path fill-rule="evenodd" clip-rule="evenodd" fill="#FFFFFF" d="M87.763,33.178c-0.213,0.685-0.254,1.159-0.494,1.49
		c-0.22,0.302-0.654,0.447-0.994,0.662c-0.092-0.329-0.212-0.652-0.269-0.987c-0.057-0.335-0.191-0.784-0.037-1
		c0.252-0.351,0.685-0.666,1.097-0.766C87.26,32.53,87.585,33.015,87.763,33.178z"/>
	<path fill-rule="evenodd" clip-rule="evenodd" fill="#FFFFFF" d="M125.021,82.003c-0.105,0.74-0.211,1.479-0.315,2.22
		c-0.513-0.217-1.069-0.371-1.518-0.681c-0.189-0.131-0.302-0.78-0.192-0.867c0.497-0.391,1.087-0.665,1.643-0.981
		C124.766,81.796,124.894,81.899,125.021,82.003z"/>
	<path fill-rule="evenodd" clip-rule="evenodd" fill="#FFFFFF" d="M50.427,49.058c-0.068,0.942,0.011,1.867-1.163,2.037
		c-0.562,0.082-1.012-0.104-1.003-0.818C48.271,49.457,49.034,48.982,50.427,49.058z"/>
	<path fill-rule="evenodd" clip-rule="evenodd" fill="#FFFFFF" d="M24.105,68.831c-0.118-0.939,1.209-2.063,2.002-1.667
		c0.18,0.09,0.297,0.719,0.168,0.937C25.785,68.93,24.971,69.01,24.105,68.831z"/>
	<path fill-rule="evenodd" clip-rule="evenodd" fill="#FFFFFF" d="M29.612,63.594c0.308,0.575,0.647,0.955,0.565,1.103
		c-0.232,0.422-0.588,0.948-0.99,1.047c-0.271,0.066-0.704-0.52-1.063-0.814C28.541,64.555,28.958,64.181,29.612,63.594z"/>
	<path fill-rule="evenodd" clip-rule="evenodd" fill="#FFFFFF" d="M126.859,81.065c0.48,0.156,1.016,0.233,1.409,0.512
		c0.136,0.097,0.042,0.842-0.173,1.026c-0.279,0.239-1.077,0.384-1.141,0.274c-0.247-0.429-0.292-0.974-0.412-1.475
		C126.648,81.291,126.754,81.178,126.859,81.065z"/>
	<path fill-rule="evenodd" clip-rule="evenodd" fill="#FFFFFF" d="M72.123,57.72c0.276,0.453,0.669,0.88,0.774,1.369
		c0.046,0.214-0.472,0.759-0.778,0.798c-0.792,0.101-1.003-0.539-0.949-1.173c0.029-0.333,0.318-0.645,0.489-0.966
		C71.814,57.738,71.968,57.729,72.123,57.72z"/>
	<path fill-rule="evenodd" clip-rule="evenodd" fill="#FFFFFF" d="M73.701,31.823c0.561,0.097,0.938,0.061,1.16,0.228
		c0.246,0.185,0.352,0.557,0.518,0.847c-0.288,0.114-0.571,0.299-0.867,0.321c-0.25,0.019-0.536-0.114-0.769-0.247
		c-0.308-0.176-0.578-0.417-0.864-0.63C73.203,32.137,73.527,31.933,73.701,31.823z"/>
	<path fill-rule="evenodd" clip-rule="evenodd" fill="#FFFFFF" d="M19.185,72.52c-0.376,0.932-0.609,1.56-0.899,2.161
		c-0.039,0.08-0.528,0.056-0.536,0.021c-0.132-0.628-0.224-1.264-0.342-2.018C17.967,72.633,18.343,72.598,19.185,72.52z"/>
	<path fill-rule="evenodd" clip-rule="evenodd" fill="#FFFFFF" d="M114.568,69.501c0.531-0.491,0.819-0.758,1.107-1.024
		c0.258,0.302,0.721,0.607,0.717,0.906c-0.004,0.313-0.405,0.728-0.734,0.883C115.506,70.337,115.112,69.898,114.568,69.501z"/>
	<path fill-rule="evenodd" clip-rule="evenodd" fill="#FFFFFF" d="M90.508,36.583c-0.56,0.428-0.854,0.653-1.147,0.878
		c-0.24-0.319-0.638-0.623-0.671-0.962c-0.024-0.261,0.443-0.818,0.635-0.793C89.657,35.748,89.946,36.137,90.508,36.583z"/>
	<path fill-rule="evenodd" clip-rule="evenodd" fill="#FFFFFF" d="M114.217,74.308c0.544-0.33,0.854-0.663,1.152-0.653
		c0.243,0.008,0.715,0.529,0.666,0.642c-0.174,0.403-0.526,0.729-0.812,1.084C114.963,75.103,114.703,74.825,114.217,74.308z"/>
	<path fill-rule="evenodd" clip-rule="evenodd" fill="#FFFFFF" d="M66.059,44.229c0,0.539,0,1.077,0,1.613
		c-0.8,0.234-1.319-0.044-1.321-0.764c-0.002-0.845,0.64-0.971,1.353-0.818C66.09,44.26,66.059,44.229,66.059,44.229z"/>
	<path fill-rule="evenodd" clip-rule="evenodd" fill="#FFFFFF" d="M82.628,39.81c-0.372-0.436-0.587-0.687-0.801-0.938
		c0.287-0.18,0.578-0.507,0.862-0.5c0.299,0.006,0.591,0.332,0.886,0.518C83.312,39.143,83.051,39.398,82.628,39.81z"/>
	<path fill-rule="evenodd" clip-rule="evenodd" fill="#FFFFFF" d="M85.422,31.88c-0.425-0.561-0.712-0.849-0.854-1.196
		c-0.034-0.083,0.469-0.559,0.619-0.512c0.299,0.092,0.625,0.381,0.742,0.669C86,31.016,85.7,31.341,85.422,31.88z"/>
	<path fill-rule="evenodd" clip-rule="evenodd" fill="#FFFFFF" d="M79.115,44.299c-0.539,0.349-0.887,0.696-1.01,0.629
		c-0.303-0.165-0.574-0.489-0.71-0.812c-0.058-0.139,0.35-0.639,0.383-0.624C78.154,43.666,78.498,43.908,79.115,44.299z"/>
	<path fill-rule="evenodd" clip-rule="evenodd" fill="#FFFFFF" d="M128.587,85.04c0.59-0.255,0.893-0.503,1.066-0.434
		c0.294,0.119,0.506,0.439,0.752,0.675c-0.235,0.141-0.481,0.408-0.704,0.391C129.428,85.65,129.174,85.391,128.587,85.04z"/>
	<path fill-rule="evenodd" clip-rule="evenodd" d="M78.01,71.409c1.05-0.329,1.994-0.912,3.26-0.56
		c0.783,0.218,1.679-0.005,2.498,0.129c0.396,0.064,0.951,0.426,1.055,0.769c0.411,1.349,0.787,2.73,0.954,4.125
		c0.16,1.334,0.846,2.707,0.066,4.044c-0.209,0.358-0.581,0.765-0.953,0.86c-1.717,0.442-3.501,0.656-5.179,1.205
		c-1.118,0.366-1.522-0.168-1.556-0.948c-0.101-2.395-0.066-4.797-0.017-7.194c0.005-0.268,0.445-0.526,0.685-0.79
		c0.193,0.304,0.543,0.602,0.555,0.912c0.065,1.717,0.083,3.438,0.044,5.155c-0.018,0.817,0.215,1.239,1.081,1.074
		c1.241-0.237,2.482-0.479,3.713-0.763c0.155-0.036,0.34-0.338,0.354-0.527c0.152-2.044-0.077-4.05-0.905-5.931
		c-0.147-0.335-0.765-0.603-1.193-0.65C81,72.153,79.517,72.1,78.039,72.004C78.029,71.805,78.02,71.607,78.01,71.409z"/>
	<path fill-rule="evenodd" clip-rule="evenodd" d="M48.46,73.544c-0.292-1.053,0.271-1.692,1.708-1.93
		c0.781-0.129,1.556-0.296,2.597-0.498c0.545,2.824,0.971,5.837,0.794,9.051c-1.093,0-2.039-0.035-2.982,0.01
		c-0.905,0.044-1.809,0.144-2.707,0.267c-1.876,0.257-3.594-1.258-3.491-3.215c0.06-1.135,0.265-2.272,0.529-3.379
		c0.075-0.315,0.586-0.526,0.897-0.785c0.208,0.49,0.731,1.229,0.572,1.43c-0.931,1.184,0.141,2.385-0.154,3.544
		c-0.025,0.099,0.357,0.419,0.569,0.44c1.381,0.137,2.768,0.224,4.152,0.318c0.795,0.054,1.188-0.306,1.168-1.126
		c-0.026-1.077-0.029-2.154-0.026-3.232c0.002-0.875-0.452-1.234-1.284-1.158C50.023,73.353,49.246,73.454,48.46,73.544z"/>
</g>
</svg>
