<?xml version="1.0" encoding="utf-8"?>
<!-- Generator: Adobe Illustrator 16.0.0, SVG Export Plug-In . SVG Version: 6.00 Build 0)  -->
<!DOCTYPE svg PUBLIC "-//W3C//DTD SVG 1.1//EN" "http://www.w3.org/Graphics/SVG/1.1/DTD/svg11.dtd">
<svg version="1.1" id="Layer_1" xmlns="http://www.w3.org/2000/svg" xmlns:xlink="http://www.w3.org/1999/xlink" x="0px" y="0px"
	 width="144px" height="144px" viewBox="0 0 144 144" enable-background="new 0 0 144 144" xml:space="preserve">
<g>
	<path fill="#FFFFFF" d="M56.602,103.712c-1.202,0.662-2.111,0.18-3.179-0.313c-0.8-0.37-1.686-1.226-2.801-0.562
		c-1.622,0.965-2.96,0.31-3.33-1.584c-0.458-2.345,0.136-4.617,1.147-6.601c1.696-3.327,3.714-6.503,5.761-9.634
		c1.18-1.806,2.162-4.007,4.465-4.649c2.09-0.584,4.27-0.923,6.433-1.148c2.653-0.276,5.331-0.312,7.997-0.472
		c2.387-0.142,3.278,0.598,4.31,2.757c1.122,2.349,1.819,4.868,3.115,7.145c0.982,1.725,1.84,3.531,2.605,5.363
		c0.81,1.936,1.646,3.899,2.104,5.934c0.554,2.469-1.325,4.137-3.818,3.931c-1.49-0.122-3.019,0.104-4.52,0.266
		c-0.72,0.078-1.08,0.505-0.913,1.36c0.117,0.601,0.015,1.275-0.12,1.888c-0.268,1.22,0.286,2.316,1.51,2.442
		c1.287,0.133,2.599,0.053,3.898,0.023c1.431-0.032,2.86-0.126,4.291-0.167c0.915-0.026,1.832-0.011,2.747-0.003
		c1.195,0.01,2.39,0.038,3.584,0.047c2.271,0.017,4.541,0.031,6.812,0.036c1.473,0.002,2.945-0.034,4.417-0.017
		c0.751,0.01,1.503,0.162,2.252,0.144c1.709-0.041,3.417-0.226,5.124-0.211c2.745,0.022,5.489,0.237,8.233,0.22
		c2.07-0.013,4.138-0.303,6.211-0.393c1.915-0.082,2.975-2.047,2.093-3.803c-0.338-0.674-0.548-1.536-0.466-2.274
		c0.213-1.929-0.222-2.479-2.219-2.396c-1.063,0.045-2.129,0.066-3.192,0.121c-0.66,0.033-1.33,0.051-1.975,0.179
		c-0.909,0.182-1.602,0.263-1.887-0.952c-0.201-0.858-0.713-1.658-1.158-2.443c-2.178-3.842-4.377-7.672-6.574-11.503
		c-0.635-1.107-1.327-2.185-1.918-3.313c-0.324-0.618-0.333-1.454-0.761-1.955c-1.498-1.752-2.724-3.625-3.439-5.837
		c-0.267-0.824-0.842-1.547-1.122-2.368c-0.62-1.818-2.612-3.142-1.966-5.415c-0.846-0.812-1.516-1.721-1.604-2.945
		c-2.261-1.146-2.354-3.663-3.441-5.54c-0.881-1.521-1.374-3.261-2.172-4.836c-0.552-1.089-1.521-1.988-1.965-3.107
		c-0.667-1.682-1.222-3.341-2.277-4.895c-2.241-3.3-3.528-7.154-5.743-10.5c-1.052-1.589-2.013-3.258-2.829-4.979
		c-1.274-2.686-2.4-5.443-3.565-8.181c-0.183-0.431-0.466-1.013-0.316-1.357c0.622-1.439-0.388-2.249-1.064-3.193
		c-0.446-0.622-0.871-0.337-1.069,0.178c-0.403,1.05-0.673,2.151-1.065,3.206c-0.883,2.374-1.709,4.775-2.741,7.084
		c-1.201,2.688-2.774,5.216-3.871,7.94c-2.384,5.923-5.965,11.163-9.078,16.675c-1.621,2.871-3.064,5.913-4.061,9.045
		c-1.081,3.395-2.308,6.703-3.95,9.835c-1.758,3.354-3.779,6.569-5.638,9.871c-0.957,1.7-1.851,3.439-2.705,5.194
		c-0.906,1.862-1.666,3.798-2.608,5.642c-1.193,2.335-2.301,4.757-3.82,6.873c-1.806,2.518-4.694,3.585-7.56,4.531
		c-1.44,0.475-2.93,0.859-4.277,1.527c-0.579,0.286-1.231,1.216-1.19,1.807c0.106,1.522,0.605,3.015,0.898,4.528
		c0.154,0.795,0.489,1.363,1.357,1.418c1.229,0.076,2.463,0.197,3.689,0.153c1.508-0.054,3.008-0.313,4.516-0.384
		c2.742-0.126,5.487-0.163,8.23-0.266c2.666-0.1,5.33-0.289,7.996-0.338c2.556-0.048,5.138,0.488,7.594-0.786
		c0.867-0.45,1.483-0.829,1.418-1.918c-0.038-0.628,0.025-1.299,0.215-1.896C58.182,106.295,57.548,105.007,56.602,103.712z"/>
	<path fill-rule="evenodd" clip-rule="evenodd" d="M56.602,103.712c0.946,1.295,1.58,2.583,1.055,4.231
		c-0.19,0.597-0.253,1.268-0.215,1.896c0.065,1.089-0.552,1.468-1.418,1.918c-2.456,1.274-5.039,0.738-7.594,0.786
		c-2.666,0.049-5.33,0.238-7.996,0.338c-2.743,0.103-5.489,0.14-8.23,0.266c-1.508,0.07-3.008,0.33-4.516,0.384
		c-1.227,0.044-2.46-0.077-3.689-0.153c-0.868-0.055-1.203-0.623-1.357-1.418c-0.293-1.514-0.792-3.006-0.898-4.528
		c-0.041-0.591,0.611-1.521,1.19-1.807c1.347-0.668,2.837-1.053,4.277-1.527c2.865-0.946,5.753-2.014,7.56-4.531
		c1.519-2.116,2.626-4.538,3.82-6.873c0.942-1.844,1.702-3.779,2.608-5.642c0.854-1.755,1.748-3.494,2.705-5.194
		c1.859-3.302,3.88-6.518,5.638-9.871c1.642-3.132,2.869-6.441,3.95-9.835c0.997-3.132,2.44-6.175,4.061-9.045
		c3.113-5.512,6.694-10.752,9.078-16.675c1.097-2.724,2.67-5.252,3.871-7.94c1.032-2.309,1.858-4.71,2.741-7.084
		c0.393-1.055,0.662-2.156,1.065-3.206c0.198-0.515,0.623-0.8,1.069-0.178c0.677,0.944,1.687,1.753,1.064,3.193
		c-0.149,0.345,0.134,0.927,0.316,1.357c1.165,2.737,2.291,5.495,3.565,8.181c0.816,1.721,1.777,3.39,2.829,4.979
		c2.215,3.346,3.502,7.2,5.743,10.5c1.056,1.554,1.61,3.213,2.277,4.895c0.444,1.119,1.413,2.018,1.965,3.107
		c0.798,1.575,1.291,3.315,2.172,4.836c1.087,1.877,1.181,4.394,3.441,5.54c0.089,1.225,0.759,2.133,1.604,2.945
		c-0.646,2.273,1.346,3.597,1.966,5.415c0.28,0.821,0.855,1.544,1.122,2.368c0.716,2.212,1.941,4.085,3.439,5.837
		c0.428,0.501,0.437,1.337,0.761,1.955c0.591,1.129,1.283,2.206,1.918,3.313c2.197,3.831,4.396,7.661,6.574,11.503
		c0.445,0.785,0.957,1.585,1.158,2.443c0.285,1.215,0.978,1.134,1.887,0.952c0.645-0.128,1.314-0.146,1.975-0.179
		c1.063-0.055,2.129-0.076,3.192-0.121c1.997-0.084,2.432,0.467,2.219,2.396c-0.082,0.738,0.128,1.601,0.466,2.274
		c0.882,1.756-0.178,3.721-2.093,3.803c-2.073,0.09-4.141,0.38-6.211,0.393c-2.744,0.018-5.488-0.197-8.233-0.22
		c-1.707-0.015-3.415,0.17-5.124,0.211c-0.749,0.019-1.501-0.134-2.252-0.144c-1.472-0.018-2.944,0.019-4.417,0.017
		c-2.271-0.005-4.541-0.02-6.812-0.036c-1.194-0.009-2.389-0.037-3.584-0.047c-0.915-0.008-1.832-0.023-2.747,0.003
		c-1.431,0.041-2.86,0.135-4.291,0.167c-1.3,0.029-2.611,0.109-3.898-0.023c-1.224-0.126-1.777-1.223-1.51-2.442
		c0.135-0.612,0.237-1.287,0.12-1.888c-0.167-0.855,0.193-1.282,0.913-1.36c1.501-0.161,3.029-0.388,4.52-0.266
		c2.493,0.206,4.372-1.462,3.818-3.931c-0.457-2.034-1.294-3.998-2.104-5.934c-0.766-1.832-1.623-3.639-2.605-5.363
		c-1.296-2.276-1.993-4.796-3.115-7.145c-1.031-2.159-1.923-2.898-4.31-2.757c-2.666,0.159-5.343,0.195-7.997,0.472
		c-2.164,0.226-4.343,0.564-6.433,1.148c-2.303,0.643-3.285,2.844-4.465,4.649c-2.047,3.131-4.065,6.307-5.761,9.634
		c-1.011,1.983-1.605,4.256-1.147,6.601c0.37,1.894,1.708,2.549,3.33,1.584c1.115-0.664,2.001,0.191,2.801,0.562
		C54.491,103.892,55.4,104.374,56.602,103.712z M67.615,67.209c0.213-0.045,0.683-0.122,1.14-0.246
		c1.474-0.4,1.486-0.455,1.022-1.855c-0.299-0.904-0.582-1.816-0.81-2.74c-0.437-1.775-0.799-3.57-1.265-5.337
		c-0.095-0.359-0.514-0.634-0.784-0.947c-0.251,0.274-0.567,0.513-0.742,0.83c-1.417,2.572-2.804,5.161-4.207,7.74
		c-0.552,1.015-0.347,1.597,0.793,1.815C64.281,66.761,65.821,66.941,67.615,67.209z M73.642,66.139
		c-0.621-1.433-1.151-2.76-1.781-4.039c-0.171-0.347-0.641-0.547-0.973-0.815c-0.041,0.416-0.217,0.876-0.098,1.24
		c0.424,1.303,0.932,2.58,1.455,3.847c0.079,0.192,0.455,0.433,0.611,0.384C73.136,66.67,73.354,66.381,73.642,66.139z
		 M119.264,106.881c0.617-0.326,1.142-0.603,1.666-0.879c-0.472-0.275-0.968-0.803-1.41-0.761c-0.522,0.048-0.999,0.588-1.495,0.915
		C118.396,106.373,118.766,106.59,119.264,106.881z M74.287,57.777c-0.092-0.182-0.183-0.363-0.273-0.544
		c-0.653,0.044-1.307,0.089-1.96,0.133c0.273,0.622,0.546,1.244,0.819,1.866C73.345,58.748,73.815,58.262,74.287,57.777z
		 M75.923,31.677c0.438-0.543,0.922-0.88,0.923-1.218c0.001-0.327-0.494-0.656-0.771-0.983c-0.293,0.421-0.642,0.819-0.845,1.281
		C75.174,30.884,75.552,31.201,75.923,31.677z M115.074,107.365c0.207-0.099,0.415-0.198,0.623-0.297
		c0.249-0.282,0.6-0.533,0.7-0.861c0.047-0.15-0.517-0.687-0.597-0.646c-0.386,0.197-0.804,0.477-1.001,0.841
		C114.687,106.612,114.97,107.037,115.074,107.365z M124.501,102.823c-0.188,0.123-0.378,0.246-0.566,0.368
		c-0.216,0.231-0.433,0.463-0.648,0.693c0.267,0.232,0.532,0.645,0.799,0.645c0.244,0,0.627-0.412,0.693-0.702
		C124.847,103.529,124.606,103.161,124.501,102.823z M79.87,78.105c0.158,0.169,0.316,0.339,0.475,0.508
		c0.363-0.309,0.728-0.617,1.091-0.927c-0.192-0.166-0.505-0.506-0.558-0.47C80.512,77.469,80.2,77.8,79.87,78.105z"/>
	<path fill-rule="evenodd" clip-rule="evenodd" fill="#FFFFFF" d="M67.615,67.209c-1.794-0.268-3.334-0.448-4.852-0.74
		c-1.141-0.219-1.346-0.801-0.793-1.815c1.403-2.58,2.79-5.168,4.207-7.74c0.175-0.317,0.491-0.556,0.742-0.83
		c0.27,0.313,0.689,0.588,0.784,0.947c0.466,1.768,0.828,3.562,1.265,5.337c0.228,0.924,0.511,1.836,0.81,2.74
		c0.464,1.401,0.452,1.455-1.022,1.855C68.298,67.088,67.829,67.164,67.615,67.209z"/>
	<path fill-rule="evenodd" clip-rule="evenodd" fill="#FFFFFF" d="M73.642,66.139c-0.288,0.242-0.506,0.531-0.786,0.618
		c-0.156,0.048-0.532-0.192-0.611-0.384c-0.523-1.267-1.03-2.544-1.455-3.847c-0.119-0.364,0.057-0.824,0.098-1.24
		c0.333,0.268,0.802,0.468,0.973,0.815C72.49,63.379,73.021,64.706,73.642,66.139z"/>
	<path fill-rule="evenodd" clip-rule="evenodd" fill="#FFFFFF" d="M119.264,106.881c-0.498-0.291-0.868-0.508-1.239-0.725
		c0.496-0.327,0.973-0.867,1.495-0.915c0.442-0.042,0.938,0.485,1.41,0.761C120.405,106.278,119.881,106.555,119.264,106.881z"/>
	<path fill-rule="evenodd" clip-rule="evenodd" fill="#FFFFFF" d="M74.287,57.777c-0.472,0.485-0.942,0.97-1.414,1.455
		c-0.273-0.622-0.546-1.244-0.819-1.866c0.653-0.044,1.307-0.089,1.96-0.133C74.104,57.414,74.195,57.596,74.287,57.777z"/>
	<path fill-rule="evenodd" clip-rule="evenodd" fill="#FFFFFF" d="M75.923,31.677c-0.371-0.476-0.749-0.793-0.693-0.92
		c0.203-0.461,0.552-0.859,0.845-1.281c0.277,0.328,0.772,0.656,0.771,0.983C76.845,30.797,76.361,31.134,75.923,31.677z"/>
	<path fill-rule="evenodd" clip-rule="evenodd" fill="#FFFFFF" d="M115.074,107.365c-0.104-0.328-0.388-0.753-0.274-0.963
		c0.197-0.364,0.615-0.644,1.001-0.841c0.08-0.041,0.644,0.495,0.597,0.646c-0.101,0.328-0.451,0.579-0.7,0.861
		C115.489,107.167,115.281,107.267,115.074,107.365z"/>
	<path fill-rule="evenodd" clip-rule="evenodd" fill="#FFFFFF" d="M124.501,102.823c0.105,0.338,0.346,0.706,0.277,1.004
		c-0.066,0.29-0.449,0.702-0.693,0.702c-0.267,0-0.532-0.412-0.799-0.645c0.216-0.23,0.433-0.462,0.648-0.693
		C124.123,103.069,124.312,102.946,124.501,102.823z"/>
	<path fill-rule="evenodd" clip-rule="evenodd" fill="#FFFFFF" d="M79.87,78.105c0.33-0.306,0.642-0.637,1.008-0.889
		c0.053-0.036,0.365,0.304,0.558,0.47c-0.363,0.31-0.728,0.618-1.091,0.927C80.187,78.444,80.028,78.274,79.87,78.105z"/>
</g>
</svg>
