<?xml version="1.0" encoding="utf-8"?>
<!-- Generator: Adobe Illustrator 16.0.0, SVG Export Plug-In . SVG Version: 6.00 Build 0)  -->
<!DOCTYPE svg PUBLIC "-//W3C//DTD SVG 1.1//EN" "http://www.w3.org/Graphics/SVG/1.1/DTD/svg11.dtd">
<svg version="1.1" id="Layer_1" xmlns="http://www.w3.org/2000/svg" xmlns:xlink="http://www.w3.org/1999/xlink" x="0px" y="0px"
	 width="144px" height="144px" viewBox="0 0 144 144" enable-background="new 0 0 144 144" xml:space="preserve">
<g>
	<path fill="#FFFFFF" d="M38.793,71.307c0.651,0.255,1.304,0.508,1.954,0.765c0.94,0.371,1.185-0.038,1.107-0.725
		c-0.718-0.063-1.329-0.144-1.941-0.159c-0.372-0.01-0.746,0.082-1.119,0.127c-0.356-0.411-0.709-0.826-1.071-1.232
		c-0.828-0.931-1.97-1.734-2.407-2.821c-0.457-1.134-0.718-2.784-0.215-3.778c1.119-2.21,2.64-4.286,5.303-5.014
		c0.18-0.049,0.275-0.408,0.409-0.623c-0.079-0.077-0.158-0.155-0.237-0.232c-0.855,0.461-1.851,0.773-2.534,1.417
		c-1.218,1.147-2.457,2.368-3.307,3.786c-1.326,2.21-1.964,3.565,0.577,5.887C36.41,69.708,37.516,70.597,38.793,71.307z
		 M46.63,27.391c0.479-0.455,1.011-0.865,1.427-1.371c0.971-1.183,1.72-2.614,2.873-3.564c1.12-0.923,2.629-1.374,3.97-2.026
		c1.175-0.572,2.303-1.412,3.542-1.636c1.653-0.299,3.287-0.497,4.852-1.193c2.211-0.985,4.497-1.781,6.913-2.138
		c2.6-0.384,5.196-0.792,7.795-1.174c0.271-0.04,0.565-0.013,0.834,0.048c2.06,0.468,4.155,0.828,6.162,1.466
		c2.003,0.637,3.935,1.518,5.858,2.377c0.781,0.349,1.467,0.916,2.187,1.397c0.773,0.519,1.546,1.041,2.301,1.587
		c0.32,0.231,0.606,0.515,0.885,0.798c0.82,0.834,1.688,1.63,2.426,2.533c0.938,1.147,1.942,2.179,3.423,2.524
		c0.322,0.075,0.816-0.19,1.082-0.451c0.119-0.117-0.021-0.721-0.226-0.911c-1.402-1.31-2.775-2.671-4.303-3.824
		c-3-2.264-5.948-4.646-9.517-6.004c-1.976-0.752-3.953-1.705-6.01-1.986c-2.252-0.308-4.427-0.982-6.873-0.692
		c-2.673,0.317-5.257,0.796-7.789,1.584c-3.781,1.177-7.521,2.488-11.268,3.775c-2.636,0.905-5.243,1.898-7.238,3.967
		C48.568,23.896,46.779,25.019,46.63,27.391z M111.095,28.694c-0.417,0.277-0.874,0.438-1.104,0.761
		c-0.785,1.104-1.473,2.277-2.23,3.4c-0.771,1.142-1.629,2.229-2.343,3.404c-0.177,0.291-0.105,0.974,0.125,1.232
		c1.552,1.734,1.505,3.576,0.465,5.481c-0.482,0.883-0.436,1.58,0.233,2.162c1.83-2.886,3.652-5.725,5.433-8.59
		c0.472-0.759,0.811-1.6,1.218-2.399c0.407-0.8,0.826-1.594,1.236-2.392c0.388-0.756,0.73-1.512-0.347-2.387
		c-0.349,0.684-0.628,1.32-0.985,1.909c-0.39,0.641-0.814,1.305-1.787,1C110.502,31.033,112.287,29.769,111.095,28.694z
		 M34.15,40.571c0.286,0.406,0.351,0.607,0.461,0.638c1.127,0.309,1.465,1.223,1.731,2.198c0.154,0.565,0.421,1.131,0.421,1.698
		c0.001,0.402-0.262,1.037-0.573,1.167c-1.12,0.463-1.069,1.384-0.797,2.158c0.29,0.823,1.025,1.541,2.029,1.28
		c1.578-0.41,3.118-0.97,4.663-1.498c0.309-0.105,0.569-0.351,0.856-0.534c-1.126-1.55-1.015-1.831,0.4-2.801
		c0.412-0.282,0.586-1.072,0.623-1.646c0.012-0.191-0.726-0.506-1.159-0.629c-0.56-0.159-1.18-0.111-1.737-0.277
		c-1.539-0.458-3.047-1.018-4.59-1.459C35.817,40.677,35.101,40.684,34.15,40.571z M104.921,50.105
		c0.52,0.744,1.02,1.594,1.671,2.307c0.176,0.192,0.935,0.125,1.207-0.095c0.741-0.597,1.327-1.383,2.045-2.013
		c1.368-1.202,2.75-2.393,4.196-3.498c0.849-0.648,0.917-1.448-0.068-2.301c-0.62,0.713-1.182,1.495-1.889,2.111
		c-0.306,0.266-0.909,0.19-1.378,0.27c0.039-0.391-0.054-0.872,0.139-1.159c1.029-1.529,2.129-3.01,3.244-4.564
		c-0.195-0.327-0.421-0.704-0.766-1.277C110.479,43.346,107.784,46.623,104.921,50.105z M107.515,72.041
		c-0.703,1.399-1.484,2.658-1.992,4.018c-1.354,3.627-2.516,7.325-3.893,10.942c-1.536,4.037-3.222,8.019-4.853,12.02
		c-0.475,1.164-0.982,2.315-1.48,3.47c-0.688,1.591-1.388,3.177-2.07,4.771c-0.336,0.783-0.644,1.579-0.964,2.37
		c0.141,0.068,0.281,0.137,0.422,0.205c0.358-0.614,0.75-1.212,1.067-1.847c0.473-0.945,0.891-1.918,1.335-2.878
		c0.296-0.638,0.619-1.264,0.886-1.913c0.133-0.322,0.105-0.717,0.26-1.023c0.702-1.394,1.552-2.722,2.151-4.155
		c1.552-3.713,2.991-7.472,4.489-11.207c1.762-4.392,3.51-8.789,5.334-13.155C108.537,72.865,108.39,72.483,107.515,72.041z
		 M54.439,110.077c0.163-0.041,0.325-0.082,0.488-0.122c0.13-0.509,0.476-1.077,0.354-1.515c-0.431-1.544-0.989-3.057-1.56-4.558
		c-0.909-2.386-1.919-4.734-2.793-7.133c-1.584-4.348-3.108-8.717-4.64-13.083c-0.599-1.704-1.114-3.438-1.74-5.133
		c-0.513-1.39-0.816-1.495-1.696-1.023c1.267,3.576,2.497,7.128,3.784,10.659c0.983,2.696,2.015,5.375,3.068,8.044
		c1.009,2.557,2.142,5.065,3.083,7.646c0.439,1.205,0.515,2.537,0.829,3.794C53.822,108.479,54.16,109.271,54.439,110.077z
		 M44.799,33.021c-0.475,0-0.909,0.136-1.088-0.021c-2.293-1.993-4.55-4.029-6.854-6.088c-0.339,0.208-0.735,0.45-1.348,0.826
		c1.136,1.572,2.123,3.128,3.307,4.517c1.064,1.249,2.275,2.4,3.559,3.422c0.575,0.458,1.505,0.984,2.186-0.118
		c0.267-0.432,0.625-0.805,0.925-1.217c0.987-1.354,0.929-1.588-0.686-2.609C44.799,32.157,44.799,32.54,44.799,33.021z
		 M68.768,84.777c0.895,1.228,1.793,2.472,2.703,3.708c0.656,0.891,1.887,0.771,2.305-0.229c0.119-0.283,0.241-0.6,0.229-0.896
		c-0.078-1.953-0.121-3.911-0.313-5.854c-0.206-2.075-0.723-4.129-0.817-6.204c-0.143-3.115-0.035-6.241-0.033-9.362
		c0-0.82,0-1.64,0-2.529c-1.156,0.253-1.355,0.762-1.327,1.551c0.146,4.093,0.218,8.189,0.375,12.281
		c0.036,0.938,0.325,1.865,0.46,2.803c0.334,2.31,0.686,4.618,0.914,6.939c0.025,0.252-0.706,0.794-1.091,0.799
		c-0.288,0.004-0.684-0.601-0.857-1.008C70.806,85.575,70.091,84.723,68.768,84.777z M109.258,68.245
		c0.642-0.169,1.224-0.273,1.768-0.477c1.729-0.644,3.441-1.33,5.165-1.989c0.924-0.354,1.291-1.05,0.809-1.951
		c-0.724-1.351-1.582-2.628-2.376-3.941c-0.879-1.453-2.14-2.479-3.501-3.478c-0.996-0.731-1.713-0.798-2.835,0.156
		c0.546,0.354,0.955,0.711,1.431,0.907c0.608,0.25,1.479,0.17,1.869,0.581c1.107,1.168,2.172,2.432,2.969,3.822
		c0.455,0.793,0.404,1.902,0.47,2.877c0.017,0.25-0.347,0.696-0.611,0.766c-1.28,0.336-2.578,0.626-3.886,0.833
		C109.306,66.546,108.809,67.18,109.258,68.245z M32.223,35.223c-0.102,0.123-0.203,0.245-0.305,0.367
		c3.97,0.871,7.272,3.011,10.699,5.426c0-0.775,0.169-1.418-0.045-1.882c-0.233-0.502-0.779-0.905-1.268-1.234
		c-1.687-1.135-3.397-2.235-5.118-3.318c-1.15-0.724-2.334-1.395-3.611-2.154C32.433,33.564,32.328,34.394,32.223,35.223z
		 M73.621,115.585c0.153,0.021,0.308,0.04,0.461,0.061c0.479-0.82,1.005-1.618,1.427-2.469c0.502-1.013,0.934-2.063,1.356-3.113
		c0.177-0.437,0.252-0.914,0.373-1.374c-0.5,0.153-1.021,0.259-1.489,0.479c-0.214,0.101-0.293,0.456-0.483,0.646
		c-0.606,0.604-1.255,0.469-1.659-0.306c-0.151-0.291-0.353-0.556-0.746-1.165c-0.157,0.391-0.189,0.561-0.281,0.687
		c-1.07,1.471,0.075,2.896,0.137,4.335C72.748,114.117,73.303,114.846,73.621,115.585z M59.517,95.989
		c0.935,0.655,1.64,0.827,2.461,0.054c0.696-0.656,1.616-0.847,2.532-0.401c1.11,0.54,3.498,0.022,4.369-0.884
		c0.335-0.35,0.88-0.52,1.354-0.705c0.378-0.148,0.8-0.186,1.188-0.314c0.032-0.011-0.018-0.505-0.079-0.516
		c-0.455-0.087-0.924-0.147-1.386-0.131c-0.211,0.007-0.408,0.283-0.625,0.307c-0.668,0.07-1.345,0.063-2.016,0.111
		c-0.842,0.061-1.684,0.133-2.522,0.227c-0.545,0.061-1.083,0.189-1.629,0.247c-0.212,0.021-0.51-0.18-0.645-0.091
		C61.538,94.537,60.589,95.231,59.517,95.989z M89.381,122.976c0.228-0.57,0.512-1.046,0.603-1.557
		c0.202-1.139,0.773-2.147-0.028-3.477c-0.641-1.062-1.149-2.656,0.377-3.873c0.511-0.407,0.671-1.255,0.992-1.901
		c-0.095-0.04-0.19-0.081-0.285-0.121c-1.558,2.212-3.116,4.424-4.754,6.749c0.64,0.081,1.098,0.14,1.484,0.189
		c0.187,0.507,0.346,0.927,0.495,1.35c0.129,0.365,0.454,0.836,0.333,1.084C88.227,122.18,88.588,122.518,89.381,122.976z
		 M95.853,60.309c0.045-0.191,0.09-0.383,0.135-0.575c-0.814-0.235-1.618-0.617-2.446-0.678c-2.647-0.197-5.305-0.267-7.956-0.406
		c-0.467-0.025-0.933-0.129-1.392-0.228c-1.231-0.266-2.45-0.605-3.693-0.796c-0.404-0.062-0.865,0.242-1.301,0.378
		c0.026,0.15,0.053,0.3,0.079,0.449c2.15,0.378,4.293,0.829,6.456,1.117c2.425,0.323,4.867,0.523,7.307,0.726
		C93.972,60.374,94.915,60.309,95.853,60.309z M46.224,27.947c-0.019-0.099-0.039-0.197-0.058-0.296
		c-2.554-0.027-4.613-1.263-6.631-2.573c-1.153-0.748-2.39-1.437-3.349-2.392c-0.997-0.993-1.972-1.532-3.554-1.141
		c1.453,1.046,2.732,2.088,4.127,2.941c1.665,1.018,3.39,1.956,5.162,2.77c1.164,0.534,2.45,0.809,3.698,1.141
		C45.77,28.437,46.02,28.106,46.224,27.947z M64.777,57.91c0.066-0.128,0.132-0.256,0.198-0.384
		c-0.479-0.214-0.961-0.614-1.439-0.61c-1.751,0.016-3.502,0.26-5.251,0.243c-1.974-0.02-3.945-0.239-5.919-0.346
		c-0.556-0.03-1.119,0.003-1.673,0.059c-0.148,0.015-0.364,0.201-0.392,0.341c-0.03,0.151,0.104,0.477,0.198,0.49
		c0.991,0.134,1.994,0.336,2.983,0.291c1.085-0.05,2.159-0.492,3.237-0.492c2.017,0,4.033,0.197,6.05,0.309
		C63.437,57.847,64.107,57.877,64.777,57.91z M62.323,126.892c-0.16-0.433-0.181-0.844-0.371-0.948
		c-2.005-1.1-2.615-3.18-3.523-5.023c-0.315-0.639-0.472-1.466-0.387-2.169c0.178-1.478,0.077-1.663-1.41-1.442
		C56.301,120.177,59.526,125.803,62.323,126.892z M61.136,67.246c0.412-0.424,0.722-0.787,1.077-1.1
		c0.757-0.667,1.399-1.401,1.322-2.484c-0.022-0.31-0.185-0.711-0.419-0.87c-0.167-0.113-0.622,0.032-0.844,0.199
		c-0.957,0.723-1.875,1.497-2.925,2.349C59.93,65.963,60.498,66.567,61.136,67.246z M83.907,63.217
		c-0.591,0.231-1.269,0.328-1.686,0.709c-0.408,0.374-0.837,1.095-0.743,1.56c0.13,0.644,0.629,1.461,1.182,1.688
		c0.387,0.158,1.351-0.408,1.663-0.901C84.979,65.239,84.666,64.153,83.907,63.217z M78.203,127.533
		c-0.225-1.637-0.421-3.07-0.617-4.504c-0.155-0.017-0.311-0.033-0.466-0.05c-0.928,1.345-0.466,3.108-1.303,4.67
		C76.651,127.608,77.271,127.578,78.203,127.533z M79.176,93.169c-1.572,0.27-2.907,0.499-4.147,0.711
		c1.152,0.741,2.367,1.522,3.681,2.367C78.884,95.098,79.035,94.098,79.176,93.169z M109.206,24.849
		c-0.585,0.3-0.957,0.369-1.105,0.588c-0.876,1.287-1.727,2.593-2.508,3.938c-0.111,0.192,0.195,0.627,0.428,1.285
		C107.012,28.524,108.718,27.22,109.206,24.849z M72.776,101.961c0.186-0.006,0.37-0.012,0.555-0.018
		c0.336-1.201,0.671-2.401,1.035-3.707c-0.831,0.001-1.852-0.406-1.992,0.599C72.234,99.839,72.621,100.916,72.776,101.961z
		 M87.952,95.735c0.042-0.13,0.083-0.26,0.124-0.39c-1.105-0.351-2.212-0.701-3.317-1.053c-0.049,0.156-0.098,0.312-0.147,0.47
		C85.726,95.087,86.839,95.411,87.952,95.735z M84.531,130.215c0.019,0.131,0.036,0.262,0.055,0.393
		c0.846-0.066,1.691-0.133,2.537-0.198c-0.026-0.175-0.053-0.349-0.079-0.522C86.207,129.996,85.369,130.105,84.531,130.215z"/>
	<path fill-rule="evenodd" clip-rule="evenodd" d="M46.63,27.391c0.149-2.372,1.938-3.495,3.306-4.913
		c1.995-2.068,4.602-3.062,7.238-3.967c3.747-1.287,7.487-2.598,11.268-3.775c2.532-0.788,5.116-1.268,7.789-1.584
		c2.446-0.291,4.621,0.384,6.873,0.692c2.057,0.281,4.034,1.233,6.01,1.986c3.568,1.359,6.517,3.74,9.517,6.004
		c1.527,1.153,2.9,2.514,4.303,3.824c0.204,0.19,0.345,0.794,0.226,0.911c-0.266,0.26-0.76,0.525-1.082,0.451
		c-1.48-0.346-2.485-1.377-3.423-2.524c-0.737-0.903-1.605-1.699-2.426-2.533c-0.278-0.283-0.564-0.567-0.885-0.798
		c-0.755-0.546-1.527-1.068-2.301-1.587c-0.72-0.481-1.405-1.048-2.187-1.397c-1.924-0.86-3.855-1.74-5.858-2.377
		c-2.007-0.639-4.103-0.999-6.162-1.466c-0.269-0.061-0.563-0.088-0.834-0.048c-2.6,0.382-5.195,0.791-7.795,1.174
		c-2.416,0.356-4.701,1.153-6.913,2.138c-1.565,0.697-3.199,0.894-4.852,1.193c-1.239,0.225-2.367,1.064-3.542,1.636
		c-1.341,0.653-2.85,1.104-3.97,2.026c-1.152,0.95-1.901,2.381-2.873,3.564C47.641,26.526,47.109,26.937,46.63,27.391z"/>
	<path fill-rule="evenodd" clip-rule="evenodd" d="M111.095,28.694c1.192,1.075-0.593,2.339-0.086,3.581
		c0.973,0.306,1.397-0.359,1.787-1c0.357-0.588,0.637-1.225,0.985-1.909c1.077,0.875,0.734,1.631,0.347,2.387
		c-0.41,0.798-0.829,1.592-1.236,2.392c-0.407,0.799-0.746,1.64-1.218,2.399c-1.78,2.865-3.603,5.704-5.433,8.59
		c-0.669-0.582-0.716-1.278-0.233-2.162c1.04-1.905,1.087-3.747-0.465-5.481c-0.23-0.258-0.302-0.941-0.125-1.232
		c0.714-1.175,1.571-2.262,2.343-3.404c0.758-1.124,1.445-2.296,2.23-3.4C110.221,29.132,110.678,28.971,111.095,28.694z"/>
	<path fill-rule="evenodd" clip-rule="evenodd" d="M34.15,40.571c0.951,0.113,1.667,0.106,2.328,0.294
		c1.543,0.441,3.052,1.001,4.59,1.459c0.557,0.166,1.177,0.118,1.737,0.277c0.433,0.123,1.171,0.438,1.159,0.629
		c-0.036,0.573-0.211,1.363-0.623,1.646c-1.415,0.971-1.526,1.251-0.4,2.801c-0.287,0.183-0.547,0.428-0.856,0.534
		c-1.545,0.528-3.085,1.088-4.663,1.498c-1.004,0.261-1.739-0.457-2.029-1.28c-0.272-0.773-0.322-1.694,0.797-2.158
		c0.312-0.129,0.574-0.764,0.573-1.167c0-0.566-0.267-1.132-0.421-1.698c-0.266-0.976-0.604-1.89-1.731-2.198
		C34.5,41.178,34.436,40.977,34.15,40.571z"/>
	<path fill-rule="evenodd" clip-rule="evenodd" d="M104.921,50.105c2.863-3.482,5.558-6.76,8.401-10.219
		c0.345,0.574,0.57,0.951,0.766,1.277c-1.115,1.554-2.215,3.035-3.244,4.564c-0.192,0.287-0.1,0.768-0.139,1.159
		c0.469-0.08,1.072-0.003,1.378-0.27c0.707-0.616,1.269-1.398,1.889-2.111c0.985,0.854,0.917,1.653,0.068,2.301
		c-1.446,1.104-2.828,2.296-4.196,3.498c-0.718,0.63-1.304,1.417-2.045,2.013c-0.272,0.22-1.031,0.287-1.207,0.095
		C105.94,51.7,105.44,50.85,104.921,50.105z"/>
	<path fill-rule="evenodd" clip-rule="evenodd" d="M107.515,72.041c0.875,0.442,1.022,0.824,0.692,1.616
		c-1.824,4.366-3.572,8.764-5.334,13.155c-1.498,3.735-2.938,7.494-4.489,11.207c-0.6,1.434-1.449,2.762-2.151,4.155
		c-0.154,0.307-0.127,0.701-0.26,1.023c-0.267,0.649-0.59,1.275-0.886,1.913c-0.444,0.96-0.862,1.933-1.335,2.878
		c-0.317,0.635-0.709,1.232-1.067,1.847c-0.141-0.068-0.281-0.137-0.422-0.205c0.32-0.791,0.628-1.587,0.964-2.37
		c0.683-1.594,1.383-3.18,2.07-4.771c0.498-1.154,1.006-2.306,1.48-3.47c1.631-4.001,3.316-7.982,4.853-12.02
		c1.377-3.617,2.539-7.315,3.893-10.942C106.03,74.699,106.812,73.44,107.515,72.041z"/>
	<path fill-rule="evenodd" clip-rule="evenodd" d="M54.439,110.077c-0.279-0.807-0.617-1.599-0.823-2.424
		c-0.314-1.257-0.39-2.589-0.829-3.794c-0.941-2.58-2.074-5.089-3.083-7.646c-1.053-2.669-2.085-5.348-3.068-8.044
		c-1.287-3.531-2.518-7.083-3.784-10.659c0.879-0.472,1.183-0.366,1.696,1.023c0.625,1.694,1.141,3.429,1.74,5.133
		c1.532,4.366,3.056,8.735,4.64,13.083c0.874,2.398,1.884,4.747,2.793,7.133c0.571,1.501,1.129,3.014,1.56,4.558
		c0.122,0.438-0.223,1.006-0.354,1.515C54.764,109.995,54.602,110.036,54.439,110.077z"/>
	<path fill-rule="evenodd" clip-rule="evenodd" d="M44.799,33.021c0-0.481,0-0.864,0-1.287c1.614,1.021,1.673,1.255,0.686,2.609
		c-0.3,0.412-0.659,0.785-0.925,1.217c-0.681,1.102-1.611,0.576-2.186,0.118c-1.283-1.022-2.495-2.173-3.559-3.422
		c-1.184-1.389-2.17-2.945-3.307-4.517c0.613-0.376,1.009-0.618,1.348-0.826c2.305,2.059,4.562,4.095,6.854,6.088
		C43.891,33.157,44.324,33.021,44.799,33.021z"/>
	<path fill-rule="evenodd" clip-rule="evenodd" d="M68.768,84.777c1.323-0.055,2.039,0.798,2.546,1.999
		c0.173,0.407,0.569,1.012,0.857,1.008c0.385-0.005,1.116-0.547,1.091-0.799c-0.229-2.321-0.58-4.63-0.914-6.939
		c-0.136-0.938-0.425-1.864-0.46-2.803c-0.157-4.092-0.229-8.188-0.375-12.281c-0.028-0.79,0.171-1.298,1.327-1.551
		c0,0.889,0,1.709,0,2.529c-0.002,3.121-0.109,6.247,0.033,9.362c0.095,2.075,0.611,4.129,0.817,6.204
		c0.192,1.943,0.235,3.901,0.313,5.854c0.013,0.296-0.109,0.612-0.229,0.896c-0.418,1-1.648,1.12-2.305,0.229
		C70.561,87.249,69.662,86.005,68.768,84.777z"/>
	<path fill-rule="evenodd" clip-rule="evenodd" d="M109.258,68.245c-0.449-1.065,0.048-1.699,1.271-1.893
		c1.308-0.208,2.605-0.497,3.886-0.833c0.265-0.069,0.628-0.516,0.611-0.766c-0.065-0.975-0.015-2.083-0.47-2.877
		c-0.797-1.39-1.861-2.653-2.969-3.822c-0.391-0.411-1.261-0.332-1.869-0.581c-0.476-0.195-0.885-0.552-1.431-0.907
		c1.122-0.955,1.839-0.888,2.835-0.156c1.361,0.999,2.622,2.024,3.501,3.478c0.794,1.313,1.652,2.591,2.376,3.941
		c0.482,0.9,0.115,1.597-0.809,1.951c-1.724,0.659-3.437,1.345-5.165,1.989C110.481,67.972,109.899,68.076,109.258,68.245z"/>
	<path fill-rule="evenodd" clip-rule="evenodd" d="M32.223,35.223c0.104-0.829,0.209-1.659,0.353-2.795
		c1.277,0.759,2.46,1.43,3.611,2.154c1.721,1.083,3.431,2.183,5.118,3.318c0.488,0.329,1.035,0.732,1.268,1.234
		c0.215,0.464,0.045,1.107,0.045,1.882c-3.427-2.415-6.729-4.555-10.699-5.426C32.02,35.468,32.122,35.346,32.223,35.223z"/>
	<path fill-rule="evenodd" clip-rule="evenodd" d="M73.621,115.585c-0.318-0.739-0.873-1.468-0.905-2.22
		c-0.062-1.439-1.207-2.864-0.137-4.335c0.092-0.126,0.124-0.296,0.281-0.687c0.394,0.609,0.595,0.874,0.746,1.165
		c0.404,0.774,1.053,0.91,1.659,0.306c0.19-0.189,0.27-0.545,0.483-0.646c0.468-0.221,0.989-0.326,1.489-0.479
		c-0.121,0.46-0.196,0.938-0.373,1.374c-0.423,1.05-0.854,2.101-1.356,3.113c-0.422,0.851-0.947,1.648-1.427,2.469
		C73.929,115.625,73.774,115.605,73.621,115.585z"/>
	<path fill-rule="evenodd" clip-rule="evenodd" d="M59.517,95.989c1.072-0.758,2.021-1.452,3.002-2.097
		c0.135-0.089,0.432,0.112,0.645,0.091c0.546-0.058,1.083-0.187,1.629-0.247c0.839-0.094,1.68-0.166,2.522-0.227
		c0.671-0.048,1.348-0.041,2.016-0.111c0.217-0.023,0.414-0.3,0.625-0.307c0.461-0.017,0.931,0.044,1.386,0.131
		c0.061,0.011,0.111,0.505,0.079,0.516c-0.388,0.129-0.809,0.166-1.188,0.314c-0.475,0.186-1.019,0.355-1.354,0.705
		c-0.871,0.906-3.259,1.424-4.369,0.884c-0.917-0.445-1.836-0.255-2.532,0.401C61.156,96.816,60.451,96.645,59.517,95.989z"/>
	<path fill-rule="evenodd" clip-rule="evenodd" d="M89.381,122.976c-0.793-0.458-1.154-0.796-0.783-1.557
		c0.121-0.248-0.204-0.719-0.333-1.084c-0.149-0.423-0.309-0.843-0.495-1.35c-0.387-0.05-0.845-0.108-1.484-0.189
		c1.638-2.325,3.196-4.537,4.754-6.749c0.095,0.04,0.19,0.081,0.285,0.121c-0.321,0.646-0.481,1.494-0.992,1.901
		c-1.526,1.217-1.018,2.811-0.377,3.873c0.802,1.329,0.23,2.338,0.028,3.477C89.893,121.93,89.608,122.405,89.381,122.976z"/>
	<path fill-rule="evenodd" clip-rule="evenodd" d="M95.853,60.309c-0.938,0-1.881,0.065-2.812-0.013
		c-2.439-0.202-4.882-0.403-7.307-0.726c-2.163-0.288-4.306-0.739-6.456-1.117c-0.026-0.149-0.053-0.299-0.079-0.449
		c0.436-0.136,0.896-0.441,1.301-0.378c1.243,0.191,2.462,0.53,3.693,0.796c0.459,0.099,0.925,0.203,1.392,0.228
		c2.651,0.139,5.309,0.209,7.956,0.406c0.828,0.062,1.632,0.443,2.446,0.678C95.942,59.926,95.897,60.117,95.853,60.309z"/>
	<path fill-rule="evenodd" clip-rule="evenodd" d="M46.224,27.947c-0.204,0.159-0.454,0.49-0.605,0.45
		c-1.248-0.332-2.534-0.606-3.698-1.141c-1.772-0.814-3.498-1.752-5.162-2.77c-1.395-0.853-2.674-1.895-4.127-2.941
		c1.582-0.391,2.557,0.148,3.554,1.141c0.959,0.955,2.196,1.644,3.349,2.392c2.018,1.31,4.077,2.546,6.631,2.573
		C46.185,27.75,46.205,27.849,46.224,27.947z"/>
	<path fill-rule="evenodd" clip-rule="evenodd" d="M38.793,71.31c-1.278-0.713-2.383-1.602-3.481-2.604
		c-2.541-2.322-1.902-3.677-0.577-5.887c0.85-1.418,2.089-2.639,3.307-3.786c0.684-0.644,1.679-0.956,2.534-1.417
		c0.079,0.078,0.158,0.155,0.237,0.232c-0.134,0.215-0.229,0.573-0.409,0.623c-2.663,0.728-4.185,2.803-5.303,5.014
		c-0.503,0.994-0.242,2.644,0.215,3.778c0.438,1.087,1.579,1.89,2.407,2.821c0.362,0.406,0.714,0.821,1.071,1.232L38.793,71.31z"/>
	<path fill-rule="evenodd" clip-rule="evenodd" d="M64.777,57.91c-0.67-0.033-1.34-0.063-2.009-0.1
		c-2.017-0.112-4.033-0.309-6.05-0.309c-1.078,0-2.152,0.442-3.237,0.492c-0.989,0.045-1.992-0.157-2.983-0.291
		c-0.094-0.013-0.229-0.338-0.198-0.49c0.028-0.14,0.244-0.326,0.392-0.341c0.555-0.056,1.118-0.089,1.673-0.059
		c1.974,0.107,3.945,0.327,5.919,0.346c1.749,0.017,3.5-0.227,5.251-0.243c0.478-0.004,0.96,0.396,1.439,0.61
		C64.909,57.654,64.843,57.782,64.777,57.91z"/>
	<path fill-rule="evenodd" clip-rule="evenodd" d="M62.323,126.892c-2.797-1.089-6.022-6.715-5.69-9.583
		c1.487-0.221,1.588-0.035,1.41,1.442c-0.085,0.703,0.072,1.53,0.387,2.169c0.908,1.844,1.518,3.924,3.523,5.023
		C62.142,126.048,62.163,126.459,62.323,126.892z"/>
	<path fill-rule="evenodd" clip-rule="evenodd" d="M61.136,67.246c-0.638-0.679-1.206-1.283-1.79-1.906
		c1.051-0.852,1.969-1.625,2.925-2.349c0.222-0.167,0.677-0.312,0.844-0.199c0.234,0.158,0.397,0.56,0.419,0.87
		c0.077,1.083-0.565,1.816-1.322,2.484C61.858,66.459,61.547,66.822,61.136,67.246z"/>
	<path fill-rule="evenodd" clip-rule="evenodd" d="M83.907,63.217c0.759,0.937,1.072,2.022,0.416,3.056
		c-0.312,0.493-1.276,1.059-1.663,0.901c-0.553-0.227-1.052-1.044-1.182-1.688c-0.094-0.465,0.335-1.187,0.743-1.56
		C82.639,63.545,83.316,63.448,83.907,63.217z"/>
	<path fill-rule="evenodd" clip-rule="evenodd" d="M78.203,127.533c-0.933,0.045-1.552,0.075-2.386,0.116
		c0.837-1.562,0.375-3.325,1.303-4.67c0.155,0.017,0.311,0.033,0.466,0.05C77.782,124.463,77.979,125.896,78.203,127.533z"/>
	<path fill-rule="evenodd" clip-rule="evenodd" d="M79.176,93.169c-0.141,0.929-0.292,1.929-0.467,3.078
		c-1.313-0.845-2.528-1.626-3.681-2.367C76.269,93.668,77.604,93.438,79.176,93.169z"/>
	<path fill-rule="evenodd" clip-rule="evenodd" d="M109.206,24.849c-0.488,2.371-2.194,3.675-3.186,5.811
		c-0.232-0.658-0.539-1.093-0.428-1.285c0.781-1.344,1.632-2.651,2.508-3.938C108.249,25.218,108.621,25.149,109.206,24.849z"/>
	<path fill-rule="evenodd" clip-rule="evenodd" d="M72.776,101.961c-0.155-1.045-0.542-2.122-0.402-3.126
		c0.141-1.005,1.161-0.598,1.992-0.599c-0.364,1.306-0.699,2.506-1.035,3.707C73.146,101.949,72.962,101.955,72.776,101.961z"/>
	<path fill-rule="evenodd" clip-rule="evenodd" d="M87.952,95.735c-1.113-0.324-2.227-0.648-3.341-0.973
		c0.05-0.157,0.099-0.313,0.147-0.47c1.105,0.352,2.212,0.702,3.317,1.053C88.035,95.476,87.994,95.605,87.952,95.735z"/>
	<path fill-rule="evenodd" clip-rule="evenodd" d="M38.795,71.315c0.373-0.046,0.747-0.137,1.119-0.127
		c0.612,0.016,1.223,0.096,1.941,0.159c0.077,0.687-0.167,1.096-1.107,0.725c-0.65-0.257-1.303-0.51-1.954-0.764
		C38.793,71.31,38.795,71.315,38.795,71.315z"/>
	<path fill-rule="evenodd" clip-rule="evenodd" d="M84.531,130.215c0.838-0.109,1.676-0.219,2.513-0.328
		c0.026,0.174,0.053,0.348,0.079,0.522c-0.846,0.065-1.691,0.132-2.537,0.198C84.567,130.477,84.55,130.346,84.531,130.215z"/>
</g>
</svg>
