<?xml version="1.0" encoding="utf-8"?>
<!-- Generator: Adobe Illustrator 16.0.0, SVG Export Plug-In . SVG Version: 6.00 Build 0)  -->
<!DOCTYPE svg PUBLIC "-//W3C//DTD SVG 1.1//EN" "http://www.w3.org/Graphics/SVG/1.1/DTD/svg11.dtd">
<svg version="1.1" id="Layer_1" xmlns="http://www.w3.org/2000/svg" xmlns:xlink="http://www.w3.org/1999/xlink" x="0px" y="0px"
	 width="144px" height="144px" viewBox="0 0 144 144" enable-background="new 0 0 144 144" xml:space="preserve">
<g>
	<path fill="#FFFFFF" d="M72.718,112.181c2.37-0.149,4.687-0.242,6.99-0.459c1.811-0.171,3.622-0.416,5.403-0.774
		c1.928-0.388,3.847-0.865,5.723-1.451c1.933-0.604,3.806-1.395,5.712-2.083c0.59-0.214,1.234-0.293,1.8-0.551
		c1.693-0.774,3.394-1.545,5.03-2.43c2.364-1.278,4.716-2.59,6.992-4.016c1.299-0.812,2.46-1.854,3.632-2.854
		c0.289-0.246,0.632-0.92,0.52-1.068c-0.796-1.044-0.013-1.667,0.504-2.38c0.467-0.643,0.95-1.274,1.39-1.937
		c0.703-1.058,1.42-2.112,2.03-3.223c0.163-0.297,0.037-0.822-0.107-1.182c-0.056-0.139-0.588-0.229-0.812-0.132
		c-3.33,1.434-6.82,2.316-10.374,2.914c-4.06,0.684-8.127,1.37-12.218,1.802c-3.758,0.396-7.48-0.208-11.104-1.257
		c-2.326-0.673-4.705-1.264-6.905-2.24c-3.627-1.611-6.692-4.063-9.501-6.892c-2.192-2.207-3.994-4.67-5.414-7.385
		c-1.658-3.167-2.836-6.537-3.409-10.099c-0.271-1.683-0.729-3.336-1.01-5.018c-0.235-1.409-0.513-2.847-0.462-4.262
		c0.149-4.093,0.393-8.198,1.587-12.15c0.874-2.891,1.673-5.879,3.806-8.149c1.313-1.397,2.357-3.311,4.713-3.312
		c0.281,0,0.562-0.324,0.81-0.477c-0.531-0.596-0.939-1.119-1.42-1.563c-0.205-0.188-0.595-0.345-0.847-0.285
		c-1.54,0.365-3.057,0.824-4.594,1.199c-1.54,0.375-3.105,0.645-4.636,1.053c-0.542,0.145-1.013,0.562-1.516,0.854
		c0.072,0.132,0.144,0.264,0.215,0.396c0.596-0.1,1.191-0.2,2.124-0.356c-0.305,0.542-0.41,0.863-0.621,1.083
		c-3.091,3.222-6.207,6.419-9.293,9.646c-2.926,3.06-4.556,6.856-6.062,10.728c-0.256,0.658-0.805,1.196-1.138,1.831
		c-0.149,0.284-0.097,0.672-0.14,1.013c-0.115,0.923-0.138,1.875-0.407,2.75c-0.081,0.263-0.85,0.315-1.441,0.509
		c0.14,0.264,0.245,0.545,0.417,0.775c0.632,0.839,0.507,1.358-0.468,1.605c-0.908,0.231-0.756,0.583-0.226,1.1
		c0.675,0.66,0.505,1.317-0.344,1.69c-0.284,0.125-0.655,0.408-0.697,0.665c-0.164,1.011-0.456,2.091-0.256,3.053
		c0.581,2.791,1.388,5.533,2.085,8.3c0.668,2.655,1.186,5.355,2,7.964c0.667,2.14,1.557,4.23,2.557,6.239
		c1.218,2.446,2.528,4.866,4.025,7.149c2.351,3.586,5.715,6.006,9.601,7.766c2.318,1.049,4.537,2.325,6.877,3.319
		c2.098,0.891,4.026,2.334,6.5,2.195c0.34-0.019,0.724,0.447,1.06,0.721c0.32,0.261,0.605,0.564,1.098,1.03
		C72.61,112.846,72.664,112.513,72.718,112.181z"/>
	<path fill-rule="evenodd" clip-rule="evenodd" d="M72.718,112.181c-0.054,0.332-0.107,0.665-0.222,1.366
		c-0.492-0.466-0.777-0.77-1.098-1.03c-0.336-0.273-0.72-0.739-1.06-0.721c-2.474,0.139-4.402-1.305-6.5-2.195
		c-2.34-0.994-4.559-2.271-6.877-3.319c-3.886-1.76-7.25-4.18-9.601-7.766c-1.497-2.283-2.807-4.703-4.025-7.149
		c-1-2.009-1.89-4.1-2.557-6.239c-0.814-2.608-1.332-5.309-2-7.964c-0.697-2.767-1.504-5.509-2.085-8.3
		c-0.2-0.962,0.092-2.042,0.256-3.053c0.042-0.257,0.413-0.541,0.697-0.665c0.849-0.373,1.02-1.03,0.344-1.69
		c-0.53-0.517-0.682-0.869,0.226-1.1c0.975-0.248,1.1-0.767,0.468-1.605c-0.173-0.23-0.278-0.511-0.417-0.775
		c0.591-0.194,1.36-0.246,1.441-0.509c0.269-0.875,0.292-1.827,0.407-2.75c0.042-0.34-0.009-0.729,0.14-1.013
		c0.333-0.635,0.882-1.173,1.138-1.831c1.506-3.871,3.136-7.668,6.062-10.728c3.086-3.227,6.202-6.423,9.293-9.646
		c0.211-0.22,0.316-0.542,0.621-1.083c-0.933,0.157-1.528,0.256-2.124,0.356c-0.072-0.132-0.144-0.264-0.215-0.396
		c0.503-0.292,0.974-0.709,1.516-0.854c1.53-0.408,3.096-0.678,4.636-1.053c1.538-0.375,3.055-0.833,4.594-1.199
		c0.251-0.06,0.642,0.097,0.847,0.285c0.481,0.444,0.889,0.967,1.42,1.563c-0.249,0.153-0.529,0.477-0.81,0.477
		c-2.356,0.001-3.4,1.915-4.713,3.312c-2.133,2.27-2.932,5.258-3.806,8.149c-1.194,3.952-1.438,8.057-1.587,12.15
		c-0.051,1.415,0.227,2.853,0.462,4.262c0.281,1.682,0.739,3.335,1.01,5.018c0.573,3.562,1.751,6.932,3.409,10.099
		c1.419,2.715,3.221,5.178,5.414,7.385c2.809,2.828,5.875,5.28,9.501,6.892c2.2,0.977,4.579,1.567,6.905,2.24
		c3.624,1.049,7.347,1.653,11.104,1.257c4.091-0.432,8.158-1.118,12.218-1.802c3.554-0.598,7.044-1.48,10.374-2.914
		c0.225-0.098,0.757-0.007,0.812,0.132c0.145,0.359,0.271,0.885,0.107,1.182c-0.61,1.11-1.327,2.165-2.03,3.223
		c-0.439,0.662-0.923,1.294-1.39,1.937c-0.517,0.713-1.3,1.336-0.504,2.38c0.112,0.148-0.23,0.822-0.52,1.068
		c-1.172,0.999-2.333,2.041-3.632,2.854c-2.276,1.426-4.628,2.737-6.992,4.016c-1.637,0.885-3.337,1.655-5.03,2.43
		c-0.565,0.258-1.21,0.337-1.8,0.551c-1.906,0.688-3.779,1.479-5.712,2.083c-1.876,0.586-3.795,1.063-5.723,1.451
		c-1.781,0.358-3.593,0.604-5.403,0.774C77.404,111.938,75.088,112.031,72.718,112.181z M63.632,98.47
		c0.537,0.124,1.074,0.249,1.834,0.426c-0.144-0.504-0.232-0.815-0.323-1.129c0.238-0.186,0.477-0.372,0.714-0.558
		c-0.305-0.336-0.59-0.694-0.93-0.989c-0.077-0.067-0.343,0.082-0.521,0.133c0.134,0.33,0.25,0.669,0.408,0.987
		c0.085,0.172,0.242,0.307,0.367,0.459c-0.484-0.151-0.968-0.303-1.598-0.499c0.038,0.539,0.062,0.868,0.086,1.198
		c-0.303,0.066-0.605,0.133-0.908,0.199c0.116,0.269,0.214,0.546,0.354,0.801c0.089,0.164,0.238,0.296,0.36,0.442
		c-0.535-0.211-1.07-0.421-1.342-0.528c-0.487,0.631-0.793,0.991-1.055,1.382c-0.122,0.182-0.282,0.54-0.211,0.613
		c0.395,0.41,0.842,0.777,1.306,1.11c0.079,0.057,0.479-0.169,0.474-0.187c-0.126-0.413-0.289-0.816-0.439-1.223
		c-0.035-0.094-0.046-0.197-0.056-0.237c0.53,0.035,1.028,0.068,1.527,0.101c-0.082-0.356-0.164-0.713-0.247-1.069
		c0.363,0,0.726,0,1.089,0c0.053-0.104,0.106-0.209,0.159-0.313C64.333,99.216,63.982,98.843,63.632,98.47z M77.948,103.664
		c0.459,0.211,0.907,0.449,1.38,0.623c0.234,0.087,0.604,0.167,0.746,0.05c0.163-0.134,0.278-0.627,0.177-0.729
		c-0.467-0.474-0.971-1.13-1.546-1.228c-0.956-0.162-0.483,0.851-0.715,1.316c-0.922,0.395-1.087,0.875-0.442,1.382
		c0.305,0.239,0.665,0.443,1.032,0.553c0.219,0.065,0.501-0.086,0.754-0.141c-0.086-0.271-0.102-0.6-0.271-0.799
		C78.737,104.31,78.325,104.002,77.948,103.664z M77.003,91.918c-0.338-1.352-1.641-1.381-2.39-2.04
		c-0.832-0.731-1.796-1.312-2.708-1.952c-0.832-0.583-1.67-1.155-2.738-1.893C69.578,88.199,74.737,91.938,77.003,91.918z
		 M57.487,83.369c-0.644,0.927-1.632,1.813-1.463,2.221c0.317,0.767,1.302,1.258,2.01,1.863c0.535-0.686,1.512-1.395,1.477-2.05
		C59.478,84.781,58.386,84.216,57.487,83.369z M51.287,79.264c-0.99-0.664-1.696-1.503-2.37-1.479
		c-0.578,0.021-1.119,1.033-1.676,1.606c0.606,0.528,1.214,1.478,1.818,1.474C49.713,80.862,50.364,79.974,51.287,79.264z
		 M56.436,83.546c-0.155-0.931-1.191-2.011-1.883-1.769c-0.666,0.234-1.148,0.99-1.71,1.517c0.52,0.521,1.05,1.473,1.556,1.46
		C55.087,84.737,55.757,83.983,56.436,83.546z M65.109,92.587c0.177-0.002,0.354-0.005,0.531-0.007
		c0.455-0.669,1.19-1.308,1.264-2.016c0.046-0.449-0.892-1.001-1.388-1.507c-0.541,0.629-1.314,1.188-1.529,1.914
		C63.87,91.364,64.704,92.039,65.109,92.587z M103.785,96.287c-1.029,0.164-1.94,0.25-2.807,0.492
		c-0.201,0.057-0.376,0.94-0.354,0.95c0.867,0.366,1.741,0.797,2.655,0.927c0.312,0.044,0.797-0.643,1.089-1.073
		C104.81,96.929,104.439,96.315,103.785,96.287z M52.149,79.866c-1.017-0.019-1.976,0.939-1.965,1.645
		c0.016,0.994,1.017,1.468,1.49,1.279c0.672-0.267,1.215-1.11,1.541-1.831C53.304,80.763,52.411,80.124,52.149,79.866z
		 M87.667,103.742c-0.892-0.524-1.681-1.222-1.897-1.074c-0.684,0.462-1.201,1.213-1.635,1.939c-0.05,0.084,1.036,1.132,1.238,1.028
		C86.109,105.264,86.694,104.591,87.667,103.742z M77.257,96.92c-0.814-0.511-1.614-1.201-1.772-1.077
		c-0.667,0.526-1.184,1.271-1.628,2.013c-0.043,0.072,1.01,1.051,1.174,0.956C75.765,98.385,76.361,97.721,77.257,96.92z
		 M46.407,79.169c0.644-0.854,1.074-1.423,1.503-1.991c-0.499-0.375-1.033-1.084-1.487-1.036c-0.497,0.053-1.233,0.772-1.283,1.262
		C45.093,77.857,45.812,78.391,46.407,79.169z M64.143,88.586c-0.029-0.165-0.058-0.33-0.086-0.495
		c-0.44-0.229-1.106-0.761-1.28-0.631c-0.608,0.453-1.082,1.111-1.496,1.762c-0.044,0.069,0.838,0.936,0.958,0.865
		C62.929,89.681,63.519,89.104,64.143,88.586z M47.047,82.86c-0.094-0.056-0.188-0.111-0.281-0.167
		c0.119-0.706,0.062-1.461-0.836-1.277c-0.423,0.086-1.025,0.869-0.987,1.286c0.061,0.687,0.575,1.333,0.899,1.996
		C46.243,84.086,46.645,83.473,47.047,82.86z M51.08,74.861c-0.518,0.782-1.146,1.562-1.067,1.642
		c0.55,0.553,1.212,1.033,1.92,1.359c0.149,0.068,0.965-0.814,0.917-0.887C52.405,76.311,51.838,75.728,51.08,74.861z
		 M59.458,81.025c-0.418,0.72-0.937,1.392-0.845,1.489c0.552,0.587,1.232,1.062,1.917,1.499c0.049,0.031,0.743-0.704,0.688-0.787
		C60.766,82.543,60.207,81.93,59.458,81.025z M69.974,95.947c0.765-0.891,1.357-1.513,1.826-2.218
		c0.051-0.077-0.611-0.628-0.942-0.958c-0.541,0.673-1.115,1.325-1.588,2.043C69.196,94.926,69.586,95.343,69.974,95.947z
		 M80.481,102.755c0.578-1.031,1.021-1.719,1.315-2.465c0.044-0.109-0.622-0.498-0.96-0.758c-0.459,0.627-0.991,1.219-1.325,1.907
		C79.428,101.612,79.979,102.095,80.481,102.755z M81.759,103.017c0.494,0.481,0.744,0.888,1.1,1.03
		c0.453,0.182,1.61-1.33,1.514-2.073c-0.041-0.31-0.483-0.566-0.744-0.848C83.062,101.698,82.496,102.271,81.759,103.017z
		 M79.522,98.437c-0.551-0.325-1.172-0.761-1.216-0.708c-0.552,0.652-1.056,1.356-1.464,2.106c-0.055,0.1,0.487,0.529,0.765,0.793
		c0.028,0.026,0.174-0.016,0.215-0.066C78.334,99.934,78.836,99.298,79.522,98.437z M55.114,100.648
		c0.52-0.295,0.856-0.413,1.078-0.642c0.114-0.117,0.118-0.552,0.009-0.638c-0.612-0.484-1.233-0.996-1.934-1.316
		c-0.466-0.212-1.133,0.1-0.824,0.694C53.814,99.457,54.516,99.994,55.114,100.648z M46.735,74.421
		c0.489-0.672,1.173-1.275,1.062-1.53c-0.234-0.534-0.833-1.027-1.395-1.235c-0.201-0.074-1.095,0.819-1.021,1.1
		C45.524,73.3,46.127,73.724,46.735,74.421z M69.688,92.471c-0.541-0.589-0.82-0.894-1.1-1.198
		c-0.549,0.608-1.126,1.195-1.611,1.851c-0.058,0.078,0.538,0.791,0.578,0.768C68.209,93.516,68.822,93.069,69.688,92.471z
		 M45.96,75.461c-0.789-0.475-1.31-0.984-1.882-1.052c-0.301-0.035-1.047,0.812-0.968,1.071c0.155,0.51,0.736,1.215,1.16,1.228
		C44.732,76.723,45.218,76.047,45.96,75.461z M46.13,66.365c-0.002-0.15-0.004-0.3-0.006-0.45c-0.634-0.288-1.25-0.653-1.915-0.814
		c-0.194-0.047-0.529,0.486-0.8,0.754c0.505,0.478,0.953,1.069,1.547,1.369C45.153,67.323,45.729,66.672,46.13,66.365z
		 M76.019,105.7c-0.141,0.187-0.61,0.75-0.581,0.776c0.579,0.539,1.204,1.036,1.869,1.465c0.045,0.029,0.621-0.503,0.694-0.832
		C78.136,106.504,77.069,105.692,76.019,105.7z M58.717,80.808c-0.881-0.599-1.397-1.132-2.009-1.285
		c-0.292-0.073-0.765,0.576-1.156,0.898c0.506,0.446,0.954,1.04,1.544,1.275C57.384,81.811,57.938,81.258,58.717,80.808z
		 M49.997,59.042c-0.526,0.587-1.267,1.113-1.183,1.388c0.149,0.487,0.799,1.133,1.236,1.13c0.426-0.003,1.067-0.681,1.186-1.167
		C51.308,60.105,50.549,59.614,49.997,59.042z M44.396,72.522c0.524-0.709,0.878-1.187,1.232-1.666
		c-0.521-0.309-1.022-0.794-1.571-0.857c-0.305-0.035-1.045,0.771-0.972,0.965C43.281,71.481,43.81,71.872,44.396,72.522z
		 M55.003,90.73c0.385-0.225,0.696-0.325,0.865-0.538c0.089-0.112,0.005-0.514-0.131-0.625c-0.519-0.426-1.06-0.852-1.658-1.141
		c-0.227-0.109-0.685,0.083-0.937,0.271c-0.144,0.107-0.202,0.637-0.097,0.718C53.653,89.889,54.321,90.286,55.003,90.73z
		 M54.291,80.177c0.533-0.648,1.204-1.22,1.111-1.399c-0.25-0.488-0.779-1.009-1.287-1.126c-0.317-0.073-0.798,0.561-1.206,0.878
		C53.308,79.003,53.705,79.478,54.291,80.177z M51.908,88.708c0.424-0.293,0.786-0.414,0.815-0.592
		c0.045-0.267-0.053-0.68-0.248-0.842c-0.546-0.456-1.16-0.838-1.777-1.197c-0.173-0.101-0.479-0.081-0.672,0.002
		c-0.107,0.046-0.209,0.43-0.14,0.506C50.526,87.299,51.203,87.979,51.908,88.708z M61.638,86.57
		c-0.216-0.235-0.374-0.539-0.51-0.529c-0.36,0.023-0.829,0.077-1.041,0.312c-0.426,0.472-0.709,1.072-1.052,1.619
		c0.355,0.19,0.944,0.616,1.027,0.533C60.635,87.935,61.103,87.258,61.638,86.57z M50.556,74.75
		c-0.676-0.521-1.116-1.122-1.551-1.119c-0.431,0.004-0.858,0.617-1.287,0.963c0.458,0.357,0.875,0.873,1.392,1.012
		C49.416,75.688,49.882,75.172,50.556,74.75z M88.598,97.746c-0.387,0.724-0.885,1.285-0.764,1.502
		c0.269,0.481,0.807,0.887,1.326,1.108c0.144,0.061,0.942-0.797,0.867-0.952C89.766,98.869,89.249,98.459,88.598,97.746z
		 M69.442,107.94c0.477-0.448,0.696-0.654,0.915-0.861c-0.675-0.561-1.341-1.134-2.047-1.652c-0.037-0.027-0.618,0.575-0.598,0.599
		C68.223,106.646,68.779,107.228,69.442,107.94z M46.916,66.511c-0.535,0.632-1.208,1.207-1.121,1.367
		c0.266,0.488,0.824,0.816,1.269,1.206c0.319-0.397,0.865-0.782,0.887-1.195C47.97,67.522,47.407,67.125,46.916,66.511z
		 M58.091,102.527c0.371-0.498,0.848-1.048,0.805-1.093c-0.491-0.506-1.036-0.976-1.637-1.339c-0.088-0.054-0.541,0.497-0.825,0.768
		C56.935,101.367,57.437,101.87,58.091,102.527z M58.237,96.755c0.093-0.092,0.186-0.185,0.279-0.276
		c-0.524-0.397-1.018-0.85-1.587-1.169c-0.296-0.166-0.745-0.18-1.083-0.095c-0.13,0.032-0.285,0.707-0.188,0.784
		c0.626,0.496,1.309,0.928,2.006,1.32c0.079,0.044,0.371-0.286,0.559-0.449C58.246,96.852,58.233,96.794,58.237,96.755z
		 M50.849,69.802c-0.671-0.523-1.114-1.136-1.53-1.118c-0.419,0.018-0.812,0.661-1.216,1.03c0.48,0.326,0.925,0.781,1.455,0.922
		C49.827,70.708,50.247,70.212,50.849,69.802z M53.291,92.951c-0.461-0.382-0.864-0.802-1.347-1.083
		c-0.31-0.181-0.737-0.177-1.115-0.203c-0.071-0.004-0.257,0.316-0.224,0.358c0.348,0.45,0.668,0.962,1.122,1.274
		c0.3,0.208,0.803,0.143,1.216,0.147C53.027,93.446,53.113,93.213,53.291,92.951z M88.909,105.326
		c-0.443-0.344-0.688-0.535-0.935-0.726c-0.446,0.592-0.924,1.165-1.306,1.797c-0.053,0.087,0.369,0.461,0.572,0.702
		C87.753,106.556,88.265,106.012,88.909,105.326z M62.194,103.321c-0.824-0.486-1.328-0.874-1.898-1.068
		c-0.184-0.062-0.541,0.388-0.819,0.604c0.509,0.446,0.991,0.935,1.553,1.298C61.134,104.222,61.564,103.783,62.194,103.321z
		 M70.866,101.737c-0.356,0.44-0.745,0.89-0.729,0.904c0.573,0.533,1.167,1.05,1.812,1.491c0.069,0.048,0.457-0.368,0.697-0.569
		C72.098,103.001,71.55,102.439,70.866,101.737z M58.929,91.723c-0.317,0.449-0.492,0.697-0.667,0.945
		c0.62,0.432,1.224,0.889,1.878,1.258c0.078,0.044,0.425-0.39,0.647-0.603C60.216,92.832,59.646,92.341,58.929,91.723z
		 M65.667,99.901c-0.163,0.079-0.326,0.157-0.49,0.235c0.341,0.826-2.122,1.506-0.048,2.323c0.246,0.097,1.038-0.772,1.297-1.324
		C66.539,100.896,65.941,100.323,65.667,99.901z M71.242,96.389c1.471,0.555,1.689-0.604,2.289-1.043
		c0.147-0.107,0.145-0.753,0.049-0.797c-0.286-0.131-0.812-0.234-0.956-0.079C72.131,94.997,71.762,95.641,71.242,96.389z
		 M51.737,70.361c-0.479,0.549-1.078,0.99-1.005,1.203c0.143,0.419,0.623,0.923,1.029,0.99c0.31,0.051,1.039-0.553,1.014-0.809
		C52.732,71.332,52.224,70.966,51.737,70.361z M75.809,105.125c-0.928-0.453-1.493-0.792-2.105-0.983
		c-0.149-0.047-0.45,0.392-0.681,0.607c0.502,0.436,0.969,0.933,1.533,1.263C74.688,106.089,75.149,105.604,75.809,105.125z
		 M47.916,57.239c-0.729-0.36-1.267-0.814-1.483-0.693c-0.441,0.247-0.744,0.784-1.009,1.255c-0.032,0.058,0.625,0.694,0.773,0.629
		C46.724,58.201,47.168,57.783,47.916,57.239z M55.49,74.454c-0.655-0.706-1.154-1.272-1.709-1.776
		c-0.034-0.032-0.504,0.415-0.771,0.639c0.542,0.535,1.071,1.086,1.645,1.585C54.716,74.954,55.044,74.699,55.49,74.454z
		 M51.129,51.118c-0.363,0.543-0.821,0.931-0.813,1.309c0.006,0.294,0.678,0.866,0.904,0.8c0.438-0.127,0.769-0.618,1.145-0.958
		C52.014,51.941,51.662,51.614,51.129,51.118z M49.521,58.56c-0.69-0.36-1.133-0.735-1.282-0.642
		c-0.498,0.311-0.892,0.79-1.325,1.205c0.286,0.202,0.657,0.633,0.841,0.563C48.282,59.486,48.733,59.086,49.521,58.56z
		 M54.401,75.398c-0.797-0.488-1.388-0.894-2.029-1.194c-0.096-0.045-0.423,0.402-0.644,0.623c0.629,0.418,1.249,0.854,1.904,1.229
		C53.701,76.095,53.98,75.767,54.401,75.398z M53.931,93.117c-0.321,0.561-0.648,1.002-0.593,1.056
		c0.448,0.441,0.953,0.831,1.483,1.172c0.056,0.036,0.572-0.489,0.554-0.514C54.982,94.311,54.544,93.823,53.931,93.117z
		 M49.322,51.99c0.416-0.634,0.751-0.992,0.878-1.414c0.051-0.17-0.48-0.714-0.533-0.686c-0.447,0.237-0.844,0.567-1.257,0.87
		C48.645,51.077,48.88,51.395,49.322,51.99z M46.453,65.765c0.365-0.457,0.71-0.821,0.678-0.859
		c-0.417-0.481-0.874-0.935-1.37-1.333c-0.043-0.035-0.653,0.52-0.636,0.544C45.486,64.63,45.9,65.104,46.453,65.765z
		 M61.286,98.648c-0.904-0.567-1.493-0.965-2.12-1.287c-0.066-0.033-0.36,0.378-0.548,0.582c0.528,0.41,1.033,0.857,1.6,1.202
		C60.345,99.222,60.689,98.938,61.286,98.648z M50.483,66.984c-0.327,0.511-0.676,0.931-0.622,0.991
		c0.392,0.438,0.854,0.818,1.334,1.16c0.031,0.022,0.607-0.562,0.567-0.622C51.442,68.036,51.034,67.616,50.483,66.984z
		 M62.834,96.133c0.302-0.49,0.602-0.88,0.559-0.922c-0.459-0.45-0.956-0.871-1.491-1.228c-0.068-0.045-0.415,0.33-0.632,0.511
		C61.734,94.98,62.199,95.467,62.834,96.133z M48.103,60.995c-0.358,0.409-0.57,0.651-0.783,0.894
		c0.482,0.397,0.948,0.82,1.469,1.157c0.06,0.039,0.643-0.566,0.622-0.593C49.045,61.981,48.623,61.552,48.103,60.995z
		 M47.573,54.055c-0.54-0.357-0.89-0.764-1.245-0.768c-0.291-0.003-0.587,0.475-0.881,0.739c0.398,0.328,0.769,0.707,1.216,0.94
		C46.753,55.013,47.131,54.507,47.573,54.055z M60.389,100.034c-0.863-0.498-1.459-0.869-2.088-1.172
		c-0.077-0.037-0.331,0.296-0.502,0.457c0.559,0.442,1.105,0.903,1.694,1.302C59.566,100.671,59.867,100.383,60.389,100.034z
		 M51.956,64.126c-0.604-0.363-0.992-0.691-1.438-0.816c-0.171-0.048-0.472,0.369-0.714,0.574c0.362,0.363,0.685,0.79,1.111,1.046
		C51.024,64.996,51.458,64.521,51.956,64.126z M49.833,66.466c-0.744-0.454-1.187-0.779-1.682-0.978
		c-0.094-0.038-0.597,0.591-0.561,0.637c0.313,0.397,0.665,0.804,1.097,1.043C48.831,67.247,49.24,66.843,49.833,66.466z
		 M62.941,92.433c-0.303,0.403-0.594,0.729-0.565,0.761c0.46,0.497,0.96,0.956,1.452,1.425c0.174-0.215,0.534-0.569,0.494-0.623
		C63.943,93.492,63.496,93.04,62.941,92.433z M69.085,104.272c0.114,1.405,0.913,1.715,1.608,2.079
		c0.127,0.066,0.526-0.1,0.575-0.237c0.077-0.216,0.052-0.638-0.089-0.729C70.612,105.015,69.984,104.736,69.085,104.272z
		 M92.93,103.173c0.458-0.769,0.791-1.182,0.938-1.653c0.051-0.161-0.365-0.468-0.567-0.708c-0.32,0.393-0.706,0.752-0.925,1.194
		C92.294,102.17,92.608,102.528,92.93,103.173z M60.292,95.899c-0.302,0.341-0.604,0.656-0.591,0.669
		c0.443,0.461,0.904,0.908,1.406,1.301c0.044,0.034,0.391-0.317,0.597-0.49C61.27,96.924,60.836,96.469,60.292,95.899z
		 M55.07,96.928c-0.02,1.119,0.841,1.377,1.486,1.778c0.085,0.053,0.349-0.18,0.529-0.28c-0.452-0.479-0.889-0.972-1.367-1.423
		C55.614,96.903,55.367,96.956,55.07,96.928z M54.893,65.352c0.152-0.091,0.303-0.183,0.455-0.274
		c-0.311-0.524-0.622-1.049-0.932-1.573c-0.27,0.17-0.761,0.33-0.77,0.513C53.606,64.851,54.102,65.279,54.893,65.352z
		 M50.919,56.955c0.491-0.685,0.809-1.073,1.035-1.51c0.03-0.058-0.549-0.557-0.611-0.514c-0.372,0.259-0.731,0.581-0.969,0.961
		C50.299,56.012,50.61,56.375,50.919,56.955z M67.749,104.893c-0.823-0.447-1.338-0.759-1.888-0.985
		c-0.063-0.025-0.32,0.419-0.486,0.646c0.445,0.321,0.866,0.69,1.35,0.934C66.855,105.552,67.178,105.236,67.749,104.893z
		 M45.12,55.08c-0.143,0.001-0.286,0.003-0.428,0.005c-0.161,0.41-0.41,0.812-0.448,1.232c-0.021,0.235,0.309,0.502,0.48,0.755
		c0.328-0.389,0.731-0.742,0.942-1.186C45.736,55.737,45.316,55.355,45.12,55.08z M41.597,64.602
		c0.436,0.421,0.789,0.874,0.877,0.828c0.369-0.195,0.811-0.493,0.923-0.848c0.073-0.232-0.374-0.629-0.587-0.952
		C42.473,63.9,42.136,64.17,41.597,64.602z M61.955,104.565c0.605,0.477,1.001,0.788,1.398,1.1c0.194-0.253,0.604-0.635,0.543-0.737
		c-0.23-0.389-0.58-0.739-0.961-0.984C62.833,103.878,62.458,104.236,61.955,104.565z M49.419,52.839
		c-0.343,0.7-0.69,1.078-0.623,1.355c0.08,0.328,0.518,0.568,0.801,0.846c0.226-0.306,0.62-0.606,0.631-0.92
		C50.24,53.814,49.858,53.495,49.419,52.839z M49.575,91.459c0.129-1.629-0.602-2.08-1.839-1.306
		C48.411,90.633,48.993,91.046,49.575,91.459z M65.443,103.602c-0.719-0.569-1.125-0.945-1.593-1.215
		c-0.091-0.053-0.42,0.31-0.64,0.48c0.357,0.376,0.679,0.799,1.09,1.1C64.427,104.06,64.796,103.82,65.443,103.602z M46.52,52.386
		c0.668,0.386,1.031,0.735,1.421,0.769c0.231,0.021,0.505-0.456,0.76-0.708c-0.361-0.243-0.696-0.577-1.094-0.693
		C47.408,51.695,47.093,52.036,46.52,52.386z M41.934,68.103c0,0.996,0,1.592,0,2.188c0.125,0.07,0.251,0.14,0.376,0.209
		c0.331-0.442,0.805-0.851,0.921-1.344C43.278,68.958,42.538,68.575,41.934,68.103z M73.718,101.434
		c0.018-1.087-0.611-1.356-1.37-1.413c-0.135-0.01-0.455,0.39-0.42,0.534C72.144,101.451,72.84,101.498,73.718,101.434z
		 M61.477,91.819c-0.591-0.519-0.986-0.91-1.439-1.216c-0.067-0.045-0.405,0.312-0.618,0.482c0.387,0.396,0.754,0.816,1.181,1.161
		C60.677,92.309,61.004,92.058,61.477,91.819z M57.003,77.353c-0.781-0.406-1.268-0.685-1.783-0.892
		c-0.059-0.023-0.422,0.508-0.403,0.526c0.376,0.355,0.764,0.717,1.211,0.967C56.14,78.017,56.467,77.694,57.003,77.353z
		 M68.388,103.673c-0.657-0.429-1.145-0.784-1.674-1.058c-0.084-0.044-0.357,0.277-0.543,0.43c0.5,0.383,0.99,0.78,1.515,1.126
		C67.745,104.211,67.998,103.955,68.388,103.673z M55.551,68.716c0.189-0.187,0.377-0.374,0.566-0.56
		c-0.368-0.433-0.736-0.866-1.104-1.298c-0.187,0.296-0.6,0.736-0.519,0.861C54.748,68.114,55.185,68.393,55.551,68.716z
		 M65.836,94.655c-0.363,0.443-0.536,0.653-0.708,0.864c0.444,0.357,0.875,0.734,1.348,1.047c0.052,0.034,0.519-0.415,0.501-0.441
		C66.671,95.676,66.32,95.258,65.836,94.655z M58.219,91.331c-0.672-0.358-1.1-0.653-1.574-0.799
		c-0.141-0.044-0.41,0.331-0.621,0.515c0.458,0.312,0.902,0.654,1.39,0.91C57.5,92.002,57.774,91.687,58.219,91.331z
		 M92.337,100.471c-0.491-0.276-0.811-0.573-0.94-0.506c-0.36,0.187-0.703,0.486-0.917,0.827c-0.064,0.102,0.318,0.485,0.496,0.739
		C91.354,101.236,91.732,100.941,92.337,100.471z M82.922,105.142c-0.621-0.454-0.945-0.776-1.335-0.926
		c-0.117-0.044-0.64,0.511-0.596,0.595c0.171,0.332,0.449,0.687,0.777,0.833C81.953,105.728,82.312,105.423,82.922,105.142z
		 M49.963,72.137c-0.208,0.325-0.488,0.684-0.453,0.718c0.367,0.355,0.768,0.686,1.207,0.943c0.056,0.034,0.376-0.382,0.575-0.589
		C50.884,72.88,50.476,72.551,49.963,72.137z M49.405,55.889c-0.604-0.436-0.905-0.805-1.248-0.85
		c-0.261-0.035-0.577,0.342-0.869,0.535c0.303,0.256,0.572,0.61,0.921,0.733C48.435,56.387,48.779,56.125,49.405,55.889z
		 M94.958,101.757c-0.362,0.668-0.649,0.995-0.689,1.351c-0.022,0.202,0.357,0.451,0.556,0.679c0.227-0.32,0.529-0.616,0.648-0.973
		C95.532,102.635,95.259,102.345,94.958,101.757z M44.067,61.818c-0.36,0.412-0.726,0.767-0.695,0.805
		c0.271,0.34,0.592,0.655,0.953,0.897c0.066,0.045,0.566-0.362,0.544-0.409C44.687,62.726,44.429,62.375,44.067,61.818z
		 M46.639,61.511c0.256-0.425,0.572-0.809,0.514-0.879c-0.271-0.326-0.647-0.564-0.985-0.834c-0.166,0.221-0.52,0.542-0.465,0.646
		C45.886,60.788,46.217,61.055,46.639,61.511z M51.082,50.074c0.321-0.438,0.675-0.758,0.618-0.873
		c-0.168-0.338-0.478-0.625-0.79-0.852c-0.05-0.037-0.603,0.402-0.569,0.504C50.461,49.22,50.734,49.535,51.082,50.074z
		 M55.837,71.665c-0.171,0.186-0.343,0.372-0.515,0.558c0.404,0.371,0.803,0.75,1.233,1.089c0.021,0.016,0.325-0.33,0.498-0.507
		C56.648,72.425,56.243,72.045,55.837,71.665z M73.245,107.776c0.087-0.151,0.173-0.302,0.26-0.452
		c-0.087-0.777-0.675-0.923-1.331-0.896c-0.111,0.004-0.311,0.483-0.298,0.492C72.319,107.225,72.784,107.498,73.245,107.776z
		 M73.349,98.612c-0.173,0.183-0.345,0.365-0.518,0.548c0.377,0.346,0.743,0.706,1.153,1.006c0.034,0.025,0.371-0.363,0.567-0.561
		C74.15,99.274,73.75,98.943,73.349,98.612z M79.227,96.049c-0.238,0.44-0.484,0.765-0.432,0.823
		c0.267,0.302,0.593,0.567,0.943,0.766c0.067,0.038,0.336-0.28,0.512-0.434C79.961,96.879,79.673,96.554,79.227,96.049z
		 M47.248,70.764c-0.136,0.88,0.355,1.137,1.025,1.13c0.17-0.001,0.51-0.359,0.479-0.478C48.539,70.586,47.914,70.648,47.248,70.764
		z M76.499,102.896c-0.616-0.36-0.896-0.626-1.207-0.671c-0.218-0.031-0.48,0.237-0.723,0.372c0.285,0.252,0.539,0.574,0.87,0.724
		C75.603,103.394,75.91,103.146,76.499,102.896z M87.327,100.214c-0.135,0.179-0.27,0.356-0.404,0.534
		c0.457,0.347,0.913,0.693,1.369,1.041c0.109-0.178,0.341-0.486,0.311-0.515C88.198,100.898,87.759,100.562,87.327,100.214z
		 M68.001,96.275c-0.276,0.486-0.565,0.831-0.503,0.914c0.23,0.308,0.564,0.547,0.894,0.757c0.034,0.021,0.472-0.402,0.433-0.489
		C68.67,97.113,68.4,96.822,68.001,96.275z M77.481,101.313c-0.607-0.308-0.902-0.536-1.226-0.587
		c-0.149-0.023-0.354,0.3-0.532,0.465c0.262,0.234,0.492,0.547,0.798,0.667C76.673,101.918,76.964,101.621,77.481,101.313z
		 M53.628,65.356c-0.169,0.103-0.339,0.205-0.509,0.308c0.185,0.38,0.341,0.783,0.587,1.118c0.037,0.05,0.5-0.212,0.765-0.331
		C54.19,66.087,53.909,65.722,53.628,65.356z M96.003,104.154c0.15,0.171,0.301,0.342,0.45,0.513
		c0.313-0.254,0.627-0.508,0.94-0.761c-0.198-0.194-0.396-0.389-0.594-0.583C96.534,103.601,96.269,103.877,96.003,104.154z
		 M59.303,90.107c-0.596-0.358-0.909-0.612-1.266-0.727c-0.133-0.042-0.371,0.247-0.561,0.385c0.299,0.256,0.572,0.56,0.91,0.741
		C58.509,90.572,58.789,90.343,59.303,90.107z M45.166,58.249c-0.173,0.092-0.346,0.185-0.519,0.278
		c-0.146,0.219-0.462,0.548-0.405,0.637c0.16,0.249,0.455,0.494,0.734,0.548c0.152,0.029,0.538-0.332,0.539-0.518
		C45.515,58.878,45.294,58.563,45.166,58.249z"/>
	<path fill-rule="evenodd" clip-rule="evenodd" fill="#FFFFFF" d="M77.003,91.918c-2.266,0.021-7.425-3.719-7.836-5.885
		c1.067,0.737,1.906,1.31,2.738,1.893c0.913,0.64,1.876,1.221,2.708,1.952C75.362,90.537,76.665,90.566,77.003,91.918z"/>
	<path fill-rule="evenodd" clip-rule="evenodd" fill="#FFFFFF" d="M57.487,83.369c0.898,0.847,1.99,1.412,2.023,2.034
		c0.035,0.655-0.942,1.364-1.477,2.05c-0.708-0.605-1.692-1.097-2.01-1.863C55.855,85.183,56.844,84.296,57.487,83.369z"/>
	<path fill-rule="evenodd" clip-rule="evenodd" fill="#FFFFFF" d="M51.287,79.264c-0.923,0.71-1.574,1.599-2.229,1.602
		c-0.604,0.004-1.211-0.945-1.818-1.474c0.558-0.573,1.099-1.585,1.676-1.606C49.591,77.761,50.297,78.6,51.287,79.264z"/>
	<path fill-rule="evenodd" clip-rule="evenodd" fill="#FFFFFF" d="M56.436,83.546c-0.678,0.438-1.349,1.191-2.038,1.208
		c-0.506,0.013-1.037-0.938-1.556-1.46c0.562-0.526,1.045-1.282,1.71-1.517C55.244,81.535,56.28,82.615,56.436,83.546z"/>
	<path fill-rule="evenodd" clip-rule="evenodd" fill="#FFFFFF" d="M65.109,92.587c-0.405-0.548-1.239-1.223-1.123-1.615
		c0.215-0.726,0.989-1.285,1.529-1.914c0.497,0.506,1.435,1.058,1.388,1.507c-0.073,0.708-0.809,1.347-1.264,2.016
		C65.463,92.582,65.286,92.585,65.109,92.587z"/>
	<path fill-rule="evenodd" clip-rule="evenodd" fill="#FFFFFF" d="M103.785,96.287c0.654,0.028,1.024,0.642,0.583,1.296
		c-0.292,0.431-0.777,1.117-1.089,1.073c-0.914-0.13-1.788-0.561-2.655-0.927c-0.021-0.01,0.153-0.894,0.354-0.95
		C101.845,96.537,102.756,96.451,103.785,96.287z"/>
	<path fill-rule="evenodd" clip-rule="evenodd" fill="#FFFFFF" d="M52.149,79.866c0.262,0.258,1.154,0.896,1.065,1.093
		c-0.325,0.721-0.869,1.564-1.541,1.831c-0.473,0.188-1.474-0.285-1.49-1.279C50.174,80.806,51.132,79.848,52.149,79.866z"/>
	<path fill-rule="evenodd" clip-rule="evenodd" fill="#FFFFFF" d="M87.667,103.742c-0.973,0.849-1.558,1.521-2.294,1.894
		c-0.202,0.104-1.288-0.944-1.238-1.028c0.434-0.727,0.951-1.478,1.635-1.939C85.986,102.521,86.775,103.218,87.667,103.742z"/>
	<path fill-rule="evenodd" clip-rule="evenodd" fill="#FFFFFF" d="M77.257,96.92c-0.896,0.801-1.492,1.465-2.227,1.892
		c-0.164,0.095-1.217-0.884-1.174-0.956c0.444-0.742,0.961-1.486,1.628-2.013C75.643,95.719,76.442,96.409,77.257,96.92z"/>
	<path fill-rule="evenodd" clip-rule="evenodd" fill="#FFFFFF" d="M46.407,79.169c-0.595-0.778-1.314-1.312-1.268-1.766
		c0.05-0.489,0.787-1.209,1.283-1.262c0.454-0.048,0.988,0.661,1.487,1.036C47.48,77.746,47.051,78.315,46.407,79.169z"/>
	<path fill-rule="evenodd" clip-rule="evenodd" fill="#FFFFFF" d="M64.143,88.586c-0.624,0.519-1.214,1.095-1.904,1.501
		c-0.12,0.07-1.002-0.796-0.958-0.865c0.414-0.65,0.888-1.309,1.496-1.762c0.174-0.13,0.84,0.402,1.28,0.631
		C64.085,88.256,64.114,88.421,64.143,88.586z"/>
	<path fill-rule="evenodd" clip-rule="evenodd" fill="#FFFFFF" d="M47.047,82.86c-0.402,0.612-0.804,1.226-1.206,1.838
		c-0.324-0.663-0.838-1.31-0.899-1.996c-0.038-0.417,0.564-1.2,0.987-1.286c0.898-0.184,0.955,0.571,0.836,1.277
		C46.86,82.749,46.954,82.805,47.047,82.86z"/>
	<path fill-rule="evenodd" clip-rule="evenodd" fill="#FFFFFF" d="M51.08,74.861c0.759,0.866,1.325,1.449,1.769,2.114
		c0.048,0.072-0.767,0.955-0.917,0.887c-0.708-0.326-1.37-0.807-1.92-1.359C49.934,76.424,50.562,75.644,51.08,74.861z"/>
	<path fill-rule="evenodd" clip-rule="evenodd" fill="#FFFFFF" d="M63.435,99.902c0.082,0.356,0.164,0.713,0.246,1.069
		c-0.499-0.032-0.997-0.065-1.527-0.101c0.009,0.04,0.021,0.144,0.056,0.237c0.15,0.406,0.313,0.81,0.439,1.223
		c0.005,0.018-0.396,0.243-0.474,0.187c-0.464-0.333-0.911-0.7-1.306-1.11c-0.071-0.073,0.089-0.432,0.211-0.613
		c0.262-0.391,0.568-0.751,1.055-1.382c0.271,0.107,0.807,0.317,1.342,0.528L63.435,99.902z"/>
	<path fill-rule="evenodd" clip-rule="evenodd" fill="#FFFFFF" d="M59.458,81.025c0.749,0.904,1.307,1.518,1.76,2.201
		c0.055,0.083-0.639,0.818-0.688,0.787c-0.685-0.438-1.365-0.912-1.917-1.499C58.521,82.417,59.04,81.745,59.458,81.025z"/>
	<path fill-rule="evenodd" clip-rule="evenodd" fill="#FFFFFF" d="M69.974,95.947c-0.387-0.604-0.778-1.021-0.705-1.133
		c0.473-0.718,1.047-1.37,1.588-2.043c0.331,0.33,0.993,0.881,0.942,0.958C71.331,94.435,70.739,95.057,69.974,95.947z"/>
	<path fill-rule="evenodd" clip-rule="evenodd" fill="#FFFFFF" d="M80.481,102.755c-0.503-0.66-1.054-1.143-0.97-1.315
		c0.334-0.688,0.866-1.28,1.325-1.907c0.338,0.26,1.004,0.648,0.96,0.758C81.503,101.036,81.06,101.724,80.481,102.755z"/>
	<path fill-rule="evenodd" clip-rule="evenodd" fill="#FFFFFF" d="M81.759,103.017c0.737-0.746,1.303-1.318,1.869-1.891
		c0.261,0.281,0.703,0.538,0.744,0.848c0.097,0.743-1.061,2.255-1.514,2.073C82.503,103.904,82.253,103.498,81.759,103.017z"/>
	<path fill-rule="evenodd" clip-rule="evenodd" fill="#FFFFFF" d="M79.522,98.437c-0.687,0.861-1.188,1.497-1.7,2.125
		c-0.041,0.051-0.187,0.093-0.215,0.066c-0.277-0.264-0.819-0.693-0.765-0.793c0.408-0.75,0.912-1.454,1.464-2.106
		C78.351,97.676,78.972,98.111,79.522,98.437z"/>
	<path fill-rule="evenodd" clip-rule="evenodd" fill="#FFFFFF" d="M55.114,100.648c-0.598-0.654-1.299-1.191-1.67-1.901
		c-0.31-0.595,0.357-0.906,0.824-0.694c0.701,0.32,1.321,0.832,1.934,1.316c0.108,0.086,0.104,0.521-0.009,0.638
		C55.97,100.235,55.634,100.354,55.114,100.648z"/>
	<path fill-rule="evenodd" clip-rule="evenodd" fill="#FFFFFF" d="M46.735,74.421c-0.607-0.697-1.211-1.121-1.355-1.666
		c-0.074-0.28,0.821-1.174,1.021-1.1c0.562,0.208,1.161,0.701,1.395,1.235C47.908,73.146,47.224,73.749,46.735,74.421z"/>
	<path fill-rule="evenodd" clip-rule="evenodd" fill="#FFFFFF" d="M69.688,92.471c-0.867,0.599-1.479,1.045-2.133,1.42
		c-0.04,0.023-0.636-0.689-0.578-0.768c0.484-0.655,1.062-1.242,1.611-1.851C68.868,91.577,69.148,91.882,69.688,92.471z"/>
	<path fill-rule="evenodd" clip-rule="evenodd" fill="#FFFFFF" d="M45.96,75.461c-0.743,0.586-1.228,1.262-1.691,1.247
		c-0.424-0.013-1.004-0.718-1.16-1.228c-0.079-0.259,0.667-1.106,0.968-1.071C44.65,74.477,45.171,74.986,45.96,75.461z"/>
	<path fill-rule="evenodd" clip-rule="evenodd" fill="#FFFFFF" d="M46.13,66.365c-0.402,0.308-0.977,0.958-1.173,0.859
		c-0.595-0.3-1.042-0.892-1.547-1.369c0.271-0.268,0.606-0.802,0.8-0.754c0.665,0.161,1.281,0.527,1.915,0.814
		C46.126,66.065,46.128,66.215,46.13,66.365z"/>
	<path fill-rule="evenodd" clip-rule="evenodd" fill="#FFFFFF" d="M76.019,105.7c1.051-0.008,2.117,0.804,1.982,1.409
		c-0.073,0.329-0.649,0.861-0.694,0.832c-0.665-0.429-1.29-0.926-1.869-1.465C75.408,106.45,75.878,105.887,76.019,105.7z"/>
	<path fill-rule="evenodd" clip-rule="evenodd" fill="#FFFFFF" d="M58.717,80.808c-0.778,0.45-1.333,1.003-1.621,0.889
		c-0.59-0.235-1.038-0.829-1.544-1.275c0.391-0.322,0.864-0.972,1.156-0.898C57.319,79.676,57.836,80.209,58.717,80.808z"/>
	<path fill-rule="evenodd" clip-rule="evenodd" fill="#FFFFFF" d="M49.997,59.042c0.552,0.572,1.311,1.063,1.24,1.351
		c-0.119,0.486-0.76,1.165-1.186,1.167c-0.437,0.002-1.087-0.644-1.236-1.13C48.73,60.155,49.471,59.629,49.997,59.042z"/>
	<path fill-rule="evenodd" clip-rule="evenodd" fill="#FFFFFF" d="M44.396,72.522c-0.585-0.65-1.114-1.041-1.311-1.558
		c-0.073-0.193,0.667-1,0.972-0.965c0.549,0.062,1.05,0.548,1.571,0.857C45.273,71.335,44.92,71.813,44.396,72.522z"/>
	<path fill-rule="evenodd" clip-rule="evenodd" fill="#FFFFFF" d="M55.003,90.73c-0.682-0.444-1.35-0.842-1.958-1.314
		c-0.104-0.081-0.046-0.61,0.097-0.718c0.252-0.188,0.71-0.381,0.937-0.271c0.599,0.289,1.14,0.715,1.658,1.141
		c0.136,0.111,0.22,0.513,0.131,0.625C55.7,90.405,55.389,90.506,55.003,90.73z"/>
	<path fill-rule="evenodd" clip-rule="evenodd" fill="#FFFFFF" d="M54.291,80.177c-0.586-0.699-0.983-1.174-1.381-1.647
		c0.407-0.317,0.888-0.951,1.206-0.878c0.508,0.117,1.037,0.638,1.287,1.126C55.495,78.957,54.824,79.528,54.291,80.177z"/>
	<path fill-rule="evenodd" clip-rule="evenodd" fill="#FFFFFF" d="M51.908,88.708c-0.705-0.729-1.382-1.409-2.022-2.123
		c-0.069-0.076,0.033-0.46,0.14-0.506c0.193-0.083,0.499-0.103,0.672-0.002c0.618,0.359,1.231,0.741,1.777,1.197
		c0.195,0.162,0.293,0.575,0.248,0.842C52.694,88.294,52.333,88.415,51.908,88.708z"/>
	<path fill-rule="evenodd" clip-rule="evenodd" fill="#FFFFFF" d="M61.638,86.57c-0.536,0.688-1.003,1.364-1.576,1.936
		c-0.083,0.083-0.672-0.343-1.027-0.533c0.342-0.547,0.626-1.147,1.052-1.619c0.212-0.235,0.681-0.289,1.041-0.312
		C61.265,86.031,61.422,86.335,61.638,86.57z"/>
	<path fill-rule="evenodd" clip-rule="evenodd" fill="#FFFFFF" d="M50.556,74.75c-0.674,0.422-1.14,0.938-1.446,0.855
		c-0.517-0.139-0.933-0.654-1.392-1.012c0.429-0.346,0.855-0.959,1.287-0.963C49.44,73.628,49.88,74.229,50.556,74.75z"/>
	<path fill-rule="evenodd" clip-rule="evenodd" fill="#FFFFFF" d="M88.598,97.746c0.651,0.713,1.168,1.123,1.43,1.658
		c0.075,0.155-0.724,1.013-0.867,0.952c-0.52-0.222-1.058-0.627-1.326-1.108C87.713,99.031,88.211,98.47,88.598,97.746z"/>
	<path fill-rule="evenodd" clip-rule="evenodd" fill="#FFFFFF" d="M69.442,107.94c-0.664-0.713-1.22-1.295-1.73-1.915
		c-0.02-0.023,0.561-0.626,0.598-0.599c0.706,0.519,1.372,1.092,2.047,1.652C70.138,107.286,69.919,107.492,69.442,107.94z"/>
	<path fill-rule="evenodd" clip-rule="evenodd" fill="#FFFFFF" d="M46.916,66.511c0.491,0.614,1.054,1.011,1.035,1.377
		c-0.022,0.413-0.568,0.798-0.887,1.195c-0.445-0.39-1.003-0.718-1.269-1.206C45.708,67.718,46.381,67.143,46.916,66.511z"/>
	<path fill-rule="evenodd" clip-rule="evenodd" fill="#FFFFFF" d="M58.091,102.527c-0.654-0.657-1.156-1.16-1.658-1.664
		c0.284-0.271,0.737-0.821,0.825-0.768c0.601,0.363,1.146,0.833,1.637,1.339C58.939,101.479,58.462,102.029,58.091,102.527z"/>
	<path fill-rule="evenodd" clip-rule="evenodd" fill="#FFFFFF" d="M58.237,96.755c-0.004,0.039,0.008,0.097-0.014,0.115
		c-0.188,0.163-0.48,0.493-0.559,0.449c-0.698-0.393-1.38-0.824-2.006-1.32c-0.098-0.077,0.058-0.752,0.188-0.784
		c0.338-0.085,0.787-0.071,1.083,0.095c0.569,0.319,1.062,0.771,1.587,1.169C58.423,96.57,58.33,96.663,58.237,96.755z"/>
	<path fill-rule="evenodd" clip-rule="evenodd" fill="#FFFFFF" d="M50.849,69.802c-0.603,0.41-1.022,0.906-1.291,0.834
		c-0.529-0.141-0.975-0.596-1.455-0.922c0.404-0.369,0.797-1.013,1.216-1.03C49.735,68.666,50.178,69.278,50.849,69.802z"/>
	<path fill-rule="evenodd" clip-rule="evenodd" fill="#FFFFFF" d="M77.982,103.689c0.239-0.459-0.233-1.472,0.723-1.31
		c0.575,0.098,1.079,0.754,1.546,1.228c0.102,0.103-0.014,0.596-0.177,0.729c-0.143,0.117-0.512,0.037-0.746-0.05
		c-0.473-0.174-0.921-0.412-1.38-0.623L77.982,103.689z"/>
	<path fill-rule="evenodd" clip-rule="evenodd" fill="#FFFFFF" d="M53.291,92.951c-0.178,0.262-0.264,0.495-0.348,0.494
		c-0.413-0.005-0.916,0.061-1.216-0.147c-0.454-0.312-0.774-0.824-1.122-1.274c-0.033-0.042,0.153-0.362,0.224-0.358
		c0.378,0.026,0.805,0.022,1.115,0.203C52.427,92.149,52.83,92.569,53.291,92.951z"/>
	<path fill-rule="evenodd" clip-rule="evenodd" fill="#FFFFFF" d="M88.909,105.326c-0.645,0.686-1.156,1.229-1.668,1.773
		c-0.203-0.241-0.625-0.615-0.572-0.702c0.382-0.632,0.859-1.205,1.306-1.797C88.221,104.791,88.466,104.982,88.909,105.326z"/>
	<path fill-rule="evenodd" clip-rule="evenodd" fill="#FFFFFF" d="M62.194,103.321c-0.63,0.462-1.061,0.9-1.164,0.833
		c-0.562-0.363-1.044-0.852-1.553-1.298c0.278-0.216,0.635-0.666,0.819-0.604C60.866,102.447,61.371,102.835,62.194,103.321z"/>
	<path fill-rule="evenodd" clip-rule="evenodd" fill="#FFFFFF" d="M70.866,101.737c0.684,0.702,1.231,1.264,1.78,1.826
		c-0.24,0.201-0.628,0.617-0.697,0.569c-0.644-0.441-1.239-0.958-1.812-1.491C70.122,102.627,70.51,102.178,70.866,101.737z"/>
	<path fill-rule="evenodd" clip-rule="evenodd" fill="#FFFFFF" d="M58.929,91.723c0.717,0.618,1.288,1.109,1.858,1.601
		c-0.222,0.213-0.57,0.646-0.647,0.603c-0.654-0.369-1.258-0.826-1.878-1.258C58.437,92.42,58.612,92.172,58.929,91.723z"/>
	<path fill-rule="evenodd" clip-rule="evenodd" fill="#FFFFFF" d="M65.667,99.901c0.274,0.422,0.872,0.994,0.759,1.234
		c-0.259,0.552-1.051,1.421-1.297,1.324c-2.073-0.817,0.39-1.497,0.048-2.323C65.341,100.059,65.504,99.98,65.667,99.901z"/>
	<path fill-rule="evenodd" clip-rule="evenodd" fill="#FFFFFF" d="M71.242,96.389c0.52-0.748,0.889-1.392,1.382-1.919
		c0.144-0.155,0.67-0.052,0.956,0.079c0.096,0.044,0.099,0.689-0.049,0.797C72.932,95.785,72.713,96.943,71.242,96.389z"/>
	<path fill-rule="evenodd" clip-rule="evenodd" fill="#FFFFFF" d="M51.737,70.361c0.487,0.605,0.996,0.971,1.037,1.384
		c0.025,0.256-0.704,0.859-1.014,0.809c-0.406-0.066-0.886-0.57-1.029-0.99C50.659,71.351,51.257,70.91,51.737,70.361z"/>
	<path fill-rule="evenodd" clip-rule="evenodd" fill="#FFFFFF" d="M75.809,105.125c-0.659,0.479-1.12,0.964-1.253,0.887
		c-0.564-0.33-1.031-0.827-1.533-1.263c0.23-0.216,0.531-0.654,0.681-0.607C74.315,104.333,74.881,104.672,75.809,105.125z"/>
	<path fill-rule="evenodd" clip-rule="evenodd" fill="#FFFFFF" d="M47.916,57.239c-0.747,0.544-1.192,0.961-1.718,1.191
		c-0.148,0.065-0.806-0.571-0.773-0.629c0.265-0.471,0.567-1.008,1.009-1.255C46.649,56.425,47.186,56.879,47.916,57.239z"/>
	<path fill-rule="evenodd" clip-rule="evenodd" fill="#FFFFFF" d="M55.49,74.454c-0.446,0.245-0.774,0.5-0.835,0.447
		c-0.574-0.499-1.103-1.05-1.645-1.585c0.267-0.224,0.737-0.671,0.771-0.639C54.336,73.182,54.835,73.748,55.49,74.454z"/>
	<path fill-rule="evenodd" clip-rule="evenodd" fill="#FFFFFF" d="M51.129,51.118c0.532,0.496,0.884,0.824,1.236,1.152
		c-0.375,0.34-0.707,0.83-1.145,0.958c-0.226,0.066-0.898-0.506-0.904-0.8C50.309,52.049,50.766,51.661,51.129,51.118z"/>
	<path fill-rule="evenodd" clip-rule="evenodd" fill="#FFFFFF" d="M49.521,58.56c-0.788,0.526-1.239,0.927-1.767,1.126
		c-0.184,0.069-0.555-0.361-0.841-0.563c0.434-0.415,0.827-0.894,1.325-1.205C48.389,57.824,48.831,58.2,49.521,58.56z"/>
	<path fill-rule="evenodd" clip-rule="evenodd" fill="#FFFFFF" d="M54.401,75.398c-0.421,0.368-0.7,0.696-0.769,0.657
		c-0.655-0.374-1.274-0.811-1.904-1.229c0.22-0.221,0.548-0.668,0.644-0.623C53.013,74.505,53.604,74.91,54.401,75.398z"/>
	<path fill-rule="evenodd" clip-rule="evenodd" fill="#FFFFFF" d="M53.931,93.117c0.613,0.706,1.051,1.193,1.443,1.714
		c0.018,0.024-0.498,0.55-0.554,0.514c-0.53-0.341-1.035-0.73-1.483-1.172C53.283,94.119,53.609,93.678,53.931,93.117z"/>
	<path fill-rule="evenodd" clip-rule="evenodd" fill="#FFFFFF" d="M49.322,51.99c-0.442-0.596-0.677-0.913-0.912-1.229
		c0.413-0.303,0.81-0.633,1.257-0.87c0.053-0.028,0.584,0.516,0.533,0.686C50.073,50.998,49.737,51.356,49.322,51.99z"/>
	<path fill-rule="evenodd" clip-rule="evenodd" fill="#FFFFFF" d="M46.453,65.765c-0.553-0.661-0.967-1.135-1.328-1.647
		c-0.017-0.024,0.593-0.579,0.636-0.544c0.496,0.398,0.953,0.851,1.37,1.333C47.163,64.944,46.817,65.309,46.453,65.765z"/>
	<path fill-rule="evenodd" clip-rule="evenodd" fill="#FFFFFF" d="M61.286,98.648c-0.597,0.289-0.941,0.573-1.067,0.497
		c-0.567-0.345-1.072-0.792-1.6-1.202c0.188-0.204,0.482-0.615,0.548-0.582C59.793,97.684,60.382,98.081,61.286,98.648z"/>
	<path fill-rule="evenodd" clip-rule="evenodd" fill="#FFFFFF" d="M50.483,66.984c0.551,0.632,0.958,1.052,1.279,1.53
		c0.04,0.059-0.536,0.644-0.567,0.622c-0.48-0.342-0.942-0.722-1.334-1.16C49.808,67.915,50.156,67.495,50.483,66.984z"/>
	<path fill-rule="evenodd" clip-rule="evenodd" fill="#FFFFFF" d="M62.834,96.133c-0.636-0.666-1.1-1.152-1.564-1.639
		c0.218-0.181,0.564-0.556,0.632-0.511c0.535,0.356,1.032,0.777,1.491,1.228C63.436,95.253,63.137,95.643,62.834,96.133z"/>
	<path fill-rule="evenodd" clip-rule="evenodd" fill="#FFFFFF" d="M48.103,60.995c0.521,0.557,0.943,0.986,1.309,1.458
		c0.021,0.027-0.562,0.632-0.622,0.593c-0.521-0.337-0.987-0.76-1.469-1.157C47.532,61.646,47.744,61.404,48.103,60.995z"/>
	<path fill-rule="evenodd" clip-rule="evenodd" fill="#FFFFFF" d="M77.948,103.664c0.377,0.338,0.789,0.646,1.114,1.027
		c0.17,0.199,0.186,0.528,0.271,0.799c-0.253,0.055-0.535,0.206-0.754,0.141c-0.367-0.109-0.728-0.313-1.032-0.553
		c-0.645-0.507-0.479-0.987,0.438-1.386C77.982,103.689,77.948,103.664,77.948,103.664z"/>
	<path fill-rule="evenodd" clip-rule="evenodd" fill="#FFFFFF" d="M47.573,54.055c-0.441,0.452-0.82,0.958-0.91,0.911
		c-0.447-0.233-0.818-0.612-1.216-0.94c0.294-0.264,0.59-0.742,0.881-0.739C46.683,53.291,47.033,53.698,47.573,54.055z"/>
	<path fill-rule="evenodd" clip-rule="evenodd" fill="#FFFFFF" d="M60.389,100.034c-0.521,0.349-0.822,0.637-0.896,0.587
		c-0.589-0.398-1.135-0.859-1.694-1.302c0.171-0.161,0.425-0.494,0.502-0.457C58.93,99.165,59.526,99.536,60.389,100.034z"/>
	<path fill-rule="evenodd" clip-rule="evenodd" fill="#FFFFFF" d="M51.956,64.126c-0.498,0.396-0.931,0.87-1.041,0.804
		c-0.426-0.256-0.75-0.683-1.111-1.046c0.242-0.205,0.543-0.622,0.714-0.574C50.963,63.435,51.352,63.763,51.956,64.126z"/>
	<path fill-rule="evenodd" clip-rule="evenodd" fill="#FFFFFF" d="M49.833,66.466c-0.593,0.377-1.002,0.781-1.145,0.703
		c-0.432-0.239-0.784-0.646-1.097-1.043c-0.036-0.046,0.466-0.675,0.561-0.637C48.646,65.687,49.09,66.012,49.833,66.466z"/>
	<path fill-rule="evenodd" clip-rule="evenodd" fill="#FFFFFF" d="M62.941,92.433c0.555,0.607,1.002,1.06,1.38,1.562
		c0.041,0.054-0.319,0.408-0.494,0.623c-0.491-0.469-0.992-0.928-1.452-1.425C62.347,93.162,62.638,92.836,62.941,92.433z"/>
	<path fill-rule="evenodd" clip-rule="evenodd" fill="#FFFFFF" d="M69.085,104.272c0.898,0.464,1.527,0.742,2.094,1.113
		c0.141,0.091,0.166,0.513,0.089,0.729c-0.049,0.138-0.448,0.304-0.575,0.237C69.999,105.987,69.2,105.678,69.085,104.272z"/>
	<path fill-rule="evenodd" clip-rule="evenodd" fill="#FFFFFF" d="M92.93,103.173c-0.321-0.645-0.636-1.003-0.555-1.167
		c0.219-0.442,0.604-0.802,0.925-1.194c0.202,0.24,0.618,0.547,0.567,0.708C93.721,101.991,93.388,102.404,92.93,103.173z"/>
	<path fill-rule="evenodd" clip-rule="evenodd" fill="#FFFFFF" d="M60.292,95.899c0.543,0.569,0.978,1.024,1.412,1.479
		c-0.206,0.173-0.553,0.524-0.597,0.49c-0.502-0.393-0.963-0.84-1.406-1.301C59.688,96.556,59.99,96.24,60.292,95.899z"/>
	<path fill-rule="evenodd" clip-rule="evenodd" fill="#FFFFFF" d="M55.07,96.928c0.297,0.028,0.544-0.024,0.649,0.075
		c0.478,0.451,0.915,0.944,1.367,1.423c-0.181,0.101-0.444,0.333-0.529,0.28C55.911,98.305,55.05,98.047,55.07,96.928z"/>
	<path fill-rule="evenodd" clip-rule="evenodd" fill="#FFFFFF" d="M54.893,65.352c-0.791-0.073-1.286-0.501-1.247-1.334
		c0.008-0.183,0.5-0.343,0.77-0.513c0.311,0.524,0.621,1.049,0.932,1.573C55.196,65.169,55.044,65.261,54.893,65.352z"/>
	<path fill-rule="evenodd" clip-rule="evenodd" fill="#FFFFFF" d="M50.919,56.955c-0.309-0.58-0.62-0.942-0.545-1.063
		c0.237-0.38,0.597-0.702,0.969-0.961c0.062-0.043,0.641,0.457,0.611,0.514C51.728,55.881,51.41,56.27,50.919,56.955z"/>
	<path fill-rule="evenodd" clip-rule="evenodd" fill="#FFFFFF" d="M67.749,104.893c-0.571,0.344-0.894,0.659-1.024,0.594
		c-0.484-0.243-0.905-0.612-1.35-0.934c0.167-0.227,0.423-0.671,0.486-0.646C66.411,104.134,66.926,104.445,67.749,104.893z"/>
	<path fill-rule="evenodd" clip-rule="evenodd" fill="#FFFFFF" d="M45.12,55.08c0.196,0.275,0.616,0.657,0.546,0.806
		c-0.211,0.444-0.614,0.797-0.942,1.186c-0.172-0.252-0.501-0.52-0.48-0.755c0.038-0.421,0.288-0.823,0.448-1.232
		C44.834,55.083,44.978,55.082,45.12,55.08z"/>
	<path fill-rule="evenodd" clip-rule="evenodd" fill="#FFFFFF" d="M41.597,64.602c0.539-0.432,0.875-0.702,1.213-0.972
		c0.213,0.323,0.66,0.719,0.587,0.952c-0.112,0.355-0.554,0.652-0.923,0.848C42.386,65.476,42.033,65.023,41.597,64.602z"/>
	<path fill-rule="evenodd" clip-rule="evenodd" fill="#FFFFFF" d="M61.955,104.565c0.503-0.329,0.878-0.688,0.98-0.622
		c0.381,0.245,0.731,0.596,0.961,0.984c0.061,0.103-0.35,0.484-0.543,0.737C62.956,105.354,62.56,105.042,61.955,104.565z"/>
	<path fill-rule="evenodd" clip-rule="evenodd" fill="#FFFFFF" d="M49.419,52.839c0.439,0.656,0.821,0.976,0.81,1.28
		c-0.011,0.314-0.405,0.614-0.631,0.92c-0.283-0.278-0.721-0.518-0.801-0.846C48.729,53.917,49.076,53.539,49.419,52.839z"/>
	<path fill-rule="evenodd" clip-rule="evenodd" fill="#FFFFFF" d="M49.575,91.459c-0.582-0.413-1.164-0.826-1.839-1.306
		C48.973,89.379,49.704,89.83,49.575,91.459z"/>
	<path fill-rule="evenodd" clip-rule="evenodd" fill="#FFFFFF" d="M65.443,103.602c-0.647,0.219-1.016,0.458-1.143,0.365
		c-0.411-0.301-0.733-0.724-1.09-1.1c0.22-0.171,0.549-0.533,0.64-0.48C64.317,102.656,64.724,103.032,65.443,103.602z"/>
	<path fill-rule="evenodd" clip-rule="evenodd" fill="#FFFFFF" d="M46.52,52.386c0.573-0.35,0.888-0.69,1.087-0.633
		c0.398,0.116,0.733,0.45,1.094,0.693c-0.255,0.253-0.529,0.729-0.76,0.708C47.551,53.121,47.188,52.772,46.52,52.386z"/>
	<path fill-rule="evenodd" clip-rule="evenodd" fill="#FFFFFF" d="M41.934,68.103c0.604,0.473,1.345,0.856,1.298,1.054
		c-0.116,0.493-0.59,0.901-0.921,1.344c-0.125-0.07-0.251-0.14-0.376-0.209C41.934,69.694,41.934,69.098,41.934,68.103z"/>
	<path fill-rule="evenodd" clip-rule="evenodd" fill="#FFFFFF" d="M73.718,101.434c-0.878,0.064-1.574,0.018-1.79-0.879
		c-0.035-0.145,0.285-0.544,0.42-0.534C73.106,100.077,73.735,100.347,73.718,101.434z"/>
	<path fill-rule="evenodd" clip-rule="evenodd" fill="#FFFFFF" d="M61.477,91.819c-0.473,0.238-0.8,0.489-0.876,0.428
		c-0.427-0.345-0.794-0.766-1.181-1.161c0.213-0.171,0.551-0.527,0.618-0.482C60.491,90.909,60.886,91.301,61.477,91.819z"/>
	<path fill-rule="evenodd" clip-rule="evenodd" fill="#FFFFFF" d="M57.003,77.353c-0.536,0.342-0.863,0.664-0.975,0.602
		c-0.447-0.25-0.835-0.611-1.211-0.967c-0.019-0.019,0.344-0.55,0.403-0.526C55.735,76.668,56.222,76.946,57.003,77.353z"/>
	<path fill-rule="evenodd" clip-rule="evenodd" fill="#FFFFFF" d="M68.388,103.673c-0.39,0.282-0.643,0.538-0.703,0.498
		c-0.525-0.346-1.015-0.743-1.515-1.126c0.186-0.152,0.459-0.474,0.543-0.43C67.243,102.889,67.731,103.244,68.388,103.673z"/>
	<path fill-rule="evenodd" clip-rule="evenodd" fill="#FFFFFF" d="M55.551,68.716c-0.366-0.323-0.804-0.602-1.057-0.997
		c-0.081-0.125,0.332-0.565,0.519-0.861c0.368,0.433,0.736,0.866,1.104,1.298C55.929,68.342,55.74,68.529,55.551,68.716z"/>
	<path fill-rule="evenodd" clip-rule="evenodd" fill="#FFFFFF" d="M65.836,94.655c0.484,0.603,0.835,1.021,1.141,1.47
		c0.018,0.026-0.449,0.476-0.501,0.441c-0.473-0.312-0.904-0.689-1.348-1.047C65.3,95.309,65.473,95.099,65.836,94.655z"/>
	<path fill-rule="evenodd" clip-rule="evenodd" fill="#FFFFFF" d="M58.219,91.331c-0.445,0.355-0.719,0.671-0.805,0.626
		c-0.488-0.256-0.931-0.598-1.39-0.91c0.21-0.184,0.48-0.559,0.621-0.515C57.119,90.678,57.547,90.973,58.219,91.331z"/>
	<path fill-rule="evenodd" clip-rule="evenodd" fill="#FFFFFF" d="M92.337,100.471c-0.604,0.471-0.983,0.766-1.361,1.061
		c-0.178-0.254-0.561-0.638-0.496-0.739c0.214-0.341,0.557-0.641,0.917-0.827C91.526,99.897,91.846,100.194,92.337,100.471z"/>
	<path fill-rule="evenodd" clip-rule="evenodd" fill="#FFFFFF" d="M82.922,105.142c-0.609,0.281-0.969,0.586-1.153,0.502
		c-0.328-0.146-0.606-0.501-0.777-0.833c-0.044-0.084,0.479-0.639,0.596-0.595C81.977,104.365,82.301,104.688,82.922,105.142z"/>
	<path fill-rule="evenodd" clip-rule="evenodd" fill="#FFFFFF" d="M65.146,97.769c0.088,0.312,0.177,0.623,0.321,1.127
		c-0.76-0.177-1.297-0.302-1.833-0.426c0,0,0.036,0.028,0.036,0.028c-0.023-0.33-0.047-0.659-0.085-1.198
		c0.63,0.196,1.114,0.348,1.598,0.499L65.146,97.769z"/>
	<path fill-rule="evenodd" clip-rule="evenodd" fill="#FFFFFF" d="M49.963,72.137c0.513,0.414,0.921,0.743,1.329,1.072
		c-0.198,0.207-0.519,0.623-0.575,0.589c-0.438-0.258-0.84-0.588-1.207-0.943C49.475,72.82,49.754,72.462,49.963,72.137z"/>
	<path fill-rule="evenodd" clip-rule="evenodd" fill="#FFFFFF" d="M49.405,55.889c-0.626,0.235-0.971,0.498-1.195,0.418
		c-0.35-0.123-0.618-0.478-0.921-0.733c0.292-0.193,0.607-0.57,0.869-0.535C48.5,55.084,48.801,55.453,49.405,55.889z"/>
	<path fill-rule="evenodd" clip-rule="evenodd" fill="#FFFFFF" d="M63.477,99.94c-0.122-0.146-0.271-0.278-0.36-0.442
		c-0.139-0.255-0.238-0.532-0.354-0.801c0.302-0.066,0.605-0.133,0.907-0.199c-0.001,0-0.037-0.028-0.037-0.028
		c0.35,0.373,0.7,0.746,1.05,1.119c-0.053,0.104-0.106,0.209-0.159,0.313c-0.363,0-0.726,0-1.089,0
		C63.435,99.902,63.477,99.94,63.477,99.94z"/>
	<path fill-rule="evenodd" clip-rule="evenodd" fill="#FFFFFF" d="M94.958,101.757c0.301,0.588,0.574,0.878,0.515,1.057
		c-0.119,0.356-0.422,0.652-0.648,0.973c-0.198-0.228-0.578-0.477-0.556-0.679C94.309,102.752,94.596,102.425,94.958,101.757z"/>
	<path fill-rule="evenodd" clip-rule="evenodd" fill="#FFFFFF" d="M44.067,61.818c0.362,0.557,0.62,0.907,0.802,1.293
		c0.022,0.047-0.478,0.454-0.544,0.409c-0.361-0.242-0.682-0.557-0.953-0.897C43.342,62.585,43.707,62.23,44.067,61.818z"/>
	<path fill-rule="evenodd" clip-rule="evenodd" fill="#FFFFFF" d="M46.639,61.511c-0.422-0.456-0.752-0.723-0.937-1.068
		c-0.055-0.103,0.299-0.424,0.465-0.646c0.338,0.27,0.714,0.509,0.985,0.834C47.211,60.703,46.895,61.086,46.639,61.511z"/>
	<path fill-rule="evenodd" clip-rule="evenodd" fill="#FFFFFF" d="M51.082,50.074c-0.347-0.54-0.621-0.854-0.741-1.221
		c-0.034-0.102,0.519-0.541,0.569-0.504c0.312,0.228,0.622,0.514,0.79,0.852C51.757,49.316,51.402,49.637,51.082,50.074z"/>
	<path fill-rule="evenodd" clip-rule="evenodd" fill="#FFFFFF" d="M55.837,71.665c0.405,0.38,0.811,0.76,1.216,1.14
		c-0.172,0.177-0.477,0.522-0.498,0.507c-0.43-0.339-0.829-0.718-1.233-1.089C55.494,72.037,55.666,71.851,55.837,71.665z"/>
	<path fill-rule="evenodd" clip-rule="evenodd" fill="#FFFFFF" d="M65.182,97.799c-0.125-0.152-0.282-0.287-0.367-0.459
		c-0.158-0.318-0.274-0.657-0.408-0.987c0.179-0.051,0.445-0.2,0.521-0.133c0.34,0.295,0.625,0.653,0.93,0.989
		c-0.238,0.186-0.476,0.372-0.713,0.559C65.146,97.769,65.182,97.799,65.182,97.799z"/>
	<path fill-rule="evenodd" clip-rule="evenodd" fill="#FFFFFF" d="M73.245,107.776c-0.461-0.278-0.926-0.552-1.37-0.856
		c-0.013-0.009,0.187-0.488,0.298-0.492c0.656-0.026,1.244,0.119,1.331,0.896C73.418,107.475,73.332,107.625,73.245,107.776z"/>
	<path fill-rule="evenodd" clip-rule="evenodd" fill="#FFFFFF" d="M73.349,98.612c0.401,0.331,0.802,0.662,1.203,0.993
		c-0.196,0.197-0.533,0.586-0.567,0.561c-0.41-0.3-0.776-0.66-1.153-1.006C73.004,98.978,73.176,98.795,73.349,98.612z"/>
	<path fill-rule="evenodd" clip-rule="evenodd" fill="#FFFFFF" d="M79.227,96.049c0.446,0.505,0.734,0.83,1.023,1.155
		c-0.176,0.153-0.444,0.472-0.512,0.434c-0.351-0.198-0.677-0.464-0.943-0.766C78.742,96.813,78.988,96.489,79.227,96.049z"/>
	<path fill-rule="evenodd" clip-rule="evenodd" fill="#FFFFFF" d="M47.248,70.764c0.666-0.116,1.291-0.178,1.504,0.652
		c0.03,0.119-0.309,0.477-0.479,0.478C47.603,71.901,47.111,71.644,47.248,70.764z"/>
	<path fill-rule="evenodd" clip-rule="evenodd" fill="#FFFFFF" d="M76.499,102.896c-0.589,0.25-0.896,0.498-1.06,0.425
		c-0.331-0.149-0.585-0.472-0.87-0.724c0.242-0.135,0.505-0.403,0.723-0.372C75.604,102.27,75.883,102.535,76.499,102.896z"/>
	<path fill-rule="evenodd" clip-rule="evenodd" fill="#FFFFFF" d="M87.327,100.214c0.432,0.348,0.871,0.685,1.275,1.061
		c0.03,0.028-0.201,0.337-0.311,0.515c-0.456-0.348-0.912-0.694-1.369-1.041C87.058,100.57,87.192,100.393,87.327,100.214z"/>
	<path fill-rule="evenodd" clip-rule="evenodd" fill="#FFFFFF" d="M68.001,96.275c0.399,0.547,0.669,0.838,0.823,1.182
		c0.039,0.087-0.398,0.511-0.433,0.489c-0.33-0.21-0.664-0.449-0.894-0.757C67.436,97.106,67.725,96.762,68.001,96.275z"/>
	<path fill-rule="evenodd" clip-rule="evenodd" fill="#FFFFFF" d="M77.481,101.313c-0.518,0.308-0.809,0.604-0.96,0.545
		c-0.306-0.12-0.536-0.433-0.798-0.667c0.179-0.165,0.383-0.488,0.532-0.465C76.579,100.777,76.874,101.006,77.481,101.313z"/>
	<path fill-rule="evenodd" clip-rule="evenodd" fill="#FFFFFF" d="M53.628,65.356c0.281,0.365,0.562,0.73,0.844,1.096
		c-0.266,0.118-0.728,0.381-0.765,0.331c-0.247-0.335-0.402-0.738-0.587-1.118C53.289,65.562,53.458,65.459,53.628,65.356z"/>
	<path fill-rule="evenodd" clip-rule="evenodd" fill="#FFFFFF" d="M96.003,104.154c0.266-0.277,0.531-0.554,0.797-0.831
		c0.197,0.194,0.396,0.389,0.594,0.583c-0.313,0.253-0.627,0.507-0.94,0.761C96.304,104.496,96.153,104.325,96.003,104.154z"/>
	<path fill-rule="evenodd" clip-rule="evenodd" fill="#FFFFFF" d="M59.303,90.107c-0.514,0.235-0.794,0.465-0.917,0.399
		c-0.338-0.182-0.611-0.485-0.91-0.741c0.19-0.138,0.428-0.427,0.561-0.385C58.395,89.495,58.708,89.749,59.303,90.107z"/>
	<path fill-rule="evenodd" clip-rule="evenodd" fill="#FFFFFF" d="M45.166,58.249c0.128,0.315,0.349,0.63,0.349,0.945
		c0,0.186-0.386,0.547-0.539,0.518c-0.279-0.054-0.574-0.299-0.734-0.548c-0.057-0.089,0.259-0.417,0.405-0.637
		C44.82,58.434,44.993,58.341,45.166,58.249z"/>
</g>
</svg>
