<?xml version="1.0" encoding="utf-8"?>
<!-- Generator: Adobe Illustrator 16.0.0, SVG Export Plug-In . SVG Version: 6.00 Build 0)  -->
<!DOCTYPE svg PUBLIC "-//W3C//DTD SVG 1.1//EN" "http://www.w3.org/Graphics/SVG/1.1/DTD/svg11.dtd">
<svg version="1.1" id="Layer_1" xmlns="http://www.w3.org/2000/svg" xmlns:xlink="http://www.w3.org/1999/xlink" x="0px" y="0px"
	 width="144px" height="144px" viewBox="0 0 144 144" enable-background="new 0 0 144 144" xml:space="preserve">
<g>
	<path fill="#FFFFFF" d="M36.279,124.913c2.011-0.505,4.818-1.19,7.613-1.922c0.836-0.219,1.74-0.413,2.439-0.88
		c3.231-2.158,6.416-4.388,9.586-6.635c1.914-1.357,3.787-2.773,5.651-4.199c2.4-1.835,4.772-3.706,7.156-5.562
		c2.543-1.979,5.114-3.924,7.618-5.951c1.636-1.324,3.17-2.773,4.758-4.156c3.092-2.693,6.192-5.376,9.283-8.068
		c1.758-1.531,3.499-3.083,5.259-4.612c2.13-1.853,4.374-3.588,6.384-5.562c2.646-2.6,5.109-5.385,7.656-8.086
		c1.411-1.498,2.807-3.011,4.252-4.475c2.006-2.033,4.118-3.965,6.06-6.056c1.314-1.415,2.424-3.021,3.606-4.555
		c2.378-3.085,4.198-6.459,5.157-10.254c0.691-2.737,1.327-5.487,1.975-8.235c0.224-0.948,0.416-1.903,0.604-2.859
		c0.028-0.142-0.028-0.31-0.078-0.454c-0.453-1.304-0.877-2.619-1.381-3.903c-0.615-1.565-0.825-3.287-2.421-4.408
		c-2.977-2.09-6.144-3.764-9.58-4.918c-3.169-1.064-6.285-0.612-9.312,0.584c-1.018,0.402-1.898,1.15-2.917,1.548
		c-3.007,1.175-5.639,2.934-7.974,5.109c-2.543,2.368-4.94,4.891-7.454,7.292c-1.176,1.123-2.439,2.163-3.726,3.159
		c-2.767,2.142-5.71,4.077-8.329,6.382c-3.045,2.68-5.814,5.671-8.715,8.515c-1.309,1.283-2.57,2.631-3.987,3.785
		c-2.492,2.026-5.158,3.841-7.619,5.901c-2.674,2.238-5.12,4.753-7.822,6.953c-1.295,1.055-2.609,2.016-3.775,3.26
		c-1.943,2.072-4.183,3.866-6.299,5.776c-1.271,1.148-2.582,2.256-3.803,3.455c-0.875,0.858-1.631,1.838-2.439,2.765
		c-2.463,2.826-5.828,4.798-7.609,8.289c-1.242,2.433-2.89,4.663-4.063,7.124c-0.928,1.946-1.415,4.103-2.083,6.171
		c-0.169,0.523-0.39,1.061-0.405,1.598c-0.067,2.232-0.071,4.468-0.085,6.702c-0.013,1.971,0.818,3.547,2.376,4.703
		c1.15,0.854,2.555,1.43,3.54,2.43C28.161,123.491,31.607,124.51,36.279,124.913z"/>
	<path fill-rule="evenodd" clip-rule="evenodd" d="M36.279,124.913c-4.671-0.403-8.118-1.422-10.906-4.254
		c-0.985-1-2.39-1.575-3.54-2.43c-1.558-1.156-2.389-2.732-2.376-4.703c0.015-2.234,0.019-4.47,0.085-6.702
		c0.016-0.537,0.236-1.074,0.405-1.598c0.668-2.068,1.155-4.225,2.083-6.171c1.173-2.461,2.821-4.691,4.063-7.124
		c1.782-3.491,5.146-5.463,7.609-8.289c0.808-0.927,1.565-1.906,2.439-2.765c1.221-1.199,2.531-2.307,3.803-3.455
		c2.116-1.91,4.356-3.704,6.299-5.776c1.167-1.244,2.48-2.205,3.775-3.26c2.703-2.2,5.148-4.715,7.822-6.953
		c2.461-2.06,5.127-3.875,7.619-5.901c1.417-1.153,2.678-2.501,3.987-3.785c2.901-2.844,5.67-5.835,8.715-8.515
		c2.619-2.305,5.562-4.24,8.329-6.382c1.286-0.996,2.55-2.036,3.726-3.159c2.514-2.4,4.911-4.923,7.454-7.292
		c2.335-2.175,4.967-3.934,7.974-5.109c1.019-0.398,1.899-1.146,2.917-1.548c3.027-1.196,6.144-1.648,9.312-0.584
		c3.437,1.154,6.604,2.828,9.58,4.918c1.596,1.121,1.806,2.843,2.421,4.408c0.504,1.284,0.928,2.6,1.381,3.903
		c0.05,0.145,0.106,0.312,0.078,0.454c-0.188,0.956-0.38,1.912-0.604,2.859c-0.647,2.748-1.283,5.499-1.975,8.235
		c-0.959,3.795-2.779,7.169-5.157,10.254c-1.183,1.534-2.292,3.14-3.606,4.555c-1.941,2.091-4.054,4.023-6.06,6.056
		c-1.445,1.464-2.841,2.978-4.252,4.475c-2.547,2.702-5.01,5.487-7.656,8.086c-2.01,1.975-4.254,3.71-6.384,5.562
		c-1.76,1.529-3.501,3.081-5.259,4.612c-3.091,2.692-6.191,5.375-9.283,8.068c-1.588,1.383-3.122,2.832-4.758,4.156
		c-2.504,2.027-5.075,3.972-7.618,5.951c-2.384,1.856-4.756,3.728-7.156,5.562c-1.864,1.426-3.737,2.842-5.651,4.199
		c-3.171,2.247-6.355,4.477-9.586,6.635c-0.699,0.467-1.603,0.661-2.439,0.88C41.097,123.723,38.29,124.408,36.279,124.913z
		 M63.243,62.024c-0.432-0.589-0.706-0.962-0.979-1.335c-0.308,0.41-0.677,0.787-0.914,1.235c-0.875,1.658-2.059,2.97-3.774,3.808
		c-0.325,0.159-0.508,0.671-0.682,1.054c-0.145,0.32-0.193,0.688-0.263,1.038c-0.105,0.534-0.447,1.229-0.234,1.576
		c0.444,0.724,0.914-0.052,1.387-0.234c0.291-0.112,0.655-0.032,0.986-0.039c-0.084,0.309-0.07,0.721-0.269,0.91
		c-1.781,1.7-1.844,4.06-2.404,6.218c-0.068,0.266,0.292,0.672,0.507,0.975c0.41,0.577,1.211,1.12,1.223,1.689
		c0.028,1.465,1.08,2.156,1.833,3.094c0.316,0.394,0.622,0.797,0.945,1.185c1.187,1.417,2.104,3.123,4.074,3.7
		c0.292,0.086,0.521,0.444,0.739,0.709c0.302,0.364,0.49,0.876,0.862,1.119c1.561,1.022,2.8,2.344,3.881,3.843
		c0.758,1.05,1.835,1.063,2.915,0.729c0.514-0.159,0.954-0.567,1.412-0.884c0.639-0.44,3.187-0.189,3.68,0.405
		c0.14,0.169,0.232,0.429,0.234,0.647c0.005,0.969,0.548,0.805,1.11,0.538c0.284-0.135,0.521-0.365,0.791-0.533
		c0.892-0.557,0.926-1,0.183-1.75c-0.195-0.197-0.426-0.551-0.367-0.754c0.07-0.242,0.403-0.481,0.674-0.579
		c0.605-0.219,1.243-0.35,1.952-0.539c0,0.29,0,0.646,0,1.373c0.794-0.378,1.44-0.552,1.917-0.937
		c1.389-1.121,2.577-2.562,4.102-3.419c1.135-0.64,1.382-1.241,1.377-2.404c-0.003-0.765,0.484-1.531,0.751-2.296
		c0.314,0.25,0.309,0.413,0.359,0.556c0.148,0.422,0.319,0.835,0.481,1.252c0.378-0.39,0.814-0.739,1.108-1.185
		c0.148-0.226-0.037-0.647,0.06-0.937c0.257-0.774,0.584-1.524,0.884-2.285c0.366,0.219,0.419,0.317,0.448,0.423
		c0.104,0.38,0.202,0.762,0.302,1.144c0.425-0.153,0.896-0.236,1.266-0.475c0.533-0.344,0.965-0.843,1.49-1.2
		c0.79-0.535,1.075-1.215,0.917-2.156c-0.065-0.392,0.065-0.816,0.087-1.025c0.811,0.093,1.558,0.401,1.824,0.165
		c0.661-0.585,1.227-1.362,1.59-2.171c0.233-0.52,0.304-1.514-0.01-1.806c-1.042-0.972-0.365-1.833-0.073-2.724
		c0.264-0.807,0.622-1.582,0.79-2.001c-0.796-0.803-1.332-1.344-2.041-2.059c-0.212-0.026-0.771-0.095-1.331-0.164
		c0.005-0.124,0.01-0.248,0.015-0.372c0.395-0.125,0.789-0.25,1.467-0.463c-0.366-0.471-0.622-0.852-0.93-1.183
		c-0.478-0.513-1.089-0.928-1.473-1.498c-1.521-2.26-2.785-4.724-4.519-6.798c-1.252-1.498-2.521-2.925-3.402-4.677
		c-0.266-0.53-0.632-1.021-1.01-1.481c-0.58-0.708-1.254-0.861-2.119-0.388c-0.964,0.527-1.969,1.02-3.014,1.339
		c-0.45,0.138-1.044-0.196-1.572-0.316c0.243-0.331,0.444-0.709,0.74-0.983c0.694-0.64,0.566-1.161-0.272-1.593
		c-0.28-0.145-0.506-0.768-0.443-1.116c0.095-0.525,0.535-0.98,0.695-1.505c0.135-0.442,0.08-0.941,0.109-1.415
		c-0.522,0.089-1.128,0.046-1.542,0.307c-0.389,0.246-0.675,0.78-0.827,1.246c-0.247,0.753-0.396,1.549-0.496,2.338
		c-0.092,0.726-0.29,1.112-1.142,0.93c-0.268-0.057-0.751,0.201-0.91,0.456c-0.486,0.778-0.863,1.624-1.375,2.625
		c-0.437-0.378-0.74-0.641-1.044-0.904c0.296-0.207,0.663-0.36,0.87-0.634c0.33-0.437,0.553-0.955,0.82-1.439
		c-0.47-0.04-1.011-0.245-1.396-0.083c-0.738,0.311-1.441,0.768-2.055,1.288c-0.377,0.32-0.561,0.869-0.832,1.315
		c0.467,0.2,0.928,0.414,1.402,0.59c0.123,0.045,0.29-0.027,0.528-0.057c-0.269,1.104-0.517,2.118-0.765,3.131
		c-0.101,0.03-0.201,0.059-0.302,0.088c-0.142-0.561-0.283-1.123-0.504-1.998c-0.407,0.396-0.833,0.63-0.967,0.977
		c-0.386,0.994-0.637,2.039-0.977,3.051c-0.131,0.391-0.359,0.75-0.542,1.124c-0.19-0.093-0.381-0.187-0.571-0.279
		c0.596-1.486,1.203-2.969,1.781-4.462c0.132-0.339,0.167-0.716,0.246-1.076c-0.417,0.009-0.89-0.103-1.235,0.059
		c-0.4,0.188-0.882,0.56-0.994,0.948c-0.549,1.904-0.977,3.843-1.473,5.762c-0.097,0.375-0.309,0.721-0.468,1.08
		c-0.172-0.06-0.344-0.121-0.516-0.181c0.096-0.494,0.16-0.997,0.295-1.48c0.243-0.873,0.557-1.726,0.777-2.603
		c0.056-0.223-0.063-0.658-0.223-0.729c-0.241-0.109-0.667-0.092-0.871,0.062c-0.329,0.249-0.636,0.617-0.783,0.999
		c-0.296,0.769-0.478,1.582-0.707,2.376c-0.332,1.149-0.663,2.298-1.037,3.592C64.551,60.638,63.65,60.284,63.243,62.024z
		 M58.97,106.177c0.139,0.044,0.279,0.087,0.418,0.131c-0.172,0.802-0.381,1.598-0.499,2.407c-0.05,0.349,0.088,0.726,0.14,1.09
		c0.372-0.083,0.777-0.097,1.108-0.261c0.837-0.415,0.895-1.209,0.955-2.041c0.071-0.985,0.201-2,1.406-2.801
		c-0.051,0.593-0.141,0.903-0.086,1.185c0.075,0.38,0.261,0.738,0.399,1.105c0.459-0.243,0.958-0.438,1.358-0.756
		c0.156-0.123,0.048-0.539,0.134-0.798c0.328-0.991,0.146-2.177,0.831-2.881c0.562,0.348,0.949,0.588,1.336,0.827
		c0.424-0.957,1.384-2.1,1.134-2.823c-0.307-0.89-0.423-1.614-0.216-2.459c0.229-0.932-0.002-1.543-1.017-1.792
		c-0.338-0.083-0.622-0.391-1.02-0.656c1.051-0.795,0.931-1.403,0.086-2.102c-0.29-0.24-0.536-1.01-0.376-1.229
		c0.521-0.716,0.261-1.271-0.224-1.697c-1.762-1.551-3.571-3.049-5.376-4.55c-1.204-1.001-2.437-1.966-3.64-2.968
		c-0.133-0.11-0.145-0.359-0.229-0.537c-0.252-0.534-0.515-1.064-0.77-1.598c-0.495-1.038-1.224-2.034-1.421-3.126
		c-0.267-1.478-0.931-2.487-2.169-3.237c-0.284-0.172-0.438-0.546-0.681-0.798c-0.275-0.286-0.584-0.539-0.878-0.806
		c-0.243,0.324-0.506,0.635-0.721,0.976c-0.248,0.394-0.446,1.163-0.676,1.167c-1.562,0.027-1.319,1.413-1.876,2.21
		c-0.648,0.928-1.506,1.712-2.312,2.521c-0.083,0.083-0.451-0.045-0.641-0.154c-0.776-0.447-1.054-0.135-1.206,0.649
		c-0.146,0.754-0.429,1.482-0.655,2.232c-1.208-0.49-1.2-0.486-1.719,0.56c-0.123,0.247-0.284,0.496-0.487,0.678
		c-0.408,0.365-1.189,1.024-1.24,0.975c-0.714-0.699,0.322-0.798,0.475-1.229c0.146-0.415,0.143-0.882,0.206-1.326
		c-0.297,0.023-0.729-0.069-0.867,0.091c-0.629,0.728-1.505,1.46-1.68,2.315c-0.34,1.664-1.341,2.72-2.648,3.428
		c-2.104,1.142-3.222,3.17-4.672,4.87c-1.159,1.359-1.919,3.063-2.82,4.636c-1.225,2.137-2.667,4.193-3.563,6.463
		c-1.515,3.833-2.127,7.818,0.4,11.543c1.507,2.221,3.373,4.046,6.287,4.296c1.227,0.105,2.45,0.274,3.667,0.464
		c2.494,0.39,4.938,0.015,7.365-0.488c0.315-0.064,0.642-0.54,0.78-0.896c0.297-0.767,0.474-1.578,0.701-2.372
		c0.367,0.237,0.438,0.452,0.553,0.639c0.132,0.212,0.292,0.545,0.464,0.562c0.211,0.02,0.515-0.187,0.655-0.383
		c0.151-0.211,0.191-0.521,0.222-0.793c0.092-0.803,0.246-1.337,1.157-0.573c0.191,0.16,0.653-0.004,0.991-0.018
		c-0.079-0.397-0.086-0.832-0.265-1.178c-0.099-0.19-0.602-0.161-0.718-0.354c-0.215-0.354-0.417-0.825-0.347-1.195
		c0.035-0.185,0.892-0.463,1.017-0.339c0.6,0.6,1.078,1.322,1.597,2.002c0.209,0.273,0.414,0.55,0.62,0.825
		c0.248-0.264,0.606-0.488,0.717-0.801c0.169-0.48,0.123-1.032,0.259-1.529c0.059-0.217,0.321-0.416,0.539-0.527
		c0.063-0.032,0.307,0.254,0.448,0.412c0.25,0.28,0.485,0.575,0.727,0.863c0.279-0.328,0.583-0.638,0.83-0.988
		c0.265-0.374,0.478-0.786,0.713-1.183c0.353,0.37,0.424,0.56,0.42,0.748c-0.013,0.607-0.134,1.284,0.784,1.297
		c0.961,0.014,0.679-0.782,0.811-1.311c0.289-1.151,0.59-2.3,0.887-3.45c0.166,0.013,0.332,0.025,0.498,0.038
		c0.071,0.373,0.095,0.765,0.229,1.114c0.121,0.316,0.361,0.588,0.549,0.879c0.331-0.234,0.822-0.397,0.962-0.715
		c0.522-1.185,0.918-2.425,1.386-3.634C58.594,106.724,58.803,106.459,58.97,106.177z M90.925,41.557
		c-0.122,1.588-0.271,2.94-0.314,4.295c-0.028,0.855-0.348,1.922,1.013,2.179c0.098,0.018,0.144,0.261,0.229,0.388
		c0.835,1.227,1.597,2.515,2.533,3.659c0.95,1.159,2.222,2.07,3.086,3.279c1.17,1.636,2.095,3.447,3.105,5.194
		c0.439,0.759,0.911,1.065,1.716,0.419c0.305-0.245,0.766-0.294,1.338-0.497c0,0.555-0.089,0.936,0.023,1.242
		c0.138,0.376,0.444,0.691,0.679,1.032c0.254-0.286,0.545-0.549,0.752-0.866c0.202-0.308,0.318-0.672,0.472-1.012
		c0.354,0.875,0.182,1.96,1.6,1.516c0.097-0.03,0.292,0.467,0.512,0.571c0.298,0.141,0.793,0.308,0.978,0.168
		c0.798-0.606,1.474-1.374,2.275-1.973c0.392-0.293,0.978-0.31,1.444-0.521c0.338-0.153,0.73-0.354,0.91-0.65
		c0.349-0.575,0.564-1.231,0.853-1.893c0.316,0.181,0.413,0.244,0.516,0.294c0.468,0.228,0.937,0.451,1.404,0.677
		c0.098-0.422,0.229-0.84,0.285-1.269c0.181-1.393,0.528-2.307,1.816-1.772c0.233,0.379,0.505,0.788,0.874,0.917
		c0.167,0.058,0.688-0.403,0.754-0.694c0.058-0.256-0.262-0.631-0.476-0.907c-0.224-0.288-0.648-0.483-0.738-0.792
		c-0.059-0.203,0.287-0.728,0.51-0.765c0.413-0.069,0.875,0.085,1.304,0.197c0.281,0.074,0.557,0.371,0.804,0.338
		c1.087-0.145,1.713-1.784,1.051-2.672c-0.204-0.274-0.438-0.526-0.634-0.759c0.507-0.38,0.982-0.645,1.338-1.022
		c0.621-0.658,1.241-1.339,1.729-2.097c0.562-0.874,1.473-1.919,1.34-2.748c-0.178-1.109,0.188-1.608,0.845-2.211
		c0.406-0.374,0.866-0.736,1.135-1.201c0.616-1.068-0.03-1.75-1.004-2.264c0.288-0.372,0.704-0.665,0.684-0.923
		c-0.128-1.651,1.565-3.341-0.089-4.968c-0.132-0.13-0.126-0.467-0.088-0.692c0.338-2.008-1.095-3.332-1.873-4.907
		c-0.293-0.591-0.725-1.152-0.858-1.777c-0.355-1.666-1.749-2.761-2.885-3.342c-1.727-0.883-3.894-0.968-5.894-1.238
		c-2.589-0.349-5.13,0.297-7.469,1.208c-2.452,0.955-4.945,2.173-6.941,3.848c-3.487,2.926-6.562,6.338-9.9,9.451
		c-1.692,1.578-3.562,2.969-5.386,4.4c-0.919,0.721-1.072,1.771-0.229,2.542c0.438,0.4,0.887,0.546,1.228-0.174
		c0.363-0.766,0.782-1.504,1.178-2.254c0.18,0.289,0.073,0.47,0.082,0.646c0.021,0.446,0.095,0.89,0.147,1.335
		c0.466-0.147,0.942-0.27,1.396-0.45C90.377,41.925,90.641,41.724,90.925,41.557z M45.447,75.222
		c-0.393-0.096-0.901-0.374-1.08-0.233c-0.44,0.347-0.807,0.848-1.055,1.358c-0.232,0.479-0.322,1.044-0.383,1.581
		c-0.042,0.374,0.07,0.766,0.113,1.149c0.379-0.151,0.968-0.201,1.1-0.473C44.622,77.62,44.948,76.561,45.447,75.222z
		 M83.018,45.851c-0.071,0.226-0.142,0.452-0.213,0.677c0.332,0.091,0.659,0.22,0.997,0.265c0.559,0.075,1.39-1.072,1.333-1.989
		c-0.019-0.299-0.449-0.572-0.69-0.857C83.969,44.582,83.493,45.216,83.018,45.851z M111.729,63.529
		c-1.48-0.186-1.469,0.732-1.589,1.422c-0.031,0.18,0.44,0.448,0.682,0.676c0.451-0.524,0.929-1.03,1.318-1.596
		C112.188,63.963,111.763,63.569,111.729,63.529z M52.508,69.566c-0.457-0.304-0.811-0.62-0.875-0.569
		c-0.463,0.368-0.869,0.809-1.292,1.227c0.286,0.262,0.572,0.525,0.858,0.788C51.586,70.584,51.973,70.157,52.508,69.566z
		 M74.943,97.028c-0.832,0.128-1.676,0.172-1.569,1.295c0.017,0.173,0.507,0.472,0.719,0.428
		C75.008,98.56,75.223,97.938,74.943,97.028z M70.726,101.51c0.472-0.513,0.825-0.787,0.99-1.146
		c0.046-0.102-0.528-0.692-0.693-0.644c-0.329,0.099-0.655,0.445-0.814,0.771C70.133,100.644,70.446,100.986,70.726,101.51z
		 M78.13,95.311c-0.53-0.301-0.903-0.64-1.037-0.563c-0.311,0.179-0.577,0.53-0.705,0.871c-0.042,0.112,0.477,0.62,0.6,0.574
		C77.332,96.063,77.605,95.74,78.13,95.311z"/>
	<path fill-rule="evenodd" clip-rule="evenodd" fill="#FFFFFF" d="M63.243,62.024c0.408-1.741,1.308-1.386,2.242-0.539
		c0.374-1.294,0.705-2.443,1.037-3.592c0.229-0.794,0.411-1.607,0.707-2.376c0.147-0.382,0.454-0.75,0.783-0.999
		c0.204-0.154,0.63-0.171,0.871-0.062c0.159,0.071,0.279,0.506,0.223,0.729c-0.22,0.877-0.534,1.73-0.777,2.603
		c-0.135,0.483-0.199,0.986-0.295,1.48c0.172,0.061,0.344,0.121,0.516,0.181c0.159-0.359,0.372-0.704,0.468-1.08
		c0.497-1.919,0.924-3.858,1.473-5.762c0.112-0.388,0.593-0.76,0.994-0.948c0.345-0.162,0.818-0.05,1.235-0.059
		c-0.079,0.36-0.114,0.737-0.246,1.076c-0.578,1.493-1.185,2.976-1.781,4.462c0.19,0.093,0.38,0.186,0.571,0.279
		c0.184-0.374,0.412-0.733,0.542-1.124c0.34-1.013,0.591-2.058,0.977-3.051c0.134-0.347,0.56-0.581,0.967-0.977
		c0.221,0.875,0.362,1.437,0.504,1.998c0.101-0.029,0.201-0.059,0.302-0.088c0.248-1.014,0.496-2.028,0.765-3.131
		c-0.238,0.03-0.405,0.103-0.528,0.057c-0.475-0.176-0.936-0.39-1.402-0.59c0.271-0.446,0.455-0.995,0.832-1.315
		c0.613-0.52,1.316-0.977,2.055-1.288c0.385-0.163,0.926,0.043,1.396,0.082c-0.268,0.484-0.49,1.002-0.82,1.439
		c-0.207,0.274-0.574,0.427-0.87,0.634c0.304,0.263,0.607,0.526,1.044,0.904c0.512-1,0.889-1.847,1.375-2.625
		c0.159-0.254,0.643-0.513,0.91-0.456c0.852,0.182,1.05-0.205,1.142-0.93c0.101-0.79,0.249-1.585,0.496-2.338
		c0.152-0.466,0.438-1,0.827-1.246c0.414-0.261,1.02-0.217,1.542-0.307c-0.029,0.474,0.025,0.973-0.109,1.415
		c-0.16,0.525-0.601,0.98-0.695,1.505c-0.062,0.348,0.163,0.972,0.443,1.116c0.839,0.432,0.967,0.953,0.272,1.593
		c-0.296,0.274-0.497,0.652-0.74,0.983c0.528,0.12,1.122,0.455,1.572,0.316c1.045-0.319,2.05-0.812,3.014-1.339
		c0.865-0.473,1.539-0.32,2.119,0.388c0.378,0.461,0.744,0.951,1.01,1.481c0.881,1.752,2.15,3.18,3.402,4.677
		c1.733,2.075,2.997,4.538,4.519,6.798c0.384,0.57,0.995,0.985,1.473,1.498c0.308,0.331,0.563,0.712,0.93,1.183
		c-0.678,0.213-1.072,0.338-1.467,0.463c-0.005,0.124-0.01,0.248-0.015,0.372c0.56,0.069,1.119,0.138,1.331,0.164
		c0.709,0.715,1.245,1.256,2.041,2.059c-0.168,0.419-0.526,1.195-0.79,2.001c-0.292,0.89-0.969,1.751,0.073,2.724
		c0.313,0.292,0.243,1.286,0.01,1.806c-0.363,0.809-0.929,1.586-1.59,2.171c-0.267,0.236-1.014-0.072-1.824-0.165
		c-0.021,0.209-0.152,0.634-0.087,1.025c0.158,0.941-0.127,1.621-0.917,2.156c-0.525,0.357-0.957,0.856-1.49,1.2
		c-0.37,0.238-0.841,0.321-1.266,0.475c-0.1-0.382-0.197-0.764-0.302-1.144c-0.029-0.105-0.082-0.204-0.448-0.423
		c-0.3,0.761-0.627,1.511-0.884,2.285c-0.097,0.289,0.089,0.711-0.06,0.937c-0.294,0.445-0.73,0.795-1.108,1.185
		c-0.162-0.417-0.333-0.83-0.481-1.252c-0.051-0.143-0.045-0.306-0.359-0.556c-0.267,0.765-0.754,1.531-0.751,2.296
		c0.005,1.163-0.242,1.765-1.377,2.404c-1.524,0.857-2.713,2.298-4.102,3.419c-0.477,0.385-1.123,0.559-1.917,0.937
		c0-0.728,0-1.083,0-1.373c-0.709,0.189-1.347,0.32-1.952,0.539c-0.271,0.098-0.604,0.337-0.674,0.579
		c-0.059,0.203,0.172,0.557,0.367,0.754c0.743,0.75,0.709,1.193-0.183,1.75c-0.27,0.168-0.507,0.398-0.791,0.533
		c-0.562,0.267-1.105,0.431-1.11-0.538c-0.002-0.219-0.095-0.479-0.234-0.647c-0.493-0.595-3.041-0.846-3.68-0.405
		c-0.458,0.316-0.898,0.725-1.412,0.884c-1.08,0.334-2.157,0.32-2.915-0.729c-1.081-1.499-2.32-2.82-3.881-3.843
		c-0.372-0.243-0.56-0.755-0.862-1.119c-0.219-0.265-0.447-0.623-0.739-0.709c-1.97-0.577-2.887-2.283-4.074-3.7
		c-0.324-0.388-0.629-0.791-0.945-1.185c-0.754-0.938-1.805-1.629-1.833-3.094c-0.011-0.569-0.812-1.112-1.223-1.689
		c-0.215-0.303-0.575-0.709-0.507-0.975c0.561-2.158,0.624-4.518,2.404-6.218c0.199-0.189,0.185-0.602,0.269-0.91
		c-0.331,0.007-0.695-0.073-0.986,0.039c-0.474,0.183-0.943,0.958-1.387,0.234c-0.213-0.347,0.128-1.042,0.234-1.576
		c0.069-0.351,0.118-0.718,0.263-1.038c0.174-0.383,0.357-0.895,0.682-1.054c1.715-0.838,2.899-2.15,3.774-3.808
		c0.236-0.448,0.605-0.825,0.914-1.235C62.537,61.062,62.811,61.436,63.243,62.024z M71.147,88.563
		c0.044,0.242,0.088,0.484,0.133,0.727c0.538-0.085,1.075-0.17,1.613-0.255c-0.051-0.284-0.101-0.568-0.151-0.853
		C72.211,88.31,71.679,88.437,71.147,88.563z M70.671,61.384c0.125,0.114,0.25,0.229,0.375,0.343
		c0.415-0.321,0.854-0.617,1.229-0.979c0.108-0.105,0.081-0.422,0.014-0.604c-0.028-0.076-0.407-0.138-0.481-0.063
		C71.403,60.49,71.045,60.945,70.671,61.384z M69.758,73.998c-0.095-0.185-0.189-0.37-0.285-0.555
		c-0.478,0.212-0.956,0.424-1.434,0.635c0.125,0.253,0.25,0.505,0.375,0.757C68.862,74.557,69.31,74.277,69.758,73.998z
		 M60.615,71.377c-0.143-0.166-0.286-0.332-0.43-0.499c-0.4,0.384-0.809,0.761-1.18,1.172c-0.023,0.024,0.253,0.32,0.39,0.489
		C59.803,72.152,60.209,71.765,60.615,71.377z M69.759,81.892c-0.245,0.443-0.555,0.771-0.484,0.927
		c0.134,0.295,0.486,0.491,0.747,0.729c0.176-0.206,0.535-0.473,0.49-0.606C70.404,82.615,70.11,82.352,69.759,81.892z
		 M75.863,78.087c-0.062-0.234-0.121-0.469-0.183-0.703c-0.419,0.128-0.857,0.221-1.241,0.419c-0.067,0.035,0.092,0.511,0.146,0.782
		C75.012,78.419,75.438,78.253,75.863,78.087z M87.425,86.448c0.433-0.421,0.747-0.703,1.012-1.026
		c0.021-0.025-0.4-0.505-0.444-0.479c-0.378,0.222-0.728,0.499-1.048,0.801C86.92,85.767,87.181,86.094,87.425,86.448z
		 M78.702,85.315c-0.46-0.287-0.755-0.605-0.931-0.55c-0.263,0.084-0.44,0.432-0.653,0.667c0.19,0.167,0.403,0.489,0.566,0.466
		C77.972,85.857,78.229,85.604,78.702,85.315z"/>
	<path fill-rule="evenodd" clip-rule="evenodd" fill="#FFFFFF" d="M58.97,106.177c-0.167,0.282-0.376,0.547-0.493,0.848
		c-0.468,1.209-0.864,2.449-1.386,3.634c-0.14,0.317-0.631,0.48-0.962,0.715c-0.188-0.291-0.428-0.562-0.549-0.879
		c-0.133-0.35-0.157-0.741-0.229-1.114c-0.166-0.013-0.332-0.025-0.498-0.038c-0.297,1.15-0.599,2.299-0.887,3.45
		c-0.132,0.528,0.15,1.324-0.811,1.311c-0.918-0.013-0.797-0.689-0.784-1.297c0.004-0.188-0.067-0.378-0.42-0.748
		c-0.236,0.396-0.448,0.809-0.713,1.183c-0.248,0.351-0.551,0.66-0.83,0.988c-0.242-0.288-0.477-0.583-0.727-0.863
		c-0.142-0.158-0.385-0.444-0.448-0.412c-0.218,0.111-0.48,0.311-0.539,0.527c-0.136,0.497-0.09,1.049-0.259,1.529
		c-0.11,0.312-0.469,0.537-0.717,0.801c-0.207-0.275-0.411-0.552-0.62-0.825c-0.52-0.68-0.997-1.402-1.597-2.002
		c-0.125-0.124-0.982,0.154-1.017,0.339c-0.07,0.37,0.132,0.842,0.347,1.195c0.117,0.193,0.619,0.164,0.718,0.354
		c0.179,0.346,0.186,0.78,0.265,1.178c-0.337,0.014-0.799,0.178-0.991,0.018c-0.912-0.764-1.065-0.229-1.157,0.573
		c-0.031,0.272-0.071,0.582-0.222,0.793c-0.141,0.196-0.444,0.402-0.655,0.383c-0.172-0.017-0.332-0.35-0.464-0.562
		c-0.116-0.187-0.187-0.401-0.553-0.639c-0.227,0.794-0.404,1.605-0.701,2.372c-0.138,0.355-0.465,0.831-0.78,0.896
		c-2.427,0.503-4.871,0.878-7.365,0.488c-1.217-0.189-2.441-0.358-3.667-0.464c-2.914-0.25-4.78-2.075-6.287-4.296
		c-2.528-3.725-1.915-7.71-0.4-11.543c0.897-2.27,2.339-4.326,3.563-6.463c0.901-1.572,1.661-3.276,2.82-4.636
		c1.45-1.7,2.568-3.729,4.672-4.87c1.307-0.708,2.308-1.764,2.648-3.428c0.175-0.855,1.051-1.588,1.68-2.315
		c0.138-0.16,0.57-0.067,0.867-0.091c-0.063,0.444-0.06,0.911-0.206,1.326c-0.152,0.431-1.188,0.529-0.475,1.229
		c0.051,0.05,0.832-0.609,1.24-0.975c0.203-0.182,0.365-0.431,0.487-0.678c0.519-1.046,0.511-1.05,1.719-0.56
		c0.226-0.75,0.509-1.479,0.655-2.232c0.152-0.784,0.43-1.097,1.206-0.649c0.19,0.109,0.558,0.237,0.641,0.154
		c0.805-0.81,1.664-1.594,2.312-2.521c0.557-0.797,0.314-2.183,1.876-2.21c0.23-0.004,0.429-0.773,0.676-1.167
		c0.215-0.341,0.479-0.651,0.721-0.976c0.294,0.267,0.603,0.52,0.878,0.806c0.243,0.252,0.397,0.626,0.681,0.798
		c1.238,0.75,1.902,1.76,2.169,3.237c0.197,1.092,0.927,2.088,1.421,3.126c0.254,0.533,0.517,1.063,0.77,1.598
		c0.084,0.178,0.096,0.427,0.229,0.537c1.203,1.002,2.437,1.967,3.64,2.968c1.805,1.501,3.614,2.999,5.376,4.55
		c0.485,0.427,0.744,0.981,0.224,1.697c-0.159,0.219,0.086,0.988,0.376,1.229c0.845,0.698,0.965,1.307-0.086,2.102
		c0.398,0.266,0.681,0.573,1.02,0.656c1.014,0.249,1.245,0.86,1.017,1.792c-0.207,0.845-0.091,1.569,0.216,2.459
		c0.25,0.724-0.71,1.866-1.134,2.823c-0.387-0.239-0.774-0.479-1.336-0.827c-0.685,0.704-0.503,1.89-0.831,2.881
		c-0.086,0.259,0.022,0.675-0.134,0.798c-0.4,0.318-0.899,0.513-1.358,0.756c-0.139-0.367-0.325-0.726-0.399-1.105
		c-0.055-0.281,0.035-0.592,0.086-1.185c-1.205,0.801-1.335,1.815-1.406,2.801c-0.06,0.832-0.117,1.626-0.955,2.041
		c-0.331,0.164-0.737,0.178-1.108,0.261c-0.052-0.364-0.19-0.741-0.14-1.09c0.118-0.81,0.327-1.605,0.499-2.407
		C59.249,106.264,59.109,106.221,58.97,106.177z M56.198,100.568c-0.006,0.152-0.012,0.305-0.019,0.457
		c0.568,0.146,1.132,0.357,1.708,0.404c0.203,0.017,0.627-0.382,0.614-0.566c-0.019-0.256-0.369-0.702-0.553-0.69
		C57.359,100.211,56.781,100.423,56.198,100.568z M43.961,97.27c-0.114-0.078-0.227-0.156-0.341-0.234
		c-0.336,0.183-0.727,0.308-0.995,0.562c-0.295,0.28-0.477,0.679-0.708,1.026c0.468-0.031,1.038,0.089,1.377-0.137
		C43.635,98.261,43.748,97.689,43.961,97.27z M32.63,97.195c1.077,0.521,1.35-0.428,1.861-0.787c0.141-0.099,0.05-0.526,0.065-0.803
		c-0.282,0.008-0.686-0.098-0.824,0.047C33.335,96.072,33.045,96.593,32.63,97.195z M59.091,91.192
		c0.874,0.489,1.46,0.271,1.796-0.442c0.095-0.202-0.136-0.808-0.306-0.847C59.621,89.682,59.421,90.457,59.091,91.192z
		 M51.956,106.374c-0.683,0.278-1.135,0.361-1.434,0.62c-0.195,0.169-0.258,0.607-0.212,0.898c0.034,0.215,0.34,0.388,0.525,0.578
		c0.203-0.25,0.442-0.479,0.599-0.756C51.601,107.418,51.688,107.076,51.956,106.374z M37.141,114.391
		c0.351-0.694,0.624-1.062,0.702-1.469c0.034-0.178-0.328-0.433-0.511-0.652c-0.298,0.33-0.678,0.623-0.854,1.009
		C36.406,113.438,36.773,113.797,37.141,114.391z M54.325,86.571c-0.028,0.136-0.056,0.271-0.083,0.408
		c0.344,0.113,0.878,0.42,0.996,0.305c0.354-0.35,0.547-0.864,0.803-1.314c-0.11-0.078-0.219-0.157-0.329-0.235
		C55.25,86.013,54.787,86.292,54.325,86.571z M62.248,99.101c0.316-0.499,0.672-0.83,0.688-1.177
		c0.008-0.193-0.545-0.567-0.85-0.571c-0.248-0.004-0.626,0.386-0.708,0.669C61.329,98.192,61.739,98.494,62.248,99.101z
		 M38.869,90.022c-0.154,0.035-0.308,0.071-0.462,0.107c-0.022,0.474-0.044,0.947-0.067,1.421c0.118,0.063,0.237,0.128,0.355,0.191
		c0.324-0.272,0.648-0.546,0.972-0.818C39.401,90.623,39.135,90.322,38.869,90.022z M43.049,108.195
		c-0.374-0.297-0.673-0.653-0.787-0.602c-0.338,0.153-0.677,0.427-0.856,0.743c-0.062,0.109,0.343,0.483,0.535,0.737
		C42.255,108.824,42.569,108.575,43.049,108.195z M34.597,103.173c-0.037,0.243-0.074,0.487-0.11,0.73
		c0.443,0.091,0.905,0.292,1.321,0.222c0.181-0.031,0.269-0.618,0.398-0.952C35.669,103.173,35.133,103.173,34.597,103.173z
		 M47.218,101.854c-0.343,0.4-0.708,0.64-0.712,0.885c-0.004,0.224,0.369,0.617,0.603,0.638c0.257,0.022,0.544-0.294,0.818-0.463
		C47.728,102.617,47.529,102.32,47.218,101.854z M27.214,103.986c-0.123-0.18-0.245-0.359-0.368-0.538
		c-0.445,0.289-0.896,0.571-1.317,0.892c-0.017,0.013,0.239,0.385,0.369,0.589C26.337,104.614,26.776,104.301,27.214,103.986z
		 M47.932,83.102c-0.608,0.36-1.094,0.647-1.579,0.935c0.148,0.185,0.297,0.369,0.446,0.554c0.398-0.21,0.852-0.36,1.168-0.657
		C48.102,83.805,47.951,83.371,47.932,83.102z M54.601,97.552c0.241-0.438,0.529-0.735,0.467-0.896
		c-0.12-0.31-0.439-0.543-0.676-0.808c-0.188,0.263-0.525,0.527-0.522,0.787C53.872,96.879,54.235,97.119,54.601,97.552z"/>
	<path fill-rule="evenodd" clip-rule="evenodd" fill="#FFFFFF" d="M90.925,41.557c-0.284,0.167-0.548,0.368-0.844,0.486
		c-0.453,0.181-0.93,0.303-1.396,0.45c-0.053-0.445-0.126-0.889-0.147-1.335c-0.009-0.176,0.098-0.358-0.082-0.646
		c-0.396,0.75-0.814,1.489-1.178,2.254c-0.341,0.72-0.789,0.574-1.228,0.174c-0.843-0.771-0.689-1.821,0.229-2.542
		c1.824-1.431,3.693-2.822,5.386-4.4c3.338-3.112,6.413-6.524,9.9-9.451c1.996-1.675,4.489-2.894,6.941-3.848
		c2.339-0.91,4.88-1.556,7.469-1.208c2,0.27,4.167,0.354,5.894,1.238c1.136,0.581,2.529,1.676,2.885,3.342
		c0.134,0.625,0.565,1.186,0.858,1.777c0.778,1.575,2.211,2.899,1.873,4.907c-0.038,0.225-0.044,0.562,0.088,0.692
		c1.654,1.627-0.039,3.317,0.089,4.968c0.021,0.258-0.396,0.551-0.684,0.923c0.974,0.515,1.62,1.196,1.004,2.264
		c-0.269,0.464-0.729,0.827-1.135,1.201c-0.656,0.604-1.022,1.102-0.845,2.211c0.133,0.829-0.777,1.874-1.34,2.748
		c-0.487,0.757-1.107,1.438-1.729,2.097c-0.355,0.377-0.831,0.642-1.338,1.022c0.195,0.232,0.43,0.484,0.634,0.759
		c0.662,0.888,0.036,2.527-1.051,2.672c-0.247,0.033-0.522-0.264-0.804-0.338c-0.429-0.112-0.891-0.267-1.304-0.197
		c-0.223,0.038-0.568,0.562-0.51,0.765c0.09,0.308,0.515,0.503,0.738,0.792c0.214,0.275,0.533,0.65,0.476,0.907
		c-0.066,0.292-0.587,0.752-0.754,0.694c-0.369-0.129-0.641-0.537-0.874-0.917c-1.288-0.535-1.636,0.379-1.816,1.772
		c-0.057,0.428-0.188,0.846-0.285,1.269c-0.468-0.226-0.937-0.449-1.404-0.677c-0.103-0.05-0.199-0.113-0.516-0.294
		c-0.288,0.662-0.504,1.318-0.853,1.893c-0.18,0.295-0.572,0.497-0.91,0.65c-0.467,0.211-1.053,0.228-1.444,0.521
		c-0.802,0.6-1.478,1.367-2.275,1.973c-0.185,0.14-0.68-0.027-0.978-0.168c-0.22-0.104-0.415-0.602-0.512-0.571
		c-1.418,0.444-1.245-0.642-1.6-1.516c-0.153,0.34-0.27,0.704-0.472,1.012c-0.207,0.317-0.498,0.58-0.752,0.866
		c-0.234-0.341-0.541-0.656-0.679-1.032c-0.112-0.307-0.023-0.688-0.023-1.242c-0.572,0.203-1.033,0.252-1.338,0.497
		c-0.805,0.646-1.276,0.34-1.716-0.419c-1.011-1.747-1.936-3.558-3.105-5.194c-0.864-1.209-2.136-2.12-3.086-3.279
		c-0.937-1.144-1.698-2.432-2.533-3.659c-0.086-0.127-0.132-0.37-0.229-0.388c-1.36-0.257-1.041-1.323-1.013-2.179
		C90.654,44.497,90.803,43.145,90.925,41.557z M96.843,47.908c-0.851-0.396-1.376-0.031-1.816,0.509
		c-0.077,0.094,0.036,0.345,0.062,0.523c0.515-0.196,1.032-0.383,1.538-0.598C96.705,48.308,96.729,48.143,96.843,47.908z
		 M110.016,32.899c1.303,0.314,1.607-0.038,1.354-1.242C110.875,32.111,110.445,32.505,110.016,32.899z M116.175,37.866
		c-0.12-0.202-0.241-0.405-0.362-0.607c-0.487,0.334-0.976,0.669-1.464,1.003c0.109,0.172,0.218,0.345,0.327,0.517
		C115.175,38.475,115.675,38.17,116.175,37.866z"/>
	<path fill-rule="evenodd" clip-rule="evenodd" fill="#FFFFFF" d="M45.447,75.222c-0.499,1.339-0.825,2.398-1.305,3.383
		c-0.132,0.271-0.721,0.321-1.1,0.473c-0.043-0.384-0.156-0.775-0.113-1.149c0.061-0.537,0.151-1.103,0.383-1.581
		c0.248-0.511,0.615-1.012,1.055-1.358C44.546,74.848,45.054,75.126,45.447,75.222z"/>
	<path fill-rule="evenodd" clip-rule="evenodd" fill="#FFFFFF" d="M83.018,45.851c0.476-0.634,0.951-1.269,1.427-1.904
		c0.241,0.285,0.672,0.558,0.69,0.857c0.057,0.917-0.774,2.064-1.333,1.989c-0.338-0.045-0.665-0.174-0.997-0.265
		C82.876,46.302,82.946,46.077,83.018,45.851z"/>
	<path fill-rule="evenodd" clip-rule="evenodd" fill="#FFFFFF" d="M111.729,63.529c0.034,0.04,0.459,0.434,0.411,0.502
		c-0.39,0.566-0.867,1.072-1.318,1.596c-0.241-0.228-0.713-0.496-0.682-0.676C110.26,64.261,110.248,63.343,111.729,63.529z"/>
	<path fill-rule="evenodd" clip-rule="evenodd" fill="#FFFFFF" d="M52.508,69.566c-0.536,0.591-0.922,1.018-1.309,1.445
		c-0.286-0.263-0.572-0.525-0.858-0.788c0.423-0.418,0.829-0.859,1.292-1.227C51.698,68.947,52.052,69.262,52.508,69.566z"/>
	<path fill-rule="evenodd" clip-rule="evenodd" fill="#FFFFFF" d="M74.943,97.028c0.279,0.909,0.064,1.531-0.851,1.723
		c-0.212,0.044-0.702-0.255-0.719-0.428C73.268,97.2,74.111,97.156,74.943,97.028z"/>
	<path fill-rule="evenodd" clip-rule="evenodd" fill="#FFFFFF" d="M70.726,101.51c-0.28-0.523-0.593-0.866-0.518-1.02
		c0.16-0.325,0.485-0.672,0.814-0.771c0.166-0.049,0.74,0.542,0.693,0.644C71.551,100.723,71.198,100.997,70.726,101.51z"/>
	<path fill-rule="evenodd" clip-rule="evenodd" fill="#FFFFFF" d="M78.13,95.311c-0.524,0.43-0.798,0.753-1.143,0.882
		c-0.123,0.046-0.642-0.462-0.6-0.574c0.128-0.341,0.395-0.692,0.705-0.871C77.227,94.671,77.6,95.01,78.13,95.311z"/>
	<path fill-rule="evenodd" clip-rule="evenodd" d="M71.147,88.563c0.532-0.127,1.064-0.254,1.595-0.381
		c0.051,0.284,0.101,0.568,0.151,0.853c-0.538,0.085-1.076,0.17-1.613,0.255C71.235,89.048,71.191,88.806,71.147,88.563z"/>
	<path fill-rule="evenodd" clip-rule="evenodd" d="M70.671,61.384c0.374-0.439,0.732-0.894,1.135-1.304
		c0.074-0.075,0.453-0.013,0.481,0.063c0.067,0.182,0.095,0.499-0.014,0.604c-0.374,0.363-0.814,0.659-1.229,0.979
		C70.921,61.613,70.796,61.499,70.671,61.384z"/>
	<path fill-rule="evenodd" clip-rule="evenodd" d="M69.758,73.998c-0.448,0.279-0.896,0.559-1.344,0.837
		c-0.125-0.252-0.25-0.504-0.375-0.757c0.478-0.211,0.956-0.423,1.434-0.635C69.568,73.628,69.663,73.813,69.758,73.998z"/>
	<path fill-rule="evenodd" clip-rule="evenodd" d="M60.615,71.377c-0.406,0.388-0.812,0.775-1.219,1.163
		c-0.137-0.169-0.413-0.465-0.39-0.489c0.371-0.411,0.779-0.788,1.18-1.172C60.329,71.045,60.472,71.211,60.615,71.377z"/>
	<path fill-rule="evenodd" clip-rule="evenodd" d="M69.759,81.892c0.351,0.46,0.646,0.724,0.753,1.049
		c0.044,0.134-0.314,0.4-0.49,0.607c-0.261-0.238-0.613-0.435-0.747-0.729C69.204,82.663,69.514,82.335,69.759,81.892z"/>
	<path fill-rule="evenodd" clip-rule="evenodd" d="M75.863,78.087c-0.426,0.166-0.852,0.332-1.277,0.498
		c-0.055-0.271-0.214-0.747-0.146-0.782c0.384-0.198,0.822-0.291,1.241-0.419C75.742,77.618,75.802,77.853,75.863,78.087z"/>
	<path fill-rule="evenodd" clip-rule="evenodd" d="M87.425,86.448c-0.244-0.354-0.505-0.682-0.48-0.705
		c0.32-0.302,0.67-0.579,1.048-0.801c0.044-0.025,0.466,0.454,0.444,0.479C88.172,85.745,87.857,86.027,87.425,86.448z"/>
	<path fill-rule="evenodd" clip-rule="evenodd" d="M78.702,85.315c-0.474,0.289-0.73,0.542-1.018,0.583
		c-0.163,0.023-0.376-0.299-0.566-0.466c0.213-0.235,0.391-0.583,0.653-0.667C77.947,84.71,78.242,85.028,78.702,85.315z"/>
	<path fill-rule="evenodd" clip-rule="evenodd" d="M56.198,100.568c0.583-0.146,1.161-0.357,1.75-0.396
		c0.184-0.012,0.534,0.435,0.553,0.69c0.014,0.185-0.411,0.583-0.614,0.566c-0.577-0.047-1.14-0.258-1.708-0.404
		C56.186,100.873,56.192,100.721,56.198,100.568z"/>
	<path fill-rule="evenodd" clip-rule="evenodd" d="M43.961,97.27c-0.213,0.42-0.326,0.991-0.667,1.218
		c-0.339,0.226-0.909,0.105-1.377,0.137c0.231-0.348,0.414-0.746,0.708-1.026c0.268-0.255,0.659-0.38,0.995-0.562
		C43.734,97.113,43.847,97.191,43.961,97.27z"/>
	<path fill-rule="evenodd" clip-rule="evenodd" d="M32.63,97.195c0.416-0.603,0.705-1.123,1.102-1.543
		c0.138-0.145,0.542-0.039,0.824-0.047c-0.016,0.276,0.075,0.704-0.065,0.803C33.979,96.768,33.707,97.716,32.63,97.195z"/>
	<path fill-rule="evenodd" clip-rule="evenodd" d="M59.091,91.192c0.33-0.735,0.53-1.511,1.49-1.289
		c0.17,0.039,0.401,0.645,0.306,0.847C60.552,91.463,59.965,91.682,59.091,91.192z"/>
	<path fill-rule="evenodd" clip-rule="evenodd" d="M51.956,106.374c-0.268,0.702-0.355,1.044-0.522,1.341
		c-0.156,0.276-0.396,0.506-0.599,0.756c-0.186-0.19-0.491-0.363-0.525-0.578c-0.046-0.291,0.017-0.729,0.212-0.898
		C50.821,106.735,51.272,106.652,51.956,106.374z"/>
	<path fill-rule="evenodd" clip-rule="evenodd" d="M37.141,114.391c-0.368-0.594-0.735-0.952-0.662-1.112
		c0.175-0.386,0.556-0.679,0.854-1.009c0.183,0.22,0.545,0.475,0.511,0.652C37.765,113.328,37.492,113.696,37.141,114.391z"/>
	<path fill-rule="evenodd" clip-rule="evenodd" d="M54.325,86.571c0.462-0.279,0.924-0.559,1.386-0.837
		c0.11,0.078,0.219,0.157,0.329,0.235c-0.256,0.45-0.449,0.965-0.803,1.314c-0.118,0.115-0.652-0.191-0.996-0.305
		C54.27,86.843,54.297,86.707,54.325,86.571z"/>
	<path fill-rule="evenodd" clip-rule="evenodd" d="M62.248,99.101c-0.509-0.606-0.919-0.908-0.87-1.079
		c0.081-0.283,0.459-0.673,0.708-0.669c0.305,0.004,0.858,0.378,0.85,0.571C62.92,98.271,62.564,98.602,62.248,99.101z"/>
	<path fill-rule="evenodd" clip-rule="evenodd" d="M38.869,90.022c0.266,0.3,0.533,0.601,0.799,0.901
		c-0.324,0.272-0.648,0.546-0.972,0.818c-0.119-0.063-0.237-0.128-0.355-0.191c0.022-0.474,0.044-0.947,0.067-1.421
		C38.561,90.094,38.715,90.058,38.869,90.022z"/>
	<path fill-rule="evenodd" clip-rule="evenodd" d="M43.049,108.195c-0.479,0.38-0.794,0.629-1.109,0.879
		c-0.192-0.254-0.597-0.628-0.535-0.737c0.18-0.316,0.519-0.59,0.856-0.743C42.375,107.542,42.675,107.898,43.049,108.195z"/>
	<path fill-rule="evenodd" clip-rule="evenodd" d="M34.597,103.173c0.536,0,1.072,0,1.608,0c-0.129,0.334-0.217,0.921-0.398,0.952
		c-0.416,0.07-0.878-0.131-1.321-0.222C34.523,103.66,34.56,103.416,34.597,103.173z"/>
	<path fill-rule="evenodd" clip-rule="evenodd" d="M47.218,101.854c0.311,0.466,0.51,0.763,0.708,1.06
		c-0.274,0.169-0.561,0.485-0.818,0.463c-0.233-0.021-0.607-0.414-0.603-0.638C46.51,102.494,46.875,102.255,47.218,101.854z"/>
	<path fill-rule="evenodd" clip-rule="evenodd" d="M27.214,103.986c-0.438,0.314-0.877,0.628-1.316,0.942
		c-0.129-0.204-0.385-0.576-0.369-0.589c0.421-0.32,0.872-0.603,1.317-0.892C26.969,103.627,27.092,103.807,27.214,103.986z"/>
	<path fill-rule="evenodd" clip-rule="evenodd" d="M47.932,83.102c0.019,0.27,0.17,0.703,0.035,0.831
		c-0.316,0.297-0.77,0.447-1.168,0.657c-0.149-0.185-0.298-0.369-0.446-0.554C46.838,83.749,47.323,83.462,47.932,83.102z"/>
	<path fill-rule="evenodd" clip-rule="evenodd" d="M54.601,97.552c-0.366-0.433-0.729-0.673-0.731-0.917
		c-0.003-0.26,0.333-0.524,0.522-0.787c0.237,0.265,0.556,0.498,0.676,0.808C55.13,96.816,54.841,97.113,54.601,97.552z"/>
	<path fill-rule="evenodd" clip-rule="evenodd" d="M96.843,47.908c-0.113,0.235-0.138,0.4-0.217,0.434
		c-0.506,0.215-1.023,0.402-1.538,0.598c-0.025-0.179-0.139-0.429-0.062-0.523C95.467,47.877,95.992,47.512,96.843,47.908z"/>
	<path fill-rule="evenodd" clip-rule="evenodd" d="M110.016,32.899c0.43-0.394,0.859-0.788,1.354-1.242
		C111.623,32.861,111.318,33.213,110.016,32.899z"/>
	<path fill-rule="evenodd" clip-rule="evenodd" d="M116.175,37.866c-0.5,0.305-1,0.609-1.499,0.913
		c-0.109-0.172-0.218-0.345-0.327-0.517c0.488-0.334,0.977-0.668,1.464-1.003C115.934,37.461,116.055,37.664,116.175,37.866z"/>
</g>
</svg>
