<?xml version="1.0" encoding="utf-8"?>
<!-- Generator: Adobe Illustrator 16.0.0, SVG Export Plug-In . SVG Version: 6.00 Build 0)  -->
<!DOCTYPE svg PUBLIC "-//W3C//DTD SVG 1.1//EN" "http://www.w3.org/Graphics/SVG/1.1/DTD/svg11.dtd">
<svg version="1.1" id="Layer_1" xmlns="http://www.w3.org/2000/svg" xmlns:xlink="http://www.w3.org/1999/xlink" x="0px" y="0px"
	 width="144px" height="144px" viewBox="0 0 144 144" enable-background="new 0 0 144 144" xml:space="preserve">
<g>
	<path fill="#FFFFFF" d="M45.866,51.241c1.053,0.763,0.432,1.204,0.01,1.604c-2.434,2.305-4.899,4.574-7.333,6.879
		c-2.805,2.656-5.7,5.229-8.343,8.039c-2.118,2.251-4.145,4.669-4.572,7.951c-0.034,0.26-0.153,0.579-0.344,0.736
		c-1.514,1.252-0.947,2.967-0.822,4.44c0.224,2.646,0.776,5.266,1.212,7.894c0.355,2.14,1.167,3.87,3.401,4.79
		c1.711,0.703,3.311,1.727,4.866,2.75c2.226,1.466,4.349,3.086,6.549,4.593c3.451,2.365,6.934,4.684,10.395,7.034
		c1.184,0.804,2.307,1.7,3.52,2.454c1.61,0.999,3.364,1.466,5.292,1.654c3.388,0.331,6.572-0.414,8.88-2.666
		c2.154-2.102,4.83-3.757,6.373-6.473c0.038-0.067,0.104-0.121,0.164-0.173c1.534-1.311,3.118-2.566,4.59-3.942
		c2.002-1.872,3.892-3.866,5.882-5.751c1.354-1.282,2.87-2.396,4.188-3.711c2.818-2.812,5.523-5.737,8.335-8.557
		c3.065-3.072,6.211-6.066,9.301-9.116c2.294-2.265,4.565-4.552,6.823-6.852c1.228-1.251,2.442-2.519,3.595-3.838
		c1.646-1.883,3.267-3.792,4.825-5.748c0.751-0.941,1.682-1.874,1.44-3.264c-0.119-0.682-0.342-1.345-0.484-2.024
		c-0.191-0.917-0.211-1.898-0.552-2.752c-0.888-2.218-1.96-4.333-3.985-5.803c-2.93-2.126-5.731-4.445-8.765-6.408
		c-2.43-1.572-5.159-2.676-7.69-4.103c-1.834-1.035-3.484-2.412-5.355-3.363c-2.837-1.443-5.762-2.728-8.708-3.936
		c-3.624-1.486-7.315-1.26-10.516,0.898c-3.152,2.125-6.017,4.7-8.895,7.205c-2.494,2.17-4.791,4.565-7.248,6.78
		c-4.141,3.733-8.349,7.393-12.507,11.107C48.439,50.417,47.651,51.498,45.866,51.241z"/>
	<path fill-rule="evenodd" clip-rule="evenodd" d="M45.866,51.241c1.786,0.257,2.573-0.824,3.523-1.672
		c4.158-3.714,8.366-7.374,12.507-11.107c2.457-2.215,4.753-4.609,7.248-6.78c2.878-2.505,5.743-5.08,8.895-7.205
		c3.2-2.158,6.892-2.384,10.516-0.898c2.946,1.208,5.871,2.493,8.708,3.936c1.871,0.952,3.521,2.329,5.355,3.363
		c2.531,1.427,5.261,2.531,7.69,4.103c3.033,1.963,5.835,4.282,8.765,6.408c2.025,1.47,3.098,3.585,3.985,5.803
		c0.341,0.854,0.36,1.835,0.552,2.752c0.143,0.679,0.365,1.342,0.484,2.024c0.241,1.39-0.689,2.323-1.44,3.264
		c-1.559,1.956-3.179,3.865-4.825,5.748c-1.152,1.319-2.367,2.586-3.595,3.838c-2.258,2.3-4.529,4.587-6.823,6.852
		c-3.09,3.049-6.235,6.043-9.301,9.116c-2.812,2.819-5.517,5.745-8.335,8.557c-1.317,1.315-2.834,2.429-4.188,3.711
		c-1.99,1.885-3.88,3.879-5.882,5.751c-1.472,1.376-3.056,2.632-4.59,3.942c-0.06,0.052-0.126,0.105-0.164,0.173
		c-1.543,2.716-4.218,4.371-6.373,6.473c-2.308,2.252-5.492,2.997-8.88,2.666c-1.929-0.188-3.683-0.655-5.292-1.654
		c-1.213-0.754-2.336-1.65-3.52-2.454c-3.461-2.351-6.943-4.669-10.395-7.034c-2.2-1.507-4.323-3.127-6.549-4.593
		c-1.556-1.023-3.155-2.047-4.866-2.75c-2.235-0.92-3.046-2.65-3.401-4.79c-0.436-2.628-0.988-5.247-1.212-7.894
		c-0.125-1.474-0.692-3.188,0.822-4.44c0.19-0.157,0.31-0.477,0.344-0.736c0.427-3.282,2.454-5.7,4.572-7.951
		c2.643-2.809,5.539-5.382,8.343-8.039c2.434-2.305,4.899-4.574,7.333-6.879C46.298,52.445,46.918,52.003,45.866,51.241z
		 M109.844,48.015c0-0.028-0.001-0.057-0.001-0.085c0.822-0.056,1.646-0.103,2.466-0.173c0.625-0.054,0.764-0.326,0.587-0.974
		c-0.45-1.647-1.305-2.835-2.808-3.79c-3.06-1.942-5.357-4.889-8.677-6.567c-1.712-0.865-3.056-2.444-4.744-3.376
		c-3.027-1.67-6.192-3.088-9.294-4.624c-1.627-0.806-4.311-0.128-5.27,1.375c-0.113,0.177-0.165,0.478-0.098,0.669
		c0.29,0.828-0.207,1.239-0.759,1.688c-2.28,1.86-4.573,3.707-6.803,5.626c-3.442,2.963-6.859,5.956-10.242,8.986
		c-1.749,1.567-3.338,3.313-5.107,4.854c-3.962,3.449-8.024,6.784-11.982,10.239c-1.997,1.743-3.862,3.638-5.761,5.491
		c-0.207,0.201-0.307,0.566-0.351,0.87c-0.176,1.213,0.417,2.116,1.38,2.705c1.143,0.699,2.419,1.179,3.558,1.884
		c2.152,1.332,4.281,2.71,6.358,4.156c2.382,1.659,4.58,3.614,7.072,5.075c2.843,1.666,5.911,2.956,8.907,4.354
		c0.945,0.44,1.964,0.952,2.968,0.995c2.842,0.124,5.107-1.422,7.16-3.123c1.982-1.642,3.719-3.577,5.61-5.334
		c0.899-0.836,1.902-1.562,2.864-2.331c1.116-0.893,2.297-1.716,3.348-2.68c2.169-1.988,4.262-4.059,6.4-6.081
		c2.023-1.913,4.073-3.797,6.086-5.721c0.224-0.214,0.281-0.603,0.416-0.911c-0.318-0.124-0.631-0.333-0.956-0.356
		c-0.735-0.054-1.477-0.017-2.216-0.017c0.856-0.272,1.732-0.454,2.574-0.354c1.2,0.142,2.139-0.25,2.909-1.072
		c1.221-1.302,2.401-2.644,3.556-4.006c0.229-0.269,0.26-0.705,0.382-1.064c-0.395-0.117-0.804-0.37-1.18-0.327
		c-1.662,0.193-3.308,0.565-4.973,0.694c-2.129,0.165-4.257,1.17-6.523,0.103c2.128-0.2,4.149-0.354,6.161-0.588
		c2.214-0.256,4.429-0.526,6.62-0.92c0.606-0.109,1.313-0.556,1.651-1.063c0.628-0.94,1.059-2.023,1.493-3.079
		c0.276-0.67-0.006-1.065-0.783-1.065C111.178,48.102,110.511,48.045,109.844,48.015z M49.619,51.287
		c-0.3,0.192-0.953,0.488-1.451,0.951c-2.625,2.437-5.238,4.888-7.806,7.385c-4.055,3.942-8.206,7.8-12.057,11.935
		c-2.578,2.768-3.344,6.84-0.752,10.441c1.291,1.794,3.159,3.201,4.877,4.651c1.95,1.647,4.028,3.144,6.044,4.712
		c2.511,1.954,4.952,4.007,7.542,5.848c2.426,1.725,4.929,3.377,7.545,4.788c2.547,1.373,5.27,2.429,7.946,3.552
		c0.42,0.177,1.084,0.135,1.488-0.081c1.432-0.768,2.873-1.558,4.172-2.524c1.266-0.942,2.532-1.958,2.995-3.629
		c0.099-0.355,0.519-0.653,0.846-0.906c1.439-1.114,2.987-2.106,4.331-3.324c1.801-1.631,3.435-3.444,5.167-5.152
		c2.523-2.486,5.113-4.906,7.594-7.434c2.317-2.358,4.467-4.882,6.802-7.221c4.214-4.222,8.521-8.353,12.765-12.545
		c0.557-0.55,0.976-1.241,1.459-1.867c-0.838-0.243-1.468-0.113-2.068-0.196c-1.094-0.15-1.954,0.196-2.715,0.939
		c-1.074,1.048-2.143,2.101-3.24,3.123c-2.448,2.28-4.931,4.523-7.364,6.818c-1.331,1.255-2.486,2.715-3.905,3.853
		c-2.735,2.193-5.519,4.305-8.017,6.796c-2.752,2.745-5.539,5.494-9.715,6.109c-1.508,0.223-2.767,0.252-4.046-0.717
		c-1.034-0.783-2.233-1.36-3.397-1.954c-2.055-1.05-4.287-1.825-6.18-3.107c-3.589-2.431-6.978-5.156-10.48-7.718
		c-0.765-0.559-1.665-0.931-2.492-1.405c-2.062-1.184-4.127-2.362-6.164-3.588c-0.24-0.144-0.508-0.654-0.425-0.856
		c0.6-1.461,1.06-2.986,2.695-3.801c0.936-0.466,1.684-1.326,2.481-2.048c1.497-1.356,2.914-2.806,4.465-4.095
		c1.646-1.367,3.361-2.667,5.137-3.859c2.179-1.462,3.663-3.647,5.718-5.241c1.148-0.89,2.05-2.094,3.077-3.143
		c2.64-2.701,5.259-5.423,7.941-8.081c1.718-1.703,3.504-3.34,5.313-4.946c1.247-1.107,2.574-2.126,3.889-3.155
		c1.187-0.929,2.361-1.885,3.621-2.708c1.143-0.746,2.364-1.31,3.807-0.595c2.735,1.354,5.503,2.643,8.252,3.97
		c0.681,0.329,1.39,0.631,2.001,1.065c2.929,2.081,5.834,4.192,8.734,6.312c1.914,1.4,3.808,2.83,5.702,4.257
		c0.152,0.115,0.269,0.3,0.354,0.476c0.505,1.033,1.024,2.06,1.482,3.114c0.33,0.763,0.717,1.259,1.684,1.174
		c1.67-0.148,3.349-0.197,5.025-0.249c1.001-0.03,1.255-0.456,0.944-1.385c-0.572-1.709-1.552-3.076-3.062-4.09
		c-1.122-0.754-2.143-1.658-3.268-2.407c-2.44-1.625-4.867-3.28-7.395-4.761c-2.735-1.603-5.765-2.758-8.329-4.583
		c-3.699-2.634-7.766-4.364-11.994-5.769c-2.123-0.705-4.487-1.108-6.529,0.126c-2.306,1.393-4.478,3.04-6.57,4.744
		c-2.783,2.265-5.43,4.696-8.142,7.047c-2.594,2.249-5.233,4.447-7.786,6.742c-2.189,1.968-4.29,4.036-6.42,6.07
		C51.093,49.77,50.47,50.429,49.619,51.287z M116.052,53.337c-1.592,0.17-3.028,0.293-4.453,0.5
		c-0.31,0.045-0.628,0.347-0.853,0.608c-1.338,1.551-2.668,3.11-3.941,4.714c-0.137,0.172,0.142,0.944,0.173,0.941
		c1.209-0.133,2.728,0.071,3.552-0.587c1.934-1.543,3.539-3.499,5.26-5.304C115.924,54.068,115.92,53.794,116.052,53.337z
		 M117.728,48.006c-1.38,0.058-1.303,0.229-3.283,1.114c-1.382,0.617-1.523,1.833-2.089,2.858c-0.275,0.5-0.04,0.915,0.645,0.92
		c3.198,0.026,5.916-0.921,7.739-3.74c0.427-0.66,0.186-0.958-0.513-1.012C119.395,48.083,118.561,48.051,117.728,48.006z
		 M110.162,62.571c-0.099-0.085-0.197-0.17-0.297-0.255c-0.187,0.031-0.44-0.007-0.55,0.102c-1.846,1.84-3.685,3.687-5.482,5.573
		c-0.158,0.167-0.02,0.617-0.019,0.935c0.348-0.076,0.914-0.05,1.005-0.245c0.466-1.003,1.997-1.112,2.032-2.46
		c0.002-0.083,0.406-0.134,0.602-0.238c0.19-0.101,0.386-0.224,0.522-0.385c0.5-0.593,0.993-1.193,1.454-1.817
		C109.708,63.403,109.92,62.976,110.162,62.571z M78.169,94.538c-0.162-0.123-0.324-0.246-0.487-0.368
		c-0.595,0.557-1.208,1.095-1.778,1.675c-0.478,0.486-0.372,1.015,0.239,1.202c0.377,0.115,1.116,0.015,1.252-0.231
		C77.775,96.123,77.927,95.306,78.169,94.538z M74.104,99.532c0.142,0.01,0.283,0.02,0.425,0.029
		c0.223-0.532,0.497-1.05,0.639-1.603c0.047-0.183-0.249-0.453-0.388-0.683c-0.422,0.361-0.973,0.655-1.211,1.112
		C73.45,98.615,73.907,99.142,74.104,99.532z M118.554,56.078c1.032,0.149,1.664-0.216,2.013-1.012
		c0.029-0.068-0.482-0.523-0.769-0.553C118.733,54.401,118.639,55.177,118.554,56.078z M122.572,50.121
		c-0.34-0.246-0.678-0.535-0.706-0.506c-0.516,0.504-1.007,1.037-1.456,1.601c-0.036,0.045,0.272,0.366,0.421,0.559
		C121.37,51.262,121.909,50.75,122.572,50.121z M72.471,99.658c-0.162-0.063-0.324-0.127-0.486-0.191
		c-0.784,0.276-0.792,0.938-0.69,1.616c0.013,0.088,0.456,0.201,0.462,0.188C72.012,100.742,72.239,100.199,72.471,99.658z
		 M62.733,106.661c-0.388,0.614-0.689,0.893-0.716,1.196c-0.021,0.235,0.3,0.502,0.469,0.754c0.223-0.281,0.524-0.533,0.638-0.854
		C63.191,107.567,62.965,107.272,62.733,106.661z M60.28,106.381c-0.256,0.684-0.44,1.043-0.507,1.423
		c-0.023,0.128,0.25,0.308,0.389,0.464c0.221-0.321,0.499-0.621,0.635-0.975C60.85,107.155,60.583,106.895,60.28,106.381z"/>
	<path fill-rule="evenodd" clip-rule="evenodd" fill="#FFFFFF" d="M109.844,48.015c0.667,0.031,1.334,0.087,2.001,0.086
		c0.777,0,1.06,0.395,0.783,1.065c-0.435,1.056-0.865,2.139-1.493,3.079c-0.338,0.507-1.045,0.955-1.651,1.063
		c-2.191,0.394-4.406,0.664-6.62,0.92c-2.012,0.233-4.033,0.388-6.161,0.588c2.267,1.067,4.395,0.062,6.523-0.103
		c1.665-0.129,3.311-0.501,4.973-0.694c0.376-0.043,0.785,0.21,1.18,0.327c-0.122,0.359-0.153,0.795-0.382,1.064
		c-1.154,1.362-2.335,2.704-3.556,4.006c-0.771,0.822-1.709,1.214-2.909,1.072c-0.842-0.1-1.718,0.081-2.574,0.354
		c0.739,0,1.48-0.037,2.216,0.017c0.325,0.024,0.638,0.232,0.956,0.356c-0.135,0.308-0.192,0.696-0.416,0.911
		c-2.013,1.924-4.062,3.809-6.086,5.721c-2.139,2.022-4.231,4.093-6.4,6.081c-1.051,0.964-2.231,1.787-3.348,2.68
		c-0.962,0.77-1.965,1.495-2.864,2.331c-1.892,1.757-3.628,3.692-5.61,5.334c-2.053,1.701-4.318,3.247-7.16,3.123
		c-1.004-0.043-2.022-0.555-2.968-0.995c-2.997-1.397-6.064-2.688-8.907-4.354c-2.492-1.461-4.69-3.416-7.072-5.075
		c-2.077-1.446-4.206-2.824-6.358-4.156c-1.138-0.705-2.415-1.185-3.558-1.884c-0.964-0.589-1.556-1.492-1.38-2.705
		c0.044-0.304,0.145-0.669,0.351-0.87c1.899-1.853,3.765-3.748,5.761-5.491c3.958-3.456,8.02-6.79,11.982-10.239
		c1.77-1.541,3.359-3.288,5.107-4.854c3.382-3.031,6.8-6.023,10.242-8.986c2.229-1.919,4.522-3.766,6.803-5.626
		c0.552-0.45,1.049-0.86,0.759-1.688c-0.067-0.192-0.016-0.493,0.098-0.669c0.959-1.504,3.643-2.181,5.27-1.375
		c3.102,1.535,6.267,2.954,9.294,4.624c1.688,0.932,3.032,2.511,4.744,3.376c3.319,1.678,5.617,4.625,8.677,6.567
		c1.503,0.955,2.357,2.143,2.808,3.79c0.177,0.648,0.038,0.92-0.587,0.974c-0.82,0.07-1.644,0.117-2.466,0.173
		C109.843,47.958,109.844,47.986,109.844,48.015z"/>
	<path fill-rule="evenodd" clip-rule="evenodd" fill="#FFFFFF" d="M49.619,51.287c0.851-0.858,1.474-1.517,2.129-2.142
		c2.13-2.034,4.23-4.103,6.42-6.07c2.553-2.294,5.192-4.493,7.786-6.742c2.712-2.351,5.359-4.782,8.142-7.047
		c2.093-1.704,4.265-3.351,6.57-4.744c2.042-1.234,4.406-0.831,6.529-0.126c4.229,1.405,8.295,3.134,11.994,5.769
		c2.564,1.825,5.594,2.98,8.329,4.583c2.527,1.481,4.954,3.136,7.395,4.761c1.125,0.749,2.146,1.653,3.268,2.407
		c1.511,1.015,2.49,2.381,3.062,4.09c0.311,0.929,0.057,1.354-0.944,1.385c-1.677,0.051-3.355,0.101-5.025,0.249
		c-0.967,0.085-1.354-0.411-1.684-1.174c-0.458-1.054-0.978-2.082-1.482-3.114c-0.086-0.176-0.202-0.361-0.354-0.476
		c-1.895-1.427-3.788-2.857-5.702-4.257c-2.9-2.12-5.806-4.231-8.734-6.312c-0.611-0.434-1.32-0.737-2.001-1.065
		c-2.749-1.327-5.517-2.615-8.252-3.97c-1.442-0.714-2.664-0.151-3.807,0.595c-1.26,0.823-2.435,1.779-3.621,2.708
		c-1.314,1.029-2.642,2.048-3.889,3.155c-1.81,1.606-3.596,3.243-5.313,4.946c-2.682,2.658-5.301,5.38-7.941,8.081
		c-1.026,1.049-1.929,2.253-3.077,3.143c-2.055,1.593-3.54,3.778-5.718,5.241c-1.776,1.192-3.491,2.492-5.137,3.859
		c-1.552,1.289-2.968,2.739-4.465,4.095c-0.797,0.722-1.545,1.582-2.481,2.048c-1.636,0.815-2.096,2.339-2.695,3.801
		c-0.083,0.202,0.185,0.712,0.425,0.856c2.036,1.226,4.102,2.404,6.164,3.588c0.828,0.475,1.728,0.847,2.492,1.405
		c3.502,2.562,6.891,5.287,10.48,7.718c1.893,1.282,4.125,2.058,6.18,3.107c1.164,0.594,2.363,1.171,3.397,1.954
		c1.279,0.969,2.539,0.939,4.046,0.717c4.176-0.615,6.963-3.364,9.715-6.109c2.498-2.491,5.281-4.603,8.017-6.796
		c1.419-1.138,2.574-2.598,3.905-3.853c2.434-2.295,4.916-4.538,7.364-6.818c1.098-1.022,2.166-2.075,3.24-3.123
		c0.761-0.743,1.621-1.089,2.715-0.939c0.601,0.083,1.23-0.047,2.068,0.196c-0.483,0.626-0.902,1.317-1.459,1.867
		c-4.244,4.192-8.551,8.323-12.765,12.545c-2.335,2.339-4.484,4.862-6.802,7.221c-2.48,2.527-5.07,4.947-7.594,7.434
		c-1.732,1.708-3.366,3.521-5.167,5.152c-1.344,1.218-2.892,2.21-4.331,3.324c-0.327,0.253-0.747,0.551-0.846,0.906
		c-0.463,1.671-1.729,2.687-2.995,3.629c-1.299,0.967-2.74,1.757-4.172,2.524c-0.404,0.216-1.068,0.258-1.488,0.081
		c-2.676-1.123-5.398-2.179-7.946-3.552c-2.616-1.411-5.119-3.063-7.545-4.788c-2.59-1.841-5.031-3.894-7.542-5.848
		c-2.017-1.568-4.094-3.064-6.044-4.712c-1.718-1.45-3.586-2.857-4.877-4.651c-2.592-3.602-1.826-7.674,0.752-10.441
		c3.851-4.135,8.001-7.992,12.057-11.935c2.568-2.497,5.18-4.948,7.806-7.385C48.666,51.775,49.319,51.479,49.619,51.287z
		 M46.233,79.003c-3.259,0.082-5.09,1.327-5.325,3.929c-0.389,4.297,3.433,6.977,7.171,6.644c0.262-0.023,0.677-0.419,0.7-0.669
		c0.079-0.88,0.605-1.061,1.342-1.216c1.384-0.292,2.179-1.389,1.763-2.686c-0.427-1.332-1.161-2.567-1.775-3.838
		C49.28,79.45,47.708,79.12,46.233,79.003z"/>
	<path fill-rule="evenodd" clip-rule="evenodd" fill="#FFFFFF" d="M116.052,53.337c-0.132,0.458-0.128,0.731-0.263,0.872
		c-1.721,1.806-3.326,3.761-5.26,5.304c-0.824,0.658-2.343,0.454-3.552,0.587c-0.031,0.003-0.31-0.769-0.173-0.941
		c1.273-1.604,2.604-3.163,3.941-4.714c0.225-0.261,0.543-0.563,0.853-0.608C113.023,53.63,114.46,53.507,116.052,53.337z"/>
	<path fill-rule="evenodd" clip-rule="evenodd" fill="#FFFFFF" d="M117.728,48.006c0.833,0.045,1.667,0.077,2.499,0.141
		c0.698,0.053,0.939,0.352,0.513,1.012c-1.823,2.819-4.541,3.766-7.739,3.74c-0.685-0.005-0.92-0.421-0.645-0.92
		c0.565-1.026,0.707-2.242,2.089-2.858C116.425,48.235,116.348,48.063,117.728,48.006z"/>
	<path fill-rule="evenodd" clip-rule="evenodd" fill="#FFFFFF" d="M110.162,62.571c-0.242,0.405-0.454,0.832-0.732,1.21
		c-0.461,0.624-0.954,1.224-1.454,1.817c-0.137,0.161-0.332,0.284-0.522,0.385c-0.195,0.104-0.6,0.156-0.602,0.238
		c-0.035,1.349-1.566,1.457-2.032,2.46c-0.091,0.195-0.657,0.169-1.005,0.245c-0.001-0.318-0.14-0.769,0.019-0.935
		c1.798-1.886,3.637-3.733,5.482-5.573c0.109-0.109,0.363-0.071,0.55-0.102C109.965,62.401,110.063,62.486,110.162,62.571z"/>
	<path fill-rule="evenodd" clip-rule="evenodd" fill="#FFFFFF" d="M78.169,94.538c-0.242,0.768-0.394,1.585-0.774,2.277
		c-0.136,0.246-0.875,0.347-1.252,0.231c-0.611-0.188-0.717-0.716-0.239-1.202c0.57-0.58,1.184-1.118,1.778-1.675
		C77.845,94.292,78.007,94.415,78.169,94.538z"/>
	<path fill-rule="evenodd" clip-rule="evenodd" fill="#FFFFFF" d="M74.104,99.532c-0.196-0.391-0.653-0.917-0.535-1.144
		c0.238-0.457,0.789-0.751,1.211-1.112c0.139,0.229,0.435,0.5,0.388,0.683c-0.142,0.553-0.416,1.07-0.639,1.603
		C74.387,99.552,74.245,99.542,74.104,99.532z"/>
	<path fill-rule="evenodd" clip-rule="evenodd" fill="#FFFFFF" d="M118.554,56.078c0.085-0.901,0.18-1.677,1.244-1.565
		c0.286,0.03,0.798,0.485,0.769,0.553C120.218,55.862,119.586,56.227,118.554,56.078z"/>
	<path fill-rule="evenodd" clip-rule="evenodd" fill="#FFFFFF" d="M122.572,50.121c-0.663,0.629-1.202,1.142-1.741,1.653
		c-0.148-0.192-0.457-0.513-0.421-0.559c0.449-0.564,0.94-1.097,1.456-1.601C121.895,49.586,122.232,49.875,122.572,50.121z"/>
	<path fill-rule="evenodd" clip-rule="evenodd" fill="#FFFFFF" d="M72.471,99.658c-0.231,0.541-0.459,1.084-0.714,1.613
		c-0.006,0.013-0.449-0.101-0.462-0.188c-0.102-0.679-0.093-1.34,0.69-1.616C72.146,99.531,72.309,99.595,72.471,99.658z"/>
	<path fill-rule="evenodd" clip-rule="evenodd" fill="#FFFFFF" d="M62.733,106.661c0.232,0.611,0.458,0.906,0.391,1.097
		c-0.114,0.32-0.415,0.572-0.638,0.854c-0.169-0.252-0.49-0.519-0.469-0.754C62.044,107.554,62.345,107.275,62.733,106.661z"/>
	<path fill-rule="evenodd" clip-rule="evenodd" fill="#FFFFFF" d="M60.28,106.381c0.303,0.514,0.569,0.774,0.517,0.912
		c-0.136,0.354-0.414,0.653-0.635,0.975c-0.138-0.156-0.412-0.336-0.389-0.464C59.84,107.424,60.024,107.064,60.28,106.381z"/>
	<path fill-rule="evenodd" clip-rule="evenodd" d="M46.233,79.003c1.475,0.117,3.047,0.447,3.876,2.164
		c0.614,1.271,1.348,2.506,1.775,3.838c0.416,1.297-0.379,2.394-1.763,2.686c-0.737,0.155-1.264,0.336-1.342,1.216
		c-0.022,0.25-0.438,0.646-0.7,0.669c-3.738,0.333-7.56-2.347-7.171-6.644C41.143,80.33,42.974,79.085,46.233,79.003z"/>
</g>
</svg>
