<?xml version="1.0" encoding="utf-8"?>
<!-- Generator: Adobe Illustrator 16.0.0, SVG Export Plug-In . SVG Version: 6.00 Build 0)  -->
<!DOCTYPE svg PUBLIC "-//W3C//DTD SVG 1.1//EN" "http://www.w3.org/Graphics/SVG/1.1/DTD/svg11.dtd">
<svg version="1.1" id="Layer_1" xmlns="http://www.w3.org/2000/svg" xmlns:xlink="http://www.w3.org/1999/xlink" x="0px" y="0px"
	 width="144px" height="144px" viewBox="0 0 144 144" enable-background="new 0 0 144 144" xml:space="preserve">
<g>
	<path fill="#FFFFFF" d="M84.593,39.439c0.05-0.003,0.1-0.006,0.15-0.01c-0.188-3.212-0.362-6.426-0.573-9.638
		c-0.052-0.779-0.195-1.555-0.344-2.324c-0.268-1.382-0.578-2.756-0.856-4.136c-0.2-0.997-0.312-2.017-0.577-2.997
		c-0.714-2.643-3.479-2.573-5.24-3.834c-0.325-0.233-0.955-0.176-1.403-0.073c-0.645,0.149-1.238,0.627-1.875,0.673
		c-1.512,0.11-2.099,1.2-2.83,2.25c-1.303,1.87-0.586,4.598-2.646,6.132c-0.062,0.047-0.027,0.229-0.032,0.349
		c-0.13,2.736-0.321,5.471-0.372,8.209c-0.065,3.519-0.018,7.04-0.018,10.559c0,0.771-0.05,1.548,0.017,2.314
		c0.085,0.974,0.254,1.942,0.409,2.909c0.17,1.064-0.556,1.56-1.345,1.574c-2.079,0.037-3.932,0.701-5.767,1.576
		c-0.941,0.449-1.358,0.086-1.478-0.952c-0.08-0.696-0.114-1.542-0.521-2.025c-0.747-0.886-0.728-1.845-0.638-2.814
		c0.143-1.535-0.365-2.837-0.981-4.202c-0.568-1.259-1.593-1.598-2.702-1.823c-0.386-0.079-0.873,0.337-1.313,0.528
		c0.359,0.281,0.692,0.753,1.082,0.806c0.943,0.128,1.364,0.557,1.305,1.489c-0.069,1.097-0.921,0.722-1.45,0.675
		c-2.686-0.24-5.099,0.475-7.276,1.997c-0.628,0.438-1.257,0.985-1.655,1.625c-1.2,1.931-2.093,4.08-3.464,5.87
		c-1.992,2.6-2.558,5.82-4.166,8.563c-0.513,0.874-0.832,1.887-1.451,2.668c-1.583,1.998-2.227,4.296-2.494,6.755
		c-0.141,1.293,0.014,2.715-0.481,3.854c-1.1,2.527-0.479,5.112-0.687,7.661c-0.029,0.356-0.095,0.711-0.114,1.067
		c-0.088,1.652-0.348,3.322-0.2,4.954c0.176,1.942,0.664,3.861,1.094,5.773c0.36,1.598,0.715,3.213,1.285,4.741
		c0.626,1.68,1.456,3.289,2.272,4.891c0.583,1.145,1.144,2.354,1.976,3.306c1.163,1.329,2.834,2.265,3.812,3.694
		c1.626,2.376,4.067,3.544,6.321,5.018c0.88,0.575,1.9,0.938,2.774,1.519c1.954,1.298,4.013,2.35,6.326,2.782
		c3.052,0.571,6.106,1.244,9.19,1.503c2.229,0.187,4.523-0.121,6.763-0.408c2.955-0.379,5.88-0.998,8.83-1.426
		c1.72-0.249,3.466-0.304,5.196-0.488c0.782-0.084,1.597-0.159,2.321-0.435c2.154-0.818,4.332-1.615,6.385-2.649
		c1.58-0.796,2.977-1.954,4.474-2.922c2.57-1.664,4.398-4.021,6.068-6.512c0.719-1.07,1.267-2.252,1.928-3.363
		c1.063-1.784,2.2-3.525,3.223-5.332c1.119-1.978,2.4-3.918,3.145-6.039c0.942-2.683,1.719-5.499,2.011-8.315
		c0.356-3.442,0.281-6.95-0.29-10.403c-0.371-2.242-0.968-4.465-1.137-6.721c-0.223-2.988-1.357-5.681-2.239-8.465
		c-0.153-0.482-0.191-1.029-0.448-1.445c-0.92-1.492-1.747-3.091-2.918-4.367c-1.284-1.399-1.363-3.887-3.78-4.262
		c-0.062-0.01-0.108-0.109-0.162-0.166c-1.734-1.849-3.52-3.637-6.074-4.317c-0.373-0.1-0.907-0.1-1.204,0.098
		c-1.592,1.066-3.151,2.184-4.681,3.34c-0.576,0.436-1.368,0.951-1.492,1.549c-0.3,1.442-0.388,2.958,0.5,4.328
		c0.511,0.79,0.977,1.618,1.373,2.471c0.775,1.667,1.411,3.345,2.911,4.624c2.578,2.199,4.643,4.788,5.8,8.098
		c1.105,3.163,1.957,6.306,1.721,9.693c-0.056,0.806,0.229,1.633,0.335,2.452c0.041,0.314,0.106,0.661,0.021,0.951
		c-0.703,2.38-0.568,4.92-1.869,7.229c-0.888,1.578-1.626,3.154-3.033,4.355c-0.449,0.383-0.744,0.982-1.02,1.528
		c-0.519,1.031-0.896,2.147-2.368,2.168c-0.28,0.004-0.746,0.329-0.801,0.577c-0.323,1.467-1.266,2.377-2.465,3.161
		c-1.682,1.101-3.241,2.398-4.973,3.408c-2.628,1.532-5.656,1.829-8.585,2.327c-2.812,0.478-5.659,0.838-8.529,0.443
		c-0.937-0.129-1.871-0.274-2.804-0.426c-0.616-0.101-1.235-0.197-1.841-0.343c-2.054-0.491-4.204-0.76-6.128-1.565
		c-2.747-1.151-5.329-2.696-7.973-4.088c-0.275-0.146-0.518-0.369-0.743-0.59c-0.937-0.917-1.956-1.771-2.766-2.79
		c-1.167-1.47-2.322-2.986-3.213-4.629c-0.748-1.378-1.19-2.941-1.618-4.466c-0.274-0.976-0.434-2.04-0.363-3.045
		c0.129-1.838,0.472-3.661,0.716-5.492c0.412-3.079,0.746-6.172,1.249-9.236c0.296-1.804,0.464-3.714,1.902-5.115
		c1.067-1.041,2.155-2.061,3.213-3.111c1.561-1.547,3.507-2.886,4.544-4.732c1.115-1.986,3.039-2.65,4.494-4.015
		c1.465-1.375,3.341-1.502,5.131-1.891c1.309-0.285,1.923,0.27,1.948,1.648c0.008,0.424-0.143,0.849-0.188,1.277
		c-0.054,0.509-0.133,1.025-0.093,1.53c0.068,0.861,0.308,1.714,0.322,2.573c0.052,3.079,0.117,6.161,0.026,9.238
		c-0.066,2.267,0.762,4.264,1.64,6.225c0.867,1.936,1.955,3.78,3.043,5.606c0.884,1.481,1.948,2.85,3.894,2.954
		c0.986,0.053,1.979-0.003,2.968,0.002c2.261,0.013,3.419-1.151,3.435-3.429c0.012-1.678-0.276-3.447,0.158-5.013
		c0.736-2.649,1.439-5.238,1.073-8.013c-0.027-0.214,0.16-0.449,0.166-0.676c0.037-1.26,0.06-2.521,0.065-3.782
		c0.009-2.083-0.06-4.168,0.021-6.248c0.06-1.536,0.482-3.07,0.425-4.593c-0.09-2.361-0.516-4.708-0.678-7.068
		C84.502,42.725,84.593,41.079,84.593,39.439z"/>
	<path fill-rule="evenodd" clip-rule="evenodd" d="M84.593,39.439c0,1.64-0.091,3.286,0.021,4.918
		c0.162,2.361,0.588,4.708,0.678,7.068c0.058,1.523-0.365,3.058-0.425,4.593c-0.08,2.08-0.012,4.165-0.021,6.248
		c-0.006,1.261-0.028,2.521-0.065,3.782c-0.006,0.228-0.193,0.462-0.166,0.676c0.366,2.774-0.337,5.363-1.073,8.013
		c-0.435,1.565-0.146,3.335-0.158,5.013c-0.016,2.277-1.174,3.441-3.435,3.429c-0.989-0.005-1.981,0.051-2.968-0.002
		c-1.945-0.104-3.01-1.473-3.894-2.954c-1.088-1.826-2.176-3.671-3.043-5.606c-0.878-1.961-1.706-3.958-1.64-6.225
		c0.09-3.077,0.026-6.159-0.026-9.238c-0.014-0.858-0.254-1.711-0.322-2.573c-0.04-0.504,0.039-1.021,0.093-1.53
		c0.045-0.428,0.196-0.853,0.188-1.277c-0.025-1.378-0.639-1.933-1.948-1.648c-1.79,0.388-3.666,0.516-5.131,1.891
		c-1.455,1.365-3.378,2.029-4.494,4.015c-1.037,1.846-2.983,3.185-4.544,4.732c-1.058,1.05-2.146,2.07-3.213,3.111
		c-1.438,1.401-1.606,3.312-1.902,5.115c-0.503,3.064-0.837,6.157-1.249,9.236c-0.244,1.831-0.587,3.654-0.716,5.492
		c-0.071,1.005,0.089,2.069,0.363,3.045c0.427,1.524,0.87,3.088,1.618,4.466c0.892,1.643,2.046,3.159,3.213,4.629
		c0.81,1.02,1.829,1.873,2.766,2.79c0.225,0.221,0.467,0.444,0.743,0.59c2.645,1.392,5.227,2.937,7.973,4.088
		c1.924,0.806,4.074,1.074,6.128,1.565c0.606,0.146,1.225,0.242,1.841,0.343c0.934,0.151,1.868,0.297,2.804,0.426
		c2.87,0.395,5.717,0.034,8.529-0.443c2.929-0.498,5.957-0.795,8.585-2.327c1.731-1.01,3.291-2.308,4.973-3.408
		c1.199-0.784,2.142-1.694,2.465-3.161c0.055-0.248,0.521-0.573,0.801-0.577c1.472-0.021,1.85-1.137,2.368-2.168
		c0.275-0.546,0.57-1.146,1.02-1.528c1.407-1.201,2.146-2.777,3.033-4.355c1.301-2.309,1.166-4.849,1.869-7.229
		c0.086-0.29,0.021-0.637-0.021-0.951c-0.106-0.819-0.391-1.646-0.335-2.452c0.236-3.388-0.615-6.53-1.721-9.693
		c-1.157-3.31-3.222-5.899-5.8-8.098c-1.5-1.278-2.136-2.957-2.911-4.624c-0.396-0.853-0.862-1.681-1.373-2.471
		c-0.888-1.371-0.8-2.886-0.5-4.328c0.124-0.598,0.916-1.113,1.492-1.549c1.529-1.156,3.089-2.273,4.681-3.34
		c0.297-0.198,0.831-0.198,1.204-0.098c2.555,0.68,4.34,2.469,6.074,4.317c0.054,0.057,0.101,0.156,0.162,0.166
		c2.417,0.375,2.496,2.863,3.78,4.262c1.171,1.275,1.998,2.875,2.918,4.367c0.257,0.416,0.295,0.963,0.448,1.445
		c0.882,2.784,2.017,5.477,2.239,8.465c0.169,2.256,0.766,4.479,1.137,6.721c0.571,3.453,0.646,6.961,0.29,10.403
		c-0.292,2.816-1.068,5.633-2.011,8.315c-0.744,2.121-2.025,4.062-3.145,6.039c-1.022,1.807-2.159,3.548-3.223,5.332
		c-0.661,1.111-1.209,2.293-1.928,3.363c-1.67,2.49-3.498,4.848-6.068,6.512c-1.497,0.968-2.894,2.126-4.474,2.922
		c-2.053,1.034-4.23,1.831-6.385,2.649c-0.725,0.275-1.539,0.351-2.321,0.435c-1.73,0.185-3.477,0.239-5.196,0.488
		c-2.95,0.428-5.875,1.047-8.83,1.426c-2.24,0.287-4.534,0.595-6.763,0.408c-3.084-0.259-6.138-0.932-9.19-1.503
		c-2.312-0.433-4.372-1.484-6.326-2.782c-0.875-0.581-1.895-0.943-2.774-1.519c-2.254-1.474-4.695-2.642-6.321-5.018
		c-0.978-1.43-2.649-2.365-3.812-3.694c-0.833-0.952-1.393-2.161-1.976-3.306c-0.816-1.602-1.646-3.211-2.272-4.891
		c-0.57-1.528-0.925-3.144-1.285-4.741c-0.43-1.912-0.918-3.831-1.094-5.773c-0.148-1.632,0.111-3.302,0.2-4.954
		c0.019-0.356,0.084-0.711,0.114-1.067c0.208-2.549-0.413-5.134,0.687-7.661c0.496-1.139,0.34-2.561,0.481-3.854
		c0.268-2.459,0.911-4.758,2.494-6.755c0.62-0.781,0.938-1.794,1.451-2.668c1.608-2.743,2.174-5.963,4.166-8.563
		c1.371-1.79,2.264-3.939,3.464-5.87c0.398-0.64,1.027-1.186,1.655-1.625c2.178-1.521,4.591-2.236,7.276-1.997
		c0.529,0.047,1.381,0.421,1.45-0.675c0.059-0.932-0.361-1.36-1.305-1.489c-0.39-0.053-0.723-0.524-1.082-0.806
		c0.44-0.19,0.927-0.606,1.313-0.528c1.109,0.225,2.134,0.564,2.702,1.823c0.616,1.365,1.125,2.667,0.981,4.202
		c-0.09,0.969-0.109,1.928,0.638,2.814c0.406,0.483,0.44,1.329,0.521,2.025c0.12,1.038,0.537,1.4,1.478,0.952
		c1.835-0.875,3.688-1.54,5.767-1.576c0.789-0.014,1.515-0.509,1.345-1.574c-0.154-0.967-0.324-1.935-0.409-2.909
		c-0.067-0.766-0.017-1.542-0.017-2.314c0-3.52-0.047-7.041,0.018-10.559c0.051-2.738,0.242-5.473,0.372-8.209
		c0.005-0.12-0.03-0.302,0.032-0.349c2.06-1.534,1.343-4.262,2.646-6.132c0.731-1.05,1.318-2.14,2.83-2.25
		c0.637-0.046,1.23-0.524,1.875-0.673c0.448-0.104,1.078-0.16,1.403,0.073c1.762,1.261,4.526,1.191,5.24,3.834
		c0.265,0.979,0.377,2,0.577,2.997c0.278,1.38,0.589,2.754,0.856,4.136c0.148,0.769,0.292,1.545,0.344,2.324
		c0.211,3.211,0.385,6.425,0.573,9.638C84.692,39.433,84.643,39.436,84.593,39.439z M72.86,42.735
		c0.072,0.137,0.146,0.273,0.219,0.409c0.551-0.099,1.167-0.074,1.64-0.322c0.97-0.509,1.923-1.089,2.773-1.775
		c1.566-1.263,3.123-2.556,4.528-3.99c0.364-0.372,0.153-1.309,0.207-1.986c-0.518,0.035-1.207-0.133-1.525,0.136
		c-2.477,2.094-4.893,4.262-7.295,6.441C73.127,41.902,73.038,42.368,72.86,42.735z M81.48,31.425
		c0.058-0.449,0.05-0.935,0.188-1.374c0.753-2.395-0.4-4.454-1.168-6.565c-0.092-0.254-0.807-0.517-1.088-0.406
		c-0.354,0.139-0.772,0.653-0.78,1.013c-0.011,0.553,0.319,1.109,0.474,1.673c0.073,0.271,0.154,0.58,0.096,0.84
		c-0.176,0.778-0.545,1.53-0.608,2.311C78.471,30.403,79.861,31.579,81.48,31.425z M42.697,75.792
		c-0.238-0.567-0.357-1.274-0.588-1.313c-0.481-0.08-1.176,0.031-1.509,0.35c-0.994,0.951-1.887,2.016-2.749,3.092
		c-0.233,0.291-0.215,0.782-0.313,1.182c0.443,0.07,0.989,0.34,1.309,0.174c1.003-0.52,1.981-1.132,2.848-1.854
		C42.155,77.038,42.366,76.354,42.697,75.792z M99.318,107.114c-0.454-1.27-0.883-2.48-1.32-3.688
		c-0.396-1.098-1.36-0.893-1.965-0.532c-0.398,0.236-0.71,1.237-0.534,1.694c0.416,1.088,1.078,2.105,1.783,3.045
		c0.237,0.317,0.903,0.421,1.369,0.41C98.857,108.039,99.051,107.507,99.318,107.114z M80.763,64.222
		c-0.478,0.341-0.9,0.594-1.261,0.917c-0.256,0.229-0.401,0.577-0.642,0.828C77.89,66.98,76.875,67.954,75.941,69
		c-0.181,0.203-0.214,0.765-0.061,0.972c0.14,0.19,0.711,0.274,0.943,0.142c0.642-0.365,1.248-0.82,1.791-1.323
		c0.914-0.849,1.813-1.725,2.623-2.67c0.259-0.302,0.29-0.866,0.274-1.305C81.507,64.638,81.098,64.474,80.763,64.222z
		 M83.112,45.168c0.008-1.002-0.474-1.438-1.555-1.022c-0.742,0.286-1.432,0.83-2.005,1.399c-0.617,0.614-0.978,1.501-1.627,2.065
		c-0.516,0.447-0.799,0.838-0.368,1.332c0.119,0.136,0.853-0.16,1.236-0.378c1.034-0.588,1.963-1.489,3.064-1.794
		C82.811,46.507,83.143,46.168,83.112,45.168z M112.59,97.083c0.234-1.526-0.377-1.937-1.363-2.021
		c-0.479-0.041-0.956-0.104-1.434-0.157c0.054,0.531,0.168,1.064,0.141,1.591c-0.02,0.373-0.144,0.805-0.372,1.089
		c-0.421,0.525-0.394,1.669,0.147,2.176c0.637,0.597,1.242,0.366,1.615-0.229C111.884,98.639,112.299,97.657,112.59,97.083z
		 M112.703,68.106c0.043-1.147-0.359-1.605-1.047-1.159c-0.849,0.55-1.593,1.283-2.312,2.007c-0.557,0.561-1.012,1.224-1.501,1.849
		c-0.197,0.251-0.428,0.504-0.521,0.795c-0.045,0.138,0.216,0.537,0.303,0.526c0.354-0.042,0.702-0.175,1.033-0.319
		c0.235-0.102,0.447-0.266,0.658-0.417c0.339-0.244,0.663-0.508,1.002-0.751c0.211-0.151,0.424-0.356,0.661-0.402
		C112.206,69.997,112.713,69.226,112.703,68.106z M103.507,110.709c-0.533-0.732-0.901-1.41-1.44-1.899
		c-0.237-0.215-0.834-0.107-1.24-0.02c-0.13,0.027-0.299,0.507-0.232,0.706c0.453,1.348,0.047,2.21-1.242,2.839
		c-0.278,0.136-0.228,0.946-0.329,1.446c0.397,0.028,0.895,0.223,1.173,0.055c0.806-0.486,1.555-1.082,2.264-1.707
		C102.825,111.806,103.058,111.331,103.507,110.709z M114.086,89.543c-0.846-0.086-1.535,0.156-1.596,1.289
		c-0.012,0.201-0.302,0.375-0.362,0.59c-0.15,0.529-0.51,1.369-0.303,1.557c0.457,0.419,1.195,0.582,1.847,0.722
		c0.693,0.149,0.926-0.278,1.027-0.947c0.086-0.559,0.423-1.077,0.636-1.618C115.777,90.014,115.435,89.538,114.086,89.543z
		 M107.793,67.225c0.009,0.015-0.102-0.341-0.341-0.555c-0.6-0.538-1.401-0.875-1.317-1.929c0.016-0.202-0.55-0.607-0.867-0.63
		c-0.267-0.019-0.627,0.333-0.836,0.605c-0.512,0.666-0.229,1.229,0.271,1.803c0.3,0.345,0.597,0.812,0.63,1.245
		c0.074,0.965,0.724,0.93,1.358,0.928C107.392,68.69,107.99,68.509,107.793,67.225z M100.124,100.16
		c-0.014,1.183,1.365,2.955,2.197,3.072c0.35,0.05,0.99-0.047,1.044-0.22c0.129-0.41,0.098-0.952-0.072-1.354
		c-0.255-0.606-0.589-1.248-1.069-1.669c-0.373-0.327-1.022-0.451-1.546-0.443C100.432,99.55,100.193,100.077,100.124,100.16z
		 M95.567,53.23c0.256,0.723,0.347,1.454,0.739,1.94c0.308,0.381,1.006,0.648,1.499,0.605c0.328-0.028,0.706-0.648,0.88-1.077
		c0.53-1.307-0.832-1.485-1.401-2.111c-0.246-0.271-0.812-0.483-1.128-0.385C95.887,52.287,95.767,52.853,95.567,53.23z
		 M109.45,57.007c1.44,0.024,1.934-0.696,1.37-1.686c-0.364-0.642-0.858-1.229-1.382-1.752c-0.201-0.202-0.68-0.273-0.968-0.188
		c-0.188,0.056-0.413,0.543-0.354,0.767c0.204,0.777,0.493,1.537,0.817,2.274C109.06,56.708,109.365,56.915,109.45,57.007z
		 M71.032,25.287c-0.067,0.024-0.134,0.05-0.201,0.075c0.201,0.463,0.292,1.198,0.626,1.333c0.725,0.293,1.127-0.315,1.361-0.97
		c0.038-0.107,0.2-0.197,0.195-0.289c-0.028-0.557,0.01-1.15-0.182-1.651c-0.089-0.233-0.864-0.484-0.951-0.388
		c-0.361,0.399-0.593,0.923-0.839,1.417C70.979,24.941,71.032,25.128,71.032,25.287z M74.201,20.486
		c-0.239-0.471-0.317-0.875-0.553-1.013c-0.203-0.12-0.776-0.035-0.854,0.123c-0.386,0.783-0.7,1.608-0.949,2.446
		c-0.062,0.206,0.163,0.667,0.354,0.734c0.238,0.084,0.718-0.023,0.847-0.214C73.492,21.904,73.83,21.173,74.201,20.486z
		 M41.379,97.479c0.682,0.283,1.211,0.67,1.392,0.547c0.627-0.43,1.213-0.98,1.646-1.603c0.17-0.244,0.023-0.914-0.215-1.174
		c-0.188-0.205-0.912-0.25-1.093-0.066C42.533,95.768,42.1,96.491,41.379,97.479z M111.458,86.522
		c0.681,0.077,0.952-0.264,0.874-0.98c-0.135-1.235-1.34-0.489-1.887-1.017c-0.161-0.155-0.657-0.019-0.974,0.073
		c-0.104,0.03-0.154,0.339-0.179,0.526C109.184,85.964,110.04,86.526,111.458,86.522z M42.509,89.016
		c-0.121-0.111-0.666-0.671-0.701-0.641c-0.687,0.595-1.313,1.257-1.953,1.906c0.246,0.221,0.476,0.605,0.741,0.633
		C41.684,91.024,42.491,90.334,42.509,89.016z M104.14,106.453c-0.021,1.426,0.441,2.189,1.086,1.968
		c0.459-0.158,0.966-0.768,1.064-1.253c0.176-0.867-0.447-1.339-1.29-1.247C104.637,105.96,104.311,106.341,104.14,106.453z
		 M109.681,74.631c1.115,0.039,2.249-0.797,2.204-1.535c-0.017-0.262-0.385-0.671-0.645-0.717c-0.846-0.148-2.026,0.874-1.955,1.658
		C109.309,74.288,109.599,74.515,109.681,74.631z M61.454,118.36c-0.368-0.31-0.695-0.793-1.112-0.891
		c-0.707-0.164-1.258,0.237-1.302,1.018c-0.046,0.822,0.518,1.064,1.233,1.126C61.014,119.677,61.308,119.348,61.454,118.36z
		 M92.347,108.247c-0.485-0.557-0.748-0.857-1.011-1.159c-0.396,0.393-0.888,0.734-1.14,1.205c-0.087,0.162,0.534,0.961,0.643,0.924
		C91.307,109.055,91.704,108.689,92.347,108.247z M71.992,55.823c0.34,0.287,0.646,0.754,1.025,0.826
		c0.905,0.172,0.978-0.518,0.996-1.208c0.017-0.6-0.098-0.987-0.827-0.993C72.379,54.442,72.119,54.819,71.992,55.823z
		 M114.327,70.766c0.17-0.002,0.339-0.004,0.509-0.006c0.208-0.356,0.518-0.69,0.602-1.073c0.139-0.633-0.22-0.927-0.874-0.917
		c-0.646,0.011-1.018,0.319-0.888,0.936C113.756,70.087,114.101,70.414,114.327,70.766z M104.75,61.603
		c-0.57-0.415-1.021-0.79-1.052-0.758c-0.428,0.44-0.833,0.916-1.142,1.441c-0.047,0.078,0.593,0.696,0.633,0.668
		C103.664,62.617,104.085,62.204,104.75,61.603z M106.649,52.368c0.412-0.571,0.778-0.847,0.791-1.138
		c0.045-1.027-0.837-0.739-1.383-0.779c-0.247-0.018-0.523,0.351-0.787,0.544C105.653,51.377,106.035,51.757,106.649,52.368z
		 M110.465,90.041c0.016-0.188,0.03-0.377,0.046-0.564c-0.38-0.241-0.748-0.64-1.143-0.668c-0.271-0.02-0.75,0.427-0.838,0.747
		c-0.184,0.667,0.218,1.074,0.914,0.968C109.801,90.469,110.126,90.208,110.465,90.041z M82.82,33.204
		c-0.582-0.529-1.02-1.074-1.14-1.011c-0.422,0.22-0.734,0.649-1.088,1c0.315,0.254,0.609,0.664,0.956,0.716
		C81.837,33.951,82.188,33.575,82.82,33.204z M74.491,62.052c-0.638-0.407-1.062-0.824-1.208-0.743
		c-0.412,0.229-0.711,0.664-1.055,1.018c0.314,0.245,0.643,0.701,0.938,0.68C73.519,62.982,73.842,62.548,74.491,62.052z
		 M80.706,117.806c-0.456,0.543-0.71,0.847-0.966,1.149c0.296,0.225,0.609,0.647,0.882,0.623c0.346-0.032,0.658-0.427,0.985-0.666
		C81.374,118.626,81.142,118.341,80.706,117.806z M77.022,120.484c0.456-0.553,0.877-0.843,0.889-1.148
		c0.009-0.229-0.53-0.69-0.789-0.666c-0.337,0.032-0.739,0.39-0.907,0.714C76.145,119.521,76.602,119.93,77.022,120.484z
		 M38.238,103.058c0.56,0.493,0.856,0.754,1.152,1.015c0.242-0.283,0.695-0.585,0.672-0.846c-0.029-0.336-0.385-0.743-0.708-0.909
		C39.208,102.241,38.802,102.669,38.238,103.058z M56.065,108.031c-0.552-0.477-0.824-0.711-1.096-0.946
		c-0.247,0.315-0.616,0.603-0.696,0.956c-0.05,0.221,0.385,0.794,0.516,0.768C55.142,108.739,55.448,108.434,56.065,108.031z
		 M56.927,112.191c-0.35,0.603-0.678,0.914-0.644,1.18c0.035,0.265,0.433,0.481,0.671,0.72c0.229-0.261,0.601-0.5,0.646-0.789
		C57.636,113.06,57.291,112.759,56.927,112.191z M45.957,98.572c-0.14-0.004-0.28-0.007-0.42-0.011
		c-0.176,0.321-0.465,0.636-0.484,0.966c-0.01,0.185,0.476,0.593,0.651,0.549c0.288-0.072,0.65-0.398,0.707-0.675
		C46.459,99.167,46.123,98.852,45.957,98.572z M35.729,89.513c-0.325,0.57-0.646,0.883-0.608,1.142
		c0.038,0.253,0.442,0.451,0.686,0.674c0.226-0.251,0.605-0.487,0.633-0.758C36.464,90.324,36.105,90.04,35.729,89.513z
		 M116.686,84.183c-0.604-0.32-0.907-0.612-1.183-0.588c-0.232,0.021-0.646,0.479-0.6,0.622c0.093,0.291,0.419,0.653,0.692,0.694
		C115.832,84.946,116.128,84.577,116.686,84.183z M115.107,74.619c0.369-0.575,0.715-0.876,0.678-1.118
		c-0.04-0.263-0.407-0.573-0.692-0.657c-0.137-0.04-0.571,0.383-0.585,0.614C114.49,73.732,114.78,74.025,115.107,74.619z
		 M87.952,117.026c-0.312,0.608-0.598,0.917-0.57,1.193c0.022,0.228,0.479,0.625,0.636,0.579c0.283-0.083,0.646-0.422,0.676-0.688
		C88.721,117.867,88.353,117.579,87.952,117.026z"/>
	<path fill-rule="evenodd" clip-rule="evenodd" fill="#FFFFFF" d="M72.86,42.735c0.178-0.367,0.267-0.833,0.547-1.087
		c2.402-2.179,4.818-4.347,7.295-6.441c0.318-0.27,1.008-0.102,1.525-0.136c-0.054,0.678,0.157,1.614-0.207,1.986
		c-1.405,1.434-2.962,2.727-4.528,3.99c-0.851,0.686-1.804,1.267-2.773,1.775c-0.473,0.248-1.089,0.224-1.64,0.322
		C73.006,43.008,72.933,42.872,72.86,42.735z"/>
	<path fill-rule="evenodd" clip-rule="evenodd" fill="#FFFFFF" d="M81.48,31.425c-1.619,0.154-3.01-1.021-2.888-2.508
		c0.063-0.781,0.433-1.533,0.608-2.311c0.059-0.261-0.022-0.569-0.096-0.84c-0.154-0.564-0.484-1.12-0.474-1.673
		c0.008-0.36,0.427-0.875,0.78-1.013c0.281-0.11,0.996,0.152,1.088,0.406c0.768,2.111,1.921,4.17,1.168,6.565
		C81.53,30.49,81.538,30.976,81.48,31.425z"/>
	<path fill-rule="evenodd" clip-rule="evenodd" fill="#FFFFFF" d="M42.697,75.792c-0.332,0.562-0.542,1.246-1.002,1.629
		c-0.867,0.723-1.845,1.335-2.848,1.854c-0.32,0.166-0.866-0.104-1.309-0.174c0.098-0.399,0.08-0.891,0.313-1.182
		c0.862-1.076,1.755-2.141,2.749-3.092c0.333-0.318,1.028-0.43,1.509-0.35C42.34,74.518,42.459,75.225,42.697,75.792z"/>
	<path fill-rule="evenodd" clip-rule="evenodd" fill="#FFFFFF" d="M99.318,107.114c-0.268,0.393-0.461,0.925-0.667,0.929
		c-0.466,0.011-1.132-0.093-1.369-0.41c-0.705-0.939-1.367-1.957-1.783-3.045c-0.176-0.457,0.136-1.458,0.534-1.694
		c0.604-0.36,1.568-0.565,1.965,0.532C98.436,104.634,98.864,105.845,99.318,107.114z"/>
	<path fill-rule="evenodd" clip-rule="evenodd" fill="#FFFFFF" d="M80.763,64.222c0.335,0.252,0.744,0.416,0.75,0.594
		c0.016,0.439-0.016,1.003-0.274,1.305c-0.81,0.946-1.709,1.822-2.623,2.67c-0.543,0.503-1.149,0.958-1.791,1.323
		c-0.232,0.132-0.804,0.048-0.943-0.142c-0.153-0.208-0.12-0.77,0.061-0.972c0.934-1.046,1.948-2.02,2.919-3.034
		c0.24-0.251,0.386-0.599,0.642-0.828C79.862,64.816,80.285,64.562,80.763,64.222z"/>
	<path fill-rule="evenodd" clip-rule="evenodd" fill="#FFFFFF" d="M83.112,45.168c0.03,1-0.302,1.339-1.254,1.603
		c-1.102,0.305-2.03,1.206-3.064,1.794c-0.384,0.218-1.117,0.514-1.236,0.378c-0.431-0.494-0.147-0.885,0.368-1.332
		c0.649-0.563,1.01-1.451,1.627-2.065c0.573-0.57,1.263-1.114,2.005-1.399C82.639,43.731,83.12,44.167,83.112,45.168z"/>
	<path fill-rule="evenodd" clip-rule="evenodd" fill="#FFFFFF" d="M112.59,97.083c-0.291,0.574-0.706,1.556-1.266,2.448
		c-0.373,0.596-0.979,0.826-1.615,0.229c-0.541-0.507-0.568-1.65-0.147-2.176c0.229-0.284,0.353-0.716,0.372-1.089
		c0.027-0.526-0.087-1.06-0.141-1.591c0.478,0.053,0.955,0.116,1.434,0.157C112.213,95.146,112.824,95.557,112.59,97.083z"/>
	<path fill-rule="evenodd" clip-rule="evenodd" fill="#FFFFFF" d="M112.703,68.106c0.01,1.12-0.497,1.891-1.725,2.129
		c-0.237,0.046-0.45,0.251-0.661,0.402c-0.339,0.243-0.663,0.507-1.002,0.751c-0.211,0.152-0.423,0.315-0.658,0.417
		c-0.331,0.144-0.68,0.277-1.033,0.319c-0.087,0.011-0.348-0.388-0.303-0.526c0.094-0.291,0.324-0.544,0.521-0.795
		c0.489-0.625,0.944-1.289,1.501-1.849c0.72-0.724,1.464-1.457,2.312-2.007C112.344,66.501,112.746,66.959,112.703,68.106z"/>
	<path fill-rule="evenodd" clip-rule="evenodd" fill="#FFFFFF" d="M103.507,110.709c-0.449,0.622-0.682,1.097-1.048,1.42
		c-0.709,0.625-1.458,1.221-2.264,1.707c-0.278,0.168-0.775-0.026-1.173-0.055c0.102-0.5,0.051-1.311,0.329-1.446
		c1.289-0.629,1.695-1.491,1.242-2.839c-0.066-0.199,0.103-0.679,0.232-0.706c0.406-0.088,1.003-0.195,1.24,0.02
		C102.605,109.299,102.974,109.977,103.507,110.709z"/>
	<path fill-rule="evenodd" clip-rule="evenodd" fill="#FFFFFF" d="M114.086,89.543c1.349-0.005,1.691,0.471,1.249,1.592
		c-0.213,0.541-0.55,1.06-0.636,1.618c-0.102,0.669-0.334,1.097-1.027,0.947c-0.651-0.14-1.39-0.303-1.847-0.722
		c-0.207-0.188,0.152-1.027,0.303-1.557c0.061-0.215,0.351-0.389,0.362-0.59C112.551,89.699,113.24,89.457,114.086,89.543z"/>
	<path fill-rule="evenodd" clip-rule="evenodd" fill="#FFFFFF" d="M107.793,67.225c0.197,1.284-0.401,1.465-1.103,1.467
		c-0.635,0.002-1.284,0.038-1.358-0.928c-0.033-0.433-0.33-0.9-0.63-1.245c-0.499-0.574-0.782-1.137-0.271-1.803
		c0.209-0.272,0.569-0.625,0.836-0.605c0.317,0.023,0.883,0.428,0.867,0.63c-0.084,1.054,0.718,1.391,1.317,1.929
		C107.691,66.884,107.802,67.24,107.793,67.225z"/>
	<path fill-rule="evenodd" clip-rule="evenodd" fill="#FFFFFF" d="M100.124,100.16c0.069-0.083,0.308-0.61,0.554-0.614
		c0.523-0.008,1.173,0.116,1.546,0.443c0.48,0.421,0.814,1.062,1.069,1.669c0.17,0.402,0.201,0.944,0.072,1.354
		c-0.054,0.173-0.694,0.27-1.044,0.22C101.489,103.115,100.11,101.343,100.124,100.16z"/>
	<path fill-rule="evenodd" clip-rule="evenodd" fill="#FFFFFF" d="M95.567,53.23c0.199-0.377,0.319-0.943,0.589-1.027
		c0.316-0.098,0.882,0.114,1.128,0.385c0.569,0.626,1.932,0.805,1.401,2.111c-0.174,0.429-0.552,1.049-0.88,1.077
		c-0.493,0.042-1.191-0.225-1.499-0.605C95.914,54.684,95.823,53.953,95.567,53.23z"/>
	<path fill-rule="evenodd" clip-rule="evenodd" fill="#FFFFFF" d="M109.45,57.007c-0.085-0.092-0.391-0.299-0.517-0.585
		c-0.324-0.737-0.613-1.497-0.817-2.274c-0.059-0.224,0.167-0.711,0.354-0.767c0.288-0.085,0.767-0.014,0.968,0.188
		c0.523,0.523,1.018,1.11,1.382,1.752C111.384,56.312,110.891,57.031,109.45,57.007z"/>
	<path fill-rule="evenodd" clip-rule="evenodd" fill="#FFFFFF" d="M71.032,25.287c0-0.159-0.054-0.346,0.01-0.473
		c0.246-0.494,0.478-1.017,0.839-1.417c0.087-0.097,0.862,0.155,0.951,0.388c0.191,0.501,0.153,1.094,0.182,1.651
		c0.005,0.092-0.157,0.181-0.195,0.289c-0.234,0.654-0.637,1.263-1.361,0.97c-0.334-0.135-0.425-0.87-0.626-1.333
		C70.898,25.337,70.965,25.312,71.032,25.287z"/>
	<path fill-rule="evenodd" clip-rule="evenodd" fill="#FFFFFF" d="M74.201,20.486c-0.371,0.688-0.709,1.418-1.155,2.076
		c-0.129,0.191-0.608,0.298-0.847,0.214c-0.191-0.067-0.416-0.529-0.354-0.734c0.249-0.837,0.563-1.663,0.949-2.446
		c0.078-0.158,0.651-0.243,0.854-0.123C73.884,19.611,73.962,20.015,74.201,20.486z"/>
	<path fill-rule="evenodd" clip-rule="evenodd" fill="#FFFFFF" d="M41.379,97.479c0.721-0.988,1.154-1.712,1.73-2.296
		c0.182-0.184,0.906-0.139,1.093,0.066c0.238,0.26,0.385,0.93,0.215,1.174c-0.433,0.622-1.019,1.173-1.646,1.603
		C42.59,98.149,42.061,97.763,41.379,97.479z"/>
	<path fill-rule="evenodd" clip-rule="evenodd" fill="#FFFFFF" d="M111.458,86.522c-1.418,0.004-2.274-0.559-2.165-1.397
		c0.024-0.188,0.075-0.496,0.179-0.526c0.316-0.092,0.812-0.229,0.974-0.073c0.547,0.527,1.752-0.219,1.887,1.017
		C112.41,86.259,112.139,86.6,111.458,86.522z"/>
	<path fill-rule="evenodd" clip-rule="evenodd" fill="#FFFFFF" d="M42.509,89.016c-0.019,1.318-0.826,2.009-1.913,1.898
		c-0.265-0.027-0.495-0.412-0.741-0.633c0.64-0.649,1.267-1.312,1.953-1.906C41.843,88.345,42.389,88.904,42.509,89.016z"/>
	<path fill-rule="evenodd" clip-rule="evenodd" fill="#FFFFFF" d="M104.14,106.453c0.171-0.112,0.497-0.493,0.86-0.532
		c0.843-0.092,1.466,0.38,1.29,1.247c-0.099,0.485-0.605,1.095-1.064,1.253C104.581,108.643,104.119,107.879,104.14,106.453z"/>
	<path fill-rule="evenodd" clip-rule="evenodd" fill="#FFFFFF" d="M109.681,74.631c-0.082-0.116-0.372-0.343-0.396-0.594
		c-0.071-0.784,1.109-1.807,1.955-1.658c0.26,0.046,0.628,0.455,0.645,0.717C111.93,73.834,110.796,74.67,109.681,74.631z"/>
	<path fill-rule="evenodd" clip-rule="evenodd" fill="#FFFFFF" d="M61.454,118.36c-0.146,0.987-0.439,1.316-1.181,1.253
		c-0.715-0.062-1.28-0.304-1.233-1.126c0.044-0.78,0.595-1.182,1.302-1.018C60.759,117.567,61.086,118.051,61.454,118.36z"/>
	<path fill-rule="evenodd" clip-rule="evenodd" fill="#FFFFFF" d="M92.347,108.247c-0.643,0.442-1.04,0.808-1.508,0.97
		c-0.108,0.037-0.729-0.762-0.643-0.924c0.252-0.471,0.743-0.812,1.14-1.205C91.599,107.39,91.861,107.69,92.347,108.247z"/>
	<path fill-rule="evenodd" clip-rule="evenodd" fill="#FFFFFF" d="M71.992,55.823c0.127-1.004,0.387-1.381,1.194-1.375
		c0.729,0.006,0.844,0.393,0.827,0.993c-0.019,0.69-0.091,1.38-0.996,1.208C72.638,56.577,72.332,56.11,71.992,55.823z"/>
	<path fill-rule="evenodd" clip-rule="evenodd" fill="#FFFFFF" d="M114.327,70.766c-0.227-0.352-0.571-0.678-0.651-1.06
		c-0.13-0.617,0.242-0.925,0.888-0.936c0.654-0.01,1.013,0.284,0.874,0.917c-0.084,0.383-0.394,0.717-0.602,1.073
		C114.666,70.761,114.497,70.763,114.327,70.766z"/>
	<path fill-rule="evenodd" clip-rule="evenodd" fill="#FFFFFF" d="M104.75,61.603c-0.665,0.601-1.086,1.014-1.561,1.352
		c-0.04,0.028-0.68-0.59-0.633-0.668c0.309-0.526,0.714-1.001,1.142-1.441C103.729,60.813,104.18,61.188,104.75,61.603z"/>
	<path fill-rule="evenodd" clip-rule="evenodd" fill="#FFFFFF" d="M106.649,52.368c-0.614-0.611-0.996-0.991-1.379-1.372
		c0.264-0.193,0.54-0.562,0.787-0.544c0.546,0.04,1.428-0.249,1.383,0.779C107.428,51.521,107.062,51.797,106.649,52.368z"/>
	<path fill-rule="evenodd" clip-rule="evenodd" fill="#FFFFFF" d="M110.465,90.041c-0.339,0.167-0.664,0.428-1.021,0.482
		c-0.696,0.106-1.098-0.301-0.914-0.968c0.088-0.32,0.566-0.767,0.838-0.747c0.395,0.028,0.763,0.427,1.143,0.668
		C110.495,89.664,110.48,89.853,110.465,90.041z"/>
	<path fill-rule="evenodd" clip-rule="evenodd" fill="#FFFFFF" d="M82.82,33.204c-0.633,0.372-0.983,0.748-1.271,0.704
		c-0.347-0.052-0.641-0.461-0.956-0.716c0.354-0.35,0.666-0.779,1.088-1C81.801,32.129,82.238,32.674,82.82,33.204z"/>
	<path fill-rule="evenodd" clip-rule="evenodd" fill="#FFFFFF" d="M74.491,62.052c-0.649,0.497-0.973,0.93-1.324,0.955
		c-0.296,0.021-0.624-0.435-0.938-0.68c0.344-0.354,0.643-0.788,1.055-1.018C73.43,61.228,73.854,61.645,74.491,62.052z"/>
	<path fill-rule="evenodd" clip-rule="evenodd" fill="#FFFFFF" d="M80.706,117.806c0.436,0.535,0.668,0.82,0.901,1.106
		c-0.327,0.239-0.64,0.634-0.985,0.666c-0.272,0.024-0.586-0.398-0.882-0.623C79.996,118.652,80.25,118.349,80.706,117.806z"/>
	<path fill-rule="evenodd" clip-rule="evenodd" fill="#FFFFFF" d="M77.022,120.484c-0.421-0.555-0.878-0.964-0.808-1.101
		c0.168-0.324,0.57-0.682,0.907-0.714c0.259-0.024,0.798,0.437,0.789,0.666C77.899,119.642,77.479,119.932,77.022,120.484z"/>
	<path fill-rule="evenodd" clip-rule="evenodd" fill="#FFFFFF" d="M38.238,103.058c0.563-0.389,0.97-0.816,1.117-0.74
		c0.323,0.166,0.679,0.573,0.708,0.909c0.022,0.261-0.431,0.562-0.672,0.846C39.095,103.812,38.798,103.551,38.238,103.058z"/>
	<path fill-rule="evenodd" clip-rule="evenodd" fill="#FFFFFF" d="M56.065,108.031c-0.617,0.402-0.924,0.708-1.276,0.777
		c-0.13,0.026-0.565-0.547-0.516-0.768c0.08-0.354,0.449-0.641,0.696-0.956C55.242,107.32,55.514,107.555,56.065,108.031z"/>
	<path fill-rule="evenodd" clip-rule="evenodd" fill="#FFFFFF" d="M56.927,112.191c0.364,0.567,0.709,0.868,0.673,1.11
		c-0.044,0.289-0.416,0.528-0.646,0.789c-0.239-0.238-0.637-0.455-0.671-0.72C56.249,113.105,56.577,112.794,56.927,112.191z"/>
	<path fill-rule="evenodd" clip-rule="evenodd" fill="#FFFFFF" d="M45.957,98.572c0.166,0.279,0.503,0.595,0.454,0.829
		c-0.057,0.276-0.419,0.603-0.707,0.675c-0.175,0.044-0.661-0.364-0.651-0.549c0.019-0.33,0.308-0.645,0.484-0.966
		C45.676,98.565,45.816,98.568,45.957,98.572z"/>
	<path fill-rule="evenodd" clip-rule="evenodd" fill="#FFFFFF" d="M35.729,89.513c0.376,0.527,0.735,0.812,0.71,1.058
		c-0.027,0.271-0.407,0.507-0.633,0.758c-0.244-0.223-0.648-0.421-0.686-0.674C35.083,90.396,35.404,90.083,35.729,89.513z"/>
	<path fill-rule="evenodd" clip-rule="evenodd" fill="#FFFFFF" d="M116.686,84.183c-0.558,0.395-0.854,0.764-1.09,0.729
		c-0.273-0.041-0.6-0.403-0.692-0.694c-0.046-0.144,0.367-0.602,0.6-0.622C115.778,83.57,116.082,83.862,116.686,84.183z"/>
	<path fill-rule="evenodd" clip-rule="evenodd" fill="#FFFFFF" d="M115.107,74.619c-0.327-0.594-0.617-0.887-0.6-1.161
		c0.014-0.231,0.448-0.654,0.585-0.614c0.285,0.084,0.652,0.395,0.692,0.657C115.822,73.743,115.477,74.044,115.107,74.619z"/>
	<path fill-rule="evenodd" clip-rule="evenodd" fill="#FFFFFF" d="M87.952,117.026c0.4,0.553,0.769,0.841,0.741,1.084
		c-0.03,0.267-0.393,0.605-0.676,0.688c-0.156,0.046-0.613-0.352-0.636-0.579C87.354,117.943,87.641,117.635,87.952,117.026z"/>
</g>
</svg>
