<?xml version="1.0" encoding="utf-8"?>
<!-- Generator: Adobe Illustrator 16.0.0, SVG Export Plug-In . SVG Version: 6.00 Build 0)  -->
<!DOCTYPE svg PUBLIC "-//W3C//DTD SVG 1.1//EN" "http://www.w3.org/Graphics/SVG/1.1/DTD/svg11.dtd">
<svg version="1.1" id="Layer_1" xmlns="http://www.w3.org/2000/svg" xmlns:xlink="http://www.w3.org/1999/xlink" x="0px" y="0px"
	 width="144px" height="144px" viewBox="0 0 144 144" enable-background="new 0 0 144 144" xml:space="preserve">
<g>
	<path fill="#FFFFFF" d="M72.2,88.829c0.959,0.934,1.666,1.623,2.373,2.312c0.114-0.109,0.229-0.219,0.345-0.328
		c-0.467-0.549-0.935-1.098-1.401-1.646c0.045-0.07,0.09-0.141,0.135-0.211c0.818,0.261,1.636,0.521,2.161,0.688
		c2.387-0.092,4.394-1.668,6.859-0.503c-0.128-0.411-0.231-0.746-0.334-1.075c3.82-1.511,7.41-3.258,10.518-6.105
		c0-0.22-0.156-0.787,0.029-1.199c0.614-1.365,1.384-2.66,2.033-4.012c0.41-0.854,0.833-1.733,1.04-2.648
		c0.698-3.082,0.727-6.158-0.436-9.16c-0.831-2.146-1.566-4.341-2.569-6.405c-0.559-1.15-1.435-2.247-2.416-3.07
		c-1.94-1.626-4.007-3.116-6.115-4.521c-0.964-0.642-2.135-0.995-3.242-1.395c-0.592-0.214-1.27-0.183-1.871-0.377
		c-2.227-0.718-4.454-0.762-6.729-0.246c-0.567,0.128-1.197-0.015-1.918-0.037c-0.325,1.079-0.602,1.276-2.024,1.19
		c-0.851,1.42-1.209,1.578-2.312,1.058c-0.226,0.516-0.453,1.037-0.681,1.558c-0.122-0.022-0.245-0.045-0.367-0.068
		c-0.125-0.607-0.125-1.284-0.41-1.803c-0.267-0.487-0.835-0.809-1.303-1.231c0.453-0.677,0.937-0.566,1.502-0.146
		c0.133,0.099,0.412,0.002,0.624-0.005c-0.06-0.203-0.056-0.508-0.191-0.593c-1.856-1.174-2.389-2.999-2.499-5.025
		c-0.036-0.661-0.331-0.91-0.916-0.645c-0.957,0.435-1.883,0.937-2.922,1.46c1.066,1.447,2.013,2.712,2.938,3.992
		c0.659,0.91,1.305,1.83,1.93,2.763c0.558,0.833,0.131,2.824-0.638,2.802c-1.119-0.031-1.187,0.512-1.208,1.362
		c-0.007,0.318-0.373,0.627-0.556,0.912c-0.428-0.182-0.729-0.31-0.808-0.343c-0.398,1.151-0.71,2.217-1.134,3.236
		c-0.687,1.652-1.423,3.286-2.189,4.903c-0.235,0.496-0.636,0.913-1.033,1.468c0.566,1.163-0.136,2.275-0.801,3.395
		c1.242,2.368,1.054,2.829-0.219,5.364c-0.314,0.625-0.113,0.817,0.473,0.812c0.251-0.003,0.501-0.125,0.78-0.199
		c0.517,1.348,1.002,2.612,1.573,4.102c1.767,0.216,1.049,2.316,1.861,3.562c0.196-0.385,0.337-0.663,0.479-0.941
		c0.676,0.842,1.296,1.613,1.958,2.438c-0.055,0.24-0.133,0.583-0.145,0.631c0.73,0.204,1.401,0.22,1.844,0.545
		c2.51,1.838,5.891,2.143,8.17,4.743C72.359,89.744,72.312,89.469,72.2,88.829z M102.89,74.749
		c-1.042,0.049-1.041,1.171-1.399,1.966c-0.184,0.405-0.3,1.133-0.077,1.372c0.546,0.586,1.264,1.061,1.993,1.412
		c0.519,0.25,1.23,0.1,1.75,0.349c3.087,1.479,6.123,3.072,9.558,3.637c0.298,0.05,0.599,0.183,0.858,0.343
		c0.236,0.146,0.418,0.38,0.623,0.575c0.186-0.282,0.414-0.546,0.548-0.852c0.585-1.324,1.161-2.653,1.692-4
		c0.098-0.248,0.057-0.635-0.079-0.863c-0.104-0.173-0.452-0.236-0.704-0.275c-0.633-0.098-1.289-0.09-1.909-0.237
		c-3.643-0.868-7.281-1.757-10.914-2.668C104.237,75.358,103.683,75.063,102.89,74.749z M76.149,92.655
		c-0.146-0.028-0.291-0.056-0.437-0.084c-0.156,0.547-0.421,1.087-0.452,1.642c-0.139,2.445,0.52,4.914-0.257,7.353
		c-0.113,0.356,0.021,0.933,0.259,1.235c0.99,1.265,1.083,2.788,1.314,4.257c0.277,1.767,0.374,3.562,0.642,5.33
		c0.25,1.648,0.636,3.275,0.937,4.917c0.416,2.269,0.779,4.547,1.239,6.807c0.075,0.367,0.674,0.977,0.786,0.926
		c0.478-0.212,0.88-0.613,1.274-0.982c0.212-0.199,0.445-0.706,0.513-0.68c0.789,0.314,0.842-0.503,1.159-0.788
		c0.542-0.485,0.151-0.999-0.411-0.924c-1.173,0.156-1.232-0.631-1.353-1.369c-0.146-0.903-0.113-1.846-0.336-2.725
		c-0.767-3.015-1.723-5.983-2.399-9.016c-0.94-4.214-1.42-8.484-0.806-12.813c0.06-0.416-0.109-0.865-0.175-1.316
		c-0.566,0.134-0.944,0.224-1.498,0.354C76.149,94,76.149,93.328,76.149,92.655z M34.544,92.418
		c0.869,1.136,1.337,0.448,1.799-0.375c0.229-0.409,0.433-0.921,0.797-1.15c1.804-1.133,3.65-2.199,5.494-3.268
		c3.15-1.826,6.309-3.637,9.465-5.452c0.343-0.197,0.745-0.329,1.021-0.595c0.177-0.17,0.172-0.528,0.249-0.803
		c-0.241-0.036-0.49-0.13-0.722-0.098c-0.385,0.054-0.759,0.188-0.991,0.249c-0.132-0.626-0.224-1.064-0.316-1.503
		c-0.856,0.232-1.727,0.422-2.551,0.736c-0.14,0.054-0.076,0.641-0.108,0.997c0.798-0.516,1.392-0.899,1.986-1.284
		c0.103,0.178,0.207,0.356,0.31,0.534c-7.104,4.543-14.958,7.639-22.218,11.097c0,1.896,0,3.56,0,5.239
		C30.682,95.306,32.578,93.888,34.544,92.418z M38.182,44.109c-0.058,0.104-0.115,0.209-0.172,0.313
		c0.087,0.166,0.144,0.449,0.265,0.479c2.08,0.516,1.604,2.161,1.592,3.586c-0.003,0.435-0.208,0.888-0.133,1.298
		c0.059,0.318,0.366,0.637,0.641,0.858c0.617,0.496,1.347,0.863,1.915,1.405c1.056,1.007,1.916,2.25,3.064,3.122
		c1.343,1.02,2.914,1.739,4.371,2.614c0.281,0.169,0.461,0.607,0.738,0.66c0.828,0.158,1.017,1.614,2.197,1.024
		c0.505-0.252,1.081-0.364,1.666-0.554c0.146-0.424,0.311-0.903,0.59-1.712c-1.373,0.853-2.515,0.999-3.955,0.035
		c0.562,0,0.783,0.026,0.996-0.006c0.366-0.055,0.726-0.146,1.088-0.223c-0.125-0.432-0.113-1.02-0.398-1.271
		c-2.445-2.161-4.929-4.28-7.433-6.374c-1.952-1.631-3.941-3.219-5.937-4.796C38.979,44.33,38.55,44.257,38.182,44.109z
		 M106.625,33.858c-0.061-0.074-0.121-0.148-0.182-0.222c-0.245,0.13-0.528,0.217-0.728,0.397c-1.036,0.937-2.162,1.804-3.054,2.867
		c-3.304,3.938-6.543,7.93-9.757,11.942c-0.303,0.378-0.252,1.039-0.365,1.568c0.067,0.11,0.135,0.22,0.202,0.33
		c0.966-1.723,1.679-0.17,2.55-0.084c0.088-0.116,0.171-0.249,0.275-0.362c1.884-2.042,3.753-4.1,5.667-6.113
		c0.57-0.599,1.355-1.002,1.894-1.623c0.724-0.835,1.302-1.797,1.946-2.702c0.936-1.312,1.874-2.624,2.881-4.033
		c-0.691-0.344-1.341-0.667-2.001-0.994C106.215,34.452,106.42,34.155,106.625,33.858z M72.824,15.453
		c0,0.789,0.239,1.771-0.062,2.541c-0.346,0.882-0.973,1.534,0.232,2.206c0.16,0.089,0.109,0.603,0.112,0.919
		c0.01,0.875-0.06,1.752,0.002,2.622c0.148,2.121,0.364,4.237,0.529,6.356c0.05,0.644,0.008,1.294,0.028,1.94
		c0.065,2.068,0.223,4.138,0.18,6.204c-0.027,1.33-1.375,2.703,0.223,3.954c0.086,0.067,0.037,0.306,0.05,0.465
		c0.11,1.352,0.112,1.35,1.237,1.835c0.104,0.044,0.179,0.219,0.27,0.221c0.337,0.01,0.674-0.028,0.832-0.038
		c-0.042-0.618-0.176-1.054-0.07-1.423c0.13-0.457,0.457-0.857,0.742-1.359c-0.494-0.147-0.814-0.243-1.328-0.396
		c0.09-3.018,0.182-6.013,0.259-9.008c0.005-0.18-0.137-0.359-0.165-0.545c-0.136-0.886-0.341-1.772-0.363-2.663
		c-0.033-1.398,0.228-2.822,0.047-4.193c-0.149-1.132-0.369-2.136,0.66-2.924c-0.916-0.784-1-0.964-0.735-2.084
		c0.173-0.734,0.449-1.442,0.658-2.168c0.395-1.376-0.088-1.941-1.511-1.951C74.147,15.96,73.646,15.693,72.824,15.453z
		 M53.008,111.093c0.542-0.128,0.993-0.233,1.444-0.34c-0.245-0.382-0.49-0.764-0.811-1.263c0.661-1.521,1.287-3.251,2.141-4.86
		c1.659-3.128,3.412-6.207,5.195-9.268c0.86-1.476,1.905-2.844,2.803-4.301c0.227-0.369,0.208-0.89,0.303-1.341
		c-0.147-0.044-0.295-0.088-0.442-0.132c-0.496,0.839-0.969,1.692-1.5,2.509c-0.197,0.302-0.531,0.515-0.802,0.768
		c-0.168-0.365-0.331-0.733-0.508-1.094c-0.078-0.157-0.188-0.298-0.209-0.33c-0.647,0.759-1.325,1.422-1.848,2.189
		c-1.566,2.304-3.019,4.686-4.625,6.96c-0.782,1.105-1.003,2.737-2.231,2.974c-1.082,2.383-2.042,4.5-3.168,6.981
		c3.648-1.219,2.298,1.354,2.513,2.714c0.104,0.004,0.208,0.007,0.312,0.01C52.081,112.498,52.59,111.727,53.008,111.093z
		 M53.784,67.091c-0.467-0.04-0.686-0.073-0.905-0.076c-2.048-0.021-3.892,1.3-6.124,0.612c-1.154-0.355-2.608,0.275-3.928,0.447
		c-1.603,0.208-3.205,0.442-4.813,0.593c-3.001,0.281-6.074-0.646-9.028,0.59c-0.78,0.326-1.653,0.43-2.483,0.635
		c0.03,0.18,0.061,0.36,0.091,0.541c0.953-0.082,1.905-0.165,2.96-0.255c-0.075,0.28-0.142,0.421-0.146,0.564
		c-0.067,1.939,0.031,2.25,1.762,1.894c2.563-0.527,5.107-1.148,7.671-1.672c2.222-0.455,4.444-1.005,6.693-1.189
		c1.878-0.153,3.793,0.182,5.694,0.263c0.667,0.028,1.342-0.029,2.006-0.111c0.181-0.022,0.479-0.29,0.468-0.424
		c-0.019-0.236-0.184-0.545-0.382-0.661c-0.213-0.124-0.535-0.06-0.953-0.086c0.307-0.371,0.505-0.614,0.708-0.853
		C53.26,67.684,53.452,67.47,53.784,67.091z M111.569,105.959c0.226,0.305,0.388,0.727,0.675,0.845
		c0.191,0.079,0.57-0.261,0.848-0.439c0.396-0.255,0.758-0.562,1.163-0.796c1.248-0.718,1.409-1.729,0.4-2.572
		c-0.87-0.727-1.784-1.412-2.578-2.214c-2.245-2.266-4.468-4.556-6.642-6.889c-1.203-1.291-2.293-2.688-3.238-3.808
		c-1.367,0.861-2.622,1.637-3.855,2.444c-0.192,0.126-0.288,0.401-0.428,0.607c0.23,0.067,0.463,0.135,0.693,0.204
		c0.599,0.182,1.339,0.198,1.772,0.571c3.079,2.653,6.097,5.377,9.13,8.082c1.153,1.028,2.297,2.067,3.539,3.186
		C112.625,105.403,112.164,105.646,111.569,105.959z M102.732,63.489c0.225,0.813,0.377,1.362,0.528,1.912
		c0.068,0.246,0.065,0.624,0.219,0.702c0.17,0.087,0.495-0.064,0.728-0.168c0.936-0.419,1.822-1.03,2.801-1.261
		c2.355-0.557,4.755-0.926,7.132-1.397c1.596-0.316,3.189-0.649,4.766-1.046c0.221-0.056,0.539-0.592,0.472-0.788
		c-0.734-2.124-1.213-2.39-3.43-2.042c-0.274,0.043-0.544,0.121-0.811,0.198c-3.744,1.093-7.49,2.179-11.228,3.296
		C103.435,63.039,103.009,63.347,102.732,63.489z M90.854,100.811c0.981-0.392,1.918-0.765,2.9-1.157
		c-1.196-3.049-3.564-5.086-5.767-7.245c-0.112-0.11-0.504-0.029-0.712,0.073c-0.335,0.163-0.626,0.418-0.783,0.528
		c0,0.871-0.013,1.706,0.011,2.54c0.005,0.174,0.104,0.388,0.229,0.508c0.566,0.539,1.26,0.977,1.711,1.595
		c0.402,0.553,0.537,1.297,0.813,1.947c0.071,0.167,0.204,0.335,0.354,0.437C90.057,100.338,90.524,100.607,90.854,100.811z"/>
	<path fill-rule="evenodd" clip-rule="evenodd" d="M72.2,88.829c0.111,0.64,0.159,0.915,0.236,1.356
		c-2.279-2.601-5.66-2.905-8.17-4.743c-0.443-0.325-1.114-0.341-1.844-0.545c0.011-0.048,0.09-0.391,0.145-0.631
		c-0.662-0.825-1.282-1.597-1.958-2.438c-0.142,0.278-0.283,0.557-0.479,0.941c-0.812-1.245-0.094-3.346-1.861-3.562
		c-0.571-1.489-1.056-2.754-1.573-4.102c-0.279,0.074-0.529,0.196-0.78,0.199c-0.586,0.006-0.787-0.187-0.473-0.812
		c1.273-2.535,1.461-2.997,0.218-5.364c0.666-1.12,1.368-2.232,0.802-3.395c0.397-0.555,0.798-0.972,1.033-1.468
		c0.766-1.617,1.503-3.25,2.189-4.903c0.424-1.02,0.736-2.085,1.134-3.236c0.079,0.034,0.38,0.161,0.808,0.343
		c0.184-0.285,0.549-0.594,0.556-0.912c0.021-0.85,0.089-1.394,1.208-1.362c0.77,0.022,1.196-1.969,0.638-2.802
		c-0.625-0.933-1.271-1.853-1.93-2.763c-0.926-1.28-1.872-2.545-2.938-3.992c1.04-0.524,1.965-1.026,2.922-1.46
		c0.585-0.265,0.88-0.016,0.916,0.645c0.11,2.026,0.642,3.851,2.499,5.025c0.135,0.085,0.131,0.39,0.191,0.593
		c-0.212,0.007-0.491,0.104-0.624,0.005c-0.565-0.42-1.049-0.531-1.502,0.146c0.468,0.423,1.037,0.745,1.303,1.231
		c0.285,0.52,0.285,1.196,0.41,1.803c0.122,0.022,0.245,0.045,0.367,0.068c0.228-0.521,0.456-1.042,0.681-1.558
		c1.103,0.521,1.461,0.362,2.312-1.058c1.422,0.085,1.699-0.112,2.024-1.19c0.722,0.022,1.351,0.165,1.918,0.037
		c2.275-0.516,4.503-0.472,6.729,0.246c0.602,0.194,1.279,0.163,1.871,0.377c1.107,0.4,2.278,0.752,3.242,1.395
		c2.108,1.406,4.175,2.895,6.115,4.521c0.981,0.824,1.857,1.92,2.416,3.07c1.003,2.064,1.738,4.258,2.569,6.405
		c1.162,3.001,1.134,6.078,0.436,9.16c-0.207,0.915-0.63,1.794-1.04,2.648c-0.649,1.352-1.419,2.646-2.033,4.012
		c-0.186,0.412-0.029,0.979-0.029,1.199c-3.107,2.848-6.697,4.595-10.518,6.105c0.103,0.329,0.206,0.664,0.334,1.075
		c-2.466-1.165-4.473,0.411-6.859,0.503c-0.525-0.167-1.343-0.428-2.161-0.688c-0.045,0.07-0.09,0.141-0.135,0.211
		c0.467,0.549,0.935,1.098,1.401,1.646c-0.115,0.109-0.23,0.219-0.345,0.328C73.866,90.452,73.159,89.763,72.2,88.829z
		 M76.879,76.098c0.008-0.206,0.017-0.413,0.024-0.619c-0.656-0.226-1.306-0.482-1.978-0.645c-0.109-0.026-0.5,0.459-0.455,0.543
		c0.268,0.495,0.541,1.173,0.979,1.331C75.805,76.837,76.394,76.325,76.879,76.098z M82.815,51.354
		c-0.09,0.133-0.18,0.265-0.27,0.397c1.557,1.067,3.113,2.135,4.67,3.203c0.083-0.123,0.166-0.245,0.249-0.368
		C86.295,52.945,84.362,52.437,82.815,51.354z M70.535,78.028c-0.003,0.185-0.007,0.368-0.011,0.552
		c0.696,0.325,1.392,0.65,2.088,0.977c0.126-0.138,0.253-0.274,0.379-0.411c-0.332-0.618-0.593-1.303-1.054-1.803
		C71.836,77.233,71.021,77.782,70.535,78.028z M88.823,79.064c0.041-0.247,0.081-0.495,0.122-0.742
		c-0.568-0.191-1.151-0.553-1.699-0.508c-0.322,0.026-0.592,0.701-0.885,1.084c0.087,0.146,0.173,0.29,0.26,0.435
		C87.355,79.244,88.09,79.154,88.823,79.064z M83.883,80.02c-0.451,0.587-0.727,0.944-1.001,1.302
		c0.468,0.348,0.914,0.734,1.419,1.016c0.13,0.073,0.445-0.187,0.677-0.293C84.662,81.461,84.348,80.878,83.883,80.02z
		 M67.826,74.964c0.242,0,0.485,0,0.728,0c0.113-0.509,0.227-1.018,0.34-1.525c-0.542-0.101-1.083-0.201-1.624-0.302
		C67.456,73.746,67.641,74.354,67.826,74.964z M77.842,72.62c-0.14-0.002-0.28-0.004-0.42-0.006
		c-0.191,0.337-0.585,0.717-0.526,1.003c0.097,0.468,0.487,0.874,0.755,1.307c0.237-0.253,0.686-0.521,0.67-0.756
		C78.284,73.644,78.016,73.135,77.842,72.62z M83.233,83.341c-1.031-1.065-1.749-1.229-2.669-0.658
		C81.277,83.982,82.278,84.254,83.233,83.341z M63.047,71.379c0.173-0.147,0.347-0.295,0.52-0.442c-0.4-0.665-0.8-1.329-1.402-2.328
		c-0.306,0.661-0.686,1.163-0.58,1.309C61.987,70.467,62.547,70.901,63.047,71.379z M86.89,80.483
		c-1.037-1.249-1.484-1.256-2.166-0.127c0.373,0.312,0.756,0.633,1.283,1.075C86.328,81.087,86.589,80.807,86.89,80.483z
		 M66.062,66.136c0.337,0.387,0.624,0.717,0.912,1.046c0.274,0.313,0.549,0.626,0.824,0.939
		C67.347,65.257,67.347,65.257,66.062,66.136z M90.019,75.545c-0.636,0.377-1.384,0.609-0.934,1.487
		c0.136,0.263,0.84,0.543,1.019,0.422C90.968,76.872,90.345,76.255,90.019,75.545z M76.889,67.313
		c0.211,0.077,0.422,0.154,0.632,0.231c0.25-0.441,0.5-0.881,0.75-1.322c-0.406-0.18-0.812-0.361-1.218-0.542
		C76.998,66.226,76.943,66.77,76.889,67.313z M74.034,67.799c-0.434,0.454-0.777,0.814-1.122,1.174
		c0.037,0.122,0.073,0.243,0.11,0.365c0.704,0.072,1.407,0.145,2.111,0.217c0.035-0.106,0.069-0.213,0.104-0.32
		C74.872,68.798,74.506,68.361,74.034,67.799z M60.915,73.486c0.15-0.125,0.3-0.249,0.45-0.373
		c-0.315-0.584-0.588-1.199-0.971-1.736c-0.129-0.181-0.535-0.194-0.819-0.209c-0.06-0.003-0.248,0.402-0.19,0.476
		C59.871,72.276,60.399,72.876,60.915,73.486z M79.779,75.756c-0.138,0.125-0.275,0.25-0.413,0.375
		c0.207,0.612,0.415,1.225,0.749,2.212c0.415-0.674,0.929-1.181,0.825-1.41C80.729,76.462,80.186,76.14,79.779,75.756z
		 M79.819,63.844c-0.187-0.072-0.373-0.144-0.56-0.216c-0.289,0.494-0.578,0.987-0.867,1.481c0.375,0.144,0.751,0.289,1.127,0.433
		C79.619,64.976,79.72,64.41,79.819,63.844z M77.314,80.307c0.051-0.224,0.101-0.447,0.151-0.671c-0.59-0.23-1.18-0.462-1.77-0.692
		c0.018,0.417-0.094,1.12,0.077,1.197C76.222,80.342,76.792,80.27,77.314,80.307z M68.707,58.587
		c0.246,0.003,0.491,0.006,0.737,0.01c0.116-0.518,0.232-1.036,0.348-1.553c-0.449,0.033-0.898,0.066-1.347,0.1
		C68.532,57.625,68.62,58.106,68.707,58.587z M86.537,67.449c0.426-0.675,0.752-1.191,1.078-1.708
		c-0.293-0.089-0.665-0.337-0.862-0.237C86.105,65.83,85.525,66.284,86.537,67.449z M70.733,73.106
		c0.102-0.225,0.203-0.45,0.305-0.676c-0.545-0.339-1.089-0.677-1.634-1.016c-0.057,0.358-0.277,0.932-0.142,1.035
		C69.679,72.766,70.233,72.901,70.733,73.106z M70.011,63.999c-0.119,0.132-0.237,0.264-0.355,0.396
		c0.299,0.465,0.598,0.931,0.896,1.396c0.356-0.245,0.712-0.49,1.358-0.935C71.056,64.471,70.534,64.235,70.011,63.999z
		 M73.668,78.859c0.372-0.666,0.592-1.061,0.812-1.456c-0.52-0.224-1.04-0.447-1.56-0.671c-0.073,0.104-0.146,0.207-0.22,0.311
		C72.966,77.541,73.231,78.039,73.668,78.859z M71.555,72.83c0.666,0.285,1.081,0.464,1.496,0.642
		c0.116-0.583,0.232-1.167,0.348-1.75c-0.115-0.042-0.23-0.085-0.346-0.127C72.668,71.913,72.282,72.23,71.555,72.83z
		 M81.531,73.891c-0.295,0.662-0.685,1.309-0.599,1.38c0.447,0.369,1.016,0.592,1.542,0.866c0.102-0.131,0.202-0.263,0.304-0.394
		C82.431,75.227,82.083,74.711,81.531,73.891z M79.406,70.154c0.212,0.082,0.423,0.163,0.635,0.245
		c0.248-0.472,0.497-0.945,0.746-1.417c-0.334-0.129-0.668-0.259-1.001-0.389C79.659,69.113,79.533,69.633,79.406,70.154z
		 M91.079,66.26c-0.348,0.427-0.72,0.716-0.67,0.853c0.144,0.393,0.456,0.724,0.702,1.08c0.216-0.182,0.637-0.408,0.609-0.537
		C91.631,67.242,91.376,66.865,91.079,66.26z M83.811,71.541c1.232-0.699,1.273-0.813,0.634-1.864
		C83.891,70.203,82.876,70.5,83.811,71.541z M92.839,78.256c-0.611,0.502-1.223,1.004-1.841,1.512
		C91.709,80.515,91.709,80.515,92.839,78.256z M67.855,65.778c0.254,0.918,0.399,1.443,0.605,2.187
		c0.486-0.543,0.789-0.883,1.257-1.406C69.143,66.317,68.647,66.11,67.855,65.778z M87.5,71.902
		c0.478-0.414,0.815-0.708,1.345-1.167c-0.628-0.345-1.083-0.596-1.538-0.846c-0.085,0.08-0.17,0.159-0.255,0.238
		C87.187,70.663,87.322,71.198,87.5,71.902z M74.025,80.262c-0.184,0.18-0.366,0.36-0.549,0.541c0.345,0.35,0.663,0.736,1.058,1.018
		c0.081,0.058,0.442-0.276,0.675-0.43C74.814,81.014,74.42,80.638,74.025,80.262z M70.641,80.812c-0.4-1.646-0.673-1.768-2.19-1.066
		C69.212,80.116,69.778,80.392,70.641,80.812z M81.961,65.722c0.183,0.063,0.365,0.125,0.548,0.188
		c0.271-0.262,0.543-0.525,0.861-0.833c-0.406-0.439-0.665-0.718-0.925-0.998c-0.136,0.015-0.273,0.03-0.41,0.045
		C82.011,64.657,81.985,65.19,81.961,65.722z M90.424,80.375c-0.337,0.675-0.622,1.244-0.906,1.814
		c0.083,0.054,0.166,0.108,0.249,0.163c0.473-0.386,0.945-0.771,1.495-1.22C90.944,80.846,90.729,80.651,90.424,80.375z
		 M78.786,83.592c-0.035,0.166-0.07,0.332-0.105,0.497c0.793,0.187,1.586,0.373,2.379,0.56c0.038-0.182,0.076-0.363,0.114-0.545
		C80.377,83.933,79.581,83.762,78.786,83.592z M75.56,87.058c-0.055,0.185-0.11,0.37-0.166,0.556c0.774,0.233,1.55,0.467,2.324,0.7
		c0.056-0.188,0.111-0.375,0.167-0.562C77.11,87.521,76.335,87.288,75.56,87.058z M73.993,70.616
		c0.022,0.228,0.045,0.454,0.067,0.681c0.53,0,1.062,0,1.593,0c-0.051-0.282-0.096-0.808-0.151-0.809
		C75,70.479,74.496,70.561,73.993,70.616z M79.508,79.019c-0.731,0.442-1.141,0.88-0.56,1.826
		C79.434,80.244,80.509,80.079,79.508,79.019z M69.002,77.045c-0.363,0.428-0.603,0.71-1.082,1.275c0.854,0,1.376,0,2.24,0
		C69.636,77.744,69.381,77.463,69.002,77.045z M74.75,64.456c1.197-0.708,1.203-0.727,0.425-1.645
		c-0.273,0.208-0.549,0.418-0.856,0.653C74.476,63.826,74.611,64.137,74.75,64.456z M73.522,63.931
		c0.123-0.621,0.348-1.163,0.229-1.253c-0.384-0.292-0.894-0.417-1.354-0.606c-0.064,0.103-0.128,0.205-0.192,0.308
		C72.571,62.812,72.938,63.243,73.522,63.931z M77.111,70.207c0.082-0.098,0.164-0.196,0.246-0.294
		c-0.141-0.421-0.281-0.842-0.476-1.422c-0.411,0.367-0.686,0.612-1.126,1.005C76.314,69.788,76.713,69.998,77.111,70.207z
		 M83.715,79.794c-0.604-0.413-1.004-0.688-1.404-0.962c-0.087,0.094-0.174,0.187-0.262,0.279c0.146,0.456,0.293,0.911,0.472,1.47
		C82.907,80.326,83.186,80.144,83.715,79.794z M93.933,77.037c-0.033-0.129-0.066-0.258-0.1-0.388
		c-0.37-0.094-0.742-0.188-1.109-0.28c-0.261,0.478-0.488,0.896-0.789,1.449C92.726,77.509,93.329,77.273,93.933,77.037z
		 M85.02,62.554c0.215,0.094,0.429,0.188,0.644,0.281c0.234-0.428,0.469-0.855,0.703-1.283c-0.268-0.07-0.713-0.269-0.771-0.188
		C85.342,61.716,85.201,62.15,85.02,62.554z M77.229,58.43c-0.108,0.042-0.216,0.083-0.324,0.125
		c0.149,0.551,0.299,1.101,0.472,1.734c0.462-0.259,0.752-0.422,0.964-0.542C77.828,59.141,77.528,58.785,77.229,58.43z
		 M87.986,55.386c-0.121,0.131-0.241,0.262-0.362,0.392c0.585,0.552,1.169,1.103,1.754,1.655c0.1-0.113,0.199-0.225,0.299-0.337
		C89.113,56.525,88.55,55.956,87.986,55.386z"/>
	<path fill-rule="evenodd" clip-rule="evenodd" d="M102.89,74.749c0.793,0.314,1.348,0.609,1.939,0.758
		c3.633,0.911,7.271,1.8,10.914,2.668c0.62,0.147,1.276,0.14,1.909,0.237c0.252,0.039,0.601,0.103,0.704,0.275
		c0.136,0.229,0.177,0.615,0.079,0.863c-0.531,1.347-1.107,2.676-1.692,4c-0.134,0.306-0.362,0.569-0.548,0.852
		c-0.205-0.195-0.387-0.43-0.623-0.575c-0.26-0.16-0.561-0.293-0.858-0.343c-3.435-0.564-6.471-2.157-9.558-3.637
		c-0.52-0.249-1.231-0.099-1.75-0.349c-0.729-0.352-1.447-0.826-1.993-1.412c-0.223-0.239-0.106-0.967,0.077-1.372
		C101.849,75.92,101.848,74.798,102.89,74.749z M113.828,82.459c0.086-0.548,0.146-0.925,0.237-1.502
		c-0.87,0.183-1.634,0.344-2.397,0.504c0.014,0.151,0.026,0.303,0.039,0.454C112.367,82.084,113.026,82.253,113.828,82.459z
		 M108.832,80.812c1.566,0.852,1.566,0.852,1.972,0.083c-0.389-0.219-0.773-0.436-1.21-0.682c-0.151,0.085-0.366,0.188-0.559,0.321
		C108.946,80.595,108.899,80.716,108.832,80.812z"/>
	<path fill-rule="evenodd" clip-rule="evenodd" d="M76.149,92.655c0,0.673,0,1.345,0,2.122c0.554-0.13,0.932-0.22,1.498-0.354
		c0.065,0.451,0.234,0.9,0.175,1.316c-0.614,4.329-0.135,8.6,0.806,12.813c0.677,3.032,1.633,6.001,2.399,9.016
		c0.223,0.879,0.189,1.821,0.336,2.725c0.12,0.738,0.18,1.525,1.353,1.369c0.562-0.075,0.953,0.438,0.411,0.924
		c-0.317,0.285-0.37,1.103-1.159,0.788c-0.067-0.026-0.301,0.48-0.513,0.68c-0.395,0.369-0.797,0.771-1.274,0.982
		c-0.112,0.051-0.711-0.559-0.786-0.926c-0.46-2.26-0.823-4.538-1.239-6.807c-0.301-1.642-0.687-3.269-0.937-4.917
		c-0.268-1.769-0.364-3.563-0.642-5.33c-0.231-1.469-0.324-2.992-1.314-4.257c-0.237-0.303-0.372-0.879-0.259-1.235
		c0.776-2.438,0.118-4.907,0.257-7.353c0.031-0.555,0.296-1.095,0.452-1.642C75.858,92.6,76.004,92.627,76.149,92.655z"/>
	<path fill-rule="evenodd" clip-rule="evenodd" d="M34.544,92.418c-1.966,1.47-3.862,2.888-5.786,4.325c0-1.68,0-3.343,0-5.239
		c7.259-3.458,15.114-6.554,22.218-11.097c-0.103-0.178-0.207-0.356-0.31-0.534c-0.594,0.385-1.188,0.769-1.986,1.284
		c0.032-0.356-0.032-0.943,0.108-0.997c0.824-0.314,1.695-0.504,2.551-0.736c0.092,0.438,0.185,0.877,0.316,1.503
		c0.232-0.062,0.606-0.195,0.991-0.249c0.231-0.032,0.48,0.062,0.722,0.098c-0.076,0.274-0.072,0.633-0.249,0.803
		c-0.276,0.266-0.678,0.397-1.021,0.595c-3.156,1.815-6.314,3.626-9.465,5.452c-1.844,1.068-3.69,2.135-5.494,3.268
		c-0.364,0.229-0.568,0.741-0.797,1.15C35.881,92.866,35.413,93.554,34.544,92.418z M37.199,88.525
		c-1.282,0.413-1.472,0.848-1.134,2.265C36.492,89.937,36.846,89.23,37.199,88.525z"/>
	<path fill-rule="evenodd" clip-rule="evenodd" d="M38.182,44.109c0.368,0.148,0.797,0.221,1.096,0.457
		c1.996,1.578,3.985,3.165,5.937,4.796c2.504,2.094,4.987,4.213,7.433,6.374c0.285,0.252,0.272,0.839,0.398,1.271
		c-0.362,0.076-0.722,0.168-1.088,0.223c-0.213,0.032-0.435,0.006-0.996,0.006c1.44,0.964,2.582,0.818,3.955-0.035
		c-0.279,0.81-0.443,1.288-0.59,1.712c-0.585,0.189-1.161,0.301-1.666,0.554c-1.18,0.59-1.369-0.866-2.197-1.024
		c-0.277-0.053-0.458-0.491-0.738-0.66c-1.457-0.875-3.027-1.594-4.371-2.614c-1.148-0.872-2.009-2.114-3.064-3.122
		c-0.568-0.542-1.298-0.909-1.915-1.405c-0.275-0.221-0.583-0.541-0.641-0.858c-0.076-0.41,0.129-0.863,0.133-1.298
		c0.011-1.425,0.487-3.07-1.592-3.586c-0.121-0.03-0.178-0.313-0.265-0.479C38.067,44.318,38.124,44.213,38.182,44.109z"/>
	<path fill-rule="evenodd" clip-rule="evenodd" d="M106.625,33.858c-0.205,0.297-0.41,0.594-0.671,0.971
		c0.66,0.328,1.31,0.65,2.001,0.994c-1.007,1.409-1.945,2.72-2.881,4.033c-0.645,0.905-1.223,1.867-1.946,2.702
		c-0.538,0.621-1.323,1.024-1.894,1.623c-1.914,2.013-3.783,4.07-5.667,6.113c-0.104,0.113-0.188,0.246-0.275,0.362
		c-0.871-0.086-1.584-1.638-2.55,0.084c-0.067-0.11-0.135-0.22-0.202-0.33c0.113-0.529,0.062-1.19,0.365-1.568
		c3.214-4.012,6.453-8.004,9.757-11.942c0.892-1.062,2.018-1.93,3.054-2.867c0.199-0.18,0.482-0.267,0.728-0.397
		C106.504,33.71,106.564,33.785,106.625,33.858z M98.656,41.992c-0.364,0.631-0.708,1.228-1.053,1.823
		c0.158,0.078,0.316,0.156,0.475,0.234c0.277-0.608,0.557-1.216,0.83-1.826C98.913,42.213,98.859,42.178,98.656,41.992z"/>
	<path fill-rule="evenodd" clip-rule="evenodd" d="M72.824,15.453c0.822,0.241,1.323,0.508,1.826,0.512
		c1.423,0.009,1.905,0.575,1.511,1.951c-0.209,0.726-0.485,1.434-0.658,2.168c-0.265,1.12-0.181,1.3,0.735,2.084
		c-1.029,0.789-0.81,1.792-0.66,2.924c0.181,1.371-0.08,2.794-0.047,4.193c0.022,0.89,0.228,1.776,0.363,2.663
		c0.028,0.186,0.17,0.366,0.165,0.545c-0.077,2.995-0.169,5.99-0.259,9.008c0.514,0.153,0.834,0.249,1.328,0.396
		c-0.285,0.502-0.612,0.903-0.742,1.359c-0.105,0.369,0.028,0.805,0.07,1.423c-0.158,0.009-0.495,0.047-0.832,0.038
		c-0.091-0.002-0.166-0.177-0.27-0.221c-1.125-0.485-1.127-0.483-1.237-1.835c-0.013-0.159,0.036-0.398-0.05-0.465
		c-1.598-1.251-0.25-2.624-0.223-3.954c0.043-2.066-0.114-4.135-0.18-6.204c-0.021-0.646,0.021-1.297-0.028-1.94
		c-0.165-2.12-0.381-4.236-0.529-6.356c-0.062-0.87,0.008-1.748-0.002-2.622c-0.003-0.317,0.048-0.83-0.112-0.919
		c-1.205-0.671-0.578-1.324-0.232-2.206C73.063,17.223,72.824,16.241,72.824,15.453z"/>
	<path fill-rule="evenodd" clip-rule="evenodd" d="M53.008,111.093c-0.418,0.634-0.927,1.405-1.437,2.177
		c-0.104-0.003-0.208-0.006-0.312-0.01c-0.215-1.359,1.135-3.933-2.513-2.714c1.126-2.481,2.087-4.599,3.168-6.981
		c1.229-0.236,1.45-1.868,2.231-2.974c1.606-2.274,3.059-4.656,4.625-6.96c0.523-0.768,1.2-1.431,1.848-2.189
		c0.021,0.032,0.131,0.173,0.209,0.33c0.178,0.36,0.34,0.729,0.508,1.094c0.271-0.253,0.605-0.466,0.802-0.768
		c0.531-0.816,1.004-1.67,1.5-2.509c0.147,0.044,0.295,0.088,0.442,0.132c-0.094,0.451-0.076,0.972-0.303,1.341
		c-0.897,1.457-1.942,2.825-2.803,4.301c-1.783,3.061-3.536,6.14-5.195,9.268c-0.854,1.609-1.479,3.34-2.141,4.86
		c0.32,0.499,0.565,0.881,0.811,1.263C54.001,110.859,53.55,110.965,53.008,111.093z M59.458,94.15
		c-0.112-0.046-0.225-0.091-0.337-0.137c-0.794,1.018-1.588,2.034-2.383,3.052c0.111,0.116,0.221,0.231,0.332,0.348
		c0.258-0.183,0.726-0.351,0.74-0.552c0.09-1.222,0.672-0.913,1.496-0.258C59.366,95.634,59.412,94.892,59.458,94.15z
		 M56.798,100.455c-0.055-1.038-0.095-1.819-0.136-2.6c-0.103-0.014-0.206-0.026-0.309-0.039c-0.522,0.962-1.044,1.925-1.566,2.887
		c0.12,0.069,0.24,0.139,0.36,0.207c0.206-0.326,0.411-0.653,0.636-1.011C56.053,100.048,56.28,100.172,56.798,100.455z
		 M54.436,106.135c-0.107-0.062-0.214-0.123-0.321-0.185c-1.305,0.776-1.36,2.129-1.599,3.397c0.126,0.058,0.252,0.115,0.378,0.173
		C53.407,108.392,53.921,107.264,54.436,106.135z"/>
	<path fill-rule="evenodd" clip-rule="evenodd" d="M53.784,67.091c-0.333,0.379-0.524,0.593-0.71,0.812
		c-0.203,0.239-0.401,0.482-0.708,0.853c0.418,0.027,0.74-0.037,0.953,0.086c0.198,0.115,0.363,0.424,0.382,0.661
		c0.011,0.134-0.287,0.402-0.468,0.424c-0.664,0.083-1.339,0.14-2.006,0.111c-1.9-0.081-3.816-0.416-5.694-0.263
		c-2.249,0.184-4.472,0.734-6.693,1.189c-2.563,0.524-5.107,1.145-7.671,1.672c-1.731,0.355-1.83,0.045-1.762-1.894
		c0.005-0.143,0.071-0.284,0.146-0.564c-1.055,0.091-2.007,0.173-2.96,0.255c-0.03-0.18-0.061-0.36-0.091-0.541
		c0.83-0.206,1.704-0.309,2.483-0.635c2.954-1.236,6.027-0.309,9.028-0.59c1.609-0.151,3.21-0.385,4.813-0.593
		c1.32-0.172,2.774-0.803,3.928-0.447c2.232,0.688,4.076-0.633,6.124-0.612C53.098,67.018,53.317,67.051,53.784,67.091z"/>
	<path fill-rule="evenodd" clip-rule="evenodd" d="M111.569,105.959c0.595-0.312,1.056-0.556,1.479-0.778
		c-1.242-1.118-2.386-2.157-3.539-3.186c-3.033-2.705-6.051-5.429-9.13-8.082c-0.434-0.373-1.174-0.39-1.772-0.571
		c-0.23-0.069-0.463-0.137-0.693-0.204c0.14-0.206,0.235-0.481,0.428-0.607c1.233-0.808,2.488-1.583,3.855-2.444
		c0.945,1.119,2.035,2.517,3.238,3.808c2.174,2.333,4.396,4.623,6.642,6.889c0.794,0.802,1.708,1.487,2.578,2.214
		c1.009,0.843,0.848,1.854-0.4,2.572c-0.405,0.233-0.768,0.541-1.163,0.796c-0.277,0.179-0.656,0.519-0.848,0.439
		C111.957,106.686,111.795,106.264,111.569,105.959z M109.705,99.534c-0.109,0.05-0.219,0.1-0.328,0.149
		c0.219,0.377,0.371,0.822,0.672,1.115c0.418,0.408,0.948,0.702,1.492,1.089C112.017,101.488,111.398,100.546,109.705,99.534z
		 M103.409,92.77c-0.094,0.026-0.188,0.053-0.282,0.079c0.201,0.522,0.328,1.097,0.641,1.539c0.117,0.166,0.667,0.027,1.268,0.027
		C104.338,93.709,103.873,93.239,103.409,92.77z M106.334,98.414c0-0.558,0.131-1.111-0.025-1.21
		c-0.4-0.252-0.928-0.303-1.404-0.435c-0.027,0.109-0.056,0.218-0.084,0.326C105.237,97.459,105.655,97.822,106.334,98.414z"/>
	<path fill-rule="evenodd" clip-rule="evenodd" d="M102.732,63.489c0.276-0.142,0.702-0.451,1.177-0.593
		c3.737-1.117,7.483-2.203,11.228-3.296c0.267-0.078,0.536-0.155,0.811-0.198c2.217-0.348,2.695-0.082,3.43,2.042
		c0.067,0.196-0.251,0.732-0.472,0.788c-1.576,0.397-3.17,0.73-4.766,1.046c-2.377,0.471-4.776,0.84-7.132,1.397
		c-0.979,0.231-1.865,0.842-2.801,1.261c-0.232,0.104-0.558,0.256-0.728,0.168c-0.153-0.078-0.15-0.457-0.219-0.702
		C103.109,64.852,102.957,64.302,102.732,63.489z M115.089,61.284c-0.929,0.257-1.732,0.479-2.536,0.702
		c0.02,0.087,0.038,0.175,0.058,0.262c0.881,0,1.762,0,2.725,0C115.236,61.863,115.156,61.551,115.089,61.284z"/>
	<path fill-rule="evenodd" clip-rule="evenodd" d="M90.854,100.811c-0.33-0.203-0.798-0.473-1.243-0.774
		c-0.149-0.102-0.282-0.27-0.354-0.437c-0.276-0.65-0.411-1.395-0.813-1.947c-0.451-0.618-1.145-1.056-1.711-1.595
		c-0.126-0.12-0.225-0.334-0.229-0.508c-0.023-0.834-0.011-1.669-0.011-2.54c0.157-0.11,0.448-0.365,0.783-0.528
		c0.208-0.103,0.6-0.184,0.712-0.073c2.202,2.159,4.57,4.196,5.767,7.245C92.772,100.046,91.836,100.419,90.854,100.811z
		 M88.199,94.205c0.342,0.694,0.557,1.13,0.804,1.631c0.107-0.043,0.313-0.135,0.526-0.207c0.202-0.068,0.411-0.118,0.646-0.184
		C88.854,93.667,88.572,93.545,88.199,94.205z"/>
	<path fill-rule="evenodd" clip-rule="evenodd" fill="#FFFFFF" d="M76.879,76.098c-0.485,0.228-1.074,0.739-1.43,0.61
		c-0.438-0.158-0.711-0.836-0.979-1.331c-0.045-0.084,0.346-0.569,0.455-0.543c0.672,0.162,1.321,0.419,1.978,0.645
		C76.896,75.685,76.887,75.892,76.879,76.098z"/>
	<path fill-rule="evenodd" clip-rule="evenodd" fill="#FFFFFF" d="M82.815,51.354c1.547,1.082,3.479,1.591,4.649,3.233
		c-0.083,0.123-0.166,0.245-0.249,0.368c-1.557-1.068-3.113-2.136-4.67-3.203C82.636,51.619,82.726,51.487,82.815,51.354z"/>
	<path fill-rule="evenodd" clip-rule="evenodd" fill="#FFFFFF" d="M70.535,78.028c0.486-0.246,1.301-0.795,1.402-0.686
		c0.461,0.5,0.722,1.185,1.054,1.803c-0.126,0.137-0.253,0.273-0.379,0.411c-0.696-0.326-1.392-0.651-2.088-0.977
		C70.528,78.396,70.532,78.213,70.535,78.028z"/>
	<path fill-rule="evenodd" clip-rule="evenodd" fill="#FFFFFF" d="M88.823,79.064c-0.733,0.09-1.468,0.18-2.202,0.269
		c-0.087-0.145-0.173-0.289-0.26-0.435c0.293-0.383,0.562-1.058,0.885-1.084c0.548-0.045,1.131,0.316,1.699,0.508
		C88.904,78.569,88.864,78.817,88.823,79.064z"/>
	<path fill-rule="evenodd" clip-rule="evenodd" fill="#FFFFFF" d="M83.883,80.02c0.465,0.858,0.779,1.441,1.095,2.024
		c-0.231,0.106-0.547,0.366-0.677,0.293c-0.505-0.281-0.951-0.668-1.419-1.016C83.156,80.964,83.432,80.606,83.883,80.02z"/>
	<path fill-rule="evenodd" clip-rule="evenodd" fill="#FFFFFF" d="M67.826,74.964c-0.186-0.609-0.371-1.218-0.556-1.827
		c0.542,0.101,1.083,0.201,1.624,0.302c-0.114,0.508-0.227,1.017-0.34,1.525C68.311,74.964,68.068,74.964,67.826,74.964z"/>
	<path fill-rule="evenodd" clip-rule="evenodd" fill="#FFFFFF" d="M77.842,72.62c0.174,0.515,0.442,1.023,0.479,1.548
		c0.016,0.235-0.433,0.503-0.67,0.756c-0.268-0.433-0.658-0.839-0.755-1.307c-0.059-0.286,0.335-0.666,0.526-1.003
		C77.562,72.616,77.702,72.618,77.842,72.62z"/>
	<path fill-rule="evenodd" clip-rule="evenodd" fill="#FFFFFF" d="M83.233,83.341c-0.955,0.913-1.956,0.642-2.669-0.658
		C81.484,82.111,82.202,82.275,83.233,83.341z"/>
	<path fill-rule="evenodd" clip-rule="evenodd" fill="#FFFFFF" d="M63.047,71.379c-0.5-0.478-1.061-0.912-1.461-1.462
		c-0.106-0.146,0.274-0.647,0.58-1.309c0.602,0.999,1.001,1.664,1.402,2.328C63.394,71.084,63.221,71.231,63.047,71.379z"/>
	<path fill-rule="evenodd" clip-rule="evenodd" fill="#FFFFFF" d="M86.89,80.483c-0.301,0.323-0.562,0.604-0.883,0.948
		c-0.527-0.442-0.91-0.763-1.283-1.075C85.405,79.228,85.853,79.234,86.89,80.483z"/>
	<path fill-rule="evenodd" clip-rule="evenodd" fill="#FFFFFF" d="M66.062,66.136c1.285-0.879,1.285-0.879,1.735,1.985
		c-0.275-0.313-0.55-0.626-0.824-0.939C66.686,66.853,66.399,66.523,66.062,66.136z"/>
	<path fill-rule="evenodd" clip-rule="evenodd" fill="#FFFFFF" d="M90.019,75.545c0.326,0.71,0.949,1.327,0.085,1.909
		c-0.179,0.121-0.883-0.159-1.019-0.422C88.635,76.154,89.383,75.922,90.019,75.545z"/>
	<path fill-rule="evenodd" clip-rule="evenodd" fill="#FFFFFF" d="M76.889,67.313c0.055-0.544,0.109-1.088,0.164-1.632
		c0.406,0.181,0.812,0.361,1.218,0.542c-0.25,0.441-0.5,0.881-0.75,1.322C77.311,67.468,77.1,67.391,76.889,67.313z"/>
	<path fill-rule="evenodd" clip-rule="evenodd" fill="#FFFFFF" d="M74.034,67.799c0.472,0.562,0.838,0.999,1.204,1.436
		c-0.035,0.106-0.069,0.213-0.104,0.32c-0.704-0.072-1.407-0.145-2.111-0.217c-0.037-0.122-0.073-0.243-0.11-0.365
		C73.257,68.613,73.601,68.253,74.034,67.799z"/>
	<path fill-rule="evenodd" clip-rule="evenodd" fill="#FFFFFF" d="M60.915,73.486c-0.516-0.61-1.044-1.21-1.53-1.842
		c-0.057-0.074,0.13-0.479,0.19-0.476c0.284,0.016,0.69,0.029,0.819,0.209c0.383,0.537,0.655,1.152,0.971,1.736
		C61.215,73.237,61.065,73.361,60.915,73.486z"/>
	<path fill-rule="evenodd" clip-rule="evenodd" fill="#FFFFFF" d="M79.779,75.756c0.406,0.384,0.949,0.706,1.161,1.177
		c0.104,0.229-0.41,0.736-0.825,1.41c-0.334-0.987-0.542-1.6-0.749-2.212C79.504,76.006,79.642,75.881,79.779,75.756z"/>
	<path fill-rule="evenodd" clip-rule="evenodd" fill="#FFFFFF" d="M79.819,63.844c-0.1,0.566-0.2,1.132-0.3,1.698
		c-0.376-0.144-0.752-0.289-1.127-0.433c0.289-0.494,0.578-0.987,0.867-1.481C79.446,63.7,79.633,63.772,79.819,63.844z"/>
	<path fill-rule="evenodd" clip-rule="evenodd" fill="#FFFFFF" d="M77.314,80.307c-0.522-0.037-1.093,0.035-1.541-0.166
		c-0.171-0.077-0.06-0.78-0.077-1.197c0.59,0.23,1.18,0.462,1.77,0.692C77.415,79.859,77.365,80.083,77.314,80.307z"/>
	<path fill-rule="evenodd" clip-rule="evenodd" fill="#FFFFFF" d="M68.707,58.587c-0.087-0.481-0.175-0.962-0.262-1.444
		c0.449-0.033,0.898-0.066,1.347-0.1c-0.116,0.518-0.232,1.036-0.348,1.553C69.198,58.594,68.953,58.591,68.707,58.587z"/>
	<path fill-rule="evenodd" clip-rule="evenodd" fill="#FFFFFF" d="M86.537,67.449c-1.012-1.165-0.432-1.619,0.216-1.945
		c0.197-0.1,0.569,0.148,0.862,0.237C87.289,66.258,86.963,66.774,86.537,67.449z"/>
	<path fill-rule="evenodd" clip-rule="evenodd" fill="#FFFFFF" d="M70.733,73.106c-0.5-0.205-1.054-0.341-1.471-0.657
		c-0.136-0.103,0.084-0.676,0.142-1.035c0.545,0.339,1.089,0.677,1.634,1.016C70.936,72.656,70.834,72.882,70.733,73.106z"/>
	<path fill-rule="evenodd" clip-rule="evenodd" fill="#FFFFFF" d="M70.011,63.999c0.522,0.236,1.045,0.472,1.899,0.858
		c-0.646,0.445-1.002,0.69-1.358,0.935c-0.299-0.465-0.598-0.931-0.896-1.396C69.774,64.263,69.893,64.131,70.011,63.999z"/>
	<path fill-rule="evenodd" clip-rule="evenodd" fill="#FFFFFF" d="M73.668,78.859c-0.437-0.82-0.702-1.318-0.967-1.816
		c0.073-0.104,0.146-0.207,0.22-0.311c0.52,0.224,1.04,0.447,1.56,0.671C74.26,77.799,74.04,78.193,73.668,78.859z"/>
	<path fill-rule="evenodd" clip-rule="evenodd" fill="#FFFFFF" d="M71.555,72.83c0.727-0.6,1.113-0.917,1.498-1.235
		c0.115,0.042,0.23,0.085,0.346,0.127c-0.115,0.583-0.231,1.167-0.348,1.75C72.636,73.294,72.221,73.115,71.555,72.83z"/>
	<path fill-rule="evenodd" clip-rule="evenodd" fill="#FFFFFF" d="M81.531,73.891c0.552,0.82,0.899,1.336,1.247,1.853
		c-0.102,0.131-0.202,0.263-0.304,0.394c-0.526-0.274-1.095-0.497-1.542-0.866C80.847,75.199,81.236,74.553,81.531,73.891z"/>
	<path fill-rule="evenodd" clip-rule="evenodd" fill="#FFFFFF" d="M79.406,70.154c0.127-0.521,0.253-1.041,0.38-1.562
		c0.333,0.129,0.667,0.259,1.001,0.389c-0.249,0.473-0.498,0.945-0.746,1.417C79.829,70.317,79.618,70.235,79.406,70.154z"/>
	<path fill-rule="evenodd" clip-rule="evenodd" fill="#FFFFFF" d="M91.079,66.26c0.297,0.605,0.552,0.982,0.642,1.395
		c0.027,0.129-0.394,0.355-0.609,0.537c-0.246-0.355-0.559-0.687-0.702-1.08C90.359,66.977,90.731,66.688,91.079,66.26z"/>
	<path fill-rule="evenodd" clip-rule="evenodd" fill="#FFFFFF" d="M83.811,71.541c-0.935-1.041,0.08-1.338,0.634-1.864
		C85.084,70.728,85.043,70.842,83.811,71.541z"/>
	<path fill-rule="evenodd" clip-rule="evenodd" fill="#FFFFFF" d="M92.839,78.256c-1.13,2.259-1.13,2.259-1.841,1.512
		C91.616,79.26,92.228,78.758,92.839,78.256z"/>
	<path fill-rule="evenodd" clip-rule="evenodd" fill="#FFFFFF" d="M67.855,65.778c0.792,0.332,1.288,0.54,1.862,0.78
		c-0.468,0.523-0.771,0.863-1.257,1.406C68.254,67.221,68.109,66.696,67.855,65.778z"/>
	<path fill-rule="evenodd" clip-rule="evenodd" fill="#FFFFFF" d="M87.5,71.902c-0.178-0.705-0.313-1.239-0.448-1.774
		c0.085-0.079,0.17-0.159,0.255-0.238c0.455,0.25,0.91,0.5,1.538,0.846C88.315,71.195,87.978,71.489,87.5,71.902z"/>
	<path fill-rule="evenodd" clip-rule="evenodd" fill="#FFFFFF" d="M74.025,80.262c0.395,0.376,0.789,0.752,1.184,1.129
		c-0.232,0.153-0.594,0.487-0.675,0.43c-0.395-0.281-0.713-0.668-1.058-1.018C73.659,80.622,73.842,80.441,74.025,80.262z"/>
	<path fill-rule="evenodd" clip-rule="evenodd" fill="#FFFFFF" d="M70.641,80.812c-0.863-0.42-1.429-0.695-2.19-1.066
		C69.968,79.044,70.241,79.166,70.641,80.812z"/>
	<path fill-rule="evenodd" clip-rule="evenodd" fill="#FFFFFF" d="M81.961,65.722c0.024-0.532,0.05-1.065,0.074-1.598
		c0.137-0.015,0.274-0.03,0.41-0.045c0.26,0.279,0.519,0.559,0.925,0.998c-0.318,0.308-0.59,0.571-0.861,0.833
		C82.326,65.848,82.144,65.785,81.961,65.722z"/>
	<path fill-rule="evenodd" clip-rule="evenodd" fill="#FFFFFF" d="M90.424,80.375c0.306,0.276,0.521,0.471,0.838,0.758
		c-0.55,0.448-1.022,0.834-1.495,1.22c-0.083-0.055-0.166-0.109-0.249-0.163C89.802,81.619,90.087,81.05,90.424,80.375z"/>
	<path fill-rule="evenodd" clip-rule="evenodd" fill="#FFFFFF" d="M78.786,83.592c0.795,0.17,1.591,0.341,2.388,0.512
		c-0.038,0.182-0.076,0.363-0.114,0.545c-0.793-0.187-1.586-0.373-2.379-0.56C78.716,83.924,78.751,83.758,78.786,83.592z"/>
	<path fill-rule="evenodd" clip-rule="evenodd" fill="#FFFFFF" d="M75.56,87.058c0.775,0.23,1.551,0.463,2.325,0.693
		c-0.056,0.188-0.111,0.375-0.167,0.562c-0.774-0.233-1.55-0.467-2.324-0.7C75.449,87.428,75.505,87.242,75.56,87.058z"/>
	<path fill-rule="evenodd" clip-rule="evenodd" fill="#FFFFFF" d="M73.993,70.616c0.503-0.055,1.007-0.138,1.509-0.128
		c0.056,0.001,0.101,0.527,0.151,0.809c-0.531,0-1.062,0-1.593,0C74.038,71.07,74.016,70.844,73.993,70.616z"/>
	<path fill-rule="evenodd" clip-rule="evenodd" fill="#FFFFFF" d="M79.508,79.019c1.001,1.061-0.074,1.226-0.56,1.826
		C78.367,79.898,78.776,79.461,79.508,79.019z"/>
	<path fill-rule="evenodd" clip-rule="evenodd" fill="#FFFFFF" d="M69.002,77.045c0.379,0.418,0.634,0.699,1.158,1.275
		c-0.863,0-1.386,0-2.24,0C68.399,77.755,68.639,77.473,69.002,77.045z"/>
	<path fill-rule="evenodd" clip-rule="evenodd" fill="#FFFFFF" d="M74.75,64.456c-0.139-0.319-0.274-0.63-0.432-0.992
		c0.308-0.234,0.583-0.445,0.856-0.653C75.953,63.729,75.947,63.749,74.75,64.456z"/>
	<path fill-rule="evenodd" clip-rule="evenodd" fill="#FFFFFF" d="M73.522,63.931c-0.585-0.688-0.951-1.12-1.318-1.551
		c0.064-0.103,0.128-0.205,0.192-0.308c0.461,0.189,0.971,0.314,1.354,0.606C73.87,62.769,73.646,63.31,73.522,63.931z"/>
	<path fill-rule="evenodd" clip-rule="evenodd" fill="#FFFFFF" d="M77.111,70.207c-0.398-0.209-0.797-0.418-1.355-0.711
		c0.44-0.394,0.715-0.639,1.126-1.005c0.194,0.58,0.335,1.001,0.476,1.422C77.275,70.01,77.193,70.108,77.111,70.207z"/>
	<path fill-rule="evenodd" clip-rule="evenodd" fill="#FFFFFF" d="M83.715,79.794c-0.529,0.35-0.808,0.532-1.194,0.787
		c-0.179-0.559-0.325-1.014-0.472-1.47c0.088-0.093,0.175-0.186,0.262-0.279C82.711,79.106,83.11,79.381,83.715,79.794z"/>
	<path fill-rule="evenodd" clip-rule="evenodd" fill="#FFFFFF" d="M93.933,77.037c-0.604,0.236-1.207,0.472-1.998,0.781
		c0.301-0.553,0.528-0.972,0.789-1.449c0.367,0.093,0.739,0.187,1.109,0.28C93.866,76.779,93.899,76.908,93.933,77.037z"/>
	<path fill-rule="evenodd" clip-rule="evenodd" fill="#FFFFFF" d="M85.02,62.554c0.182-0.404,0.322-0.837,0.576-1.19
		c0.058-0.08,0.503,0.118,0.771,0.188c-0.234,0.428-0.469,0.855-0.703,1.283C85.448,62.741,85.234,62.647,85.02,62.554z"/>
	<path fill-rule="evenodd" clip-rule="evenodd" fill="#FFFFFF" d="M77.229,58.43c0.3,0.355,0.6,0.711,1.111,1.318
		c-0.212,0.119-0.502,0.282-0.964,0.542c-0.173-0.633-0.322-1.183-0.472-1.734C77.013,58.513,77.12,58.472,77.229,58.43z"/>
	<path fill-rule="evenodd" clip-rule="evenodd" fill="#FFFFFF" d="M87.986,55.386c0.563,0.57,1.127,1.14,1.69,1.71
		c-0.1,0.112-0.199,0.224-0.299,0.337c-0.585-0.552-1.169-1.103-1.754-1.655C87.745,55.647,87.865,55.517,87.986,55.386z"/>
	<path fill-rule="evenodd" clip-rule="evenodd" fill="#FFFFFF" d="M113.828,82.459c-0.802-0.206-1.461-0.375-2.121-0.544
		c-0.013-0.151-0.025-0.303-0.039-0.454c0.764-0.16,1.527-0.321,2.397-0.504C113.974,81.534,113.914,81.911,113.828,82.459z"/>
	<path fill-rule="evenodd" clip-rule="evenodd" fill="#FFFFFF" d="M108.832,80.812c0.067-0.096,0.114-0.217,0.203-0.277
		c0.192-0.134,0.407-0.236,0.559-0.321c0.437,0.246,0.821,0.463,1.21,0.682C110.398,81.663,110.398,81.663,108.832,80.812z"/>
	<path fill-rule="evenodd" clip-rule="evenodd" fill="#FFFFFF" d="M37.199,88.525c-0.353,0.705-0.707,1.411-1.134,2.265
		C35.727,89.373,35.917,88.938,37.199,88.525z"/>
	<path fill-rule="evenodd" clip-rule="evenodd" fill="#FFFFFF" d="M98.656,41.992c0.203,0.186,0.257,0.221,0.252,0.231
		c-0.273,0.61-0.553,1.218-0.83,1.826c-0.158-0.078-0.316-0.156-0.475-0.234C97.948,43.22,98.292,42.624,98.656,41.992z"/>
	<path fill-rule="evenodd" clip-rule="evenodd" fill="#FFFFFF" d="M59.458,94.15c-0.046,0.741-0.092,1.483-0.152,2.453
		c-0.824-0.655-1.406-0.964-1.496,0.258c-0.015,0.201-0.482,0.369-0.74,0.552c-0.11-0.116-0.221-0.231-0.332-0.348
		c0.794-1.018,1.588-2.034,2.383-3.052C59.233,94.06,59.345,94.104,59.458,94.15z"/>
	<path fill-rule="evenodd" clip-rule="evenodd" fill="#FFFFFF" d="M56.798,100.455c-0.518-0.283-0.745-0.407-1.015-0.556
		c-0.225,0.357-0.43,0.685-0.636,1.011c-0.12-0.068-0.24-0.138-0.36-0.207c0.522-0.962,1.044-1.925,1.566-2.887
		c0.103,0.013,0.206,0.025,0.309,0.039C56.703,98.636,56.744,99.417,56.798,100.455z"/>
	<path fill-rule="evenodd" clip-rule="evenodd" fill="#FFFFFF" d="M54.436,106.135c-0.514,1.129-1.028,2.257-1.542,3.386
		c-0.126-0.058-0.252-0.115-0.378-0.173c0.239-1.269,0.294-2.621,1.599-3.397C54.222,106.012,54.329,106.073,54.436,106.135z"/>
	<path fill-rule="evenodd" clip-rule="evenodd" fill="#FFFFFF" d="M109.705,99.534c1.693,1.012,2.312,1.954,1.836,2.354
		c-0.544-0.387-1.074-0.681-1.492-1.089c-0.301-0.293-0.453-0.738-0.672-1.115C109.486,99.634,109.596,99.584,109.705,99.534z"/>
	<path fill-rule="evenodd" clip-rule="evenodd" fill="#FFFFFF" d="M103.409,92.77c0.464,0.47,0.929,0.939,1.626,1.646
		c-0.601,0-1.15,0.139-1.268-0.027c-0.312-0.442-0.439-1.017-0.641-1.539C103.221,92.822,103.315,92.796,103.409,92.77z"/>
	<path fill-rule="evenodd" clip-rule="evenodd" fill="#FFFFFF" d="M106.334,98.414c-0.679-0.592-1.097-0.955-1.514-1.318
		c0.028-0.108,0.057-0.217,0.084-0.326c0.477,0.132,1.004,0.183,1.404,0.435C106.465,97.303,106.334,97.856,106.334,98.414z"/>
	<path fill-rule="evenodd" clip-rule="evenodd" fill="#FFFFFF" d="M115.089,61.284c0.067,0.267,0.147,0.579,0.246,0.964
		c-0.963,0-1.844,0-2.725,0c-0.02-0.087-0.038-0.175-0.058-0.262C113.356,61.764,114.16,61.541,115.089,61.284z"/>
	<path fill-rule="evenodd" clip-rule="evenodd" fill="#FFFFFF" d="M88.199,94.205c0.373-0.66,0.655-0.538,1.976,1.24
		c-0.234,0.065-0.443,0.115-0.646,0.184c-0.213,0.072-0.419,0.164-0.526,0.207C88.756,95.335,88.541,94.899,88.199,94.205z"/>
</g>
</svg>
