<?xml version="1.0" encoding="utf-8"?>
<!-- Generator: Adobe Illustrator 16.0.0, SVG Export Plug-In . SVG Version: 6.00 Build 0)  -->
<!DOCTYPE svg PUBLIC "-//W3C//DTD SVG 1.1//EN" "http://www.w3.org/Graphics/SVG/1.1/DTD/svg11.dtd">
<svg version="1.1" id="Layer_1" xmlns="http://www.w3.org/2000/svg" xmlns:xlink="http://www.w3.org/1999/xlink" x="0px" y="0px"
	 width="144px" height="144px" viewBox="0 0 144 144" enable-background="new 0 0 144 144" xml:space="preserve">
<g>
	<path fill="#FFFFFF" d="M100.397,42.876c-0.076-1.383,0.126-3.928-0.43-6.296c-0.751-3.201-2.251-6.198-4.086-8.958
		c-1.271-1.911-2.936-3.099-5.463-3.046c-2.54,0.053-5.118-0.121-7.628-0.519c-3.92-0.621-7.847-0.671-11.79-0.685
		c-1.232-0.004-2.466-0.173-3.696-0.137c-2.421,0.072-4.838,0.301-7.259,0.346c-3.313,0.06-6.098,1.407-8.532,3.482
		c-0.91,0.776-1.877,1.863-2.124,2.963c-0.561,2.504-0.727,5.102-0.985,7.668c-0.156,1.545-0.148,3.107-0.277,4.656
		c-0.383,4.596-0.796,9.189-1.198,13.784c-0.295,3.372-0.599,6.743-0.88,10.115c-0.046,0.552-0.114,1.146,0.034,1.663
		c0.298,1.043,0.056,1.932-0.373,2.88c-0.242,0.535-0.409,1.307-0.203,1.804c0.664,1.607,0.981,3.206,0.905,4.962
		c-0.162,3.751-0.075,7.509,1.451,11.034c0.52,1.202,1.363,2.26,1.958,3.435c0.421,0.831,0.913,1.356,1.849,1.714
		c1.438,0.548,1.471,1.016,0.674,2.389c-0.561,0.967-1.069,1.969-1.687,2.898c-2.573,3.878-5.171,7.739-7.772,11.599
		c-2.894,4.294-5.683,8.666-8.756,12.827c-1.326,1.796-2.224,4.081-4.532,5.066c-0.237,0.102-0.448,0.798-0.328,1.062
		c0.146,0.321,0.671,0.694,1.007,0.672c3.257-0.216,6.507-0.551,9.765-0.757c0.92-0.059,1.493-0.402,1.91-1.168
		c2.104-3.861,4.138-7.764,6.354-11.559c1.484-2.541,3.208-4.944,4.869-7.38c2.084-3.057,4.315-6.019,6.283-9.147
		c1.031-1.639,2.399-2,4.104-2.038c4.067-0.093,8.132-0.254,12.199-0.335c4.263-0.085,8.529-0.064,12.791-0.185
		c1.36-0.038,2.224,0.081,2.923,1.577c1.327,2.842,3.071,5.486,4.606,8.233c0.461,0.824,0.73,1.758,1.214,2.566
		c0.726,1.214,1.708,2.292,2.32,3.554c0.986,2.039,1.635,4.244,2.652,6.265c1.884,3.74,3.776,7.571,8.795,7.839
		c0.157,0.008,0.309,0.085,0.466,0.112c1.316,0.233,2.627,0.53,3.954,0.668c0.825,0.086,1.341-0.417,0.955-1.266
		c-0.303-0.668-0.135-0.883,0.478-1.155c0.776-0.347,1.042-1.496,0.501-1.995c-0.635-0.586-1.331-1.109-2.02-1.636
		c-1.451-1.111-2.399-2.52-3.07-4.248c-0.441-1.14-1.229-2.427-2.23-2.989c-1.078-0.606-1.657-1.391-2.2-2.339
		c-1.377-2.402-2.819-4.773-4.08-7.236c-1.43-2.795-3.405-5.392-3.495-8.732c-0.004-0.147-0.099-0.3-0.176-0.437
		c-0.839-1.48-1.701-2.948-2.507-4.446c-0.119-0.222-0.031-0.6,0.053-0.877c0.405-1.327,1.396-2.458,1.262-3.973
		c-0.049-0.545,0.035-1.108,0.107-1.657c0.191-1.449,0.378-2.899,0.623-4.34c0.357-2.105-0.291-4.403,1.372-6.276
		c0.539-0.606,0.417-1.447-0.613-1.778c-0.277-0.089-0.702-0.304-0.728-0.503c-0.291-2.3-1.403-4.538-0.484-6.94
		c0.2-0.525,0.139-1.177,0.094-1.763c-0.065-0.881-0.379-1.767-0.312-2.629c0.213-2.73,0.616-5.445,0.827-8.175
		C100.073,50.069,100.178,47.018,100.397,42.876z M84.527,17.562c0.122-0.04,0.244-0.08,0.366-0.12
		c-0.529-1.063-0.895-2.269-1.65-3.131c-0.412-0.47-1.576-0.655-2.248-0.455c-2.662,0.795-3.546,3.892-1.821,6.111
		c0.575,0.74,1.352,0.928,2.215,0.375c0.599-0.384,1.183-0.911,1.842-1.055C84.244,19.067,84.752,18.662,84.527,17.562z
		 M68.955,20.139c0.979,0.046,2.939-1.72,2.965-2.672c0.032-1.17-1.695-3.409-2.657-3.443c-2.267-0.082-4.249,1.618-4.407,3.78
		C64.763,19.084,66.403,20.02,68.955,20.139z"/>
	<path fill-rule="evenodd" clip-rule="evenodd" d="M100.397,42.876c-0.22,4.142-0.324,7.192-0.56,10.233
		c-0.211,2.73-0.614,5.445-0.827,8.175c-0.067,0.862,0.246,1.749,0.312,2.629c0.045,0.586,0.106,1.238-0.094,1.763
		c-0.919,2.403,0.193,4.641,0.484,6.94c0.025,0.199,0.45,0.414,0.728,0.503c1.03,0.331,1.152,1.172,0.613,1.778
		c-1.663,1.873-1.015,4.171-1.372,6.276c-0.245,1.44-0.432,2.891-0.623,4.34c-0.072,0.549-0.156,1.112-0.107,1.657
		c0.134,1.515-0.856,2.646-1.262,3.973c-0.084,0.277-0.172,0.655-0.053,0.877c0.806,1.498,1.668,2.966,2.507,4.446
		c0.077,0.137,0.172,0.289,0.176,0.437c0.09,3.341,2.065,5.938,3.495,8.732c1.261,2.463,2.703,4.834,4.08,7.236
		c0.543,0.948,1.122,1.732,2.2,2.339c1.002,0.562,1.789,1.85,2.23,2.989c0.671,1.729,1.619,3.137,3.07,4.248
		c0.688,0.526,1.385,1.05,2.02,1.636c0.541,0.499,0.275,1.648-0.501,1.995c-0.612,0.272-0.78,0.487-0.478,1.155
		c0.386,0.849-0.13,1.352-0.955,1.266c-1.327-0.138-2.638-0.435-3.954-0.668c-0.157-0.027-0.309-0.104-0.466-0.112
		c-5.019-0.268-6.911-4.099-8.795-7.839c-1.018-2.021-1.666-4.226-2.652-6.265c-0.612-1.262-1.595-2.34-2.32-3.554
		c-0.483-0.809-0.753-1.742-1.214-2.566c-1.535-2.747-3.279-5.392-4.606-8.233c-0.699-1.496-1.562-1.615-2.923-1.577
		c-4.262,0.12-8.528,0.1-12.791,0.185c-4.067,0.081-8.132,0.242-12.199,0.335c-1.705,0.038-3.073,0.399-4.104,2.038
		c-1.968,3.129-4.198,6.091-6.283,9.147c-1.661,2.436-3.384,4.839-4.869,7.38c-2.216,3.795-4.25,7.697-6.354,11.559
		c-0.417,0.766-0.99,1.109-1.91,1.168c-3.258,0.206-6.507,0.541-9.765,0.757c-0.336,0.022-0.86-0.351-1.007-0.672
		c-0.12-0.264,0.091-0.96,0.328-1.062c2.308-0.985,3.207-3.271,4.532-5.066c3.073-4.161,5.862-8.533,8.756-12.827
		c2.601-3.859,5.199-7.721,7.772-11.599c0.617-0.93,1.125-1.932,1.687-2.898c0.797-1.373,0.764-1.841-0.674-2.389
		c-0.937-0.357-1.428-0.883-1.849-1.714c-0.595-1.175-1.438-2.232-1.958-3.435c-1.525-3.525-1.613-7.283-1.451-11.034
		c0.076-1.756-0.241-3.354-0.905-4.962c-0.206-0.497-0.039-1.269,0.203-1.804c0.428-0.948,0.67-1.836,0.373-2.88
		c-0.148-0.516-0.08-1.11-0.034-1.663c0.281-3.373,0.584-6.744,0.88-10.115c0.402-4.594,0.815-9.188,1.198-13.784
		c0.129-1.549,0.121-3.111,0.277-4.656c0.258-2.566,0.424-5.164,0.985-7.668c0.247-1.101,1.213-2.188,2.124-2.963
		c2.435-2.075,5.219-3.422,8.532-3.482c2.421-0.044,4.838-0.273,7.259-0.346c1.229-0.037,2.464,0.132,3.696,0.137
		c3.943,0.013,7.87,0.064,11.79,0.685c2.51,0.398,5.088,0.572,7.628,0.519c2.527-0.053,4.192,1.135,5.463,3.046
		c1.835,2.76,3.335,5.757,4.086,8.958C100.523,38.948,100.321,41.494,100.397,42.876z M66.912,38.423
		c0,0.027-0.001,0.054-0.001,0.08c-0.64,0-1.287-0.065-1.917,0.015c-1.063,0.135-2.303,0.071-3.133,0.61
		c-2.047,1.328-3.239,3.335-3.412,5.84c-0.017,0.25,0.066,0.644,0.237,0.745c0.823,0.487,0.567,1.049,0.307,1.74
		c-0.566,1.503-0.157,2.772,1.022,3.114c3.46,1.001,6.959,1.748,10.607,1.396c1.696-0.164,3.402-0.232,5.104-0.328
		c0.274-0.015,0.555,0.047,0.83,0.086c0.82,0.117,1.642,0.355,2.459,0.337c1.896-0.042,3.796-0.162,5.686-0.34
		c1.244-0.118,2.499-0.297,3.698-0.631c0.797-0.222,1.74-0.55,1.701-1.701c-0.075-2.225-0.133-4.452-0.291-6.671
		c-0.026-0.371-0.457-0.904-0.812-1.021c-0.854-0.281-1.644-0.525-2.063-1.431c-0.095-0.202-0.454-0.369-0.708-0.395
		c-1.614-0.165-3.231-0.296-4.849-0.417c-0.596-0.044-1.278,0.156-1.778-0.07c-1.805-0.817-3.609-0.851-5.565-0.706
		C71.679,38.85,69.287,38.529,66.912,38.423z M59.815,71.527c-0.011-1.833-1.445-2.528-2.682-3.387
		c-0.629-0.437-1.013-0.46-1.307,0.41c-0.162,0.478-0.644,0.889-1.065,1.228c-1.212,0.975-1.151,3.386,0.171,4.243
		c0.609,0.396,1.271,0.984,1.914,0.99C58.076,75.022,59.836,72.779,59.815,71.527z M85.898,71.916
		c0.502,0.785,0.811,1.641,1.416,2.121c0.779,0.616,1.497-0.114,2.084-0.629c0.59-0.52,1.22-1.064,1.602-1.73
		c0.372-0.647,0.833-1.634,0.59-2.172c-0.752-1.665-2.492-2.514-3.995-0.914C86.829,69.407,86.52,70.651,85.898,71.916z
		 M77.907,31.515c0.012-0.063,0.024-0.127,0.037-0.191c0.397,0,0.806,0.055,1.19-0.017c0.318-0.06,0.608-0.271,0.91-0.415
		c-0.157-0.29-0.242-0.696-0.486-0.849c-1.041-0.65-2.159-1.008-3.388-0.499c-1.598,0.663-3.283,0.324-4.62-0.359
		c-1.663-0.849-2.998-0.423-4.417,0.201c-0.752,0.332-0.876,1.565-0.222,1.72c1.24,0.293,2.605,0.63,3.803,0.386
		c1.559-0.318,3.058-0.801,4.665-0.514C76.228,31.13,77.065,31.334,77.907,31.515z M59.168,89.893
		c1.353-0.436,8.965-11.604,8.895-13.078C64.316,80.629,61.124,84.827,59.168,89.893z M97.012,33.375
		c-0.066-0.393-0.065-0.477-0.095-0.549c-0.825-2.03-1.676-4.055-3.485-5.441c-0.204-0.157-0.715-0.133-0.944,0.018
		c-0.286,0.189-0.637,0.632-0.592,0.904c0.117,0.702,0.458,1.363,0.663,2.055c0.069,0.232,0,0.507-0.01,0.762
		c-0.014,0.34-0.03,0.681-0.045,1.021c0.399-0.044,0.805-0.064,1.198-0.139c0.349-0.066,0.687-0.193,1.028-0.293
		c0.092,0.407,0.264,0.817,0.249,1.22c-0.012,0.333-0.355,0.66-0.348,0.984c0.006,0.277,0.302,0.548,0.47,0.822
		C95.776,34.255,96.45,33.774,97.012,33.375z M83.606,67.397c-0.054-0.104-0.107-0.209-0.16-0.314
		c0.198-0.218,0.432-0.416,0.587-0.662c0.152-0.241,0.225-0.531,0.332-0.8c-0.354-0.115-0.931-0.424-1.027-0.313
		c-0.947,1.082-1.818,2.231-2.695,3.373c-0.041,0.053,0.051,0.222,0.101,0.327c0.269,0.564,0.543,1.125,0.88,1.821
		c0.183-0.142,0.543-0.352,0.811-0.646c0.429-0.471,0.733-1.07,1.208-1.478c0.337-0.29,0.86-0.382,1.314-0.512
		c0.357-0.102,0.786-0.045,1.085-0.223c0.146-0.087,0.151-0.777,0.08-0.803c-0.369-0.132-0.794-0.214-1.181-0.167
		C84.486,67.053,84.05,67.258,83.606,67.397z M60.362,62.222c-0.847-0.276-1.521-0.286-2.017,0.514
		c-0.541,0.871-1.145,1.705-1.633,2.603c-0.145,0.267-0.125,0.882,0.053,1.01c0.333,0.238,0.975,0.455,1.243,0.288
		c0.546-0.34,1.07-0.874,1.347-1.451C59.795,64.272,60.023,63.258,60.362,62.222z M60.838,91.824
		c0.898,0.205,1.543-0.205,2.18-1.351c0.983-1.767,1.949-3.542,2.928-5.31c0.233-0.421,0.493-0.827,0.74-1.24
		c-0.146-0.092-0.292-0.185-0.438-0.276C63.916,85.991,62.467,88.951,60.838,91.824z M84.471,84.079
		c0.099,0.083,0.198,0.166,0.297,0.249c0.322-0.246,0.715-0.436,0.955-0.745c1.392-1.796,2.758-3.612,4.103-5.445
		c0.16-0.218,0.271-0.665,0.155-0.842c-0.132-0.199-0.621-0.37-0.821-0.275c-0.464,0.223-0.977,0.531-1.241,0.949
		c-0.735,1.163-1.349,2.402-2.02,3.605C85.431,82.414,84.947,83.244,84.471,84.079z M93.14,87.919
		c-0.342,0.433-0.719,0.909-1.095,1.386c0.464,0.262,0.9,0.646,1.397,0.755c0.646,0.143,1.36,0.177,2.004,0.048
		c0.433-0.087,0.958-0.456,1.149-0.843c0.347-0.701,0.524-1.501,0.667-2.278c0.046-0.255-0.237-0.57-0.371-0.857
		c-0.245,0.161-0.567,0.271-0.719,0.495c-0.325,0.483-0.506,1.07-0.854,1.531c-0.278,0.368-0.688,0.763-1.101,0.851
		C94.003,89.052,93.652,88.458,93.14,87.919z M73.599,81.324c-1.374,0.369-6.065,7.588-5.841,9.05
		C70.299,87.652,71.881,84.583,73.599,81.324z M84.833,71.005c-0.124-0.088-0.247-0.177-0.371-0.265
		c-0.639,0.851-1.301,1.686-1.895,2.567c-0.091,0.134,0.113,0.485,0.212,0.725c0.19,0.46,0.403,0.911,0.605,1.367
		c0.105,0.237,0.152,0.602,0.327,0.678c0.186,0.082,0.586-0.028,0.726-0.194c0.316-0.379,0.749-0.845,0.745-1.271
		C85.172,73.407,84.964,72.207,84.833,71.005z M75.752,67.911c-0.133-0.082-0.266-0.164-0.398-0.246
		c-1.636,2.436-3.271,4.872-5.019,7.474C71.972,74.883,75.913,69.364,75.752,67.911z M61.218,72.281
		c0.125,0.051,0.249,0.103,0.373,0.154c1.013-1.261,2.026-2.521,3.039-3.782c-0.064-0.113-0.129-0.226-0.194-0.34
		c-0.683,0.06-1.365,0.153-2.049,0.172c-1.518,0.041-1.565,0.095-1.244,1.516c0.058,0.256-0.052,0.545-0.04,0.817
		C61.124,71.307,61.178,71.793,61.218,72.281z M71.699,36.635c1.184,0.104,2.383,0.191,3.579,0.317
		c1.639,0.173,1.711,0.121,1.746-1.486c0.005-0.217,0.043-0.433,0.1-0.964c-0.579,0.456-0.894,0.83-1.293,0.982
		c-0.408,0.156-0.991,0.273-1.337,0.095C73.276,34.951,72.386,35.248,71.699,36.635z M78.336,61.484
		c0.116,0.1,0.232,0.199,0.349,0.299c1.225-0.668,1.901-1.873,2.576-3.031c0.175-0.299,0.047-0.909-0.159-1.242
		c-0.11-0.179-0.842-0.232-1.014-0.061c-0.374,0.373-0.914,1.171-0.777,1.363c0.574,0.806,0.053,1.247-0.333,1.779
		C78.763,60.888,78.55,61.187,78.336,61.484z M98.646,50.854c-0.229-0.394-0.368-0.75-0.439-0.736
		c-0.274,0.052-0.566,0.174-0.78,0.355c-0.585,0.497-1.193,0.988-1.671,1.58c-0.242,0.301-0.357,0.845-0.271,1.22
		c0.054,0.237,0.82,0.567,0.865,0.514C97.155,52.835,97.9,51.832,98.646,50.854z M82.75,32.285
		c-1.362,0.276-2.264,1.102-2.972,2.176c-0.392,0.596-0.816,1.17-1.212,1.763c-0.1,0.149-0.146,0.334-0.259,0.602
		c0.949,0.046,1.526-0.105,1.998-0.99C80.977,34.576,81.922,33.461,82.75,32.285z M67.477,61.086
		c-1.821,0.229-2.255,1.803-3.207,2.846c-0.092,0.101,0.156,0.747,0.27,0.753c0.341,0.021,0.867-0.037,1.014-0.264
		C66.251,63.346,66.846,62.205,67.477,61.086z M61.979,36.728c3.229,0.178,3.649-0.054,3.852-2.234
		C64.664,35.518,62.835,34.903,61.979,36.728z M62.478,25.792c1.613,0.689,2.997,0.626,4.385,0.232
		c0.148-0.042,0.369-0.299,0.341-0.394c-0.055-0.188-0.255-0.469-0.403-0.473c-1.147-0.035-2.298-0.044-3.443,0.015
		C63.105,25.185,62.87,25.504,62.478,25.792z M81.428,30.31c0.15,0.125,0.301,0.251,0.452,0.376
		c1.141-0.795,2.302-1.565,3.402-2.413c0.163-0.125,0.039-0.622,0.048-0.946c-0.288,0.056-0.632,0.03-0.854,0.183
		c-0.854,0.587-1.693,1.204-2.489,1.868C81.724,29.597,81.609,29.994,81.428,30.31z M89.774,30.189
		c-0.829,0.087-2.919,2.434-3.104,3.487C87.782,33.614,89.869,31.271,89.774,30.189z M84.906,34.391
		c-0.131-0.124-0.262-0.249-0.393-0.372c-0.736,0.777-1.502,1.53-2.188,2.35c-0.168,0.2-0.072,0.619-0.098,0.938
		c0.345-0.073,0.852-0.029,1.006-0.241C83.852,36.217,84.358,35.29,84.906,34.391z M60.166,55.536c-0.405,0.431-1,0.909-0.937,1.022
		c0.246,0.444,0.701,0.774,1.078,1.146c0.393-0.414,0.786-0.827,1.179-1.24C61.104,56.196,60.723,55.928,60.166,55.536z
		 M48.377,69.176c0.098,0.114,0.195,0.227,0.293,0.34c1.025-1.105,2.05-2.209,3.17-3.417C50.724,65.951,49.565,67.068,48.377,69.176
		z M81.394,83.844c1.251-0.192,2.354-1.569,2.512-2.958C82.473,81.379,82.229,82.706,81.394,83.844z M88.439,36.543
		c1.538,0.06,2.502-0.97,2.339-2.495C90.067,34.806,89.357,35.564,88.439,36.543z M97.402,37.229
		c0.236-0.106,0.473-0.212,0.708-0.318c-0.165-0.659-0.33-1.317-0.494-1.976c-0.37,0.287-1.078,0.631-1.041,0.849
		C96.662,36.298,97.104,36.751,97.402,37.229z M56.615,57.843c-0.115-0.072-0.23-0.143-0.345-0.214
		c-0.294,0.226-0.646,0.406-0.869,0.688c-0.296,0.373-0.492,0.825-0.73,1.243c0.203,0.102,0.49,0.342,0.593,0.279
		c0.411-0.249,0.839-0.539,1.116-0.919C56.576,58.647,56.544,58.208,56.615,57.843z M60.76,29.492
		c0.123,0.148,0.246,0.296,0.37,0.444c0.593-0.331,1.205-0.634,1.771-1.007c0.208-0.137,0.305-0.442,0.453-0.67
		c-0.296-0.096-0.713-0.365-0.867-0.257C61.866,28.436,61.328,28.985,60.76,29.492z M57.656,53.549
		c0.151,0.131,0.303,0.261,0.455,0.392c0.456-0.345,0.913-0.69,1.369-1.035c-0.372-0.304-0.743-0.607-1.114-0.91
		C58.129,52.513,57.893,53.031,57.656,53.549z M93.834,42.876c-0.709-0.034-1.081-0.14-1.386-0.04
		c-0.271,0.089-0.573,0.369-0.667,0.633c-0.082,0.233,0.107,0.561,0.177,0.847c0.304-0.107,0.652-0.155,0.899-0.338
		C93.152,43.758,93.361,43.423,93.834,42.876z M66.285,55.913c-0.058-0.253-0.116-0.507-0.174-0.76
		c-0.624,0.133-1.248,0.266-1.872,0.398c0.07,0.276,0.14,0.552,0.21,0.828C65.061,56.224,65.673,56.068,66.285,55.913z
		 M95.236,68.213c0.123,0.116,0.247,0.232,0.371,0.348c0.491-0.634,0.982-1.268,1.475-1.902
		C95.657,66.414,95.536,67.399,95.236,68.213z M52.55,78.292c-0.561-0.198-0.898-0.443-1.123-0.365
		c-0.275,0.096-0.588,0.44-0.635,0.72c-0.035,0.206,0.331,0.479,0.518,0.723C51.646,79.077,51.981,78.786,52.55,78.292z
		 M67.434,36.269c0.078,0.161,0.155,0.322,0.233,0.483c0.48-0.142,1.032-0.188,1.412-0.467c0.179-0.132,0.031-0.71,0.031-1.086
		c-0.115-0.035-0.23-0.069-0.345-0.104C68.321,35.487,67.877,35.878,67.434,36.269z M75.79,59.693
		c1.294,0.278,1.09-0.838,1.656-1.401C76.122,58.053,76.095,58.925,75.79,59.693z M89.632,85.99c1.266,0.211,1.67-0.188,1.725-1.606
		C90.646,85.046,90.14,85.518,89.632,85.99z M80.915,75.777c-0.534,0.604-0.957,1.081-1.449,1.637
		C80.735,77.71,81.256,77.156,80.915,75.777z M67.677,67.773c0.103,0.096,0.206,0.192,0.309,0.287
		c0.379-0.408,0.772-0.805,1.117-1.24c0.037-0.046-0.215-0.32-0.333-0.489c-0.358,0.37-0.724,0.733-1.067,1.117
		C67.644,67.512,67.683,67.663,67.677,67.773z M91.397,65.364c-0.132-0.142-0.264-0.284-0.396-0.425
		c-0.417,0.379-0.834,0.759-1.252,1.139c0.168,0.139,0.456,0.419,0.486,0.395C90.645,66.127,91.017,65.741,91.397,65.364z
		 M72.836,86.365c0.124,0.141,0.249,0.281,0.374,0.422c0.682-0.139,1.091-0.538,0.8-1.622
		C73.618,85.565,73.228,85.965,72.836,86.365z"/>
	<path fill-rule="evenodd" clip-rule="evenodd" d="M84.527,17.562c0.225,1.1-0.283,1.505-1.297,1.726
		c-0.659,0.144-1.243,0.67-1.842,1.055c-0.863,0.553-1.64,0.365-2.215-0.375c-1.725-2.22-0.841-5.316,1.821-6.111
		c0.672-0.201,1.836-0.015,2.248,0.455c0.756,0.863,1.121,2.068,1.65,3.131C84.771,17.481,84.649,17.521,84.527,17.562z"/>
	<path fill-rule="evenodd" clip-rule="evenodd" d="M68.955,20.139c-2.551-0.119-4.192-1.054-4.098-2.335
		c0.158-2.163,2.14-3.862,4.407-3.78c0.962,0.035,2.689,2.273,2.657,3.443C71.894,18.419,69.934,20.185,68.955,20.139z"/>
	<path fill-rule="evenodd" clip-rule="evenodd" fill="#FFFFFF" d="M66.912,38.423c2.375,0.106,4.767,0.427,7.122,0.252
		c1.956-0.145,3.761-0.112,5.565,0.706c0.5,0.226,1.183,0.026,1.778,0.07c1.617,0.121,3.234,0.252,4.849,0.417
		c0.254,0.026,0.613,0.193,0.708,0.395c0.42,0.906,1.209,1.149,2.063,1.431c0.355,0.117,0.786,0.651,0.812,1.021
		c0.158,2.219,0.216,4.446,0.291,6.671c0.039,1.15-0.904,1.479-1.701,1.701c-1.199,0.333-2.454,0.513-3.698,0.631
		c-1.89,0.179-3.789,0.298-5.686,0.34c-0.817,0.018-1.639-0.22-2.459-0.337c-0.275-0.039-0.556-0.101-0.83-0.086
		c-1.702,0.096-3.408,0.164-5.104,0.328c-3.648,0.352-7.147-0.395-10.607-1.396c-1.179-0.341-1.588-1.611-1.022-3.114
		c0.261-0.691,0.517-1.253-0.307-1.74c-0.171-0.101-0.254-0.495-0.237-0.745c0.173-2.504,1.364-4.512,3.412-5.84
		c0.83-0.539,2.07-0.475,3.133-0.61c0.629-0.08,1.277-0.015,1.917-0.015C66.911,38.477,66.911,38.45,66.912,38.423z"/>
	<path fill-rule="evenodd" clip-rule="evenodd" fill="#FFFFFF" d="M59.815,71.527c0.021,1.252-1.739,3.495-2.969,3.483
		c-0.643-0.006-1.305-0.595-1.914-0.99c-1.322-0.856-1.383-3.268-0.171-4.243c0.421-0.338,0.903-0.75,1.065-1.228
		c0.294-0.87,0.678-0.847,1.307-0.41C58.371,68.999,59.805,69.694,59.815,71.527z"/>
	<path fill-rule="evenodd" clip-rule="evenodd" fill="#FFFFFF" d="M85.898,71.916c0.621-1.265,0.931-2.508,1.696-3.324
		c1.503-1.6,3.243-0.751,3.995,0.914c0.243,0.538-0.218,1.524-0.59,2.172c-0.382,0.666-1.012,1.21-1.602,1.73
		c-0.587,0.515-1.305,1.245-2.084,0.629C86.709,73.557,86.4,72.7,85.898,71.916z"/>
	<path fill-rule="evenodd" clip-rule="evenodd" fill="#FFFFFF" d="M77.907,31.515c-0.842-0.18-1.68-0.385-2.527-0.536
		c-1.606-0.288-3.105,0.196-4.665,0.514c-1.198,0.245-2.562-0.093-3.803-0.386c-0.655-0.155-0.531-1.389,0.222-1.72
		c1.418-0.624,2.753-1.05,4.417-0.201c1.337,0.683,3.022,1.021,4.62,0.359c1.229-0.51,2.347-0.151,3.388,0.499
		c0.244,0.152,0.329,0.559,0.486,0.849c-0.302,0.144-0.592,0.355-0.91,0.415c-0.385,0.072-0.793,0.017-1.19,0.017
		C77.932,31.387,77.919,31.451,77.907,31.515z"/>
	<path fill-rule="evenodd" clip-rule="evenodd" fill="#FFFFFF" d="M59.168,89.893c1.956-5.065,5.148-9.264,8.895-13.078
		C68.134,78.289,60.521,89.457,59.168,89.893z"/>
	<path fill-rule="evenodd" clip-rule="evenodd" fill="#FFFFFF" d="M97.012,33.375c-0.562,0.4-1.235,0.881-1.91,1.362
		c-0.168-0.273-0.464-0.544-0.47-0.822c-0.008-0.324,0.336-0.651,0.348-0.984c0.015-0.403-0.157-0.813-0.249-1.22
		c-0.342,0.1-0.68,0.227-1.028,0.293c-0.394,0.075-0.799,0.095-1.198,0.139c0.015-0.34,0.031-0.681,0.045-1.021
		c0.01-0.255,0.079-0.53,0.01-0.762c-0.205-0.692-0.546-1.354-0.663-2.055c-0.045-0.272,0.306-0.715,0.592-0.904
		c0.229-0.151,0.74-0.174,0.944-0.018c1.81,1.387,2.66,3.411,3.485,5.441C96.946,32.897,96.945,32.981,97.012,33.375z"/>
	<path fill-rule="evenodd" clip-rule="evenodd" fill="#FFFFFF" d="M83.606,67.397c0.443-0.14,0.88-0.344,1.334-0.399
		c0.387-0.046,0.812,0.036,1.181,0.167c0.071,0.025,0.066,0.715-0.08,0.803c-0.299,0.178-0.728,0.121-1.085,0.223
		c-0.454,0.13-0.978,0.222-1.314,0.512c-0.475,0.408-0.779,1.007-1.208,1.478c-0.268,0.294-0.628,0.505-0.811,0.646
		c-0.337-0.695-0.611-1.256-0.88-1.821c-0.05-0.105-0.142-0.274-0.101-0.327c0.877-1.142,1.748-2.292,2.695-3.373
		c0.097-0.111,0.673,0.199,1.027,0.313c-0.107,0.269-0.18,0.559-0.332,0.8c-0.155,0.246-0.389,0.444-0.587,0.662
		C83.499,67.188,83.553,67.293,83.606,67.397z"/>
	<path fill-rule="evenodd" clip-rule="evenodd" fill="#FFFFFF" d="M60.362,62.222c-0.339,1.037-0.567,2.05-1.006,2.963
		c-0.277,0.577-0.801,1.111-1.347,1.451c-0.268,0.167-0.91-0.05-1.243-0.288c-0.179-0.128-0.198-0.743-0.053-1.01
		c0.488-0.898,1.092-1.732,1.633-2.603C58.842,61.936,59.515,61.946,60.362,62.222z"/>
	<path fill-rule="evenodd" clip-rule="evenodd" fill="#FFFFFF" d="M60.838,91.824c1.629-2.873,3.078-5.833,5.41-8.177
		c0.146,0.092,0.292,0.185,0.438,0.276c-0.247,0.413-0.506,0.819-0.74,1.24c-0.979,1.768-1.945,3.543-2.928,5.31
		C62.381,91.619,61.737,92.029,60.838,91.824z"/>
	<path fill-rule="evenodd" clip-rule="evenodd" fill="#FFFFFF" d="M84.471,84.079c0.477-0.835,0.96-1.665,1.428-2.504
		c0.671-1.203,1.284-2.442,2.02-3.605c0.265-0.418,0.777-0.727,1.241-0.949c0.2-0.095,0.689,0.076,0.821,0.275
		c0.115,0.177,0.005,0.624-0.155,0.842c-1.345,1.833-2.711,3.649-4.103,5.445c-0.24,0.31-0.633,0.499-0.955,0.745
		C84.669,84.245,84.569,84.162,84.471,84.079z"/>
	<path fill-rule="evenodd" clip-rule="evenodd" fill="#FFFFFF" d="M93.14,87.919c0.513,0.539,0.863,1.133,1.078,1.087
		c0.413-0.088,0.822-0.482,1.101-0.851c0.349-0.461,0.529-1.048,0.854-1.531c0.151-0.225,0.474-0.334,0.719-0.495
		c0.134,0.287,0.417,0.603,0.371,0.857c-0.143,0.777-0.32,1.577-0.667,2.278c-0.191,0.387-0.717,0.756-1.149,0.843
		c-0.644,0.129-1.358,0.095-2.004-0.048c-0.497-0.109-0.934-0.493-1.397-0.755C92.421,88.828,92.798,88.352,93.14,87.919z"/>
	<path fill-rule="evenodd" clip-rule="evenodd" fill="#FFFFFF" d="M73.599,81.324c-1.718,3.259-3.3,6.328-5.841,9.05
		C67.534,88.912,72.225,81.693,73.599,81.324z"/>
	<path fill-rule="evenodd" clip-rule="evenodd" fill="#FFFFFF" d="M84.833,71.005c0.131,1.202,0.339,2.402,0.35,3.605
		c0.004,0.427-0.429,0.893-0.745,1.271c-0.14,0.166-0.54,0.276-0.726,0.194c-0.175-0.076-0.222-0.44-0.327-0.678
		c-0.202-0.456-0.415-0.907-0.605-1.367c-0.099-0.239-0.303-0.591-0.212-0.725c0.594-0.881,1.256-1.716,1.895-2.567
		C84.586,70.828,84.709,70.917,84.833,71.005z"/>
	<path fill-rule="evenodd" clip-rule="evenodd" fill="#FFFFFF" d="M75.752,67.911c0.161,1.453-3.78,6.972-5.417,7.229
		c1.748-2.603,3.383-5.039,5.019-7.474C75.486,67.748,75.619,67.829,75.752,67.911z"/>
	<path fill-rule="evenodd" clip-rule="evenodd" fill="#FFFFFF" d="M61.218,72.281c-0.04-0.488-0.094-0.975-0.115-1.462
		c-0.012-0.272,0.098-0.562,0.04-0.817c-0.321-1.421-0.274-1.475,1.244-1.516c0.684-0.019,1.366-0.112,2.049-0.172
		c0.065,0.114,0.13,0.227,0.194,0.34c-1.013,1.261-2.026,2.521-3.039,3.782C61.467,72.384,61.343,72.332,61.218,72.281z"/>
	<path fill-rule="evenodd" clip-rule="evenodd" fill="#FFFFFF" d="M71.699,36.635c0.687-1.387,1.578-1.685,2.794-1.056
		c0.346,0.178,0.929,0.061,1.337-0.095c0.399-0.152,0.714-0.527,1.293-0.982c-0.057,0.532-0.095,0.748-0.1,0.964
		c-0.035,1.607-0.107,1.659-1.746,1.486C74.082,36.826,72.883,36.739,71.699,36.635z"/>
	<path fill-rule="evenodd" clip-rule="evenodd" fill="#FFFFFF" d="M78.336,61.484c0.214-0.297,0.427-0.596,0.642-0.893
		c0.386-0.533,0.907-0.973,0.333-1.779c-0.137-0.191,0.403-0.99,0.777-1.363c0.172-0.171,0.903-0.118,1.014,0.061
		c0.206,0.333,0.334,0.942,0.159,1.242c-0.675,1.159-1.352,2.363-2.576,3.031C78.568,61.683,78.452,61.583,78.336,61.484z"/>
	<path fill-rule="evenodd" clip-rule="evenodd" fill="#FFFFFF" d="M98.646,50.854c-0.746,0.978-1.491,1.981-2.297,2.933
		c-0.045,0.053-0.812-0.277-0.865-0.514c-0.086-0.375,0.029-0.918,0.271-1.22c0.478-0.592,1.086-1.083,1.671-1.58
		c0.214-0.181,0.506-0.304,0.78-0.355C98.278,50.104,98.418,50.46,98.646,50.854z"/>
	<path fill-rule="evenodd" clip-rule="evenodd" fill="#FFFFFF" d="M82.75,32.285c-0.828,1.176-1.773,2.291-2.444,3.551
		c-0.472,0.885-1.049,1.037-1.998,0.99c0.112-0.267,0.159-0.452,0.259-0.602c0.396-0.593,0.82-1.167,1.212-1.763
		C80.486,33.387,81.388,32.561,82.75,32.285z"/>
	<path fill-rule="evenodd" clip-rule="evenodd" fill="#FFFFFF" d="M67.477,61.086c-0.631,1.119-1.226,2.26-1.923,3.336
		c-0.146,0.227-0.672,0.285-1.014,0.264c-0.114-0.007-0.361-0.653-0.27-0.753C65.222,62.889,65.656,61.315,67.477,61.086z"/>
	<path fill-rule="evenodd" clip-rule="evenodd" fill="#FFFFFF" d="M61.979,36.728c0.856-1.825,2.685-1.21,3.852-2.234
		C65.628,36.674,65.208,36.906,61.979,36.728z"/>
	<path fill-rule="evenodd" clip-rule="evenodd" fill="#FFFFFF" d="M62.478,25.792c0.392-0.288,0.628-0.607,0.88-0.62
		c1.146-0.059,2.296-0.05,3.443-0.015c0.148,0.004,0.349,0.285,0.403,0.473c0.028,0.095-0.193,0.352-0.341,0.394
		C65.474,26.418,64.091,26.48,62.478,25.792z"/>
	<path fill-rule="evenodd" clip-rule="evenodd" fill="#FFFFFF" d="M81.428,30.31c0.182-0.315,0.296-0.713,0.559-0.932
		c0.796-0.665,1.635-1.281,2.489-1.868c0.223-0.152,0.566-0.126,0.854-0.183c-0.009,0.324,0.115,0.821-0.048,0.946
		c-1.101,0.848-2.262,1.618-3.402,2.413C81.729,30.561,81.578,30.435,81.428,30.31z"/>
	<path fill-rule="evenodd" clip-rule="evenodd" fill="#FFFFFF" d="M89.774,30.189c0.095,1.082-1.992,3.425-3.104,3.487
		C86.855,32.623,88.945,30.276,89.774,30.189z"/>
	<path fill-rule="evenodd" clip-rule="evenodd" fill="#FFFFFF" d="M84.906,34.391c-0.548,0.898-1.055,1.826-1.672,2.674
		c-0.154,0.212-0.661,0.167-1.006,0.241c0.025-0.318-0.07-0.738,0.098-0.938c0.686-0.82,1.451-1.572,2.188-2.35
		C84.645,34.143,84.775,34.267,84.906,34.391z"/>
	<path fill-rule="evenodd" clip-rule="evenodd" fill="#FFFFFF" d="M60.166,55.536c0.557,0.392,0.938,0.66,1.32,0.928
		c-0.393,0.414-0.786,0.827-1.179,1.24c-0.377-0.372-0.832-0.702-1.078-1.146C59.167,56.445,59.761,55.967,60.166,55.536z"/>
	<path fill-rule="evenodd" clip-rule="evenodd" fill="#FFFFFF" d="M48.377,69.176c1.188-2.108,2.347-3.226,3.463-3.077
		c-1.121,1.208-2.146,2.312-3.17,3.417C48.572,69.403,48.475,69.29,48.377,69.176z"/>
	<path fill-rule="evenodd" clip-rule="evenodd" fill="#FFFFFF" d="M81.394,83.844c0.836-1.138,1.079-2.465,2.512-2.958
		C83.747,82.274,82.645,83.651,81.394,83.844z"/>
	<path fill-rule="evenodd" clip-rule="evenodd" fill="#FFFFFF" d="M88.439,36.543c0.918-0.979,1.628-1.737,2.339-2.495
		C90.941,35.573,89.978,36.603,88.439,36.543z"/>
	<path fill-rule="evenodd" clip-rule="evenodd" fill="#FFFFFF" d="M97.402,37.229c-0.298-0.478-0.74-0.931-0.827-1.445
		c-0.037-0.218,0.671-0.562,1.041-0.849c0.164,0.659,0.329,1.317,0.494,1.976C97.875,37.017,97.639,37.123,97.402,37.229z"/>
	<path fill-rule="evenodd" clip-rule="evenodd" fill="#FFFFFF" d="M56.615,57.843c-0.07,0.365-0.039,0.805-0.236,1.077
		c-0.277,0.38-0.705,0.67-1.116,0.919c-0.103,0.063-0.39-0.178-0.593-0.279c0.239-0.418,0.435-0.87,0.73-1.243
		c0.224-0.282,0.575-0.462,0.869-0.688C56.385,57.7,56.5,57.771,56.615,57.843z"/>
	<path fill-rule="evenodd" clip-rule="evenodd" fill="#FFFFFF" d="M60.76,29.492c0.568-0.507,1.106-1.057,1.726-1.49
		c0.154-0.107,0.571,0.162,0.867,0.257c-0.148,0.228-0.245,0.533-0.453,0.67c-0.565,0.374-1.177,0.677-1.771,1.007
		C61.006,29.789,60.883,29.641,60.76,29.492z"/>
	<path fill-rule="evenodd" clip-rule="evenodd" fill="#FFFFFF" d="M57.656,53.549c0.236-0.518,0.473-1.036,0.709-1.553
		c0.371,0.303,0.743,0.606,1.114,0.91c-0.456,0.345-0.913,0.69-1.369,1.035C57.959,53.81,57.808,53.68,57.656,53.549z"/>
	<path fill-rule="evenodd" clip-rule="evenodd" fill="#FFFFFF" d="M93.834,42.876c-0.473,0.547-0.682,0.882-0.977,1.101
		c-0.247,0.184-0.596,0.231-0.899,0.338c-0.069-0.286-0.259-0.614-0.177-0.847c0.094-0.264,0.396-0.544,0.667-0.633
		C92.753,42.736,93.125,42.842,93.834,42.876z"/>
	<path fill-rule="evenodd" clip-rule="evenodd" fill="#FFFFFF" d="M66.285,55.913c-0.612,0.155-1.224,0.311-1.836,0.466
		c-0.07-0.276-0.14-0.552-0.21-0.828c0.624-0.133,1.248-0.266,1.872-0.398C66.169,55.406,66.227,55.659,66.285,55.913z"/>
	<path fill-rule="evenodd" clip-rule="evenodd" fill="#FFFFFF" d="M95.236,68.213c0.3-0.813,0.421-1.799,1.846-1.554
		c-0.492,0.634-0.983,1.268-1.475,1.902C95.483,68.445,95.359,68.329,95.236,68.213z"/>
	<path fill-rule="evenodd" clip-rule="evenodd" fill="#FFFFFF" d="M52.55,78.292c-0.569,0.494-0.905,0.785-1.24,1.077
		c-0.187-0.243-0.553-0.517-0.518-0.723c0.047-0.279,0.36-0.624,0.635-0.72C51.652,77.849,51.99,78.094,52.55,78.292z"/>
	<path fill-rule="evenodd" clip-rule="evenodd" fill="#FFFFFF" d="M67.434,36.269c0.443-0.391,0.887-0.782,1.331-1.173
		c0.115,0.035,0.23,0.069,0.345,0.104c0,0.376,0.148,0.954-0.031,1.086c-0.38,0.279-0.932,0.325-1.412,0.467
		C67.589,36.591,67.512,36.43,67.434,36.269z"/>
	<path fill-rule="evenodd" clip-rule="evenodd" fill="#FFFFFF" d="M75.79,59.693c0.305-0.768,0.332-1.64,1.656-1.401
		C76.88,58.855,77.084,59.971,75.79,59.693z"/>
	<path fill-rule="evenodd" clip-rule="evenodd" fill="#FFFFFF" d="M89.632,85.99c0.508-0.473,1.014-0.944,1.725-1.606
		C91.302,85.802,90.897,86.201,89.632,85.99z"/>
	<path fill-rule="evenodd" clip-rule="evenodd" fill="#FFFFFF" d="M80.915,75.777c0.341,1.379-0.18,1.933-1.449,1.637
		C79.958,76.858,80.381,76.381,80.915,75.777z"/>
	<path fill-rule="evenodd" clip-rule="evenodd" fill="#FFFFFF" d="M67.677,67.773c0.006-0.11-0.033-0.261,0.025-0.325
		c0.344-0.383,0.709-0.747,1.067-1.117c0.118,0.168,0.37,0.442,0.333,0.489c-0.344,0.436-0.737,0.833-1.117,1.24
		C67.883,67.965,67.78,67.87,67.677,67.773z"/>
	<path fill-rule="evenodd" clip-rule="evenodd" fill="#FFFFFF" d="M91.397,65.364c-0.381,0.376-0.753,0.763-1.161,1.108
		c-0.03,0.025-0.318-0.256-0.486-0.395c0.418-0.379,0.835-0.759,1.252-1.139C91.134,65.081,91.266,65.223,91.397,65.364z"/>
	<path fill-rule="evenodd" clip-rule="evenodd" fill="#FFFFFF" d="M72.836,86.365c0.392-0.4,0.782-0.8,1.174-1.2
		c0.291,1.084-0.118,1.483-0.8,1.622C73.085,86.646,72.96,86.506,72.836,86.365z"/>
</g>
</svg>
