<?xml version="1.0" encoding="utf-8"?>
<!-- Generator: Adobe Illustrator 16.0.0, SVG Export Plug-In . SVG Version: 6.00 Build 0)  -->
<!DOCTYPE svg PUBLIC "-//W3C//DTD SVG 1.1//EN" "http://www.w3.org/Graphics/SVG/1.1/DTD/svg11.dtd">
<svg version="1.1" id="Layer_1" xmlns="http://www.w3.org/2000/svg" xmlns:xlink="http://www.w3.org/1999/xlink" x="0px" y="0px"
	 width="144px" height="144px" viewBox="0 0 144 144" enable-background="new 0 0 144 144" xml:space="preserve">
<g>
	<path fill="#FFFFFF" d="M27.963,68.117c0.104,0.021,0.208,0.043,0.312,0.065c-0.046,0.757-0.166,1.52-0.107,2.269
		c0.027,0.353,0.396,0.679,0.611,1.017c0.301-0.316,0.822-0.606,0.864-0.954c0.146-1.212,0.027-2.458,0.197-3.666
		c0.176-1.245,0.534-2.471,0.897-3.68c0.096-0.32,0.567-0.804,0.756-0.758c0.348,0.084,0.729,0.45,0.896,0.795
		c0.743,1.537,1.476,3.085,2.07,4.683c0.162,0.435,0.002,1.241-0.321,1.552c-0.642,0.618-1.54,0.961-2.253,1.519
		c-0.312,0.245-0.432,0.736-0.639,1.116c0.441,0.016,0.885,0.064,1.322,0.029c0.169-0.014,0.316-0.232,0.486-0.335
		c2.235-1.36,4.036-3.38,6.675-4.141c3.836-1.106,7.646-1.846,11.378,0.208c1.061,0.583,1.98,1.435,2.926,2.211
		c0.798,0.655,1.495,1.442,2.33,2.04c0.287,0.205,1.021,0.196,1.269-0.027c0.874-0.789,1.571-1.772,2.437-2.572
		c1.418-1.312,2.838-2.647,4.399-3.777c2.299-1.667,5.121-1.933,7.806-2.439c2.492-0.471,3.111,0.199,3.087,2.865
		c-0.058,6.095-0.118,12.188-0.192,18.283c-0.02,1.632-0.085,3.263-0.143,4.894c-0.086,2.415-0.127,4.834-0.292,7.244
		c-0.253,3.7-0.523,7.402-0.924,11.089c-0.252,2.318-0.541,4.676-1.228,6.888c-0.381,1.225-1.414,2.519-2.514,3.187
		c-1.673,1.015-5.265-0.645-6.054-2.546c-0.608-1.465-1.068-2.99-1.614-4.481c-0.088-0.239-0.319-0.646-0.422-0.627
		c-1.073,0.189-2.212,0.294-3.151,0.777c-0.315,0.162-0.309,1.394-0.113,2.034c0.923,3.02,2.84,5.407,5.236,7.374
		c1.665,1.367,3.552,2.487,5.754,2.706c1.071,0.105,2.274,0.062,3.255-0.326c2.562-1.012,4.072-3.091,5.354-5.498
		c2.252-4.227,3.576-8.725,3.932-13.426c0.288-3.805,0.105-7.661-0.093-11.483c-0.246-4.729-0.792-9.441-1.075-14.169
		c-0.137-2.299,0.109-4.619,0.028-6.925c-0.047-1.338-0.426-2.661-0.593-3.999c-0.038-0.302,0.152-0.887,0.295-0.906
		c0.342-0.045,0.843,0.058,1.058,0.299c0.95,1.068,1.887,2.16,2.706,3.33c0.932,1.33,1.287,1.364,2.196-0.026
		c1.512-2.312,2.971-4.709,6.04-5.175c1.061-0.161,2.311-0.525,3.188-0.144c2.009,0.875,3.786,2.166,4.649,4.407
		c0.378,0.982,1.055,0.933,1.681,0.047c0.539-0.763,0.848-1.75,2.002-1.897c0.168-0.021,0.352-0.398,0.419-0.641
		c0.327-1.169,2.116-2.159,3.271-1.758c0.899,0.312,1.83,0.581,2.661,1.029c0.597,0.323,1.194,0.824,1.538,1.398
		c0.68,1.134,1.213,2.36,1.751,3.572c0.448,1.009,1.495,1.75,1.311,3.076c-0.028,0.206,0.682,0.515,1.051,0.775
		c0.274-0.409,0.782-0.822,0.776-1.228c-0.014-0.916-0.245-1.836-0.452-2.74c-0.468-2.046-1.031-4.073-1.453-6.128
		c-0.744-3.63-1.237-7.321-2.168-10.899c-0.714-2.743-2.065-5.316-4.184-7.292c-3.007-2.807-5.674-5.966-9.174-8.271
		c-2.821-1.859-5.689-3.564-8.815-4.83c-0.703-0.285-1.469-0.437-2.134-0.787c-2.713-1.427-5.436-2.802-8.536-3.191
		c-0.589-0.074-0.917-0.364-1.067-1.054c-0.21-0.962-0.677-1.871-1.062-2.791c-0.231-0.556-0.569-0.736-1.231-0.5
		c-1.463,0.521-1.953,1.084-2.021,2.66c-0.028,0.653-0.011,1.291-0.95,1.359c-2.169,0.158-4.349,0.271-6.497,0.591
		c-1.715,0.255-3.461,0.605-5.068,1.233c-4.112,1.609-8.052,3.595-11.898,5.78c-3.696,2.1-7.19,4.421-9.98,7.681
		c-1.237,1.445-2.476,2.89-3.727,4.323c-0.306,0.351-0.78,0.597-0.981,0.991c-0.956,1.87-1.811,3.791-2.764,5.663
		c-1.189,2.337-2.635,4.564-3.598,6.987C28.59,63.971,28.402,66.094,27.963,68.117z"/>
	<path fill-rule="evenodd" clip-rule="evenodd" d="M27.963,68.117c0.439-2.023,0.626-4.146,1.38-6.043
		c0.963-2.422,2.409-4.65,3.598-6.987c0.953-1.872,1.808-3.792,2.764-5.663c0.201-0.394,0.675-0.64,0.981-0.991
		c1.251-1.433,2.49-2.877,3.727-4.323c2.79-3.259,6.284-5.581,9.98-7.681c3.847-2.185,7.786-4.171,11.898-5.78
		c1.607-0.628,3.353-0.979,5.068-1.233c2.147-0.32,4.327-0.433,6.497-0.591c0.939-0.068,0.922-0.706,0.95-1.359
		c0.068-1.576,0.559-2.139,2.021-2.66c0.662-0.236,1-0.056,1.231,0.5c0.385,0.92,0.852,1.829,1.062,2.791
		c0.15,0.69,0.479,0.98,1.067,1.054c3.101,0.389,5.823,1.764,8.536,3.191c0.665,0.35,1.431,0.502,2.134,0.787
		c3.126,1.266,5.994,2.971,8.815,4.83c3.5,2.306,6.167,5.464,9.174,8.271c2.118,1.977,3.47,4.549,4.184,7.292
		c0.931,3.579,1.424,7.27,2.168,10.899c0.422,2.056,0.985,4.082,1.453,6.128c0.207,0.904,0.438,1.824,0.452,2.74
		c0.006,0.405-0.502,0.818-0.776,1.228c-0.369-0.261-1.079-0.569-1.051-0.775c0.185-1.326-0.862-2.067-1.311-3.076
		c-0.538-1.212-1.071-2.438-1.751-3.572c-0.344-0.574-0.941-1.075-1.538-1.398c-0.831-0.449-1.762-0.717-2.661-1.029
		c-1.155-0.401-2.944,0.589-3.271,1.758c-0.067,0.243-0.251,0.62-0.419,0.641c-1.154,0.148-1.463,1.134-2.002,1.897
		c-0.626,0.886-1.303,0.935-1.681-0.047c-0.863-2.241-2.641-3.532-4.649-4.407c-0.878-0.382-2.128-0.018-3.188,0.144
		c-3.069,0.466-4.528,2.863-6.04,5.175c-0.909,1.39-1.265,1.356-2.196,0.026c-0.819-1.169-1.756-2.262-2.706-3.33
		c-0.215-0.241-0.716-0.344-1.058-0.299c-0.143,0.019-0.333,0.604-0.295,0.906c0.167,1.338,0.546,2.661,0.593,3.999
		c0.081,2.306-0.165,4.626-0.028,6.925c0.283,4.728,0.829,9.44,1.075,14.169c0.198,3.822,0.381,7.679,0.093,11.483
		c-0.355,4.701-1.68,9.199-3.932,13.426c-1.282,2.407-2.793,4.486-5.354,5.498c-0.981,0.388-2.184,0.432-3.255,0.326
		c-2.202-0.219-4.089-1.339-5.754-2.706c-2.396-1.967-4.312-4.354-5.236-7.374c-0.196-0.641-0.203-1.872,0.113-2.034
		c0.939-0.483,2.079-0.588,3.151-0.777c0.103-0.019,0.334,0.388,0.422,0.627c0.546,1.491,1.006,3.017,1.614,4.481
		c0.789,1.901,4.381,3.561,6.054,2.546c1.1-0.668,2.133-1.962,2.514-3.187c0.687-2.212,0.976-4.569,1.228-6.888
		c0.4-3.687,0.671-7.389,0.924-11.089c0.165-2.41,0.206-4.829,0.292-7.244c0.058-1.631,0.123-3.262,0.143-4.894
		c0.074-6.095,0.135-12.188,0.192-18.283c0.024-2.666-0.595-3.336-3.087-2.865c-2.685,0.507-5.506,0.773-7.806,2.439
		c-1.561,1.13-2.98,2.465-4.399,3.777c-0.865,0.8-1.562,1.783-2.437,2.572c-0.248,0.224-0.982,0.232-1.269,0.027
		c-0.835-0.598-1.532-1.384-2.33-2.04c-0.945-0.776-1.865-1.628-2.926-2.211c-3.733-2.054-7.542-1.314-11.378-0.208
		c-2.64,0.761-4.44,2.781-6.675,4.141c-0.17,0.104-0.317,0.322-0.486,0.335c-0.437,0.035-0.881-0.014-1.322-0.029
		c0.207-0.379,0.327-0.871,0.639-1.116c0.713-0.558,1.611-0.901,2.253-1.519c0.324-0.312,0.483-1.117,0.321-1.552
		c-0.594-1.598-1.327-3.146-2.07-4.683c-0.167-0.345-0.547-0.711-0.896-0.795c-0.189-0.046-0.66,0.438-0.756,0.758
		c-0.363,1.209-0.721,2.435-0.897,3.68c-0.17,1.207-0.051,2.453-0.197,3.666c-0.042,0.347-0.563,0.637-0.864,0.954
		c-0.215-0.338-0.584-0.665-0.611-1.017c-0.059-0.749,0.061-1.512,0.107-2.269C28.172,68.16,28.068,68.138,27.963,68.117z
		 M56.66,67.67c0,0.638-0.045,0.927,0.01,1.195c0.088,0.431,0.244,0.848,0.37,1.271c0.396-0.225,0.848-0.389,1.178-0.688
		c0.798-0.721,1.484-1.575,2.318-2.248c1.356-1.094,2.723-2.206,4.215-3.094c2.044-1.216,4.395-1.559,6.717-1.936
		c2.201-0.356,4.367-0.788,6.473,0.461c1.115,0.661,2.498,0.947,3.473,1.751c1.299,1.072,2.298,2.501,3.471,3.734
		c0.259,0.271,0.709,0.361,1.071,0.535c0.092-0.359,0.372-0.82,0.243-1.062c-0.7-1.307-0.299-2.703-0.472-4.042
		c-0.509-3.94-1.11-7.87-1.763-11.789c-0.372-2.231-0.709-4.506-1.447-6.627c-0.622-1.788-0.543-3.931-2.23-5.29
		c-0.093-0.074-0.135-0.334-0.079-0.449c0.859-1.786-0.089-3.242-0.835-4.74c-0.644-1.292-1.076-1.531-2.334-0.839
		c-0.999,0.55-1.809,1.433-2.782,2.039c-2.564,1.595-4.395,3.896-6.252,6.197c-0.7,0.868-0.76,2.296-2.178,2.56
		c-0.09,0.017-0.17,0.166-0.227,0.269c-0.637,1.149-1.36,2.262-1.886,3.46c-1.616,3.677-3.088,7.418-4.747,11.075
		C57.715,62.174,57.025,65.045,56.66,67.67z M113.845,65.887c-0.037-0.737-0.013-1.284-0.101-1.812
		c-0.382-2.323-0.8-4.64-1.198-6.96c-0.505-2.943-1.336-5.817-3.191-8.167c-1.649-2.089-3.596-3.959-5.527-5.805
		c-1.466-1.4-3.032-2.729-4.702-3.873c-2.194-1.503-4.476-2.904-6.83-4.14c-1.927-1.011-4.015-1.714-6.03-2.555
		c-1.36-0.567-2.684-1.275-4.095-1.646c-0.696-0.183-1.555,0.258-2.34,0.416c0.313,0.558,0.53,1.205,0.955,1.658
		c2.155,2.295,4.437,4.476,6.528,6.826c1.285,1.444,2.341,3.099,3.443,4.698c1.9,2.751,3.863,5.468,5.606,8.319
		c2.114,3.456,4.01,7.044,6.035,10.556c0.723,1.253,1.121,1.247,2.431,0.669c0.956-0.422,2.068-0.931,3.032-0.803
		c1.936,0.256,3.974,0.581,5.272,2.384C113.205,65.749,113.413,65.749,113.845,65.887z M55.829,63.964
		c-1.254,0.347-1.967-0.116-2.375-1.158c-0.333-0.852-0.715-1.684-1.06-2.532c-2.295-5.639-4.594-11.276-6.86-16.926
		c-0.131-0.328,0.018-0.767,0.036-1.155c0.342,0.246,0.857,0.418,0.997,0.75c0.632,1.493,1.143,3.037,1.726,4.552
		c1.414,3.679,2.793,7.373,4.292,11.018c0.54,1.312,1.287,2.57,2.131,3.71c0.28,0.378,1.162,0.312,1.768,0.449
		c0.202-1.185,0.89-2.561,0.514-3.518c-1.161-2.956-2.786-5.725-4.119-8.618c-1.16-2.519-2.18-5.103-3.222-7.674
		c-0.082-0.203,0.077-0.685,0.248-0.762c0.197-0.089,0.666,0.042,0.782,0.227c0.335,0.534,0.605,1.125,0.81,1.724
		c1.486,4.344,3.06,8.65,5.505,12.57c0.242,0.388,0.701,0.641,1.06,0.957c0.396-0.568,0.868-1.1,1.156-1.717
		c0.154-0.331,0.111-1.108-0.049-1.172c-1.181-0.477-1.285-1.609-1.804-2.528c-2.098-3.717-3.331-7.76-4.631-11.781
		c-0.088-0.272,0.166-0.654,0.26-0.986c0.247,0.188,0.63,0.327,0.717,0.571c0.601,1.686,1.04,3.434,1.723,5.083
		c1.109,2.68,2.318,5.322,3.584,7.932c0.458,0.945,1.083,0.881,1.501-0.087c0.535-1.238,0.826-2.598,1.473-3.766
		c0.741-1.337,0.612-2.381,0.094-3.834c-1.198-3.366-2.005-6.877-2.841-10.361c-0.241-1.003-0.689-1.073-1.417-0.788
		c-1.122,0.439-2.284,0.837-3.309,1.453c-3.337,2.004-6.99,3.52-9.726,6.466c-1.262,1.359-2.774,2.484-4.152,3.738
		c-1.062,0.966-1.046,1.112-0.051,2.157c0.162,0.17,0.297,0.383,0.394,0.598c1.038,2.323,2.009,4.679,3.11,6.971
		c1.273,2.65,2.583,5.29,4.03,7.847c0.625,1.106,1.005,2.639,2.712,2.729c0.365,0.019,0.734-0.054,1.102-0.085
		c-0.048-0.382-0.012-0.801-0.16-1.139c-0.565-1.296-1.188-2.567-1.794-3.845c-1.464-3.087-2.937-6.171-4.397-9.26
		c-0.895-1.893-1.773-3.793-2.67-5.715c0.908-0.664,1.285-0.239,1.616,0.484c2.558,5.578,5.142,11.144,7.684,16.73
		c0.418,0.918,0.951,1.924,0.917,2.872c-0.039,1.134,0.693,1.54,1.284,2.116c0.09,0.088,0.867-0.229,0.907-0.438
		C55.553,66.619,55.657,65.393,55.829,63.964z M63.499,117.204c-0.022,1.503,0.907,2.005,1.638,2.54
		c3.966,2.903,8.179,3.31,11.212-1.771c1.01-1.692,1.79-3.526,2.613-5.323c2.047-4.467,2.398-9.255,2.252-14.044
		c-0.156-5.093-0.723-10.173-1.039-15.263c-0.194-3.126-0.179-6.267-0.4-9.391c-0.21-2.957-0.541-5.911-0.99-8.84
		c-0.068-0.45-1.053-0.759-1.613-1.133c-0.172,0.455-0.479,0.906-0.494,1.367c-0.08,2.549-0.069,5.101-0.127,7.651
		c-0.081,3.581-0.217,7.16-0.289,10.741c-0.066,3.313,0.05,6.636-0.145,9.94c-0.307,5.211-0.753,10.415-1.252,15.611
		c-0.182,1.888-0.459,3.824-1.085,5.601c-1.298,3.682-5.032,5.993-8.998,2.885C64.476,117.537,64.055,117.446,63.499,117.204z
		 M46.128,65.032c1.241,0.01,1.507-0.4,0.919-1.547c-1.338-2.612-2.748-5.188-4.057-7.814c-1.1-2.206-2.077-4.472-3.168-6.682
		c-0.151-0.305-0.651-0.634-0.976-0.62c-0.947,0.04-1.829,1.931-1.454,2.816c1.404,3.317,2.842,6.624,4.128,9.987
		C42.39,63.442,44.102,65.017,46.128,65.032z M67.077,32.935c0.15-0.009,0.3-0.018,0.45-0.026c0.136,0.56,0.314,1.112,0.396,1.68
		c0.086,0.591-0.061,1.251,0.151,1.778c0.235,0.586,0.687,1.16,1.199,1.52c0.181,0.126,0.959-0.29,1.215-0.64
		c0.643-0.882,1.418-1.524,2.384-2.019c0.225-0.115,0.384-0.723,0.288-1.008c-0.124-0.37-0.534-0.643-0.82-0.958
		c-0.253,0.258-0.547,0.486-0.746,0.781c-0.242,0.36-0.351,0.816-0.616,1.152c-0.211,0.266-0.608,0.609-0.857,0.563
		c-0.296-0.055-0.683-0.454-0.749-0.764c-0.147-0.696-0.158-1.429-0.153-2.146c0.005-0.7,0.207-1.09,1.024-0.593
		c0.271,0.165,0.959,0.115,1.11-0.091c0.306-0.416,0.428-1,0.486-1.53c0.009-0.086-0.732-0.412-1.078-0.352
		c-2.149,0.372-4.296,0.776-6.414,1.292c-0.349,0.085-0.851,0.847-0.773,1.177c0.601,2.559,1.293,5.097,2.05,7.615
		c0.102,0.337,0.719,0.521,1.097,0.775c0.314-0.5,0.924-1.021,0.888-1.494c-0.135-1.763-0.511-3.507-0.73-5.267
		C66.822,33.912,67.004,33.416,67.077,32.935z M41.029,65.925c0.391-0.231,0.912-0.442,1.28-0.807
		c0.13-0.129-0.047-0.666-0.193-0.962c-1.16-2.347-2.371-4.668-3.513-7.023c-0.496-1.022-0.82-2.128-1.307-3.155
		c-0.274-0.579-0.723-1.076-1.093-1.61c-0.327,0.412-0.757,0.78-0.955,1.247c-0.245,0.578-0.555,1.323-0.382,1.847
		c0.536,1.636,1.413,3.162,1.922,4.804c0.661,2.131,2.069,3.722,3.429,5.37C40.342,65.788,40.644,65.795,41.029,65.925z
		 M59.782,33.518c0.062,0.1,0.125,0.2,0.187,0.3c0.071,0.433,0.106,0.876,0.218,1.298c0.807,3.029,1.62,6.057,2.457,9.077
		c0.163,0.588,0.529,1.033,1.241,0.733c0.708-0.298,1.451-1.982,1.232-2.719c-0.875-2.945-1.757-5.888-2.624-8.835
		c-0.147-0.501-0.206-1.175-0.933-0.914C60.923,32.687,60.371,33.155,59.782,33.518z M38.695,66.094
		c-0.236-0.314-0.436-0.602-0.658-0.871c-0.371-0.45-0.888-0.83-1.111-1.341c-0.781-1.794-1.439-3.642-2.192-5.449
		c-0.355-0.853-1.243-0.932-1.709-0.14c-0.418,0.71-0.834,1.485-0.956,2.276c-0.053,0.346,0.64,0.798,0.978,1.215
		c0.123,0.152,0.218,0.335,0.292,0.518c0.443,1.098,0.928,2.183,1.303,3.305c0.686,2.058,1.142,2.282,3.072,1.354
		c0.179-0.086,0.384-0.145,0.528-0.272C38.406,66.544,38.515,66.337,38.695,66.094z M93.421,57.908
		c0.436,0.597,0.96,1.328,1.503,2.046c0.087,0.114,0.246,0.188,0.388,0.24c0.105,0.039,0.244,0.04,0.354,0.009
		c1.253-0.346,1.822,0.336,2.229,1.388c0.09,0.229,0.513,0.328,0.782,0.487c0.024-0.329,0.168-0.714,0.047-0.977
		c-0.209-0.453-0.708-0.788-0.862-1.247c-0.505-1.5-1.437-2.635-2.705-3.526c-0.784-0.551-0.887-1.131-0.212-1.875
		c0.575-0.634-0.015-2.347-0.845-2.502c-0.166-0.031-0.458,0.123-0.552,0.277c-0.556,0.911-1.078,1.843-1.597,2.777
		c-0.486,0.876-0.275,1.412,0.656,1.484C93.423,56.552,93.675,56.905,93.421,57.908z M86.349,58.513c0.06,0.03,0.12,0.06,0.181,0.09
		c0,0.12-0.031,0.25,0.006,0.357c0.131,0.386,0.284,0.764,0.43,1.145c0.327-0.283,0.721-0.517,0.969-0.858
		c0.793-1.092,1.534-2.221,2.29-3.34c0.516-0.765,1.21-1.458,0.89-2.542c-0.053-0.18,0.161-0.512,0.342-0.672
		c0.474-0.421,1.045-0.74,1.48-1.193c0.227-0.235,0.382-0.69,0.328-1.005c-0.069-0.41-0.339-0.807-0.593-1.159
		c-0.365-0.507-0.666-0.549-1.046,0.094c-1.433,2.423-2.941,4.801-4.392,7.214C86.88,57.231,86.641,57.888,86.349,58.513z
		 M85.507,54.728c0.223,0.625,0.374,1.048,0.525,1.471c0.36-0.258,0.831-0.442,1.062-0.787c0.799-1.189,1.444-2.485,2.28-3.645
		c0.86-1.192,0.62-2.903,1.914-3.889c0.099-0.076-0.187-0.656-0.293-1.001c-0.307,0.125-0.742,0.161-0.901,0.389
		c-1.101,1.584-2.173,3.189-3.194,4.826C86.365,52.947,85.951,53.877,85.507,54.728z M86.488,41.134
		c-0.407,0.68-0.792,1.273-1.127,1.894c-0.627,1.163-1.211,2.353-0.791,3.73c0.081,0.266,0.324,0.482,0.492,0.721
		c0.205-0.157,0.471-0.275,0.604-0.479c0.584-0.889,1.085-1.835,1.697-2.703C88.304,42.968,88.08,42.015,86.488,41.134z
		 M85.061,50.772c0.266,0.42,0.478,0.753,0.688,1.086c0.304-0.259,0.656-0.48,0.902-0.786c1.335-1.661,1.882-3.696,2.582-5.651
		c0.085-0.237-0.156-0.628-0.334-0.89c-0.037-0.056-0.564,0.071-0.676,0.24c-0.56,0.846-1.097,1.713-1.563,2.613
		C86.099,48.466,85.615,49.587,85.061,50.772z M91.383,58.634c-0.092-0.128-0.185-0.257-0.277-0.386
		c-0.524,0.181-1.276,0.204-1.532,0.571c-0.922,1.327-1.703,2.756-2.466,4.184c-0.113,0.212,0.153,0.628,0.244,0.949
		c0.312-0.163,0.724-0.249,0.916-0.502c0.645-0.846,1.227-1.743,1.804-2.639C90.53,60.099,90.947,59.36,91.383,58.634z
		 M102.604,65.955c-0.657-1.042-1.195-1.959-1.806-2.827c-0.222-0.315-0.783-0.781-0.903-0.708
		c-0.449,0.273-0.896,0.689-1.109,1.158c-0.109,0.24,0.216,0.756,0.455,1.059c0.484,0.61,1.024,1.181,1.58,1.728
		c0.274,0.271,0.761,0.707,0.932,0.623C102.104,66.813,102.31,66.341,102.604,65.955z M63.207,116.991
		c0.011-0.208,0.057-0.34,0.018-0.438c-0.617-1.572-1.209-3.156-1.905-4.693c-0.122-0.271-0.687-0.342-1.047-0.505
		c-0.157,0.364-0.53,0.808-0.431,1.079c0.389,1.068,0.811,2.162,1.45,3.089C61.712,116.132,61.879,117.311,63.207,116.991z
		 M90.097,63.602c1.639,0.19,2.408-0.327,2.523-1.746c0.02-0.246-0.415-0.752-0.64-0.751C91.38,61.105,90.141,62.818,90.097,63.602z
		 M75.839,27.581c0.397,0.525,0.653,1.214,1.018,1.276c0.929,0.159,0.762-0.673,0.758-1.232c-0.004-0.665,0.059-1.521-0.866-1.513
		C76.474,26.115,76.207,26.958,75.839,27.581z M82.825,42.487c0.402,0.548,0.615,0.837,0.828,1.126
		c0.422-0.666,0.87-1.318,1.234-2.015c0.049-0.092-0.332-0.409-0.514-0.623C83.884,41.455,83.394,41.933,82.825,42.487z
		 M96.722,63.263c0.143-0.876,0.088-1.517-0.641-1.808c-0.184-0.074-0.763,0.3-0.819,0.547
		C95.021,63.032,95.934,62.907,96.722,63.263z M74.021,31.809c0.358-0.466,0.708-0.724,0.698-0.969
		c-0.008-0.213-0.42-0.411-0.654-0.616c-0.171,0.214-0.452,0.413-0.482,0.646C73.554,31.089,73.788,31.342,74.021,31.809z"/>
	<path fill-rule="evenodd" clip-rule="evenodd" fill="#FFFFFF" d="M56.66,67.67c0.365-2.625,1.055-5.497,2.307-8.255
		c1.659-3.657,3.131-7.398,4.747-11.075c0.526-1.199,1.249-2.311,1.886-3.46c0.057-0.103,0.137-0.252,0.227-0.269
		c1.418-0.264,1.478-1.692,2.178-2.56c1.857-2.301,3.688-4.602,6.252-6.197c0.974-0.606,1.783-1.489,2.782-2.039
		c1.258-0.692,1.69-0.454,2.334,0.839c0.746,1.499,1.694,2.955,0.835,4.74c-0.056,0.115-0.014,0.375,0.079,0.449
		c1.688,1.359,1.608,3.501,2.23,5.29c0.738,2.121,1.075,4.396,1.447,6.627c0.652,3.919,1.254,7.849,1.763,11.789
		c0.173,1.339-0.229,2.735,0.472,4.042c0.129,0.241-0.151,0.702-0.243,1.062c-0.362-0.173-0.812-0.263-1.071-0.535
		c-1.173-1.232-2.172-2.662-3.471-3.734c-0.975-0.804-2.357-1.09-3.473-1.751c-2.106-1.249-4.272-0.817-6.473-0.461
		c-2.322,0.377-4.673,0.72-6.717,1.936c-1.492,0.888-2.859,2-4.215,3.094c-0.834,0.673-1.52,1.527-2.318,2.248
		c-0.331,0.299-0.782,0.462-1.178,0.688c-0.126-0.423-0.282-0.84-0.37-1.271C56.615,68.598,56.66,68.309,56.66,67.67z"/>
	<path fill-rule="evenodd" clip-rule="evenodd" fill="#FFFFFF" d="M113.845,65.887c-0.432-0.138-0.64-0.138-0.711-0.237
		c-1.299-1.803-3.337-2.128-5.272-2.384c-0.964-0.127-2.076,0.381-3.032,0.803c-1.31,0.578-1.708,0.584-2.431-0.669
		c-2.025-3.511-3.921-7.1-6.035-10.556c-1.743-2.851-3.706-5.567-5.606-8.319c-1.103-1.599-2.158-3.253-3.443-4.698
		c-2.092-2.35-4.373-4.531-6.528-6.826c-0.425-0.453-0.642-1.1-0.955-1.658c0.785-0.158,1.644-0.599,2.34-0.416
		c1.411,0.371,2.734,1.079,4.095,1.646c2.016,0.841,4.104,1.544,6.03,2.555c2.354,1.235,4.636,2.637,6.83,4.14
		c1.67,1.144,3.236,2.473,4.702,3.873c1.932,1.845,3.878,3.715,5.527,5.805c1.855,2.35,2.687,5.224,3.191,8.167
		c0.398,2.32,0.816,4.637,1.198,6.96C113.832,64.603,113.808,65.149,113.845,65.887z"/>
	<path fill-rule="evenodd" clip-rule="evenodd" fill="#FFFFFF" d="M55.829,63.964c-0.172,1.429-0.276,2.655-0.506,3.857
		c-0.04,0.21-0.817,0.526-0.907,0.438c-0.59-0.577-1.323-0.982-1.284-2.116c0.033-0.948-0.5-1.954-0.917-2.872
		c-2.542-5.586-5.125-11.152-7.684-16.73c-0.332-0.723-0.708-1.147-1.616-0.484c0.897,1.922,1.776,3.822,2.67,5.715
		c1.46,3.089,2.933,6.173,4.397,9.26c0.606,1.278,1.229,2.549,1.794,3.845c0.148,0.338,0.112,0.757,0.16,1.139
		c-0.367,0.031-0.737,0.104-1.102,0.085c-1.707-0.09-2.086-1.623-2.712-2.729c-1.447-2.557-2.756-5.197-4.03-7.847
		c-1.101-2.292-2.072-4.648-3.11-6.971c-0.096-0.215-0.231-0.428-0.394-0.598c-0.996-1.045-1.012-1.191,0.051-2.157
		c1.378-1.253,2.89-2.379,4.152-3.738c2.736-2.946,6.389-4.462,9.726-6.466c1.025-0.616,2.187-1.014,3.309-1.453
		c0.728-0.285,1.176-0.215,1.417,0.788c0.835,3.484,1.643,6.995,2.841,10.361c0.518,1.454,0.647,2.497-0.094,3.834
		c-0.647,1.167-0.938,2.528-1.473,3.766c-0.419,0.968-1.043,1.032-1.501,0.087c-1.266-2.61-2.476-5.252-3.584-7.932
		c-0.683-1.649-1.122-3.398-1.723-5.083c-0.087-0.245-0.471-0.384-0.717-0.571c-0.095,0.332-0.349,0.714-0.26,0.986
		c1.3,4.021,2.534,8.063,4.631,11.781c0.519,0.919,0.624,2.051,1.804,2.528c0.16,0.064,0.203,0.842,0.049,1.172
		c-0.288,0.617-0.761,1.149-1.156,1.717c-0.358-0.315-0.817-0.568-1.06-0.957c-2.446-3.92-4.02-8.226-5.505-12.57
		c-0.205-0.6-0.474-1.19-0.81-1.724c-0.116-0.184-0.585-0.316-0.782-0.227c-0.171,0.077-0.33,0.559-0.248,0.762
		c1.042,2.571,2.062,5.155,3.222,7.674c1.333,2.893,2.958,5.662,4.119,8.618c0.376,0.958-0.312,2.333-0.514,3.518
		c-0.606-0.137-1.488-0.07-1.768-0.449c-0.845-1.14-1.592-2.397-2.131-3.71c-1.498-3.645-2.878-7.338-4.292-11.018
		c-0.583-1.515-1.093-3.059-1.726-4.552c-0.14-0.332-0.655-0.504-0.997-0.75c-0.019,0.388-0.167,0.827-0.036,1.155
		c2.266,5.65,4.564,11.288,6.86,16.926c0.345,0.848,0.727,1.68,1.06,2.532C53.862,63.848,54.575,64.311,55.829,63.964z
		 M56.732,35.959c-0.145,0.029-0.29,0.059-0.435,0.088c-0.027,0.44-0.191,0.927-0.061,1.313c1.122,3.31,2.281,6.609,3.486,9.889
		c0.109,0.297,0.624,0.444,0.951,0.661c-0.024-0.361,0.059-0.775-0.089-1.076c-1.583-3.23-3.033-6.498-3.39-10.14
		C57.171,36.437,56.893,36.204,56.732,35.959z"/>
	<path fill-rule="evenodd" clip-rule="evenodd" fill="#FFFFFF" d="M63.499,117.204c0.556,0.242,0.977,0.333,1.282,0.572
		c3.966,3.108,7.7,0.797,8.998-2.885c0.626-1.776,0.903-3.713,1.085-5.601c0.499-5.196,0.945-10.4,1.252-15.611
		c0.194-3.305,0.078-6.627,0.145-9.94c0.072-3.581,0.208-7.16,0.289-10.741c0.058-2.55,0.047-5.102,0.127-7.651
		c0.015-0.46,0.322-0.912,0.494-1.367c0.561,0.374,1.545,0.683,1.613,1.133c0.449,2.929,0.78,5.883,0.99,8.84
		c0.222,3.124,0.206,6.265,0.4,9.391c0.316,5.09,0.883,10.17,1.039,15.263c0.146,4.789-0.205,9.577-2.252,14.044
		c-0.823,1.797-1.604,3.631-2.613,5.323c-3.033,5.08-7.246,4.674-11.212,1.771C64.406,119.209,63.477,118.707,63.499,117.204z"/>
	<path fill-rule="evenodd" clip-rule="evenodd" fill="#FFFFFF" d="M46.128,65.032c-2.027-0.016-3.739-1.59-4.607-3.861
		c-1.286-3.363-2.724-6.669-4.128-9.987c-0.375-0.885,0.507-2.776,1.454-2.816c0.325-0.014,0.825,0.315,0.976,0.62
		c1.091,2.21,2.068,4.476,3.168,6.682c1.309,2.626,2.718,5.203,4.057,7.814C47.635,64.632,47.369,65.042,46.128,65.032z"/>
	<path fill-rule="evenodd" clip-rule="evenodd" fill="#FFFFFF" d="M67.077,32.935c-0.072,0.481-0.255,0.977-0.197,1.443
		c0.219,1.759,0.595,3.503,0.73,5.267c0.036,0.473-0.574,0.995-0.888,1.494c-0.378-0.254-0.996-0.438-1.097-0.775
		c-0.756-2.518-1.449-5.056-2.05-7.615c-0.077-0.33,0.424-1.091,0.773-1.177c2.118-0.516,4.265-0.92,6.414-1.292
		c0.346-0.06,1.087,0.266,1.078,0.352c-0.058,0.53-0.181,1.114-0.486,1.53c-0.151,0.206-0.839,0.256-1.11,0.091
		c-0.817-0.498-1.019-0.107-1.024,0.593c-0.005,0.717,0.006,1.451,0.153,2.146c0.065,0.31,0.452,0.709,0.749,0.764
		c0.25,0.046,0.646-0.297,0.857-0.563c0.266-0.336,0.374-0.792,0.616-1.152c0.198-0.294,0.493-0.523,0.746-0.781
		c0.286,0.314,0.696,0.588,0.82,0.958c0.096,0.285-0.063,0.893-0.288,1.008c-0.965,0.495-1.741,1.137-2.384,2.019
		c-0.256,0.351-1.035,0.767-1.215,0.64c-0.512-0.36-0.963-0.934-1.199-1.52c-0.212-0.527-0.065-1.188-0.151-1.778
		c-0.083-0.567-0.261-1.12-0.396-1.68C67.376,32.917,67.227,32.926,67.077,32.935z"/>
	<path fill-rule="evenodd" clip-rule="evenodd" fill="#FFFFFF" d="M41.029,65.925c-0.385-0.13-0.687-0.138-0.812-0.29
		c-1.359-1.648-2.768-3.239-3.429-5.37c-0.509-1.642-1.386-3.168-1.922-4.804c-0.172-0.524,0.138-1.269,0.382-1.847
		c0.197-0.467,0.628-0.835,0.955-1.247c0.37,0.534,0.818,1.031,1.093,1.61c0.487,1.027,0.812,2.132,1.307,3.155
		c1.142,2.355,2.353,4.677,3.513,7.023c0.146,0.296,0.324,0.833,0.193,0.962C41.941,65.483,41.42,65.694,41.029,65.925z"/>
	<path fill-rule="evenodd" clip-rule="evenodd" fill="#FFFFFF" d="M59.782,33.518c0.589-0.363,1.141-0.831,1.778-1.061
		c0.727-0.261,0.785,0.413,0.933,0.914c0.867,2.947,1.749,5.891,2.624,8.835c0.219,0.737-0.523,2.421-1.232,2.719
		c-0.711,0.3-1.078-0.145-1.241-0.733c-0.837-3.021-1.65-6.048-2.457-9.077c-0.112-0.422-0.147-0.865-0.218-1.298
		C59.907,33.718,59.844,33.618,59.782,33.518z"/>
	<path fill-rule="evenodd" clip-rule="evenodd" fill="#FFFFFF" d="M38.695,66.094c-0.18,0.243-0.289,0.45-0.453,0.595
		c-0.144,0.127-0.349,0.186-0.528,0.272c-1.931,0.928-2.386,0.704-3.072-1.354c-0.375-1.122-0.859-2.207-1.303-3.305
		c-0.074-0.183-0.169-0.365-0.292-0.518c-0.337-0.417-1.03-0.869-0.978-1.215c0.121-0.791,0.538-1.566,0.956-2.276
		c0.466-0.792,1.354-0.713,1.709,0.14c0.753,1.807,1.412,3.654,2.192,5.449c0.223,0.511,0.74,0.891,1.111,1.341
		C38.259,65.492,38.458,65.779,38.695,66.094z"/>
	<path fill-rule="evenodd" clip-rule="evenodd" fill="#FFFFFF" d="M93.421,57.908c0.254-1.003,0.002-1.355-0.812-1.418
		c-0.932-0.072-1.143-0.608-0.656-1.484c0.519-0.934,1.041-1.866,1.597-2.777c0.094-0.154,0.386-0.309,0.552-0.277
		c0.83,0.155,1.42,1.868,0.845,2.502c-0.675,0.743-0.572,1.324,0.212,1.875c1.269,0.891,2.2,2.027,2.705,3.526
		c0.154,0.459,0.653,0.794,0.862,1.247c0.121,0.263-0.022,0.647-0.047,0.977c-0.27-0.159-0.692-0.258-0.782-0.487
		c-0.407-1.052-0.977-1.733-2.229-1.388c-0.11,0.03-0.249,0.029-0.354-0.009c-0.142-0.051-0.301-0.126-0.388-0.24
		C94.381,59.236,93.856,58.504,93.421,57.908z"/>
	<path fill-rule="evenodd" clip-rule="evenodd" fill="#FFFFFF" d="M86.349,58.513c0.292-0.625,0.531-1.282,0.885-1.869
		c1.45-2.413,2.959-4.792,4.392-7.214c0.38-0.643,0.681-0.601,1.046-0.094c0.254,0.352,0.523,0.749,0.593,1.159
		c0.054,0.315-0.102,0.77-0.328,1.005c-0.436,0.453-1.007,0.771-1.48,1.193c-0.181,0.161-0.395,0.493-0.342,0.672
		c0.32,1.083-0.374,1.776-0.89,2.542c-0.756,1.119-1.497,2.249-2.29,3.34c-0.248,0.341-0.642,0.576-0.969,0.858
		c-0.146-0.381-0.299-0.759-0.43-1.145c-0.037-0.107-0.006-0.237-0.006-0.357C86.469,58.572,86.408,58.542,86.349,58.513z"/>
	<path fill-rule="evenodd" clip-rule="evenodd" fill="#FFFFFF" d="M85.507,54.728c0.444-0.85,0.858-1.781,1.393-2.636
		c1.021-1.636,2.094-3.242,3.194-4.826c0.159-0.228,0.595-0.264,0.901-0.389c0.106,0.345,0.392,0.925,0.293,1.001
		c-1.294,0.985-1.054,2.696-1.914,3.889c-0.836,1.16-1.481,2.456-2.28,3.645c-0.23,0.345-0.701,0.529-1.062,0.787
		C85.881,55.775,85.729,55.352,85.507,54.728z"/>
	<path fill-rule="evenodd" clip-rule="evenodd" fill="#FFFFFF" d="M86.488,41.134c1.592,0.881,1.815,1.833,0.876,3.164
		c-0.612,0.868-1.113,1.813-1.697,2.703c-0.134,0.204-0.399,0.322-0.604,0.479c-0.168-0.239-0.411-0.455-0.492-0.721
		c-0.42-1.378,0.164-2.567,0.791-3.73C85.696,42.408,86.081,41.814,86.488,41.134z"/>
	<path fill-rule="evenodd" clip-rule="evenodd" fill="#FFFFFF" d="M85.061,50.772c0.555-1.186,1.038-2.307,1.6-3.387
		c0.467-0.9,1.004-1.767,1.563-2.613c0.111-0.169,0.639-0.296,0.676-0.24c0.178,0.261,0.419,0.653,0.334,0.89
		c-0.7,1.955-1.247,3.99-2.582,5.651c-0.246,0.306-0.599,0.527-0.902,0.786C85.538,51.526,85.326,51.192,85.061,50.772z"/>
	<path fill-rule="evenodd" clip-rule="evenodd" fill="#FFFFFF" d="M91.383,58.634c-0.436,0.727-0.853,1.465-1.312,2.177
		c-0.577,0.896-1.159,1.793-1.804,2.639c-0.192,0.253-0.604,0.34-0.916,0.502c-0.091-0.321-0.357-0.737-0.244-0.949
		c0.763-1.428,1.544-2.857,2.466-4.184c0.256-0.368,1.008-0.39,1.532-0.571C91.198,58.376,91.291,58.505,91.383,58.634z"/>
	<path fill-rule="evenodd" clip-rule="evenodd" fill="#FFFFFF" d="M102.604,65.955c-0.294,0.386-0.499,0.858-0.852,1.033
		c-0.171,0.084-0.657-0.352-0.932-0.623c-0.556-0.547-1.096-1.118-1.58-1.728c-0.239-0.303-0.564-0.819-0.455-1.059
		c0.214-0.469,0.66-0.885,1.109-1.158c0.12-0.073,0.682,0.394,0.903,0.708C101.408,63.995,101.946,64.913,102.604,65.955z"/>
	<path fill-rule="evenodd" clip-rule="evenodd" fill="#FFFFFF" d="M63.207,116.991c-1.328,0.319-1.495-0.859-1.915-1.469
		c-0.639-0.927-1.061-2.021-1.45-3.089c-0.099-0.271,0.274-0.715,0.431-1.079c0.36,0.163,0.925,0.234,1.047,0.505
		c0.695,1.537,1.288,3.121,1.905,4.693C63.264,116.651,63.218,116.783,63.207,116.991z"/>
	<path fill-rule="evenodd" clip-rule="evenodd" fill="#FFFFFF" d="M90.097,63.602c0.044-0.783,1.283-2.497,1.884-2.497
		c0.225,0,0.659,0.505,0.64,0.751C92.505,63.274,91.735,63.792,90.097,63.602z"/>
	<path fill-rule="evenodd" clip-rule="evenodd" fill="#FFFFFF" d="M75.839,27.581c0.368-0.623,0.635-1.466,0.909-1.469
		c0.925-0.008,0.862,0.848,0.866,1.513c0.004,0.559,0.171,1.392-0.758,1.232C76.492,28.795,76.236,28.106,75.839,27.581z"/>
	<path fill-rule="evenodd" clip-rule="evenodd" fill="#FFFFFF" d="M82.825,42.487c0.568-0.555,1.059-1.033,1.549-1.511
		c0.182,0.213,0.562,0.53,0.514,0.623c-0.364,0.696-0.812,1.349-1.234,2.015C83.44,43.324,83.228,43.035,82.825,42.487z"/>
	<path fill-rule="evenodd" clip-rule="evenodd" fill="#FFFFFF" d="M96.722,63.263c-0.788-0.356-1.7-0.231-1.46-1.261
		c0.057-0.247,0.636-0.621,0.819-0.547C96.81,61.746,96.864,62.387,96.722,63.263z"/>
	<path fill-rule="evenodd" clip-rule="evenodd" fill="#FFFFFF" d="M74.021,31.809c-0.232-0.467-0.467-0.72-0.438-0.939
		c0.03-0.232,0.312-0.432,0.482-0.646c0.234,0.205,0.646,0.402,0.654,0.616C74.729,31.085,74.379,31.343,74.021,31.809z"/>
	<path fill-rule="evenodd" clip-rule="evenodd" d="M56.732,35.959c0.161,0.245,0.438,0.478,0.464,0.736
		c0.357,3.643,1.807,6.91,3.39,10.14c0.147,0.301,0.064,0.715,0.089,1.076c-0.327-0.217-0.842-0.364-0.951-0.661
		c-1.206-3.28-2.364-6.579-3.486-9.889c-0.131-0.387,0.033-0.874,0.061-1.313C56.443,36.018,56.588,35.988,56.732,35.959z"/>
</g>
</svg>
