<?xml version="1.0" encoding="utf-8"?>
<!-- Generator: Adobe Illustrator 16.0.0, SVG Export Plug-In . SVG Version: 6.00 Build 0)  -->
<!DOCTYPE svg PUBLIC "-//W3C//DTD SVG 1.1//EN" "http://www.w3.org/Graphics/SVG/1.1/DTD/svg11.dtd">
<svg version="1.1" id="Layer_1" xmlns="http://www.w3.org/2000/svg" xmlns:xlink="http://www.w3.org/1999/xlink" x="0px" y="0px"
	 width="144px" height="144px" viewBox="0 0 144 144" enable-background="new 0 0 144 144" xml:space="preserve">
<g>
	<path fill="#FFFFFF" d="M92.031,125.623c0-1.61-0.003-2.938,0.001-4.268c0.015-6.062,0.023-12.125,0.053-18.188
		c0.013-2.789,0.003-5.58,0.127-8.365c0.093-2.091,0.519-4.172,0.549-6.261c0.04-2.71-0.16-5.424-0.27-8.136
		c-0.018-0.438-0.081-0.875-0.143-1.309c-0.271-1.889-0.526-3.78-0.835-5.663c-0.225-1.366-0.401-2.759-0.819-4.07
		c-0.669-2.102-1.436-4.181-2.313-6.204c-1.362-3.141-2.792-6.25-5.304-8.716c-1.252-1.229-2.282-2.569-2.178-4.559
		c0.066-1.277-0.32-2.579-0.505-3.869c-0.463-3.244-0.929-6.487-1.385-9.732c-0.056-0.394-0.021-0.801-0.091-1.191
		c-0.488-2.699-1.096-5.4,0.547-7.953c0.06-0.093,0.08-0.226,0.079-0.34c-0.016-2.26-0.008-4.52-0.067-6.778
		c-0.037-1.408-0.201-2.813-0.259-4.221c-0.026-0.653,0.308-1.378-0.567-1.755c-0.612-0.263-1.185-0.677-1.819-0.816
		c-1.359-0.296-2.743-0.49-4.125-0.666c-1.529-0.194-3.067-0.431-4.602-0.431c-0.79,0-1.723,0.162-1.784,1.448
		c-0.16,3.376,0.875,6.577,1.301,9.864c0.239,1.841,0.555,3.677,0.687,5.526c0.116,1.63,0.011,3.274,0.031,4.912
		c0.012,0.946,0.123,1.891,0.115,2.836c-0.021,2.411-0.233,4.831-0.083,7.229c0.134,2.161-0.221,4.188-1.042,6.119
		c-0.678,1.594-1.504,3.155-2.477,4.587c-1.622,2.388-3.455,4.631-5.119,6.991c-1.135,1.609-2.751,2.763-3.766,4.53
		c-1.254,2.186-2.266,4.448-2.971,6.826c-0.681,2.296-1.139,4.668-1.548,7.032c-0.402,2.318-0.697,4.663-0.893,7.009
		c-0.139,1.675-0.094,3.372-0.027,5.055c0.091,2.291,0.324,4.577,0.416,6.868c0.087,2.185,0.032,4.375,0.12,6.56
		c0.041,1.013,0.327,2.014,0.402,3.027c0.087,1.183-0.248,2.495,0.161,3.53c0.656,1.665,0.33,3.282,0.417,4.926
		c0.098,1.857,0.377,3.704,0.535,5.56c0.123,1.443-0.027,1.579-1.5,1.576c-1.64-0.003-3.28-0.004-4.918-0.037
		c-2.796-0.057-5.592-0.138-8.388-0.209c-2.301-0.059-4.602-0.141-6.903-0.167c-0.866-0.011-1.864-0.303-2.443,0.726
		c0.719,1.307,1.746,0.619,2.731,0.581c2.634-0.1,5.275-0.117,7.91-0.034c5.247,0.164,10.506-0.396,15.749,0.449
		c1.601,0.258,3.311-0.248,4.97-0.243c2.579,0.009,5.159,0.132,7.735,0.261c0.612,0.03,1.211,0.378,1.821,0.394
		c0.808,0.021,1.622-0.219,2.431-0.199c0.827,0.02,1.65,0.217,2.475,0.337c-0.006,0.123-0.011,0.246-0.017,0.368
		c-0.197,0.084-0.392,0.229-0.593,0.24c-2.049,0.116-4.098,0.226-6.149,0.307c-1.434,0.057-2.871,0.034-4.305,0.101
		c-3.097,0.144-6.192,0.435-9.29,0.454c-3.341,0.021-6.708,0.516-10.028-0.312c-0.181-0.045-0.394,0.025-0.59,0.052
		c-1.036,0.135-2.075,0.251-3.105,0.421c-0.475,0.078-0.931,0.264-1.617,0.467c1.131,1.068,2.188,0.869,3.197,0.812
		c2.236-0.128,4.469-0.326,6.707-0.432c3.188-0.149,6.378-0.224,9.567-0.362c3.864-0.168,7.727-0.373,11.59-0.559
		c2.99-0.144,5.98-0.268,8.969-0.428c2.267-0.121,4.53-0.402,6.794-0.401c2.82,0.002,5.65,0.114,8.458,0.375
		c3.182,0.296,6.345,0.525,9.538,0.187c0.814-0.086,1.671,0.106,2.495,0.248c2.287,0.393,4.566,0.83,6.852,1.233
		c0.178,0.031,0.39-0.045,0.568-0.116c0.797-0.32,1.386-0.28,1.893,0.59c0.524,0.901,1.636,1.056,2.044,0.246
		c0.57-1.132,1.414-0.933,2.289-0.905c0.837,0.025,1.674,0.156,2.506,0.127c0.341-0.012,0.671-0.323,1.006-0.498
		c-0.313-0.195-0.618-0.545-0.94-0.561c-3.068-0.152-6.14-0.228-9.208-0.385c-0.392-0.021-0.767-0.381-1.149-0.583
		c0.384-0.234,0.77-0.674,1.152-0.672c3.232,0.021,6.465,0.129,9.697,0.189c0.32,0.006,0.644-0.131,0.965-0.201
		C112.926,124.322,102.343,125.366,92.031,125.623z"/>
	<path fill-rule="evenodd" clip-rule="evenodd" d="M92.031,125.623c10.312-0.257,20.895-1.301,31.513,0.381
		c-0.321,0.07-0.645,0.207-0.965,0.201c-3.232-0.061-6.465-0.168-9.697-0.189c-0.383-0.002-0.769,0.438-1.152,0.672
		c0.383,0.202,0.758,0.562,1.149,0.583c3.068,0.157,6.14,0.232,9.208,0.385c0.322,0.016,0.627,0.365,0.94,0.561
		c-0.335,0.175-0.665,0.486-1.006,0.498c-0.832,0.029-1.669-0.102-2.506-0.127c-0.875-0.027-1.719-0.227-2.289,0.905
		c-0.408,0.81-1.52,0.655-2.044-0.246c-0.507-0.87-1.096-0.91-1.893-0.59c-0.179,0.071-0.391,0.147-0.568,0.116
		c-2.285-0.403-4.564-0.841-6.852-1.233c-0.824-0.142-1.681-0.334-2.495-0.248c-3.193,0.339-6.356,0.109-9.538-0.187
		c-2.808-0.261-5.638-0.373-8.458-0.375c-2.264-0.001-4.527,0.28-6.794,0.401c-2.988,0.16-5.979,0.284-8.969,0.428
		c-3.863,0.186-7.726,0.391-11.59,0.559c-3.188,0.139-6.379,0.213-9.567,0.362c-2.237,0.105-4.47,0.304-6.707,0.432
		c-1.008,0.058-2.065,0.257-3.197-0.812c0.686-0.203,1.143-0.389,1.617-0.467c1.03-0.17,2.069-0.286,3.105-0.421
		c0.196-0.026,0.409-0.097,0.59-0.052c3.32,0.827,6.687,0.332,10.028,0.312c3.098-0.02,6.193-0.311,9.29-0.454
		c1.434-0.066,2.871-0.044,4.305-0.101c2.051-0.081,4.1-0.19,6.149-0.307c0.201-0.012,0.396-0.156,0.593-0.24
		c0.006-0.122,0.011-0.245,0.017-0.368c-0.824-0.12-1.647-0.317-2.475-0.337c-0.809-0.02-1.623,0.221-2.431,0.199
		c-0.61-0.016-1.208-0.363-1.821-0.394c-2.577-0.129-5.156-0.252-7.735-0.261c-1.66-0.005-3.369,0.501-4.97,0.243
		c-5.243-0.845-10.502-0.285-15.749-0.449c-2.635-0.083-5.276-0.065-7.91,0.034c-0.985,0.038-2.012,0.726-2.731-0.581
		c0.58-1.028,1.577-0.736,2.443-0.726c2.301,0.026,4.602,0.108,6.903,0.167c2.796,0.071,5.591,0.152,8.388,0.209
		c1.639,0.033,3.279,0.034,4.918,0.037c1.473,0.003,1.623-0.133,1.5-1.576c-0.158-1.855-0.437-3.702-0.535-5.56
		c-0.087-1.644,0.24-3.261-0.417-4.926c-0.408-1.035-0.073-2.348-0.161-3.53c-0.075-1.014-0.361-2.015-0.402-3.027
		c-0.087-2.185-0.032-4.375-0.12-6.56c-0.092-2.291-0.325-4.577-0.416-6.868c-0.067-1.683-0.112-3.38,0.027-5.055
		c0.195-2.346,0.49-4.69,0.893-7.009c0.41-2.364,0.867-4.736,1.548-7.032c0.706-2.378,1.717-4.641,2.971-6.826
		c1.015-1.767,2.63-2.92,3.766-4.53c1.665-2.36,3.497-4.604,5.119-6.991c0.973-1.432,1.799-2.993,2.477-4.587
		c0.821-1.93,1.176-3.958,1.042-6.119c-0.149-2.398,0.063-4.818,0.083-7.229c0.008-0.945-0.103-1.891-0.115-2.836
		c-0.021-1.638,0.085-3.282-0.031-4.912c-0.132-1.849-0.448-3.685-0.687-5.526c-0.426-3.288-1.461-6.488-1.301-9.864
		c0.061-1.287,0.994-1.448,1.784-1.448c1.534,0,3.072,0.237,4.602,0.431c1.382,0.175,2.766,0.369,4.125,0.666
		c0.635,0.139,1.207,0.553,1.819,0.816c0.875,0.376,0.541,1.102,0.567,1.755c0.058,1.408,0.222,2.813,0.259,4.221
		c0.06,2.258,0.052,4.519,0.067,6.778c0.001,0.114-0.02,0.247-0.079,0.34c-1.643,2.552-1.035,5.254-0.547,7.953
		c0.07,0.39,0.035,0.797,0.091,1.191c0.456,3.245,0.922,6.489,1.385,9.732c0.185,1.291,0.571,2.592,0.505,3.869
		c-0.104,1.99,0.926,3.33,2.178,4.559c2.512,2.466,3.941,5.576,5.304,8.716c0.878,2.023,1.645,4.103,2.313,6.204
		c0.418,1.311,0.595,2.704,0.819,4.07c0.309,1.883,0.563,3.774,0.835,5.663c0.062,0.434,0.125,0.871,0.143,1.309
		c0.109,2.712,0.31,5.426,0.27,8.136c-0.03,2.089-0.456,4.17-0.549,6.261c-0.124,2.785-0.114,5.576-0.127,8.365
		c-0.029,6.062-0.038,12.125-0.053,18.188C92.028,122.685,92.031,124.013,92.031,125.623z M86.197,105.161
		c0.873,0.271,2.033,0.639,3.201,0.987c0.995,0.296,1.472-0.023,1.461-1.061c-0.021-2.021-0.173-4.044-0.13-6.062
		c0.043-1.987,0.133-3.989,0.43-5.95c0.557-3.671,0.491-7.325,0.027-10.984c-0.05-0.39-0.375-0.999-0.666-1.06
		c-1.124-0.236-2.343-0.577-3.421-0.359c-3.038,0.613-5.906-0.424-8.843-0.675c-1.889-0.162-3.698-0.222-5.507,0.328
		c-0.188,0.057-0.476,0.334-0.447,0.435c0.063,0.229,0.265,0.537,0.464,0.584c0.329,0.076,0.722,0.039,1.05-0.065
		c4.21-1.344,7.06,0.694,8.685,4.571c0.875,2.088,0.76,4.607,0.993,6.941c0.111,1.104,0.15,2.262-0.059,3.342
		c-0.366,1.9-1.007,3.746-1.428,5.638c-1.003,4.507-6.476,5.558-9.447,3.437c-2.992-2.137-4.691-5.137-5.159-8.727
		c-0.382-2.93-0.19-5.908,0.985-8.654c0.672-1.569,1.591-3.151,2.785-4.34c0.92-0.916,0.076-1.426,0.034-2.082
		c-0.016-0.25-0.661-0.646-1.028-0.655c-1.717-0.047-3.438-0.003-5.156,0.051c-0.657,0.021-1.311,0.228-1.965,0.22
		c-1.38-0.016-2.76-0.125-4.141-0.178c-0.553-0.021-1.259,0.228-1.632-0.028c-1.235-0.849-2.529-0.504-3.815-0.437
		c-0.882,0.047-1.226,0.574-1.199,1.45c0.031,1.01,0.025,2.026-0.051,3.033c-0.095,1.254-0.407,2.502-0.394,3.751
		c0.021,2.097,0.227,4.192,0.353,6.288c0.207,3.448-0.136,6.907,0.493,10.358c0.425,2.333,0.361,4.752,0.569,7.128
		c0.106,1.218,0.651,2.493,0.416,3.622c-0.313,1.508-0.029,2.893,0.109,4.327c0.081,0.844,0.451,1.753,0.243,2.508
		c-0.29,1.052,0.129,1.235,0.929,1.266c0.918,0.034,1.84,0.027,2.759,0.007c1.331-0.028,2.639-2.144,1.906-3.253
		c-0.432-0.652-0.174-1.036-0.028-1.612c0.281-1.11,0.402-2.262,0.548-3.402c0.015-0.115-0.292-0.246-0.388-0.406
		c-0.421-0.701-1.323-1.651-1.124-2.077c0.465-0.992-0.215-1.342-0.628-1.911c0.417-0.464,0.829-0.847,1.151-1.294
		c0.78-1.082,0.382-1.932-0.9-2.062c-1.328-0.135-2.657-0.279-3.971-0.505c-0.329-0.056-0.696-0.387-0.866-0.691
		c-0.11-0.199,0.011-0.729,0.194-0.842c0.29-0.178,0.721-0.178,1.087-0.16c0.215,0.011,0.413,0.272,0.633,0.301
		c2.952,0.37,5.899,0.804,8.863,1.036c1.4,0.109,2.83-0.247,4.248-0.27c2.895-0.045,5.8,0.135,8.683-0.05
		c2.326-0.149,4.63-0.679,6.937-1.083C84.673,105.722,85.281,105.452,86.197,105.161z M52.842,78.487
		c1.603,0.185,3.083,0.388,4.57,0.519c1.533,0.136,3.084,0.112,4.606,0.316c3.239,0.434,6.41,0.405,9.476-0.9
		c0.153-0.065,0.375,0.027,0.564,0.055c0.997,0.144,1.989,0.362,2.99,0.419c1.943,0.11,3.894,0.093,5.837,0.199
		c1.464,0.081,2.932,0.211,4.38,0.429c1.524,0.229,2.98-0.706,4.549-0.102c0.701,0.271,1.236-0.363,1.155-1.115
		c-0.208-1.934-0.359-3.893-0.805-5.777c-0.528-2.234-1.229-4.445-2.058-6.587c-0.928-2.399-2.056-4.725-3.17-7.046
		c-0.182-0.377-0.982-0.885-1.097-0.799c-0.896,0.675-1.837,0.377-2.803,0.392c-1.888,0.029-3.183-1.13-4.601-2.04
		c-0.503-0.323-0.772-0.853-0.272-1.533c0.226-0.306,0.177-0.845,0.179-1.278c0.01-2.94,0.059-5.881-0.016-8.819
		c-0.121-4.847-0.326-9.692-0.498-14.538c-0.021-0.599-0.052-1.198-0.087-1.796c-0.046-0.795-0.42-0.954-1.117-0.609
		c-0.293,0.145-0.64,0.222-0.969,0.247c-1.027,0.078-2.06,0.1-3.087,0.187c-0.137,0.012-0.341,0.26-0.365,0.42
		c-0.262,1.786-0.702,3.578-0.687,5.365c0.023,2.848,0.466,5.691,0.519,8.54c0.04,2.126-0.306,4.257-0.378,6.39
		c-0.031,0.931,0.289,1.872,0.277,2.806c-0.019,1.56-0.222,3.116-0.253,4.676c-0.014,0.691,0.442,1.463,0.254,2.063
		c-0.295,0.939-0.169,1.71,0.059,2.621c0.308,1.23-0.542,1.764-1.805,1.369c-0.266-0.083-0.771,0.116-0.959,0.351
		c-0.996,1.251-1.965,2.532-1.499,4.316c0.062,0.236-0.043,0.593-0.199,0.795c-0.611,0.794-1.247,1.573-1.922,2.312
		c-0.868,0.951-1.782,1.859-2.677,2.785c0.824-0.343,1.449-0.544,2.182,0.217c0.722,0.75,0.212,1.479-0.076,1.933
		c-0.531,0.833-1.399,1.448-2.11,2.171c-0.602,0.612-1.129,0.236-1.334-0.273c-0.469-1.166-1.721-1.747-1.852-3.287
		c-0.113-1.342-0.32-2.367,0.691-3.468c0.519-0.565,0.987-1.67,0.778-2.298c-0.333-1.003-1.086-1.831-0.289-2.918
		c0.034-0.047-0.033-0.167-0.079-0.37c-0.52,0.481-1.096,0.806-1.364,1.298c-1.102,2.025-2.281,4.037-3.1,6.18
		C53.659,74.198,53.376,76.261,52.842,78.487z M61.141,123.673c2.612,0,4.944-0.039,7.275,0.01c3.18,0.068,6.357,0.227,9.537,0.289
		c0.562,0.012,1.125-0.271,1.695-0.38c0.392-0.075,0.808-0.158,1.193-0.103c0.746,0.106,1.473,0.353,2.219,0.457
		c0.627,0.087,1.291-0.041,1.901,0.093c1.078,0.236,2.121,0.625,3.192,0.902c1.221,0.316,2.415-0.49,2.474-1.757
		c0.076-1.659-0.033-3.327,0.033-4.987c0.079-1.942,0.32-3.878,0.379-5.819c0.038-1.303-0.049-2.621-0.238-3.908
		c-0.048-0.324-0.686-0.759-1.084-0.796c-1.288-0.12-2.591-0.105-3.888-0.094c-1.768,0.017-3.54,0.004-5.301,0.139
		c-2.886,0.222-5.759,0.624-8.646,0.812c-2.139,0.14-4.308-0.083-6.432,0.148c-0.785,0.085-1.694,0.869-2.154,1.586
		c-0.467,0.729-0.451,1.769-0.697,2.904c0.026,0.024,0.306,0.287,0.697,0.653c-1.803,1.593-0.762,3.214-0.096,4.806
		C62.536,120.258,61.881,121.862,61.141,123.673z M81.879,93.51c-0.523-2.268-0.777-5.015-2.803-7.09
		c-0.354-0.364-0.648-0.795-0.93-1.222c-1.171-1.778-3.277-2.416-5.082-1.547c-0.599,0.288-1.101,0.53-0.592,1.328
		c0.097,0.151-0.056,0.626-0.235,0.761c-1.083,0.81-1.896,1.767-2.163,3.14c-0.147,0.756-0.438,1.484-0.57,2.241
		c-0.198,1.135-0.616,2.34-0.41,3.414c0.636,3.326,2.355,6.111,4.621,8.648c2.284,2.558,4.628,1.206,5.985-0.828
		C81.388,99.826,81.858,96.872,81.879,93.51z M74.495,17.199c-1.851-0.101-3.38,1.953-3.166,4.072
		C72.496,19.769,73.496,18.484,74.495,17.199z M78.457,52.685c0.093-0.739,0.164-1.176,0.178-1.615
		c0.002-0.049-0.453-0.185-0.473-0.152c-0.223,0.39-0.539,0.797-0.563,1.215c-0.037,0.624,0.067,1.283,0.261,1.879
		c0.075,0.232,0.545,0.436,0.853,0.462c0.278,0.025,0.594-0.181,0.865-0.334c0.211-0.119,0.378-0.313,0.564-0.474
		c-0.174-0.192-0.314-0.452-0.53-0.56C79.207,52.903,78.759,52.79,78.457,52.685z M76.082,17.496c0.017,0,0.033,0,0.051,0
		c0,0.638-0.032,1.279,0.021,1.913c0.015,0.17,0.272,0.425,0.443,0.447c0.163,0.021,0.517-0.209,0.518-0.33
		c0.002-1.271-0.033-2.542-0.109-3.811c-0.009-0.142-0.34-0.374-0.509-0.364c-0.146,0.009-0.379,0.292-0.396,0.471
		C76.049,16.375,76.082,16.938,76.082,17.496z M109.636,125.981c0-0.002,0-0.003,0-0.005c-0.318,0-0.656-0.068-0.948,0.019
		c-0.326,0.096-0.61,0.332-0.913,0.508c0.294,0.19,0.569,0.498,0.885,0.547c0.623,0.098,1.275,0.116,1.9,0.041
		c0.315-0.037,0.597-0.35,0.894-0.538c-0.288-0.19-0.554-0.448-0.87-0.552C110.296,125.907,109.953,125.981,109.636,125.981z
		 M80.999,86.714c0.123-1.459-1.335-3.198-2.588-3.258C79.267,84.533,80.028,85.492,80.999,86.714z M67.42,52.617
		c0.294,0.482,0.531,0.869,0.767,1.256c0.171-0.398,0.482-0.8,0.473-1.195c-0.009-0.379-0.349-0.751-0.543-1.126
		C67.909,51.87,67.7,52.189,67.42,52.617z M61.01,61.761c-0.632,0.883-1.135,1.585-1.638,2.288
		C60.771,63.748,61.36,62.927,61.01,61.761z M80.846,55.617c0.373,1.442,0.781,1.726,1.816,1.266
		C82.146,56.333,81.941,55.412,80.846,55.617z"/>
	<path fill-rule="evenodd" clip-rule="evenodd" fill="#FFFFFF" d="M86.197,105.161c-0.916,0.291-1.524,0.561-2.161,0.672
		c-2.307,0.404-4.61,0.934-6.937,1.083c-2.883,0.185-5.788,0.005-8.683,0.05c-1.418,0.022-2.848,0.379-4.248,0.27
		c-2.963-0.232-5.911-0.666-8.863-1.036c-0.22-0.028-0.417-0.29-0.633-0.301c-0.367-0.018-0.797-0.018-1.087,0.16
		c-0.183,0.112-0.305,0.643-0.194,0.842c0.17,0.305,0.537,0.636,0.866,0.691c1.314,0.226,2.643,0.37,3.971,0.505
		c1.282,0.131,1.68,0.98,0.9,2.062c-0.322,0.447-0.733,0.83-1.151,1.294c0.413,0.569,1.093,0.919,0.628,1.911
		c-0.199,0.426,0.703,1.376,1.124,2.077c0.096,0.16,0.403,0.291,0.388,0.406c-0.146,1.141-0.267,2.292-0.548,3.402
		c-0.146,0.576-0.403,0.96,0.028,1.612c0.733,1.109-0.575,3.225-1.906,3.253c-0.919,0.021-1.841,0.027-2.759-0.007
		c-0.799-0.03-1.219-0.214-0.929-1.266c0.208-0.755-0.162-1.664-0.243-2.508c-0.138-1.435-0.422-2.819-0.109-4.327
		c0.235-1.129-0.31-2.404-0.416-3.622c-0.208-2.376-0.144-4.795-0.569-7.128c-0.629-3.451-0.287-6.91-0.493-10.358
		c-0.125-2.096-0.331-4.191-0.353-6.288c-0.013-1.249,0.299-2.497,0.394-3.751c0.076-1.007,0.083-2.023,0.051-3.033
		c-0.027-0.876,0.317-1.403,1.199-1.45c1.286-0.067,2.58-0.412,3.815,0.437c0.374,0.256,1.08,0.008,1.632,0.028
		c1.381,0.053,2.76,0.162,4.141,0.178c0.654,0.008,1.308-0.199,1.965-0.22c1.718-0.054,3.439-0.098,5.156-0.051
		c0.368,0.01,1.012,0.405,1.028,0.655c0.042,0.656,0.886,1.166-0.034,2.082c-1.193,1.188-2.113,2.771-2.785,4.34
		c-1.175,2.746-1.367,5.725-0.985,8.654c0.468,3.59,2.167,6.59,5.159,8.727c2.972,2.121,8.444,1.07,9.447-3.437
		c0.421-1.892,1.062-3.737,1.428-5.638c0.209-1.08,0.17-2.237,0.059-3.342c-0.233-2.334-0.118-4.854-0.993-6.941
		c-1.625-3.877-4.475-5.915-8.685-4.571c-0.328,0.104-0.721,0.142-1.05,0.065c-0.199-0.047-0.4-0.355-0.464-0.584
		c-0.028-0.101,0.26-0.378,0.447-0.435c1.809-0.55,3.618-0.49,5.507-0.328c2.937,0.251,5.805,1.288,8.843,0.675
		c1.078-0.218,2.297,0.123,3.421,0.359c0.291,0.061,0.616,0.67,0.666,1.06c0.464,3.659,0.529,7.313-0.027,10.984
		c-0.297,1.961-0.387,3.963-0.43,5.95c-0.043,2.019,0.109,4.041,0.13,6.062c0.011,1.037-0.466,1.356-1.461,1.061
		C88.23,105.8,87.07,105.432,86.197,105.161z"/>
	<path fill-rule="evenodd" clip-rule="evenodd" fill="#FFFFFF" d="M52.842,78.487c0.534-2.227,0.817-4.289,1.54-6.184
		c0.819-2.143,1.999-4.154,3.1-6.18c0.268-0.493,0.844-0.817,1.364-1.298c0.046,0.202,0.113,0.323,0.079,0.37
		c-0.798,1.087-0.045,1.915,0.289,2.918c0.209,0.628-0.259,1.733-0.778,2.298c-1.011,1.101-0.804,2.126-0.691,3.468
		c0.13,1.54,1.383,2.121,1.852,3.287c0.205,0.51,0.732,0.886,1.334,0.273c0.71-0.723,1.579-1.338,2.11-2.171
		c0.289-0.453,0.798-1.183,0.076-1.933c-0.732-0.761-1.357-0.56-2.182-0.217c0.895-0.926,1.809-1.834,2.677-2.785
		c0.675-0.74,1.312-1.519,1.922-2.312c0.156-0.203,0.261-0.56,0.199-0.795c-0.467-1.784,0.502-3.065,1.499-4.316
		c0.188-0.235,0.693-0.434,0.959-0.351c1.264,0.395,2.113-0.139,1.805-1.369c-0.228-0.911-0.354-1.682-0.059-2.621
		c0.188-0.6-0.268-1.372-0.254-2.063c0.032-1.56,0.235-3.116,0.253-4.676c0.012-0.934-0.309-1.875-0.277-2.806
		c0.072-2.132,0.417-4.263,0.378-6.39c-0.053-2.849-0.496-5.692-0.519-8.54c-0.015-1.787,0.425-3.579,0.687-5.365
		c0.023-0.16,0.228-0.408,0.365-0.42c1.027-0.087,2.06-0.109,3.087-0.187c0.329-0.025,0.676-0.103,0.969-0.247
		c0.697-0.345,1.071-0.186,1.117,0.609c0.035,0.599,0.065,1.197,0.087,1.796c0.172,4.846,0.377,9.691,0.498,14.538
		c0.074,2.938,0.025,5.879,0.016,8.819c-0.002,0.433,0.047,0.973-0.179,1.278c-0.5,0.68-0.23,1.21,0.272,1.533
		c1.418,0.909,2.713,2.069,4.601,2.04c0.966-0.015,1.906,0.283,2.803-0.392c0.114-0.086,0.915,0.421,1.097,0.799
		c1.114,2.322,2.242,4.647,3.17,7.046c0.829,2.142,1.529,4.353,2.058,6.587c0.445,1.885,0.597,3.844,0.805,5.777
		c0.081,0.752-0.454,1.386-1.155,1.115c-1.568-0.604-3.024,0.33-4.549,0.102c-1.448-0.218-2.916-0.348-4.38-0.429
		c-1.943-0.106-3.894-0.089-5.837-0.199c-1.001-0.057-1.993-0.275-2.99-0.419c-0.189-0.027-0.412-0.12-0.564-0.055
		c-3.066,1.306-6.237,1.334-9.476,0.9c-1.522-0.204-3.074-0.181-4.606-0.316C55.925,78.875,54.444,78.672,52.842,78.487z"/>
	<path fill-rule="evenodd" clip-rule="evenodd" fill="#FFFFFF" d="M61.141,123.673c0.74-1.811,1.396-3.415,2.061-5.045
		c-0.667-1.592-1.708-3.213,0.096-4.806c-0.391-0.366-0.671-0.629-0.697-0.653c0.246-1.136,0.229-2.175,0.697-2.904
		c0.46-0.717,1.369-1.501,2.154-1.586c2.124-0.231,4.292-0.009,6.432-0.148c2.887-0.188,5.76-0.59,8.646-0.812
		c1.761-0.135,3.533-0.122,5.301-0.139c1.297-0.012,2.6-0.026,3.888,0.094c0.398,0.037,1.036,0.472,1.084,0.796
		c0.189,1.287,0.276,2.605,0.238,3.908c-0.059,1.941-0.3,3.877-0.379,5.819c-0.066,1.66,0.043,3.328-0.033,4.987
		c-0.059,1.267-1.253,2.073-2.474,1.757c-1.071-0.277-2.114-0.666-3.192-0.902c-0.61-0.134-1.274-0.006-1.901-0.093
		c-0.746-0.104-1.473-0.351-2.219-0.457c-0.386-0.056-0.802,0.027-1.193,0.103c-0.57,0.108-1.134,0.392-1.695,0.38
		c-3.18-0.062-6.357-0.221-9.537-0.289C66.085,123.634,63.752,123.673,61.141,123.673z"/>
	<path fill-rule="evenodd" clip-rule="evenodd" fill="#FFFFFF" d="M81.879,93.51c-0.021,3.362-0.491,6.316-2.179,8.846
		c-1.357,2.034-3.701,3.386-5.985,0.828c-2.266-2.537-3.985-5.322-4.621-8.648c-0.206-1.074,0.212-2.279,0.41-3.414
		c0.133-0.757,0.423-1.485,0.57-2.241c0.267-1.373,1.081-2.33,2.163-3.14c0.18-0.135,0.332-0.609,0.235-0.761
		c-0.509-0.798-0.007-1.04,0.592-1.328c1.805-0.869,3.911-0.231,5.082,1.547c0.281,0.427,0.575,0.857,0.93,1.222
		C81.102,88.495,81.355,91.242,81.879,93.51z"/>
	<path fill-rule="evenodd" clip-rule="evenodd" fill="#FFFFFF" d="M74.495,17.199c-0.999,1.286-1.999,2.57-3.166,4.072
		C71.115,19.151,72.645,17.098,74.495,17.199z"/>
	<path fill-rule="evenodd" clip-rule="evenodd" fill="#FFFFFF" d="M78.457,52.685c0.302,0.105,0.75,0.219,1.154,0.42
		c0.216,0.108,0.356,0.368,0.53,0.56c-0.187,0.161-0.354,0.355-0.564,0.474c-0.271,0.153-0.587,0.359-0.865,0.334
		c-0.308-0.027-0.777-0.23-0.853-0.462c-0.193-0.596-0.298-1.255-0.261-1.879c0.024-0.418,0.341-0.825,0.563-1.215
		c0.02-0.033,0.475,0.103,0.473,0.152C78.621,51.508,78.55,51.945,78.457,52.685z"/>
	<path fill-rule="evenodd" clip-rule="evenodd" fill="#FFFFFF" d="M76.082,17.496c0-0.559-0.033-1.121,0.019-1.675
		c0.017-0.179,0.249-0.462,0.396-0.471c0.169-0.009,0.5,0.222,0.509,0.364c0.076,1.269,0.111,2.541,0.109,3.811
		c-0.001,0.121-0.354,0.352-0.518,0.33c-0.171-0.022-0.429-0.277-0.443-0.447c-0.053-0.634-0.021-1.274-0.021-1.913
		C76.115,17.496,76.099,17.496,76.082,17.496z"/>
	<path fill-rule="evenodd" clip-rule="evenodd" fill="#FFFFFF" d="M109.636,125.981c0.317,0,0.66-0.074,0.947,0.02
		c0.316,0.104,0.582,0.361,0.87,0.552c-0.297,0.188-0.578,0.501-0.894,0.538c-0.625,0.075-1.277,0.057-1.9-0.041
		c-0.315-0.049-0.591-0.356-0.885-0.547c0.303-0.176,0.587-0.412,0.913-0.508c0.292-0.087,0.63-0.019,0.948-0.019
		C109.636,125.979,109.636,125.979,109.636,125.981z"/>
	<path fill-rule="evenodd" clip-rule="evenodd" fill="#FFFFFF" d="M80.999,86.714c-0.971-1.222-1.732-2.181-2.588-3.258
		C79.664,83.516,81.122,85.255,80.999,86.714z"/>
	<path fill-rule="evenodd" clip-rule="evenodd" fill="#FFFFFF" d="M67.42,52.617c0.28-0.428,0.489-0.747,0.697-1.065
		c0.194,0.375,0.534,0.747,0.543,1.126c0.009,0.395-0.302,0.796-0.473,1.195C67.951,53.486,67.714,53.099,67.42,52.617z"/>
	<path fill-rule="evenodd" clip-rule="evenodd" fill="#FFFFFF" d="M61.01,61.761c0.35,1.166-0.239,1.987-1.638,2.288
		C59.875,63.346,60.378,62.644,61.01,61.761z"/>
	<path fill-rule="evenodd" clip-rule="evenodd" fill="#FFFFFF" d="M80.846,55.617c1.096-0.206,1.3,0.716,1.816,1.266
		C81.627,57.343,81.219,57.06,80.846,55.617z"/>
</g>
</svg>
