<?xml version="1.0" encoding="utf-8"?>
<!-- Generator: Adobe Illustrator 16.0.0, SVG Export Plug-In . SVG Version: 6.00 Build 0)  -->
<!DOCTYPE svg PUBLIC "-//W3C//DTD SVG 1.1//EN" "http://www.w3.org/Graphics/SVG/1.1/DTD/svg11.dtd">
<svg version="1.1" id="Layer_1" xmlns="http://www.w3.org/2000/svg" xmlns:xlink="http://www.w3.org/1999/xlink" x="0px" y="0px"
	 width="144px" height="144px" viewBox="0 0 144 144" enable-background="new 0 0 144 144" xml:space="preserve">
<g>
	<path fill="#FFFFFF" d="M113.334,68.663c-0.479,1.261-0.856,1.465-2.311,1.389c-0.557-0.029-1.176,0.099-1.66-0.103
		c-2.026-0.841-4.039-1.728-6.009-2.695c-3.657-1.796-6.726-4.461-9.543-7.3c-2.604-2.625-4.689-5.76-7.068-8.616
		c-2.276-2.731-3.772-5.905-5.066-9.139c-1.702-4.25-3.276-8.571-4.012-13.127c-0.505-3.137-0.961-6.282-1.437-9.424
		c-0.129-0.853,0.224-1.264,1.108-1.26c1.253,0.005,2.553,0.17,3.752-0.096c3.315-0.736,6.517,0.101,9.672,0.705
		c3.688,0.706,7.213,2.131,10.401,4.186c1.408,0.907,2.864,1.875,3.95,3.119c1.729,1.982,3.283,4.146,4.707,6.363
		c2.73,4.253,4.645,8.908,5.91,13.781c1.285,4.952,1.592,10.024,1.5,15.153c-0.108,5.977-0.278,11.926-1.347,17.831
		c-0.492,2.719-0.732,5.485-1.041,8.234c-0.455,4.061-0.899,8.123-1.286,12.191c-0.152,1.61-0.07,3.242-0.214,4.854
		c-0.354,3.969,0.022,7.888,0.939,11.73c0.548,2.297,2.133,3.818,4.515,4.387c1.581,0.377,2.458,1.461,2.326,2.864
		c-0.023,0.247-0.12,0.608-0.298,0.703c-1.646,0.882-3.304,1.744-4.986,2.555c-0.98,0.474-1.748,0.161-2.298-0.797
		c-0.69-1.201-1.417-2.382-2.155-3.555c-1.196-1.902-2.405-3.797-3.627-5.685c-1.196-1.85-3.752-2.001-5.072-0.215
		c-0.684,0.925-1.15,2.021-1.637,3.076c-0.409,0.888-0.779,1.01-1.555,0.364c-0.813-0.677-1.632-1.348-2.35-1.94
		c-0.546,0.266-0.98,0.436-1.366,0.682c-0.269,0.17-0.47,0.445-0.7,0.674c0.309,0.186,0.6,0.462,0.932,0.529
		c0.327,0.066,0.699-0.133,1.047-0.119c0.448,0.018,1.012-0.017,1.317,0.229c1.112,0.896,1.987,1.948,1.918,3.547
		c-0.024,0.562,0.285,1.139,0.472,1.818c0.377-0.233,0.609-0.302,0.621-0.397c0.101-0.775,0.221-1.556,0.221-2.334
		c-0.001-2.563,1.048-4.674,2.716-6.531c0.432-0.48,0.938-0.688,1.425-0.108c1.259,1.499,2.636,2.929,3.692,4.563
		c1.307,2.021,2.295,4.246,3.511,6.332c0.408,0.7,1.012,1.365,1.686,1.796c0.282,0.181,0.979-0.289,1.49-0.458
		c0.074-0.024,0.165-0.001,0.237-0.027c1.771-0.643,3.506-1.33,4.847-2.761c0.153-0.163,1.027-0.006,1.137,0.215
		c0.268,0.541,0.253,1.214,0.407,1.818c0.148,0.582,0.368,1.146,0.556,1.718c0.165-0.018,0.329-0.036,0.493-0.054
		c0.1-0.435,0.297-0.872,0.283-1.303c-0.091-2.853-1.145-5.394-2.64-7.772c-0.12-0.19-0.419-0.311-0.659-0.375
		c-0.528-0.143-1.131-0.115-1.599-0.357c-1.407-0.731-3.062-1.181-3.649-2.951c-1.343-4.049-1.008-8.281-1.247-12.434
		c-0.147-2.558,0.326-5.151,0.528-7.729c0.141-1.787,0.23-3.581,0.455-5.357c0.349-2.751,0.806-5.487,1.191-8.233
		c0.172-1.219,0.244-2.452,0.428-3.67c0.382-2.543,0.943-5.067,1.181-7.623c0.271-2.928,0.292-5.881,0.383-8.824
		c0.142-4.56-0.254-9.087-1.039-13.574c-0.759-4.343-2.191-8.495-4.156-12.426c-1.317-2.638-2.854-5.181-4.473-7.648
		c-0.994-1.515-2.414-2.744-3.49-4.214c-1.688-2.305-4.104-3.607-6.535-4.826c-1.687-0.847-3.558-1.35-5.378-1.9
		c-1.769-0.534-3.56-1.203-5.375-1.331c-3.243-0.229-6.514-0.121-9.771-0.099c-0.987,0.007-1.856,0.058-2.021-1.252
		c-0.033-0.26-0.539-0.717-0.668-0.667c-1.262,0.481-2.651-0.353-3.929,0.602c-1.165,0.871-2.658,1.289-3.919,2.05
		c-1.416,0.854-2.747,1.851-4.09,2.821c-1.433,1.035-2.841,2.106-4.252,3.171c-1.667,1.257-3.337,2.509-4.981,3.794
		c-0.529,0.413-0.995,0.91-1.464,1.393c-0.782,0.804-1.44,1.771-2.334,2.416c-2.526,1.821-4.396,4.282-6.246,6.669
		c-1.72,2.221-3.618,4.365-4.78,7.043c-0.939,2.164-2.455,4.069-3.536,6.181c-1.269,2.479-2.464,5.01-3.476,7.603
		c-1.997,5.111-4,10.228-5.701,15.441c-1.194,3.659-1.956,7.466-2.793,11.232c-1.248,5.621-0.791,11.219,0.971,16.629
		c1.012,3.109,2.551,6.062,4.019,9.003c1.091,2.188,2.521,4.204,3.647,6.376c0.39,0.75,0.576,1.786,0.418,2.608
		c-0.484,2.524-1.096,5.033-1.83,7.497c-0.363,1.219,0.028,1.935,0.609,2.423c1.109-0.474,2.008-0.857,3.067-1.309
		c0.002-0.008,0.043-0.24,0.108-0.464c0.062-0.211,0.148-0.414,0.246-0.679c-0.281-0.078-0.463-0.163-0.649-0.175
		c-1.218-0.074-1.88-0.804-1.59-1.964c0.411-1.646,1.024-3.244,1.391-4.898c0.176-0.792,0.204-1.755-0.092-2.482
		c-0.421-1.033-1.293-1.873-1.812-2.879c-1.491-2.892-2.892-5.83-4.347-8.742c-2.479-4.963-3.337-10.284-3.409-15.757
		c-0.023-1.742,0.103-3.517,0.424-5.227c0.495-2.639,1.165-5.248,1.857-7.844c0.767-2.876,1.573-5.744,2.494-8.573
		c0.665-2.042,1.519-4.026,2.336-6.016c0.747-1.818,1.52-3.629,2.352-5.41c1.002-2.144,2.037-4.274,3.136-6.37
		c0.876-1.67,1.826-3.305,2.822-4.907c1.302-2.093,2.637-4.169,4.046-6.19c0.747-1.071,1.673-2.019,2.535-3.007
		c1.415-1.621,2.794-3.277,4.282-4.829c1.169-1.219,2.472-2.311,3.729-3.446c0.984-0.889,1.937-1.825,2.994-2.619
		c1.64-1.232,3.354-2.366,5.043-3.531c1.069-0.737,2.144-1.468,3.23-2.178c0.907-0.592,1.812-1.193,2.76-1.712
		c1.387-0.76,2.806-1.464,4.229-2.154c0.2-0.097,0.57-0.071,0.748,0.056c0.82,0.585,0.865,2.461,0.198,3.226
		c-0.43,0.493-0.838,1.069-1.046,1.68c-0.826,2.422-1.516,4.891-2.359,7.306c-0.924,2.65-1.881,5.295-2.978,7.877
		c-0.677,1.595-1.614,3.084-2.485,4.591c-1.077,1.861-2.129,3.744-3.337,5.518c-0.944,1.387-2.116,2.618-3.176,3.927
		c-0.694,0.857-1.31,1.787-2.067,2.582c-0.858,0.902-1.809,1.723-2.766,2.522c-2.372,1.981-4.768,3.932-7.162,5.886
		c-0.178,0.146-0.42,0.21-0.621,0.333c-1.898,1.158-3.793,2.32-5.69,3.481c0.023,0.155,0.046,0.309,0.07,0.464
		c0.473,0.036,1.073,0.275,1.396,0.073c1.544-0.965,3.007-2.061,4.518-3.083c0.272-0.184,0.713-0.416,0.931-0.314
		c0.287,0.135,0.53,0.55,0.621,0.89c0.733,2.757,1.249,5.586,2.171,8.277c1.619,4.725,3.41,9.385,6.329,13.532
		c2.122,3.016,4.541,5.735,7.478,7.931c1.818,1.359,3.847,2.442,5.812,3.597c1.32,0.776,2.628,1.653,4.06,2.138
		c1.857,0.629,3.846,1.335,5.517-0.638c1.322-1.561,2.796-2.992,4.149-4.527c0.807-0.915,1.473-1.954,2.287-2.86
		c0.185-0.205,0.925-0.262,1.066-0.096c0.828,0.973,1.557,2.029,2.312,3.062c0.333,0.457,0.58,1.006,0.995,1.364
		c0.315,0.271,1.088,0.541,1.212,0.405c0.354-0.386,0.646-0.979,0.649-1.493c0.006-0.605-0.294-1.222-0.502-1.819
		c-0.326-0.938-0.965-0.906-1.708-0.51c-0.374,0.199-0.76,0.378-1.42,0.703c0.247-1.822,0.362-3.292-0.99-4.362
		c-0.112-0.089-0.054-0.543,0.062-0.751c0.756-1.356,1.729-2.621,2.294-4.049c1.235-3.125,2.291-6.321,3.375-9.504
		c0.503-1.475,0.898-2.985,1.347-4.478c0.456-1.517,0.888-3.043,1.415-4.536c0.068-0.192,0.649-0.204,0.993-0.299
		c0.269,1.045,1.339,1.053,2.035,1.525c1.406,0.953,2.851,1.865,4.35,2.662c1.505,0.8,3.079,1.478,4.652,2.138
		c1.144,0.479,2.32,0.898,3.513,1.237c0.778,0.222,1.648,0.144,2.41,0.399c0.814,0.274,1.014-0.068,1.098-0.725
		C114.995,70.368,113.965,69.692,113.334,68.663z M49.587,122.374c-0.098-0.068-0.196-0.136-0.293-0.204
		c-0.604,0.467-1.217,0.924-1.812,1.4c-0.609,0.488-1.107,0.326-1.255-0.436c-0.138-0.704-0.222-1.421-0.402-2.113
		c-0.198-0.76-0.659-1.43-1.527-1.116c-2.535,0.916-5.061,1.871-7.532,2.945c-1.154,0.502-1.3,1.375-0.615,2.166
		c0.973-1.764,2.983-1.703,4.484-2.543c0.929-0.521,1.932-0.904,2.887-1.379c0.292-0.145,0.534-0.389,0.799-0.587
		c0.202,0.288,0.55,0.564,0.577,0.868c0.076,0.873-0.06,1.768,0.056,2.632c0.052,0.388,0.594,1.067,0.758,1.024
		c1.156-0.306,2.315-0.679,3.374-1.225C49.411,123.639,49.428,122.869,49.587,122.374z M60.025,92.462
		c-0.552-0.584-0.988-1.132-1.528-1.542c-0.104-0.079-0.748,0.304-0.918,0.601c-0.712,1.25-1.395,2.525-1.963,3.846
		c-0.159,0.369,0.003,0.985,0.227,1.364c0.102,0.173,0.749,0.155,1.084,0.04C58.905,96.09,58.631,93.872,60.025,92.462z
		 M59.511,98.839c-0.844,0.128-1.253,0.117-1.602,0.257c-1.007,0.401-2.182,0.654-2.43,1.973c-0.155,0.822,0.085,1.651,0.93,1.809
		c0.364,0.067,0.921-0.616,1.308-1.034c0.464-0.502,0.87-1.064,1.241-1.641C59.172,99.871,59.266,99.462,59.511,98.839z
		 M87.892,103.604c-0.895-0.172-1.39-0.279-1.889-0.36c-0.696-0.113-2.231,0.913-2.098,1.545c0.112,0.531,0.616,1.146,1.112,1.394
		c0.917,0.459,1.832,0.093,2.365-0.745C87.701,104.938,87.725,104.251,87.892,103.604z M74.468,105.352
		c0.045,1.63,1.223,1.85,2.217,2.13c0.451,0.127,1.291-0.027,1.487-0.344c0.308-0.497,0.349-1.263,0.236-1.866
		c-0.046-0.246-1.084-0.602-1.163-0.503C76.483,105.726,75.451,105.408,74.468,105.352z M90.27,101.004
		c0.31-2.298-0.469-3.654-2.055-3.709C88.083,99.585,88.714,100.75,90.27,101.004z M66.244,106.804
		c0.646-1.242,0.473-2.358-0.448-2.564c-0.388-0.087-1.137,0.219-1.296,0.552C63.996,105.839,64.458,106.32,66.244,106.804z"/>
	<path fill-rule="evenodd" clip-rule="evenodd" d="M113.334,68.663c0.631,1.029,1.661,1.706,1.491,3.031
		c-0.084,0.656-0.283,0.999-1.098,0.725c-0.762-0.256-1.632-0.178-2.41-0.399c-1.192-0.339-2.369-0.757-3.513-1.237
		c-1.573-0.66-3.147-1.337-4.652-2.138c-1.499-0.797-2.943-1.709-4.35-2.662c-0.696-0.472-1.767-0.479-2.035-1.525
		c-0.344,0.095-0.925,0.106-0.993,0.299c-0.527,1.492-0.959,3.019-1.415,4.536c-0.448,1.493-0.844,3.003-1.347,4.478
		c-1.084,3.183-2.14,6.379-3.375,9.504c-0.564,1.428-1.538,2.692-2.294,4.049c-0.116,0.208-0.175,0.662-0.062,0.751
		c1.353,1.07,1.237,2.54,0.99,4.362c0.66-0.325,1.046-0.504,1.42-0.703c0.743-0.396,1.382-0.429,1.708,0.51
		c0.208,0.598,0.508,1.214,0.502,1.819c-0.004,0.515-0.296,1.107-0.649,1.493c-0.124,0.136-0.896-0.134-1.212-0.405
		c-0.415-0.358-0.662-0.907-0.995-1.364c-0.756-1.033-1.484-2.09-2.312-3.062c-0.142-0.166-0.882-0.109-1.066,0.096
		c-0.814,0.906-1.48,1.945-2.287,2.86c-1.354,1.535-2.827,2.967-4.149,4.527c-1.671,1.973-3.659,1.267-5.517,0.638
		c-1.432-0.484-2.74-1.361-4.06-2.138c-1.965-1.154-3.994-2.237-5.812-3.597c-2.938-2.195-5.356-4.915-7.478-7.931
		c-2.918-4.146-4.709-8.807-6.329-13.532c-0.922-2.691-1.438-5.52-2.171-8.277c-0.091-0.34-0.333-0.755-0.621-0.89
		c-0.217-0.102-0.658,0.13-0.931,0.314c-1.51,1.022-2.973,2.118-4.518,3.083c-0.324,0.202-0.924-0.037-1.396-0.073
		c-0.023-0.155-0.046-0.309-0.07-0.464c1.896-1.161,3.792-2.324,5.69-3.481c0.2-0.123,0.442-0.187,0.621-0.333
		c2.394-1.954,4.79-3.905,7.162-5.886c0.958-0.8,1.908-1.621,2.766-2.522c0.757-0.795,1.373-1.725,2.067-2.582
		c1.06-1.309,2.231-2.54,3.176-3.927c1.208-1.774,2.261-3.656,3.337-5.518c0.872-1.507,1.808-2.996,2.485-4.591
		c1.097-2.582,2.054-5.227,2.978-7.877c0.843-2.416,1.533-4.884,2.359-7.306c0.208-0.611,0.616-1.188,1.046-1.68
		c0.667-0.765,0.622-2.641-0.198-3.226c-0.178-0.127-0.548-0.153-0.748-0.056c-1.423,0.69-2.842,1.395-4.229,2.154
		c-0.948,0.52-1.853,1.121-2.76,1.712c-1.087,0.71-2.161,1.44-3.23,2.178c-1.69,1.165-3.404,2.299-5.043,3.531
		c-1.058,0.794-2.01,1.729-2.994,2.619c-1.256,1.135-2.56,2.227-3.729,3.446c-1.488,1.552-2.868,3.208-4.282,4.829
		c-0.862,0.988-1.789,1.936-2.535,3.007c-1.41,2.021-2.745,4.097-4.046,6.19c-0.996,1.602-1.946,3.237-2.822,4.907
		c-1.099,2.096-2.134,4.226-3.136,6.37c-0.832,1.781-1.605,3.591-2.352,5.41c-0.817,1.99-1.671,3.973-2.336,6.016
		c-0.921,2.829-1.727,5.697-2.494,8.573c-0.692,2.596-1.362,5.205-1.857,7.844c-0.321,1.71-0.447,3.484-0.424,5.227
		c0.072,5.473,0.93,10.794,3.409,15.757c1.455,2.912,2.855,5.851,4.347,8.742c0.519,1.006,1.391,1.846,1.812,2.879
		c0.296,0.728,0.269,1.69,0.092,2.482c-0.367,1.654-0.98,3.252-1.391,4.898c-0.29,1.16,0.373,1.89,1.59,1.964
		c0.186,0.012,0.368,0.097,0.649,0.175c-0.097,0.265-0.184,0.468-0.246,0.679c-0.065,0.224-0.106,0.456-0.108,0.464
		c-1.059,0.451-1.958,0.835-3.067,1.309c-0.581-0.488-0.972-1.204-0.609-2.423c0.734-2.464,1.345-4.973,1.83-7.497
		c0.158-0.822-0.028-1.858-0.418-2.608c-1.127-2.172-2.556-4.188-3.647-6.376c-1.467-2.94-3.006-5.894-4.019-9.003
		c-1.761-5.41-2.219-11.008-0.971-16.629c0.837-3.767,1.599-7.573,2.793-11.232c1.7-5.213,3.704-10.33,5.701-15.441
		c1.012-2.593,2.208-5.124,3.476-7.603c1.081-2.111,2.597-4.017,3.536-6.181c1.162-2.678,3.06-4.822,4.78-7.043
		c1.849-2.387,3.72-4.848,6.246-6.669c0.894-0.645,1.552-1.611,2.334-2.416c0.469-0.482,0.935-0.98,1.464-1.393
		c1.645-1.285,3.315-2.538,4.981-3.794c1.412-1.065,2.819-2.136,4.252-3.171c1.343-0.97,2.674-1.967,4.09-2.821
		c1.262-0.761,2.754-1.179,3.919-2.05c1.277-0.955,2.667-0.121,3.929-0.602c0.129-0.049,0.635,0.408,0.668,0.667
		c0.164,1.31,1.033,1.259,2.021,1.252c3.258-0.022,6.528-0.13,9.771,0.099c1.815,0.128,3.606,0.796,5.375,1.331
		c1.82,0.55,3.691,1.053,5.378,1.9c2.431,1.219,4.848,2.521,6.535,4.826c1.076,1.47,2.496,2.699,3.49,4.214
		c1.619,2.467,3.155,5.01,4.473,7.648c1.965,3.931,3.397,8.083,4.156,12.426c0.785,4.486,1.181,9.014,1.039,13.574
		c-0.091,2.943-0.111,5.896-0.383,8.824c-0.237,2.555-0.799,5.08-1.181,7.623c-0.184,1.218-0.256,2.451-0.428,3.67
		c-0.386,2.746-0.843,5.482-1.191,8.233c-0.225,1.776-0.314,3.57-0.455,5.357c-0.202,2.578-0.676,5.172-0.528,7.729
		c0.239,4.152-0.096,8.385,1.247,12.434c0.587,1.771,2.242,2.22,3.649,2.951c0.468,0.242,1.07,0.215,1.599,0.357
		c0.24,0.064,0.539,0.185,0.659,0.375c1.495,2.379,2.549,4.92,2.64,7.772c0.014,0.431-0.184,0.868-0.283,1.303
		c-0.164,0.018-0.328,0.036-0.493,0.054c-0.188-0.571-0.407-1.136-0.556-1.718c-0.154-0.604-0.14-1.277-0.407-1.818
		c-0.109-0.221-0.983-0.378-1.137-0.215c-1.341,1.431-3.075,2.118-4.847,2.761c-0.072,0.026-0.163,0.003-0.237,0.027
		c-0.511,0.169-1.208,0.639-1.49,0.458c-0.674-0.431-1.277-1.096-1.686-1.796c-1.216-2.086-2.204-4.311-3.511-6.332
		c-1.057-1.635-2.434-3.064-3.692-4.563c-0.486-0.579-0.993-0.372-1.425,0.108c-1.668,1.857-2.717,3.968-2.716,6.531
		c0,0.778-0.12,1.559-0.221,2.334c-0.012,0.096-0.244,0.164-0.621,0.397c-0.187-0.68-0.496-1.256-0.472-1.818
		c0.069-1.599-0.806-2.651-1.918-3.547c-0.306-0.246-0.869-0.212-1.317-0.229c-0.348-0.014-0.72,0.186-1.047,0.119
		c-0.332-0.067-0.623-0.344-0.932-0.529c0.23-0.229,0.432-0.504,0.7-0.674c0.386-0.246,0.82-0.416,1.366-0.682
		c0.718,0.593,1.536,1.264,2.35,1.94c0.775,0.646,1.146,0.523,1.555-0.364c0.486-1.056,0.953-2.151,1.637-3.076
		c1.32-1.786,3.876-1.635,5.072,0.215c1.222,1.888,2.431,3.782,3.627,5.685c0.738,1.173,1.465,2.354,2.155,3.555
		c0.55,0.958,1.317,1.271,2.298,0.797c1.683-0.811,3.341-1.673,4.986-2.555c0.178-0.095,0.274-0.456,0.298-0.703
		c0.132-1.403-0.745-2.487-2.326-2.864c-2.382-0.568-3.967-2.09-4.515-4.387c-0.917-3.843-1.293-7.762-0.939-11.73
		c0.144-1.612,0.062-3.244,0.214-4.854c0.387-4.068,0.831-8.131,1.286-12.191c0.309-2.749,0.549-5.516,1.041-8.234
		c1.068-5.904,1.238-11.854,1.347-17.831c0.092-5.129-0.215-10.202-1.5-15.153c-1.266-4.873-3.18-9.528-5.91-13.781
		c-1.424-2.218-2.978-4.381-4.707-6.363c-1.086-1.244-2.542-2.212-3.95-3.119c-3.188-2.055-6.714-3.48-10.401-4.186
		c-3.155-0.604-6.356-1.441-9.672-0.705c-1.199,0.266-2.499,0.101-3.752,0.096c-0.885-0.003-1.237,0.407-1.108,1.26
		c0.476,3.142,0.932,6.287,1.437,9.424c0.735,4.557,2.31,8.877,4.012,13.127c1.294,3.234,2.79,6.408,5.066,9.139
		c2.379,2.856,4.464,5.992,7.068,8.616c2.817,2.838,5.886,5.503,9.543,7.3c1.97,0.967,3.982,1.854,6.009,2.695
		c0.484,0.201,1.104,0.073,1.66,0.103C112.478,70.127,112.855,69.924,113.334,68.663z M76.604,98.075
		c0.942-0.555,2.026-0.942,2.759-1.679c1.462-1.471,2.793-3.087,4.063-4.731c1-1.293,1.929-2.665,2.703-4.102
		c0.737-1.367,1.206-2.876,1.842-4.301c0.843-1.89,1.833-3.721,2.577-5.646c0.836-2.164,1.607-4.373,2.153-6.624
		c0.598-2.464,0.969-4.991,1.295-7.51c0.085-0.656-0.175-1.547-0.605-2.044c-1.499-1.725-3.254-3.233-4.7-4.996
		c-1.453-1.772-2.806-3.667-3.932-5.66c-1.612-2.854-3.075-5.804-4.429-8.792c-2.387-5.271-3.782-10.85-4.795-16.53
		c-0.195-1.093-0.321-2.2-0.563-3.281c-0.06-0.265-0.453-0.454-0.693-0.679c-0.201,0.224-0.515,0.417-0.584,0.675
		c-0.397,1.478-0.626,3.01-1.117,4.453c-1.174,3.444-2.375,6.884-3.739,10.255c-0.734,1.812-1.781,3.506-2.774,5.202
		c-1.025,1.753-2.044,3.529-3.269,5.141c-1.391,1.832-3.003,3.497-4.526,5.228c-0.931,1.059-1.807,2.179-2.829,3.142
		c-1.612,1.518-3.326,2.929-5.003,4.376c-0.207,0.178-0.454,0.31-0.688,0.455c-0.969,0.605-1.245,1.533-0.754,2.564
		c0.153,0.322,0.387,0.618,0.475,0.955c0.793,3.037,1.475,6.106,2.371,9.112c0.606,2.033,1.399,4.029,2.305,5.949
		c0.737,1.561,1.801,2.964,2.657,4.472c1.536,2.709,3.559,5.064,5.896,7.027c2.709,2.275,5.736,4.187,9.011,5.617
		C73.24,96.791,74.811,97.364,76.604,98.075z"/>
	<path fill-rule="evenodd" clip-rule="evenodd" d="M49.587,122.374c-0.159,0.495-0.176,1.265-0.503,1.434
		c-1.058,0.546-2.218,0.919-3.374,1.225c-0.164,0.043-0.707-0.637-0.758-1.024c-0.115-0.864,0.021-1.759-0.056-2.632
		c-0.027-0.304-0.375-0.58-0.577-0.868c-0.265,0.198-0.507,0.442-0.799,0.587c-0.955,0.475-1.958,0.858-2.887,1.379
		c-1.5,0.84-3.511,0.779-4.484,2.543c-0.686-0.791-0.539-1.664,0.615-2.166c2.471-1.074,4.997-2.029,7.532-2.945
		c0.869-0.313,1.33,0.356,1.527,1.116c0.18,0.692,0.265,1.409,0.402,2.113c0.148,0.762,0.646,0.924,1.255,0.436
		c0.596-0.477,1.208-0.934,1.812-1.4C49.391,122.238,49.489,122.306,49.587,122.374z"/>
	<path fill-rule="evenodd" clip-rule="evenodd" d="M60.025,92.462c-1.395,1.41-1.121,3.628-3.098,4.309
		c-0.336,0.115-0.982,0.133-1.084-0.04c-0.224-0.379-0.386-0.995-0.227-1.364c0.568-1.32,1.25-2.596,1.963-3.846
		c0.17-0.297,0.813-0.68,0.918-0.601C59.038,91.33,59.474,91.878,60.025,92.462z"/>
	<path fill-rule="evenodd" clip-rule="evenodd" d="M59.511,98.839c-0.246,0.623-0.339,1.032-0.553,1.363
		c-0.371,0.576-0.777,1.139-1.241,1.641c-0.387,0.418-0.944,1.102-1.308,1.034c-0.845-0.157-1.085-0.986-0.93-1.809
		c0.248-1.318,1.422-1.571,2.43-1.973C58.258,98.956,58.667,98.967,59.511,98.839z"/>
	<path fill-rule="evenodd" clip-rule="evenodd" d="M87.892,103.604c-0.167,0.647-0.19,1.334-0.509,1.833
		c-0.533,0.838-1.448,1.204-2.365,0.745c-0.496-0.248-1-0.862-1.112-1.394c-0.134-0.632,1.401-1.658,2.098-1.545
		C86.502,103.324,86.997,103.432,87.892,103.604z"/>
	<path fill-rule="evenodd" clip-rule="evenodd" d="M74.468,105.352c0.983,0.057,2.016,0.374,2.777-0.583
		c0.079-0.099,1.117,0.257,1.163,0.503c0.112,0.604,0.071,1.369-0.236,1.866c-0.196,0.316-1.036,0.471-1.487,0.344
		C75.69,107.201,74.513,106.981,74.468,105.352z"/>
	<path fill-rule="evenodd" clip-rule="evenodd" d="M90.27,101.004c-1.556-0.254-2.187-1.419-2.055-3.709
		C89.801,97.35,90.579,98.706,90.27,101.004z"/>
	<path fill-rule="evenodd" clip-rule="evenodd" d="M66.244,106.804c-1.787-0.483-2.248-0.965-1.745-2.013
		c0.159-0.333,0.908-0.639,1.296-0.552C66.717,104.445,66.891,105.562,66.244,106.804z"/>
	<path fill-rule="evenodd" clip-rule="evenodd" fill="#FFFFFF" d="M76.604,98.075c-1.794-0.711-3.364-1.284-4.895-1.952
		c-3.275-1.431-6.302-3.342-9.011-5.617c-2.336-1.963-4.36-4.318-5.896-7.027c-0.855-1.508-1.92-2.911-2.657-4.472
		c-0.906-1.92-1.699-3.916-2.305-5.949c-0.896-3.006-1.578-6.075-2.371-9.112c-0.088-0.337-0.322-0.633-0.475-0.955
		c-0.491-1.031-0.214-1.958,0.754-2.564c0.233-0.146,0.481-0.277,0.688-0.455c1.677-1.447,3.391-2.858,5.003-4.376
		c1.022-0.962,1.898-2.083,2.829-3.142c1.523-1.731,3.135-3.396,4.526-5.228c1.225-1.612,2.244-3.388,3.269-5.141
		c0.993-1.696,2.04-3.39,2.774-5.202c1.365-3.371,2.565-6.811,3.739-10.255c0.491-1.443,0.72-2.975,1.117-4.453
		c0.069-0.259,0.383-0.452,0.584-0.675c0.24,0.225,0.634,0.414,0.693,0.679c0.242,1.081,0.368,2.188,0.563,3.281
		c1.013,5.68,2.408,11.259,4.795,16.53c1.354,2.988,2.816,5.938,4.429,8.792c1.126,1.994,2.479,3.888,3.932,5.66
		c1.446,1.763,3.201,3.271,4.7,4.996c0.431,0.497,0.69,1.388,0.605,2.044c-0.326,2.519-0.697,5.045-1.295,7.51
		c-0.546,2.251-1.317,4.46-2.153,6.624c-0.744,1.926-1.734,3.757-2.577,5.646c-0.636,1.425-1.104,2.934-1.842,4.301
		c-0.774,1.437-1.703,2.809-2.703,4.102c-1.271,1.645-2.602,3.261-4.063,4.731C78.631,97.133,77.547,97.521,76.604,98.075z
		 M78.85,78.593c-1.026,0.591-1.881,1.317-2.863,1.605c-2.894,0.847-5.76,0.473-8.515-0.682c-0.653-0.273-1.348-0.505-1.604,0.227
		c-0.121,0.344,0.418,1.12,0.852,1.404c0.524,0.345,1.311,0.267,1.883,0.563c1.539,0.802,3.073,1.127,4.786,0.589
		c0.818-0.256,1.734-0.444,2.572-0.352C77.877,82.163,79.169,80.842,78.85,78.593z M68.774,54.689
		c-2.058,0.742-4.239,0.842-5.999,2.167c-0.314,0.237-0.817,0.242-1.239,0.315c-0.992,0.172-1.805,1.284-1.472,2.423
		c0.981-0.418,1.928-0.836,2.887-1.226c0.828-0.337,1.676-0.912,2.503-0.891c0.995,0.025,1.74-0.172,2.646-0.592
		C69.333,56.314,69.424,55.76,68.774,54.689z M84.702,61.397c0.134-1.46-0.017-1.797-0.861-2.381
		c-1.507-1.042-2.988-2.121-4.521-3.124c-0.406-0.266-0.959-0.31-1.443-0.455c0.146,0.568,0.285,1.14,0.449,1.703
		c0.028,0.096,0.157,0.169,0.249,0.241c1.37,1.066,2.714,2.172,4.129,3.175C83.252,60.944,83.965,61.097,84.702,61.397z
		 M71.975,69.011c1.443-0.026,1.63-0.746,1.64-1.677c0.015-1.384,0.135-2.769,0.119-4.152c-0.006-0.512-0.268-1.021-0.412-1.532
		c-0.169,0.001-0.337,0.002-0.505,0.004C71.756,63.987,72.777,66.574,71.975,69.011z M67.136,61.091
		c-0.223-0.626-0.459-1.294-0.696-1.961c-0.159-0.02-0.318-0.041-0.477-0.061c-0.281,0.404-0.885,0.956-0.781,1.183
		C65.473,60.886,65.838,61.801,67.136,61.091z M80.188,59.769c-0.305,0.481-0.574,0.729-0.61,1.007
		c-0.054,0.406-0.041,0.887,0.142,1.232c0.106,0.201,0.599,0.198,0.917,0.287c0.042-0.371,0.15-0.75,0.105-1.109
		C80.699,60.846,80.495,60.526,80.188,59.769z"/>
	<path fill-rule="evenodd" clip-rule="evenodd" d="M78.85,78.593c0.319,2.249-0.973,3.57-2.89,3.355
		c-0.838-0.093-1.754,0.096-2.572,0.352c-1.713,0.538-3.247,0.213-4.786-0.589c-0.573-0.297-1.359-0.219-1.883-0.563
		c-0.434-0.284-0.972-1.061-0.852-1.404c0.256-0.731,0.952-0.5,1.604-0.227c2.755,1.154,5.622,1.528,8.515,0.682
		C76.969,79.91,77.823,79.184,78.85,78.593z"/>
	<path fill-rule="evenodd" clip-rule="evenodd" d="M68.774,54.689c0.65,1.07,0.559,1.625-0.674,2.196
		c-0.906,0.42-1.651,0.617-2.646,0.592c-0.827-0.021-1.675,0.554-2.503,0.891c-0.959,0.39-1.906,0.808-2.887,1.226
		c-0.333-1.14,0.48-2.251,1.472-2.423c0.422-0.074,0.925-0.079,1.239-0.315C64.535,55.531,66.716,55.432,68.774,54.689z"/>
	<path fill-rule="evenodd" clip-rule="evenodd" d="M84.702,61.397c-0.737-0.3-1.45-0.453-1.998-0.841
		c-1.415-1.003-2.759-2.108-4.129-3.175c-0.092-0.071-0.221-0.145-0.249-0.241c-0.164-0.563-0.303-1.135-0.449-1.703
		c0.484,0.146,1.037,0.189,1.443,0.455c1.532,1.002,3.014,2.082,4.521,3.124C84.686,59.6,84.836,59.938,84.702,61.397z"/>
	<path fill-rule="evenodd" clip-rule="evenodd" d="M71.975,69.011c0.803-2.438-0.218-5.024,0.842-7.357
		c0.168-0.001,0.336-0.002,0.505-0.004c0.145,0.511,0.406,1.02,0.412,1.532c0.016,1.383-0.104,2.768-0.119,4.152
		C73.604,68.266,73.418,68.985,71.975,69.011z"/>
	<path fill-rule="evenodd" clip-rule="evenodd" d="M67.136,61.091c-1.297,0.71-1.663-0.205-1.954-0.839
		c-0.104-0.228,0.5-0.779,0.781-1.183c0.159,0.021,0.318,0.041,0.477,0.061C66.677,59.797,66.913,60.464,67.136,61.091z"/>
	<path fill-rule="evenodd" clip-rule="evenodd" d="M80.188,59.769c0.307,0.758,0.511,1.077,0.554,1.417
		c0.045,0.359-0.063,0.738-0.105,1.109c-0.318-0.089-0.811-0.085-0.917-0.287c-0.183-0.345-0.195-0.826-0.142-1.232
		C79.614,60.497,79.884,60.25,80.188,59.769z"/>
</g>
</svg>
