<?xml version="1.0" encoding="utf-8"?>
<!-- Generator: Adobe Illustrator 16.0.0, SVG Export Plug-In . SVG Version: 6.00 Build 0)  -->
<!DOCTYPE svg PUBLIC "-//W3C//DTD SVG 1.1//EN" "http://www.w3.org/Graphics/SVG/1.1/DTD/svg11.dtd">
<svg version="1.1" id="Layer_1" xmlns="http://www.w3.org/2000/svg" xmlns:xlink="http://www.w3.org/1999/xlink" x="0px" y="0px"
	 width="144px" height="144px" viewBox="0 0 144 144" enable-background="new 0 0 144 144" xml:space="preserve">
<g>
	<path fill="#FFFFFF" d="M58.102,30.533c0.701,0.657,1.495,1.04,1.585,1.547c0.441,2.472,0.875,4.97,0.963,7.472
		c0.09,2.542-0.409,5.106-0.319,7.649c0.148,4.184,0.596,8.355,0.858,12.536c0.355,5.647,1.668,11.124,2.852,16.625
		c0.685,3.183,2.061,6.232,1.785,9.605c-0.033,0.405,0.285,0.918,0.583,1.256c0.911,1.035,0.88,2.089,0.216,3.197
		c-0.696,1.161-0.937,2.185,0.222,3.318c0.419,0.41,0.487,1.441,0.321,2.088c-0.091,0.355-0.985,0.642-1.549,0.712
		c-1.504,0.19-3.024,0.293-4.54,0.329c-0.434,0.011-1.158-0.226-1.263-0.521c-0.374-1.055-1.076-1.028-1.921-0.862
		c-2.896,0.57-5.792,1.137-8.688,1.702c-2.346,0.457-4.676,1.078-7.044,1.308c-1.66,0.161-3.35,0.562-5.094-0.496
		c-0.852-0.518-2.695-0.246-3.598,0.379c-1.145,0.792-2.158,0.785-3.352,0.74c-1.915-0.071-3.837-0.152-5.745-0.04
		c-0.587,0.034-1.401,0.562-1.654,1.083c-0.623,1.288,0.276,3.026,1.641,3.608c0.25,0.106,0.524,0.233,0.699,0.43
		c1.053,1.187,2.044,2.431,3.128,3.587c0.676,0.721,1.37,1.344,1.003,2.487c-0.066,0.207,0.161,0.623,0.373,0.784
		c0.859,0.651,0.489,1.065-0.241,1.364c-0.701,0.287-1.459,0.434-2.156,0.729c-3.37,1.424-6.884,1.614-10.431,1.096
		c-2.39-0.35-4.518-1.268-5.792-3.586c-0.196-0.355-1.049-0.35-1.599-0.511c-0.051,0.623-0.253,1.285-0.104,1.855
		c0.114,0.438,0.679,0.753,1.029,1.136c1.467,1.605,3.151,2.93,5.391,3.054c2.209,0.122,4.436,0.027,6.651-0.059
		c1.352-0.052,2.762-0.057,4.031-0.452c2.04-0.637,4.002-1.541,5.962-2.411c0.844-0.374,1.41-0.522,1.69,0.607
		c0.054,0.222,0.708,0.545,0.835,0.457c1.068-0.732,2.17-0.334,3.305-0.334c4.232,0.001,8.471-0.103,12.507-1.69
		c0.352-0.139,0.959,0.104,1.333,0.347c0.845,0.55,1.547,1.355,2.439,1.787c1.027,0.497,2.204,0.676,3.3,1.039
		c3.11,1.031,6.02,0.619,8.845-1.011c1.77-1.021,3.587-1.162,5.52-0.129c1.528,0.817,3.267,1.145,5.034,0.955
		c2.129-0.228,4.251-0.523,6.382-0.726c0.403-0.038,0.831,0.249,1.255,0.35c1.353,0.322,2.713,0.903,4.062,0.879
		c2.421-0.044,4.871-0.282,7.244-0.761c2.718-0.549,5.33-0.948,7.903,0.464c0.326,0.179,0.776,0.153,1.171,0.179
		c3.18,0.2,6.196-0.433,9.07-1.792c0.989-0.467,1.817-0.531,2.828,0.283c1.938,1.562,4.16,2.652,6.735,2.802
		c2.018,0.117,4.032,0.325,6.051,0.385c1.667,0.049,3.342-0.033,5.009-0.128c0.264-0.015,0.687-0.379,0.711-0.616
		c0.024-0.239-0.312-0.576-0.568-0.766c-0.207-0.152-0.529-0.203-0.801-0.207c-2.034-0.025-4.083-0.185-6.101-0.004
		c-4.167,0.372-7.742-0.701-10.633-3.793c-0.589-0.63-1.219-0.651-1.944-0.258c-2.931,1.589-6.008,2.581-9.401,2.3
		c-0.902-0.075-2.139,0.136-2.214-1.043c-0.04-0.621,0.775-1.531,1.435-1.926c4.57-2.732,7.889-6.678,10.824-10.993
		c0.24-0.354,0.194-1.3-0.082-1.526c-0.621-0.507-1.114-0.018-1.502,0.609c-0.921,1.489-1.707,3.129-2.897,4.373
		c-3.658,3.818-7.511,7.369-12.777,9.017c-2.72,0.851-5.361,1.595-8.258,1.575c-2.174-0.016-4.237-0.263-6.151-1.224
		c-1.018-0.511-1.818-0.321-2.826-0.027c-2.214,0.648-4.511,1.229-6.816,0.53c-1.27-0.385-2.511-0.966-3.649-1.651
		c-1.746-1.052-1.949-1.012-3.489,0.209c-1.012,0.802-2.201,1.532-3.428,1.878c-2.38,0.672-4.763,1.034-7.191-0.314
		c-1.428-0.793-2.685-1.658-3.77-2.851c-1.247-1.369-1.229-1.248-2.945-0.529c-1.374,0.575-2.864,0.875-4.305,1.287
		c-0.267,0.077-0.545,0.12-0.821,0.152c-1.895,0.222-3.787,0.52-5.688,0.622c-1.058,0.058-2.045-0.32-2.479-1.509
		c-0.083-0.228-0.453-0.409-0.727-0.495c-1.396-0.437-2.816-0.798-4.198-1.271c-0.383-0.131-0.707-0.519-0.99-0.847
		c-1.353-1.568-2.705-3.14-4-4.756c-0.233-0.292-0.344-0.845-0.237-1.193c0.083-0.271,0.581-0.556,0.915-0.582
		c1.141-0.092,2.292-0.032,3.435-0.102c3.85-0.233,7.697-0.517,11.547-0.738c1.189-0.067,2.39,0.067,3.579-0.003
		c3.414-0.199,6.822-0.511,10.238-0.677c4.588-0.222,9.18-0.387,13.772-0.486c0.959-0.021,1.921,0.388,2.891,0.536
		c0.793,0.121,1.88,0.515,2.35,0.153c1.558-1.194,3.266-0.839,4.941-0.896c3.187-0.109,6.375-0.23,9.563-0.235
		c2.991-0.005,5.987,0.057,8.973,0.231c3.772,0.221,7.582-0.208,11.324,0.701c0.575,0.141,1.393-0.237,1.927-0.616
		c0.261-0.185,0.245-0.957,0.124-1.4c-0.061-0.219-0.733-0.507-0.973-0.403c-1.668,0.725-3.369,0.412-5.081,0.356
		c-2.598-0.086-5.199-0.022-7.798-0.071c-1.429-0.027-1.747-0.504-1.334-1.794c0.379-1.18,0.263-1.355-1.005-1.466
		c-0.317-0.027-0.64-0.033-0.959-0.018c-5.893,0.289-11.785,0.605-17.681,0.836c-0.51,0.021-1.294-0.393-1.513-0.826
		c-0.588-1.161-1.015-2.422-1.368-3.681c-1.296-4.616-2.595-9.233-3.771-13.88c-0.597-2.355-0.749-4.738,1.69-6.327
		c0.593-0.386,1.296-0.6,1.923-0.939c4.445-2.408,8.825-4.943,13.342-7.208c3.99-2.001,7.978-3.97,11.765-6.359
		c3.032-1.913,6.254-3.525,9.369-5.31c0.934-0.535,1.831-1.154,2.661-1.836c0.254-0.208,0.23-0.753,0.333-1.144
		c-0.378-0.051-0.845-0.27-1.119-0.125c-1.051,0.557-2.029,1.251-3.056,1.858c-2.368,1.398-4.918,2.553-7.087,4.208
		c-3.857,2.944-8.286,4.783-12.502,7.037c-2.248,1.202-4.533,2.336-6.82,3.463c-3.22,1.587-6.418,3.225-9.701,4.671
		c-1.888,0.833-2.162,0.576-2.422-1.501c-0.332-2.648-0.616-5.302-0.9-7.956c-0.233-2.18-0.54-4.359-0.618-6.546
		c-0.062-1.712,0.895-3.484-0.384-5.108c-0.435-5.68-0.87-11.359-1.304-17.039c-0.009-0.12-0.01-0.24-0.007-0.36
		c0.023-1.199,0.43-1.403,1.476-0.849c0.982,0.521,1.996,0.998,3.032,1.401c4.224,1.643,8.487,3.186,12.682,4.899
		c2.119,0.865,4.114,2.031,6.182,3.029c1.398,0.675,2.829,1.283,4.235,1.942c1.1,0.515,2.2,1.033,3.27,1.606
		c1.155,0.62,2.305,1.259,3.402,1.974c1.43,0.932,2.837,1.906,4.191,2.944c0.665,0.51,1.533,0.589,2.091-0.065
		c0.579-0.681,0.338-1.241-0.324-1.711c-0.293-0.208-0.55-0.478-0.863-0.645c-3.164-1.692-6.305-3.432-9.515-5.031
		c-2.675-1.333-5.43-2.505-8.157-3.731c-3.852-1.732-7.694-3.485-11.569-5.162c-3.004-1.3-6.047-2.509-9.082-3.738
		c-1.571-0.636-3.154-1.247-4.745-1.833c-1.685-0.621-3.426-1.107-5.062-1.833c-0.931-0.413-1.249,0.073-1.627,0.644
		c-0.464,0.699-0.1,1.14,0.556,1.387c2.053,0.775,2.031,2.295,1.912,4.274C58.227,30.217,58.105,30.518,58.102,30.533z"/>
	<path fill-rule="evenodd" clip-rule="evenodd" d="M58.102,30.533c0.003-0.015,0.125-0.316,0.144-0.625
		c0.12-1.979,0.141-3.499-1.912-4.274c-0.656-0.247-1.02-0.688-0.556-1.387c0.378-0.571,0.697-1.057,1.627-0.644
		c1.637,0.726,3.378,1.212,5.062,1.833c1.591,0.586,3.173,1.197,4.745,1.833c3.034,1.229,6.078,2.438,9.082,3.738
		c3.875,1.677,7.718,3.43,11.569,5.162c2.728,1.227,5.482,2.399,8.157,3.731c3.21,1.599,6.351,3.339,9.515,5.031
		c0.313,0.167,0.57,0.438,0.863,0.645c0.662,0.47,0.903,1.03,0.324,1.711c-0.558,0.655-1.426,0.576-2.091,0.065
		c-1.354-1.038-2.762-2.012-4.191-2.944c-1.098-0.715-2.247-1.354-3.402-1.974c-1.069-0.574-2.17-1.091-3.27-1.606
		c-1.406-0.659-2.837-1.267-4.235-1.942c-2.067-0.998-4.062-2.164-6.182-3.029c-4.194-1.713-8.458-3.256-12.682-4.899
		c-1.036-0.403-2.05-0.88-3.032-1.401c-1.045-0.554-1.453-0.35-1.476,0.849c-0.002,0.12-0.001,0.24,0.007,0.36
		c0.434,5.68,0.869,11.359,1.304,17.039c1.279,1.624,0.323,3.396,0.384,5.108c0.078,2.187,0.384,4.366,0.618,6.546
		c0.284,2.654,0.568,5.308,0.9,7.956c0.26,2.077,0.534,2.334,2.422,1.501c3.283-1.447,6.481-3.084,9.701-4.671
		c2.287-1.127,4.572-2.261,6.82-3.463c4.216-2.254,8.645-4.093,12.502-7.037c2.169-1.655,4.719-2.81,7.087-4.208
		c1.026-0.606,2.005-1.301,3.056-1.858c0.274-0.145,0.741,0.074,1.119,0.125c-0.103,0.391-0.079,0.936-0.333,1.144
		c-0.83,0.682-1.728,1.301-2.661,1.836c-3.115,1.785-6.337,3.397-9.369,5.31c-3.787,2.389-7.774,4.357-11.765,6.359
		c-4.517,2.266-8.896,4.801-13.342,7.208c-0.627,0.339-1.33,0.553-1.923,0.939c-2.439,1.589-2.287,3.972-1.69,6.327
		c1.177,4.646,2.476,9.264,3.771,13.88c0.354,1.259,0.78,2.52,1.368,3.681c0.219,0.434,1.003,0.847,1.513,0.826
		c5.896-0.23,11.788-0.547,17.681-0.836c0.319-0.016,0.642-0.01,0.959,0.018c1.268,0.11,1.384,0.286,1.005,1.466
		c-0.413,1.29-0.095,1.767,1.334,1.794c2.599,0.049,5.2-0.015,7.798,0.071c1.712,0.056,3.413,0.368,5.081-0.356
		c0.239-0.104,0.912,0.185,0.973,0.403c0.121,0.443,0.137,1.216-0.124,1.4c-0.534,0.379-1.352,0.757-1.927,0.616
		c-3.742-0.909-7.552-0.48-11.324-0.701c-2.985-0.175-5.981-0.236-8.973-0.231c-3.188,0.005-6.377,0.126-9.563,0.235
		c-1.676,0.058-3.384-0.298-4.941,0.896c-0.47,0.361-1.557-0.032-2.35-0.153c-0.97-0.148-1.932-0.557-2.891-0.536
		c-4.592,0.1-9.184,0.265-13.772,0.486c-3.416,0.166-6.824,0.478-10.238,0.677c-1.189,0.07-2.39-0.064-3.579,0.003
		c-3.85,0.222-7.697,0.505-11.547,0.738c-1.143,0.069-2.294,0.01-3.435,0.102c-0.333,0.026-0.832,0.312-0.915,0.582
		c-0.107,0.349,0.003,0.901,0.237,1.193c1.294,1.616,2.646,3.188,4,4.756c0.283,0.328,0.607,0.716,0.99,0.847
		c1.382,0.473,2.803,0.834,4.198,1.271c0.274,0.086,0.644,0.268,0.727,0.495c0.434,1.188,1.421,1.566,2.479,1.509
		c1.902-0.103,3.793-0.4,5.688-0.622c0.276-0.032,0.555-0.075,0.821-0.152c1.441-0.412,2.931-0.712,4.305-1.287
		c1.716-0.719,1.699-0.84,2.945,0.529c1.085,1.192,2.342,2.058,3.77,2.851c2.429,1.349,4.811,0.986,7.191,0.314
		c1.227-0.346,2.417-1.076,3.428-1.878c1.541-1.221,1.743-1.261,3.489-0.209c1.139,0.686,2.38,1.267,3.649,1.651
		c2.306,0.698,4.603,0.118,6.816-0.53c1.008-0.294,1.809-0.483,2.826,0.027c1.914,0.961,3.978,1.208,6.151,1.224
		c2.896,0.02,5.538-0.725,8.258-1.575c5.267-1.647,9.119-5.198,12.777-9.017c1.19-1.244,1.977-2.884,2.897-4.373
		c0.388-0.627,0.881-1.116,1.502-0.609c0.276,0.227,0.322,1.173,0.082,1.526c-2.936,4.315-6.254,8.261-10.824,10.993
		c-0.659,0.395-1.475,1.305-1.435,1.926c0.075,1.179,1.312,0.968,2.214,1.043c3.394,0.281,6.471-0.711,9.401-2.3
		c0.726-0.394,1.355-0.372,1.944,0.258c2.891,3.092,6.466,4.165,10.633,3.793c2.018-0.181,4.066-0.021,6.101,0.004
		c0.271,0.004,0.594,0.055,0.801,0.207c0.256,0.189,0.593,0.526,0.568,0.766c-0.024,0.237-0.447,0.602-0.711,0.616
		c-1.667,0.095-3.342,0.177-5.009,0.128c-2.019-0.06-4.033-0.268-6.051-0.385c-2.575-0.149-4.798-1.239-6.735-2.802
		c-1.011-0.814-1.839-0.75-2.828-0.283c-2.874,1.359-5.891,1.992-9.07,1.792c-0.395-0.025-0.845,0-1.171-0.179
		c-2.573-1.412-5.186-1.013-7.903-0.464c-2.373,0.479-4.823,0.717-7.244,0.761c-1.349,0.024-2.709-0.557-4.062-0.879
		c-0.424-0.101-0.852-0.388-1.255-0.35c-2.131,0.202-4.253,0.498-6.382,0.726c-1.768,0.189-3.506-0.138-5.034-0.955
		c-1.933-1.033-3.75-0.892-5.52,0.129c-2.826,1.63-5.735,2.042-8.845,1.011c-1.096-0.363-2.273-0.542-3.3-1.039
		c-0.892-0.432-1.594-1.237-2.439-1.787c-0.374-0.242-0.982-0.485-1.333-0.347c-4.037,1.588-8.275,1.691-12.507,1.69
		c-1.135,0-2.237-0.398-3.305,0.334c-0.127,0.088-0.781-0.235-0.835-0.457c-0.28-1.13-0.846-0.981-1.69-0.607
		c-1.96,0.87-3.922,1.774-5.962,2.411c-1.269,0.396-2.679,0.4-4.031,0.452c-2.215,0.086-4.441,0.181-6.651,0.059
		c-2.239-0.124-3.924-1.448-5.391-3.054c-0.35-0.383-0.915-0.698-1.029-1.136c-0.149-0.57,0.053-1.232,0.104-1.855
		c0.549,0.161,1.403,0.155,1.599,0.511c1.274,2.318,3.402,3.236,5.792,3.586c3.547,0.519,7.062,0.328,10.431-1.096
		c0.697-0.295,1.456-0.441,2.156-0.729c0.73-0.299,1.101-0.713,0.241-1.364c-0.212-0.161-0.439-0.577-0.373-0.784
		c0.367-1.144-0.328-1.767-1.003-2.487c-1.084-1.156-2.076-2.4-3.128-3.587c-0.174-0.196-0.449-0.323-0.699-0.43
		c-1.364-0.582-2.264-2.32-1.641-3.608c0.253-0.521,1.066-1.049,1.654-1.083c1.908-0.112,3.831-0.031,5.745,0.04
		c1.193,0.045,2.207,0.052,3.352-0.74c0.903-0.625,2.746-0.896,3.598-0.379c1.744,1.058,3.434,0.657,5.094,0.496
		c2.368-0.229,4.698-0.851,7.044-1.308c2.896-0.565,5.792-1.132,8.688-1.702c0.845-0.166,1.548-0.192,1.921,0.862
		c0.104,0.296,0.829,0.532,1.263,0.521c1.516-0.036,3.036-0.139,4.54-0.329c0.563-0.07,1.458-0.356,1.549-0.712
		c0.167-0.646,0.099-1.678-0.321-2.088c-1.158-1.134-0.917-2.157-0.222-3.318c0.664-1.108,0.694-2.162-0.216-3.197
		c-0.297-0.338-0.616-0.851-0.583-1.256c0.276-3.373-1.1-6.423-1.785-9.605c-1.184-5.502-2.497-10.979-2.852-16.625
		c-0.262-4.181-0.71-8.353-0.858-12.536c-0.09-2.542,0.409-5.106,0.319-7.649c-0.089-2.501-0.522-5-0.963-7.472
		C59.596,31.573,58.803,31.19,58.102,30.533z M64.451,33.204c-0.104-0.889-0.136-1.773-0.326-2.623
		c-0.171-0.764-0.391-1.573-0.816-2.211c-0.482-0.726-1.391-1.197-2.175-0.634c-0.884,0.634-0.453,1.601,0.143,2.191
		c0.863,0.855,1.142,1.872,1.32,2.987c0.062,0.388,0.151,0.806,0.358,1.125c0.191,0.293,0.559,0.472,0.848,0.701
		c0.2-0.32,0.425-0.627,0.588-0.965C64.472,33.607,64.436,33.384,64.451,33.204z M73.494,92.268
		c-0.385-1.506-0.641-2.792-1.056-4.025c-0.283-0.842-0.946-0.84-1.522-0.094c-1.428,1.852-1.331,3.185,0.455,4.749
		c0.332,0.29,0.992,0.493,1.37,0.361C73.111,93.131,73.315,92.524,73.494,92.268z M71.29,83.732
		c-0.369-0.456-0.652-1.128-1.126-1.314c-0.59-0.232-1.76,1.293-1.622,2.147c0.064,0.392,0.494,0.975,0.826,1.025
		C70.323,85.737,71.059,84.916,71.29,83.732z M62.443,59.161c0.244,0.372,0.5,0.762,0.757,1.153
		c0.368-0.302,0.776-0.569,1.088-0.921c0.197-0.223,0.342-0.575,0.342-0.869c-0.001-0.41-0.16-0.82-0.251-1.23
		c-0.466,0.132-1.04,0.143-1.366,0.433C62.706,58,62.661,58.568,62.443,59.161z M65.191,66.672c0.647,0.508,1.004,1.021,1.338,1.006
		c0.912-0.041,1.127-0.824,1.047-1.567c-0.041-0.378-0.436-0.718-0.671-1.076C66.409,65.509,65.913,65.982,65.191,66.672z
		 M65.816,43.984c-0.467-0.601-0.742-1.26-1.028-1.265c-0.95-0.017-1.1,0.812-1.041,1.532c0.031,0.379,0.427,0.728,0.658,1.089
		C64.831,44.933,65.255,44.524,65.816,43.984z M67.657,71.018c-0.397,0.68-0.683,1.003-0.764,1.373
		c-0.046,0.207,0.245,0.488,0.384,0.737c0.275-0.286,0.649-0.53,0.788-0.871C68.154,72.041,67.893,71.683,67.657,71.018z
		 M64.24,62.684c-0.316,0.625-0.589,0.935-0.597,1.251c-0.005,0.253,0.312,0.513,0.487,0.77c0.222-0.289,0.556-0.551,0.63-0.874
		C64.815,63.595,64.528,63.281,64.24,62.684z M66.233,49.261c-0.116-0.175-0.232-0.351-0.348-0.526
		c-0.184-0.163-0.367-0.325-0.551-0.487c-0.192,0.252-0.473,0.482-0.541,0.764c-0.037,0.154,0.287,0.562,0.448,0.562
		C65.572,49.574,65.903,49.376,66.233,49.261z"/>
	<path fill-rule="evenodd" clip-rule="evenodd" fill="#FFFFFF" d="M64.451,33.204c-0.015,0.181,0.021,0.404-0.06,0.571
		c-0.163,0.338-0.388,0.646-0.588,0.965c-0.29-0.229-0.657-0.408-0.848-0.701c-0.208-0.319-0.296-0.737-0.358-1.125
		c-0.178-1.115-0.457-2.132-1.32-2.987c-0.596-0.591-1.027-1.557-0.143-2.191c0.784-0.562,1.692-0.091,2.175,0.634
		c0.425,0.638,0.645,1.447,0.816,2.211C64.315,31.43,64.348,32.315,64.451,33.204z"/>
	<path fill-rule="evenodd" clip-rule="evenodd" fill="#FFFFFF" d="M73.494,92.268c-0.179,0.257-0.383,0.863-0.753,0.991
		c-0.378,0.132-1.038-0.071-1.37-0.361c-1.786-1.564-1.883-2.897-0.455-4.749c0.576-0.746,1.239-0.748,1.522,0.094
		C72.854,89.476,73.109,90.762,73.494,92.268z"/>
	<path fill-rule="evenodd" clip-rule="evenodd" fill="#FFFFFF" d="M71.29,83.732c-0.231,1.184-0.966,2.005-1.922,1.858
		c-0.332-0.051-0.762-0.634-0.826-1.025c-0.139-0.854,1.032-2.38,1.622-2.147C70.638,82.604,70.921,83.276,71.29,83.732z"/>
	<path fill-rule="evenodd" clip-rule="evenodd" fill="#FFFFFF" d="M62.443,59.161c0.217-0.593,0.263-1.161,0.57-1.434
		c0.326-0.29,0.9-0.301,1.366-0.433c0.091,0.41,0.25,0.82,0.251,1.23c0,0.293-0.145,0.646-0.342,0.869
		c-0.312,0.352-0.72,0.619-1.088,0.921C62.944,59.923,62.687,59.533,62.443,59.161z"/>
	<path fill-rule="evenodd" clip-rule="evenodd" fill="#FFFFFF" d="M65.191,66.672c0.722-0.69,1.218-1.164,1.714-1.637
		c0.235,0.357,0.63,0.697,0.671,1.076c0.08,0.743-0.135,1.526-1.047,1.567C66.195,67.693,65.838,67.181,65.191,66.672z"/>
	<path fill-rule="evenodd" clip-rule="evenodd" fill="#FFFFFF" d="M65.816,43.984c-0.561,0.54-0.986,0.948-1.411,1.356
		c-0.231-0.362-0.626-0.71-0.658-1.089c-0.059-0.72,0.091-1.548,1.041-1.532C65.074,42.725,65.349,43.384,65.816,43.984z"/>
	<path fill-rule="evenodd" clip-rule="evenodd" fill="#FFFFFF" d="M67.657,71.018c0.236,0.665,0.497,1.023,0.408,1.239
		c-0.139,0.341-0.513,0.585-0.788,0.871c-0.139-0.249-0.43-0.53-0.384-0.737C66.974,72.021,67.26,71.698,67.657,71.018z"/>
	<path fill-rule="evenodd" clip-rule="evenodd" fill="#FFFFFF" d="M64.24,62.684c0.288,0.597,0.575,0.911,0.521,1.147
		c-0.074,0.323-0.408,0.585-0.63,0.874c-0.175-0.256-0.493-0.517-0.487-0.77C63.65,63.619,63.924,63.309,64.24,62.684z"/>
	<path fill-rule="evenodd" clip-rule="evenodd" fill="#FFFFFF" d="M66.233,49.261c-0.33,0.116-0.661,0.313-0.991,0.312
		c-0.162,0-0.485-0.408-0.448-0.562c0.068-0.282,0.349-0.512,0.541-0.764c0.184,0.162,0.367,0.325,0.551,0.487
		C66.001,48.91,66.117,49.085,66.233,49.261z"/>
</g>
</svg>
