<?xml version="1.0" encoding="utf-8"?>
<!-- Generator: Adobe Illustrator 16.0.0, SVG Export Plug-In . SVG Version: 6.00 Build 0)  -->
<!DOCTYPE svg PUBLIC "-//W3C//DTD SVG 1.1//EN" "http://www.w3.org/Graphics/SVG/1.1/DTD/svg11.dtd">
<svg version="1.1" id="Layer_1" xmlns="http://www.w3.org/2000/svg" xmlns:xlink="http://www.w3.org/1999/xlink" x="0px" y="0px"
	 width="144px" height="144px" viewBox="0 0 144 144" enable-background="new 0 0 144 144" xml:space="preserve">
<g>
	<path fill="#FFFFFF" d="M102.534,69.585c-0.213,0.343-0.53,0.668-0.63,1.051c-0.193,0.742-0.506,0.852-1.211,0.578
		c-0.474-0.184-1.061-0.163-1.584-0.108c-1.217,0.125-2.423,0.44-3.639,0.47c-1.806,0.045-3.619-0.177-5.425-0.128
		c-3.179,0.087-6.357,0.254-9.53,0.467c-1.457,0.098-2.905,0.354-4.349,0.59c-2.485,0.407-4.962,0.864-7.445,1.283
		c-1.211,0.204-2.441,0.31-3.64,0.566c-3.857,0.829-7.709,1.678-11.548,2.583c-1.148,0.271-2.246,0.755-3.367,1.142
		c0.016,0.155,0.032,0.311,0.048,0.466c0.441,0.135,0.882,0.27,1.41,0.431c0.852,3.085-0.116,6.37,0.399,9.605
		c0.106,0.671-0.041,1.556,0.211,2.271c0.719,2.039,0.009,4.113,0.277,6.214c0.603,4.725,0.476,9.543,0.645,14.323
		c0.013,0.358,0.031,0.718,0.038,1.076c0.064,3.448,0.109,6.896,0.201,10.344c0.025,0.95-0.524,1.055-1.263,1.183
		c-0.678,0.117-1.319,0.446-2.019,0.697c0.889,1.526,1.935,1.644,3.235,1.238c1.614-0.503,3.254-0.944,4.906-1.307
		c2.732-0.599,5.478-1.146,8.23-1.65c1.747-0.319,3.51-0.57,5.276-0.763c2.089-0.227,4.222-0.18,6.277-0.567
		c3.441-0.65,6.89-0.938,10.379-0.882c4.484,0.072,8.969,0.155,13.454,0.226c1.888,0.029,1.886,0.021,2.432,1.838
		c0.057,0.188,0.129,0.407,0.268,0.524c0.166,0.139,0.438,0.286,0.614,0.239c0.172-0.045,0.438-0.423,0.394-0.495
		c-0.709-1.19,0.978-2.708-0.53-3.808c-0.185-0.135-0.086-0.659-0.121-1.03c0.461-0.102,0.831-0.183,1.065-0.234
		c0-1.006,0-1.918,0-2.613c-0.396-0.463-0.768-0.896-1.139-1.329c-0.177-0.206-0.356-0.593-0.528-0.59
		c-1.227,0.022-1.218-0.859-1.356-1.689c-0.208-1.249-0.534-2.481-0.682-3.736c-0.571-4.884-1.215-9.765-1.582-14.665
		c-0.2-2.688,0.009-5.42,0.194-8.121c0.232-3.366,0.562-6.73,1.001-10.075c0.137-1.042,0.061-2.479,1.721-2.682
		c0.144-0.019,0.249-0.344,0.512-0.733C102.118,71.947,103.637,70.115,102.534,69.585z M80.644,47.196
		c0.533-0.087,1.129-0.058,1.182-0.213c0.434-1.274,1.479-0.803,2.307-0.863c2.295-0.167,4.592-0.318,6.89-0.418
		c1.577-0.068,3.159-0.021,4.737-0.071c0.325-0.01,0.645-0.22,0.966-0.337c0.005-0.117,0.01-0.235,0.015-0.352
		c-1.843,0.145-2.134-1.08-2.367-2.398c-0.056-0.314-0.262-0.648-0.494-0.875c-0.456-0.445-1.058-0.756-1.458-1.24
		c-1.058-1.274-2.014-2.631-3.059-3.916c-1.095-1.347-2.395-2.549-3.345-3.986c-2.792-4.223-5.453-8.532-8.169-12.804
		c-1.146-1.803-2.269-3.623-3.481-5.379c-0.267-0.386-0.874-0.537-1.325-0.796c-0.147,0.447-0.33,0.886-0.432,1.342
		c-0.084,0.384,0.052,0.86-0.126,1.172c-1.544,2.7-3.027,5.444-4.739,8.035c-2.612,3.954-5.345,7.83-8.119,11.673
		c-1.815,2.515-3.846,4.875-5.675,7.381c-0.851,1.165-1.858,1.792-3.272,1.827c-0.319,0.007-0.668-0.044-0.945,0.072
		c-0.195,0.082-0.374,0.394-0.396,0.619c-0.013,0.133,0.343,0.455,0.449,0.422c0.676-0.211,1.191-0.13,1.645,0.48
		c0.089,0.121,0.596-0.012,0.884-0.106c0.75-0.246,1.476-0.738,2.229-0.772c3.542-0.161,7.09-0.2,10.636-0.287
		c0.278-0.007,0.573,0.005,0.829-0.084c1.046-0.366,1.112,0.291,1.009,0.998c-0.198,1.369-0.439,2.733-0.707,4.09
		c-0.226,1.145-0.515,2.277-0.848,3.727c0.572,0.789,0.319,2.125-0.912,3.025c1.196,0.874,1.053,2.061-0.366,3.029
		c1.361,1.006,1.324,1.79-0.122,2.602c0.618,1.469,1.679,2.908,0.227,4.656c0.491,0.144,0.921,0.202,1.329,0.134
		c2.014-0.338,4.01-0.851,6.037-1.029c2.023-0.179,4.074-0.062,6.112-0.024c2.904,0.054,5.808,0.178,8.711,0.209
		c0.416,0.004,0.836-0.342,1.003-0.416c-0.573-0.997-1.123-1.735-1.445-2.562c-0.539-1.382,0.797-1.583,1.534-1.997
		c-0.334-0.649-0.531-1.229-0.897-1.67c-0.228-0.275-0.698-0.399-1.082-0.478c-0.342-0.07-0.715,0.028-1.074,0.033
		c-1.665,0.023-1.857-0.22-1.494-1.909c0.729-0.111,1.475-0.196,2.206-0.35c0.263-0.055,0.491-0.272,0.734-0.415
		c-0.275-0.151-0.549-0.419-0.83-0.428c-0.505-0.015-1.063,0.021-1.515,0.224c-0.937,0.422-1.26-0.095-1.435-0.826
		c-0.237-0.997-0.424-2.008-0.598-3.019C81.265,51.056,80.969,49.185,80.644,47.196z"/>
	<path fill-rule="evenodd" clip-rule="evenodd" d="M102.534,69.585c1.103,0.529-0.416,2.362,1.599,2.2
		c-0.263,0.389-0.368,0.714-0.512,0.733c-1.66,0.203-1.584,1.64-1.721,2.682c-0.439,3.345-0.769,6.709-1.001,10.075
		c-0.186,2.701-0.395,5.434-0.194,8.121c0.367,4.9,1.011,9.781,1.582,14.665c0.147,1.255,0.474,2.487,0.682,3.736
		c0.139,0.83,0.13,1.712,1.356,1.689c0.172-0.003,0.352,0.384,0.528,0.59c0.371,0.434,0.742,0.866,1.139,1.329
		c0,0.695,0,1.607,0,2.613c-0.234,0.052-0.604,0.133-1.065,0.234c0.035,0.371-0.063,0.896,0.121,1.03
		c1.508,1.1-0.179,2.617,0.53,3.808c0.044,0.072-0.222,0.45-0.394,0.495c-0.177,0.047-0.448-0.101-0.614-0.239
		c-0.139-0.117-0.211-0.337-0.268-0.524c-0.546-1.817-0.544-1.809-2.432-1.838c-4.485-0.07-8.97-0.153-13.454-0.226
		c-3.489-0.057-6.938,0.231-10.379,0.882c-2.055,0.388-4.188,0.341-6.277,0.567c-1.766,0.192-3.529,0.443-5.276,0.763
		c-2.752,0.504-5.498,1.052-8.23,1.65c-1.652,0.362-3.292,0.804-4.906,1.307c-1.3,0.405-2.347,0.288-3.235-1.238
		c0.7-0.251,1.341-0.58,2.019-0.697c0.739-0.128,1.289-0.232,1.263-1.183c-0.091-3.447-0.136-6.896-0.201-10.344
		c-0.007-0.358-0.025-0.718-0.038-1.076c-0.169-4.78-0.042-9.599-0.645-14.323c-0.268-2.101,0.442-4.175-0.277-6.214
		c-0.252-0.716-0.104-1.601-0.211-2.271c-0.515-3.235,0.453-6.521-0.399-9.605c-0.527-0.161-0.968-0.296-1.41-0.431
		c-0.016-0.155-0.032-0.311-0.048-0.466c1.121-0.387,2.219-0.87,3.367-1.142c3.839-0.905,7.691-1.754,11.548-2.583
		c1.199-0.257,2.429-0.362,3.64-0.566c2.483-0.419,4.959-0.876,7.445-1.283c1.443-0.236,2.892-0.492,4.349-0.59
		c3.173-0.213,6.352-0.38,9.53-0.467c1.806-0.049,3.619,0.173,5.425,0.128c1.216-0.03,2.422-0.345,3.639-0.47
		c0.523-0.054,1.11-0.075,1.584,0.108c0.705,0.274,1.018,0.164,1.211-0.578C102.004,70.254,102.321,69.928,102.534,69.585z
		 M81.173,87.164l0.031,0.032c0.123-0.323,0.181-0.695,0.381-0.96c0.976-1.292,1.992-2.553,2.988-3.829
		c1.644-2.106,3.308-4.198,4.9-6.343c0.272-0.365,0.442-1.062,0.271-1.42c-0.131-0.271-0.885-0.351-1.351-0.327
		c-0.822,0.043-1.638,0.23-2.455,0.355c-1.857,0.284-3.718,0.146-4.913,2.319c-1.087,1.975-2.863,3.571-4.34,5.33
		c-1.965,2.339-3.962,4.65-5.895,7.016c-2.979,3.644-5.978,7.274-8.845,11.005c-1.526,1.985-2.762,4.191-4.194,6.253
		c-0.377,0.542-0.505,1.593-1.731,1.246c0.312-0.707,0.485-1.428,0.894-1.973c2.102-2.8,4.227-5.586,6.419-8.315
		c1.504-1.873,3.189-3.601,4.693-5.474c3.061-3.809,6.058-7.67,9.069-11.518c0.214-0.273,0.531-0.659,0.473-0.918
		c-0.302-1.342,0.663-1.86,1.479-2.498c0.461-0.36,0.915-0.729,1.372-1.094c-0.075-0.179-0.151-0.357-0.227-0.536
		c-0.879,0.12-1.793,0.129-2.628,0.391c-1.064,0.333-2.34-0.129-3.217,0.944c-0.814,0.997-1.752,1.893-2.599,2.865
		c-3.013,3.461-6.04,6.911-9.005,10.412c-2.391,2.822-4.712,5.704-7.04,8.578c-0.365,0.451-0.487,1.186-0.928,1.469
		c-0.853,0.548-0.991,1.251-0.951,2.137c0.171,3.783,0.324,7.567,0.48,11.351c0.097,2.351,0.18,4.701,0.29,7.051
		c0.022,0.473,0.054,0.979,0.241,1.397c0.125,0.279,0.549,0.627,0.814,0.607c1.34-0.101,2.678-0.271,4.004-0.492
		c2.097-0.351,4.178-0.802,6.277-1.138c4.678-0.748,9.353-1.526,14.047-2.149c3.822-0.507,7.667-0.875,11.511-1.175
		c3.422-0.267,6.857-0.349,10.286-0.527c1.071-0.057,1.411-0.555,1.09-1.565c-0.395-1.24-0.868-2.457-1.199-3.713
		c-0.18-0.68-0.525-0.833-1.119-0.718c-0.35,0.067-0.694,0.157-1.04,0.241c-1.594,0.39-2.003,0.209-2.864-1.104
		c-0.355-0.543-0.824-1.012-1.257-1.533c0.633-0.501,1.238-0.127,1.784,0.494c0.409,0.467,0.714,1.188,1.218,1.366
		c0.63,0.223,1.418,0.038,2.132-0.031c0.641-0.062,0.977-0.392,0.873-1.116c-0.284-2.002-0.575-4.006-0.774-6.018
		c-0.338-3.396-0.621-6.797-0.896-10.199c-0.066-0.826-0.01-1.663-0.01-2.768c-0.493,0.264-0.865,0.339-1.021,0.564
		c-1.157,1.671-2.227,3.403-3.408,5.056c-2.625,3.671-5.354,7.27-7.924,10.978c-0.879,1.268-1.406,2.776-2.108,4.168
		c-0.099,0.194-0.251,0.448-0.425,0.493c-0.178,0.046-0.54-0.081-0.596-0.222c-0.082-0.208-0.043-0.544,0.08-0.74
		c1.114-1.771,2.188-3.572,3.406-5.271c2.704-3.77,5.498-7.474,8.221-11.229c0.556-0.767,0.96-1.642,1.434-2.467
		c-0.099-0.118-0.198-0.235-0.298-0.353c-0.757,0.346-1.514,0.692-2.271,1.039c1.316-1.211,2.772-2.195,4.21-3.206
		c0.263-0.185,0.584-0.451,0.644-0.73c0.156-0.733,0.193-1.494,0.26-2.245c0.336-3.796,0.65-7.594,1.007-11.388
		c0.113-1.206-0.804-2.149-1.999-1.986c-1.213,0.165-2.432,0.421-3.647,0.414c-2.274-0.015-3.871,1.021-5.122,2.818
		c-0.67,0.963-1.423,1.869-2.159,2.783c-1.211,1.505-2.425,3.008-3.666,4.487C83.298,84.765,82.227,85.957,81.173,87.164z
		 M53.612,99.599c0.113,0.054,0.226,0.107,0.34,0.16c0.678-0.741,1.386-1.459,2.03-2.23c2.883-3.455,5.763-6.914,8.613-10.396
		c1.37-1.674,2.672-3.404,4.005-5.108c1.157-1.479,2.319-2.954,3.466-4.441c0.127-0.164,0.28-0.443,0.22-0.583
		c-0.075-0.174-0.37-0.379-0.55-0.361c-1.289,0.124-2.554,0.24-3.516,1.352c-1.139,1.315-2.412,2.516-3.609,3.783
		c-1.049,1.109-2.09,2.229-3.105,3.369c-1.304,1.467-2.574,2.964-3.868,4.439c-1.135,1.295-2.297,2.566-3.413,3.877
		c-0.272,0.319-0.569,0.747-0.584,1.136C53.575,96.26,53.612,97.93,53.612,99.599z M67.146,77.958
		c-0.078-0.137-0.156-0.274-0.233-0.412c-1.745,0.251-3.649-0.016-4.958,1.67c-0.238,0.306-0.35,0.717-0.608,0.999
		c-2.05,2.242-4.014,4.579-6.221,6.657c-1.795,1.691-2.085,3.58-1.534,6.229C58.23,87.919,62.688,82.938,67.146,77.958z
		 M84.402,73.574c-0.03-0.163-0.06-0.325-0.09-0.487c-0.373-0.031-0.748-0.103-1.119-0.086c-1.623,0.069-3.26,0.054-4.863,0.275
		c-2.767,0.382-5.513,0.907-8.261,1.404c-0.237,0.043-0.431,0.32-0.645,0.489c0.245,0.188,0.498,0.546,0.733,0.536
		c1.344-0.062,2.692-0.149,4.022-0.344c2.849-0.415,5.688-0.892,8.527-1.364C83.28,73.902,83.838,73.718,84.402,73.574z
		 M68.883,75.61c-0.065-0.129-0.131-0.257-0.197-0.385c-0.231-0.026-0.473-0.108-0.692-0.07c-1.811,0.317-3.62,0.643-5.42,1.012
		c-0.157,0.032-0.247,0.396-0.368,0.606c0.258,0.111,0.532,0.344,0.773,0.314c1.563-0.19,3.129-0.394,4.673-0.695
		C68.096,76.306,68.474,75.88,68.883,75.61z M103.683,119.836c-0.187-0.714-0.254-1.719-0.499-1.764
		c-0.604-0.112-1.312,0.163-1.934,0.396c-0.19,0.071-0.343,0.523-0.317,0.782c0.016,0.153,0.397,0.346,0.639,0.387
		C102.146,119.735,102.734,119.754,103.683,119.836z M52.74,80.132c0.205,0.542,0.399,1.055,0.593,1.567
		c0.177-0.248,0.465-0.479,0.507-0.747C53.93,80.375,53.879,79.791,52.74,80.132z"/>
	<path fill-rule="evenodd" clip-rule="evenodd" d="M80.644,47.196c0.325,1.989,0.621,3.86,0.942,5.728
		c0.174,1.011,0.36,2.021,0.598,3.019c0.175,0.731,0.498,1.249,1.435,0.826c0.451-0.203,1.01-0.238,1.515-0.224
		c0.281,0.009,0.555,0.277,0.83,0.428c-0.243,0.143-0.472,0.36-0.734,0.415c-0.731,0.153-1.478,0.239-2.206,0.35
		c-0.363,1.688-0.171,1.932,1.494,1.909c0.359-0.005,0.732-0.103,1.074-0.033c0.384,0.078,0.854,0.203,1.082,0.478
		c0.366,0.44,0.563,1.021,0.897,1.67c-0.737,0.414-2.073,0.615-1.534,1.997c0.322,0.827,0.872,1.565,1.445,2.562
		c-0.167,0.074-0.587,0.42-1.003,0.416c-2.903-0.031-5.807-0.155-8.711-0.209c-2.038-0.038-4.089-0.154-6.112,0.024
		c-2.026,0.178-4.022,0.691-6.037,1.029c-0.408,0.068-0.838,0.01-1.329-0.134c1.452-1.748,0.391-3.188-0.227-4.656
		c1.446-0.812,1.483-1.596,0.122-2.602c1.419-0.969,1.562-2.156,0.366-3.029c1.231-0.899,1.483-2.236,0.912-3.025
		c0.333-1.45,0.622-2.582,0.848-3.727c0.268-1.357,0.509-2.721,0.707-4.09c0.103-0.708,0.037-1.364-1.009-0.998
		c-0.255,0.089-0.551,0.078-0.829,0.084c-3.546,0.087-7.094,0.125-10.636,0.287c-0.752,0.034-1.479,0.527-2.229,0.772
		c-0.289,0.095-0.795,0.227-0.884,0.106c-0.454-0.611-0.969-0.691-1.645-0.48c-0.105,0.033-0.462-0.289-0.449-0.422
		c0.022-0.225,0.201-0.537,0.396-0.619c0.276-0.116,0.626-0.064,0.945-0.072c1.414-0.034,2.421-0.662,3.272-1.827
		c1.829-2.506,3.86-4.866,5.675-7.381c2.773-3.843,5.506-7.72,8.119-11.673c1.712-2.591,3.195-5.335,4.739-8.035
		c0.178-0.312,0.042-0.788,0.126-1.172c0.102-0.457,0.284-0.896,0.432-1.342c0.451,0.259,1.059,0.41,1.325,0.796
		c1.213,1.757,2.335,3.577,3.481,5.379c2.716,4.272,5.377,8.582,8.169,12.804c0.95,1.437,2.25,2.64,3.345,3.986
		c1.045,1.285,2.001,2.642,3.059,3.916c0.4,0.483,1.002,0.794,1.458,1.24c0.232,0.228,0.438,0.562,0.494,0.875
		c0.233,1.318,0.524,2.543,2.367,2.398c-0.005,0.117-0.01,0.235-0.015,0.352c-0.321,0.117-0.641,0.327-0.966,0.337
		c-1.578,0.05-3.16,0.003-4.737,0.071c-2.298,0.1-4.595,0.251-6.89,0.418c-0.828,0.06-1.873-0.412-2.307,0.863
		C81.772,47.138,81.177,47.109,80.644,47.196z M74.39,52.286c0.062,0.188,0.126,0.375,0.188,0.562
		c1.802-0.43,3.608-0.844,5.396-1.325c0.142-0.038,0.253-0.564,0.214-0.84c-0.266-1.88-0.592-3.75-0.862-5.629
		c-0.092-0.639-0.078-1.292,0.759-1.496c0.898,1.75,0.897,1.742,3.186,1.484c0.457-0.051,0.926,0.005,1.388-0.009
		c2.427-0.074,4.854-0.15,7.279-0.237c0.475-0.017,0.947-0.083,1.42-0.127c-0.113-0.559-0.062-1.241-0.369-1.658
		c-2.082-2.828-4.317-5.546-6.356-8.405c-2.908-4.078-5.714-8.231-8.516-12.383c-1.214-1.798-2.304-3.68-3.463-5.515
		c-0.539-0.852-0.91-0.737-1.411,0.13c-1.812,3.14-3.621,6.288-5.592,9.328c-1.714,2.643-3.619,5.164-5.488,7.704
		c-2.336,3.175-4.728,6.31-7.078,9.474c-0.254,0.342-0.395,0.769-0.639,1.258c0.398,0.063,0.553,0.113,0.705,0.107
		c3.458-0.142,6.917-0.261,10.372-0.456c0.897-0.05,1.792-0.301,2.666-0.541c0.249-0.068,0.419-0.423,0.603-0.622
		c-0.553-0.331-0.954-0.57-1.354-0.809c0.059-0.157,0.118-0.313,0.178-0.469c0.593,0.109,1.218,0.135,1.772,0.348
		c0.717,0.276,1.351,0.769,2.068,1.048c1.255,0.489,1.428,1.065,0.597,2.094c-0.269,0.332-0.384,0.787-0.579,1.206
		c1.69,0.239,2.426,2.035,4.065,1.668c0.005-0.001,0.041,0.132,0.112,0.369c-2.066,0.47-4.123,0.938-6.179,1.407
		c-0.1-0.107-0.2-0.215-0.301-0.322c0.408-0.517,0.823-1.027,1.218-1.553c0.13-0.174,0.305-0.402,0.279-0.58
		c-0.022-0.158-0.276-0.312-0.459-0.409c-0.196-0.104-0.429-0.141-0.915-0.289c0.412-0.39,0.667-0.673,0.964-0.902
		c0.432-0.335,0.995-0.559,1.301-0.977c0.161-0.22,0.004-1.006-0.201-1.095c-0.548-0.238-1.199-0.238-1.63-0.305
		c-1.948,2.58-2.086,5.517-2.769,8.424c0.44,0,0.649,0.045,0.829-0.007c2.418-0.705,4.831-1.429,7.25-2.128
		c0.228-0.066,0.698-0.042,0.712,0.017c0.227,0.998,0.819,0.645,1.441,0.49c0.258-0.064,0.593,0.183,1.031,0.337
		C77.042,51.76,75.274,51.088,74.39,52.286z M85.148,65.43c-0.105-0.671-0.134-1.385-0.355-2.034
		c-0.095-0.274-0.612-0.602-0.91-0.578c-3.943,0.32-7.883,0.693-11.821,1.064c-1.577,0.148-3.156,0.285-4.721,0.519
		c-0.289,0.043-0.758,0.578-0.711,0.789c0.078,0.346,0.486,0.829,0.799,0.865c0.609,0.07,1.247-0.161,1.877-0.212
		c1.854-0.151,3.708-0.359,5.565-0.395C78.207,65.384,81.545,65.43,85.148,65.43z M81.72,57.915c-0.618,0-1.024-0.053-1.412,0.008
		c-4.489,0.702-8.975,1.432-13.466,2.124c-0.834,0.128-0.792,0.681-0.711,1.236c0.092,0.626,0.458,0.8,1.117,0.647
		c1.444-0.333,2.901-0.65,4.37-0.83c3.144-0.385,6.301-0.666,9.448-1.035c0.239-0.028,0.567-0.38,0.626-0.634
		C81.794,58.986,81.72,58.5,81.72,57.915z M80.567,54.879c0.416-2.107-0.05-2.598-1.871-2.106c-0.189,0.051-0.392,0.055-0.586,0.09
		c-3.096,0.565-6.194,1.124-9.288,1.703c-0.615,0.115-1.255,0.228-1.804,0.502c-0.241,0.121-0.351,0.64-0.371,0.987
		c-0.006,0.11,0.494,0.391,0.721,0.352c3.18-0.549,6.346-1.191,9.533-1.695C78.108,54.521,79.382,53.76,80.567,54.879z
		 M72.869,58.313c0.003,0.021,0.006,0.042,0.009,0.063c1.133-0.153,2.272-0.271,3.397-0.467c1.514-0.266,3.024-0.561,4.518-0.924
		c0.242-0.059,0.383-0.539,0.571-0.824c-0.345-0.198-0.684-0.542-1.036-0.557c-0.449-0.019-0.901,0.273-1.365,0.355
		c-2.988,0.529-5.983,1.022-8.97,1.561c-0.848,0.153-1.693,0.371-2.503,0.66c-0.291,0.104-0.475,0.505-0.707,0.771
		c0.339,0.093,0.698,0.308,1.015,0.258C69.494,58.948,71.18,58.619,72.869,58.313z M78.125,62.282
		c0.907-0.077,2.059-0.127,3.191-0.301c0.315-0.048,0.577-0.458,0.863-0.703c-0.338-0.169-0.693-0.512-1.008-0.478
		c-1.602,0.173-3.194,0.434-4.785,0.693c-0.184,0.03-0.337,0.241-0.504,0.368c0.189,0.14,0.366,0.375,0.569,0.401
		C76.923,62.323,77.406,62.282,78.125,62.282z"/>
	<path fill-rule="evenodd" clip-rule="evenodd" fill="#FFFFFF" d="M81.173,87.164c1.054-1.207,2.125-2.399,3.155-3.626
		c1.241-1.479,2.455-2.982,3.666-4.487c0.736-0.914,1.489-1.82,2.159-2.783c1.251-1.798,2.848-2.833,5.122-2.818
		c1.216,0.007,2.435-0.249,3.647-0.414c1.195-0.163,2.112,0.78,1.999,1.986c-0.356,3.794-0.671,7.592-1.007,11.388
		c-0.066,0.751-0.104,1.512-0.26,2.245c-0.06,0.279-0.381,0.546-0.644,0.73c-1.438,1.011-2.894,1.995-4.21,3.206
		c0.757-0.347,1.514-0.693,2.271-1.039c0.1,0.117,0.199,0.234,0.298,0.353c-0.474,0.825-0.878,1.7-1.434,2.467
		c-2.723,3.755-5.517,7.459-8.221,11.229c-1.218,1.698-2.292,3.5-3.406,5.271c-0.123,0.196-0.162,0.532-0.08,0.74
		c0.056,0.141,0.418,0.268,0.596,0.222c0.174-0.045,0.326-0.299,0.425-0.493c0.702-1.392,1.229-2.9,2.108-4.168
		c2.57-3.708,5.299-7.307,7.924-10.978c1.182-1.652,2.251-3.385,3.408-5.056c0.155-0.226,0.527-0.301,1.021-0.564
		c0,1.104-0.057,1.941,0.01,2.768c0.275,3.402,0.559,6.804,0.896,10.199c0.199,2.012,0.49,4.016,0.774,6.018
		c0.104,0.725-0.232,1.055-0.873,1.116c-0.714,0.069-1.502,0.254-2.132,0.031c-0.504-0.179-0.809-0.899-1.218-1.366
		c-0.546-0.621-1.151-0.995-1.784-0.494c0.433,0.521,0.901,0.99,1.257,1.533c0.861,1.313,1.271,1.494,2.864,1.104
		c0.346-0.084,0.69-0.174,1.04-0.241c0.594-0.115,0.939,0.038,1.119,0.718c0.331,1.256,0.805,2.473,1.199,3.713
		c0.321,1.011-0.019,1.509-1.09,1.565c-3.429,0.179-6.864,0.261-10.286,0.527c-3.844,0.3-7.688,0.668-11.511,1.175
		c-4.694,0.623-9.369,1.401-14.047,2.149c-2.099,0.336-4.18,0.787-6.277,1.138c-1.326,0.221-2.665,0.392-4.004,0.492
		c-0.265,0.02-0.689-0.328-0.814-0.607c-0.188-0.419-0.219-0.925-0.241-1.397c-0.11-2.35-0.192-4.7-0.29-7.051
		c-0.156-3.783-0.31-7.567-0.48-11.351c-0.04-0.886,0.099-1.589,0.951-2.137c0.44-0.283,0.562-1.018,0.928-1.469
		c2.328-2.874,4.649-5.756,7.04-8.578c2.966-3.501,5.992-6.951,9.005-10.412c0.847-0.973,1.785-1.868,2.599-2.865
		c0.877-1.073,2.152-0.611,3.217-0.944c0.835-0.262,1.749-0.271,2.628-0.391c0.075,0.179,0.151,0.357,0.227,0.536
		c-0.457,0.365-0.911,0.733-1.372,1.094c-0.815,0.638-1.78,1.156-1.479,2.498c0.059,0.259-0.259,0.645-0.473,0.918
		c-3.012,3.848-6.009,7.709-9.069,11.518c-1.504,1.873-3.189,3.601-4.693,5.474c-2.192,2.729-4.317,5.516-6.419,8.315
		c-0.409,0.545-0.582,1.266-0.894,1.973c1.226,0.347,1.354-0.704,1.731-1.246c1.432-2.062,2.668-4.268,4.194-6.253
		c2.867-3.73,5.866-7.361,8.845-11.005c1.933-2.365,3.93-4.677,5.895-7.016c1.477-1.759,3.253-3.355,4.34-5.33
		c1.195-2.173,3.056-2.035,4.913-2.319c0.817-0.125,1.633-0.312,2.455-0.355c0.466-0.023,1.22,0.057,1.351,0.327
		c0.172,0.357,0.002,1.055-0.271,1.42c-1.593,2.145-3.257,4.236-4.9,6.343c-0.996,1.276-2.013,2.537-2.988,3.829
		c-0.2,0.265-0.258,0.637-0.38,0.96c-0.321,0.265-0.688,0.489-0.954,0.8c-0.796,0.932-1.522,1.923-2.331,2.843
		c-1.573,1.792-3.192,3.543-4.777,5.325c-1.637,1.841-3.198,3.754-4.896,5.537c-3.438,3.608-6.72,7.338-9.285,11.63
		c-0.43,0.72-1.172,1.61-0.304,2.858c0.329-0.863,0.581-1.506,0.82-2.153c1.081-2.925,3.243-5.118,5.158-7.453
		c2.069-2.523,4.365-4.86,6.521-7.313c2.636-2.999,5.25-6.019,7.829-9.066C79.788,89.253,80.447,88.181,81.173,87.164z
		 M98.185,78.573c-1.105-0.608-1.551,0.268-1.974,0.828c-1.258,1.666-2.439,3.392-3.625,5.111c-2.289,3.323-4.499,6.703-6.858,9.975
		c-2.281,3.164-4.683,6.242-7.081,9.319c-1.996,2.562-4.055,5.075-6.104,7.595c-0.885,1.088-1.843,2.115-2.709,3.216
		c-0.304,0.387-0.435,0.908-0.646,1.369c0.131,0.061,0.261,0.122,0.392,0.184c0.774-1.081,1.5-2.202,2.334-3.235
		c1.688-2.09,3.484-4.094,5.146-6.203c2.615-3.322,5.2-6.67,7.717-10.067c2.385-3.222,4.65-6.531,6.995-9.782
		c1.271-1.763,2.585-3.496,3.908-5.222C96.473,80.626,97.321,79.634,98.185,78.573z M88.559,112.753
		c0.166,0.139,0.331,0.276,0.497,0.416c1.295-0.949,2.589-1.897,3.884-2.847c-0.071-0.104-0.142-0.206-0.212-0.31
		c-0.743,0.497-1.486,0.994-2.23,1.49c-0.089-0.059-0.178-0.118-0.267-0.178c0.543-2.358,3.208-3.708,3.224-6.331
		C92.193,107.808,89.607,109.82,88.559,112.753z"/>
	<path fill-rule="evenodd" clip-rule="evenodd" fill="#FFFFFF" d="M53.612,99.599c0-1.669-0.037-3.339,0.027-5.005
		c0.015-0.389,0.312-0.816,0.584-1.136c1.116-1.311,2.278-2.582,3.413-3.877c1.294-1.476,2.564-2.973,3.868-4.439
		c1.015-1.141,2.056-2.26,3.105-3.369c1.197-1.268,2.47-2.468,3.609-3.783c0.962-1.111,2.227-1.228,3.516-1.352
		c0.18-0.018,0.475,0.188,0.55,0.361c0.061,0.14-0.093,0.419-0.22,0.583c-1.147,1.487-2.309,2.963-3.466,4.441
		c-1.333,1.704-2.635,3.435-4.005,5.108c-2.85,3.482-5.73,6.941-8.613,10.396c-0.644,0.771-1.352,1.489-2.03,2.23
		C53.838,99.706,53.726,99.652,53.612,99.599z"/>
	<path fill-rule="evenodd" clip-rule="evenodd" fill="#FFFFFF" d="M67.146,77.958c-4.458,4.98-8.916,9.961-13.554,15.144
		c-0.551-2.649-0.261-4.538,1.534-6.229c2.207-2.078,4.17-4.415,6.221-6.657c0.258-0.282,0.37-0.693,0.608-0.999
		c1.31-1.686,3.213-1.419,4.958-1.67C66.991,77.684,67.069,77.821,67.146,77.958z"/>
	<path fill-rule="evenodd" clip-rule="evenodd" fill="#FFFFFF" d="M84.402,73.574c-0.564,0.144-1.122,0.328-1.695,0.424
		c-2.839,0.473-5.679,0.949-8.527,1.364c-1.33,0.194-2.679,0.282-4.022,0.344c-0.236,0.01-0.488-0.349-0.733-0.536
		c0.214-0.169,0.408-0.446,0.645-0.489c2.749-0.497,5.495-1.022,8.261-1.404c1.604-0.222,3.24-0.206,4.863-0.275
		c0.371-0.017,0.746,0.055,1.119,0.086C84.343,73.249,84.372,73.411,84.402,73.574z"/>
	<path fill-rule="evenodd" clip-rule="evenodd" fill="#FFFFFF" d="M68.883,75.61c-0.409,0.27-0.787,0.695-1.231,0.782
		c-1.544,0.302-3.11,0.505-4.673,0.695c-0.241,0.029-0.515-0.203-0.773-0.314c0.121-0.21,0.21-0.574,0.368-0.606
		c1.8-0.369,3.609-0.694,5.42-1.012c0.22-0.038,0.461,0.044,0.692,0.07C68.752,75.354,68.817,75.481,68.883,75.61z"/>
	<path fill-rule="evenodd" clip-rule="evenodd" fill="#FFFFFF" d="M103.683,119.836c-0.948-0.082-1.537-0.101-2.111-0.198
		c-0.241-0.041-0.623-0.233-0.639-0.387c-0.025-0.259,0.127-0.711,0.317-0.782c0.622-0.233,1.329-0.509,1.934-0.396
		C103.429,118.117,103.496,119.122,103.683,119.836z"/>
	<path fill-rule="evenodd" clip-rule="evenodd" fill="#FFFFFF" d="M52.74,80.132c1.139-0.341,1.19,0.243,1.1,0.82
		c-0.042,0.269-0.33,0.499-0.507,0.747C53.139,81.187,52.945,80.674,52.74,80.132z"/>
	<path fill-rule="evenodd" clip-rule="evenodd" fill="#FFFFFF" d="M74.39,52.286c0.885-1.198,2.652-0.526,3.834-1.633
		c-0.438-0.154-0.773-0.401-1.031-0.337c-0.622,0.154-1.215,0.508-1.441-0.49c-0.014-0.06-0.484-0.083-0.712-0.017
		c-2.42,0.7-4.833,1.424-7.25,2.128c-0.18,0.053-0.389,0.007-0.829,0.007c0.683-2.908,0.821-5.844,2.769-8.424
		c0.431,0.067,1.082,0.067,1.63,0.305c0.205,0.089,0.362,0.875,0.201,1.095c-0.306,0.418-0.869,0.642-1.301,0.977
		c-0.297,0.229-0.552,0.512-0.964,0.902c0.485,0.148,0.718,0.185,0.915,0.289c0.183,0.098,0.437,0.251,0.459,0.409
		c0.025,0.178-0.149,0.405-0.279,0.58c-0.395,0.526-0.811,1.037-1.218,1.553c0.101,0.107,0.201,0.214,0.301,0.322
		c2.056-0.468,4.112-0.937,6.179-1.407c-0.071-0.236-0.107-0.37-0.112-0.369c-1.639,0.366-2.375-1.43-4.065-1.668
		c0.195-0.418,0.31-0.874,0.579-1.206c0.831-1.028,0.658-1.604-0.597-2.094c-0.717-0.279-1.351-0.771-2.068-1.048
		c-0.554-0.213-1.179-0.239-1.772-0.348c-0.06,0.156-0.119,0.312-0.178,0.469c0.4,0.239,0.8,0.479,1.354,0.809
		c-0.183,0.198-0.354,0.553-0.603,0.622c-0.874,0.24-1.768,0.491-2.666,0.541c-3.455,0.194-6.915,0.314-10.372,0.456
		c-0.152,0.006-0.306-0.044-0.705-0.107c0.244-0.489,0.385-0.916,0.639-1.258c2.351-3.165,4.742-6.299,7.078-9.474
		c1.869-2.54,3.774-5.061,5.488-7.704c1.971-3.04,3.78-6.188,5.592-9.328c0.501-0.868,0.872-0.982,1.411-0.13
		c1.159,1.835,2.249,3.716,3.463,5.515c2.802,4.152,5.607,8.305,8.516,12.383c2.039,2.859,4.274,5.577,6.356,8.405
		c0.308,0.417,0.256,1.099,0.369,1.658c-0.473,0.044-0.945,0.11-1.42,0.127c-2.426,0.087-4.853,0.163-7.279,0.237
		c-0.462,0.014-0.931-0.042-1.388,0.009c-2.288,0.257-2.287,0.266-3.186-1.484c-0.837,0.204-0.851,0.857-0.759,1.496
		c0.271,1.879,0.597,3.75,0.862,5.629c0.039,0.276-0.072,0.802-0.214,0.84c-1.788,0.481-3.595,0.895-5.396,1.325
		C74.516,52.661,74.452,52.473,74.39,52.286z"/>
	<path fill-rule="evenodd" clip-rule="evenodd" fill="#FFFFFF" d="M85.148,65.43c-3.604,0-6.941-0.045-10.277,0.018
		c-1.857,0.036-3.711,0.243-5.565,0.395c-0.63,0.052-1.268,0.282-1.877,0.212c-0.313-0.036-0.721-0.519-0.799-0.865
		c-0.047-0.211,0.422-0.746,0.711-0.789c1.564-0.233,3.144-0.37,4.721-0.519c3.938-0.371,7.878-0.744,11.821-1.064
		c0.298-0.024,0.815,0.303,0.91,0.578C85.015,64.044,85.043,64.759,85.148,65.43z"/>
	<path fill-rule="evenodd" clip-rule="evenodd" fill="#FFFFFF" d="M81.72,57.915c0,0.586,0.074,1.072-0.028,1.517
		c-0.059,0.254-0.387,0.606-0.626,0.634c-3.146,0.369-6.304,0.65-9.448,1.035c-1.469,0.18-2.925,0.496-4.37,0.83
		c-0.66,0.152-1.025-0.021-1.117-0.647c-0.082-0.556-0.123-1.108,0.711-1.236c4.491-0.691,8.977-1.422,13.466-2.124
		C80.695,57.862,81.102,57.915,81.72,57.915z"/>
	<path fill-rule="evenodd" clip-rule="evenodd" fill="#FFFFFF" d="M80.567,54.879c-1.186-1.119-2.459-0.358-3.665-0.167
		c-3.187,0.503-6.353,1.146-9.533,1.695c-0.227,0.04-0.728-0.242-0.721-0.352c0.02-0.347,0.129-0.867,0.371-0.987
		c0.548-0.274,1.189-0.387,1.804-0.502c3.094-0.579,6.192-1.138,9.288-1.703c0.194-0.035,0.396-0.039,0.586-0.09
		C80.518,52.281,80.983,52.771,80.567,54.879z"/>
	<path fill-rule="evenodd" clip-rule="evenodd" fill="#FFFFFF" d="M72.869,58.313c-1.689,0.306-3.375,0.634-5.072,0.897
		c-0.317,0.049-0.676-0.166-1.015-0.258c0.232-0.266,0.417-0.668,0.707-0.771c0.81-0.29,1.655-0.507,2.503-0.66
		c2.987-0.539,5.982-1.032,8.97-1.561c0.464-0.082,0.916-0.374,1.365-0.355c0.353,0.014,0.691,0.359,1.036,0.557
		c-0.188,0.285-0.329,0.765-0.571,0.824c-1.493,0.364-3.004,0.659-4.518,0.924c-1.125,0.197-2.265,0.314-3.397,0.467
		C72.875,58.355,72.872,58.334,72.869,58.313z"/>
	<path fill-rule="evenodd" clip-rule="evenodd" fill="#FFFFFF" d="M78.125,62.282c-0.719,0-1.202,0.041-1.673-0.019
		c-0.203-0.026-0.38-0.261-0.569-0.401c0.167-0.127,0.32-0.338,0.504-0.368c1.591-0.259,3.184-0.52,4.785-0.693
		c0.314-0.034,0.67,0.309,1.008,0.478c-0.286,0.244-0.548,0.654-0.863,0.703C80.184,62.155,79.032,62.206,78.125,62.282z"/>
	<path fill-rule="evenodd" clip-rule="evenodd" d="M98.185,78.573c-0.863,1.061-1.712,2.053-2.505,3.087
		c-1.323,1.726-2.637,3.459-3.908,5.222c-2.345,3.251-4.61,6.561-6.995,9.782c-2.517,3.397-5.102,6.745-7.717,10.067
		c-1.662,2.109-3.458,4.113-5.146,6.203c-0.834,1.033-1.56,2.154-2.334,3.235c-0.13-0.062-0.261-0.123-0.392-0.184
		c0.21-0.461,0.341-0.982,0.646-1.369c0.867-1.101,1.825-2.128,2.709-3.216c2.049-2.52,4.107-5.033,6.104-7.595
		c2.398-3.077,4.8-6.155,7.081-9.319c2.359-3.271,4.569-6.651,6.858-9.975c1.186-1.72,2.367-3.445,3.625-5.111
		C96.634,78.841,97.079,77.965,98.185,78.573z"/>
	<path fill-rule="evenodd" clip-rule="evenodd" d="M81.173,87.164c-0.726,1.017-1.385,2.089-2.188,3.039
		c-2.579,3.048-5.192,6.067-7.829,9.066c-2.156,2.453-4.451,4.79-6.521,7.313c-1.915,2.335-4.077,4.528-5.158,7.453
		c-0.239,0.647-0.491,1.29-0.82,2.153c-0.868-1.248-0.126-2.139,0.304-2.858c2.564-4.292,5.847-8.021,9.285-11.63
		c1.698-1.783,3.259-3.696,4.896-5.537c1.585-1.782,3.204-3.533,4.777-5.325c0.809-0.92,1.535-1.911,2.331-2.843
		c0.266-0.311,0.633-0.535,0.954-0.8C81.204,87.196,81.173,87.164,81.173,87.164z"/>
	<path fill-rule="evenodd" clip-rule="evenodd" d="M88.559,112.753c1.049-2.933,3.635-4.945,4.896-7.759
		c-0.016,2.623-2.681,3.973-3.224,6.331c0.089,0.06,0.178,0.119,0.267,0.178c0.744-0.496,1.487-0.993,2.23-1.49
		c0.07,0.104,0.141,0.206,0.212,0.31c-1.295,0.949-2.589,1.897-3.884,2.847C88.89,113.029,88.725,112.892,88.559,112.753z"/>
</g>
</svg>
