<?xml version="1.0" encoding="utf-8"?>
<!-- Generator: Adobe Illustrator 16.0.0, SVG Export Plug-In . SVG Version: 6.00 Build 0)  -->
<!DOCTYPE svg PUBLIC "-//W3C//DTD SVG 1.1//EN" "http://www.w3.org/Graphics/SVG/1.1/DTD/svg11.dtd">
<svg version="1.1" id="Layer_1" xmlns="http://www.w3.org/2000/svg" xmlns:xlink="http://www.w3.org/1999/xlink" x="0px" y="0px"
	 width="144px" height="144px" viewBox="0 0 144 144" enable-background="new 0 0 144 144" xml:space="preserve">
<g>
	<path fill="#FFFFFF" d="M17.334,101.671c0.483-0.75,0.799-1.317,1.186-1.831c2.297-3.056,4.732-5.991,7.6-8.539
		c4.434-3.94,8.864-7.886,13.319-11.803c0.682-0.6,1.507-1.033,2.222-1.599c0.197-0.155,0.237-0.51,0.349-0.772
		c-0.309-0.016-0.63-0.092-0.921-0.029c-0.211,0.046-0.39,0.267-0.572,0.422c-2.699,2.319-5.412,4.623-8.091,6.966
		c-1.976,1.729-3.95,3.462-5.847,5.274c-2.249,2.148-4.542,4.274-6.562,6.628c-1.058,1.233-2.622,1.964-3.181,3.82
		c-0.384,1.277-0.925,2.468-0.976,3.852c-0.074,2.006,0.362,2.724,2.229,3.244c1.521,0.423,3.059,0.797,4.55,1.306
		c0.856,0.292,1.594,1.021,2.457,1.189c3.023,0.593,6.066,1.118,9.123,1.503c4.734,0.597,9.491,1.012,14.228,1.595
		c2.57,0.316,5.12,0.804,7.674,1.243c1.604,0.276,3.187,0.759,4.799,0.882c3.448,0.261,6.923,0.202,10.36,0.549
		c3.319,0.335,6.604,1.005,9.901,1.546c2.461,0.404,4.855,0.615,6.611-1.706c0.141-0.186,0.385-0.288,0.556-0.454
		c1.449-1.413,2.971-2.763,4.314-4.271c1.213-1.361,2.116-3.003,3.355-4.336c2.659-2.857,5.53-5.519,8.157-8.404
		c2.763-3.033,5.271-6.299,8.036-9.329c1.062-1.165,1.198-2.18,0.662-3.545c-0.23-0.588-0.341-1.356-0.169-1.943
		c0.556-1.891,1.517-3.688,1.872-5.605c0.981-5.289,1.748-10.619,2.57-15.937c0.206-1.333,0.275-2.688,0.458-4.025
		c0.35-2.562,0.626-5.143,1.14-7.674c0.47-2.312,0.969-4.589,0.886-6.973c-0.033-0.936,0.096-1.93,0.396-2.814
		c1.206-3.553-1.257-6.583-5.017-6.116c-0.704,0.087-1.436,0.115-2.139,0.034c-2.769-0.32-5.541-0.63-8.293-1.066
		c-2.434-0.385-4.834-0.973-7.262-1.399c-2.512-0.441-5.032-0.856-7.562-1.172c-2.724-0.34-5.468-0.502-8.192-0.833
		c-3.172-0.385-6.321-1.131-9.498-1.253c-6.093-0.234-12.066-1.141-18.004-2.424c-2.043-0.441-4.09,0.467-4.914,2.38
		c-0.493,1.145-0.722,2.427-0.918,3.671c-0.539,3.425-1.008,6.862-1.484,10.297c-0.416,3-0.827,6.003-1.195,9.01
		c-0.305,2.493-0.517,4.998-0.817,7.491c-0.472,3.917-0.984,7.829-1.479,11.743c-0.218,1.726-0.45,3.452-0.633,5.181
		c-0.025,0.235,0.197,0.497,0.305,0.746c0.134,0.003,0.269,0.006,0.402,0.009c0.221-0.646,0.575-1.277,0.642-1.938
		c0.342-3.399,0.561-6.811,0.915-10.208c0.636-6.106,1.233-12.218,2.043-18.302c0.742-5.573,1.75-11.111,2.627-16.667
		c0.372-2.357,2.26-2.936,3.991-2.756c1.777,0.186,3.517,0.696,5.291,0.942c3.588,0.499,7.186,0.933,10.783,1.357
		c1.063,0.125,2.153,0.049,3.211,0.204c3.116,0.456,6.213,1.058,9.335,1.461c4.149,0.536,8.325,0.872,12.473,1.428
		c1.843,0.247,3.631,0.885,5.465,1.232c1.958,0.371,3.939,0.633,5.916,0.9c3.318,0.449,6.632,1.003,9.967,1.25
		c2.566,0.19,3.763,1.468,3.323,3.974c-0.301,1.713-0.423,3.457-0.634,5.186c-0.134,1.103-0.235,2.212-0.44,3.302
		c-0.31,1.646-0.874,3.262-1.018,4.918c-0.43,4.967-0.797,9.936-1.876,14.82c-0.207,0.934-0.342,1.884-0.525,2.823
		c-0.695,3.556-1.215,7.16-2.163,10.647c-0.572,2.104-2.23,3.806-4.501,3.993c-2.38,0.196-4.854,0.034-7.209-0.396
		c-5.918-1.08-11.787-2.423-17.686-3.616c-2.81-0.567-5.64-1.039-8.463-1.542c-2.312-0.411-4.614-0.912-6.942-1.183
		c-4.312-0.501-8.643-0.851-12.962-1.288c-2.735-0.276-5.467-0.586-8.198-0.902c-1.287-0.148-1.509,0.034-1.391,1.31
		c-0.568,0.252-1.144,0.507-1.719,0.763c0.024,0.084,0.049,0.169,0.074,0.253c0.892,0,1.785,0,2.945,0
		c-0.818,0.772-1.785,1.121-1.231,2.222c0.036,0.071-0.194,0.331-0.347,0.434c-1.768,1.187-2.928,3.106-4.928,4.027
		c-0.516,0.238-0.908,0.744-1.414,1.177c0.272,0.154,0.35,0.235,0.406,0.223c0.186-0.043,0.365-0.115,0.544-0.185
		c1.626-0.631,3.227-1.023,4.945-0.172c0.6,0.298,1.392,0.209,2.096,0.297c0.038-0.129,0.076-0.258,0.115-0.388
		c-0.314-0.382-0.628-0.764-0.716-0.87c-1.066-0.119-1.845-0.205-2.955-0.329c0.596-1.202,1.068-2.152,1.388-2.797
		c1.75-0.51,3.17-0.924,4.589-1.337c-0.002-0.145-0.004-0.29-0.007-0.435c-0.417-0.08-0.839-0.144-1.251-0.246
		c-0.422-0.105-0.835-0.249-1.355-0.408c1.567-1.621,2.619-1.828,3.749-1.165c0.662,0.39,1.521,0.58,2.298,0.603
		c0.938,0.026,1.931-0.625,2.703,0.486c0.114,0.163,0.606,0.051,0.92,0.09c2.271,0.283,4.542,0.562,6.81,0.87
		c0.344,0.046,0.663,0.259,1.005,0.348c0.881,0.229,1.766,0.442,2.655,0.638c0.514,0.114,1.038,0.182,1.647,0.286
		c-1.543,1.919-1.543,1.919-1.07,2.569c0.635-0.492,2.608-0.42,2.922,0.275c0.588,1.307,1.836,1.312,2.868,1.743
		c0.2,0.084,0.52-0.117,0.784-0.188c-0.161-0.23-0.272-0.553-0.494-0.676c-0.672-0.375-1.387-0.674-2.157-1.036
		c0.375-0.399,0.66-0.629,0.839-0.923c0.097-0.159,0.095-0.493-0.013-0.629c-0.088-0.109-0.412-0.091-0.61-0.042
		c-1.072,0.26-2.138,0.547-3.207,0.825c-0.034-0.113-0.068-0.227-0.103-0.34c0.916-0.608,1.576-1.635,3.016-1.299
		c1.275,0.298,2.6,0.376,3.895,0.6c0.518,0.089,1.013,0.308,1.692,0.522c-1.318,1.165-0.235,1.94,0.181,2.771
		c-0.885,1.283-2.53,2-2.47,3.965c0.41,0.186,0.915,0.369,1.37,0.638c0.274,0.162,0.61,0.43,0.661,0.699
		c0.05,0.26-0.155,0.676-0.382,0.858c-0.562,0.454-1.199,0.814-1.807,1.212c0.004,0.103,0.007,0.204,0.011,0.307
		c0.501,0,1.148,0.202,1.475-0.037c1.171-0.857,2.615-1.701,1.405-3.764c0.806,0.112,1.35,0.321,1.903,0.5
		c0.531,0.172,1.072,0.313,1.609,0.468c0.033-0.081,0.065-0.162,0.099-0.243c1.062,0.46,2.126,0.92,3.432,1.485
		c1.075-0.579,1.159-0.803,0.348-1.775c0.739-0.829,1.485-1.665,2.232-2.501c-0.148-0.133-0.297-0.267-0.445-0.399
		c-0.529,0.536-1.133,1.019-1.573,1.619c-1.125,1.533-1.097,1.556-2.833,0.836c-0.295-0.122-0.673-0.188-0.853-0.409
		c-0.245-0.302-0.546-0.798-0.45-1.088c0.236-0.72,0.684-1.37,1.12-2.187c1.02,0.549,2.028,1.093,3.038,1.636
		c0.052-0.103,0.104-0.206,0.155-0.31c-1.151-1.272-2.542-2.206-4.324-2.301c-1.314-0.071-2.361-0.533-3.427-1.559
		c0.389-0.03,0.602-0.08,0.805-0.056c1.538,0.188,3.112,0.244,4.597,0.64c1.089,0.289,2.305,0.336,3.193,1.389
		c0.566,0.672,1.598,0.953,2.65,1.537c-0.177-0.418-0.235-0.523-0.266-0.636c-0.11-0.408-0.211-0.819-0.314-1.229
		c0.447-0.017,0.899-0.079,1.343-0.042c1.923,0.158,3.9,0.022,5.606,1.265c0.366,0.267,1.006,0.177,1.521,0.212
		c0.468,0.032,0.979-0.105,1.399,0.039c0.966,0.332,1.91,0.745,2.82,1.209c1.007,0.514,1.54,0.361,1.775-0.476
		c-0.612-0.269-1.189-0.536-1.777-0.775c-0.793-0.322-1.571-0.729-2.397-0.903c-1.055-0.224-2.38,0.097-3.184-0.433
		c-2.012-1.321-4.24-0.747-6.338-1.141c-2.887-0.542-5.822-0.822-8.732-1.248c-0.78-0.114-1.543-0.356-2.316-0.531
		c-1.737-0.394-3.468-0.823-5.217-1.16c-2.803-0.54-5.617-1.021-8.427-1.516c-0.701-0.124-1.413-0.19-2.112-0.323
		c-0.519-0.1-1.025-0.265-1.537-0.4c0.032-0.14,0.063-0.28,0.095-0.42c1.688,0.157,3.386,0.244,5.063,0.484
		c4.332,0.618,8.659,1.272,12.977,1.976c2.547,0.414,5.071,0.959,7.61,1.424c1.829,0.334,3.678,0.573,5.495,0.96
		c3.271,0.694,6.507,1.559,9.79,2.177c2.262,0.427,4.579,0.558,7.02,0.838c-0.74,0.658-1.421,1.189-2.018,1.803
		c-3.831,3.94-7.647,7.896-11.458,11.855c-0.525,0.545-0.987,1.149-1.488,1.719c-1.34,1.524-2.713,3.021-4.019,4.575
		c-0.808,0.961-1.962,1.77-1.656,3.396c5.094-5.569,9.851-11.436,15.388-16.591c-0.083,0.398-0.264,0.724-0.504,0.997
		c-1.998,2.276-4.034,4.52-6.009,6.816c-2.872,3.343-5.654,6.764-8.586,10.052c-0.673,0.756-1.801,1.577-2.708,1.564
		c-2.938-0.04-5.877-0.413-8.806-0.738c-2.051-0.228-4.166-0.334-6.113-0.939c-3.995-1.241-8.104-1.631-12.207-2.176
		c-3.275-0.435-6.577-0.816-9.781-1.584c-2.827-0.677-5.657-0.929-8.52-0.978c-2.704-0.045-5.426,0.292-8.111,0.083
		c-2.072-0.161-4.101-0.896-6.143-1.401c-0.808-0.199-1.625-0.4-2.392-0.714C21.162,103.355,19.234,102.492,17.334,101.671z
		 M52.421,31.467c0.115,0.091,0.23,0.182,0.345,0.272c-0.185,1.281-0.253,2.594-0.598,3.83c-0.195,0.701-0.379,1.218,0.072,1.884
		c0.211,0.311,0.203,0.851,0.128,1.257c-0.146,0.804-0.455,1.578-0.611,2.381c-0.411,2.111-0.748,4.236-1.166,6.346
		c-0.598,3.018,0.135,6.208-1.193,9.13c-0.063,0.139-0.044,0.315-0.066,0.473c-0.217,1.525-0.404,3.054-0.66,4.573
		c-0.361,2.147-0.493,4.329-1.639,6.316c-0.486,0.843-0.587,2.014-0.543,3.021c0.031,0.701,0.441,1.589,0.981,2.016
		c0.779,0.616,1.792,1.097,2.771,1.274c3.399,0.615,6.814,1.178,10.245,1.564c3.675,0.414,7.379,0.566,11.063,0.912
		c1.741,0.163,3.51,0.346,5.187,0.808c3.518,0.968,7.098,1.412,10.713,1.695c2.334,0.184,4.679,0.283,6.997,0.588
		c3.094,0.406,6.167,0.972,9.248,1.474c3.298,0.538,5.967-1.297,6.081-5.052c0.059-1.946,0.776-3.872,1.194-5.808
		c0.319-1.477,0.701-2.942,0.939-4.432c0.508-3.186,0.751-6.425,1.448-9.565c1.007-4.534,1.94-9.043,1.628-13.724
		c-0.103-1.529-0.508-2.254-1.987-2.575c-2.212-0.479-4.449-0.855-6.689-1.178c-1.213-0.175-2.464-0.077-3.682-0.228
		c-4.031-0.5-8.059-1.034-12.08-1.604c-1.312-0.186-2.603-0.523-3.902-0.791c-0.022-0.121-0.045-0.242-0.067-0.363
		c1.555-1.153,3.11-2.306,4.665-3.459c-0.066-0.123-0.133-0.246-0.198-0.369c-0.409,0.185-0.869,0.303-1.217,0.567
		c-1.142,0.872-2.269,1.768-3.352,2.711c-0.736,0.641-1.493,0.711-2.432,0.559c-2.353-0.383-4.722-0.666-7.09-0.946
		c-1.938-0.23-3.892-0.33-5.82-0.615c-2.188-0.324-4.358-0.773-6.53-1.199c-2.266-0.443-4.519-0.951-6.787-1.378
		c-1.511-0.284-3.036-0.497-4.562-0.687C52.995,31.114,52.7,31.353,52.421,31.467z M87.174,100.698
		c-0.108-0.666-0.168-1.036-0.228-1.406c-0.377,0.123-0.79,0.184-1.123,0.381c-0.759,0.451-1.383,0.821-2.36,0.256
		c-0.975-0.563-2.142-0.877-3.265-1.082c-1.621-0.297-3.28-0.379-4.918-0.595c-0.421-0.056-0.817-0.285-1.231-0.412
		c-1.397-0.428-2.772-1.023-4.203-1.232c-4.177-0.61-8.383-1.016-12.563-1.602c-2.233-0.312-4.422-1.008-6.659-1.209
		c-2.375-0.214-4.784-0.048-6.961-0.048c-0.306-0.783-0.509-1.302-0.711-1.82c-0.133,0.035-0.267,0.069-0.399,0.104
		c-0.031,0.53-0.062,1.061-0.104,1.775c-0.406-0.162-0.774-0.319-1.15-0.457c-0.616-0.226-1.223-0.552-1.858-0.628
		c-0.867-0.104-1.688-0.087-1.874-1.223c-0.03-0.185-0.398-0.314-0.609-0.471c-0.138,0.206-0.295,0.402-0.407,0.622
		c-0.082,0.16-0.105,0.351-0.179,0.619c-1.592-0.162-3.127-0.318-4.962-0.505c1.323-1.396,2.527-2.675,3.742-3.943
		c0.163-0.17,0.386-0.28,0.572-0.431c2.801-2.274,5.603-4.548,8.393-6.836c0.169-0.139,0.236-0.403,0.351-0.608
		c-0.244-0.034-0.574-0.189-0.718-0.085c-2.168,1.568-4.353,3.121-6.446,4.786c-1.208,0.961-2.126,2.327-3.41,3.142
		c-3.064,1.943-4.827,5.03-7.164,7.611c-0.864,0.954-1.941,1.712-2.889,2.594c-0.26,0.242-0.403,0.61-0.6,0.92
		c0.395,0.011,0.88,0.171,1.164-0.002c0.455-0.276,0.745-0.81,1.16-1.17c1.544-1.342,3.271-2.504,3.961-4.604
		c0.09-0.274,0.72-0.56,1.071-0.526c1.615,0.15,3.219,0.412,4.827,0.632c0.038,0.006,0.08-0.016,0.119-0.011
		c1.51,0.168,3.021,0.336,4.531,0.514c0.111,0.014,0.239,0.081,0.315,0.163c0.97,1.038,2.185,0.734,3.368,0.637
		c0.347-0.028,0.699-0.022,1.048-0.007c1.293,0.061,2.585,0.146,3.879,0.192c0.595,0.021,1.214-0.131,1.786-0.017
		c1.942,0.386,3.851,0.954,5.802,1.271c3.217,0.522,6.465,0.851,9.684,1.366c1.748,0.281,3.511,0.099,5.276,0.734
		c1.808,0.651,3.619,1.552,5.757,1.239c1.182-0.174,2.572,0.16,3.689,0.663c2.073,0.935,4.179,1.596,6.438,1.561
		c0.873-0.014,1.943-0.172,2.572-0.69c1.746-1.44,3.264-3.154,4.952-4.669c2.182-1.958,4.441-3.829,6.666-5.736
		c-0.76-0.808-0.865-0.808-1.665-0.02c-1.062,1.046-2.127,2.087-3.394,3.329c0-1,0-1.657,0-2.36
		c-1.366,0.765-1.777,2.021-1.006,2.972c-1.438,1.202-2.876,2.406-4.324,3.618c-0.122-0.268-0.253-0.557-0.396-0.87
		c-0.971,0.512-0.879,1.115-0.067,2.019C89.268,99.705,88.224,100.2,87.174,100.698z M51.212,96.715
		c-0.718,0.989-1.353,1.949-2.076,2.838c-0.954,1.172-2.027,2.25-2.943,3.448c-0.344,0.45-0.391,1.126-0.585,1.736
		c0.431,0.109,0.541,0.149,0.653,0.163c2.75,0.336,5.509,0.601,8.246,1.02c2.941,0.449,5.863,1.03,8.79,1.578
		c0.916,0.171,1.558-0.225,2.06-0.902c1.203-1.624,2.385-3.265,3.558-4.911c0.194-0.271,0.302-0.604,0.407-0.82
		c-0.613-0.662-1.022-1.396-1.644-1.708c-0.934-0.469-2-0.801-3.038-0.909c-1.88-0.196-3.785-0.145-5.674-0.278
		c-0.78-0.055-1.55-0.3-2.316-0.494c-0.569-0.145-1.112-0.439-1.686-0.503C53.681,96.829,52.386,96.79,51.212,96.715z
		 M66.907,92.084c-1.377,0-2.722,0.311-3.818-0.078c-1.389-0.493-2.64-0.321-3.978-0.162c-0.384,0.045-0.887-0.031-1.178-0.256
		c-0.838-0.643-3.63-0.476-4.334,0.366c-0.345,0.413-0.625,0.882-0.894,1.267c1.287-0.431,2.493-0.849,3.71-1.228
		c0.193-0.061,0.562-0.023,0.646,0.104c0.67,1.011,1.602,0.725,2.48,0.51c1.238-0.302,2.42-0.505,3.317,0.764
		c-0.107,0.239-0.25,0.556-0.392,0.871c0.079,0.073,0.158,0.147,0.237,0.221c0.285-0.203,0.737-0.352,0.822-0.618
		c0.267-0.835,0.858-0.836,1.506-0.729c0.895,0.146,1.781,0.341,2.671,0.515c0.698,0.136,1.397,0.271,2.027,0.394
		c-0.232,0.777-0.398,1.333-0.629,2.106c1.704-0.576,1.655-1.884,2.009-2.921c0.037-0.106-0.366-0.512-0.584-0.528
		c-0.985-0.076-1.981-0.023-2.966-0.108C67.294,92.549,67.057,92.203,66.907,92.084z M53.899,83.332
		c-0.769,0.375-1.262,0.583-1.716,0.856c-0.159,0.097-0.22,0.355-0.326,0.54c0.223,0.057,0.443,0.141,0.669,0.161
		c0.163,0.015,0.333-0.056,0.501-0.088c0.037,0.066,0.073,0.133,0.11,0.199c-0.733,0.627-1.467,1.254-2.325,1.987
		c-0.119-0.364-0.222-0.598-0.269-0.842c-0.066-0.34-0.091-0.688-0.133-1.032c-0.384,0.162-0.769,0.325-1.116,0.472
		c0.333,0.828,0.576,1.434,0.77,1.915c-0.382,0.553-0.667,0.967-0.954,1.381c0.097,0.077,0.193,0.155,0.29,0.232
		c0.158-0.092,0.339-0.16,0.472-0.28c1.009-0.924,2.017-1.849,3.008-2.792c0.785-0.748,1.544-1.522,2.359-2.33
		c1.081,0.95,1.357-0.533,1.808-0.911c1.131-0.061,2.049-0.109,2.967-0.159c-0.006-0.119-0.013-0.239-0.019-0.358
		c-1.321-0.353-2.688-0.152-3.917,0.572c-0.979,0.576-1.171,0.485-1.323-0.648c-0.053-0.395-0.068-0.793-0.102-1.202
		c-2.588,0.577-2.588,0.577-2.325-1.24c-0.681,0-1.344,0-2.007,0c-0.053,0.131-0.106,0.262-0.159,0.392
		c0.516,0.57,0.983,1.196,1.561,1.694C52.305,82.354,52.999,82.729,53.899,83.332z M60.895,90.056
		c1.881-0.219,3.353-0.468,4.83-0.51c0.401-0.012,0.836,0.584,1.223,0.938c0.148,0.136,0.202,0.375,0.299,0.566
		c0.143-0.188,0.363-0.358,0.416-0.57c0.318-1.279-0.628-1.629-1.562-1.945c0.933-1.449,1.968-1.584,3.045-0.45
		c0.699-0.74,0.809-2.023,0.157-2.676c-0.395,1.084-1.169,1.148-2.178,0.98c-1.049-0.175-2.141-0.146-3.211-0.115
		c-0.318,0.009-0.627,0.321-0.94,0.495c0.27,0.186,0.516,0.444,0.814,0.538c0.397,0.124,0.834,0.119,1.254,0.17
		c0.057,0.114,0.115,0.229,0.172,0.343c-0.374,0.309-0.703,0.746-1.132,0.897c-0.704,0.246-1.494,0.243-2.207,0.473
		C61.533,89.299,61.285,89.696,60.895,90.056z M91.65,94.323c-1.09,0.024-1.92,0.089-2.74,0.03c-0.2-0.014-0.372-0.427-0.558-0.656
		c0.257-0.172,0.515-0.491,0.77-0.488c1.025,0.013,2.049,0.153,3.075,0.179c0.238,0.006,0.484-0.254,0.727-0.393
		c-0.22-0.166-0.432-0.459-0.662-0.475c-0.672-0.046-1.351,0.036-2.026,0.036c-0.71,0-1.003-0.361-0.598-0.981
		c0.383-0.588,0.92-1.072,1.335-1.643c0.157-0.215,0.16-0.543,0.233-0.819c-0.269,0.048-0.636-0.001-0.79,0.158
		c-0.922,0.945-1.798,1.937-2.68,2.921c-0.101,0.112-0.158,0.274-0.201,0.424c-0.242,0.835-0.475,1.673-0.762,2.694
		c1.034,0.181,2.25,0.393,3.627,0.632C90.641,95.366,91.861,95.223,91.65,94.323z M78.801,95.342
		c0.089,0.158,0.178,0.317,0.267,0.476c-0.377,0.206-0.774,0.383-1.122,0.629c-0.194,0.137-0.306,0.39-0.455,0.59
		c0.24,0.153,0.466,0.338,0.724,0.448c0.193,0.083,0.449,0.023,0.64,0.109c0.297,0.134,0.562,0.337,0.84,0.511
		c0.164-0.381,0.384-0.75,0.472-1.148c0.054-0.24-0.214-0.568-0.135-0.783c0.424-1.153-0.083-1.561-0.93-1.548
		c-0.254-0.466-0.434-0.794-0.612-1.122c-0.28,0.213-0.563,0.423-0.841,0.64c-0.347,0.271-0.696,0.539-1.029,0.825
		c-0.308,0.264-0.594,0.551-0.953,0.888c0.451,0.35,0.751,0.582,0.886,0.687C77.406,96.085,78.104,95.714,78.801,95.342z
		 M49.06,89.207c-0.973-0.121-1.661-0.195-2.346-0.294c-0.456-0.066-0.992-0.039-1.34-0.275c-0.779-0.529-1.843-0.471-2.376,0.557
		c0.447-0.116,0.894-0.231,1.424-0.369c0.171,0.918,0.463,1.818,1.791,1.518c0.684-0.155,1.404-0.157,2.082-0.33
		C48.538,89.951,48.707,89.594,49.06,89.207z M41.843,91.025c-0.024-0.156-0.048-0.312-0.072-0.469
		c-0.546-0.078-1.092-0.156-1.601-0.229c-0.14-0.384-0.229-0.777-0.421-1.113c-0.173-0.301-0.458-0.537-0.694-0.803
		c-0.228,0.241-0.623,0.469-0.645,0.727c-0.03,0.357,0.13,0.826,0.378,1.082c0.243,0.251,0.699,0.296,0.943,0.387
		c0.064,0.463,0.115,0.822,0.166,1.181C40.546,91.534,41.194,91.28,41.843,91.025z M42.064,89.186
		c0.162-0.342,0.351-0.74,0.583-1.229c-0.432-0.136-0.747-0.235-1.155-0.364c0.322-0.508,0.601-0.947,0.916-1.442
		c-1.176,0.126-1.315,0.315-1.229,1.427c-0.495,0.089-0.983,0.176-1.471,0.264c-0.004,0.111-0.008,0.224-0.012,0.336
		C40.436,88.492,41.175,88.807,42.064,89.186z M50.677,81.715c-0.484-0.194-1.042-0.597-1.236-0.465
		c-0.81,0.552-2.138,0.283-2.466,1.53c-0.011,0.043,0.563,0.387,0.753,0.311C48.649,82.725,49.531,82.263,50.677,81.715z
		 M61.096,84.85c-0.079-0.096-0.158-0.19-0.236-0.286c-1.109,0.609-2.576,0.771-2.662,2.663
		C59.163,86.434,60.129,85.642,61.096,84.85z M57.095,89.984c-0.745-1.53-1.572-1.217-2.373-0.846
		c-0.172,0.079-0.292,0.347-0.353,0.553c-0.023,0.077,0.185,0.32,0.291,0.323C55.4,90.03,56.141,90.002,57.095,89.984z
		 M61.585,83.601c0.104,0.086,0.208,0.172,0.313,0.257c1.542-0.63,2.024-1.324,1.541-2.521
		C62.776,82.146,62.181,82.873,61.585,83.601z M83.519,96.991c-1.9-1.341-1.907-1.342-2.432-0.382
		C82.394,97.41,82.938,97.495,83.519,96.991z M92.332,88.478c0-0.855,0.048-1.392-0.025-1.912c-0.026-0.188-0.342-0.335-0.525-0.502
		c-0.137,0.556-0.363,1.111-0.364,1.668C91.416,87.946,91.926,88.162,92.332,88.478z M55.971,88.177
		c-0.011-0.121-0.022-0.241-0.033-0.362c-0.678,0.039-1.361,0.044-2.029,0.148c-0.13,0.02-0.226,0.423-0.274,0.661
		c-0.009,0.044,0.318,0.247,0.441,0.211C54.716,88.645,55.341,88.401,55.971,88.177z M48.603,91.124
		c-0.11-0.126-0.22-0.251-0.33-0.377c-0.585,0.414-1.183,0.813-1.745,1.257c-0.09,0.071-0.098,0.404-0.013,0.497
		c0.087,0.095,0.4,0.123,0.5,0.041C47.563,92.093,48.077,91.601,48.603,91.124z M94.684,89.808
		c-0.086-0.101-0.171-0.201-0.257-0.303c-0.563,0.247-1.142,0.466-1.679,0.76c-0.139,0.076-0.146,0.392-0.213,0.597
		c0.207,0.056,0.492,0.228,0.608,0.149C93.683,90.647,94.175,90.215,94.684,89.808z M48.459,84.789
		c-0.043-0.216-0.086-0.433-0.129-0.648c-0.511,0.099-1.021,0.197-1.531,0.297c0.052,0.237,0.105,0.476,0.158,0.713
		C47.458,85.03,47.958,84.909,48.459,84.789z M57.19,80.527c-1.761,0.262-1.956,0.475-1.416,1.348
		C56.258,81.414,56.724,80.971,57.19,80.527z"/>
	<path fill-rule="evenodd" clip-rule="evenodd" d="M17.334,101.671c1.9,0.821,3.828,1.685,5.781,2.484
		c0.767,0.313,1.584,0.515,2.392,0.714c2.042,0.505,4.071,1.24,6.143,1.401c2.685,0.209,5.407-0.128,8.111-0.083
		c2.863,0.049,5.693,0.301,8.52,0.978c3.204,0.768,6.506,1.149,9.781,1.584c4.102,0.545,8.211,0.935,12.207,2.176
		c1.947,0.605,4.062,0.712,6.113,0.939c2.929,0.325,5.867,0.698,8.806,0.738c0.907,0.013,2.035-0.809,2.708-1.564
		c2.932-3.288,5.714-6.709,8.586-10.052c1.975-2.297,4.011-4.54,6.009-6.816c0.24-0.273,0.421-0.599,0.504-0.997
		c-5.537,5.155-10.294,11.021-15.388,16.591c-0.306-1.627,0.849-2.436,1.656-3.396c1.306-1.555,2.679-3.051,4.019-4.575
		c0.501-0.569,0.963-1.174,1.488-1.719c3.811-3.96,7.627-7.915,11.458-11.855c0.597-0.613,1.277-1.145,2.018-1.803
		c-2.44-0.28-4.758-0.411-7.02-0.838c-3.283-0.618-6.52-1.482-9.79-2.177c-1.817-0.387-3.666-0.626-5.495-0.96
		c-2.539-0.465-5.063-1.01-7.61-1.424c-4.318-0.703-8.646-1.357-12.977-1.976c-1.677-0.24-3.375-0.327-5.063-0.484
		c-0.032,0.14-0.063,0.28-0.095,0.42c0.512,0.136,1.018,0.301,1.537,0.4c0.699,0.133,1.411,0.199,2.112,0.323
		c2.811,0.495,5.625,0.976,8.427,1.516c1.749,0.337,3.479,0.767,5.217,1.16c0.773,0.175,1.536,0.417,2.316,0.531
		c2.91,0.426,5.846,0.706,8.732,1.248c2.098,0.394,4.326-0.181,6.338,1.141c0.804,0.529,2.129,0.209,3.184,0.433
		c0.826,0.175,1.604,0.581,2.397,0.903c0.588,0.239,1.165,0.507,1.777,0.775c-0.235,0.837-0.769,0.989-1.775,0.476
		c-0.91-0.464-1.854-0.877-2.82-1.209c-0.42-0.145-0.932-0.007-1.399-0.039c-0.516-0.035-1.155,0.055-1.521-0.212
		c-1.706-1.242-3.684-1.106-5.606-1.265c-0.443-0.037-0.896,0.025-1.343,0.042c0.104,0.409,0.204,0.82,0.314,1.229
		c0.03,0.112,0.089,0.218,0.266,0.636c-1.053-0.584-2.084-0.865-2.65-1.537c-0.889-1.053-2.104-1.1-3.193-1.389
		c-1.484-0.396-3.059-0.451-4.597-0.64c-0.203-0.024-0.416,0.025-0.805,0.056c1.065,1.025,2.112,1.487,3.427,1.559
		c1.782,0.095,3.173,1.028,4.324,2.301c-0.052,0.104-0.104,0.207-0.155,0.31c-1.01-0.543-2.019-1.087-3.038-1.636
		c-0.437,0.816-0.884,1.467-1.12,2.187c-0.096,0.29,0.205,0.786,0.45,1.088c0.18,0.222,0.558,0.287,0.853,0.409
		c1.736,0.72,1.708,0.697,2.833-0.836c0.44-0.601,1.044-1.083,1.573-1.619c0.148,0.133,0.297,0.267,0.445,0.399
		c-0.747,0.836-1.493,1.672-2.232,2.501c0.812,0.973,0.728,1.196-0.348,1.775c-1.306-0.565-2.369-1.025-3.432-1.485
		c-0.033,0.081-0.065,0.162-0.099,0.243c-0.537-0.154-1.078-0.296-1.609-0.468c-0.554-0.179-1.098-0.388-1.903-0.5
		c1.21,2.062-0.234,2.906-1.405,3.764c-0.326,0.239-0.974,0.037-1.475,0.037c-0.004-0.103-0.007-0.204-0.011-0.307
		c0.607-0.397,1.245-0.758,1.807-1.212c0.227-0.183,0.432-0.599,0.382-0.858c-0.051-0.27-0.387-0.537-0.661-0.699
		c-0.455-0.269-0.96-0.452-1.37-0.638c-0.061-1.965,1.585-2.682,2.47-3.965c-0.416-0.83-1.499-1.605-0.181-2.771
		c-0.68-0.215-1.175-0.434-1.692-0.522c-1.295-0.224-2.619-0.302-3.895-0.6c-1.439-0.336-2.1,0.69-3.016,1.299
		c0.034,0.113,0.068,0.227,0.103,0.34c1.068-0.278,2.134-0.565,3.207-0.825c0.198-0.049,0.522-0.067,0.61,0.042
		c0.108,0.136,0.11,0.47,0.013,0.629c-0.179,0.294-0.464,0.523-0.839,0.923c0.77,0.362,1.485,0.661,2.157,1.036
		c0.222,0.123,0.333,0.445,0.494,0.676c-0.265,0.07-0.584,0.271-0.784,0.188c-1.032-0.432-2.279-0.437-2.868-1.743
		c-0.313-0.695-2.287-0.768-2.922-0.275c-0.473-0.65-0.473-0.65,1.07-2.569c-0.609-0.104-1.133-0.172-1.647-0.286
		c-0.889-0.195-1.774-0.409-2.655-0.638c-0.343-0.089-0.661-0.302-1.005-0.348c-2.268-0.308-4.539-0.587-6.81-0.87
		c-0.314-0.039-0.806,0.073-0.92-0.09c-0.772-1.111-1.766-0.46-2.703-0.486c-0.777-0.022-1.636-0.213-2.298-0.603
		c-1.129-0.663-2.182-0.456-3.749,1.165c0.521,0.159,0.933,0.303,1.355,0.408c0.412,0.103,0.833,0.166,1.251,0.246
		c0.002,0.145,0.004,0.29,0.007,0.435c-1.419,0.413-2.839,0.827-4.589,1.337c-0.32,0.645-0.792,1.595-1.388,2.797
		c1.109,0.124,1.888,0.21,2.955,0.329c0.087,0.106,0.402,0.488,0.716,0.87c-0.039,0.13-0.077,0.259-0.115,0.388
		c-0.704-0.088-1.496,0.001-2.096-0.297c-1.718-0.852-3.318-0.459-4.945,0.172c-0.179,0.069-0.358,0.142-0.544,0.185
		c-0.056,0.013-0.133-0.068-0.406-0.223c0.506-0.433,0.898-0.938,1.414-1.177c2-0.921,3.161-2.841,4.928-4.027
		c0.153-0.103,0.382-0.362,0.347-0.434c-0.554-1.101,0.413-1.449,1.231-2.222c-1.161,0-2.053,0-2.945,0
		c-0.024-0.084-0.049-0.169-0.074-0.253c0.575-0.256,1.151-0.511,1.719-0.763c-0.118-1.275,0.104-1.458,1.391-1.31
		c2.73,0.316,5.462,0.626,8.198,0.902c4.32,0.438,8.65,0.787,12.962,1.288c2.328,0.271,4.631,0.771,6.942,1.183
		c2.823,0.503,5.653,0.975,8.463,1.542c5.898,1.193,11.768,2.536,17.686,3.616c2.355,0.431,4.829,0.593,7.209,0.396
		c2.271-0.188,3.929-1.89,4.501-3.993c0.948-3.487,1.468-7.091,2.163-10.647c0.184-0.939,0.318-1.889,0.525-2.823
		c1.079-4.884,1.446-9.853,1.876-14.82c0.144-1.656,0.708-3.272,1.018-4.918c0.205-1.09,0.307-2.2,0.44-3.302
		c0.211-1.729,0.333-3.473,0.634-5.186c0.439-2.506-0.757-3.784-3.323-3.974c-3.335-0.247-6.648-0.801-9.967-1.25
		c-1.977-0.267-3.958-0.529-5.916-0.9c-1.834-0.348-3.622-0.985-5.465-1.232c-4.147-0.556-8.323-0.893-12.473-1.428
		c-3.122-0.403-6.219-1.005-9.335-1.461c-1.058-0.154-2.147-0.078-3.211-0.204c-3.598-0.425-7.195-0.858-10.783-1.357
		c-1.773-0.247-3.514-0.757-5.291-0.942c-1.731-0.18-3.619,0.398-3.991,2.756c-0.876,5.556-1.885,11.093-2.627,16.667
		c-0.81,6.084-1.407,12.196-2.043,18.302c-0.354,3.398-0.573,6.809-0.915,10.208c-0.066,0.661-0.42,1.293-0.642,1.938
		c-0.134-0.003-0.268-0.006-0.402-0.009c-0.108-0.249-0.33-0.511-0.305-0.746c0.183-1.729,0.415-3.455,0.633-5.181
		c0.494-3.914,1.007-7.826,1.479-11.743c0.301-2.494,0.512-4.998,0.817-7.491c0.368-3.007,0.779-6.009,1.195-9.01
		c0.476-3.435,0.946-6.872,1.484-10.297c0.196-1.245,0.425-2.526,0.918-3.671c0.824-1.913,2.871-2.821,4.914-2.38
		c5.938,1.283,11.911,2.19,18.004,2.424c3.177,0.122,6.326,0.868,9.498,1.253c2.725,0.331,5.469,0.493,8.192,0.833
		c2.53,0.316,5.051,0.731,7.562,1.172c2.428,0.426,4.828,1.014,7.262,1.399c2.752,0.437,5.524,0.747,8.293,1.066
		c0.703,0.081,1.435,0.053,2.139-0.034c3.76-0.467,6.223,2.562,5.017,6.116c-0.3,0.884-0.429,1.879-0.396,2.814
		c0.083,2.384-0.416,4.662-0.886,6.973c-0.514,2.531-0.79,5.111-1.14,7.674c-0.183,1.338-0.252,2.692-0.458,4.025
		c-0.822,5.318-1.589,10.648-2.57,15.937c-0.355,1.917-1.316,3.715-1.872,5.605c-0.172,0.587-0.062,1.355,0.169,1.943
		c0.536,1.365,0.4,2.38-0.662,3.545c-2.766,3.03-5.273,6.296-8.036,9.329c-2.627,2.886-5.498,5.547-8.157,8.404
		c-1.239,1.333-2.143,2.975-3.355,4.336c-1.344,1.508-2.865,2.857-4.314,4.271c-0.171,0.166-0.415,0.269-0.556,0.454
		c-1.756,2.321-4.15,2.11-6.611,1.706c-3.297-0.541-6.582-1.211-9.901-1.546c-3.437-0.347-6.913-0.288-10.36-0.549
		c-1.613-0.123-3.196-0.605-4.799-0.882c-2.554-0.439-5.104-0.927-7.674-1.243c-4.736-0.583-9.493-0.998-14.228-1.595
		c-3.057-0.385-6.1-0.91-9.123-1.503c-0.862-0.169-1.6-0.897-2.457-1.189c-1.492-0.509-3.03-0.883-4.55-1.306
		c-1.868-0.521-2.304-1.238-2.229-3.244c0.051-1.384,0.592-2.574,0.976-3.852c0.559-1.856,2.123-2.587,3.181-3.82
		c2.02-2.354,4.313-4.479,6.562-6.628c1.897-1.812,3.871-3.546,5.847-5.274c2.679-2.343,5.392-4.646,8.091-6.966
		c0.182-0.155,0.361-0.376,0.572-0.422c0.292-0.062,0.613,0.014,0.921,0.029c-0.112,0.263-0.152,0.617-0.349,0.772
		c-0.715,0.565-1.541,0.999-2.222,1.599c-4.455,3.917-8.885,7.862-13.319,11.803c-2.867,2.548-5.303,5.483-7.6,8.539
		C18.133,100.354,17.817,100.921,17.334,101.671z M75.659,88.666c3.192,0.656,4.026,0.229,5.093-2.756
		c-0.93-0.059-1.785-0.111-2.641-0.165c0,0.371,0,0.743,0,1.107C77.386,87.541,75.906,87.166,75.659,88.666z M42.407,108.886
		c0.496-0.265,0.893-0.534,1.33-0.698c0.751-0.28,0.92,0.089,0.569,1.225c0.842,0.218,1.246-0.058,2.133-1.585
		c-1.92-0.2-3.741-0.395-5.562-0.576c-0.229-0.022-0.575-0.076-0.681,0.046c-0.652,0.752-1.251,1.55-1.868,2.333
		c0.059,0.082,0.118,0.164,0.176,0.246c0.667-0.435,1.338-0.863,1.999-1.308C41.209,108.094,41.907,107.589,42.407,108.886z
		 M57.319,109.881c-0.374-0.076-0.583-0.188-0.669-0.126c-0.921,0.659-1.833,1.334-2.714,2.045c-0.08,0.064,0,0.526,0.124,0.599
		c0.185,0.107,0.574,0.138,0.706,0.017C55.596,111.646,56.379,110.826,57.319,109.881z M63.362,110.948
		c-0.014-0.119-0.028-0.238-0.042-0.357c-1.186-0.175-2.371-0.349-3.866-0.568c0.341,0.477,0.454,0.814,0.634,0.855
		c0.909,0.208,1.833,0.361,2.759,0.474C63,111.37,63.189,111.091,63.362,110.948z M53.891,77.561
		c-1.052-0.084-2.105-0.168-3.23-0.258C51.173,78.681,52.209,78.645,53.891,77.561z M38.988,107.742
		c-0.059-0.133-0.118-0.264-0.177-0.396c-1.178-0.3-1.849,0.317-2.313,1.308c0.068,0.126,0.135,0.252,0.203,0.378
		C37.463,108.602,38.226,108.172,38.988,107.742z M66.777,111.595c0.01-0.158,0.019-0.316,0.029-0.476
		c-0.886-0.075-1.772-0.15-2.659-0.225c0,0.24,0,0.48,0,0.7C65.109,111.595,65.943,111.595,66.777,111.595z M57.197,111.572
		c0.073,0.062,0.145,0.126,0.217,0.188c0.629-0.467,1.259-0.935,2.065-1.533c-0.674-0.149-1.085-0.241-1.484-0.329
		C57.713,110.491,57.455,111.031,57.197,111.572z M46.172,109.847c0.083,0.124,0.167,0.248,0.25,0.373
		c0.619-0.479,1.237-0.958,1.856-1.437c-0.103-0.149-0.205-0.299-0.307-0.448C47.179,108.546,46.76,109.325,46.172,109.847z"/>
	<path fill-rule="evenodd" clip-rule="evenodd" d="M52.421,31.467c0.279-0.114,0.573-0.353,0.834-0.321
		c1.526,0.19,3.051,0.403,4.562,0.687c2.269,0.427,4.521,0.935,6.787,1.378c2.172,0.426,4.342,0.875,6.53,1.199
		c1.929,0.285,3.883,0.385,5.82,0.615c2.368,0.281,4.737,0.563,7.09,0.946c0.938,0.153,1.695,0.083,2.432-0.559
		c1.083-0.943,2.21-1.839,3.352-2.711c0.348-0.265,0.808-0.382,1.217-0.567c0.065,0.123,0.132,0.246,0.198,0.369
		c-1.555,1.153-3.11,2.306-4.665,3.459c0.022,0.121,0.045,0.242,0.067,0.363c1.3,0.268,2.591,0.605,3.902,0.791
		c4.021,0.57,8.049,1.105,12.08,1.604c1.218,0.151,2.469,0.052,3.682,0.228c2.24,0.323,4.478,0.699,6.689,1.178
		c1.479,0.321,1.885,1.046,1.987,2.575c0.312,4.681-0.621,9.19-1.628,13.724c-0.697,3.14-0.94,6.379-1.448,9.565
		c-0.238,1.489-0.62,2.955-0.939,4.432c-0.418,1.936-1.136,3.861-1.194,5.808c-0.114,3.755-2.783,5.59-6.081,5.052
		c-3.081-0.502-6.154-1.067-9.248-1.474c-2.318-0.305-4.663-0.404-6.997-0.588c-3.615-0.283-7.195-0.728-10.713-1.695
		c-1.677-0.462-3.445-0.645-5.187-0.808c-3.684-0.346-7.388-0.498-11.063-0.912c-3.431-0.387-6.846-0.949-10.245-1.564
		c-0.979-0.178-1.991-0.658-2.771-1.274c-0.54-0.427-0.95-1.314-0.981-2.016c-0.044-1.007,0.057-2.178,0.543-3.021
		c1.146-1.987,1.277-4.169,1.639-6.316c0.255-1.519,0.442-3.048,0.66-4.573c0.022-0.158,0.003-0.334,0.066-0.473
		c1.328-2.922,0.596-6.112,1.193-9.13c0.417-2.109,0.754-4.235,1.166-6.346c0.156-0.803,0.465-1.577,0.611-2.381
		c0.074-0.406,0.083-0.946-0.128-1.257c-0.452-0.666-0.268-1.183-0.072-1.884c0.345-1.236,0.414-2.549,0.598-3.83
		C52.651,31.648,52.537,31.558,52.421,31.467z M84.24,37.083c-0.729-0.24-1.051-0.401-1.39-0.448
		c-4.729-0.657-9.461-1.296-14.192-1.945c-1.872-0.257-3.762-0.433-5.608-0.816c-2.09-0.434-4.135-1.082-6.211-1.588
		c-0.567-0.138-1.179-0.14-1.767-0.118c-0.201,0.008-0.547,0.268-0.562,0.435c-0.094,1.061-0.45,2-0.993,2.914
		c-0.157,0.265,0.052,0.751,0.102,1.134c0.087,0.679,0.491,1.54,0.217,2.002c-1.014,1.717-0.924,3.633-1.283,5.463
		c-0.084,0.427,0.18,1.089-0.041,1.294c-0.797,0.739-0.267,1.583-0.377,2.365c-0.175,1.248-0.371,2.493-0.589,3.733
		c-0.053,0.302-0.289,0.572-0.342,0.874c-0.513,2.922-1.009,5.848-1.5,8.773c-0.138,0.82-0.208,1.652-0.368,2.467
		c-0.199,1.01-0.422,2.019-0.702,3.01c-0.345,1.221-0.884,2.402-1.085,3.642c-0.091,0.565,0.268,1.394,0.702,1.813
		c1.005,0.972,2.347,1.239,3.735,1.366c2.102,0.193,4.196,0.486,6.29,0.757c2.99,0.388,5.974,0.82,8.966,1.183
		c3.399,0.412,6.895,0.409,10.187,1.233c4.845,1.213,9.755,1.489,14.666,1.986c2.892,0.292,5.767,0.761,8.644,1.183
		c1.216,0.178,2.412,0.511,3.631,0.643c2.132,0.229,3.855-1.144,4.212-3.285c0.269-1.609,0.412-3.241,0.746-4.835
		c0.497-2.371,1.208-4.7,1.654-7.079c0.579-3.096,0.802-6.268,1.516-9.328c0.994-4.263,1.699-8.513,1.403-12.906
		c-0.08-1.184-0.521-1.937-1.682-2.106c-2.555-0.375-5.119-0.686-7.68-1.021c-0.945-0.124-1.896-0.22-2.836-0.372
		c-1.735-0.279-3.46-0.626-5.199-0.879c-3.422-0.499-6.846-0.988-10.28-1.39c-0.63-0.074-1.43,0.118-1.945,0.48
		c-1.763,1.239-3.428,2.617-5.142,3.926c-0.733,0.561-1.495,1.083-2.245,1.623c-0.045-0.063-0.09-0.127-0.135-0.191
		C79.164,41.148,81.569,39.222,84.24,37.083z"/>
	<path fill-rule="evenodd" clip-rule="evenodd" d="M87.174,100.698c1.05-0.498,2.094-0.993,3.277-1.555
		c-0.812-0.903-0.903-1.507,0.067-2.019c0.144,0.313,0.274,0.603,0.396,0.87c1.448-1.212,2.887-2.416,4.324-3.618
		c-0.771-0.95-0.36-2.207,1.006-2.972c0,0.703,0,1.36,0,2.36c1.267-1.242,2.332-2.283,3.394-3.329c0.8-0.788,0.905-0.788,1.665,0.02
		c-2.225,1.907-4.484,3.778-6.666,5.736c-1.688,1.515-3.206,3.229-4.952,4.669c-0.629,0.519-1.699,0.677-2.572,0.69
		c-2.26,0.035-4.365-0.626-6.438-1.561c-1.117-0.503-2.508-0.837-3.689-0.663c-2.138,0.312-3.949-0.588-5.757-1.239
		c-1.766-0.636-3.529-0.453-5.276-0.734c-3.218-0.516-6.467-0.844-9.684-1.366c-1.951-0.317-3.86-0.886-5.802-1.271
		c-0.571-0.114-1.19,0.038-1.786,0.017c-1.294-0.047-2.586-0.132-3.879-0.192c-0.349-0.016-0.701-0.021-1.048,0.007
		c-1.183,0.098-2.397,0.401-3.368-0.637c-0.077-0.082-0.204-0.149-0.315-0.163c-1.51-0.178-3.021-0.346-4.531-0.514
		c-0.039-0.005-0.081,0.017-0.119,0.011c-1.608-0.22-3.212-0.481-4.827-0.632c-0.351-0.033-0.981,0.252-1.071,0.526
		c-0.69,2.101-2.417,3.263-3.961,4.604c-0.415,0.36-0.705,0.894-1.16,1.17c-0.284,0.173-0.77,0.013-1.164,0.002
		c0.196-0.31,0.339-0.678,0.6-0.92c0.947-0.882,2.025-1.64,2.889-2.594c2.337-2.581,4.1-5.668,7.164-7.611
		c1.284-0.814,2.202-2.181,3.41-3.142c2.094-1.665,4.278-3.218,6.446-4.786c0.144-0.104,0.475,0.051,0.718,0.085
		c-0.115,0.205-0.182,0.47-0.351,0.608c-2.79,2.288-5.592,4.562-8.393,6.836c-0.186,0.15-0.409,0.261-0.572,0.431
		c-1.215,1.269-2.419,2.547-3.742,3.943c1.835,0.187,3.37,0.343,4.962,0.505c0.074-0.269,0.097-0.459,0.179-0.619
		c0.112-0.22,0.27-0.416,0.407-0.622c0.211,0.156,0.579,0.286,0.609,0.471c0.187,1.136,1.007,1.118,1.874,1.223
		c0.636,0.076,1.243,0.402,1.858,0.628c0.376,0.138,0.745,0.295,1.15,0.457c0.042-0.715,0.073-1.245,0.104-1.775
		c0.133-0.035,0.266-0.069,0.399-0.104c0.203,0.519,0.406,1.037,0.711,1.82c2.177,0,4.586-0.166,6.961,0.048
		c2.237,0.201,4.426,0.896,6.659,1.209c4.181,0.586,8.387,0.991,12.563,1.602c1.431,0.209,2.806,0.805,4.203,1.232
		c0.414,0.127,0.811,0.356,1.231,0.412c1.638,0.216,3.297,0.298,4.918,0.595c1.123,0.205,2.29,0.519,3.265,1.082
		c0.978,0.565,1.602,0.195,2.36-0.256c0.333-0.197,0.746-0.258,1.123-0.381C87.006,99.662,87.065,100.032,87.174,100.698z"/>
	<path fill-rule="evenodd" clip-rule="evenodd" d="M51.212,96.715c1.174,0.075,2.469,0.114,3.751,0.257
		c0.573,0.063,1.117,0.358,1.686,0.503c0.766,0.194,1.536,0.439,2.316,0.494c1.889,0.134,3.794,0.082,5.674,0.278
		c1.039,0.108,2.104,0.44,3.038,0.909c0.621,0.312,1.031,1.046,1.644,1.708c-0.105,0.216-0.213,0.549-0.407,0.82
		c-1.173,1.646-2.355,3.287-3.558,4.911c-0.502,0.678-1.144,1.073-2.06,0.902c-2.926-0.548-5.848-1.129-8.79-1.578
		c-2.736-0.419-5.496-0.684-8.246-1.02c-0.113-0.014-0.222-0.054-0.653-0.163c0.194-0.61,0.242-1.286,0.585-1.736
		c0.916-1.198,1.989-2.276,2.943-3.448C49.859,98.664,50.494,97.704,51.212,96.715z M67.737,100.444
		c-0.095-0.201-0.19-0.401-0.285-0.603c-1.367-0.16-2.733-0.329-4.102-0.477c-0.59-0.064-1.2-0.016-1.776-0.136
		c-2.309-0.481-4.74-0.376-6.929-1.438c-0.1-0.048-0.237-0.013-0.356-0.029c-1.905-0.264-3.152,0.871-4.32,2.093
		c-1.184,1.238-2.3,2.541-3.586,3.972c2.887,0.378,5.393,0.676,7.888,1.047c1.332,0.198,2.642,0.543,3.969,0.785
		c1.933,0.352,3.872,0.67,5.567,0.961c0.38-0.854,0.558-1.481,0.906-1.992C65.684,103.207,66.725,101.835,67.737,100.444z"/>
	<path fill-rule="evenodd" clip-rule="evenodd" d="M66.907,92.084c0.15,0.119,0.388,0.465,0.653,0.487
		c0.984,0.085,1.98,0.032,2.966,0.108c0.218,0.017,0.621,0.422,0.584,0.528c-0.354,1.037-0.305,2.345-2.009,2.921
		c0.231-0.773,0.396-1.329,0.629-2.106c-0.63-0.122-1.329-0.258-2.027-0.394c-0.89-0.174-1.776-0.368-2.671-0.515
		c-0.648-0.106-1.24-0.105-1.506,0.729c-0.085,0.267-0.538,0.415-0.822,0.618c-0.079-0.073-0.158-0.147-0.237-0.221
		c0.142-0.315,0.285-0.632,0.392-0.871c-0.896-1.269-2.079-1.065-3.317-0.764c-0.879,0.215-1.811,0.501-2.48-0.51
		c-0.084-0.127-0.453-0.164-0.646-0.104c-1.218,0.379-2.423,0.797-3.71,1.228c0.269-0.385,0.549-0.854,0.894-1.267
		c0.704-0.842,3.497-1.009,4.334-0.366c0.292,0.225,0.794,0.301,1.178,0.256c1.338-0.159,2.589-0.331,3.978,0.162
		C64.185,92.395,65.529,92.084,66.907,92.084z"/>
	<path fill-rule="evenodd" clip-rule="evenodd" d="M53.899,83.332c-0.9-0.603-1.594-0.979-2.177-1.481
		c-0.578-0.498-1.045-1.124-1.561-1.694c0.053-0.13,0.106-0.261,0.159-0.392c0.663,0,1.326,0,2.007,0
		c-0.264,1.817-0.264,1.817,2.325,1.24c0.034,0.409,0.049,0.808,0.102,1.202c0.151,1.134,0.344,1.225,1.323,0.648
		c1.229-0.725,2.596-0.925,3.917-0.572c0.006,0.119,0.013,0.239,0.019,0.358c-0.918,0.05-1.836,0.099-2.967,0.159
		c-0.45,0.378-0.727,1.861-1.808,0.911c-0.815,0.808-1.575,1.582-2.359,2.33c-0.991,0.943-1.999,1.868-3.008,2.792
		c-0.132,0.12-0.313,0.188-0.472,0.28c-0.097-0.077-0.193-0.155-0.29-0.232c0.286-0.414,0.572-0.828,0.954-1.381
		c-0.193-0.481-0.437-1.087-0.77-1.915c0.347-0.146,0.731-0.31,1.116-0.472c0.042,0.345,0.067,0.692,0.133,1.032
		c0.047,0.244,0.15,0.478,0.269,0.842c0.858-0.733,1.592-1.36,2.325-1.987c-0.037-0.066-0.073-0.133-0.11-0.199
		c-0.167,0.032-0.338,0.103-0.501,0.088c-0.226-0.021-0.446-0.104-0.669-0.161c0.106-0.185,0.167-0.443,0.326-0.54
		C52.637,83.915,53.13,83.707,53.899,83.332z"/>
	<path fill-rule="evenodd" clip-rule="evenodd" d="M60.895,90.056c0.39-0.359,0.639-0.757,0.98-0.866
		c0.713-0.229,1.502-0.227,2.207-0.473c0.429-0.151,0.758-0.589,1.132-0.897c-0.057-0.114-0.115-0.229-0.172-0.343
		c-0.42-0.051-0.857-0.046-1.254-0.17c-0.298-0.094-0.544-0.353-0.814-0.538c0.313-0.174,0.623-0.486,0.94-0.495
		c1.07-0.03,2.162-0.06,3.211,0.115c1.008,0.168,1.783,0.104,2.178-0.98c0.652,0.652,0.542,1.936-0.157,2.676
		c-1.077-1.134-2.112-0.999-3.045,0.45c0.934,0.316,1.88,0.666,1.562,1.945c-0.053,0.212-0.273,0.382-0.416,0.57
		c-0.097-0.191-0.151-0.431-0.299-0.566c-0.386-0.354-0.822-0.949-1.223-0.938C64.247,89.588,62.776,89.837,60.895,90.056z"/>
	<path fill-rule="evenodd" clip-rule="evenodd" d="M91.65,94.323c0.211,0.899-1.01,1.043-1.25,1.619
		c-1.377-0.239-2.593-0.451-3.627-0.632c0.287-1.021,0.52-1.859,0.762-2.694c0.043-0.149,0.101-0.312,0.201-0.424
		c0.882-0.984,1.758-1.976,2.68-2.921c0.154-0.159,0.521-0.11,0.79-0.158c-0.073,0.276-0.076,0.604-0.233,0.819
		c-0.415,0.57-0.952,1.055-1.335,1.643c-0.405,0.62-0.112,0.981,0.598,0.981c0.676,0,1.354-0.082,2.026-0.036
		c0.23,0.016,0.442,0.309,0.662,0.475c-0.242,0.139-0.488,0.398-0.727,0.393c-1.026-0.025-2.05-0.166-3.075-0.179
		c-0.255-0.003-0.513,0.316-0.77,0.488c0.186,0.229,0.357,0.643,0.558,0.656C89.73,94.412,90.561,94.348,91.65,94.323z"/>
	<path fill-rule="evenodd" clip-rule="evenodd" d="M78.801,95.342c-0.697,0.372-1.395,0.743-2.25,1.2
		c-0.135-0.104-0.435-0.337-0.886-0.687c0.359-0.337,0.646-0.624,0.953-0.888c0.333-0.286,0.683-0.554,1.029-0.825
		c0.277-0.217,0.561-0.427,0.841-0.64c0.179,0.328,0.358,0.656,0.612,1.122c0.847-0.013,1.354,0.395,0.93,1.548
		c-0.079,0.215,0.188,0.543,0.135,0.783c-0.088,0.398-0.308,0.768-0.472,1.148c-0.278-0.174-0.543-0.377-0.84-0.511
		c-0.19-0.086-0.446-0.026-0.64-0.109c-0.258-0.11-0.483-0.295-0.724-0.448c0.149-0.2,0.261-0.453,0.455-0.59
		c0.348-0.246,0.745-0.423,1.122-0.629C78.979,95.659,78.89,95.5,78.801,95.342z"/>
	<path fill-rule="evenodd" clip-rule="evenodd" d="M49.06,89.207c-0.353,0.387-0.522,0.744-0.766,0.806
		c-0.678,0.173-1.398,0.175-2.082,0.33c-1.328,0.301-1.62-0.6-1.791-1.518c-0.53,0.138-0.978,0.253-1.424,0.369
		c0.533-1.027,1.597-1.086,2.376-0.557c0.349,0.236,0.885,0.209,1.34,0.275C47.399,89.012,48.087,89.086,49.06,89.207z"/>
	<path fill-rule="evenodd" clip-rule="evenodd" d="M41.843,91.025c-0.648,0.255-1.296,0.509-1.945,0.763
		c-0.05-0.358-0.101-0.718-0.166-1.181c-0.244-0.091-0.7-0.136-0.943-0.387c-0.248-0.256-0.408-0.725-0.378-1.082
		c0.022-0.258,0.417-0.485,0.645-0.727c0.236,0.266,0.521,0.502,0.694,0.803c0.192,0.336,0.281,0.729,0.421,1.113
		c0.508,0.072,1.054,0.15,1.601,0.229C41.795,90.713,41.819,90.869,41.843,91.025z"/>
	<path fill-rule="evenodd" clip-rule="evenodd" d="M42.064,89.186c-0.889-0.379-1.629-0.693-2.369-1.009
		c0.004-0.112,0.008-0.225,0.012-0.336c0.488-0.088,0.976-0.175,1.471-0.264c-0.086-1.111,0.053-1.301,1.229-1.427
		c-0.314,0.495-0.593,0.935-0.916,1.442c0.409,0.129,0.724,0.229,1.155,0.364C42.416,88.445,42.227,88.844,42.064,89.186z"/>
	<path fill-rule="evenodd" clip-rule="evenodd" d="M50.677,81.715c-1.146,0.548-2.028,1.01-2.949,1.376
		c-0.19,0.076-0.764-0.268-0.753-0.311c0.328-1.247,1.656-0.979,2.466-1.53C49.635,81.118,50.193,81.521,50.677,81.715z"/>
	<path fill-rule="evenodd" clip-rule="evenodd" d="M61.096,84.85c-0.966,0.792-1.933,1.584-2.898,2.377
		c0.086-1.892,1.553-2.054,2.662-2.663C60.938,84.659,61.017,84.754,61.096,84.85z"/>
	<path fill-rule="evenodd" clip-rule="evenodd" d="M57.095,89.984c-0.954,0.018-1.695,0.046-2.435,0.03
		c-0.106-0.003-0.314-0.246-0.291-0.323c0.062-0.206,0.181-0.474,0.353-0.553C55.523,88.768,56.35,88.454,57.095,89.984z"/>
	<path fill-rule="evenodd" clip-rule="evenodd" d="M61.585,83.601c0.596-0.728,1.191-1.455,1.854-2.265
		c0.483,1.197,0.001,1.892-1.541,2.521C61.793,83.772,61.689,83.687,61.585,83.601z"/>
	<path fill-rule="evenodd" clip-rule="evenodd" d="M83.519,96.991c-0.581,0.504-1.125,0.419-2.432-0.382
		C81.611,95.649,81.618,95.65,83.519,96.991z"/>
	<path fill-rule="evenodd" clip-rule="evenodd" d="M92.332,88.478c-0.406-0.315-0.916-0.531-0.915-0.746
		c0.001-0.557,0.228-1.112,0.364-1.668c0.184,0.167,0.499,0.314,0.525,0.502C92.38,87.086,92.332,87.622,92.332,88.478z"/>
	<path fill-rule="evenodd" clip-rule="evenodd" d="M55.971,88.177c-0.63,0.225-1.255,0.468-1.895,0.658
		c-0.123,0.036-0.451-0.167-0.441-0.211c0.048-0.238,0.144-0.642,0.274-0.661c0.668-0.104,1.352-0.109,2.029-0.148
		C55.949,87.936,55.96,88.056,55.971,88.177z"/>
	<path fill-rule="evenodd" clip-rule="evenodd" d="M48.603,91.124c-0.525,0.477-1.039,0.969-1.588,1.418
		c-0.1,0.082-0.414,0.054-0.5-0.041c-0.084-0.093-0.077-0.426,0.013-0.497c0.562-0.443,1.16-0.843,1.745-1.257
		C48.382,90.873,48.493,90.998,48.603,91.124z"/>
	<path fill-rule="evenodd" clip-rule="evenodd" d="M94.684,89.808c-0.509,0.407-1.001,0.84-1.54,1.203
		c-0.116,0.078-0.401-0.094-0.608-0.149c0.067-0.205,0.074-0.521,0.213-0.597c0.537-0.294,1.115-0.513,1.679-0.76
		C94.513,89.606,94.598,89.707,94.684,89.808z"/>
	<path fill-rule="evenodd" clip-rule="evenodd" d="M48.459,84.789c-0.501,0.12-1.001,0.241-1.502,0.361
		c-0.053-0.237-0.105-0.476-0.158-0.713c0.51-0.1,1.021-0.198,1.531-0.297C48.373,84.356,48.416,84.573,48.459,84.789z"/>
	<path fill-rule="evenodd" clip-rule="evenodd" d="M57.19,80.527c-0.466,0.443-0.932,0.887-1.416,1.348
		C55.234,81.002,55.429,80.789,57.19,80.527z"/>
	<path fill-rule="evenodd" clip-rule="evenodd" fill="#FFFFFF" d="M75.659,88.666c0.247-1.5,1.727-1.125,2.452-1.813
		c0-0.364,0-0.736,0-1.107c0.855,0.054,1.711,0.106,2.641,0.165C79.686,88.896,78.852,89.322,75.659,88.666z"/>
	<path fill-rule="evenodd" clip-rule="evenodd" fill="#FFFFFF" d="M42.407,108.886c-0.5-1.297-1.198-0.792-1.904-0.317
		c-0.661,0.444-1.332,0.873-1.999,1.308c-0.059-0.082-0.118-0.164-0.176-0.246c0.617-0.783,1.215-1.581,1.868-2.333
		c0.106-0.122,0.451-0.068,0.681-0.046c1.822,0.182,3.643,0.376,5.562,0.576c-0.887,1.527-1.291,1.803-2.133,1.585
		c0.352-1.136,0.182-1.505-0.569-1.225C43.3,108.352,42.902,108.621,42.407,108.886z"/>
	<path fill-rule="evenodd" clip-rule="evenodd" fill="#FFFFFF" d="M57.319,109.881c-0.94,0.945-1.723,1.765-2.554,2.534
		c-0.131,0.121-0.521,0.091-0.706-0.017c-0.125-0.072-0.204-0.534-0.124-0.599c0.881-0.711,1.793-1.386,2.714-2.045
		C56.735,109.693,56.945,109.805,57.319,109.881z"/>
	<path fill-rule="evenodd" clip-rule="evenodd" fill="#FFFFFF" d="M63.362,110.948c-0.172,0.143-0.361,0.422-0.514,0.403
		c-0.926-0.112-1.85-0.266-2.759-0.474c-0.18-0.041-0.293-0.379-0.634-0.855c1.495,0.22,2.68,0.394,3.866,0.568
		C63.334,110.71,63.348,110.829,63.362,110.948z"/>
	<path fill-rule="evenodd" clip-rule="evenodd" fill="#FFFFFF" d="M53.891,77.561c-1.682,1.084-2.718,1.12-3.23-0.258
		C51.786,77.393,52.838,77.477,53.891,77.561z"/>
	<path fill-rule="evenodd" clip-rule="evenodd" fill="#FFFFFF" d="M38.988,107.742c-0.762,0.43-1.525,0.859-2.288,1.29
		c-0.068-0.126-0.135-0.252-0.203-0.378c0.465-0.99,1.136-1.607,2.313-1.308C38.87,107.479,38.929,107.609,38.988,107.742z"/>
	<path fill-rule="evenodd" clip-rule="evenodd" fill="#FFFFFF" d="M66.777,111.595c-0.834,0-1.668,0-2.63,0c0-0.22,0-0.46,0-0.7
		c0.886,0.074,1.772,0.149,2.659,0.225C66.796,111.278,66.787,111.437,66.777,111.595z"/>
	<path fill-rule="evenodd" clip-rule="evenodd" fill="#FFFFFF" d="M57.197,111.572c0.258-0.541,0.516-1.081,0.799-1.674
		c0.398,0.088,0.81,0.18,1.484,0.329c-0.807,0.599-1.436,1.066-2.065,1.533C57.342,111.698,57.27,111.635,57.197,111.572z"/>
	<path fill-rule="evenodd" clip-rule="evenodd" fill="#FFFFFF" d="M46.172,109.847c0.588-0.521,1.007-1.301,1.799-1.512
		c0.103,0.149,0.205,0.299,0.307,0.448c-0.619,0.479-1.237,0.958-1.856,1.437C46.339,110.095,46.255,109.971,46.172,109.847z"/>
	<path fill-rule="evenodd" clip-rule="evenodd" fill="#FFFFFF" d="M84.24,37.083c-2.671,2.139-5.076,4.065-7.481,5.992
		c0.045,0.063,0.09,0.127,0.135,0.191c0.75-0.54,1.512-1.062,2.245-1.623c1.714-1.31,3.379-2.687,5.142-3.926
		c0.516-0.362,1.315-0.554,1.945-0.48c3.435,0.402,6.858,0.892,10.28,1.39c1.739,0.253,3.464,0.6,5.199,0.879
		c0.94,0.151,1.891,0.248,2.836,0.372c2.561,0.336,5.125,0.647,7.68,1.021c1.16,0.17,1.602,0.923,1.682,2.106
		c0.296,4.393-0.409,8.643-1.403,12.906c-0.714,3.06-0.937,6.232-1.516,9.328c-0.446,2.379-1.157,4.708-1.654,7.079
		c-0.334,1.594-0.478,3.226-0.746,4.835c-0.356,2.142-2.08,3.514-4.212,3.285c-1.219-0.132-2.415-0.465-3.631-0.643
		c-2.877-0.422-5.752-0.891-8.644-1.183c-4.911-0.497-9.821-0.773-14.666-1.986c-3.292-0.824-6.788-0.821-10.187-1.233
		c-2.993-0.362-5.977-0.795-8.966-1.183c-2.094-0.271-4.188-0.563-6.29-0.757c-1.388-0.127-2.729-0.395-3.735-1.366
		c-0.434-0.419-0.793-1.249-0.702-1.813c0.201-1.239,0.741-2.42,1.085-3.642c0.279-0.991,0.503-2,0.702-3.01
		c0.16-0.814,0.23-1.647,0.368-2.467c0.49-2.926,0.987-5.851,1.5-8.773c0.053-0.302,0.289-0.572,0.342-0.874
		c0.219-1.24,0.414-2.485,0.589-3.733c0.11-0.782-0.42-1.626,0.377-2.365c0.22-0.205-0.043-0.867,0.041-1.294
		c0.358-1.831,0.269-3.747,1.283-5.463c0.273-0.463-0.13-1.323-0.217-2.002c-0.05-0.383-0.259-0.87-0.102-1.134
		c0.543-0.914,0.899-1.853,0.993-2.914c0.015-0.167,0.361-0.427,0.562-0.435c0.588-0.022,1.2-0.02,1.767,0.118
		c2.076,0.506,4.121,1.154,6.211,1.588c1.846,0.384,3.736,0.56,5.608,0.816c4.731,0.648,9.462,1.288,14.192,1.945
		C83.189,36.682,83.512,36.844,84.24,37.083z M54.281,58.696c3.297-2.231,6.393-4.326,9.488-6.421
		c-3.771,2.103-7.648,4.049-10.682,7.206c0.057,0.149,0.114,0.298,0.171,0.447c0.657-0.143,1.314-0.286,2.284-0.498
		C55.024,59.129,54.838,59.021,54.281,58.696z M88.164,43.891c-0.112-0.166-0.225-0.331-0.337-0.496
		c-3.734,2.533-7.394,5.176-10.948,7.971C80.641,48.875,84.402,46.383,88.164,43.891z M72.841,46.219
		c-0.057-0.074-0.113-0.148-0.17-0.222c-1.025,0.771-2.051,1.542-3.076,2.312c0.059,0.076,0.117,0.152,0.176,0.228
		C70.794,47.765,71.817,46.992,72.841,46.219z"/>
	<path fill-rule="evenodd" clip-rule="evenodd" fill="#FFFFFF" d="M67.737,100.444c-1.013,1.391-2.054,2.763-3.023,4.184
		c-0.349,0.511-0.526,1.139-0.906,1.992c-1.696-0.291-3.635-0.609-5.567-0.961c-1.327-0.242-2.637-0.587-3.969-0.785
		c-2.495-0.371-5.001-0.669-7.888-1.047c1.286-1.431,2.402-2.733,3.586-3.972c1.168-1.222,2.415-2.356,4.32-2.093
		c0.119,0.017,0.256-0.019,0.356,0.029c2.188,1.062,4.62,0.956,6.929,1.438c0.576,0.12,1.186,0.071,1.776,0.136
		c1.369,0.147,2.734,0.316,4.102,0.477C67.547,100.043,67.642,100.243,67.737,100.444z"/>
	<path fill-rule="evenodd" clip-rule="evenodd" d="M54.281,58.696c0.558,0.324,0.744,0.433,1.261,0.733
		c-0.97,0.211-1.627,0.354-2.284,0.498c-0.057-0.149-0.114-0.298-0.171-0.447c3.034-3.156,6.911-5.103,10.682-7.206
		C60.673,54.37,57.578,56.465,54.281,58.696z"/>
	<path fill-rule="evenodd" clip-rule="evenodd" d="M88.164,43.891c-3.762,2.492-7.523,4.984-11.285,7.476
		c3.555-2.795,7.214-5.438,10.948-7.971C87.939,43.561,88.052,43.726,88.164,43.891z"/>
	<path fill-rule="evenodd" clip-rule="evenodd" d="M72.841,46.219c-1.024,0.772-2.047,1.545-3.07,2.318
		c-0.059-0.076-0.117-0.152-0.176-0.228c1.025-0.771,2.051-1.542,3.076-2.312C72.728,46.071,72.784,46.145,72.841,46.219z"/>
</g>
</svg>
