<?xml version="1.0" encoding="utf-8"?>
<!-- Generator: Adobe Illustrator 16.0.0, SVG Export Plug-In . SVG Version: 6.00 Build 0)  -->
<!DOCTYPE svg PUBLIC "-//W3C//DTD SVG 1.1//EN" "http://www.w3.org/Graphics/SVG/1.1/DTD/svg11.dtd">
<svg version="1.1" id="Layer_1" xmlns="http://www.w3.org/2000/svg" xmlns:xlink="http://www.w3.org/1999/xlink" x="0px" y="0px"
	 width="144px" height="144px" viewBox="0 0 144 144" enable-background="new 0 0 144 144" xml:space="preserve">
<g>
	<path fill="#FFFFFF" d="M83.188,46.569c-1.215-0.071-2.4-0.114-3.58-0.216c-1.723-0.15-3.445-0.519-5.159-0.474
		c-2.175,0.056-4.345,0.395-6.507,0.684c-2.032,0.271-4.085,0.5-6.065,1.002c-1.684,0.427-3.274,1.218-4.907,1.847
		c-3.264,1.258-6.61,2.346-9.748,3.865c-1.107,0.536-2.012,1.288-3.35,1.43c-0.873,0.093-1.681,0.811-2.509,1.265
		c-0.166,0.091-0.301,0.246-0.432,0.388c-0.8,0.872-1.637,1.715-2.377,2.636c-0.525,0.654-0.887,0.438-1.15,0.185
		c0.093-0.543,0.31-1.022,0.177-1.156c-0.914-0.925-1.869-1.816-2.873-2.642c-0.894-0.734-1.649-0.865-2.31-0.627
		c1.16,0.657,2.384,1.351,3.607,2.044c-0.064,0.124-0.129,0.249-0.194,0.373c-0.634-0.24-1.268-0.479-1.902-0.719
		c-0.033,0.087-0.065,0.174-0.098,0.262c0.46,0.254,0.919,0.509,1.624,0.898c-2.174,1.219-4.208,0.428-6.108,0.215
		c-1.921-0.216-3.775-1.024-5.682-1.58c1.069,1.155,2.731,1.389,3.871,2.667c1.312,1.472,3.355,2.293,5.083,3.393
		c0.289,0.184,0.589,0.351,1.243,0.737c-2.131,1.358-4.023,2.618-5.979,3.768c-0.395,0.232-1.04,0.102-1.559,0.045
		c-0.532-0.058-1.052-0.229-1.292-0.285c0.028,0.699,0.302,1.485,0.023,1.893c-0.547,0.798-1.392,1.397-2.144,2.042
		c-0.085,0.073-0.375-0.073-0.561-0.14c-1.346-0.483-2.687-0.981-4.037-1.452c-0.345-0.12-0.72-0.154-1.081-0.228
		c-0.028,0.101-0.056,0.202-0.083,0.303c1.969,0.724,3.941,1.438,5.902,2.181c0.262,0.099,0.615,0.295,0.678,0.516
		c0.199,0.697,0.28,1.426,0.458,2.436c-1.859-0.32-3.648-0.629-5.438-0.938c-0.02,0.113-0.04,0.228-0.06,0.342
		c1.099,0.29,2.184,0.662,3.3,0.847c1.037,0.171,2.509-0.255,3.058,0.303c0.645,0.653,0.5,2.085,0.692,3.181
		c0.012,0.07-0.034,0.151-0.078,0.322c-2.43,0.897-4.915,1.806-7.39,2.741c-0.355,0.135-0.66,0.403-0.988,0.609
		c2.667-0.679,5.186-1.506,7.699-2.347c0.763-0.256,1.279-0.218,1.751,0.626c0.749,1.339,1.553,2.707,2.607,3.798
		c1.362,1.407,2.947,2.613,4.521,3.795c1.905,1.43,3.803,2.911,5.872,4.067c3.641,2.035,7.39,3.883,11.141,5.712
		c0.904,0.441,1.98,0.577,2.997,0.728c3.17,0.47,6.375,0.751,9.52,1.349c3.312,0.63,6.521,1.975,9.967,1.592
		c2.986-0.33,5.98-0.733,8.911-1.375c2.068-0.452,4.046-1.335,6.046-2.071c0.771-0.284,1.475-0.748,2.244-1.039
		c2.21-0.836,4.619-1.322,6.614-2.51c2.644-1.574,5.538-2.354,8.336-3.44c1.287-0.499,2.712-0.66,3.976-1.204
		c2.615-1.127,5.106-2.559,7.761-3.567c1.57-0.596,3.232-1.473,5.068-0.817c0.583-1.14,1.573-1.587,2.732-1.735
		c0.117,0.139,0.234,0.277,0.352,0.416c-0.429,0.162-0.857,0.323-1.286,0.485c0.151,0.182,0.302,0.364,0.453,0.546
		c0.834-0.544,1.639-1.146,2.517-1.607c0.464-0.245,1.108-0.44,1.575-0.312c0.639,0.176,1.173,0.707,1.782,1.028
		c0.153,0.081,0.422-0.056,0.638-0.093c-0.071-0.204-0.1-0.442-0.228-0.601c-0.123-0.153-0.35-0.225-0.57-0.355
		c0.51-0.354,0.927-0.643,1.326-0.92c-0.795-0.235-1.427-0.423-2.059-0.61c0.961-0.874,1.56-1.521,1.24-2.661
		c-0.278-0.999-0.788-1.664-1.999-1.633c0.06,0.359,0.117,0.703,0.184,1.104c-2.143,0.045-2.461-2.267-4.044-2.753
		c0.181-0.811,0.345-1.544,0.508-2.276c-0.131-0.053-0.263-0.104-0.394-0.157c-0.273,0.635-0.546,1.271-0.836,1.947
		c-0.831-0.48-1.87-0.826-1.469-2.362c-1.84,0.141-2.73-1.028-3.618-2.242c-0.61-0.835-1.22-1.695-1.967-2.399
		c-1.547-1.459-3.098-2.94-4.807-4.195c-2.656-1.951-4.89-4.452-7.903-5.946c-1.369-0.679-2.631-1.577-3.924-2.405
		c-1.783-1.144-3.53-2.346-5.331-3.462c-1.215-0.754-2.45-1.504-3.756-2.074c-1.526-0.666-3.144-1.121-4.714-1.691
		c-0.959-0.348-1.902-0.74-2.876-1.121c0.411-2.461,0.805-4.815,1.197-7.169c-0.115-0.016-0.231-0.033-0.347-0.049
		c-0.162,0.909-0.323,1.817-0.472,2.651c-0.631,0.039-1.168,0.072-1.706,0.106c0.012,0.128,0.022,0.255,0.034,0.383
		c0.479,0.062,0.96,0.124,1.482,0.191C83.735,44.092,83.488,45.209,83.188,46.569z M40.228,33.577
		c0.078,0.062,0.156,0.123,0.234,0.184c0.134-0.062,0.311-0.088,0.396-0.191c1.673-2.007,3.944-3.182,6.158-4.431
		c1.282-0.723,2.625-1.342,3.877-2.113c0.868-0.534,1.563-1.365,2.456-1.838c0.595-0.315,1.423-0.149,2.106-0.341
		c4.382-1.23,8.743-2.537,13.133-3.737c1.534-0.42,3.098-0.318,4.717-0.145c3.426,0.367,6.891,0.375,10.338,0.557
		c0.471,0.025,0.944,0.168,1.4,0.311c2.259,0.704,4.527,1.379,6.761,2.156c1.669,0.581,3.33,1.214,4.92,1.981
		c1.789,0.864,3.64,1.718,5.183,2.934c0.979,0.771,2.994,0.897,2.525,2.796c1.091,0.539,2.182,0.884,3.025,1.545
		c0.973,0.761,1.734,1.793,2.569,2.725c0.181,0.201,0.263,0.488,0.43,0.706c0.512,0.667,0.99,1.372,1.583,1.959
		c0.412,0.408,1.035,0.595,1.488,0.972c1.131,0.941,2.218,1.934,3.322,2.906c0.057-0.043,0.113-0.086,0.169-0.129
		c-2.874-2.954-5.749-5.907-8.624-8.861c0.128-0.15,0.256-0.301,0.383-0.451c1.033,0.785,2.066,1.569,3.1,2.354
		c0.056-0.08,0.111-0.159,0.168-0.239c-0.439-0.389-0.867-0.793-1.321-1.163c-0.548-0.446-1.081-0.927-1.687-1.279
		c-1.127-0.655-2.326-1.188-3.443-1.857c-0.335-0.201-0.498-0.688-0.74-1.045c0.129-0.103,0.258-0.206,0.387-0.309
		c0.424,0.39,0.785,0.917,1.284,1.146c1.813,0.837,3.691,1.538,5.508,2.37c0.791,0.362,1.473,0.956,2.238,1.383
		c2.544,1.419,5.157,2.743,6.784,5.331c0.054,0.084,0.239,0.086,0.645,0.217c-1.357-2.131-3.003-3.507-4.893-4.643
		c-3.707-2.228-7.376-4.521-11.111-6.699c-1.818-1.061-3.72-1.995-5.641-2.86c-3.73-1.681-7.454-3.396-11.271-4.862
		c-2.909-1.118-6.033-1.315-9.142-1.613c-4.557-0.437-9.08-0.626-13.615,0.043c-0.769,0.113-1.731-0.119-2.083,0.989
		c-0.055,0.173-0.466,0.255-0.726,0.338c-2.725,0.875-5.427,1.833-8.184,2.589c-5.643,1.548-10.357,4.822-14.99,8.149
		c-2.33,1.674-4.201,3.989-6.261,6.032c-0.139,0.138-0.125,0.43-0.183,0.651c0.085,0.052,0.171,0.103,0.256,0.154
		c2.248-2.165,3.938-4.979,6.862-6.354c0.079,0.069,0.159,0.138,0.238,0.207C40.714,32.597,40.471,33.087,40.228,33.577z
		 M121.141,58.401c-0.028-0.022-0.057-0.044-0.085-0.066c-1.458,1.276-2.916,2.552-4.374,3.829c2.008-2.359,2.12-5.813,4.561-7.941
		c-2.667,1.7-5.335,3.4-8.002,5.1c0.103,0.168,0.205,0.336,0.308,0.505c1.795-1.203,3.59-2.405,5.385-3.607
		c0.088,0.09,0.176,0.18,0.265,0.27c-0.871,1.583-1.742,3.167-2.636,4.793c-0.91-0.174-1.779-0.341-2.647-0.507
		c-0.051,0.079-0.102,0.158-0.151,0.237c0.402,0.369,0.805,0.738,0.957,0.877c0.188,1.096,0.333,1.933,0.478,2.77
		c0.104-0.065,0.209-0.131,0.314-0.197c0.51,0.256,1.021,0.511,1.71,0.856c2.292-0.791,4.763-1.643,7.233-2.495
		c-0.098-0.116-0.194-0.232-0.291-0.348c0.174-0.229,0.299-0.55,0.53-0.673c1.173-0.627,2.374-1.203,3.565-1.796
		c-1.812,0.533-3.493,1.312-5.239,1.891c-1.771,0.587-3.469,1.63-5.705,1.198C118.648,61.459,119.895,59.93,121.141,58.401z
		 M60.581,113.437c0.111-0.007,0.222-0.013,0.333-0.019c0-0.953-0.022-1.907,0.008-2.859c0.02-0.634,0.325-0.856,1.022-0.79
		c1.853,0.177,3.715,0.295,5.576,0.343c1.828,0.047,3.659-0.077,5.486-0.021c1.172,0.036,2.472-0.173,3.17,1.273
		c0.237,0.491,0.861,0.795,1.309,1.185c0.074-0.08,0.146-0.16,0.221-0.241c-0.076-0.116-0.128-0.259-0.229-0.345
		c-1.475-1.242-2.254-2.84-2.539-4.733c-0.207-1.371-0.455-2.744-0.813-4.083c-0.127-0.475-0.635-0.848-1.04-1.355
		c0.557,2.628,1.057,4.988,1.566,7.398c-0.907,0.188-1.568,0.455-2.223,0.44c-3.305-0.072-6.607-0.216-9.911-0.343
		c-0.192-0.008-0.38-0.109-0.574-0.141c-0.713-0.116-0.904-0.532-0.759-1.203c0.294-1.357,0.557-2.723,0.848-4.082
		c0.217-1.013,0.536-2.01,0.662-3.032c0.102-0.822-0.255-1.327-0.986-0.988c0,0.847,0.085,1.558-0.018,2.24
		c-0.219,1.45-0.518,2.889-0.817,4.325c-0.23,1.104,0.253,2.668-1.878,2.737c1.712,0.384,1.609,1.505,1.485,2.686
		C60.423,112.355,60.541,112.899,60.581,113.437z M51.114,40.109c-0.026-0.006-0.052-0.013-0.078-0.019
		c-0.065,0.414-0.169,0.827-0.188,1.243c-0.053,1.184-0.055,2.37-0.107,3.554c-0.044,1.017-0.276,1.885-1.521,2.086
		c-0.314,0.051-0.57,0.462-0.852,0.709c-2.469-1.469-3.829-4.923-2.967-7.513c0.023-0.069-0.06-0.173-0.107-0.3
		c-1.284,2.031-0.961,5.711,0.653,7.91c0.794,1.082,1.872,1.76,2.583,1.579c-0.215-0.296-0.419-0.577-0.691-0.953
		c0.644,0.059,1.132,0.104,1.667,0.153c-0.082,0.415-0.16,0.812-0.238,1.21c0.104,0.04,0.209,0.08,0.314,0.12
		c0.458-1.06,0.917-2.12,1.345-3.111c0.726-0.232,1.434-0.459,2.315-0.741c-0.099,1.019-0.181,1.852-0.262,2.684
		c0.127,0.029,0.254,0.057,0.381,0.086c0.151-0.556,0.461-1.123,0.426-1.667c-0.139-2.145-0.425-4.28-0.575-6.425
		c-0.069-1,0.047-2.012,0.084-3.16c-0.626-0.205-0.833,0.146-0.756,1.014c0.195,2.176,0.322,4.359,0.465,6.385
		c-0.716,0.456-1.301,0.829-1.892,1.205C51.114,44.104,51.114,42.106,51.114,40.109z M108.56,57.64
		c0.48,0.434,1.168,0.764,1.336,1.267c0.36,1.079,0.775,0.884,1.438,0.346c1.462-1.186,2.198-2.82,2.727-4.535
		c1.118-3.63,2.259-7.239,4.505-10.394c-0.54,0.515-1.106,1.045-1.392,1.697c-1.334,3.051-2.58,6.141-3.881,9.207
		c-0.53,1.251-1.062,2.519-2.005,3.206c-0.457-0.26-0.677-0.436-0.927-0.517c-0.682-0.22-1.891-1.553-1.765-2.033
		c0.586-2.229,1.157-4.463,1.803-6.675c0.339-1.16,0.821-2.278,1.238-3.415c-0.572,0.568-0.993,1.204-1.239,1.9
		c-0.635,1.794-1.177,3.622-1.783,5.426c-0.482,1.436-0.848,1.571-2.184,0.92c-0.318-0.155-0.656-0.271-0.985-0.405
		c-0.052,0.083-0.104,0.167-0.155,0.25c0.616,0.686,1.232,1.372,1.85,2.057c-0.068,0.081-0.136,0.161-0.204,0.241
		c0.274-0.021,0.548-0.042,0.835-0.065c-0.073,0.816-0.136,1.511-0.198,2.207c0.123,0.021,0.246,0.042,0.369,0.062
		C108.13,58.16,108.317,57.933,108.56,57.64z M98.247,37.055c-1.81,2.494-4.008,5.524-6.239,8.6
		c-0.728-0.578-1.207-0.958-1.758-1.396c0.942-1.504,1.854-2.958,2.764-4.411c-0.061-0.04-0.122-0.08-0.184-0.121
		c-1.511,1.995-3.022,3.99-4.533,5.985c0.979-0.308,2.007-0.96,2.854,0.493c-0.401,0.163-0.834,0.223-1.071,0.469
		c-0.226,0.234-0.248,0.664-0.359,1.008c0.303-0.044,0.71,0.022,0.889-0.15c0.718-0.688,1.379-1.438,2.031-2.189
		c0.661-0.762,1.289-1.553,1.931-2.331c0.092,0.067,0.183,0.134,0.274,0.201c-0.356,1.053-0.42,2.284-2.016,2.667
		c1.534,1.057-0.585,2.139,0.321,3.53c0.342-0.834,0.472-1.497,0.845-1.965c0.376-0.472,0.994-0.751,1.611-1.189
		c-0.315-0.181-0.65-0.373-1.295-0.743C95.717,42.494,97.12,39.477,98.247,37.055z M88.639,106.592
		c-0.027-0.116-0.054-0.233-0.081-0.35c0.344-0.125,0.684-0.345,1.031-0.355c0.752-0.023,1.442-0.049,1.772-0.899
		c0.056-0.144,0.327-0.188,0.446-0.324c0.226-0.259,0.412-0.551,0.615-0.829c-0.335,0.003-0.747-0.119-0.99,0.031
		c-0.935,0.58-1.816,1.248-2.896,2.008c-0.258-1.189-0.384-2.093-0.659-2.948c-0.267-0.825-0.602-1.687-1.658-1.827
		c0.446,1.032,0.86,1.993,1.275,2.954c-0.107,0.061-0.214,0.121-0.321,0.182c-0.535-0.463-1.071-0.927-1.606-1.391
		c-0.121,0.125-0.242,0.25-0.363,0.376c0.511,0.414,1.111,0.758,1.511,1.261c0.493,0.621,1.009,1.333,1.177,2.081
		c0.293,1.308,0.201,2.702,0.506,4.006c0.338,1.449,0.915,2.846,1.45,4.241c0.1,0.261,0.488,0.41,0.744,0.61
		c0.07-0.068,0.141-0.138,0.212-0.207c-1.523-1.918-1.781-4.189-1.987-6.498c-0.075-0.839-0.11-1.408,0.97-1.4
		c0.322,0.003,0.646-0.27,0.968-0.416c-0.027-0.102-0.054-0.203-0.081-0.305C89.995,106.592,89.316,106.592,88.639,106.592z
		 M89.137,98.215c-0.071,0.069-0.142,0.138-0.212,0.207c0.091,0.191,0.143,0.417,0.278,0.568c2.112,2.36,4.25,4.699,6.346,7.075
		c0.406,0.46,0.751,1.021,0.961,1.595c0.2,0.551,0.188,1.18,0.27,1.773c0.135-0.021,0.27-0.041,0.404-0.061
		c-0.098-1.01-0.221-2.017-0.287-3.028c-0.082-1.235-0.117-2.475-0.178-3.85c-0.513-0.116-0.955-0.514-0.209-1.338
		c-1.491-0.516-2.107-2.631-4.274-2.022c1.045,0.9,3.222,0.772,2.27,2.961c0.002,0.002,0.053,0.067,0.119,0.106
		c0.339,0.194,0.681,0.382,1.021,0.572c-0.28,0.312-0.522,0.805-0.854,0.877c-0.266,0.057-0.665-0.374-0.961-0.639
		c-0.168-0.15-0.211-0.436-0.371-0.6c-1.161-1.191-2.333-2.371-3.514-3.543C89.699,98.627,89.407,98.433,89.137,98.215z
		 M104.885,103.939c0.069-0.062,0.14-0.122,0.21-0.183c-1.283-1.749-2.567-3.497-3.857-5.256c0.499-0.324,0.808-0.524,1.115-0.725
		c-0.057-0.139-0.112-0.278-0.169-0.417c-0.408,0.13-0.815,0.261-1.223,0.392c0.104-0.055,0.208-0.108,0.312-0.163
		c-0.518-0.431-1.034-0.861-1.551-1.292c-0.117,0.088-0.233,0.175-0.351,0.263c0.222,0.501,0.442,1.001,0.665,1.504
		c-1.244,0.419-1.225,0.391-2.222-0.28c-0.38-0.255-0.871-0.342-1.312-0.506c-0.042,0.094-0.084,0.188-0.125,0.28
		c3.077,2.263,5.725,4.878,7.147,8.575c0.013-0.72-0.074-1.406-0.377-1.979c-0.501-0.944-1.169-1.799-1.707-2.726
		c-0.161-0.276-0.125-0.666-0.179-1.004c0.312,0.164,0.659,0.287,0.926,0.507c0.238,0.196,0.368,0.52,0.583,0.754
		C103.468,102.444,104.179,103.188,104.885,103.939z M52.862,99.98c-1.188,0.617-1.663,1.575-1.45,2.771
		c0.193,1.084,0.539,2.142,0.841,3.3c-0.78-0.172-1.346-0.297-1.913-0.423c-0.028,0.122-0.057,0.243-0.085,0.364
		c1.924,0.914,4.28,0.975,5.847,2.805c0.69-0.081,1.477-0.174,2.263-0.267c-0.003-0.152-0.007-0.305-0.011-0.458
		c-0.496-0.055-0.992-0.11-1.692-0.188c0.801-3.048-0.443-5.81-1.552-8.608c-0.019,2.75,1.991,5.292,0.918,8.382
		c-1.168-0.542-2.253-1.046-3.299-1.531C52.599,104.094,50.951,102.026,52.862,99.98z M47.172,50.786
		c-0.332-0.667-0.592-1.192-0.916-1.843c-0.667,0.953-1.307,0.526-1.956,0.101c-1.047-0.687-1.895-1.461-2.213-2.793
		c-0.352-1.47-1.109-1.985-2.103-1.778c0.948,2.736,3.187,4.436,5.218,6.311c-2.917-0.259-4.631-2.36-6.562-4.114
		c1.604,2.356,3.669,4.083,6.345,5.04C46.121,52.115,46.785,51.826,47.172,50.786z M41.042,112.536
		c-0.087-2.736,0.955-5.109,2.334-7.367c0.581-0.95,0.97-2.415,2.564-1.103c0.12,0.099,0.46-0.071,0.699-0.116
		c-0.111-0.225-0.166-0.53-0.346-0.657c-0.337-0.237-0.748-0.372-1.351-0.654c1.452-1.611,2.773-3.079,4.094-4.546
		c-0.396-0.032-0.653,0.074-0.833,0.257c-1.007,1.022-1.998,2.06-2.988,3.098c-1.013,1.062-1.512,0.993-2.408-0.16
		c-0.335-0.431-0.908-0.676-1.372-1.005c0.721,0.759,1.221,1.587,1.851,2.299c0.45,0.51,0.533,0.879,0.146,1.455
		c-0.552,0.825-1.092,1.675-1.497,2.577C41.094,108.487,40.264,110.39,41.042,112.536z M57.137,47.272
		c0.15,0.002,0.3,0.006,0.45,0.009c0.014-0.678,0.176-1.394,0.015-2.028c-0.548-2.156-1.261-4.27-1.806-6.426
		c-0.242-0.958-0.233-1.978-0.374-3.302c-0.305,0.485-0.514,0.664-0.519,0.849c-0.077,2.455-0.149,4.91-0.167,7.366
		c-0.007,0.927,0.062,1.868,0.233,2.776c0.07,0.37,0.504,0.671,0.773,1.004c0.104-0.077,0.208-0.153,0.312-0.23
		c-0.175-0.55-0.482-1.103-0.477-1.651c0.003-0.343,0.478-0.681,0.741-1.021c0.222,0.247,0.575,0.464,0.638,0.746
		C57.095,45.982,57.086,46.633,57.137,47.272z M81.558,31.366c-0.499,0.674-1.237,1.278-1.456,2.033
		c-0.913,3.149-1.669,6.343-2.483,9.521c0.138,0.034,0.274,0.069,0.411,0.104c0.836-3.276,1.671-6.553,2.506-9.83
		c0.161,0.029,0.322,0.058,0.483,0.087c-0.663,3.734,1.369,7.573-0.753,11.316c0.484-0.214,0.804-0.469,0.979-0.8
		c0.976-1.855,0.552-3.809,0.345-5.745C81.356,35.883,81.198,33.716,81.558,31.366z M132.209,66.976
		c-0.004-0.109-0.008-0.219-0.012-0.328c-2.884,0.51-5.766,1.032-8.653,1.521c-0.782,0.132-1.581,0.212-2.372,0.211
		c-0.199,0-0.595-0.57-0.568-0.602c0.485-0.583,0.923-1.367,1.565-1.627c1.61-0.651,3.32-1.056,4.985-1.578
		c0.213-0.067,0.393-0.238,0.588-0.36c-0.034-0.061-0.068-0.122-0.103-0.183c-2.61,0.739-5.221,1.479-7.933,2.247
		c0.035-0.437,0.055-0.682,0.073-0.926c-0.095-0.056-0.189-0.112-0.284-0.168c-0.261,0.326-0.607,0.623-0.732,0.994
		c-0.042,0.126,0.494,0.423,0.731,0.674c0.229,0.24,0.586,0.521,0.587,0.786c0.003,1.369,0.131,1.589,1.491,1.349
		C125.127,68.358,128.665,67.65,132.209,66.976z M77.643,35.374c-0.068-0.03-0.137-0.06-0.204-0.089
		c-0.597,1.529-1.229,3.045-1.775,4.591c-0.284,0.806-0.684,1.304-1.866,1.144c-0.315-2.745-0.658-5.533-0.942-8.326
		c-0.073-0.718-0.341-1.784,1.268-1.258c-0.419-0.322-0.918-0.654-1.047-0.545c-0.28,0.235-0.535,0.706-0.513,1.062
		c0.158,2.538,0.4,5.071,0.593,7.607c0.086,1.126,0.121,2.256,0.193,3.664c0.331-0.39,0.467-0.553,0.605-0.714
		c0.194-0.227,0.39-0.452,0.585-0.677c0.067,0.279,0.133,0.559,0.203,0.837c0.086,0.344,0.178,0.686,0.293,1.131
		C75.952,40.836,76.797,38.105,77.643,35.374z M59.885,44.895c0.019,0.13,0.039,0.26,0.058,0.39
		c0.404-0.078,0.931-0.032,1.172-0.272c0.196-0.195,0.186-0.804,0.03-1.109c-0.686-1.345-1.558-2.6-2.172-3.973
		c-0.85-1.9-1.781-3.856-0.451-6.105c-0.327-0.158-0.651-0.314-0.975-0.47c-0.103,0.362-0.311,0.729-0.292,1.085
		c0.125,2.395,0.417,4.766,1.62,6.902c0.409,0.726,0.642,1.363-0.14,2.095c0.455,0.046,0.813-0.098,1.144-0.049
		C60.505,43.48,60.5,44.336,59.885,44.895z M86.107,116.238c1.162-2.713-5.016-14.002-7.597-15.302
		C81.739,105.585,85.172,110.132,86.107,116.238z M34.963,95.491c1.227,1.176,0.421,1.804-0.229,2.601
		c-0.641,0.786-1.075,1.746-1.558,2.652c-0.089,0.166,0.021,0.439,0.023,0.462c0.799-1.151,1.574-2.383,2.468-3.522
		c0.777-0.991,1.161-0.84,1.917,0.133c0.661,0.85,1.534,1.541,2.359,2.25c0.172,0.147,0.541,0.064,0.819,0.088
		c-0.256-0.69-0.605-1.426-1.041-1.48c-1.459-0.184-1.803-1.363-2.525-2.333c0.938-0.709,1.826-1.382,2.715-2.054
		c-0.077-0.13-0.153-0.26-0.23-0.39c-0.426,0.254-0.873,0.479-1.272,0.77C37.419,95.389,36.66,96.828,34.963,95.491z
		 M110.954,96.474c0.117-2.613,0.316-5.146,3.369-6.067c0.18,0.296,0.385,0.633,0.589,0.97c-0.398-2.331,2.05-2.466,2.866-3.774
		c-0.079-0.105-0.157-0.212-0.236-0.317c-2.104,1.468-4.209,2.937-6.264,4.369c-0.522-0.211-1.046-0.422-1.569-0.633
		c-0.082,0.097-0.164,0.193-0.246,0.29C111.901,92.521,109.893,94.841,110.954,96.474z M22.971,96.908
		c0.143-2.723,4.784-6.64,6.916-6.078c0.737-1.914,2.679-1.23,4.002-2.022c-0.554-0.213-1.11-0.308-1.627-0.204
		c-1.39,0.275-2.633,1.687-4.217,0.344c0.791,1.229,0.722,1.135-0.386,1.95c-1.587,1.17-3.109,2.442-4.56,3.777
		C22.554,95.175,22.137,95.961,22.971,96.908z M105.15,45.401c-0.053-0.042-0.105-0.083-0.158-0.125
		c-0.166,0.133-0.371,0.238-0.494,0.403c-0.896,1.21-1.738,2.464-2.682,3.636c-0.379,0.471-1.075,1.175-1.446,1.078
		c-1.422-0.369-1.071,0.694-1.497,1.519c0.541-0.23,0.83-0.353,1.119-0.476c0.123,0.332,0.218,0.588,0.354,0.955
		c1.306-1.258,1.647-3.184,3.729-3.613c0.827-0.171,1.409-1.531,2.104-2.35c-0.064-0.054-0.128-0.108-0.19-0.162
		c-0.681,0.625-1.36,1.25-2.04,1.875c-0.085-0.085-0.17-0.17-0.255-0.254C104.18,47.058,104.665,46.23,105.15,45.401z
		 M14.951,85.118c0.035,0.12,0.07,0.241,0.104,0.361c0.217-0.037,0.439-0.054,0.649-0.114c2.401-0.691,4.799-1.397,7.204-2.079
		c0.284-0.08,0.634-0.125,0.899-0.03c0.348,0.124,0.641,0.402,0.958,0.613c0.064-0.313,0.1-0.638,0.208-0.936
		c0.042-0.118,0.26-0.163,0.376-0.267c0.281-0.251,0.548-0.516,0.821-0.775c-0.049-0.081-0.097-0.163-0.146-0.244
		C22.333,82.805,18.643,83.961,14.951,85.118z M109.657,47.975c-2.212,2.022-4.454,4.073-6.697,6.124
		c-0.034-0.132-0.068-0.265-0.104-0.397c-0.463,0-0.926,0-1.408,0c0.296,0.766,0.496,1.282,0.804,2.078
		C104.691,52.952,107.784,51.013,109.657,47.975z M101.85,38.22c-1.89,0.939-6.15,9.116-6.219,11.791
		c0.271-0.151,0.553-0.354,0.619-0.612c0.871-3.384,2.41-6.468,4.22-9.427C100.801,39.431,101.256,38.966,101.85,38.22z
		 M18.857,62.127c-0.023,0.106-0.046,0.211-0.069,0.317c2.919,0.9,5.838,1.801,8.727,2.692c-0.597,0.793-0.597,0.793-0.202,1.062
		c0.981-0.5,1.792-0.913,2.261-1.151C26.206,64.129,22.531,63.128,18.857,62.127z M29.499,64.007
		c0.077,0.081,0.154,0.161,0.231,0.242c0.707-0.504,1.414-1.008,2.449-1.747c-1.011-0.071-1.718-0.096-2.42-0.173
		c-3.025-0.332-5.729-1.611-8.431-2.891c-0.271-0.128-0.559-0.221-0.839-0.331c-0.051,0.136-0.103,0.272-0.153,0.409
		c3.093,1.206,6.187,2.412,9.361,3.649C29.655,63.349,29.577,63.678,29.499,64.007z M69.982,41.508
		c-0.721-0.539-0.654-0.537-0.606-1.835c0.065-1.79,0.017-3.583,0.017-5.375c-0.053,0.002-0.106,0.005-0.16,0.007
		c-0.265,3.366-0.529,6.732-0.794,10.098c0.131,0.027,0.262,0.054,0.393,0.081C69.193,43.549,69.555,42.613,69.982,41.508z
		 M107.524,102.394c-0.013-1.207-5.304-7.875-6.759-8.171C103.139,97.092,105.312,99.72,107.524,102.394z M63.469,32.792
		c-1.197,3.976-1.013,7.802-0.952,11.619c0.105,0.02,0.21,0.039,0.315,0.059c0.288-0.692,0.575-1.384,0.755-1.819
		c-0.237-0.753-0.608-1.368-0.588-1.969C63.086,38.145,63.29,35.611,63.469,32.792z M86.402,44.564
		c0.649-0.213,1.172-0.385,1.927-0.633c-1.809-0.783-1.16-2.138-0.985-3.37c0.095-0.668,0.278-1.325,0.427-1.986
		c0.131-0.583,0.266-1.164,0.404-1.745c0.136-0.567,0.278-1.133,0.418-1.699c-0.101-0.02-0.202-0.039-0.303-0.058
		C87.389,38.208,86.325,41.309,86.402,44.564z M31.709,46.26c-0.059,0.046-0.119,0.092-0.178,0.138
		c0.705,0.998,1.369,2.027,2.123,2.986c1.475,1.877,2.766,3.938,4.887,5.21c1.162,0.697,1.352,0.652,2.499-0.764
		c-0.611,0.19-0.933,0.323-1.268,0.386c-0.317,0.06-0.759,0.189-0.953,0.039c-0.909-0.705-1.857-1.406-2.595-2.275
		C34.655,50.127,33.207,48.172,31.709,46.26z M33.033,50.884c0.084,0.174,0.1,0.265,0.154,0.31c1.752,1.448,3.354,2.988,4.087,5.253
		c0.273,0.846,0.785,0.54,1.19,0.014C36.904,53.945,33.828,50.742,33.033,50.884z M69.891,32.853
		c0.822,3.647,1.645,7.294,2.468,10.941C72.616,39.907,70.826,36.487,69.891,32.853z M107.026,93.364
		c0.522,0.83,1.112,1.54,1.448,2.354c0.555,1.348,0.932,2.768,1.417,4.146c0.108,0.306,0.354,0.562,0.536,0.842
		C109.205,96.156,109.157,93.853,107.026,93.364z M119.614,40.099c-0.072,0.079-0.146,0.159-0.218,0.238
		c0.437,0.377,0.854,0.781,1.315,1.126c0.851,0.638,1.79,1.139,2.062,2.345c0.083,0.367,0.72,0.608,1.104,0.907
		c0.122-0.14,0.244-0.279,0.365-0.419c-0.657-0.791-1.238-1.667-1.994-2.349C121.458,41.234,120.5,40.707,119.614,40.099z
		 M69.697,108.851c0.962-2.047-0.149-6.492-1.713-6.926C69.827,103.961,69.372,106.504,69.697,108.851z M41.782,52.038
		c-1.301-0.852-2.796-1.83-4.291-2.808c-0.04,0.064-0.08,0.128-0.12,0.191c1.816,1.345,3.631,2.689,5.447,4.034
		c-0.729-0.994,0.501-1.02,0.827-1.492c-0.05-0.125-0.1-0.249-0.149-0.374C43.023,51.713,42.551,51.836,41.782,52.038z
		 M22.128,87.139c0.057,0.095,0.113,0.189,0.17,0.284c0.151-0.022,0.321-0.007,0.451-0.071c1.778-0.885,3.556-1.771,5.315-2.691
		c0.179-0.094,0.242-0.409,0.358-0.622c-0.251-0.038-0.568-0.195-0.742-0.098C25.817,84.983,23.976,86.066,22.128,87.139z
		 M118.42,103.795c1.865-1.969,4.114-3.635,5.138-6.266C121.845,99.618,120.133,101.707,118.42,103.795z M67.549,38.128
		c-0.372,1.229-0.629,2.509-1.148,3.671c-0.512,1.147-1.29,2.175-1.952,3.255C66.689,43.302,67.389,40.837,67.549,38.128z
		 M130.412,84.161c-0.983-0.111-1.594-0.227-2.205-0.228c-0.262,0-0.666,0.18-0.747,0.382c-0.084,0.207,0.068,0.697,0.254,0.79
		c0.434,0.217,1.018,0.471,1.413,0.335C129.572,85.287,129.877,84.725,130.412,84.161z M25.96,89.25
		c0.083,0.105,0.167,0.211,0.251,0.316c1.586-1.146,3.172-2.293,4.758-3.439c-0.097-0.182-0.193-0.362-0.291-0.544
		c-0.366,0.153-0.796,0.23-1.082,0.478c-0.484,0.417-0.832,0.991-1.316,1.407C27.542,88.103,26.737,88.659,25.96,89.25z
		 M97.271,51.263c1.417-0.414,4.015-4.715,4.345-6.382C100.271,46.858,98.75,49.092,97.271,51.263z M44.367,100.069
		c0.131,0.1,0.263,0.2,0.394,0.3c0.616-0.808,1.175-1.67,1.871-2.403c0.402-0.424,1.023-0.642,1.602-0.984
		c-0.328-0.718-0.533-0.854-1.136-0.22C46.114,97.794,45.27,98.96,44.367,100.069z M22.692,78.127
		c0.097-0.027,0.193-0.055,0.29-0.082c0.034-0.377,0.001-0.777,0.12-1.125c0.123-0.36,0.451-0.65,0.582-1.01
		c0.091-0.251,0.021-0.572-0.03-0.853c-0.007-0.036-0.466-0.071-0.493-0.011c-0.312,0.719-0.635,1.441-0.831,2.196
		C22.266,77.489,22.562,77.83,22.692,78.127z M42.714,98.742c0.14,0.076,0.281,0.153,0.421,0.23c0.371-1.097,1.54-1.756,1.508-3.066
		C44,96.852,43.357,97.797,42.714,98.742z M87.633,106.836c-1.454-0.503-2.197,0.047-2.995,1.076
		C85.674,107.54,86.502,107.242,87.633,106.836z M80.698,108.241c0.004,0.12,0.007,0.241,0.011,0.361
		c0.449,0.045,0.908,0.163,1.345,0.106c0.228-0.029,0.415-0.366,0.621-0.564c-0.26-0.1-0.532-0.305-0.777-0.277
		C81.489,107.914,81.098,108.108,80.698,108.241z"/>
	<path fill-rule="evenodd" clip-rule="evenodd" d="M83.188,46.569c0.301-1.36,0.548-2.477,0.821-3.713
		c-0.522-0.067-1.003-0.129-1.482-0.191c-0.012-0.128-0.022-0.255-0.034-0.383c0.538-0.034,1.075-0.067,1.706-0.106
		c0.148-0.834,0.31-1.743,0.472-2.651c0.115,0.016,0.231,0.033,0.347,0.049c-0.393,2.354-0.786,4.708-1.197,7.169
		c0.974,0.381,1.917,0.772,2.876,1.121c1.57,0.57,3.188,1.025,4.714,1.691c1.306,0.57,2.541,1.32,3.756,2.074
		c1.801,1.117,3.548,2.319,5.331,3.462c1.293,0.828,2.555,1.727,3.924,2.405c3.014,1.494,5.247,3.995,7.903,5.946
		c1.709,1.255,3.26,2.736,4.807,4.195c0.747,0.704,1.356,1.564,1.967,2.399c0.888,1.214,1.778,2.383,3.618,2.242
		c-0.401,1.536,0.638,1.882,1.469,2.362c0.29-0.677,0.562-1.312,0.836-1.947c0.131,0.053,0.263,0.104,0.394,0.157
		c-0.163,0.732-0.327,1.466-0.508,2.276c1.583,0.486,1.901,2.798,4.044,2.753c-0.066-0.401-0.124-0.745-0.184-1.104
		c1.211-0.031,1.721,0.634,1.999,1.633c0.319,1.141-0.279,1.787-1.24,2.661c0.632,0.188,1.264,0.375,2.059,0.61
		c-0.399,0.277-0.816,0.566-1.326,0.92c0.221,0.131,0.447,0.202,0.57,0.355c0.128,0.158,0.156,0.396,0.228,0.601
		c-0.216,0.037-0.484,0.174-0.638,0.093c-0.609-0.321-1.144-0.853-1.782-1.028c-0.467-0.129-1.111,0.066-1.575,0.312
		c-0.878,0.462-1.683,1.063-2.517,1.607c-0.151-0.182-0.302-0.364-0.453-0.546c0.429-0.162,0.857-0.323,1.286-0.485
		c-0.117-0.139-0.234-0.277-0.352-0.416c-1.159,0.148-2.149,0.596-2.732,1.735c-1.836-0.655-3.498,0.222-5.068,0.817
		c-2.654,1.009-5.146,2.44-7.761,3.567c-1.264,0.544-2.688,0.705-3.976,1.204c-2.798,1.087-5.692,1.866-8.336,3.44
		c-1.995,1.188-4.404,1.674-6.614,2.51c-0.77,0.291-1.474,0.755-2.244,1.039c-2,0.736-3.978,1.619-6.046,2.071
		c-2.931,0.642-5.925,1.045-8.911,1.375c-3.446,0.383-6.655-0.962-9.967-1.592c-3.145-0.598-6.35-0.879-9.52-1.349
		c-1.016-0.15-2.093-0.286-2.997-0.728c-3.75-1.829-7.5-3.677-11.141-5.712c-2.069-1.156-3.967-2.638-5.872-4.067
		c-1.573-1.182-3.159-2.388-4.521-3.795c-1.055-1.091-1.859-2.459-2.607-3.798c-0.472-0.844-0.988-0.882-1.751-0.626
		c-2.513,0.841-5.031,1.668-7.699,2.347c0.328-0.206,0.633-0.475,0.988-0.609c2.475-0.936,4.96-1.844,7.39-2.741
		c0.043-0.171,0.09-0.252,0.078-0.322c-0.191-1.096-0.047-2.527-0.692-3.181c-0.549-0.558-2.021-0.132-3.058-0.303
		c-1.116-0.185-2.202-0.557-3.3-0.847c0.02-0.114,0.04-0.229,0.06-0.342c1.789,0.309,3.578,0.617,5.438,0.938
		c-0.178-1.01-0.259-1.739-0.458-2.436c-0.063-0.221-0.416-0.417-0.678-0.516c-1.961-0.742-3.934-1.457-5.902-2.181
		c0.028-0.101,0.056-0.202,0.083-0.303c0.361,0.074,0.735,0.108,1.081,0.228c1.351,0.47,2.691,0.969,4.037,1.452
		c0.187,0.067,0.476,0.213,0.561,0.14c0.752-0.645,1.597-1.244,2.144-2.042c0.279-0.407,0.004-1.194-0.023-1.893
		c0.24,0.056,0.76,0.227,1.292,0.285c0.52,0.057,1.164,0.188,1.559-0.045c1.957-1.15,3.849-2.409,5.979-3.768
		c-0.653-0.387-0.954-0.553-1.243-0.737c-1.728-1.1-3.77-1.921-5.083-3.393c-1.14-1.278-2.802-1.512-3.871-2.667
		c1.907,0.555,3.761,1.364,5.682,1.58c1.9,0.213,3.935,1.004,6.108-0.215c-0.704-0.39-1.164-0.644-1.624-0.898
		c0.033-0.087,0.065-0.174,0.098-0.262c0.634,0.24,1.268,0.479,1.902,0.719c0.065-0.124,0.129-0.249,0.194-0.373
		c-1.224-0.693-2.448-1.387-3.607-2.044c0.66-0.238,1.416-0.107,2.31,0.627c1.004,0.826,1.959,1.717,2.873,2.642
		c0.133,0.134-0.084,0.613-0.177,1.156c0.264,0.254,0.625,0.469,1.15-0.185c0.74-0.921,1.577-1.764,2.377-2.636
		c0.13-0.143,0.266-0.297,0.432-0.388c0.828-0.454,1.637-1.172,2.509-1.265c1.338-0.143,2.242-0.894,3.35-1.43
		c3.138-1.519,6.484-2.606,9.748-3.865c1.632-0.629,3.223-1.42,4.907-1.847c1.979-0.502,4.033-0.73,6.065-1.002
		c2.163-0.289,4.333-0.627,6.507-0.684c1.714-0.045,3.437,0.324,5.159,0.474C80.787,46.455,81.973,46.498,83.188,46.569z
		 M37.778,84.004c0.492,0.336,0.931,0.658,1.392,0.944c1.547,0.961,3.168,1.818,4.642,2.88c2.573,1.855,5.333,3.301,8.365,4.215
		c1.322,0.398,2.7,0.619,4.008,1.054c1.682,0.56,3.284,1.382,4.985,1.855c2.029,0.565,4.111,1.034,6.2,1.271
		c3.259,0.371,6.547,0.725,9.818,0.682c2.362-0.03,4.733-0.631,7.069-1.128c3.5-0.744,7.029-1.436,10.439-2.493
		c3.072-0.953,6.002-2.368,8.916-3.548c-0.122-0.507-0.213-0.891-0.305-1.273c0.516-0.054,1.032-0.107,1.623-0.169
		c-0.189-0.315-0.376-0.626-0.622-1.037c0.391-0.148,0.693-0.264,1.043-0.397c0.072,0.457,0.122,0.774,0.193,1.227
		c0.613-0.406,1.094-0.724,1.691-1.119c-0.605-0.88-1.132-1.646-1.658-2.412c0.044-0.054,0.087-0.107,0.131-0.161
		c0.824,0.693,1.647,1.387,2.493,2.099c0.218-0.166,0.39-0.342,0.597-0.447c1.028-0.523,1.398-1.697,2.752-2.091
		c2.123-0.618,4.014-1.997,6.07-2.901c0.836-0.367,0.978-0.826,0.829-1.562c-0.062-0.308-0.29-0.61-0.267-0.9
		c0.148-1.805,0.299-3.612,0.571-5.4c0.053-0.347,0.646-0.611,1.111-1.021c-1.663-1.909-3.251-3.994-5.112-5.795
		c-1.934-1.871-4.129-3.471-6.216-5.183c-0.946-0.776-1.853-1.619-2.875-2.28c-1.19-0.77-2.508-1.34-3.734-2.058
		c-1.225-0.716-2.437-1.463-3.6-2.274c-1.453-1.014-2.804-2.181-4.291-3.138c-0.91-0.586-1.981-0.936-3.002-1.334
		c-1.627-0.635-3.261-1.26-4.916-1.816c-1.069-0.359-2.249-0.957-3.259-0.776c-1.169,0.209-2.134,0.056-3.228-0.188
		c-1.188-0.265-2.471-0.394-3.671-0.245c-1.508,0.187-2.952,0.861-4.46,1.066c-3.129,0.427-6.281,0.681-9.423,1.014
		c-0.744,0.079-1.521,0.074-2.221,0.298c-2.568,0.821-5.145,1.636-7.655,2.613c-5.151,2.006-9.823,4.848-14.076,8.382
		c-0.724,0.602-1.486,1.16-2.367,1.844c0.44,0.144,0.67,0.22,0.747,0.245c-1.033,2.33-4.282,3.03-4.475,6.402
		c3.301-1.239,6.363-2.388,9.426-3.538c-1.989,1.117-4.08,1.958-6.165,2.817c-1.064,0.438-2.138,0.868-3.161,1.391
		c-0.289,0.148-0.416,0.614-0.616,0.934c0.272,0.144,0.547,0.284,0.818,0.431c0.241,0.13,0.477,0.268,1.014,0.572
		c-0.64,0.059-0.907,0.11-1.172,0.104c-0.91-0.024-1.146,0.549-1.213,1.306c-0.067,0.761,0.204,1.134,1.01,1.322
		c0.649,0.151,1.219,0.645,1.824,0.986c-0.084,0.149-0.167,0.299-0.251,0.448c-0.453-0.245-0.89-0.531-1.366-0.72
		c-0.257-0.102-0.606-0.106-0.865-0.016c-0.15,0.053-0.343,0.469-0.278,0.573c0.439,0.707,0.464,1.75,1.815,1.658
		c1.092-0.074,2.214,0.304,3.323,0.48c-0.025,0.141-0.051,0.281-0.076,0.423c-0.89-0.134-1.784-0.387-2.667-0.349
		c-0.417,0.019-1.205,0.781-1.156,0.885c0.629,1.306,1.064,2.753,2.845,3.143c1.129,0.247,2.162,0.937,3.35,1.478
		C38.218,83.541,38.047,83.721,37.778,84.004z M26.948,76.901c-0.192,0.465-0.299,0.595-0.27,0.673
		c1.007,2.681,2.541,5.053,4.649,6.956c1.35,1.219,2.977,2.135,4.498,3.157c1.576,1.061,3.108,2.211,4.776,3.103
		c3.51,1.876,7.09,3.622,10.657,5.391c0.704,0.349,1.458,0.682,2.223,0.802c1.877,0.293,3.781,0.415,5.663,0.686
		c1.969,0.283,3.949,0.557,5.881,1.017c3.131,0.744,6.188,1.583,9.505,1.166c4.15-0.522,8.271-1.08,12.211-2.536
		c1.001-0.369,1.926-0.941,2.886-1.42c-1.068-0.088-2.024,0.1-2.983,0.273c-2.504,0.454-4.995,1.039-7.52,1.317
		c-2.955,0.325-5.928,0.541-8.905-0.098c-3.36-0.721-6.788-1.146-10.122-1.962c-2.366-0.579-4.617-1.615-6.937-2.396
		c-0.711-0.24-1.515-0.22-2.215-0.481c-3.644-1.363-6.828-3.57-10.104-5.605c-1.431-0.89-2.878-1.752-4.294-2.664
		c-2.05-1.32-4.162-2.556-6.006-4.171C29.393,79.101,28.261,78.074,26.948,76.901z M34.374,64.322
		c-0.17-0.125-0.34-0.25-0.509-0.375c-1.618,1.44-3.249,2.867-4.839,4.337c-0.203,0.187-0.115,0.663-0.299,0.898
		c-0.727,0.928-1.646,1.734-2.222,2.741c-0.389,0.68-0.604,1.695-0.408,2.432c0.674,2.547,3.21,3.237,4.894,4.791
		c0.133-0.11,0.267-0.221,0.4-0.331c-0.303-0.429-0.606-0.857-0.97-1.371c0.58-1.002,0.58-1.002-2.195-2.54
		c0.646-0.282,1.109-0.461,1.547-0.688c0.215-0.111,0.536-0.311,0.538-0.473c0.003-0.26-0.165-0.582-0.363-0.766
		c-0.203-0.188-0.53-0.239-0.803-0.351c0.02-0.109,0.04-0.219,0.06-0.329c0.383,0.024,0.767,0.049,1.259,0.08
		C30.995,69.393,31.255,66.207,34.374,64.322z M119.527,80.319c0.92,0.151,1.313-0.133,0.971-1.092
		c-0.175-0.489-0.462-0.971-0.496-1.47c-0.045-0.655,0.109-1.324,0.178-1.987c0.119,0.015,0.238,0.029,0.357,0.044
		c1.014,1.947,2.119,3.872,1.045,6.461c0.805-0.26,1.189-0.384,1.574-0.509c-0.128-0.07-0.256-0.142-0.384-0.213
		c0.273-1.177,0.272-2.531,0.889-3.487c0.812-1.259,0.042-2.196-0.442-2.858c-0.739-1.007-1.986-1.642-3.179-2.559
		C118.796,75.178,118.715,77.646,119.527,80.319z M27.623,58.354c2.115,1.479,4.326,2.604,7.088,1.851
		c-0.696,1.043-1.659,1.154-2.854,0.925c0.631,0.536,1.489,1.314,1.978,1.127c1.294-0.494,2.428-1.406,3.728-2.214
		C35.984,59.068,29.841,57.998,27.623,58.354z M110.823,85.835c0.65-0.159,1.038-0.213,1.396-0.348
		c2.117-0.802,4.222-1.635,6.342-2.428c0.566-0.211,1.167-0.469,0.76-1.117c-0.172-0.273-0.957-0.351-1.388-0.236
		c-1.049,0.28-2.076,0.673-3.069,1.114C113.393,83.474,112.002,84.264,110.823,85.835z M116.024,85.338
		c-0.067-0.165-0.135-0.33-0.201-0.494c-1.986,0.689-3.973,1.38-5.959,2.069c-0.086-0.234-0.153-0.415-0.188-0.513
		c-1.634,0.972-3.177,1.89-4.719,2.807c0.059,0.098,0.116,0.196,0.175,0.294C109.112,88.974,112.201,86.253,116.024,85.338z
		 M62.138,48.378c3.695,0.464,7.154-0.889,10.745-1.171C71.545,46.455,63.307,47.392,62.138,48.378z M126.787,78.82
		c-0.546,0.172-1.056,0.528-1.418,0.414c-1.625-0.512,0.264-1.512-0.191-2.254c-1.491,0.964-1.151,2.371-1.002,3.708
		C126.739,80.131,127.223,79.768,126.787,78.82z M117.106,84.183c0.054,0.135,0.107,0.271,0.161,0.405
		c3.072-0.534,3.599-0.737,4.04-1.752C119.8,83.319,118.453,83.751,117.106,84.183z"/>
	<path fill-rule="evenodd" clip-rule="evenodd" d="M40.228,33.577c0.243-0.49,0.486-0.98,0.729-1.47
		c-0.079-0.069-0.159-0.138-0.238-0.207c-2.925,1.375-4.615,4.189-6.862,6.354c-0.085-0.051-0.17-0.103-0.256-0.154
		c0.057-0.221,0.043-0.513,0.183-0.651c2.061-2.043,3.931-4.357,6.261-6.032c4.632-3.328,9.347-6.601,14.99-8.149
		c2.757-0.756,5.459-1.715,8.184-2.589c0.259-0.083,0.671-0.165,0.726-0.338c0.352-1.107,1.314-0.875,2.083-0.989
		c4.535-0.67,9.059-0.48,13.615-0.043c3.108,0.298,6.232,0.495,9.142,1.613c3.816,1.466,7.54,3.181,11.271,4.862
		c1.921,0.865,3.822,1.799,5.641,2.86c3.735,2.178,7.404,4.471,11.111,6.699c1.89,1.135,3.535,2.511,4.893,4.643
		c-0.405-0.131-0.591-0.133-0.645-0.217c-1.627-2.588-4.24-3.912-6.784-5.331c-0.766-0.427-1.447-1.021-2.238-1.383
		c-1.816-0.832-3.694-1.532-5.508-2.37c-0.499-0.23-0.86-0.756-1.284-1.146c-0.129,0.103-0.258,0.206-0.387,0.309
		c0.242,0.356,0.405,0.844,0.74,1.045c1.117,0.669,2.316,1.203,3.443,1.857c0.605,0.352,1.139,0.833,1.687,1.279
		c0.454,0.37,0.882,0.774,1.321,1.163c-0.057,0.08-0.112,0.159-0.168,0.239c-1.033-0.785-2.066-1.57-3.1-2.354
		c-0.127,0.15-0.255,0.3-0.383,0.451c2.875,2.954,5.75,5.907,8.624,8.861c-0.056,0.043-0.112,0.086-0.169,0.129
		c-1.104-0.972-2.191-1.965-3.322-2.906c-0.453-0.377-1.076-0.563-1.488-0.972c-0.593-0.587-1.071-1.292-1.583-1.959
		c-0.167-0.218-0.249-0.505-0.43-0.706c-0.835-0.931-1.597-1.964-2.569-2.725c-0.844-0.661-1.935-1.007-3.025-1.545
		c0.469-1.899-1.547-2.025-2.525-2.796c-1.543-1.216-3.394-2.07-5.183-2.934c-1.59-0.767-3.251-1.401-4.92-1.981
		c-2.233-0.777-4.502-1.452-6.761-2.156c-0.456-0.142-0.93-0.286-1.4-0.311c-3.447-0.182-6.912-0.19-10.338-0.557
		c-1.619-0.173-3.183-0.275-4.717,0.145c-4.39,1.2-8.751,2.506-13.133,3.737c-0.684,0.192-1.512,0.026-2.106,0.341
		c-0.892,0.473-1.587,1.304-2.456,1.838c-1.251,0.771-2.595,1.39-3.877,2.113c-2.214,1.25-4.485,2.424-6.158,4.431
		c-0.085,0.103-0.262,0.129-0.396,0.191C40.383,33.7,40.305,33.639,40.228,33.577z M71.858,19.283
		c0.914,0.992,2.382,1.123,3.555,0.375C74.173,19.527,73.166,19.421,71.858,19.283z M100.655,27.443
		c0.102-0.157,0.202-0.313,0.304-0.47c-0.894-0.519-1.787-1.037-2.681-1.556c-0.087,0.142-0.173,0.284-0.259,0.426
		C98.897,26.376,99.776,26.91,100.655,27.443z M84.952,20.572c0.872,1.093,2.188,1.377,3.242,0.772
		C87.083,21.08,86.171,20.862,84.952,20.572z M80.713,19.87c0.964,0.982,1.984,1.114,2.889,0.477
		C82.5,20.165,81.606,20.018,80.713,19.87z"/>
	<path fill-rule="evenodd" clip-rule="evenodd" d="M121.141,58.401c-1.246,1.529-2.492,3.059-3.825,4.695
		c2.236,0.433,3.934-0.61,5.705-1.198c1.746-0.579,3.427-1.358,5.239-1.891c-1.191,0.594-2.393,1.169-3.565,1.796
		c-0.231,0.123-0.356,0.443-0.53,0.673c0.097,0.116,0.193,0.232,0.291,0.348c-2.471,0.852-4.941,1.704-7.233,2.495
		c-0.689-0.345-1.2-0.6-1.71-0.856c-0.105,0.066-0.21,0.131-0.314,0.197c-0.145-0.837-0.289-1.674-0.478-2.77
		c-0.152-0.14-0.555-0.509-0.957-0.877c0.05-0.079,0.101-0.158,0.151-0.237c0.868,0.167,1.737,0.333,2.647,0.507
		c0.894-1.626,1.765-3.21,2.636-4.793c-0.089-0.09-0.177-0.18-0.265-0.27c-1.795,1.202-3.59,2.405-5.385,3.607
		c-0.103-0.168-0.205-0.336-0.308-0.505c2.667-1.7,5.335-3.4,8.002-5.1c-2.44,2.128-2.553,5.582-4.561,7.941
		c1.458-1.276,2.916-2.553,4.374-3.829C121.084,58.357,121.112,58.379,121.141,58.401z"/>
	<path fill-rule="evenodd" clip-rule="evenodd" d="M60.581,113.437c-0.04-0.537-0.158-1.081-0.102-1.607
		c0.124-1.181,0.227-2.302-1.485-2.686c2.131-0.069,1.647-1.633,1.878-2.737c0.3-1.437,0.599-2.875,0.817-4.325
		c0.103-0.683,0.018-1.394,0.018-2.24c0.731-0.339,1.088,0.166,0.986,0.988c-0.126,1.022-0.445,2.02-0.662,3.032
		c-0.291,1.359-0.553,2.725-0.848,4.082c-0.146,0.671,0.046,1.087,0.759,1.203c0.194,0.031,0.381,0.133,0.574,0.141
		c3.303,0.127,6.606,0.271,9.911,0.343c0.654,0.015,1.315-0.252,2.223-0.44c-0.51-2.41-1.01-4.771-1.566-7.398
		c0.405,0.508,0.913,0.881,1.04,1.355c0.358,1.339,0.606,2.712,0.813,4.083c0.285,1.894,1.064,3.491,2.539,4.733
		c0.102,0.086,0.153,0.229,0.229,0.345c-0.074,0.081-0.146,0.161-0.221,0.241c-0.447-0.39-1.071-0.693-1.309-1.185
		c-0.698-1.446-1.998-1.237-3.17-1.273c-1.827-0.057-3.658,0.067-5.486,0.021c-1.861-0.048-3.723-0.166-5.576-0.343
		c-0.698-0.066-1.002,0.156-1.022,0.79c-0.03,0.952-0.008,1.906-0.008,2.859C60.802,113.424,60.691,113.43,60.581,113.437z"/>
	<path fill-rule="evenodd" clip-rule="evenodd" d="M51.114,40.109c0,1.997,0,3.995,0,6.048c0.591-0.376,1.176-0.749,1.892-1.205
		c-0.143-2.026-0.271-4.209-0.465-6.385c-0.078-0.868,0.129-1.219,0.756-1.014c-0.037,1.148-0.153,2.161-0.084,3.16
		c0.15,2.145,0.437,4.28,0.575,6.425c0.035,0.544-0.274,1.111-0.426,1.667c-0.127-0.029-0.254-0.057-0.381-0.086
		c0.081-0.833,0.163-1.665,0.262-2.684c-0.881,0.282-1.59,0.509-2.315,0.741c-0.428,0.991-0.887,2.051-1.345,3.111
		c-0.105-0.04-0.21-0.08-0.314-0.12c0.078-0.398,0.156-0.795,0.238-1.21c-0.536-0.049-1.023-0.094-1.667-0.153
		c0.272,0.375,0.476,0.656,0.691,0.953c-0.71,0.182-1.789-0.497-2.583-1.579c-1.614-2.199-1.938-5.878-0.653-7.91
		c0.048,0.126,0.131,0.23,0.107,0.3c-0.862,2.59,0.498,6.044,2.966,7.512c0.282-0.247,0.538-0.658,0.852-0.708
		c1.245-0.201,1.477-1.069,1.521-2.086c0.052-1.184,0.054-2.37,0.107-3.554c0.019-0.416,0.124-0.829,0.188-1.243
		C51.062,40.097,51.088,40.103,51.114,40.109z"/>
	<path fill-rule="evenodd" clip-rule="evenodd" d="M108.56,57.64c-0.242,0.293-0.43,0.521-0.617,0.747
		c-0.123-0.021-0.246-0.042-0.369-0.062c0.062-0.695,0.125-1.391,0.198-2.207c-0.287,0.022-0.561,0.044-0.835,0.065
		c0.068-0.08,0.136-0.161,0.204-0.241c-0.617-0.686-1.233-1.371-1.85-2.057c0.052-0.083,0.104-0.167,0.155-0.25
		c0.329,0.134,0.667,0.25,0.985,0.405c1.336,0.651,1.701,0.516,2.184-0.92c0.606-1.804,1.148-3.631,1.783-5.426
		c0.246-0.697,0.667-1.332,1.239-1.9c-0.417,1.137-0.899,2.254-1.238,3.415c-0.646,2.211-1.217,4.446-1.803,6.675
		c-0.126,0.48,1.083,1.813,1.765,2.033c0.25,0.081,0.47,0.257,0.927,0.517c0.942-0.687,1.475-1.954,2.005-3.206
		c1.301-3.066,2.547-6.156,3.881-9.207c0.285-0.652,0.852-1.182,1.392-1.697c-2.246,3.155-3.387,6.763-4.505,10.394
		c-0.528,1.715-1.265,3.35-2.727,4.535c-0.663,0.538-1.078,0.733-1.438-0.346C109.728,58.403,109.04,58.074,108.56,57.64z"/>
	<path fill-rule="evenodd" clip-rule="evenodd" d="M98.247,37.055c-1.127,2.422-2.53,5.439-3.935,8.458
		c0.645,0.37,0.979,0.562,1.295,0.743c-0.617,0.438-1.235,0.717-1.611,1.189c-0.373,0.469-0.503,1.131-0.845,1.965
		c-0.906-1.391,1.213-2.473-0.321-3.53c1.596-0.384,1.659-1.615,2.016-2.667c-0.092-0.067-0.183-0.134-0.274-0.201
		c-0.642,0.778-1.27,1.569-1.931,2.331c-0.652,0.751-1.313,1.5-2.031,2.189c-0.179,0.172-0.586,0.106-0.889,0.15
		c0.111-0.344,0.134-0.774,0.359-1.008c0.237-0.247,0.67-0.306,1.071-0.469c-0.848-1.454-1.876-0.801-2.854-0.493
		c1.511-1.995,3.022-3.99,4.533-5.985c0.062,0.041,0.123,0.081,0.184,0.121c-0.91,1.453-1.821,2.906-2.764,4.411
		c0.551,0.438,1.03,0.818,1.758,1.396C94.239,42.579,96.438,39.549,98.247,37.055z"/>
	<path fill-rule="evenodd" clip-rule="evenodd" d="M88.639,106.592c0.678,0,1.356,0,2.034,0c0.027,0.102,0.054,0.203,0.081,0.305
		c-0.322,0.146-0.646,0.419-0.968,0.416c-1.08-0.008-1.045,0.562-0.97,1.4c0.206,2.309,0.464,4.58,1.987,6.498
		c-0.071,0.069-0.142,0.139-0.212,0.207c-0.256-0.2-0.645-0.35-0.744-0.61c-0.535-1.396-1.112-2.792-1.45-4.241
		c-0.305-1.304-0.213-2.698-0.506-4.006c-0.168-0.748-0.684-1.46-1.177-2.081c-0.399-0.503-1-0.847-1.511-1.261
		c0.121-0.126,0.242-0.251,0.363-0.376c0.535,0.464,1.071,0.928,1.606,1.391c0.107-0.061,0.214-0.121,0.321-0.182
		c-0.415-0.961-0.829-1.922-1.275-2.954c1.057,0.141,1.392,1.002,1.658,1.827c0.275,0.855,0.401,1.759,0.659,2.948
		c1.079-0.76,1.961-1.428,2.896-2.008c0.243-0.15,0.655-0.028,0.99-0.031c-0.203,0.278-0.39,0.57-0.615,0.829
		c-0.119,0.136-0.391,0.181-0.446,0.324c-0.33,0.851-1.021,0.876-1.772,0.899c-0.348,0.011-0.688,0.23-1.031,0.355
		C88.585,106.358,88.611,106.476,88.639,106.592z"/>
	<path fill-rule="evenodd" clip-rule="evenodd" d="M89.137,98.215c0.271,0.218,0.562,0.412,0.808,0.655
		c1.181,1.172,2.353,2.352,3.514,3.543c0.16,0.164,0.203,0.449,0.371,0.6c0.296,0.265,0.695,0.695,0.961,0.639
		c0.332-0.072,0.574-0.565,0.854-0.877c-0.34-0.19-0.682-0.378-1.021-0.572c-0.066-0.039-0.117-0.104-0.119-0.106
		c0.952-2.188-1.225-2.061-2.27-2.961c2.167-0.608,2.783,1.507,4.274,2.022c-0.746,0.824-0.304,1.222,0.209,1.338
		c0.061,1.375,0.096,2.614,0.178,3.85c0.066,1.012,0.189,2.019,0.287,3.028c-0.135,0.02-0.27,0.04-0.404,0.061
		c-0.082-0.594-0.069-1.223-0.27-1.773c-0.21-0.574-0.555-1.135-0.961-1.595c-2.096-2.376-4.233-4.715-6.346-7.075
		c-0.136-0.151-0.188-0.377-0.278-0.568C88.995,98.353,89.065,98.284,89.137,98.215z M95.955,103.486
		c-0.474,0.496-0.915,0.821-0.867,0.932c0.233,0.528,0.599,0.998,0.917,1.489c0.118-0.055,0.237-0.109,0.356-0.163
		C96.25,105.126,96.139,104.509,95.955,103.486z"/>
	<path fill-rule="evenodd" clip-rule="evenodd" d="M104.885,103.939c-0.706-0.751-1.417-1.495-2.112-2.255
		c-0.215-0.234-0.345-0.558-0.583-0.754c-0.267-0.22-0.613-0.343-0.926-0.507c0.054,0.338,0.018,0.728,0.179,1.004
		c0.538,0.927,1.206,1.781,1.707,2.726c0.303,0.572,0.39,1.259,0.377,1.979c-1.423-3.697-4.07-6.312-7.147-8.575
		c0.041-0.093,0.083-0.187,0.125-0.28c0.44,0.164,0.932,0.251,1.312,0.506c0.997,0.671,0.978,0.699,2.222,0.28
		c-0.223-0.503-0.443-1.003-0.665-1.504c0.117-0.088,0.233-0.175,0.351-0.263c0.517,0.431,1.033,0.861,1.551,1.292
		c-0.104,0.055-0.209,0.108-0.312,0.163c0.407-0.131,0.814-0.262,1.223-0.392c0.057,0.139,0.112,0.278,0.169,0.417
		c-0.308,0.2-0.616,0.4-1.115,0.725c1.29,1.759,2.574,3.507,3.857,5.256C105.024,103.817,104.954,103.878,104.885,103.939z
		 M100.51,100.261c0.797-0.71,0.797-0.71-0.147-1.759C99.459,99.112,99.459,99.112,100.51,100.261z"/>
	<path fill-rule="evenodd" clip-rule="evenodd" d="M52.862,99.98c-1.911,2.046-0.263,4.113-0.133,6.146
		c1.046,0.485,2.13,0.989,3.299,1.531c1.073-3.09-0.937-5.632-0.918-8.382c1.109,2.799,2.354,5.561,1.552,8.608
		c0.7,0.078,1.196,0.134,1.692,0.188c0.003,0.153,0.007,0.306,0.011,0.458c-0.786,0.093-1.572,0.186-2.263,0.267
		c-1.566-1.83-3.922-1.891-5.847-2.805c0.028-0.121,0.057-0.242,0.085-0.364c0.567,0.126,1.133,0.251,1.913,0.423
		c-0.302-1.158-0.647-2.216-0.841-3.3C51.199,101.556,51.673,100.598,52.862,99.98z"/>
	<path fill-rule="evenodd" clip-rule="evenodd" d="M47.172,50.786c-0.387,1.04-1.051,1.329-2.187,0.923
		c-2.675-0.957-4.741-2.684-6.345-5.04c1.931,1.754,3.644,3.855,6.562,4.114c-2.032-1.875-4.271-3.574-5.218-6.311
		c0.994-0.207,1.751,0.309,2.103,1.779c0.319,1.332,1.166,2.107,2.213,2.793c0.649,0.425,1.289,0.852,1.956-0.101
		C46.58,49.594,46.84,50.119,47.172,50.786z"/>
	<path fill-rule="evenodd" clip-rule="evenodd" d="M41.042,112.536c-0.778-2.146,0.052-4.049,0.894-5.923
		c0.405-0.902,0.944-1.752,1.497-2.577c0.386-0.576,0.303-0.945-0.146-1.455c-0.629-0.712-1.129-1.54-1.851-2.299
		c0.464,0.329,1.037,0.574,1.372,1.005c0.896,1.153,1.395,1.222,2.408,0.16c0.99-1.038,1.981-2.075,2.988-3.098
		c0.18-0.183,0.438-0.289,0.833-0.257c-1.321,1.467-2.643,2.935-4.094,4.546c0.604,0.282,1.014,0.417,1.351,0.654
		c0.18,0.127,0.235,0.433,0.346,0.657c-0.238,0.045-0.579,0.215-0.699,0.116c-1.594-1.312-1.983,0.152-2.564,1.103
		C41.997,107.427,40.955,109.8,41.042,112.536z"/>
	<path fill-rule="evenodd" clip-rule="evenodd" d="M57.137,47.272c-0.051-0.639-0.042-1.29-0.179-1.909
		c-0.063-0.282-0.417-0.499-0.638-0.746c-0.263,0.34-0.737,0.678-0.741,1.021c-0.005,0.549,0.302,1.101,0.477,1.651
		c-0.104,0.077-0.208,0.154-0.312,0.23c-0.269-0.333-0.703-0.634-0.773-1.004c-0.172-0.909-0.24-1.85-0.233-2.776
		c0.018-2.456,0.09-4.911,0.167-7.366c0.005-0.185,0.214-0.364,0.519-0.849c0.141,1.324,0.132,2.345,0.374,3.302
		c0.545,2.156,1.257,4.271,1.806,6.426c0.161,0.634-0.001,1.35-0.015,2.028C57.437,47.278,57.287,47.274,57.137,47.272z
		 M55.596,40.38c-0.809,2.548-0.439,3.524,1.188,3.704C56.413,42.927,56.046,41.782,55.596,40.38z"/>
	<path fill-rule="evenodd" clip-rule="evenodd" d="M81.558,31.366c-0.359,2.35-0.201,4.518,0.031,6.687
		c0.207,1.936,0.631,3.889-0.345,5.745c-0.175,0.331-0.494,0.586-0.979,0.8c2.122-3.743,0.09-7.582,0.753-11.316
		c-0.161-0.029-0.322-0.058-0.483-0.087c-0.835,3.276-1.67,6.553-2.506,9.83c-0.137-0.035-0.273-0.069-0.411-0.104
		c0.814-3.178,1.57-6.372,2.483-9.521C80.32,32.644,81.059,32.04,81.558,31.366z"/>
	<path fill-rule="evenodd" clip-rule="evenodd" d="M132.209,66.976c-3.544,0.675-7.082,1.383-10.636,2.009
		c-1.36,0.24-1.488,0.02-1.491-1.349c-0.001-0.264-0.358-0.545-0.587-0.786c-0.237-0.251-0.773-0.548-0.731-0.674
		c0.125-0.372,0.472-0.668,0.732-0.994c0.095,0.056,0.189,0.112,0.284,0.168c-0.019,0.244-0.038,0.489-0.073,0.926
		c2.712-0.768,5.322-1.507,7.933-2.247c0.034,0.061,0.068,0.122,0.103,0.183c-0.195,0.123-0.375,0.293-0.588,0.36
		c-1.665,0.521-3.375,0.926-4.985,1.578c-0.643,0.26-1.08,1.044-1.565,1.627c-0.026,0.032,0.369,0.602,0.568,0.602
		c0.791,0.001,1.59-0.079,2.372-0.211c2.888-0.489,5.77-1.011,8.653-1.521C132.201,66.757,132.205,66.866,132.209,66.976z"/>
	<path fill-rule="evenodd" clip-rule="evenodd" d="M77.643,35.374c-0.846,2.731-1.69,5.462-2.607,8.425
		c-0.115-0.445-0.207-0.787-0.293-1.131c-0.07-0.278-0.136-0.558-0.203-0.837c-0.195,0.226-0.391,0.451-0.585,0.677
		c-0.139,0.161-0.274,0.324-0.605,0.714c-0.072-1.407-0.107-2.537-0.193-3.664c-0.192-2.536-0.435-5.069-0.593-7.607
		c-0.022-0.356,0.232-0.827,0.513-1.062c0.129-0.108,0.628,0.224,1.047,0.545c-1.608-0.526-1.341,0.54-1.268,1.258
		c0.284,2.793,0.627,5.581,0.942,8.326c1.183,0.16,1.582-0.338,1.866-1.144c0.547-1.546,1.179-3.062,1.775-4.591
		C77.506,35.314,77.574,35.344,77.643,35.374z"/>
	<path fill-rule="evenodd" clip-rule="evenodd" d="M59.885,44.895c0.615-0.559,0.62-1.415-0.007-1.507
		c-0.33-0.049-0.689,0.095-1.144,0.049c0.782-0.731,0.549-1.369,0.14-2.095c-1.202-2.136-1.495-4.508-1.62-6.902
		c-0.019-0.356,0.189-0.723,0.292-1.085c0.324,0.156,0.647,0.312,0.975,0.47c-1.33,2.249-0.398,4.205,0.451,6.105
		c0.614,1.373,1.486,2.628,2.172,3.973c0.156,0.305,0.166,0.914-0.03,1.109c-0.242,0.241-0.769,0.195-1.172,0.272
		C59.923,45.155,59.904,45.025,59.885,44.895z"/>
	<path fill-rule="evenodd" clip-rule="evenodd" d="M86.107,116.238c-0.936-6.106-4.368-10.653-7.597-15.302
		C81.092,102.236,87.27,113.525,86.107,116.238z"/>
	<path fill-rule="evenodd" clip-rule="evenodd" d="M34.963,95.491c1.697,1.337,2.457-0.103,3.447-0.824
		c0.399-0.291,0.846-0.516,1.272-0.77c0.077,0.13,0.153,0.26,0.23,0.39c-0.889,0.672-1.777,1.345-2.715,2.054
		c0.722,0.97,1.066,2.149,2.525,2.333c0.435,0.055,0.784,0.79,1.041,1.48c-0.278-0.023-0.647,0.06-0.819-0.088
		c-0.825-0.709-1.698-1.4-2.359-2.25c-0.757-0.973-1.14-1.124-1.917-0.133c-0.894,1.14-1.669,2.371-2.468,3.522
		c-0.002-0.022-0.112-0.296-0.023-0.462c0.483-0.906,0.917-1.866,1.558-2.652C35.384,97.295,36.19,96.667,34.963,95.491z"/>
	<path fill-rule="evenodd" clip-rule="evenodd" d="M110.954,96.474c-1.062-1.633,0.947-3.953-1.491-5.163
		c0.082-0.097,0.164-0.193,0.246-0.29c0.523,0.211,1.047,0.422,1.569,0.633c2.055-1.433,4.159-2.901,6.264-4.369
		c0.079,0.105,0.157,0.212,0.236,0.317c-0.816,1.309-3.265,1.443-2.866,3.774c-0.204-0.337-0.409-0.674-0.589-0.97
		C111.271,91.327,111.071,93.86,110.954,96.474z"/>
	<path fill-rule="evenodd" clip-rule="evenodd" d="M22.971,96.908c-0.834-0.947-0.417-1.733,0.127-2.233
		c1.451-1.335,2.973-2.607,4.56-3.777c1.108-0.815,1.177-0.722,0.386-1.95c1.584,1.343,2.828-0.068,4.217-0.344
		c0.517-0.104,1.073-0.009,1.627,0.204c-1.323,0.792-3.266,0.108-4.002,2.022C27.755,90.269,23.114,94.186,22.971,96.908z"/>
	<path fill-rule="evenodd" clip-rule="evenodd" d="M105.15,45.401c-0.485,0.829-0.971,1.657-1.456,2.486
		c0.085,0.084,0.17,0.169,0.255,0.254c0.68-0.625,1.359-1.25,2.04-1.875c0.062,0.054,0.126,0.108,0.19,0.162
		c-0.694,0.818-1.276,2.179-2.104,2.35c-2.082,0.43-2.424,2.355-3.729,3.613c-0.137-0.366-0.231-0.623-0.354-0.955
		c-0.289,0.123-0.578,0.246-1.119,0.476c0.426-0.825,0.075-1.888,1.497-1.519c0.371,0.097,1.067-0.607,1.446-1.078
		c0.943-1.172,1.785-2.425,2.682-3.636c0.123-0.166,0.328-0.271,0.494-0.403C105.045,45.318,105.098,45.359,105.15,45.401z"/>
	<path fill-rule="evenodd" clip-rule="evenodd" d="M14.951,85.118c3.691-1.157,7.382-2.313,11.074-3.471
		c0.048,0.081,0.097,0.163,0.146,0.244c-0.273,0.26-0.541,0.524-0.821,0.775c-0.116,0.104-0.333,0.148-0.376,0.267
		c-0.108,0.298-0.144,0.622-0.208,0.936c-0.316-0.211-0.61-0.489-0.958-0.613c-0.265-0.095-0.615-0.05-0.899,0.03
		c-2.405,0.682-4.802,1.388-7.204,2.079c-0.21,0.061-0.433,0.077-0.649,0.114C15.021,85.359,14.986,85.238,14.951,85.118z"/>
	<path fill-rule="evenodd" clip-rule="evenodd" d="M109.657,47.975c-1.873,3.038-4.966,4.977-7.405,7.804
		c-0.308-0.795-0.508-1.312-0.804-2.078c0.482,0,0.945,0,1.408,0c0.035,0.132,0.069,0.265,0.104,0.397
		C105.203,52.048,107.445,49.997,109.657,47.975z"/>
	<path fill-rule="evenodd" clip-rule="evenodd" d="M101.85,38.22c-0.594,0.746-1.049,1.21-1.38,1.751
		c-1.81,2.959-3.349,6.043-4.22,9.427c-0.066,0.258-0.348,0.461-0.619,0.612C95.699,47.336,99.96,39.159,101.85,38.22z"/>
	<path fill-rule="evenodd" clip-rule="evenodd" d="M18.857,62.127c3.674,1.001,7.349,2.002,10.717,2.92
		c-0.469,0.239-1.279,0.651-2.261,1.151c-0.395-0.269-0.395-0.269,0.202-1.062c-2.889-0.891-5.808-1.792-8.727-2.692
		C18.811,62.338,18.834,62.233,18.857,62.127z"/>
	<path fill-rule="evenodd" clip-rule="evenodd" d="M29.499,64.007c0.078-0.33,0.156-0.659,0.199-0.84
		c-3.175-1.237-6.268-2.443-9.361-3.649c0.051-0.137,0.102-0.273,0.153-0.409c0.28,0.109,0.568,0.202,0.839,0.331
		c2.702,1.28,5.405,2.56,8.431,2.891c0.702,0.077,1.409,0.102,2.42,0.173c-1.036,0.738-1.743,1.242-2.449,1.747
		C29.653,64.168,29.576,64.088,29.499,64.007z"/>
	<path fill-rule="evenodd" clip-rule="evenodd" d="M69.982,41.508c-0.427,1.105-0.789,2.041-1.151,2.977
		c-0.131-0.027-0.262-0.054-0.393-0.081c0.265-3.366,0.53-6.732,0.794-10.098c0.053-0.002,0.106-0.005,0.16-0.007
		c0,1.792,0.049,3.585-0.017,5.375C69.329,40.971,69.261,40.969,69.982,41.508z"/>
	<path fill-rule="evenodd" clip-rule="evenodd" d="M107.524,102.394c-2.212-2.674-4.386-5.302-6.759-8.171
		C102.221,94.519,107.512,101.187,107.524,102.394z"/>
	<path fill-rule="evenodd" clip-rule="evenodd" d="M63.469,32.792c-0.179,2.819-0.382,5.353-0.469,7.89
		c-0.021,0.601,0.351,1.216,0.588,1.969c-0.181,0.435-0.468,1.127-0.755,1.819c-0.105-0.02-0.21-0.039-0.315-0.059
		C62.456,40.594,62.272,36.768,63.469,32.792z"/>
	<path fill-rule="evenodd" clip-rule="evenodd" d="M86.402,44.564c-0.077-3.255,0.986-6.356,1.888-9.491
		c0.101,0.019,0.202,0.039,0.303,0.058c-0.14,0.566-0.282,1.132-0.418,1.699c-0.139,0.581-0.273,1.162-0.404,1.745
		c-0.148,0.661-0.332,1.317-0.427,1.986c-0.175,1.232-0.823,2.587,0.985,3.37C87.574,44.179,87.052,44.351,86.402,44.564z"/>
	<path fill-rule="evenodd" clip-rule="evenodd" d="M31.709,46.26c1.498,1.913,2.946,3.868,4.516,5.719
		c0.737,0.87,1.686,1.57,2.595,2.275c0.194,0.151,0.636,0.021,0.953-0.039c0.335-0.062,0.656-0.195,1.268-0.386
		c-1.146,1.416-1.337,1.461-2.499,0.764c-2.121-1.272-3.412-3.333-4.887-5.21c-0.754-0.959-1.418-1.988-2.123-2.986
		C31.59,46.352,31.65,46.306,31.709,46.26z"/>
	<path fill-rule="evenodd" clip-rule="evenodd" d="M33.033,50.884c0.795-0.142,3.872,3.061,5.431,5.577
		c-0.405,0.526-0.917,0.833-1.19-0.014c-0.732-2.266-2.335-3.806-4.087-5.253C33.132,51.149,33.117,51.059,33.033,50.884z"/>
	<path fill-rule="evenodd" clip-rule="evenodd" d="M69.891,32.853c0.936,3.635,2.726,7.055,2.468,10.941
		C71.536,40.146,70.713,36.5,69.891,32.853z"/>
	<path fill-rule="evenodd" clip-rule="evenodd" d="M107.026,93.364c2.131,0.488,2.179,2.792,3.401,7.342
		c-0.183-0.279-0.428-0.536-0.536-0.842c-0.485-1.378-0.862-2.798-1.417-4.146C108.139,94.904,107.549,94.194,107.026,93.364z"/>
	<path fill-rule="evenodd" clip-rule="evenodd" d="M119.614,40.099c0.886,0.608,1.844,1.135,2.635,1.849
		c0.756,0.682,1.337,1.558,1.994,2.349c-0.121,0.14-0.243,0.279-0.365,0.419c-0.384-0.299-1.021-0.541-1.104-0.907
		c-0.272-1.206-1.212-1.707-2.062-2.345c-0.461-0.345-0.879-0.749-1.315-1.126C119.469,40.258,119.542,40.178,119.614,40.099z"/>
	<path fill-rule="evenodd" clip-rule="evenodd" d="M69.697,108.851c-0.325-2.347,0.13-4.89-1.713-6.926
		C69.547,102.358,70.659,106.804,69.697,108.851z"/>
	<path fill-rule="evenodd" clip-rule="evenodd" d="M41.782,52.038c0.77-0.201,1.242-0.325,1.714-0.448
		c0.05,0.125,0.1,0.249,0.149,0.374c-0.326,0.473-1.556,0.498-0.827,1.492c-1.816-1.345-3.631-2.689-5.447-4.034
		c0.04-0.063,0.08-0.127,0.12-0.191C38.985,50.208,40.48,51.186,41.782,52.038z"/>
	<path fill-rule="evenodd" clip-rule="evenodd" d="M22.128,87.139c1.847-1.072,3.688-2.155,5.553-3.198
		c0.174-0.098,0.491,0.06,0.742,0.098c-0.117,0.213-0.179,0.528-0.358,0.622c-1.76,0.92-3.538,1.807-5.315,2.691
		c-0.13,0.064-0.3,0.049-0.451,0.071C22.242,87.328,22.185,87.233,22.128,87.139z"/>
	<path fill-rule="evenodd" clip-rule="evenodd" d="M118.42,103.795c1.713-2.088,3.425-4.177,5.138-6.266
		C122.534,100.16,120.285,101.826,118.42,103.795z"/>
	<path fill-rule="evenodd" clip-rule="evenodd" d="M67.549,38.128c-0.16,2.709-0.86,5.174-3.1,6.927
		c0.662-1.08,1.439-2.108,1.952-3.255C66.92,40.637,67.177,39.357,67.549,38.128z"/>
	<path fill-rule="evenodd" clip-rule="evenodd" d="M130.412,84.161c-0.535,0.563-0.84,1.126-1.285,1.279
		c-0.396,0.136-0.979-0.118-1.413-0.335c-0.186-0.093-0.338-0.583-0.254-0.79c0.081-0.202,0.485-0.382,0.747-0.382
		C128.818,83.935,129.429,84.05,130.412,84.161z"/>
	<path fill-rule="evenodd" clip-rule="evenodd" d="M25.96,89.25c0.777-0.591,1.583-1.147,2.32-1.782
		c0.484-0.416,0.832-0.99,1.316-1.407c0.286-0.247,0.716-0.324,1.082-0.478c0.097,0.182,0.194,0.362,0.291,0.544
		c-1.586,1.146-3.172,2.293-4.758,3.439C26.127,89.461,26.043,89.355,25.96,89.25z"/>
	<path fill-rule="evenodd" clip-rule="evenodd" d="M97.271,51.263c1.479-2.171,2.999-4.405,4.345-6.382
		C101.286,46.548,98.688,50.85,97.271,51.263z"/>
	<path fill-rule="evenodd" clip-rule="evenodd" d="M44.367,100.069c0.903-1.109,1.747-2.275,2.73-3.308
		c0.603-0.634,0.808-0.498,1.136,0.22c-0.578,0.343-1.199,0.561-1.602,0.984c-0.695,0.733-1.254,1.596-1.871,2.403
		C44.63,100.27,44.499,100.169,44.367,100.069z"/>
	<path fill-rule="evenodd" clip-rule="evenodd" d="M22.692,78.127c-0.131-0.297-0.426-0.638-0.362-0.884
		c0.196-0.755,0.519-1.478,0.831-2.196c0.026-0.061,0.486-0.025,0.493,0.011c0.052,0.28,0.122,0.602,0.03,0.853
		c-0.131,0.359-0.458,0.649-0.582,1.01c-0.119,0.348-0.086,0.748-0.12,1.125C22.886,78.072,22.789,78.1,22.692,78.127z"/>
	<path fill-rule="evenodd" clip-rule="evenodd" d="M42.714,98.742c0.643-0.945,1.286-1.891,1.929-2.836
		c0.031,1.311-1.137,1.97-1.508,3.066C42.995,98.896,42.854,98.818,42.714,98.742z"/>
	<path fill-rule="evenodd" clip-rule="evenodd" d="M87.633,106.836c-1.131,0.406-1.959,0.704-2.995,1.076
		C85.436,106.883,86.179,106.333,87.633,106.836z"/>
	<path fill-rule="evenodd" clip-rule="evenodd" d="M80.698,108.241c0.399-0.133,0.791-0.327,1.199-0.374
		c0.245-0.027,0.518,0.178,0.777,0.277c-0.206,0.198-0.394,0.535-0.621,0.564c-0.437,0.057-0.896-0.062-1.345-0.106
		C80.705,108.482,80.702,108.361,80.698,108.241z"/>
	<path fill-rule="evenodd" clip-rule="evenodd" fill="#FFFFFF" d="M37.778,84.004c0.269-0.283,0.439-0.463,0.695-0.731
		c-1.188-0.541-2.22-1.23-3.35-1.478c-1.781-0.39-2.216-1.837-2.845-3.143c-0.049-0.104,0.738-0.866,1.156-0.885
		c0.882-0.038,1.777,0.215,2.667,0.349c0.025-0.142,0.051-0.282,0.076-0.423c-1.108-0.177-2.231-0.555-3.323-0.48
		c-1.352,0.092-1.376-0.951-1.815-1.658c-0.065-0.104,0.127-0.521,0.278-0.573c0.259-0.091,0.608-0.086,0.865,0.016
		c0.476,0.188,0.913,0.475,1.366,0.72c0.083-0.149,0.167-0.299,0.251-0.448c-0.605-0.342-1.175-0.835-1.824-0.986
		c-0.807-0.188-1.078-0.562-1.01-1.322c0.067-0.757,0.304-1.33,1.213-1.306c0.266,0.007,0.532-0.044,1.172-0.104
		c-0.537-0.304-0.773-0.441-1.014-0.572c-0.271-0.147-0.545-0.288-0.818-0.431c0.201-0.32,0.327-0.786,0.616-0.934
		c1.023-0.523,2.096-0.953,3.161-1.391c2.084-0.859,4.176-1.7,6.165-2.817c-3.063,1.15-6.125,2.299-9.426,3.538
		c0.193-3.372,3.442-4.072,4.475-6.402c-0.077-0.025-0.307-0.101-0.747-0.245c0.881-0.685,1.643-1.242,2.367-1.844
		c4.252-3.535,8.925-6.376,14.076-8.382c2.511-0.978,5.087-1.792,7.655-2.613c0.701-0.224,1.477-0.219,2.221-0.298
		c3.142-0.333,6.294-0.586,9.423-1.014c1.508-0.206,2.952-0.88,4.46-1.066c1.2-0.149,2.482-0.02,3.671,0.245
		c1.094,0.243,2.059,0.396,3.228,0.188c1.01-0.181,2.189,0.417,3.259,0.776c1.655,0.556,3.289,1.181,4.916,1.816
		c1.021,0.398,2.092,0.749,3.002,1.334c1.487,0.958,2.838,2.125,4.291,3.138c1.163,0.811,2.375,1.559,3.6,2.274
		c1.227,0.717,2.544,1.288,3.734,2.058c1.022,0.661,1.929,1.504,2.875,2.28c2.087,1.712,4.282,3.312,6.216,5.183
		c1.861,1.802,3.449,3.886,5.112,5.795c-0.466,0.41-1.059,0.675-1.111,1.021c-0.272,1.788-0.423,3.596-0.571,5.4
		c-0.023,0.29,0.205,0.593,0.267,0.9c0.148,0.736,0.007,1.195-0.829,1.562c-2.057,0.904-3.947,2.283-6.07,2.901
		c-1.354,0.394-1.724,1.567-2.752,2.091c-0.207,0.105-0.379,0.281-0.597,0.447c-0.846-0.712-1.669-1.405-2.493-2.099
		c-0.044,0.054-0.087,0.107-0.131,0.161c0.526,0.767,1.053,1.532,1.658,2.412c-0.598,0.396-1.078,0.713-1.691,1.119
		c-0.071-0.452-0.121-0.77-0.193-1.227c-0.35,0.134-0.652,0.249-1.043,0.397c0.246,0.411,0.433,0.722,0.622,1.037
		c-0.591,0.062-1.107,0.115-1.623,0.169c0.092,0.383,0.183,0.767,0.305,1.273c-2.914,1.18-5.844,2.595-8.916,3.548
		c-3.41,1.058-6.939,1.749-10.439,2.493c-2.336,0.497-4.707,1.098-7.069,1.128c-3.271,0.043-6.559-0.311-9.818-0.682
		c-2.089-0.237-4.171-0.706-6.2-1.271c-1.701-0.474-3.303-1.296-4.985-1.855c-1.308-0.435-2.686-0.655-4.008-1.054
		c-3.031-0.914-5.792-2.359-8.365-4.215c-1.474-1.062-3.094-1.919-4.642-2.88C38.709,84.662,38.27,84.34,37.778,84.004z
		 M91.24,68.711c0.513-2.569-0.761-5.001-1.646-7.501c-0.334-0.943-0.793-1.916-1.441-2.66c-1.82-2.091-4.122-3.34-6.888-3.925
		c-4.416-0.934-8.78-1.981-13.259-0.382c-3.204,1.144-6.192,2.594-8.665,5.036c-1.607,1.587-2.385,3.645-3.589,5.453
		c-2.067,3.102-1.832,6.556-1.609,9.909c0.14,2.117,1.135,4.191,1.852,6.247c0.255,0.732,0.762,1.405,1.259,2.02
		c0.749,0.926,1.512,1.866,2.408,2.638c1.254,1.079,2.527,2.237,3.994,2.943c1.752,0.843,3.533,1.514,5.688,1.557
		c2.269,0.047,4.367-0.206,6.366-1.011c2.343-0.941,4.585-2.156,6.8-3.381c1.273-0.704,2.572-1.504,3.569-2.539
		c2.084-2.163,3.54-4.774,4.479-7.634c0.378-1.149,0.667-2.351,0.804-3.55C91.473,70.952,91.299,69.94,91.24,68.711z
		 M116.922,75.135c-1.276-0.161-0.938-1.392-0.983-2.411c-0.05-1.146-0.021-2.294-0.05-3.441c-0.012-0.451-0.085-0.901-0.131-1.369
		c-0.978,0.463-2.306,0.215-2.312,1.578c-0.616,0.079-1.158,0.148-1.699,0.217c0.01,0.182,0.019,0.364,0.028,0.546
		c0.794,0.049,1.587,0.123,2.382,0.141c0.628,0.014,0.834,0.269,0.979,0.907c0.288,1.26-0.643,1.899-1.109,2.689
		c-1.379,0-2.718,0-4.15,0c0.728,1.025,4.329,0.86,5.068-0.171c0.398,1.019,1.438,1.863,0.375,2.962
		c0.45,0.643,0.839,1.197,1.335,1.904C116.752,77.39,116.83,76.355,116.922,75.135z M112.108,82.511
		c0.776-0.89,1.448-1.583,0.292-2.636c-0.304,0.629-0.587,1.215-0.904,1.872C111.645,81.932,111.837,82.172,112.108,82.511z
		 M106.478,66.756c1.411,0.862,2.661,0.734,2.967-0.194C108.523,66.623,107.644,66.68,106.478,66.756z M113.296,79.358
		c-1.215-1.233-1.731-1.257-2.14-0.23C111.789,79.195,112.385,79.26,113.296,79.358z"/>
	<path fill-rule="evenodd" clip-rule="evenodd" fill="#FFFFFF" d="M26.948,76.901c1.313,1.173,2.445,2.199,3.594,3.206
		c1.845,1.615,3.957,2.851,6.006,4.171c1.416,0.912,2.863,1.774,4.294,2.664c3.276,2.035,6.46,4.242,10.104,5.605
		c0.7,0.262,1.503,0.241,2.215,0.481c2.319,0.781,4.571,1.817,6.937,2.396c3.334,0.815,6.762,1.241,10.122,1.962
		c2.978,0.639,5.95,0.423,8.905,0.098c2.524-0.278,5.016-0.863,7.52-1.317c0.959-0.174,1.915-0.361,2.983-0.273
		c-0.96,0.479-1.885,1.051-2.886,1.42c-3.939,1.456-8.061,2.014-12.211,2.536c-3.317,0.417-6.374-0.422-9.505-1.166
		c-1.932-0.46-3.912-0.733-5.881-1.017c-1.882-0.271-3.786-0.393-5.663-0.686c-0.766-0.12-1.52-0.453-2.223-0.802
		c-3.567-1.769-7.147-3.515-10.657-5.391c-1.668-0.892-3.201-2.042-4.776-3.103c-1.521-1.022-3.148-1.938-4.498-3.157
		c-2.108-1.903-3.643-4.275-4.649-6.956C26.648,77.496,26.756,77.366,26.948,76.901z"/>
	<path fill-rule="evenodd" clip-rule="evenodd" fill="#FFFFFF" d="M34.374,64.322c-3.119,1.885-3.379,5.071-3.913,8.056
		c-0.492-0.031-0.875-0.056-1.259-0.08c-0.02,0.11-0.04,0.22-0.06,0.329c0.273,0.111,0.601,0.163,0.803,0.351
		c0.199,0.184,0.366,0.506,0.363,0.766c-0.002,0.162-0.323,0.361-0.538,0.473c-0.438,0.227-0.901,0.405-1.547,0.688
		c2.774,1.538,2.774,1.538,2.195,2.54c0.364,0.514,0.667,0.942,0.97,1.371c-0.133,0.11-0.267,0.221-0.4,0.331
		c-1.684-1.554-4.219-2.244-4.894-4.791c-0.195-0.736,0.019-1.752,0.408-2.432c0.576-1.007,1.495-1.813,2.222-2.741
		c0.184-0.235,0.097-0.711,0.299-0.898c1.59-1.47,3.221-2.896,4.839-4.337C34.034,64.072,34.204,64.197,34.374,64.322z"/>
	<path fill-rule="evenodd" clip-rule="evenodd" fill="#FFFFFF" d="M119.527,80.319c-0.812-2.673-0.731-5.142,0.513-7.67
		c1.192,0.917,2.439,1.552,3.179,2.559c0.484,0.662,1.254,1.6,0.442,2.858c-0.616,0.956-0.615,2.311-0.889,3.487
		c0.128,0.071,0.256,0.143,0.384,0.213c-0.385,0.125-0.77,0.249-1.574,0.509c1.074-2.589-0.031-4.514-1.045-6.461
		c-0.119-0.015-0.238-0.029-0.357-0.044c-0.068,0.663-0.223,1.332-0.178,1.987c0.034,0.499,0.321,0.98,0.496,1.47
		C120.841,80.187,120.447,80.471,119.527,80.319z"/>
	<path fill-rule="evenodd" clip-rule="evenodd" fill="#FFFFFF" d="M27.623,58.354c2.218-0.356,8.361,0.714,9.94,1.689
		c-1.3,0.809-2.434,1.72-3.728,2.214c-0.489,0.187-1.347-0.591-1.978-1.127c1.195,0.229,2.158,0.119,2.854-0.925
		C31.949,60.958,29.738,59.833,27.623,58.354z"/>
	<path fill-rule="evenodd" clip-rule="evenodd" fill="#FFFFFF" d="M110.823,85.835c1.179-1.571,2.569-2.361,4.04-3.015
		c0.993-0.441,2.021-0.834,3.069-1.114c0.431-0.114,1.216-0.037,1.388,0.236c0.407,0.648-0.193,0.906-0.76,1.117
		c-2.12,0.793-4.225,1.626-6.342,2.428C111.861,85.622,111.474,85.676,110.823,85.835z"/>
	<path fill-rule="evenodd" clip-rule="evenodd" fill="#FFFFFF" d="M116.024,85.338c-3.823,0.915-6.912,3.636-10.893,4.163
		c-0.059-0.098-0.116-0.196-0.175-0.294c1.542-0.917,3.085-1.835,4.719-2.807c0.035,0.098,0.103,0.278,0.188,0.513
		c1.986-0.689,3.973-1.38,5.959-2.069C115.89,85.008,115.957,85.173,116.024,85.338z"/>
	<path fill-rule="evenodd" clip-rule="evenodd" fill="#FFFFFF" d="M62.138,48.378c1.169-0.986,9.407-1.923,10.745-1.171
		C69.292,47.489,65.833,48.842,62.138,48.378z"/>
	<path fill-rule="evenodd" clip-rule="evenodd" fill="#FFFFFF" d="M126.787,78.82c0.436,0.947-0.048,1.311-2.611,1.868
		c-0.149-1.337-0.489-2.744,1.002-3.708c0.455,0.742-1.434,1.742,0.191,2.254C125.731,79.349,126.241,78.992,126.787,78.82z"/>
	<path fill-rule="evenodd" clip-rule="evenodd" fill="#FFFFFF" d="M117.106,84.183c1.347-0.432,2.693-0.863,4.201-1.347
		c-0.441,1.015-0.968,1.218-4.04,1.752C117.214,84.453,117.16,84.317,117.106,84.183z"/>
	<path fill-rule="evenodd" clip-rule="evenodd" fill="#FFFFFF" d="M71.858,19.283c1.308,0.138,2.315,0.244,3.555,0.375
		C74.24,20.406,72.771,20.275,71.858,19.283z"/>
	<path fill-rule="evenodd" clip-rule="evenodd" fill="#FFFFFF" d="M100.655,27.443c-0.879-0.534-1.758-1.067-2.636-1.6
		c0.086-0.142,0.172-0.284,0.259-0.426c0.894,0.519,1.787,1.037,2.681,1.556C100.857,27.13,100.757,27.286,100.655,27.443z"/>
	<path fill-rule="evenodd" clip-rule="evenodd" fill="#FFFFFF" d="M84.952,20.572c1.219,0.291,2.131,0.508,3.242,0.772
		C87.141,21.949,85.824,21.665,84.952,20.572z"/>
	<path fill-rule="evenodd" clip-rule="evenodd" fill="#FFFFFF" d="M80.713,19.87c0.894,0.147,1.787,0.295,2.889,0.477
		C82.697,20.984,81.677,20.853,80.713,19.87z"/>
	<path fill-rule="evenodd" clip-rule="evenodd" fill="#FFFFFF" d="M95.955,103.486c0.184,1.022,0.295,1.64,0.406,2.258
		c-0.119,0.054-0.238,0.108-0.356,0.163c-0.318-0.491-0.684-0.961-0.917-1.489C95.04,104.308,95.481,103.982,95.955,103.486z"/>
	<path fill-rule="evenodd" clip-rule="evenodd" fill="#FFFFFF" d="M100.51,100.261c-1.051-1.148-1.051-1.148-0.147-1.759
		C101.307,99.551,101.307,99.551,100.51,100.261z"/>
	<path fill-rule="evenodd" clip-rule="evenodd" fill="#FFFFFF" d="M55.596,40.38c0.45,1.402,0.817,2.547,1.188,3.704
		C55.157,43.904,54.788,42.928,55.596,40.38z"/>
	<path fill-rule="evenodd" clip-rule="evenodd" d="M91.24,68.711c0.059,1.229,0.232,2.241,0.121,3.22
		c-0.137,1.199-0.426,2.4-0.804,3.55c-0.939,2.859-2.396,5.471-4.479,7.634c-0.997,1.035-2.296,1.835-3.569,2.539
		c-2.215,1.225-4.457,2.439-6.8,3.381c-1.999,0.805-4.097,1.058-6.366,1.011c-2.155-0.043-3.936-0.714-5.688-1.557
		c-1.466-0.706-2.739-1.864-3.994-2.943c-0.896-0.771-1.66-1.712-2.408-2.638c-0.497-0.614-1.004-1.287-1.259-2.02
		c-0.717-2.056-1.712-4.13-1.852-6.247c-0.223-3.353-0.458-6.808,1.609-9.909c1.205-1.808,1.982-3.866,3.589-5.453
		c2.473-2.441,5.461-3.892,8.665-5.036c4.479-1.599,8.843-0.552,13.259,0.382c2.766,0.585,5.067,1.834,6.888,3.925
		c0.648,0.745,1.107,1.717,1.441,2.66C90.479,63.709,91.753,66.142,91.24,68.711z M74.989,86.637
		c0.408-0.503,0.792-0.904,1.09-1.363c0.288-0.443,0.488-0.945,0.732-1.434c0.305,0.481,0.587,0.927,0.869,1.372
		c0.096-0.064,0.192-0.128,0.289-0.191c-0.023-0.399-0.047-0.799-0.079-1.346c0.526,0.156,0.88,0.261,1.38,0.409
		c0.068-0.668,0.131-1.285,0.208-2.045c0.3,0.251,0.441,0.384,0.598,0.497c0.338,0.244,0.683,0.479,1.024,0.718
		c0.257-0.38,0.569-0.734,0.754-1.146c0.217-0.483,0.321-1.017,0.476-1.528c0.163-0.095,0.326-0.19,0.489-0.285
		c0.243,0.489,0.487,0.979,0.722,1.453c1.433-0.938,0.08-2.341,0.893-3.386c0.223,0.747,0.405,1.357,0.6,2.007
		c1.648-0.967-0.267-1.752,0.221-2.469c0.778-0.413,1.375-1.202,2.131-1.406c1.368-0.37,0.275-1.669,1.1-2.343
		c0.38-0.311,0.965-1.823-0.295-2.501c1.072-1.723,0.111-4.731-1.753-5.505c1.083-1.145-0.495-1.633-0.565-2.39
		c-0.19-2.056-1.541-0.365-2.226-0.833c0.227-0.479,0.44-0.933,0.751-1.59c-1.181-0.862-2.3-1.786-3.526-2.536
		c-0.737-0.45-1.637-0.635-2.469-0.925c-1.511-0.525-3.021-1.053-4.54-1.553c-0.623-0.205-1.488,0.137-1.816,0.032
		c-1.221-0.389-1.647,0.572-2.417,0.937c-0.625,0.296-1.329,0.428-1.998,0.633c-0.05-0.17-0.1-0.34-0.15-0.51
		c0.479-0.145,0.989-0.228,1.426-0.453c0.453-0.234,0.833-0.606,1.366-1.01c-2.264-0.671-6.215,1.575-6.373,3.464
		c0.706-0.219,1.388-0.431,2.07-0.643c0.039,0.067,0.078,0.133,0.117,0.2c-1.148,0.865-2.296,1.731-3.688,2.78
		c0.2-0.705,0.296-1.046,0.393-1.387c-0.126-0.076-0.253-0.153-0.379-0.23c-0.379,0.539-0.804,1.051-1.127,1.622
		c-0.6,1.057-1.188,2.127-1.676,3.237c-0.157,0.355,0.015,0.855,0.026,1.061c-0.188,0.669-0.374,1.154-0.457,1.657
		c-0.228,1.381-0.379,2.774-0.624,4.152c-0.255,1.435-0.554,2.838,0.56,4.098c0.164,0.185,0.027,0.621,0.061,0.938
		c0.089,0.847,0.186,1.692,0.312,2.534c0.011,0.073,0.281,0.182,0.402,0.152c0.968-0.229,0.965,0.324,0.899,1.021
		c-0.053,0.561-0.009,1.084,0.839,0.842c0.927-0.265,0.948,0.385,0.905,1.014c-0.02,0.289-0.118,0.573-0.176,0.837
		c0.795-0.049,1.464-0.09,2.132-0.132c-0.137,0.649-0.275,1.298-0.421,1.985c0.774-0.333,1.51-0.649,2.245-0.965
		c0.244,0.607,0.449,1.117,0.708,1.762c0.427-0.575,0.677-0.913,0.927-1.25c0.091,0.052,0.183,0.104,0.274,0.157
		c-0.104,0.448-0.208,0.897-0.378,1.628c0.623-0.511,1.026-0.843,1.594-1.31c0.33,0.697,0.603,1.274,0.96,2.03
		c0.708-0.663,1.368-1.28,2.029-1.898c0.069,0.05,0.14,0.099,0.21,0.148c-0.114,0.499-0.229,0.999-0.434,1.896
		C73.207,86.498,73.836,84.927,74.989,86.637z M77.674,55.407c0.341,0.291,0.637,0.693,1.03,0.848
		c0.772,0.304,1.615,0.427,2.394,0.719c0.245,0.092,0.513,0.475,0.535,0.745c0.068,0.81,0.512,0.902,1.125,0.688
		c0.536-0.187,1.045-0.45,1.763-0.766C82.387,56.24,80.39,55.055,77.674,55.407z M88.485,77.933
		c-2.164,2.263-4.242,4.436-6.321,6.608C85.012,83.044,87.125,80.898,88.485,77.933z M57.917,65.01
		c0.135,0.085,0.27,0.17,0.405,0.255c1.146-1.922,2.292-3.844,3.438-5.766c-0.083-0.054-0.167-0.107-0.25-0.162
		C59.863,60.941,58.444,62.691,57.917,65.01z M72.518,54.228c-0.045,0.193-0.089,0.386-0.134,0.579
		c0.353,0.113,0.702,0.236,1.059,0.335c0.753,0.209,1.584,0.274,2.248,0.641c0.861,0.475,1.114,0.027,1.621-0.906
		C75.591,54.644,74.055,54.436,72.518,54.228z M89.492,66.739c0.173-0.093,0.345-0.187,0.518-0.28
		c-0.508-1.183-1.015-2.365-1.584-3.693c-0.587,0.362-1,0.617-1.625,1.002c0.55,0.452,0.964,0.772,1.354,1.121
		c0.242,0.216,0.478,0.452,0.662,0.715C89.069,65.964,89.27,66.359,89.492,66.739z M85.436,61.46
		c1.711-1.268,1.541,0.568,2.051,1.273c0.962-0.714,0.371-1.818-1.705-3.205c-0.318,0.298-0.656,0.613-1.025,0.958
		C84.998,60.835,85.196,61.118,85.436,61.46z M62.055,86.994c0.105-0.08,0.21-0.161,0.315-0.241
		c0.046-0.748-1.895-2.642-3.316-2.929C60.206,85.042,61.13,86.018,62.055,86.994z M68.886,89.113
		c0.017-0.116,0.033-0.233,0.05-0.35c-0.804-0.251-1.601-0.525-2.415-0.734c-0.169-0.043-0.504,0.109-0.572,0.258
		c-0.064,0.142,0.063,0.461,0.207,0.592C67.019,89.661,67.96,89.324,68.886,89.113z M72.365,89.355
		c-0.008-0.132-0.017-0.263-0.024-0.395c-0.925,0-1.85,0-2.775,0c0.002,0.132,0.004,0.263,0.006,0.395
		C70.503,89.355,71.434,89.355,72.365,89.355z M88.169,60.134c0.041-0.028,0.081-0.057,0.122-0.085
		c-0.738-0.828-1.476-1.656-2.213-2.483c-0.087,0.084-0.174,0.169-0.261,0.253C86.602,58.591,87.385,59.363,88.169,60.134z
		 M64.665,88.197c-0.437-1.41-0.85-1.624-1.779-0.91C63.48,87.591,63.993,87.854,64.665,88.197z"/>
	<path fill-rule="evenodd" clip-rule="evenodd" d="M116.922,75.135c-0.092,1.221-0.17,2.255-0.268,3.553
		c-0.496-0.707-0.885-1.262-1.335-1.904c1.063-1.099,0.023-1.943-0.375-2.962c-0.739,1.031-4.341,1.196-5.068,0.171
		c1.433,0,2.771,0,4.15,0c0.467-0.79,1.397-1.43,1.109-2.689c-0.146-0.638-0.352-0.894-0.979-0.907
		c-0.795-0.018-1.588-0.091-2.382-0.141c-0.01-0.182-0.019-0.364-0.028-0.546c0.541-0.069,1.083-0.138,1.699-0.217
		c0.007-1.363,1.335-1.114,2.312-1.578c0.046,0.468,0.119,0.917,0.131,1.369c0.028,1.147,0,2.295,0.05,3.441
		C115.983,73.743,115.646,74.974,116.922,75.135z"/>
	<path fill-rule="evenodd" clip-rule="evenodd" d="M112.108,82.511c-0.271-0.339-0.464-0.579-0.612-0.764
		c0.317-0.657,0.601-1.243,0.904-1.872C113.557,80.928,112.885,81.621,112.108,82.511z"/>
	<path fill-rule="evenodd" clip-rule="evenodd" d="M106.478,66.756c1.166-0.076,2.046-0.134,2.967-0.194
		C109.139,67.49,107.889,67.619,106.478,66.756z"/>
	<path fill-rule="evenodd" clip-rule="evenodd" d="M113.296,79.358c-0.911-0.099-1.507-0.163-2.14-0.23
		C111.564,78.102,112.081,78.125,113.296,79.358z"/>
	<path fill-rule="evenodd" clip-rule="evenodd" fill="#FFFFFF" d="M74.989,86.637c-1.153-1.71-1.782-0.139-2.787,0.709
		c0.205-0.896,0.319-1.396,0.434-1.896c-0.07-0.05-0.141-0.099-0.21-0.148c-0.661,0.618-1.32,1.235-2.029,1.898
		c-0.357-0.756-0.63-1.333-0.96-2.03c-0.568,0.467-0.972,0.799-1.594,1.31c0.17-0.73,0.274-1.18,0.378-1.628
		c-0.091-0.053-0.183-0.105-0.274-0.157c-0.25,0.337-0.5,0.675-0.927,1.25c-0.259-0.645-0.463-1.154-0.708-1.762
		c-0.735,0.315-1.47,0.632-2.245,0.965c0.146-0.688,0.284-1.336,0.421-1.985c-0.668,0.042-1.337,0.083-2.132,0.132
		c0.058-0.264,0.156-0.548,0.176-0.837c0.042-0.629,0.021-1.278-0.905-1.014c-0.848,0.242-0.893-0.281-0.839-0.842
		c0.066-0.697,0.069-1.251-0.899-1.021c-0.121,0.029-0.391-0.079-0.402-0.152c-0.127-0.842-0.224-1.688-0.312-2.534
		c-0.034-0.316,0.103-0.753-0.061-0.938c-1.113-1.26-0.814-2.663-0.56-4.098c0.244-1.377,0.396-2.771,0.624-4.152
		c0.083-0.502,0.268-0.987,0.457-1.657c-0.011-0.206-0.183-0.706-0.026-1.061c0.489-1.11,1.077-2.18,1.676-3.237
		c0.323-0.571,0.748-1.083,1.127-1.622c0.126,0.077,0.253,0.154,0.379,0.23c-0.097,0.341-0.193,0.682-0.393,1.387
		c1.392-1.049,2.54-1.915,3.688-2.78c-0.039-0.067-0.078-0.133-0.117-0.2c-0.682,0.212-1.364,0.423-2.07,0.643
		c0.158-1.889,4.109-4.135,6.373-3.464c-0.533,0.404-0.914,0.776-1.366,1.01c-0.437,0.226-0.947,0.308-1.426,0.453
		c0.05,0.17,0.101,0.34,0.15,0.51c0.669-0.205,1.372-0.336,1.998-0.633c0.77-0.365,1.197-1.325,2.417-0.937
		c0.328,0.104,1.193-0.237,1.816-0.032c1.52,0.5,3.029,1.027,4.54,1.553c0.832,0.29,1.731,0.475,2.469,0.925
		c1.227,0.75,2.346,1.673,3.526,2.536c-0.311,0.658-0.524,1.111-0.751,1.59c0.685,0.468,2.035-1.223,2.226,0.833
		c0.07,0.756,1.648,1.245,0.565,2.39c1.864,0.774,2.825,3.782,1.753,5.505c1.26,0.678,0.675,2.191,0.295,2.501
		c-0.824,0.674,0.269,1.973-1.1,2.343c-0.756,0.204-1.353,0.993-2.131,1.406c-0.487,0.717,1.428,1.502-0.221,2.469
		c-0.194-0.649-0.377-1.26-0.6-2.007c-0.812,1.045,0.54,2.447-0.893,3.386c-0.234-0.474-0.479-0.964-0.722-1.453
		c-0.163,0.095-0.326,0.19-0.489,0.285c-0.154,0.512-0.259,1.045-0.476,1.528c-0.185,0.412-0.497,0.767-0.754,1.146
		c-0.342-0.238-0.687-0.474-1.024-0.718c-0.156-0.113-0.298-0.246-0.598-0.497c-0.077,0.76-0.14,1.377-0.208,2.045
		c-0.5-0.148-0.854-0.253-1.38-0.409c0.032,0.547,0.056,0.946,0.079,1.346c-0.097,0.063-0.193,0.127-0.289,0.191
		c-0.282-0.445-0.564-0.891-0.869-1.372c-0.244,0.488-0.444,0.99-0.732,1.434C75.781,85.732,75.397,86.134,74.989,86.637z
		 M71.523,66.366c-0.666,0.059-1.131,0.215-1.528,0.112c-1.126-0.292-2.245-0.749-2.387,1.086c-0.009,0.117-0.279,0.198-0.321,0.33
		c-0.145,0.456-0.364,0.934-0.333,1.389c0.083,1.225,0.292,2.436-1.499,2.549c-0.189,0.012-0.363,0.261-0.606,0.448
		c0.285,0.238,0.509,0.426,0.763,0.638c-0.244,0.373-0.455,0.695-0.679,1.037c0.576,0.662,0.946,0.743,1.27-0.169
		c0.135-0.38,0.53-0.667,0.986-1.209c0.088,0.53,0.212,0.786,0.135,0.886c-0.674,0.871-1.224,1.755-0.962,2.94
		c0.075,0.342-0.011,0.718-0.023,1.078c0.322-0.104,0.647-0.2,0.965-0.315c0.173-0.062,0.335-0.155,0.539-0.252
		c0.056,0.408,0.1,0.733,0.145,1.06c0.072-0.08,0.145-0.161,0.217-0.241c0.598,0.364,1.196,0.729,1.794,1.093
		c0.528-0.046,1.049,0.188,1.556,0.16c0.532-0.029,1.048-0.311,1.573-0.482c-0.049-0.153-0.098-0.307-0.146-0.46
		c-0.368,0.02-0.736,0.04-1.129,0.061c0.432-1.732,0.977-1.68,3.125,0.315c0.301-0.207,0.605-0.418,1.064-0.734
		c-0.762-0.328-1.068-0.46-1.581-0.681c1.195-0.588,1.459,0.19,1.798,0.702c0.395,0.595,0.745,1.121,1.525,0.6
		c-0.548-0.595-1.056-1.146-1.766-1.917c1.236-0.146,2.488,0.949,2.827-0.546c0.775-0.065,1.429-0.121,2.346-0.198
		c-0.531-0.716-0.84-1.133-1.175-1.584c0.564-0.235,1.032-0.431,1.621-0.676c-0.431-0.335-0.68-0.527-0.943-0.732
		c0.585-0.493,1.087-0.917,1.589-1.34c-0.06-0.086-0.119-0.171-0.179-0.257c-0.473,0.098-0.945,0.195-1.673,0.346
		c0.459-0.667,0.775-1.126,1.22-1.771c-0.658,0-1.12,0-1.599,0c0.347-2.67-0.974-3.885-3.438-4.173
		c0.018-0.11,0.035-0.221,0.053-0.331c0.636-0.115,1.271-0.23,1.912-0.346c-0.054-0.473-0.099-0.866-0.159-1.398
		c-0.77,0.475-1.419,0.855-2.049,1.268c-1.503,0.986-3.066,0.87-3.963-0.375c-0.087,0.373-0.161,0.693-0.251,1.075
		c-0.499-0.087-0.922-0.162-1.616-0.283C70.901,65.544,71.099,65.805,71.523,66.366z"/>
	<path fill-rule="evenodd" clip-rule="evenodd" fill="#FFFFFF" d="M77.674,55.407c2.716-0.352,4.713,0.833,6.847,2.235
		c-0.718,0.316-1.227,0.579-1.763,0.766c-0.613,0.213-1.057,0.121-1.125-0.688c-0.022-0.27-0.29-0.653-0.535-0.745
		c-0.778-0.292-1.621-0.416-2.394-0.719C78.311,56.1,78.015,55.697,77.674,55.407z"/>
	<path fill-rule="evenodd" clip-rule="evenodd" fill="#FFFFFF" d="M88.485,77.933c-1.36,2.966-3.474,5.111-6.321,6.608
		C84.243,82.368,86.321,80.195,88.485,77.933z"/>
	<path fill-rule="evenodd" clip-rule="evenodd" fill="#FFFFFF" d="M57.917,65.01c0.527-2.319,1.946-4.069,3.592-5.673
		c0.083,0.054,0.167,0.108,0.25,0.162c-1.146,1.922-2.292,3.844-3.438,5.766C58.187,65.18,58.052,65.095,57.917,65.01z"/>
	<path fill-rule="evenodd" clip-rule="evenodd" fill="#FFFFFF" d="M72.518,54.228c1.537,0.208,3.073,0.416,4.794,0.648
		c-0.507,0.933-0.76,1.381-1.621,0.906c-0.664-0.367-1.495-0.432-2.248-0.641c-0.356-0.099-0.706-0.223-1.059-0.335
		C72.429,54.613,72.473,54.42,72.518,54.228z"/>
	<path fill-rule="evenodd" clip-rule="evenodd" fill="#FFFFFF" d="M89.492,66.739c-0.223-0.38-0.423-0.775-0.675-1.135
		c-0.185-0.264-0.42-0.5-0.662-0.715c-0.391-0.348-0.805-0.669-1.354-1.121c0.625-0.385,1.038-0.64,1.625-1.002
		c0.569,1.328,1.076,2.51,1.584,3.693C89.837,66.553,89.665,66.646,89.492,66.739z"/>
	<path fill-rule="evenodd" clip-rule="evenodd" fill="#FFFFFF" d="M85.436,61.46c-0.239-0.342-0.438-0.625-0.68-0.973
		c0.369-0.345,0.707-0.661,1.025-0.958c2.076,1.386,2.667,2.49,1.705,3.205C86.977,62.029,87.146,60.192,85.436,61.46z"/>
	<path fill-rule="evenodd" clip-rule="evenodd" fill="#FFFFFF" d="M62.055,86.994c-0.924-0.977-1.849-1.952-3.001-3.17
		c1.421,0.287,3.362,2.181,3.316,2.929C62.265,86.833,62.16,86.914,62.055,86.994z"/>
	<path fill-rule="evenodd" clip-rule="evenodd" fill="#FFFFFF" d="M68.886,89.113c-0.926,0.211-1.868,0.548-2.73-0.234
		c-0.144-0.131-0.271-0.45-0.207-0.592c0.067-0.148,0.403-0.301,0.572-0.258c0.814,0.209,1.611,0.483,2.415,0.734
		C68.919,88.88,68.903,88.997,68.886,89.113z"/>
	<path fill-rule="evenodd" clip-rule="evenodd" fill="#FFFFFF" d="M72.365,89.355c-0.931,0-1.862,0-2.794,0
		c-0.002-0.132-0.004-0.263-0.006-0.395c0.925,0,1.85,0,2.775,0C72.349,89.093,72.357,89.224,72.365,89.355z"/>
	<path fill-rule="evenodd" clip-rule="evenodd" fill="#FFFFFF" d="M88.169,60.134c-0.784-0.771-1.567-1.543-2.352-2.315
		c0.087-0.084,0.174-0.169,0.261-0.253c0.737,0.828,1.475,1.655,2.213,2.483C88.25,60.077,88.21,60.106,88.169,60.134z"/>
	<path fill-rule="evenodd" clip-rule="evenodd" fill="#FFFFFF" d="M64.665,88.197c-0.672-0.344-1.185-0.606-1.779-0.91
		C63.815,86.573,64.228,86.787,64.665,88.197z"/>
	<path fill-rule="evenodd" clip-rule="evenodd" d="M71.523,66.366c-0.425-0.562-0.622-0.822-0.983-1.299
		c0.694,0.122,1.118,0.196,1.616,0.283c0.09-0.382,0.164-0.702,0.251-1.075c0.896,1.246,2.46,1.361,3.963,0.375
		c0.63-0.412,1.279-0.793,2.049-1.268c0.061,0.533,0.105,0.926,0.159,1.398c-0.641,0.116-1.276,0.231-1.912,0.346
		c-0.018,0.11-0.035,0.22-0.053,0.331c2.465,0.288,3.785,1.502,3.438,4.173c0.479,0,0.94,0,1.599,0
		c-0.444,0.645-0.761,1.104-1.22,1.771c0.728-0.15,1.2-0.248,1.673-0.346c0.06,0.086,0.119,0.171,0.179,0.257
		c-0.502,0.423-1.004,0.847-1.589,1.34c0.264,0.205,0.513,0.397,0.943,0.732c-0.589,0.245-1.057,0.44-1.621,0.676
		c0.335,0.451,0.644,0.868,1.175,1.584c-0.917,0.077-1.57,0.133-2.346,0.198c-0.339,1.495-1.591,0.4-2.827,0.546
		c0.71,0.771,1.218,1.322,1.766,1.917c-0.78,0.521-1.131-0.005-1.525-0.6c-0.339-0.512-0.603-1.29-1.798-0.702
		c0.513,0.221,0.819,0.353,1.581,0.681c-0.459,0.316-0.764,0.527-1.064,0.734c-2.148-1.995-2.693-2.048-3.125-0.315
		c0.393-0.021,0.761-0.041,1.129-0.061c0.049,0.153,0.098,0.307,0.146,0.46c-0.524,0.172-1.041,0.453-1.573,0.482
		c-0.507,0.028-1.028-0.206-1.556-0.16c-0.598-0.364-1.196-0.729-1.794-1.093c-0.072,0.08-0.145,0.161-0.217,0.241
		c-0.044-0.326-0.089-0.651-0.145-1.06c-0.204,0.097-0.366,0.19-0.539,0.252c-0.318,0.115-0.644,0.212-0.966,0.315
		c0.012-0.36,0.099-0.736,0.023-1.078c-0.261-1.186,0.289-2.069,0.962-2.94c0.078-0.1-0.046-0.355-0.135-0.886
		c-0.456,0.542-0.852,0.829-0.986,1.209c-0.323,0.912-0.693,0.831-1.27,0.169c0.224-0.342,0.435-0.664,0.679-1.037
		c-0.254-0.212-0.478-0.399-0.763-0.638c0.243-0.187,0.417-0.436,0.606-0.448c1.791-0.113,1.583-1.325,1.499-2.549
		c-0.031-0.455,0.189-0.934,0.333-1.389c0.042-0.132,0.312-0.213,0.321-0.33c0.142-1.835,1.261-1.379,2.387-1.086
		C70.393,66.582,70.858,66.425,71.523,66.366z M75.931,71.519c0.086,0.09,0.171,0.18,0.257,0.27c0.786-0.353,1.665-0.7,1.606-1.789
		c-0.021-0.377-0.506-0.896-0.891-1.031c-0.271-0.095-0.729,0.351-1.104,0.555c0.054,0.089,0.107,0.179,0.16,0.269
		c0.36-0.037,0.721-0.074,1.351-0.138c-0.28,0.484-0.415,0.785-0.611,1.039C76.47,70.99,76.188,71.246,75.931,71.519z
		 M79.165,68.935c0.657-0.819-0.175-2.14-1.688-2.625C78.062,67.221,78.611,68.074,79.165,68.935z M73.504,72.773
		c0.041-0.177,0.081-0.354,0.121-0.529c-0.859-0.071-1.719-0.142-2.672-0.22C71.542,73.721,72.718,72.397,73.504,72.773z"/>
	<path fill-rule="evenodd" clip-rule="evenodd" fill="#FFFFFF" d="M75.931,71.519c0.258-0.273,0.539-0.529,0.768-0.825
		c0.196-0.254,0.331-0.555,0.611-1.039c-0.63,0.064-0.99,0.102-1.351,0.138c-0.053-0.089-0.106-0.179-0.16-0.269
		c0.375-0.204,0.834-0.65,1.104-0.555c0.385,0.135,0.87,0.653,0.891,1.031c0.059,1.089-0.82,1.436-1.606,1.789
		C76.102,71.699,76.017,71.609,75.931,71.519z"/>
	<path fill-rule="evenodd" clip-rule="evenodd" fill="#FFFFFF" d="M79.165,68.935c-0.554-0.861-1.103-1.714-1.688-2.625
		C78.99,66.795,79.822,68.116,79.165,68.935z"/>
	<path fill-rule="evenodd" clip-rule="evenodd" fill="#FFFFFF" d="M73.504,72.773c-0.786-0.376-1.962,0.947-2.551-0.749
		c0.954,0.078,1.813,0.148,2.672,0.22C73.585,72.42,73.545,72.597,73.504,72.773z"/>
</g>
</svg>
