<?xml version="1.0" encoding="utf-8"?>
<!-- Generator: Adobe Illustrator 16.0.0, SVG Export Plug-In . SVG Version: 6.00 Build 0)  -->
<!DOCTYPE svg PUBLIC "-//W3C//DTD SVG 1.1//EN" "http://www.w3.org/Graphics/SVG/1.1/DTD/svg11.dtd">
<svg version="1.1" id="Layer_1" xmlns="http://www.w3.org/2000/svg" xmlns:xlink="http://www.w3.org/1999/xlink" x="0px" y="0px"
	 width="144px" height="144px" viewBox="0 0 144 144" enable-background="new 0 0 144 144" xml:space="preserve">
<g>
	<path fill="#FFFFFF" d="M69.38,89.616c-0.566,0.657-1.183,0.846-2.07,0.407c-1.014-0.502-2.127-0.797-3.171-1.242
		c-0.702-0.299-1.349-0.723-2.036-1.057c-1.046-0.51-2.071-1.103-3.17-1.456c-1.335-0.43-2.758-0.584-4.107-0.979
		c-0.837-0.245-1.609-0.717-2.41-1.086c0.052-0.125,0.105-0.249,0.157-0.373c1.295-0.361,2.551-0.502,3.315,0.492
		c1.074-0.073,1.915-0.185,2.755-0.177c1.687,0.017,3.275,0.242,4.829-1.019c3.169-2.571,4.905-5.709,4.801-9.802
		c-0.022-0.855-0.08-1.746-0.333-2.554c-1.159-3.691-4.154-5.719-7.095-7.848c-1.26-0.912-3.5-0.961-3.33-3.475
		c-0.814,0.629-1.509,0.63-2.021-0.215c-0.625-1.033-1.402-2.018-1.797-3.136c-0.547-1.549-1.071-3.196-1.106-4.812
		c-0.038-1.715,0.335-3.494,0.834-5.153c0.881-2.932,1.778-5.889,3.772-8.338c0.263-0.323,0.343-0.796,0.508-1.199
		c-0.454,0.007-0.984-0.137-1.347,0.048c-1.091,0.559-2.152,1.193-3.159,1.894c-1.296,0.902-2.761,1.705-3.739,2.891
		c-1.935,2.346-3.737,4.834-5.315,7.434c-1.828,3.012-3.025,6.322-3.656,9.821c-0.426,2.36-0.686,4.722,0.021,7.049
		c0.964,3.17,1.608,6.449,3.099,9.449c0.08,0.16-0.002,0.401,0.077,0.563c0.161,0.328,0.313,0.8,0.588,0.905
		c0.87,0.336,1.121,1.004,0.95,1.757c-0.213,0.937,0.156,1.192,0.979,1.307c0.85,0.117,1.491,0.568,1.807,1.534
		c-0.268,0-0.445,0.054-0.56-0.008c-1.594-0.862-2.724,0.801-4.166,0.769c-0.072-0.002-0.136,0.266-0.227,0.391
		c-0.551,0.762-1.174,1.479-1.648,2.284c-0.781,1.329-1.766,2.646-2.097,4.097c-0.257,1.126-0.668,1.901-1.509,2.54
		c-0.28,0.213-0.64,0.321-0.963,0.478c0.075,0.155,0.15,0.312,0.225,0.468c1.567,0.746,2.275,2.337,3.681,3.337
		c2.324,1.653,4.829,2.882,7.379,4.079c0.631,0.297,0.903,0.744,0.075,1.185c-0.879,0.468-1.774,0.905-2.65,1.381
		c-2.319,1.261-4.227,2.976-5.304,5.408c-0.574,1.298-0.871,2.727-1.205,4.117c-0.154,0.644-0.359,1.474-0.092,1.985
		c1.584,3.052,4.642,4.06,7.639,4.653c1.797,0.355,3.855-0.164,5.707-0.638c2.543-0.651,4.998-1.644,7.499-2.462
		c0.662-0.216,1.388-0.253,2.032-0.508c1.63-0.644,3.226-1.376,4.844-2.05c1.129-0.47,2.242-1.043,3.42-1.315
		c1.482-0.342,3.026-0.583,4.541-0.574c1.473,0.01,3.047,0.127,4.392,0.662c2.982,1.186,5.805,2.771,8.775,3.988
		c2.907,1.192,5.896,2.201,8.895,3.146c1.095,0.345,2.326,0.392,3.487,0.348c0.808-0.03,1.526-0.863,2.465-0.361
		c0.099,0.053,0.384-0.12,0.507-0.257c0.905-1,2.063-1.887,2.625-3.058c1.193-2.481,2.637-5.019,1.409-7.97
		c-0.044-0.104-0.036-0.235-0.034-0.354c0.014-1.266-1.542-3.542-2.681-4.021c-0.871-0.365-1.714-0.804-2.543-1.257
		c-0.202-0.11-0.367-0.392-0.416-0.623c-0.02-0.091,0.309-0.299,0.508-0.385c2.061-0.892,4.255-1.384,6.168-2.738
		c1.456-1.03,2.571-2.246,3.517-3.671c0.221-0.333,0.255-0.965,0.096-1.341c-0.463-1.087-1.124-2.089-1.604-3.17
		c-0.88-1.979-2.195-3.538-4.003-4.747c-1.267-0.846-2.409-1.875-3.625-2.799c-0.16-0.122-0.441-0.172-0.646-0.136
		c-1.669,0.296-3.332,0.62-5.081,0.951c-0.46-1.017-1.229-0.836-2.14-0.447c-0.947,0.405-1.946,0.708-2.946,0.966
		c-1.027,0.265-2.121,0.307-3.114,0.65c-1.687,0.583-3.271,1.49-4.981,1.96c-2.147,0.591-4.364,0.981-6.576,1.271
		c-2.676,0.349-5.377,0.501-8.283,0.758C68.958,88.608,69.162,89.094,69.38,89.616z M72.802,76.475
		c0.215,0.325,0.446,0.629,0.629,0.96c0.706,1.278,1.357,1.324,2.266,0.268c1.427-1.66,2.998-3.2,4.365-4.905
		c1.812-2.259,3.549-4.583,5.195-6.964c1.266-1.829,2.154-3.938,3.537-5.66c3.834-4.774,5.808-10.356,7.371-16.132
		c0.383-1.413,0.404-2.919,0.697-4.362c1.302-6.405,0.802-12.575-2.594-18.273c-1.611-2.706-3.5-5.25-5.309-7.835
		c-1.702-2.433-3.457-4.829-5.207-7.228c-0.282-0.387-0.662-0.704-0.996-1.053c-0.16,0.053-0.321,0.107-0.481,0.161
		c0.031,0.536-0.026,1.097,0.111,1.604c0.466,1.72,1.184,3.393,1.461,5.138c0.312,1.96,1.065,3.901,0.633,5.948
		c-0.014,0.066,0.077,0.15,0.073,0.223c-0.021,0.349,0.055,0.764-0.107,1.033c-2.086,3.467-5.392,5.587-8.684,7.686
		c-1.447,0.923-3.094,1.532-4.557,2.436c-1.95,1.205-3.794,2.579-5.724,3.818c-0.224,0.144-0.714-0.073-1.058-0.19
		c-0.29-0.098-0.548-0.293-0.819-0.445c-0.04,0.335-0.235,0.776-0.092,0.987c0.519,0.764,0.128,1.098-0.459,1.53
		c-1.882,1.384-3.169,3.24-3.912,5.437c-0.479,1.414-0.804,2.88-1.19,4.325c-0.133,0.496-0.348,0.997-0.35,1.496
		c-0.007,2.038-0.165,4.004,1.122,5.937c1.108,1.665,2.156,3.285,3.6,4.707c2.945,2.901,6.235,5.553,7.494,9.793
		c0.454,1.529,1.257,2.954,1.902,4.427c1.071,2.449,0.825,3.728-1.059,5.694c-0.151,0.158-0.17,0.443-0.251,0.669
		c0.092,0.088,0.185,0.176,0.277,0.264C71.355,77.494,72.025,77.021,72.802,76.475z M79.489,76.071
		c1.237,1.79,2.835,2.968,4.545,3.996c1.232,0.741,2.541,1.287,4.046,1.241c1.995-0.062,3.994-0.022,5.989-0.083
		c0.547-0.017,1.092-0.223,1.63-0.368c1.047-0.284,1.97-0.674,1.989-2.016c0.004-0.264,0.295-0.56,0.517-0.776
		c1.422-1.395,2.785-2.794,3.324-4.831c0.303-1.142,0.612-2.508,1.409-3.241c1.336-1.229-0.007-2.2,0.008-3.242
		c0.036-2.576-0.396-5.156-0.578-7.74c-0.141-1.987-0.215-3.981-0.262-5.974c-0.015-0.642,0.292-1.307,0.209-1.929
		c-0.456-3.389-0.98-6.77-1.512-10.148c-0.042-0.27-0.272-0.562-0.501-0.724c-0.087-0.062-0.515,0.16-0.615,0.345
		c-0.925,1.72-1.814,3.459-2.708,5.196c-0.09,0.175-0.164,0.368-0.195,0.561c-0.251,1.543-0.449,3.096-0.746,4.629
		c-0.18,0.927-0.705,1.821-0.729,2.739c-0.083,3.214-1.545,5.966-2.93,8.687c-1.145,2.247-2.748,4.261-4.171,6.363
		c-0.188,0.279-0.472,0.563-0.774,0.685c-1.165,0.468-1.627,1.649-2.508,2.412c-1.113,0.964-1.632,2.538-3.307,2.971
		C80.88,75.018,80.245,75.614,79.489,76.071z"/>
	<path fill-rule="evenodd" clip-rule="evenodd" d="M69.38,89.616c-0.219-0.522-0.422-1.008-0.582-1.389
		c2.906-0.257,5.607-0.409,8.283-0.758c2.212-0.289,4.429-0.68,6.576-1.271c1.71-0.47,3.295-1.377,4.981-1.96
		c0.993-0.344,2.087-0.386,3.114-0.65c1-0.258,1.999-0.561,2.946-0.966c0.911-0.389,1.68-0.569,2.14,0.447
		c1.749-0.331,3.412-0.655,5.081-0.951c0.204-0.036,0.485,0.014,0.646,0.136c1.216,0.924,2.358,1.953,3.625,2.799
		c1.808,1.209,3.123,2.768,4.003,4.747c0.48,1.081,1.142,2.083,1.604,3.17c0.159,0.376,0.125,1.008-0.096,1.341
		c-0.945,1.425-2.061,2.641-3.517,3.671c-1.913,1.354-4.107,1.847-6.168,2.738c-0.199,0.086-0.527,0.294-0.508,0.385
		c0.049,0.231,0.214,0.513,0.416,0.623c0.829,0.453,1.672,0.892,2.543,1.257c1.139,0.479,2.694,2.755,2.681,4.021
		c-0.002,0.119-0.01,0.25,0.034,0.354c1.228,2.951-0.216,5.488-1.409,7.97c-0.562,1.171-1.72,2.058-2.625,3.058
		c-0.123,0.137-0.408,0.31-0.507,0.257c-0.938-0.502-1.657,0.331-2.465,0.361c-1.161,0.044-2.393-0.003-3.487-0.348
		c-2.999-0.944-5.987-1.953-8.895-3.146c-2.971-1.218-5.793-2.803-8.775-3.988c-1.345-0.535-2.919-0.652-4.392-0.662
		c-1.515-0.009-3.059,0.232-4.541,0.574c-1.179,0.272-2.292,0.846-3.42,1.315c-1.619,0.674-3.214,1.406-4.844,2.05
		c-0.644,0.255-1.37,0.292-2.032,0.508c-2.501,0.818-4.956,1.811-7.499,2.462c-1.852,0.474-3.91,0.993-5.707,0.638
		c-2.997-0.594-6.055-1.602-7.639-4.653c-0.267-0.512-0.062-1.342,0.092-1.985c0.333-1.391,0.63-2.819,1.205-4.117
		c1.077-2.433,2.985-4.147,5.304-5.408c0.875-0.476,1.771-0.913,2.65-1.381c0.828-0.44,0.556-0.888-0.075-1.185
		c-2.55-1.197-5.055-2.426-7.379-4.079c-1.405-1-2.113-2.591-3.681-3.337c-0.075-0.156-0.15-0.312-0.225-0.468
		c0.324-0.156,0.683-0.265,0.963-0.478c0.841-0.639,1.252-1.414,1.509-2.54c0.331-1.451,1.315-2.768,2.097-4.097
		c0.474-0.806,1.097-1.522,1.648-2.284c0.091-0.125,0.155-0.393,0.227-0.391c1.442,0.032,2.572-1.631,4.166-0.769
		c0.115,0.062,0.292,0.008,0.56,0.008c-0.316-0.966-0.957-1.417-1.807-1.534c-0.824-0.114-1.193-0.37-0.979-1.307
		c0.171-0.753-0.08-1.421-0.95-1.757c-0.274-0.105-0.427-0.577-0.588-0.905c-0.079-0.162,0.003-0.403-0.077-0.563
		c-1.491-3-2.134-6.278-3.099-9.449c-0.708-2.327-0.447-4.689-0.021-7.049c0.631-3.499,1.828-6.809,3.656-9.821
		c1.578-2.599,3.38-5.087,5.315-7.434c0.979-1.186,2.443-1.989,3.739-2.891c1.006-0.7,2.067-1.335,3.159-1.894
		c0.362-0.185,0.893-0.042,1.347-0.048c-0.165,0.403-0.245,0.876-0.508,1.199c-1.994,2.45-2.891,5.407-3.772,8.338
		c-0.499,1.659-0.872,3.438-0.834,5.153c0.036,1.616,0.559,3.263,1.106,4.812c0.396,1.118,1.172,2.103,1.797,3.136
		c0.512,0.845,1.207,0.844,2.021,0.215c-0.17,2.514,2.07,2.563,3.33,3.475c2.941,2.129,5.937,4.157,7.095,7.848
		c0.253,0.808,0.312,1.698,0.333,2.554c0.104,4.093-1.631,7.23-4.801,9.802c-1.553,1.261-3.142,1.035-4.829,1.019
		c-0.84-0.008-1.681,0.104-2.755,0.177c-0.765-0.994-2.021-0.854-3.315-0.492c-0.052,0.124-0.105,0.248-0.157,0.373
		c0.801,0.369,1.573,0.841,2.41,1.086c1.349,0.396,2.771,0.55,4.107,0.979c1.1,0.354,2.124,0.946,3.17,1.456
		c0.688,0.334,1.334,0.758,2.036,1.057c1.044,0.445,2.157,0.74,3.171,1.242C68.197,90.462,68.814,90.273,69.38,89.616z
		 M54.266,93.695c1.5-0.804,3.015-1.58,4.494-2.421c0.846-0.481,1.658-1.034,2.421-1.636c0.128-0.101,0.046-0.782-0.139-0.915
		c-1.481-1.053-2.565-1.004-4.012,0.036c-0.448,0.322-0.914,0.675-1.428,0.843c-1.653,0.542-1.958,1.909-2.196,3.351
		c-0.13,0.786,0.237,0.923,0.892,0.715c-0.397,0.633-0.794,1.266-1.18,1.881c-0.752-0.789-1.125-0.585-2.009,1.233
		c1.088,0.113,2.172,0.282,3.259,0.317c0.603,0.02,1.212-0.185,1.818-0.287c-0.031,0.287-0.061,0.574-0.065,0.615
		c1.186,0.479,2.229,0.899,3.272,1.32c-0.697-0.058-1.381-0.097-1.406,0.842c1.288,0.239,2.517,0.469,3.835,0.714
		c-0.419,1.449,0.506,1.634,1.443,1.875c1.141,0.293,2.255,0.69,3.399,0.971c0.229,0.056,0.713-0.158,0.773-0.347
		c0.127-0.396-1.453-1.915-1.885-1.816c-1.092,0.251-1.799,0.015-1.783-1.314c-1.388-0.165-2.702-0.307-4.009-0.496
		c-0.155-0.022-0.272-0.303-0.407-0.464c2.079,0.182,3.505-1.759,5.486-1.896c0.045,0.107,0.09,0.214,0.135,0.32
		c-0.91,0.441-1.82,0.883-3.011,1.46c1.394,0.124,2.478,1.599,3.446,0.309c0.308-0.41,1.596-1.478,0.479-2.372
		c1.169-1.312,2.344-2.63,3.497-3.923c-0.87-1.11-1.226-1.183-2.163-0.575c-0.332,0.215-0.661,0.448-1.023,0.598
		c-1.896,0.786-3.808,1.533-5.703,2.323c-1.459,0.608-2.9,1.26-4.346,1.891c0.275-0.217,0.522-0.492,0.831-0.643
		c2.672-1.306,5.353-2.593,8.036-3.876c0.545-0.261,1.109-0.481,1.768-0.766c-0.425-0.313-0.675-0.582-0.983-0.712
		c-1.558-0.653-3.035-1.312-4.785-0.217c-1.765,1.106-3.728,1.898-5.619,2.798C55.057,93.595,54.645,93.611,54.266,93.695z
		 M95.459,113.43c0.566,0.494,0.989,0.967,1.506,1.293c1.434,0.905,1.853,0.729,2.33-0.849c0.872-2.88,1.885-5.694,3.98-7.96
		c0.47-0.509,0.84-1.013,0.322-1.673c-0.714-0.909-1.915-1.234-2.65-0.82c-0.227,0.127-0.617,0.14-0.857,0.034
		c-0.995-0.436-1.953-0.956-2.94-1.41c-1.799-0.825-3.566-1.746-5.424-2.415c-5.687-2.048-11.407-4.005-17.126-5.962
		c-0.412-0.142-0.967-0.114-1.381,0.037c-1.637,0.599-3.246,1.273-4.862,1.928c-1.083,0.438-1.725,1.851-1.358,3.009
		c1.092-0.539,2.184-1.079,3.276-1.618c0.038,0.377-0.036,0.583-0.178,0.659c-0.884,0.467-1.802,0.873-2.668,1.369
		c-0.308,0.177-0.503,0.551-0.75,0.835c0.423,0.119,0.843,0.315,1.269,0.328c0.249,0.007,0.506-0.28,0.909-0.526
		c-0.263,0.895-0.48,1.636-0.698,2.376c0.139,0.074,0.278,0.148,0.417,0.223c0.968-0.688,1.936-1.376,2.903-2.063
		c0.088,0.118,0.176,0.235,0.263,0.354c-0.895,0.688-1.79,1.378-2.698,2.076c1.042,1.127,1.813,0.773,2.62,0.499
		c0.924-0.315,1.867-0.607,2.825-0.777c0.384-0.068,0.83,0.216,1.356,0.371c-0.489,0.777-0.847,1.346-1.312,2.084
		c1.093,0,1.922-0.045,2.743,0.013c0.729,0.051,1.587,0.003,2.146,0.368c1.36,0.89,2.707,1.629,4.384,1.68
		c1.578,0.047,3.154,0.189,4.728,0.329c0.461,0.041,0.957,0.128,1.357,0.342c2.348,1.257,5.315,1.633,6.537,4.521
		c0.014,0.031,0.076,0.041,0.092,0.073c0.207,0.423,0.409,0.849,0.612,1.273C96.701,113.43,96.27,113.43,95.459,113.43z
		 M75.33,106.007c0.835,0.329,1.619,0.55,2.317,0.928c2.705,1.465,5.314,3.142,8.454,3.57c0.744,0.102,1.488,0.267,2.234,0.281
		c2.216,0.042,4.435,0.013,6.404,1.28c0.055,0.035,0.199-0.069,0.369-0.135c-0.675-1.39-1.342-2.611-3.188-2.601
		c-0.597,0.003-1.282-0.432-1.774-0.847c-0.784-0.66-1.604-0.965-2.621-0.927c-1.353,0.05-2.711,0.061-4.062,0.001
		c-1.342-0.06-2.691-0.175-3.701-1.264C78.797,105.255,76.801,105.088,75.33,106.007z M55.611,87.227
		c-0.602-0.146-1.182-0.345-1.775-0.409c-0.383-0.041-0.915-0.024-1.163,0.203c-2.153,1.972-5.258,2.882-6.535,5.823
		c-0.112,0.259-0.105,0.569-0.154,0.855c0.332-0.002,0.722,0.11,0.984-0.025c0.974-0.503,1.854-1.211,2.861-1.616
		C52.386,91.03,54.383,89.397,55.611,87.227z M46.875,109.902c-1.19,0.022-1.917,0.203-2.029,1.269
		c-0.114,1.083,0.639,1.407,1.428,1.57c0.734,0.152,1.541,0.259,2.261,0.112c1.235-0.25,2.438-0.684,3.628-1.112
		c0.194-0.07,0.39-0.546,0.335-0.773c-0.051-0.211-0.417-0.426-0.68-0.486c-0.372-0.084-0.777-0.007-1.166-0.036
		c-0.822-0.063-1.647-0.123-2.463-0.238C47.641,110.129,47.104,109.958,46.875,109.902z M97.554,116.691
		c-0.553-0.654-0.821-1.263-1.267-1.447c-1.642-0.682-3.304-1.47-5.031-1.731c-1.139-0.172-2.075-0.572-3.046-1.042
		c-0.493-0.238-0.937-0.599-1.448-0.771c-0.313-0.105-0.713,0.042-1.074,0.076c0.184,0.301,0.296,0.755,0.562,0.876
		c1.252,0.569,2.548,1.043,3.823,1.562c2.164,0.879,4.32,1.775,6.492,2.633C96.762,116.925,97.049,116.778,97.554,116.691z
		 M104.396,112.813c0.125,0.006,0.249,0.012,0.373,0.018c0.456-1.368,0.934-2.731,1.333-4.116c0.038-0.132-0.45-0.606-0.631-0.573
		c-0.509,0.094-1.069,0.267-1.457,0.59c-1.266,1.058-2.586,2.095-3.203,3.714C101.942,113.746,103.355,111.117,104.396,112.813z
		 M55.65,111.654c-0.267,0.246-0.484,0.461-0.715,0.658c-1.873,1.601-3.75,3.184-6.394,3.317c-0.237,0.013-0.458,0.316-0.687,0.485
		c0.268,0.172,0.539,0.492,0.803,0.486c0.61-0.014,1.214-0.201,1.825-0.289c1.255-0.18,2.512-0.342,3.881-0.525
		c-0.575-1.148-0.189-1.726,0.813-2.132C56.073,113.292,56.274,112.598,55.65,111.654z M43.238,89.081
		c0.735,0.195,1.288,0.175,1.534,0.439c0.634,0.683,0.836,0.277,1.243-0.231c0.806-1.006,1.69-1.953,2.591-2.878
		c0.471-0.483,1.044-0.865,1.571-1.294c-0.086-0.114-0.172-0.229-0.259-0.343c-0.225,0-0.498-0.083-0.667,0.014
		c-1.751,0.998-3.503,1.999-5.211,3.068C43.705,88.066,43.557,88.575,43.238,89.081z M48.053,115.188
		c0.119-0.007,0.251,0.019,0.355-0.024c0.527-0.214,1.048-0.445,1.571-0.67c-0.518-0.131-1.032-0.358-1.553-0.374
		c-2.033-0.06-3.7-0.74-4.827-2.526c-0.196-0.312-0.556-0.52-0.84-0.774c-0.035,0.43-0.188,0.892-0.085,1.285
		C43.23,114.233,45.851,115.201,48.053,115.188z M45.833,90.992c0.134,0.087,0.269,0.174,0.403,0.262
		c1.604-1.842,4.082-2.661,5.45-4.921c-0.712-0.168-1.571-0.377-1.95-0.042c-1.242,1.096-2.327,2.372-3.429,3.618
		C46.059,90.19,45.987,90.627,45.833,90.992z M52.709,91.519c-1.572,0.163-3.89,1.384-4.083,1.945
		c0.568,0.424,1.049,0.814,1.565,1.152c0.217,0.141,0.505,0.222,0.767,0.237C52.429,94.941,53.304,93.264,52.709,91.519z
		 M82.165,95.162c0.101-0.104,0.2-0.206,0.301-0.311c-0.22-0.229-0.407-0.51-0.665-0.681c-0.847-0.563-1.719-1.087-2.58-1.626
		c-0.607-0.379-1.178-0.962-1.831-1.074c-0.543-0.095-1.182,0.364-1.778,0.577c0.292,0.354,0.514,0.881,0.887,1.031
		C78.365,93.828,80.272,94.478,82.165,95.162z M40.141,111.605c-0.294,1.18,0.28,3.084,1.04,3.537
		c1.629,0.972,3.291,1.889,4.968,2.776c0.215,0.114,0.596-0.085,0.9-0.139c-0.198-0.242-0.354-0.635-0.6-0.703
		c-1.771-0.488-3.146-1.578-4.36-2.87C41.398,113.471,40.866,112.587,40.141,111.605z M46.302,107.322
		c0.36,0.284,0.476,0.455,0.597,0.459c1.298,0.039,2.597,0.07,3.895,0.046c0.124-0.003,0.359-0.408,0.339-0.606
		c-0.069-0.698-1.866-1.852-2.47-1.527C47.864,106.122,47.156,106.722,46.302,107.322z M94.39,90.338
		c-0.114-0.195-0.229-0.391-0.343-0.585c-2.062,1.173-4.132,2.335-6.175,3.54c-0.151,0.089-0.118,0.488-0.171,0.743
		C90.007,92.746,92.482,91.988,94.39,90.338z M41.593,110.254c0.853-1.607,1.59-2.998,2.458-4.634
		c-1.342,0.133-1.761,0.953-2.256,1.65C41.181,108.134,40.897,109.044,41.593,110.254z M102.722,113.7
		c-0.106-0.107-0.213-0.215-0.319-0.322c-0.834,0.494-2.355-0.331-2.532,1.372c-0.05,0.48,0.202,0.993,0.314,1.49
		c0.132-0.004,0.264-0.008,0.396-0.012C101.294,115.386,102.008,114.543,102.722,113.7z M73.176,106.678
		c0.067-0.132,0.135-0.265,0.201-0.397c-0.268-0.234-0.501-0.54-0.81-0.689c-0.998-0.482-2.014-0.936-3.049-1.331
		c-0.204-0.078-0.525,0.151-0.792,0.238c0.154,0.245,0.25,0.593,0.472,0.716c0.673,0.374,1.379,0.704,2.103,0.971
		C71.904,106.408,72.55,106.519,73.176,106.678z M58.133,80.705c0.181,0.116,0.362,0.232,0.543,0.35
		c0.904-1.208,1.82-2.408,2.695-3.637c0.091-0.128-0.062-0.43-0.103-0.651c-0.277,0.074-0.678,0.058-0.81,0.238
		c-0.561,0.769-1.047,1.592-1.552,2.401C58.641,79.833,58.391,80.271,58.133,80.705z M48.089,84.65
		c-0.045-0.189-0.091-0.38-0.136-0.569c-0.713,0-1.616-0.276-2.099,0.057c-1.023,0.706,0.255,1.26,0.301,2.123
		C46.908,85.634,47.499,85.143,48.089,84.65z M93.724,112.823c0.022-0.106,0.044-0.214,0.066-0.32
		c-1.202-0.986-3.829-1.337-4.84-0.33C90.541,112.39,92.133,112.606,93.724,112.823z M55.163,75.257
		c0.126,0.014,0.251,0.026,0.377,0.039c0.393-0.556,0.832-1.086,1.158-1.679c0.169-0.309,0.137-0.728,0.196-1.098
		c-0.309-0.005-0.755-0.142-0.901,0.01c-0.427,0.445-0.832,0.967-1.05,1.533C54.819,74.385,55.077,74.854,55.163,75.257z
		 M44.063,92.102c-1.075,0.225-1.952,0.383-2.812,0.609c-0.16,0.042-0.375,0.382-0.341,0.536c0.048,0.22,0.264,0.482,0.474,0.574
		C42.088,94.126,43.703,93.218,44.063,92.102z M56.198,82.442c0.067-0.184,0.134-0.368,0.201-0.552
		c-1.106-0.537-2.213-1.074-3.674-1.782c0.159,0.666,0.149,1.331,0.367,1.417C54.092,81.92,55.157,82.152,56.198,82.442z
		 M41.408,90.972c0.017,0.129,0.034,0.258,0.052,0.387c0.917,0,1.837,0.048,2.749-0.025c0.311-0.025,0.609-0.34,0.878-0.563
		c0.027-0.022-0.162-0.463-0.3-0.495c-0.425-0.098-1.183-0.251-1.261-0.099c-0.385,0.746-0.858,0.812-1.556,0.542
		C41.834,90.666,41.597,90.881,41.408,90.972z M102.365,108.816c0.087,0.091,0.174,0.182,0.261,0.271
		c0.888-0.855,1.776-1.711,2.842-2.735C104.137,106.16,102.714,107.487,102.365,108.816z M55.852,110.805
		c0.455,0.669,0.341,1.759,1.489,1.353c0.273-0.097,0.619-0.73,0.532-0.973C57.519,110.202,56.767,110.46,55.852,110.805z
		 M52.818,78.484c0.193,0.081,0.387,0.162,0.581,0.244c0.352-0.484,0.772-0.936,1.022-1.467c0.104-0.221-0.155-0.611-0.25-0.925
		c-0.279,0.134-0.705,0.197-0.81,0.415C53.103,77.291,52.99,77.902,52.818,78.484z M71.941,93.358
		c-0.07-0.159-0.14-0.318-0.209-0.477c-1.005,0.475-2.01,0.949-3.015,1.425c0.077,0.165,0.153,0.33,0.23,0.496
		C70.154,94.796,70.996,93.961,71.941,93.358z M41.224,62.881c-0.162,0.045-0.324,0.091-0.487,0.136
		c0.2,0.797,0.399,1.594,0.599,2.392C42.436,64.286,41.864,63.575,41.224,62.881z M49.79,109.451
		c-0.669-1.034-1.469-0.915-2.52-0.62C48.009,109.852,48.777,109.862,49.79,109.451z M52.97,112.508
		c0.043,0.067,0.086,0.136,0.129,0.204c0.501-0.526,1.039-1.026,1.458-1.612c0.055-0.076-0.501-0.59-0.875-1.016
		C53.389,111.083,53.18,111.796,52.97,112.508z M99.942,98.98c1.258-0.177,2.223-0.187,2.683-1.312
		C101.695,97.756,100.641,97.567,99.942,98.98z M74.375,103.359c-0.046-0.117-0.092-0.234-0.138-0.352
		c-0.717,0.282-1.434,0.564-2.198,0.865C73.109,105.006,73.444,104.915,74.375,103.359z M42.391,88.43
		c0.375-0.662,0.75-1.324,1.151-2.031C42.416,86.189,41.785,87.078,42.391,88.43z M76.938,107.463
		c0.115,1.291,0.942,1.79,2.104,1.268C78.34,108.308,77.639,107.886,76.938,107.463z M49.483,55.405
		c-0.21-0.158-0.421-0.315-0.631-0.473c-0.474,0.793-0.947,1.587-1.42,2.381c0.085,0.058,0.169,0.114,0.254,0.171
		C48.286,56.791,48.885,56.098,49.483,55.405z M59.537,81.638c0.131,0.187,0.261,0.374,0.392,0.561
		c0.482-0.273,0.965-0.546,1.447-0.819c-0.309-0.187-0.665-0.573-0.914-0.514C60.112,80.949,59.842,81.364,59.537,81.638z
		 M50.731,65.929c1.353-0.208,2.105-1.115,2.065-2.382C52.085,64.368,51.52,65.019,50.731,65.929z M57.792,77.827
		c1.406-0.118,1.774-0.662,1.348-1.717C58.649,76.736,58.221,77.282,57.792,77.827z M56.49,114.731
		c-0.154-0.176-0.309-0.353-0.462-0.528c-0.392,0.346-0.783,0.69-1.174,1.036c0.153,0.133,0.395,0.407,0.445,0.375
		C55.716,115.353,56.098,115.033,56.49,114.731z M62.21,71.63c0.206,0.094,0.412,0.188,0.618,0.282
		c0.198-0.421,0.408-0.839,0.564-1.275c0.009-0.025-0.408-0.204-0.626-0.312C62.581,70.76,62.396,71.195,62.21,71.63z
		 M57.349,72.595c0.359-0.646,0.631-0.943,0.662-1.264c0.018-0.19-0.343-0.417-0.533-0.627c-0.213,0.234-0.55,0.443-0.602,0.708
		C56.826,71.66,57.08,71.967,57.349,72.595z M44.979,109.514c-0.118-0.179-0.235-0.357-0.353-0.537
		c-0.348,0.22-0.725,0.408-1.021,0.683c-0.06,0.056,0.18,0.436,0.281,0.666C44.25,110.055,44.615,109.784,44.979,109.514z
		 M88.089,85.207c-0.491,0.41-0.921,0.771-1.351,1.13c0.215,0.088,0.497,0.31,0.63,0.24C87.796,86.357,88.648,86.362,88.089,85.207z
		 M45.986,60.521c-0.122-0.11-0.243-0.22-0.365-0.331c-0.41,0.504-0.82,1.008-1.229,1.512c0.125,0.118,0.249,0.235,0.374,0.354
		C45.555,61.936,45.701,61.157,45.986,60.521z M88.598,85.396c0.077,0.212,0.154,0.424,0.23,0.635
		c0.478-0.193,0.958-0.377,1.42-0.601c0.031-0.015-0.083-0.331-0.131-0.507C89.611,85.08,89.104,85.238,88.598,85.396z
		 M97.385,96.531c-0.144-0.14-0.288-0.28-0.432-0.421c-0.438,0.437-0.876,0.872-1.313,1.309c0.145,0.144,0.289,0.288,0.434,0.432
		C96.511,97.411,96.947,96.972,97.385,96.531z"/>
	<path fill-rule="evenodd" clip-rule="evenodd" d="M72.802,76.475c-0.776,0.547-1.447,1.02-2.116,1.491
		c-0.092-0.088-0.185-0.176-0.277-0.264c0.081-0.226,0.1-0.511,0.251-0.669c1.883-1.967,2.129-3.245,1.059-5.694
		c-0.645-1.473-1.448-2.897-1.902-4.427c-1.259-4.24-4.548-6.893-7.494-9.793c-1.443-1.421-2.491-3.042-3.6-4.707
		c-1.287-1.933-1.129-3.898-1.122-5.937c0.001-0.499,0.216-1,0.35-1.496c0.387-1.444,0.712-2.911,1.19-4.325
		c0.743-2.196,2.03-4.052,3.912-5.437c0.587-0.432,0.978-0.766,0.459-1.53c-0.143-0.211,0.052-0.652,0.092-0.987
		c0.271,0.152,0.529,0.347,0.819,0.445c0.344,0.117,0.834,0.333,1.058,0.19c1.93-1.239,3.774-2.614,5.724-3.818
		c1.463-0.903,3.109-1.512,4.557-2.436c3.292-2.099,6.598-4.219,8.684-7.686c0.162-0.269,0.086-0.685,0.107-1.033
		c0.004-0.073-0.087-0.157-0.073-0.223c0.433-2.047-0.32-3.988-0.633-5.948c-0.277-1.745-0.995-3.417-1.461-5.138
		c-0.138-0.508-0.08-1.068-0.111-1.604c0.16-0.054,0.321-0.107,0.481-0.161c0.334,0.349,0.714,0.666,0.996,1.053
		c1.75,2.399,3.505,4.795,5.207,7.228c1.809,2.585,3.697,5.13,5.309,7.835c3.396,5.698,3.896,11.868,2.594,18.273
		c-0.293,1.442-0.314,2.949-0.697,4.362c-1.563,5.776-3.537,11.358-7.371,16.132c-1.383,1.723-2.271,3.832-3.537,5.66
		c-1.646,2.38-3.384,4.705-5.195,6.964c-1.367,1.705-2.938,3.245-4.365,4.905c-0.908,1.057-1.56,1.011-2.266-0.268
		C73.248,77.104,73.017,76.8,72.802,76.475z M70.54,59.814c0.24,0.718,0.382,1.13,0.515,1.544c0.906,2.808,1.8,5.619,2.727,8.419
		c0.103,0.307,0.354,0.725,0.603,0.778c0.267,0.058,0.723-0.173,0.907-0.419c1.189-1.587,2.372-3.183,3.47-4.834
		c1.164-1.752,2.018-3.757,3.387-5.318c2.594-2.957,3.005-6.415,2.953-10.068c-0.015-1.08-0.612-2.16,0.057-3.246
		C85.235,46.545,85,46.229,84.909,46c-0.188,0.116-0.525,0.217-0.539,0.352c-0.156,1.547-1.409,2.413-2.196,3.552
		c-1.569,2.272-3.28,4.388-5.897,5.627c-1.571,0.744-3.034,1.745-4.468,2.742C71.251,58.66,70.906,59.354,70.54,59.814z
		 M79.691,47.982c0.712,0.27,1.268,0.667,1.777,0.614c0.374-0.039,0.754-0.628,0.998-1.05c0.107-0.185-0.074-0.584-0.212-0.841
		c-0.056-0.104-0.397-0.175-0.515-0.104C81.139,46.967,80.567,47.383,79.691,47.982z M93.375,44.677
		c-0.106,0.065-0.214,0.13-0.32,0.195c0.239,0.332,0.479,0.664,0.718,0.996c0.184-0.385,0.557-0.795,0.508-1.148
		c-0.081-0.59-0.402-1.159-0.692-1.699c-0.061-0.115-0.458-0.151-0.625-0.07c-0.105,0.052-0.142,0.412-0.084,0.594
		C93.001,43.935,93.205,44.301,93.375,44.677z M83.436,28.863c0.143-0.184,0.286-0.368,0.43-0.552
		c-0.5-0.323-0.991-0.659-1.503-0.961c-0.206-0.122-0.519-0.294-0.671-0.218c-0.204,0.1-0.403,0.417-0.41,0.646
		c-0.007,0.214,0.194,0.561,0.385,0.631C82.234,28.618,82.843,28.72,83.436,28.863z M68.29,60.023
		c0.814-1.56,0.782-1.783-0.283-2.227C67.278,59.392,67.278,59.392,68.29,60.023z M83.504,61.482
		c-0.234-0.096-0.469-0.191-0.703-0.287c-0.257,0.545-0.514,1.091-0.771,1.636c0.312,0.058,0.848,0.242,0.898,0.152
		C83.188,62.522,83.324,61.99,83.504,61.482z M61.983,42.881c0.395-0.619,0.706-1.042,0.925-1.507
		c0.042-0.089-0.279-0.35-0.433-0.531c-0.375,0.423-0.765,0.834-1.099,1.287C61.342,42.177,61.649,42.475,61.983,42.881z
		 M77.118,32.209c0.208-0.119,0.417-0.237,0.625-0.356c0.24-0.228,0.48-0.456,0.722-0.684c-0.257-0.24-0.525-0.683-0.767-0.669
		c-0.323,0.019-0.797,0.337-0.891,0.628C76.712,31.425,76.998,31.844,77.118,32.209z M73.371,48.082
		c0.171-0.067,0.341-0.134,0.512-0.202c-0.096-0.459-0.124-0.953-0.333-1.354c-0.055-0.105-0.67,0.083-1.027,0.136
		C72.806,47.135,73.088,47.608,73.371,48.082z M85.02,32.711c0.032-0.193,0.064-0.386,0.097-0.579
		c-0.536-0.187-1.064-0.408-1.615-0.536c-0.145-0.033-0.415,0.187-0.513,0.357c-0.053,0.091,0.109,0.445,0.222,0.471
		C83.805,32.556,84.415,32.622,85.02,32.711z M77.617,34.192c0.257,1.167,0.766,1.423,1.448,1.333
		c0.163-0.022,0.284-0.366,0.425-0.562C78.955,34.742,78.42,34.522,77.617,34.192z M70.096,37.423
		c0.39-0.373,0.806-0.683,0.77-0.751c-0.18-0.338-0.436-0.755-0.755-0.857c-0.192-0.061-0.551,0.407-0.835,0.637
		C69.505,36.725,69.736,36.998,70.096,37.423z M83.082,36.651c0.237-0.258,0.378-0.411,0.52-0.564
		c-0.438-0.25-0.863-0.53-1.324-0.726c-0.104-0.044-0.333,0.207-0.504,0.322C82.19,35.991,82.607,36.3,83.082,36.651z
		 M92.613,48.808c0.136-0.005,0.271-0.01,0.406-0.016c0.056-0.371,0.281-0.943,0.13-1.071c-0.312-0.266-0.825-0.295-1.256-0.422
		c-0.048,0.109-0.095,0.217-0.143,0.326C92.039,48.02,92.326,48.414,92.613,48.808z M86.569,49.042
		c-0.1,0.064-0.199,0.129-0.299,0.193c0.128,0.363,0.158,0.84,0.411,1.057c0.234,0.201,0.706,0.125,1.074,0.17
		c0.052-0.131,0.104-0.262,0.155-0.393C87.464,49.727,87.017,49.384,86.569,49.042z M63.259,45.316
		c-0.072,0.16-0.144,0.32-0.216,0.48c0.367,0.614,0.771,1.131,1.961,0.337C64.275,45.792,63.768,45.555,63.259,45.316z
		 M73.467,54.97c0.009-0.188,0.018-0.376,0.026-0.565c-0.402-0.121-0.798-0.289-1.209-0.341c-0.17-0.021-0.403,0.173-0.546,0.327
		c-0.063,0.069,0.008,0.401,0.047,0.407C72.343,54.876,72.906,54.919,73.467,54.97z M80.711,37.646
		c0.002-0.111,0.005-0.223,0.007-0.334c-0.282-0.131-0.567-0.366-0.847-0.36c-0.229,0.004-0.454,0.295-0.68,0.458
		c0.177,0.206,0.354,0.582,0.531,0.583C80.052,37.992,80.382,37.773,80.711,37.646z M81.347,32.155
		c0.057-0.197,0.113-0.394,0.17-0.59c-0.523-0.156-1.046-0.313-1.569-0.469c-0.031,0.212-0.127,0.594-0.084,0.61
		C80.346,31.888,80.849,32.014,81.347,32.155z M84.847,24.062c-0.199,0.122-0.398,0.244-0.598,0.365
		c-0.147,0.222-0.463,0.581-0.413,0.643c0.193,0.238,0.487,0.473,0.775,0.52c0.155,0.026,0.523-0.327,0.529-0.518
		C85.15,24.739,84.956,24.399,84.847,24.062z"/>
	<path fill-rule="evenodd" clip-rule="evenodd" d="M79.489,76.071c0.756-0.457,1.391-1.054,2.13-1.245
		c1.675-0.433,2.193-2.007,3.307-2.971c0.881-0.763,1.343-1.944,2.508-2.412c0.303-0.122,0.586-0.406,0.774-0.685
		c1.423-2.102,3.026-4.116,4.171-6.363c1.385-2.721,2.847-5.473,2.93-8.687c0.024-0.918,0.55-1.812,0.729-2.739
		c0.297-1.534,0.495-3.086,0.746-4.629c0.031-0.193,0.105-0.386,0.195-0.561c0.894-1.737,1.783-3.477,2.708-5.196
		c0.101-0.186,0.528-0.407,0.615-0.345c0.229,0.162,0.459,0.454,0.501,0.724c0.531,3.379,1.056,6.759,1.512,10.148
		c0.083,0.622-0.224,1.287-0.209,1.929c0.047,1.993,0.121,3.986,0.262,5.974c0.183,2.583,0.614,5.164,0.578,7.74
		c-0.015,1.042,1.328,2.012-0.008,3.242c-0.797,0.733-1.106,2.1-1.409,3.241c-0.539,2.037-1.902,3.437-3.324,4.831
		c-0.222,0.217-0.513,0.513-0.517,0.776c-0.02,1.342-0.942,1.731-1.989,2.016c-0.538,0.146-1.083,0.352-1.63,0.368
		c-1.995,0.061-3.994,0.021-5.989,0.083c-1.505,0.046-2.813-0.5-4.046-1.241C82.324,79.039,80.727,77.861,79.489,76.071z"/>
	<path fill-rule="evenodd" clip-rule="evenodd" fill="#FFFFFF" d="M95.459,113.43c0.811,0,1.242,0,1.673,0
		c-0.203-0.425-0.405-0.851-0.612-1.273c-0.016-0.032-0.078-0.042-0.092-0.073c-1.222-2.888-4.189-3.264-6.537-4.521
		c-0.4-0.214-0.896-0.301-1.357-0.342c-1.573-0.14-3.149-0.282-4.728-0.329c-1.677-0.051-3.023-0.79-4.384-1.68
		c-0.559-0.365-1.417-0.317-2.146-0.368c-0.821-0.058-1.65-0.013-2.743-0.013c0.465-0.738,0.822-1.307,1.312-2.084
		c-0.526-0.155-0.973-0.439-1.356-0.371c-0.958,0.17-1.9,0.462-2.825,0.777c-0.807,0.274-1.578,0.628-2.62-0.499
		c0.908-0.698,1.803-1.388,2.698-2.076c-0.087-0.119-0.175-0.236-0.263-0.354c-0.968,0.688-1.936,1.375-2.903,2.063
		c-0.139-0.074-0.277-0.148-0.417-0.223c0.218-0.74,0.435-1.481,0.698-2.376c-0.403,0.246-0.66,0.533-0.909,0.526
		c-0.425-0.013-0.846-0.209-1.269-0.328c0.247-0.284,0.441-0.658,0.75-0.835c0.866-0.496,1.784-0.902,2.668-1.369
		c0.143-0.076,0.216-0.282,0.178-0.659c-1.092,0.539-2.184,1.079-3.276,1.618c-0.367-1.158,0.275-2.57,1.358-3.009
		c1.616-0.654,3.225-1.329,4.862-1.928c0.414-0.151,0.969-0.179,1.381-0.037c5.719,1.957,11.439,3.914,17.126,5.962
		c1.857,0.669,3.625,1.59,5.424,2.415c0.987,0.454,1.945,0.975,2.94,1.41c0.24,0.105,0.631,0.093,0.857-0.034
		c0.735-0.414,1.937-0.089,2.65,0.82c0.518,0.66,0.147,1.164-0.322,1.673c-2.096,2.266-3.108,5.08-3.98,7.96
		c-0.478,1.577-0.896,1.754-2.33,0.849C96.448,114.396,96.025,113.924,95.459,113.43z M81.155,97.909
		c-0.569-0.495-1.676-0.294-2.787,0.591c-1.256,0.999-1.837,2.657-1.284,3.659c0.43,0.778,0.888,1,1.6,0.771
		c-1.271-1.04-1.56-2.11-0.537-3.108C78.968,99.021,80.112,98.552,81.155,97.909z"/>
	<path fill-rule="evenodd" clip-rule="evenodd" fill="#FFFFFF" d="M56.148,96.849c1.449-0.633,2.89-1.284,4.349-1.893
		c1.895-0.79,3.807-1.537,5.703-2.323c0.362-0.149,0.691-0.383,1.023-0.598c0.937-0.607,1.293-0.535,2.163,0.575
		c-1.153,1.293-2.327,2.61-3.497,3.923c1.117,0.895-0.171,1.962-0.479,2.372c-0.969,1.29-2.053-0.185-3.446-0.309
		c1.191-0.577,2.101-1.019,3.011-1.46c-0.045-0.106-0.09-0.213-0.135-0.32c-1.981,0.137-3.407,2.077-5.486,1.896l0.04,0.037
		c-1.043-0.422-2.087-0.843-3.272-1.321c0.004-0.041,0.035-0.328,0.065-0.615L56.148,96.849z"/>
	<path fill-rule="evenodd" clip-rule="evenodd" fill="#FFFFFF" d="M56.187,96.812c-0.606,0.103-1.216,0.307-1.818,0.287
		c-1.087-0.035-2.171-0.204-3.259-0.317c0.884-1.818,1.257-2.022,2.009-1.233c0.386-0.615,0.783-1.248,1.18-1.881l-0.033,0.027
		c0.38-0.084,0.792-0.101,1.134-0.264c1.891-0.899,3.854-1.691,5.619-2.798c1.75-1.096,3.227-0.437,4.785,0.217
		c0.308,0.13,0.558,0.398,0.983,0.712c-0.659,0.284-1.223,0.505-1.768,0.766c-2.683,1.283-5.364,2.57-8.036,3.876
		c-0.308,0.15-0.555,0.426-0.832,0.644C56.148,96.849,56.187,96.812,56.187,96.812z"/>
	<path fill-rule="evenodd" clip-rule="evenodd" fill="#FFFFFF" d="M75.33,106.007c1.471-0.919,3.467-0.752,4.432,0.288
		c1.01,1.089,2.359,1.204,3.701,1.264c1.352,0.06,2.71,0.049,4.062-0.001c1.018-0.038,1.837,0.267,2.621,0.927
		c0.492,0.415,1.178,0.85,1.774,0.847c1.847-0.011,2.514,1.211,3.188,2.601c-0.17,0.065-0.314,0.17-0.369,0.135
		c-1.97-1.268-4.188-1.238-6.404-1.28c-0.746-0.015-1.49-0.18-2.234-0.281c-3.14-0.429-5.749-2.105-8.454-3.57
		C76.949,106.557,76.165,106.336,75.33,106.007z"/>
	<path fill-rule="evenodd" clip-rule="evenodd" fill="#FFFFFF" d="M55.611,87.227c-1.228,2.171-3.225,3.804-5.781,4.831
		c-1.007,0.405-1.888,1.113-2.861,1.616c-0.262,0.136-0.653,0.023-0.984,0.025c0.048-0.286,0.042-0.597,0.154-0.855
		c1.276-2.941,4.382-3.852,6.535-5.823c0.249-0.228,0.78-0.244,1.163-0.203C54.429,86.882,55.009,87.081,55.611,87.227z"/>
	<path fill-rule="evenodd" clip-rule="evenodd" fill="#FFFFFF" d="M54.298,93.668c-0.655,0.208-1.022,0.071-0.892-0.715
		c0.239-1.441,0.543-2.809,2.196-3.351c0.514-0.168,0.979-0.521,1.428-0.843c1.446-1.04,2.53-1.089,4.012-0.036
		c0.186,0.133,0.267,0.814,0.139,0.915c-0.763,0.602-1.575,1.154-2.421,1.636c-1.479,0.841-2.994,1.617-4.495,2.421
		C54.265,93.695,54.298,93.668,54.298,93.668z"/>
	<path fill-rule="evenodd" clip-rule="evenodd" fill="#FFFFFF" d="M46.875,109.902c0.23,0.056,0.766,0.227,1.315,0.305
		c0.816,0.115,1.641,0.175,2.463,0.238c0.388,0.029,0.794-0.048,1.166,0.036c0.263,0.061,0.629,0.275,0.68,0.486
		c0.055,0.228-0.141,0.703-0.335,0.773c-1.19,0.429-2.393,0.862-3.628,1.112c-0.72,0.146-1.527,0.04-2.261-0.112
		c-0.79-0.163-1.542-0.487-1.428-1.57C44.958,110.105,45.685,109.925,46.875,109.902z"/>
	<path fill-rule="evenodd" clip-rule="evenodd" fill="#FFFFFF" d="M97.554,116.691c-0.505,0.087-0.792,0.233-0.989,0.155
		c-2.172-0.857-4.328-1.754-6.492-2.633c-1.275-0.519-2.571-0.992-3.823-1.562c-0.266-0.121-0.378-0.575-0.562-0.876
		c0.361-0.034,0.761-0.182,1.074-0.076c0.512,0.172,0.955,0.532,1.448,0.771c0.971,0.47,1.907,0.87,3.046,1.042
		c1.728,0.262,3.39,1.05,5.031,1.731C96.732,115.429,97.001,116.037,97.554,116.691z"/>
	<path fill-rule="evenodd" clip-rule="evenodd" fill="#FFFFFF" d="M104.396,112.813c-1.04-1.696-2.453,0.933-3.585-0.368
		c0.617-1.619,1.938-2.656,3.203-3.714c0.388-0.323,0.948-0.496,1.457-0.59c0.181-0.033,0.669,0.441,0.631,0.573
		c-0.399,1.385-0.877,2.748-1.333,4.116C104.645,112.825,104.521,112.819,104.396,112.813z"/>
	<path fill-rule="evenodd" clip-rule="evenodd" fill="#FFFFFF" d="M59.354,98.712c0.135,0.161,0.252,0.441,0.407,0.464
		c1.307,0.189,2.621,0.331,4.009,0.496c-0.016,1.329,0.691,1.565,1.783,1.314c0.432-0.099,2.012,1.42,1.885,1.816
		c-0.06,0.188-0.544,0.402-0.773,0.347c-1.144-0.28-2.258-0.678-3.399-0.971c-0.937-0.241-1.862-0.426-1.443-1.875
		c-1.318-0.245-2.547-0.475-3.835-0.714c0.025-0.938,0.709-0.899,1.406-0.842C59.394,98.749,59.354,98.712,59.354,98.712z"/>
	<path fill-rule="evenodd" clip-rule="evenodd" fill="#FFFFFF" d="M55.65,111.654c0.624,0.943,0.422,1.638-0.474,2.001
		c-1.002,0.406-1.388,0.983-0.813,2.132c-1.369,0.184-2.626,0.346-3.881,0.525c-0.611,0.088-1.215,0.275-1.825,0.289
		c-0.264,0.006-0.535-0.314-0.803-0.486c0.229-0.169,0.45-0.473,0.687-0.485c2.644-0.134,4.521-1.717,6.394-3.317
		C55.167,112.115,55.384,111.9,55.65,111.654z"/>
	<path fill-rule="evenodd" clip-rule="evenodd" fill="#FFFFFF" d="M43.238,89.081c0.319-0.506,0.467-1.015,0.802-1.225
		c1.708-1.069,3.459-2.07,5.211-3.068c0.169-0.097,0.442-0.014,0.667-0.014c0.086,0.114,0.173,0.229,0.259,0.343
		c-0.527,0.429-1.1,0.811-1.571,1.294c-0.9,0.925-1.785,1.872-2.591,2.878c-0.407,0.509-0.609,0.914-1.243,0.231
		C44.526,89.256,43.973,89.276,43.238,89.081z"/>
	<path fill-rule="evenodd" clip-rule="evenodd" fill="#FFFFFF" d="M48.053,115.188c-2.202,0.013-4.823-0.955-5.379-3.085
		c-0.103-0.394,0.05-0.855,0.085-1.285c0.284,0.255,0.644,0.463,0.84,0.774c1.127,1.786,2.794,2.467,4.827,2.526
		c0.521,0.016,1.036,0.243,1.553,0.374c-0.523,0.225-1.043,0.456-1.571,0.67C48.304,115.206,48.172,115.181,48.053,115.188z"/>
	<path fill-rule="evenodd" clip-rule="evenodd" fill="#FFFFFF" d="M45.833,90.992c0.153-0.365,0.225-0.802,0.474-1.083
		c1.102-1.246,2.188-2.522,3.429-3.618c0.379-0.335,1.237-0.126,1.95,0.042c-1.368,2.26-3.846,3.079-5.45,4.921
		C46.102,91.166,45.968,91.079,45.833,90.992z"/>
	<path fill-rule="evenodd" clip-rule="evenodd" fill="#FFFFFF" d="M52.709,91.519c0.595,1.745-0.28,3.423-1.751,3.335
		c-0.261-0.016-0.55-0.097-0.767-0.237c-0.516-0.338-0.997-0.729-1.565-1.152C48.819,92.902,51.137,91.682,52.709,91.519z"/>
	<path fill-rule="evenodd" clip-rule="evenodd" fill="#FFFFFF" d="M82.165,95.162c-1.893-0.685-3.8-1.334-5.667-2.083
		c-0.373-0.15-0.595-0.678-0.887-1.031c0.597-0.213,1.235-0.672,1.778-0.577c0.653,0.112,1.224,0.695,1.831,1.074
		c0.861,0.539,1.733,1.062,2.58,1.626c0.258,0.171,0.445,0.451,0.665,0.681C82.365,94.956,82.266,95.059,82.165,95.162z"/>
	<path fill-rule="evenodd" clip-rule="evenodd" fill="#FFFFFF" d="M40.141,111.605c0.726,0.981,1.258,1.865,1.948,2.602
		c1.214,1.292,2.588,2.382,4.36,2.87c0.246,0.068,0.402,0.461,0.6,0.703c-0.304,0.054-0.685,0.253-0.9,0.139
		c-1.677-0.888-3.339-1.805-4.968-2.776C40.42,114.689,39.847,112.785,40.141,111.605z"/>
	<path fill-rule="evenodd" clip-rule="evenodd" fill="#FFFFFF" d="M46.302,107.322c0.854-0.601,1.562-1.2,2.362-1.629
		c0.604-0.324,2.4,0.829,2.47,1.527c0.02,0.198-0.215,0.604-0.339,0.606c-1.298,0.024-2.597-0.007-3.895-0.046
		C46.778,107.777,46.663,107.606,46.302,107.322z"/>
	<path fill-rule="evenodd" clip-rule="evenodd" fill="#FFFFFF" d="M94.39,90.338c-1.907,1.65-4.383,2.408-6.688,3.698
		c0.053-0.255,0.02-0.654,0.171-0.743c2.043-1.205,4.112-2.367,6.175-3.54C94.161,89.947,94.275,90.143,94.39,90.338z"/>
	<path fill-rule="evenodd" clip-rule="evenodd" fill="#FFFFFF" d="M41.593,110.254c-0.696-1.21-0.412-2.12,0.202-2.983
		c0.495-0.697,0.915-1.518,2.256-1.65C43.183,107.256,42.445,108.646,41.593,110.254z"/>
	<path fill-rule="evenodd" clip-rule="evenodd" fill="#FFFFFF" d="M102.722,113.7c-0.714,0.843-1.428,1.686-2.142,2.528
		c-0.132,0.004-0.264,0.008-0.396,0.012c-0.112-0.497-0.364-1.01-0.314-1.49c0.177-1.703,1.698-0.878,2.532-1.372
		C102.509,113.485,102.615,113.593,102.722,113.7z"/>
	<path fill-rule="evenodd" clip-rule="evenodd" fill="#FFFFFF" d="M73.176,106.678c-0.626-0.159-1.271-0.27-1.875-0.493
		c-0.723-0.267-1.429-0.597-2.103-0.971c-0.222-0.123-0.318-0.471-0.472-0.716c0.267-0.087,0.588-0.316,0.792-0.238
		c1.035,0.396,2.051,0.849,3.049,1.331c0.309,0.149,0.542,0.455,0.81,0.689C73.311,106.413,73.243,106.546,73.176,106.678z"/>
	<path fill-rule="evenodd" clip-rule="evenodd" fill="#FFFFFF" d="M58.133,80.705c0.257-0.434,0.507-0.872,0.774-1.299
		c0.505-0.81,0.991-1.633,1.552-2.401c0.132-0.181,0.533-0.164,0.81-0.238c0.04,0.222,0.193,0.523,0.103,0.651
		c-0.875,1.229-1.791,2.429-2.695,3.637C58.496,80.938,58.314,80.821,58.133,80.705z"/>
	<path fill-rule="evenodd" clip-rule="evenodd" fill="#FFFFFF" d="M48.089,84.65c-0.59,0.492-1.181,0.983-1.934,1.61
		c-0.046-0.863-1.324-1.417-0.301-2.123c0.483-0.333,1.386-0.057,2.099-0.057C47.999,84.271,48.044,84.461,48.089,84.65z"/>
	<path fill-rule="evenodd" clip-rule="evenodd" fill="#FFFFFF" d="M93.724,112.823c-1.591-0.217-3.183-0.434-4.773-0.65
		c1.011-1.007,3.638-0.656,4.84,0.33C93.768,112.609,93.746,112.717,93.724,112.823z"/>
	<path fill-rule="evenodd" clip-rule="evenodd" fill="#FFFFFF" d="M55.163,75.257c-0.086-0.402-0.344-0.872-0.22-1.194
		c0.219-0.566,0.624-1.088,1.05-1.533c0.146-0.151,0.592-0.015,0.901-0.01c-0.059,0.37-0.027,0.789-0.196,1.098
		c-0.326,0.593-0.765,1.123-1.158,1.679C55.415,75.283,55.289,75.271,55.163,75.257z"/>
	<path fill-rule="evenodd" clip-rule="evenodd" fill="#FFFFFF" d="M44.063,92.102c-0.36,1.116-1.975,2.024-2.679,1.72
		c-0.21-0.092-0.426-0.354-0.474-0.574c-0.034-0.154,0.181-0.494,0.341-0.536C42.111,92.484,42.988,92.326,44.063,92.102z"/>
	<path fill-rule="evenodd" clip-rule="evenodd" fill="#FFFFFF" d="M56.198,82.442c-1.042-0.29-2.106-0.522-3.106-0.917
		c-0.218-0.086-0.208-0.751-0.367-1.417c1.461,0.708,2.567,1.245,3.674,1.782C56.332,82.074,56.265,82.259,56.198,82.442z"/>
	<path fill-rule="evenodd" clip-rule="evenodd" fill="#FFFFFF" d="M41.408,90.972c0.189-0.091,0.426-0.306,0.561-0.254
		c0.698,0.271,1.171,0.204,1.556-0.542c0.079-0.152,0.836,0.001,1.261,0.099c0.138,0.032,0.327,0.473,0.3,0.495
		c-0.269,0.224-0.567,0.538-0.878,0.563c-0.911,0.073-1.832,0.025-2.749,0.025C41.442,91.229,41.425,91.101,41.408,90.972z"/>
	<path fill-rule="evenodd" clip-rule="evenodd" fill="#FFFFFF" d="M102.365,108.816c0.349-1.329,1.771-2.656,3.103-2.464
		c-1.065,1.024-1.954,1.88-2.842,2.735C102.539,108.998,102.452,108.907,102.365,108.816z"/>
	<path fill-rule="evenodd" clip-rule="evenodd" fill="#FFFFFF" d="M55.852,110.805c0.915-0.345,1.667-0.603,2.021,0.38
		c0.087,0.242-0.259,0.876-0.532,0.973C56.193,112.563,56.307,111.474,55.852,110.805z"/>
	<path fill-rule="evenodd" clip-rule="evenodd" fill="#FFFFFF" d="M52.818,78.484c0.172-0.582,0.285-1.193,0.544-1.732
		c0.104-0.218,0.53-0.281,0.81-0.415c0.094,0.313,0.354,0.704,0.25,0.925c-0.25,0.531-0.671,0.982-1.022,1.467
		C53.206,78.646,53.012,78.565,52.818,78.484z"/>
	<path fill-rule="evenodd" clip-rule="evenodd" fill="#FFFFFF" d="M71.941,93.358c-0.945,0.603-1.787,1.438-2.995,1.444
		c-0.077-0.166-0.153-0.331-0.23-0.496c1.005-0.476,2.01-0.95,3.015-1.425C71.801,93.04,71.871,93.199,71.941,93.358z"/>
	<path fill-rule="evenodd" clip-rule="evenodd" fill="#FFFFFF" d="M41.224,62.881c0.64,0.694,1.212,1.405,0.112,2.528
		c-0.2-0.797-0.399-1.595-0.599-2.392C40.899,62.972,41.062,62.926,41.224,62.881z"/>
	<path fill-rule="evenodd" clip-rule="evenodd" fill="#FFFFFF" d="M49.79,109.451c-1.013,0.411-1.781,0.4-2.52-0.62
		C48.321,108.536,49.121,108.417,49.79,109.451z"/>
	<path fill-rule="evenodd" clip-rule="evenodd" fill="#FFFFFF" d="M52.97,112.508c0.209-0.712,0.419-1.425,0.712-2.424
		c0.374,0.426,0.93,0.939,0.875,1.016c-0.419,0.586-0.957,1.086-1.458,1.612C53.056,112.644,53.013,112.575,52.97,112.508z"/>
	<path fill-rule="evenodd" clip-rule="evenodd" fill="#FFFFFF" d="M99.942,98.98c0.698-1.413,1.753-1.225,2.683-1.312
		C102.165,98.794,101.2,98.804,99.942,98.98z"/>
	<path fill-rule="evenodd" clip-rule="evenodd" fill="#FFFFFF" d="M74.375,103.359c-0.931,1.556-1.266,1.646-2.336,0.514
		c0.765-0.301,1.481-0.583,2.198-0.865C74.283,103.125,74.329,103.242,74.375,103.359z"/>
	<path fill-rule="evenodd" clip-rule="evenodd" fill="#FFFFFF" d="M42.391,88.43c-0.606-1.352,0.024-2.24,1.151-2.031
		C43.142,87.105,42.766,87.768,42.391,88.43z"/>
	<path fill-rule="evenodd" clip-rule="evenodd" fill="#FFFFFF" d="M76.938,107.463c0.701,0.423,1.402,0.845,2.104,1.268
		C77.88,109.253,77.053,108.754,76.938,107.463z"/>
	<path fill-rule="evenodd" clip-rule="evenodd" fill="#FFFFFF" d="M49.483,55.405c-0.599,0.693-1.197,1.386-1.796,2.08
		c-0.085-0.057-0.169-0.114-0.254-0.171c0.473-0.793,0.946-1.587,1.42-2.381C49.062,55.089,49.273,55.247,49.483,55.405z"/>
	<path fill-rule="evenodd" clip-rule="evenodd" fill="#FFFFFF" d="M59.537,81.638c0.305-0.273,0.575-0.688,0.925-0.772
		c0.25-0.06,0.605,0.327,0.914,0.514c-0.482,0.273-0.965,0.546-1.447,0.819C59.798,82.012,59.668,81.824,59.537,81.638z"/>
	<path fill-rule="evenodd" clip-rule="evenodd" fill="#FFFFFF" d="M50.731,65.929c0.789-0.91,1.354-1.562,2.065-2.382
		C52.837,64.814,52.084,65.722,50.731,65.929z"/>
	<path fill-rule="evenodd" clip-rule="evenodd" fill="#FFFFFF" d="M57.792,77.827c0.428-0.545,0.856-1.091,1.348-1.717
		C59.566,77.165,59.198,77.709,57.792,77.827z"/>
	<path fill-rule="evenodd" clip-rule="evenodd" fill="#FFFFFF" d="M56.49,114.731c-0.393,0.302-0.774,0.621-1.191,0.883
		c-0.05,0.032-0.292-0.242-0.445-0.375c0.391-0.346,0.783-0.69,1.174-1.036C56.182,114.379,56.336,114.556,56.49,114.731z"/>
	<path fill-rule="evenodd" clip-rule="evenodd" fill="#FFFFFF" d="M62.21,71.63c0.186-0.435,0.371-0.87,0.556-1.305
		c0.219,0.107,0.636,0.286,0.626,0.312c-0.157,0.436-0.366,0.854-0.564,1.275C62.623,71.817,62.417,71.724,62.21,71.63z"/>
	<path fill-rule="evenodd" clip-rule="evenodd" fill="#FFFFFF" d="M57.349,72.595c-0.269-0.627-0.522-0.935-0.474-1.183
		c0.052-0.265,0.389-0.475,0.602-0.708c0.19,0.21,0.551,0.438,0.533,0.627C57.979,71.651,57.708,71.948,57.349,72.595z"/>
	<path fill-rule="evenodd" clip-rule="evenodd" fill="#FFFFFF" d="M44.979,109.514c-0.364,0.271-0.729,0.541-1.093,0.812
		c-0.102-0.23-0.341-0.61-0.281-0.666c0.297-0.274,0.673-0.463,1.021-0.683C44.744,109.156,44.862,109.335,44.979,109.514z"/>
	<path fill-rule="evenodd" clip-rule="evenodd" fill="#FFFFFF" d="M88.089,85.207c0.56,1.155-0.293,1.15-0.721,1.37
		c-0.133,0.069-0.415-0.152-0.63-0.24C87.168,85.978,87.598,85.617,88.089,85.207z"/>
	<path fill-rule="evenodd" clip-rule="evenodd" fill="#FFFFFF" d="M45.986,60.521c-0.285,0.636-0.431,1.415-1.221,1.535
		c-0.125-0.118-0.249-0.236-0.374-0.354c0.41-0.504,0.82-1.008,1.229-1.512C45.743,60.301,45.864,60.411,45.986,60.521z"/>
	<path fill-rule="evenodd" clip-rule="evenodd" fill="#FFFFFF" d="M88.598,85.396c0.506-0.157,1.014-0.315,1.52-0.473
		c0.048,0.176,0.162,0.492,0.131,0.507c-0.462,0.224-0.942,0.407-1.42,0.601C88.752,85.819,88.675,85.607,88.598,85.396z"/>
	<path fill-rule="evenodd" clip-rule="evenodd" fill="#FFFFFF" d="M97.385,96.531c-0.438,0.44-0.874,0.88-1.312,1.319
		c-0.145-0.144-0.289-0.288-0.434-0.432c0.438-0.437,0.876-0.872,1.313-1.309C97.097,96.251,97.241,96.392,97.385,96.531z"/>
	<path fill-rule="evenodd" clip-rule="evenodd" fill="#FFFFFF" d="M70.54,59.814c0.366-0.46,0.711-1.154,1.269-1.542
		c1.434-0.997,2.896-1.998,4.468-2.742c2.617-1.239,4.328-3.355,5.897-5.627c0.787-1.139,2.04-2.005,2.196-3.552
		c0.014-0.134,0.352-0.235,0.539-0.352c0.091,0.228,0.326,0.545,0.249,0.67c-0.669,1.086-0.071,2.167-0.057,3.246
		c0.052,3.653-0.359,7.111-2.953,10.068c-1.369,1.561-2.223,3.565-3.387,5.318c-1.098,1.651-2.28,3.247-3.47,4.834
		c-0.185,0.246-0.641,0.477-0.907,0.419c-0.249-0.053-0.5-0.471-0.603-0.778c-0.927-2.8-1.821-5.612-2.727-8.419
		C70.922,60.944,70.78,60.532,70.54,59.814z"/>
	<path fill-rule="evenodd" clip-rule="evenodd" fill="#FFFFFF" d="M79.691,47.982c0.876-0.599,1.447-1.015,2.049-1.381
		c0.117-0.071,0.459,0,0.515,0.104c0.138,0.256,0.319,0.656,0.212,0.841c-0.244,0.421-0.624,1.011-0.998,1.05
		C80.959,48.648,80.403,48.252,79.691,47.982z"/>
	<path fill-rule="evenodd" clip-rule="evenodd" fill="#FFFFFF" d="M93.375,44.677c-0.17-0.376-0.374-0.742-0.496-1.132
		c-0.058-0.183-0.021-0.542,0.084-0.594c0.167-0.081,0.564-0.044,0.625,0.07c0.29,0.541,0.611,1.109,0.692,1.699
		c0.049,0.353-0.324,0.763-0.508,1.148c-0.239-0.332-0.479-0.664-0.718-0.996C93.161,44.807,93.269,44.742,93.375,44.677z"/>
	<path fill-rule="evenodd" clip-rule="evenodd" fill="#FFFFFF" d="M83.436,28.863c-0.593-0.144-1.201-0.245-1.77-0.454
		c-0.19-0.07-0.392-0.417-0.385-0.631c0.007-0.229,0.206-0.546,0.41-0.646c0.152-0.076,0.465,0.097,0.671,0.218
		c0.512,0.302,1.003,0.638,1.503,0.961C83.722,28.495,83.578,28.679,83.436,28.863z"/>
	<path fill-rule="evenodd" clip-rule="evenodd" fill="#FFFFFF" d="M68.29,60.023c-1.011-0.631-1.011-0.631-0.283-2.227
		C69.071,58.241,69.104,58.464,68.29,60.023z"/>
	<path fill-rule="evenodd" clip-rule="evenodd" fill="#FFFFFF" d="M83.504,61.482c-0.18,0.508-0.315,1.04-0.576,1.502
		c-0.051,0.089-0.586-0.095-0.898-0.152c0.258-0.545,0.515-1.091,0.771-1.636C83.035,61.291,83.27,61.386,83.504,61.482z"/>
	<path fill-rule="evenodd" clip-rule="evenodd" fill="#FFFFFF" d="M61.983,42.881c-0.334-0.407-0.642-0.705-0.607-0.751
		c0.334-0.453,0.725-0.864,1.099-1.287c0.154,0.182,0.475,0.442,0.433,0.531C62.689,41.84,62.378,42.262,61.983,42.881z"/>
	<path fill-rule="evenodd" clip-rule="evenodd" fill="#FFFFFF" d="M77.118,32.209c-0.12-0.365-0.406-0.785-0.311-1.081
		c0.094-0.291,0.567-0.609,0.891-0.628c0.241-0.014,0.51,0.429,0.767,0.669c-0.241,0.228-0.481,0.456-0.722,0.684
		C77.535,31.972,77.326,32.091,77.118,32.209z"/>
	<path fill-rule="evenodd" clip-rule="evenodd" fill="#FFFFFF" d="M73.371,48.082c-0.283-0.473-0.565-0.946-0.849-1.419
		c0.357-0.053,0.973-0.241,1.027-0.136c0.209,0.4,0.237,0.895,0.333,1.354C73.712,47.947,73.542,48.014,73.371,48.082z"/>
	<path fill-rule="evenodd" clip-rule="evenodd" fill="#FFFFFF" d="M85.02,32.711c-0.604-0.089-1.215-0.155-1.81-0.288
		c-0.112-0.025-0.274-0.379-0.222-0.471c0.098-0.17,0.368-0.39,0.513-0.357c0.551,0.128,1.079,0.35,1.615,0.536
		C85.084,32.325,85.052,32.518,85.02,32.711z"/>
	<path fill-rule="evenodd" clip-rule="evenodd" fill="#FFFFFF" d="M77.617,34.192c0.803,0.33,1.338,0.55,1.873,0.771
		c-0.141,0.195-0.262,0.54-0.425,0.562C78.383,35.615,77.874,35.359,77.617,34.192z"/>
	<path fill-rule="evenodd" clip-rule="evenodd" fill="#FFFFFF" d="M70.096,37.423c-0.359-0.425-0.59-0.698-0.821-0.971
		c0.284-0.23,0.643-0.698,0.835-0.637c0.32,0.102,0.575,0.519,0.755,0.857C70.902,36.74,70.485,37.05,70.096,37.423z"/>
	<path fill-rule="evenodd" clip-rule="evenodd" fill="#FFFFFF" d="M83.082,36.651c-0.475-0.351-0.892-0.66-1.309-0.968
		c0.171-0.115,0.4-0.366,0.504-0.322c0.461,0.195,0.886,0.476,1.324,0.726C83.46,36.24,83.319,36.393,83.082,36.651z"/>
	<path fill-rule="evenodd" clip-rule="evenodd" fill="#FFFFFF" d="M92.613,48.808c-0.287-0.395-0.574-0.789-0.862-1.183
		c0.048-0.109,0.095-0.217,0.143-0.326c0.431,0.127,0.943,0.157,1.256,0.422c0.151,0.128-0.074,0.7-0.13,1.071
		C92.884,48.798,92.749,48.803,92.613,48.808z"/>
	<path fill-rule="evenodd" clip-rule="evenodd" fill="#FFFFFF" d="M86.569,49.042c0.447,0.342,0.895,0.685,1.342,1.027
		c-0.052,0.131-0.104,0.262-0.155,0.393c-0.368-0.045-0.84,0.031-1.074-0.17c-0.253-0.217-0.283-0.694-0.411-1.057
		C86.37,49.17,86.47,49.106,86.569,49.042z"/>
	<path fill-rule="evenodd" clip-rule="evenodd" fill="#FFFFFF" d="M63.259,45.316c0.508,0.238,1.016,0.476,1.746,0.818
		c-1.191,0.793-1.595,0.277-1.961-0.337C63.115,45.637,63.187,45.477,63.259,45.316z"/>
	<path fill-rule="evenodd" clip-rule="evenodd" fill="#FFFFFF" d="M73.467,54.97c-0.561-0.051-1.124-0.094-1.681-0.172
		c-0.04-0.006-0.111-0.338-0.047-0.407c0.143-0.154,0.376-0.349,0.546-0.327c0.411,0.052,0.807,0.22,1.209,0.341
		C73.484,54.594,73.476,54.782,73.467,54.97z"/>
	<path fill-rule="evenodd" clip-rule="evenodd" fill="#FFFFFF" d="M80.711,37.646c-0.329,0.127-0.659,0.346-0.988,0.346
		c-0.178,0-0.354-0.376-0.531-0.583c0.226-0.164,0.45-0.454,0.68-0.458c0.279-0.005,0.564,0.229,0.847,0.36
		C80.716,37.423,80.713,37.535,80.711,37.646z"/>
	<path fill-rule="evenodd" clip-rule="evenodd" fill="#FFFFFF" d="M81.347,32.155c-0.498-0.141-1.001-0.267-1.483-0.449
		c-0.043-0.016,0.053-0.398,0.084-0.61c0.523,0.156,1.046,0.313,1.569,0.469C81.46,31.762,81.403,31.958,81.347,32.155z"/>
	<path fill-rule="evenodd" clip-rule="evenodd" fill="#FFFFFF" d="M84.847,24.062c0.109,0.337,0.304,0.677,0.294,1.011
		c-0.006,0.19-0.374,0.543-0.529,0.518c-0.288-0.047-0.582-0.282-0.775-0.52c-0.05-0.062,0.266-0.421,0.413-0.643
		C84.448,24.306,84.647,24.184,84.847,24.062z"/>
	<path fill-rule="evenodd" clip-rule="evenodd" d="M81.155,97.909c-1.043,0.643-2.188,1.112-3.009,1.913
		c-1.022,0.998-0.734,2.068,0.537,3.108c-0.712,0.229-1.17,0.007-1.6-0.771c-0.553-1.002,0.028-2.66,1.284-3.659
		C79.479,97.615,80.586,97.414,81.155,97.909z"/>
</g>
</svg>
