<?xml version="1.0" encoding="utf-8"?>
<!-- Generator: Adobe Illustrator 16.0.0, SVG Export Plug-In . SVG Version: 6.00 Build 0)  -->
<!DOCTYPE svg PUBLIC "-//W3C//DTD SVG 1.1//EN" "http://www.w3.org/Graphics/SVG/1.1/DTD/svg11.dtd">
<svg version="1.1" id="Layer_1" xmlns="http://www.w3.org/2000/svg" xmlns:xlink="http://www.w3.org/1999/xlink" x="0px" y="0px"
	 width="144px" height="144px" viewBox="0 0 144 144" enable-background="new 0 0 144 144" xml:space="preserve">
<g>
	<path fill="#FFFFFF" d="M49.638,112.064c-0.648,0.056-0.94-0.176-0.905-0.891c0.046-0.947,0.778-1.47,2.048-1.544
		c1.971-0.116,3.94-0.299,5.904-0.515c3.746-0.413,7.485-0.881,11.23-1.301c1.851-0.207,3.708-0.359,5.606-0.54
		c-2.106,0-4.164-0.053-6.217,0.012c-2.979,0.095-5.963,0.17-8.928,0.442c-3.774,0.347-7.532,0.877-11.294,1.342
		c-0.343,0.042-0.742,0.103-0.993,0.306c-0.519,0.419-0.956,0.938-1.317,1.306c0.066-0.003,0.404-0.008,0.738-0.045
		c0.275-0.029,0.547-0.095,0.82-0.148c1.296-0.251,1.684,0.09,1.69,1.543c-0.901,0.168-1.814,0.338-2.727,0.509
		c0.003,0.114,0.006,0.228,0.01,0.341c0.839-0.092,1.677-0.185,2.545-0.28c-0.044,0.649-0.077,1.12-0.109,1.591
		c0.112,0.025,0.225,0.051,0.337,0.076c0.463-0.775,0.472-1.897,1.55-2.203c3.163-0.084,6.328-0.116,9.487-0.265
		c3.404-0.158,6.803-0.423,10.204-0.646c0.83-0.055,1.432,0.174,1.382,1.239c0.399-0.566,0.706-1,1.003-1.422
		c0.001,0-0.108-0.045-0.215-0.039c-3.772,0.177-7.544,0.348-11.315,0.543C56.66,111.657,53.149,111.867,49.638,112.064z
		 M83.417,73.615c-1.186-0.756-2.115-1.52-3.176-1.991c-2.283-1.015-4.587-2.026-6.968-2.762c-2.396-0.741-4.734-1.887-7.381-1.612
		c-0.275,0.029-0.876-0.535-0.877-0.826c-0.006-1.745-0.15-3.558,0.265-5.219c0.604-2.418,1.602-4.744,2.512-7.078
		c0.694-1.779,1.5-3.516,2.293-5.254c0.111-0.244,0.423-0.418,0.678-0.556c0.058-0.031,0.31,0.196,0.404,0.347
		c0.666,1.06,1.239,2.184,1.981,3.185c1.344,1.811,3.197,2.682,5.467,2.65c2.948-0.041,5.16-1.475,7.166-3.518
		c2.913-2.967,3.291-6.331,1.983-10.083c-0.101-0.288-0.085-0.615-0.124-0.924c0.31,0.101,0.675,0.129,0.921,0.315
		c1.196,0.908,2.319,1.021,3.535,0.316c2.495-1.449,4.446-3.421,5.859-5.944c1.138-2.032,0.66-4.507-1.08-6.017
		c-1.78-1.545-3.949-2.18-6.102-2.895c-0.413-0.137-0.813-0.315-1.348-0.525c0.311-0.348,0.462-0.524,0.619-0.695
		c1.314-1.43,2.776-2.753,3.909-4.314c1.535-2.114,0.057-5.5-2.327-5.505c-1.297-0.003-2.649,0.139-3.879,0.527
		c-2.563,0.808-5.057,1.836-7.597,2.722c-0.172,0.06-0.727-0.332-0.712-0.473c0.202-2.002-1.098-3.259-2.512-4.002
		c-2.981-1.569-6.207-2.407-9.5-0.824c-2.421,1.165-4.686,2.47-3.095,6.452c0.224,0.561,0.244,1.203,0.428,2.181
		c-0.679-0.364-1.056-0.518-1.379-0.746c-2.984-2.108-6.146-3.54-9.904-2.479c-1.171,0.33-2.355,0.72-3.426,1.287
		c-2.58,1.366-4.333,3.44-4.871,6.386c-0.275,1.503,0.031,2.155,1.294,2.848c2.267,1.245,4.694,1.986,7.285,1.974
		c2.187-0.01,4.373-0.196,6.561-0.272c0.274-0.009,0.555,0.174,0.833,0.269c-0.167,0.231-0.285,0.55-0.51,0.679
		c-1.41,0.804-2.896,1.485-4.257,2.362c-1.855,1.195-3.858,2.241-5.055,4.243c-1.245,2.082-0.748,4.251,1.472,5.141
		c0.876,0.352,2.089,0.087,3.091-0.146c1.686-0.392,1.645-0.359,1.61,1.376c-0.024,1.257,0.056,2.845,0.778,3.713
		c1.194,1.436,3.134,1.899,5.027,1.432c1.562-0.386,3.098-0.946,4.352-2.061c0.319-0.284,0.718-0.503,1.115-0.667
		c0.484-0.2,1.005-0.309,1.51-0.458c-0.158,0.484-0.288,0.98-0.479,1.451c-1.268,3.119-2.546,6.234-3.83,9.347
		c-0.314,0.764-0.661,1.514-1.114,2.549c-0.208-0.521-0.306-0.639-0.286-0.733c0.63-3.016,0.778-6.149,2.182-8.98
		c0.094-0.189,0.033-0.455,0.043-0.685c-0.203,0.134-0.499,0.223-0.591,0.411c-0.312,0.639-0.642,1.292-0.806,1.978
		c-0.767,3.199-1.487,6.41-2.21,9.62c-0.273,1.212-0.878,2.005-2.193,2.274c-0.756,0.155-1.526,0.521-2.153,0.978
		c-2.875,2.1-5.792,4.167-8.006,7.02c-0.544,0.701-0.992,1.478-1.548,2.318c1.645,0,2.979-0.01,4.314,0.002
		c1.581,0.015,2.824-0.743,3.898-1.781c1.824-1.762,3.25-3.796,4.071-6.231c0.14-0.415,0.557-0.737,0.846-1.102
		c0.117,0.052,0.233,0.104,0.35,0.157c0,0.421-0.053,0.85,0.009,1.261c0.371,2.466,0.545,4.99,1.202,7.38
		c1.634,5.948,5.07,10.951,8.684,15.858c1.3,1.766,2.377,3.735,3.294,5.732c1.664,3.625,1.628,7.467,0.894,11.324
		c-0.658,0.194-1.405,0.415-2.167,0.64c0.924,0.863,1.813,0.147,2.727,0.076c2.697-0.209,5.404-0.296,8.108-0.427
		c1.791-0.086,3.588-0.104,5.373-0.257c5.031-0.433,10.057-0.925,15.086-1.38c0.925-0.084,1.383,0.414,1.258,1.229
		c-0.036,0.238,0.091,0.501,0.143,0.753c0.232-0.196,0.559-0.348,0.68-0.598c0.332-0.69,0.578-1.423,0.896-2.232
		c-1.373,0.115-2.705,0.203-4.032,0.343c-3.467,0.364-6.927,0.811-10.398,1.112c-3.286,0.285-6.584,0.437-9.877,0.631
		c-1.78,0.104-3.562,0.176-5.407,0.265c0.206-1.344,0.425-2.492,0.546-3.651c0.094-0.893-0.053-1.821,0.115-2.694
		c0.435-2.262-0.271-4.341-1.301-6.184c-1.403-2.513-3.217-4.795-4.835-7.189c-2.32-3.435-5.141-6.554-6.626-10.514
		c-0.525-1.399-1.162-2.772-1.526-4.213c-0.266-1.053-0.17-2.198-0.252-3.59c0.454,0.36,0.661,0.469,0.792,0.637
		c1.27,1.624,2.367,3.422,3.83,4.845c1.799,1.75,4.114,2.588,6.681,2.062c1.859-0.381,3.689-0.914,5.511-1.454
		C82.609,74.408,82.944,73.979,83.417,73.615z M83.854,126.454c-1.348-0.233-1.85-1.015-1.698-2.295
		c0.089-0.752,0.107-1.512,0.18-2.266c0.24-2.5,0.617-4.98-0.746-7.355c-1.279-2.229-4.215-2.984-6.114-1.323
		c-0.994,0.869-2.086,1.829-1.487,3.479c0.08,0.219-0.167,0.646-0.378,0.864c-0.705,0.729-1.462,1.408-2.199,2.106
		c0.062,0.079,0.123,0.157,0.185,0.235c1.101-0.833,2.203-1.666,3.348-2.532c2.509,2.195,3.489,4.922,3.665,8.031
		c-0.458,0-0.929-0.133-1.058,0.021c-1.204,1.433-2.35,2.914-3.512,4.382c0.074,0.063,0.147,0.127,0.222,0.19
		c1.271-1.44,2.543-2.88,3.814-4.32c0.13,0.073,0.26,0.146,0.39,0.221c-0.059,0.442-0.054,0.904-0.185,1.323
		c-0.542,1.737-1.117,3.464-1.702,5.186c-0.067,0.198-0.252,0.464-0.426,0.502c-1.152,0.252-2.316,0.457-3.479,0.663
		c-0.741,0.131-1.486,0.237-2.229,0.354c0.018,0.123,0.036,0.246,0.054,0.368c0.986-0.163,1.969-0.347,2.958-0.483
		c0.998-0.139,2.188-0.724,2.497,1.274c0.383-0.53,0.685-0.795,0.789-1.122c0.263-0.825,0.397-1.691,0.656-2.52
		c0.521-1.671,1.15-3.31,1.624-4.993c0.812-2.89-1.095-7.645-3.562-9.341c-0.429-0.295-0.835-1.055-0.778-1.544
		c0.258-2.186,2.603-3.077,4.283-2.478c1.523,0.544,2.326,1.892,2.767,3.386c0.091,0.311-0.206,0.855-0.483,1.13
		c-0.511,0.505-1.14,0.889-1.719,1.322c0.071,0.111,0.143,0.223,0.215,0.334c0.367-0.189,0.733-0.384,1.103-0.568
		c0.302-0.15,0.608-0.291,0.912-0.436c0.104,0.363,0.323,0.738,0.289,1.089c-0.124,1.268-0.304,2.532-0.516,3.79
		c-0.407,2.408,0.281,3.64,2.694,3.754c1.817,0.085,2.289,1.104,2.701,2.443c0.175,0.569,0.373,1.147,0.434,1.735
		c0.251,2.439,1.551,4.393,2.886,6.325c0.139,0.201,0.559,0.208,0.848,0.305c-0.062-0.266-0.03-0.648-0.198-0.78
		c-1.931-1.524-2.484-3.698-3.029-5.943c-0.328-1.353-0.872-2.705-1.592-3.893c-0.523-0.865-0.62-1.097,0.428-1.458
		c0.569-0.195,1.121-0.443,1.681-0.668c-0.053-0.129-0.105-0.258-0.158-0.387C86.857,125.363,85.012,124.87,83.854,126.454z
		 M95.769,110.43c0.013-0.146,0.025-0.293,0.038-0.439c-0.339-0.036-0.679-0.112-1.016-0.102c-3.86,0.119-7.72,0.248-11.579,0.389
		c-0.268,0.01-0.531,0.203-0.795,0.199c-0.977-0.014-2.146,0.52-2.54-0.669c-0.604,0.318-1.151,0.606-1.541,0.812
		c0.424,0.185,1.111,0.286,1.485,0.685c1.269,1.35,2.795,2.173,4.533,2.728c1.512,0.481,2.983,1.088,4.476,1.63
		c1.034,0.376,1.151,0.931,0.652,1.929c-0.515,1.028-0.749,2.197-1.106,3.305c0.155,0.053,0.312,0.105,0.468,0.158
		c0.482-1.3,0.964-2.6,1.446-3.9c0.189,0.014,0.378,0.026,0.567,0.04c0.22,0.847,0.565,1.684,0.633,2.542
		c0.156,1.988,1.019,3.484,2.702,4.538c0.604,0.377,0.907,0.859,0.465,1.596c-0.407,0.677-0.762,1.39-1.089,2.11
		c-0.128,0.283-0.118,0.63-0.171,0.948c0.124,0.036,0.248,0.072,0.372,0.108c0.407-0.847,0.815-1.692,1.223-2.54
		c0.656-1.366,1.006-1.527,2.351-0.847c0.374,0.189,0.735,0.64,0.856,1.044c0.23,0.767,0.282,1.586,0.465,2.738
		c0.316-0.533,0.617-0.812,0.632-1.104c0.081-1.628-0.935-2.928-2.541-3.414c-2.504-0.76-4.303-2.127-4.612-4.989
		c-0.172-1.595-0.584-3.291-2.159-4.069c-2.123-1.05-4.387-1.812-6.568-2.749c-0.857-0.368-1.672-0.846-2.47-1.334
		c-0.224-0.137-0.316-0.487-0.469-0.739c0.272-0.13,0.539-0.356,0.819-0.375c1.588-0.104,3.179-0.203,4.77-0.219
		C89.299,110.408,92.534,110.43,95.769,110.43z M58.228,127.046c0.086,0.075,0.172,0.15,0.258,0.226
		c0.322-0.051,0.644-0.111,0.968-0.128c0.021-0.001,0.125,0.362,0.078,0.523c-0.291,0.98-1.483,1.768-2.545,1.846
		c-0.699,0.052-1.397,0.235-2.07,0.441c-0.22,0.067-0.361,0.394-0.538,0.601c0.281,0.075,0.601,0.276,0.835,0.203
		c0.942-0.294,1.876-0.631,2.774-1.037c0.446-0.202,0.857-0.544,1.201-0.902c1.201-1.254,1.788-2.79,2.043-4.495
		c0.085-0.565,0.248-1.277,0.639-1.614c2.154-1.857,4.251-3.842,6.644-5.34c1.815-1.137,3.368-2.451,4.778-3.997
		c0.152-0.167,0.129-0.494,0.148-0.577c-0.952,0.854-1.855,1.806-2.897,2.569c-2.494,1.829-5.145,3.457-7.55,5.392
		c-1.288,1.037-2.781,2.166-2.669,4.22c0.036,0.664-0.195,1.196-1.051,1.302C58.9,126.323,58.576,126.777,58.228,127.046z
		 M57.047,120.301c0.044,0.135,0.088,0.27,0.133,0.404c0.437-0.2,0.94-0.319,1.299-0.614c0.913-0.75,1.756-1.586,2.64-2.373
		c0.321-0.286,0.698-0.511,1.016-0.801c0.315-0.288,0.531-0.739,0.889-0.911c0.714-0.343,1.51-0.508,2.246-0.809
		c1.374-0.562,2.728-1.168,4.091-1.757c-0.047-0.147-0.095-0.296-0.143-0.444c-4.549,2.153-9.207,3.68-14.348,2.71
		c0.259,0.258,0.541,0.505,0.839,0.525c1.449,0.098,2.903,0.117,4.353,0.205c0.316,0.019,0.622,0.201,0.933,0.309
		c-0.164,0.289-0.263,0.657-0.502,0.854C59.365,118.525,58.199,119.404,57.047,120.301z M86.382,130.238
		c-0.1-0.038-0.198-0.076-0.298-0.114c-0.642,1.508-1.284,3.016-1.926,4.523c0.138,0.055,0.274,0.109,0.412,0.164
		C84.992,133.216,86.383,132,86.382,130.238z M57.174,123.989c1.047-0.396,2.025-0.766,3.003-1.136
		c-0.021-0.116-0.041-0.232-0.061-0.35c-1.175-0.478-2.106,1.141-3.358,0.706C56.896,123.469,57.034,123.727,57.174,123.989z
		 M104.342,109.411c0.011,0.086,0.021,0.172,0.032,0.257c1.021-0.147,2.04-0.296,3.061-0.443c-0.046-0.215-0.092-0.43-0.137-0.645
		C106.312,108.856,105.327,109.134,104.342,109.411z"/>
	<path fill-rule="evenodd" clip-rule="evenodd" d="M83.417,73.615c-0.473,0.364-0.808,0.793-1.232,0.919
		c-1.821,0.54-3.651,1.073-5.511,1.454c-2.567,0.526-4.882-0.312-6.681-2.062c-1.463-1.423-2.56-3.222-3.83-4.845
		c-0.132-0.168-0.339-0.277-0.792-0.637c0.082,1.392-0.014,2.537,0.252,3.59c0.364,1.44,1,2.813,1.526,4.213
		c1.485,3.96,4.306,7.079,6.626,10.514c1.618,2.395,3.432,4.677,4.835,7.189c1.029,1.843,1.735,3.922,1.301,6.184
		c-0.168,0.873-0.021,1.802-0.115,2.694c-0.121,1.159-0.34,2.308-0.546,3.651c1.845-0.089,3.627-0.16,5.407-0.265
		c3.293-0.194,6.591-0.346,9.877-0.631c3.472-0.302,6.932-0.748,10.398-1.112c1.327-0.14,2.659-0.228,4.032-0.343
		c-0.317,0.81-0.563,1.542-0.896,2.232c-0.121,0.25-0.447,0.401-0.68,0.598c-0.052-0.252-0.179-0.515-0.143-0.753
		c0.125-0.814-0.333-1.312-1.258-1.229c-5.029,0.455-10.055,0.947-15.086,1.38c-1.785,0.153-3.582,0.171-5.373,0.257
		c-2.704,0.131-5.411,0.218-8.108,0.427c-0.913,0.071-1.803,0.787-2.727-0.076c0.762-0.225,1.509-0.445,2.167-0.64
		c0.734-3.857,0.771-7.699-0.894-11.324c-0.917-1.997-1.994-3.967-3.294-5.732c-3.614-4.907-7.05-9.91-8.684-15.858
		c-0.657-2.391-0.831-4.914-1.202-7.38c-0.062-0.412-0.009-0.84-0.009-1.261c-0.117-0.052-0.233-0.104-0.35-0.157
		c-0.289,0.365-0.706,0.687-0.846,1.102c-0.821,2.436-2.247,4.469-4.071,6.231c-1.074,1.038-2.317,1.795-3.898,1.781
		c-1.334-0.012-2.669-0.002-4.314-0.002c0.556-0.841,1.003-1.617,1.548-2.318c2.214-2.853,5.131-4.92,8.006-7.02
		c0.627-0.458,1.397-0.823,2.153-0.978c1.315-0.269,1.92-1.062,2.193-2.274c0.723-3.21,1.443-6.421,2.21-9.62
		c0.164-0.686,0.493-1.339,0.806-1.978c0.092-0.188,0.388-0.277,0.591-0.411c-0.011,0.23,0.05,0.496-0.043,0.685
		c-1.403,2.831-1.552,5.964-2.182,8.98c-0.02,0.095,0.078,0.213,0.286,0.733c0.453-1.035,0.799-1.786,1.114-2.549
		c1.283-3.113,2.562-6.228,3.83-9.347c0.191-0.471,0.321-0.967,0.479-1.451c-0.505,0.149-1.026,0.258-1.51,0.458
		c-0.397,0.164-0.796,0.383-1.115,0.667c-1.254,1.115-2.79,1.675-4.352,2.061c-1.893,0.467-3.833,0.004-5.027-1.432
		c-0.722-0.868-0.803-2.457-0.778-3.713c0.034-1.736,0.076-1.768-1.61-1.376c-1.002,0.233-2.214,0.497-3.091,0.146
		c-2.22-0.89-2.717-3.06-1.472-5.141c1.197-2.002,3.2-3.048,5.055-4.243c1.361-0.877,2.847-1.558,4.257-2.362
		c0.226-0.129,0.343-0.448,0.51-0.679c-0.278-0.095-0.559-0.278-0.833-0.269c-2.188,0.076-4.374,0.262-6.561,0.272
		c-2.591,0.012-5.019-0.729-7.285-1.974c-1.263-0.693-1.569-1.345-1.294-2.848c0.539-2.946,2.292-5.02,4.871-6.386
		c1.07-0.567,2.254-0.957,3.426-1.287c3.758-1.061,6.92,0.371,9.904,2.479c0.323,0.228,0.7,0.382,1.379,0.746
		c-0.185-0.978-0.204-1.62-0.428-2.181c-1.591-3.982,0.674-5.288,3.095-6.452c3.292-1.583,6.518-0.746,9.5,0.824
		c1.414,0.744,2.714,2,2.512,4.002c-0.015,0.142,0.54,0.533,0.712,0.473c2.54-0.886,5.033-1.914,7.597-2.722
		c1.229-0.388,2.582-0.53,3.879-0.527c2.384,0.005,3.862,3.391,2.327,5.505c-1.133,1.562-2.595,2.884-3.909,4.314
		c-0.157,0.171-0.309,0.347-0.619,0.695c0.534,0.21,0.935,0.388,1.348,0.525c2.152,0.714,4.321,1.349,6.102,2.895
		c1.74,1.51,2.218,3.984,1.08,6.017c-1.413,2.523-3.364,4.496-5.859,5.944c-1.216,0.706-2.339,0.592-3.535-0.316
		c-0.246-0.187-0.611-0.214-0.921-0.315c0.039,0.309,0.023,0.637,0.124,0.924c1.308,3.751,0.93,7.116-1.983,10.083
		c-2.006,2.043-4.218,3.477-7.166,3.518c-2.27,0.031-4.123-0.84-5.467-2.65c-0.742-1-1.315-2.125-1.981-3.185
		c-0.095-0.151-0.346-0.378-0.404-0.347c-0.255,0.138-0.567,0.312-0.678,0.556c-0.793,1.738-1.599,3.475-2.293,5.254
		c-0.91,2.333-1.907,4.66-2.512,7.078c-0.416,1.662-0.271,3.474-0.265,5.219c0.001,0.291,0.602,0.854,0.877,0.826
		c2.647-0.274,4.985,0.871,7.381,1.612c2.381,0.736,4.685,1.748,6.968,2.762C81.302,72.096,82.231,72.859,83.417,73.615z
		 M65.112,27.211c-0.514,0.216-1.014,0.553-1.546,0.617c-0.643,0.078-1.171,0.11-1.201,0.878c1.12,0.185,2.193,0.482,3.267,0.484
		c0.457,0,0.928-0.601,1.354-0.973c0.051-0.044-0.099-0.492-0.23-0.539c-0.543-0.191-1.115-0.299-1.676-0.437
		c-0.148-0.349-0.204-0.889-0.461-1.014c-1.342-0.654-1.824-2.038-2.716-3.1c2.239,0.669,3.27,3.085,5.521,4.038
		c0-0.371,0.063-0.57-0.009-0.66c-1.402-1.75-2.593-3.757-4.28-5.173c-3.778-3.171-8.143-3.661-12.591-1.5
		c-2.268,1.102-3.952,2.941-4.592,5.512c-0.286,1.149-0.016,2.143,1.066,2.749c0.583,0.326,1.225,0.567,1.865,0.767
		c4.164,1.299,8.37,1.052,12.513,0.255c0.31-0.54,0.745-0.934,1.047-1.411c0.153-0.242,0.069-0.635,0.093-0.959
		c-1.002,0.145-1.196-0.982-1.864-1.226c-2.153-0.784-4.357-1.432-6.554-2.091c-0.194-0.058-0.516,0.147-0.7,0.316
		c-0.059,0.054,0.121,0.394,0.222,0.586c0.101,0.193,0.24,0.366,0.362,0.547c-0.102,0.069-0.204,0.138-0.306,0.207
		c-0.277-0.484-0.554-0.968-0.83-1.452c0.389-0.191,0.783-0.558,1.167-0.547c2.637,0.07,5.012,1.084,7.349,2.192
		c0.544,0.258,1.065,0.566,1.601,0.844C63.69,26.489,64.401,26.849,65.112,27.211z M77.629,37.797
		c0.004,3.538,1.233,6.795,1.068,10.19c-0.264-0.224-0.387-0.468-0.43-0.726c-0.215-1.288-0.448-2.574-0.604-3.869
		c-0.294-2.453-0.503-4.916-0.835-7.363c-0.071-0.527-0.518-1.003-0.791-1.503c-0.203,0.061-0.406,0.122-0.609,0.183
		c0.115,1.619,0.23,3.237,0.349,4.907c-0.154-0.121-0.402-0.214-0.436-0.356c-0.198-0.867-0.335-1.748-0.522-2.617
		c-0.06-0.278-0.209-0.537-0.317-0.805c-0.239,0.213-0.671,0.415-0.686,0.643c-0.071,1.125-0.032,2.257-0.032,3.4
		c-1.1-0.911-0.944-2.171-0.669-3.612c-0.465,0.159-0.93,0.372-1.051,0.708c-0.47,1.308-0.885,2.642-1.21,3.992
		c-0.184,0.762-0.274,1.588-0.19,2.363c0.147,1.367,0.429,2.722,0.708,4.071c0.565,2.738,2.085,4.92,4.656,5.896
		c2.492,0.947,5.152,0.821,7.304-1.105c1.319-1.181,2.63-2.445,3.616-3.895c0.642-0.942,1.104-2.357,0.92-3.436
		c-0.389-2.277-1.209-4.487-1.938-6.696c-0.704-2.136-2.5-3.302-4.293-4.389c-0.28-0.17-0.973,0.106-1.318,0.376
		c-0.176,0.137-0.09,0.748,0.03,1.091c0.13,0.375,0.437,0.689,0.666,1.029c-0.085,0.076-0.17,0.153-0.255,0.229
		c-1.739-0.774-2.05-3.425-4.208-3.647c-0.121,0.095-0.241,0.19-0.362,0.285c0.937,1.585,1.872,3.17,2.851,4.826
		C78.538,37.907,78.158,37.861,77.629,37.797z M84.741,32.569c-0.709-0.201-1.588-0.496-2.489-0.681
		c-0.32-0.065-0.695,0.14-1.046,0.221c0.193,0.258,0.335,0.59,0.587,0.762c2.162,1.479,4.104,3.141,5.004,5.721
		c0.226,0.646,0.236,1.641,1.364,0.769c0.127-0.098,0.629,0.109,0.822,0.307c1.088,1.115,2.173,0.597,3.255,0.044
		c2.244-1.146,3.754-2.969,4.929-5.166c0.731-1.368,0.933-3.496-0.063-4.593c-0.722-0.794-1.687-1.49-2.68-1.892
		c-2.383-0.964-4.818-1.827-7.287-2.546c-2.373-0.691-4.819-1.072-7.366-0.571c0.113,1.073,0.888,0.945,1.562,1.132
		c1.186,0.329,2.322,0.832,3.479,1.262c-0.039,0.097-0.079,0.194-0.118,0.292c-0.484,0.023-0.968,0.047-1.452,0.07
		c-0.045,0.131-0.089,0.263-0.134,0.395c1.133,0.583,2.212,1.329,3.408,1.718c2.898,0.943,5.583,2.247,8,4.102
		c0.819,0.629,0.81,0.746-0.027,1.397c-0.249-0.442-0.396-1.031-0.771-1.313c-2.287-1.719-4.908-2.759-7.641-3.533
		c-0.591-0.167-1.258-0.211-1.439,0.569C84.538,31.459,84.688,31.938,84.741,32.569z M71.33,15.203
		c0.121-0.036,0.241-0.071,0.362-0.107c0.147,0.418,0.372,0.828,0.425,1.258c0.126,1.026,0.165,2.063,0.25,3.095
		c0.25,3.055,0.652,3.286,3.126,1.612c1-0.677,2.381-1.151,2.194-2.805c-0.01-0.087,0.115-0.198,0.192-0.285
		c1.16-1.31,1.131-1.601-0.07-2.911c-1.911-2.085-7.955-3.272-11.043-1.22c-0.93,0.617-2.083,1.106-2.019,2.414
		c0.12,2.437,0.24,4.853,2.163,6.815c0.795,0.812,0.977,0.542,1.541-0.52c0.139,1.266,0.182,2.164,0.362,3.035
		c0.068,0.329,0.451,0.593,0.69,0.886c0.571-0.537,1.652-0.486,1.587-1.763c-0.069-1.351-0.236-2.713,0.426-4.087
		c0.413-0.857,0.636-2.378,0.16-2.963C70.906,16.715,71.363,16.012,71.33,15.203z M69.48,39.945
		c0.487-1.019,1.286-1.893,1.054-3.064c-0.132-0.054-0.264-0.108-0.396-0.163c-0.475,0.905-0.95,1.81-1.575,3
		c-0.221-0.693-0.348-1.092-0.55-1.726c-0.304,0.366-0.453,0.618-0.667,0.789c-0.498,0.395-1.021,1.042-1.546,1.055
		c-0.924,0.023-1.281,0.485-1.59,1.169c-0.192,0.426-0.375,0.856-0.561,1.285c-0.271-0.217-0.315-0.356-0.293-0.485
		c0.32-1.878,1.911-2.816,3.037-4.101c0.334-0.382,0.625-0.802,0.937-1.206c-0.102-0.146-0.203-0.291-0.305-0.436
		c-0.7,0.266-1.473,0.418-2.082,0.821c-1.189,0.786-2.372,1.621-3.399,2.602c-1.03,0.983-2.767,1.311-3.014,3.034
		c-0.174,1.21-0.362,2.438-0.334,3.653c0.024,1.078,0.707,1.865,1.801,2.108c1.647,0.367,3.314,0.597,4.881-0.3
		c1.336-0.765,2.647-1.575,3.967-2.37c1.144-0.689,1.604-4.64,0.66-5.624C69.477,39.96,69.466,39.917,69.48,39.945z M89.596,25.148
		c-0.678-1.293,0.198-1.562,0.852-2.108c1.622-1.358,3.492-2.603,3.284-5.172c-0.104-1.3-0.903-2.259-2.162-2.218
		c-1.188,0.04-2.404,0.098-3.551,0.381c-3.118,0.771-6.141,1.83-8.989,3.351c-1.219,0.65-1.746,1.687-2.027,3.108
		c0.395-0.076,0.684-0.065,0.899-0.186c0.895-0.499,1.741-1.133,2.794-0.284c0.145,0.117,0.553,0.001,0.793-0.108
		c0.938-0.425,1.842-0.923,2.784-1.334c1.491-0.651,2.991-1.289,4.514-1.864c0.783-0.296,1.282-0.054,1.159,0.812
		c-0.761,0-1.483-0.177-2.062,0.035c-1.449,0.532-2.869,1.175-4.231,1.902c-0.923,0.493-1.729,1.204-2.836,1.996
		C83.933,24.058,86.623,24.576,89.596,25.148z M62.642,32.883c-0.08-0.131-0.159-0.262-0.238-0.393
		c-0.703,0.294-1.395,0.618-2.112,0.871c-0.336,0.119-0.72,0.13-1.083,0.138c-0.418,0.009-0.877-0.159-1.248-0.037
		c-0.557,0.184-1.107,0.485-1.563,0.856c-1.492,1.213-3.056,2.37-4.368,3.76c-1.086,1.149-0.576,3.941,0.966,4.18
		c1.811,0.281,3.604-0.133,5.018-1.3c1.204-0.993,2.114-2.333,3.255-3.415c0.766-0.727,1.775-1.197,2.537-1.928
		c0.34-0.326,0.339-1.009,0.492-1.531c-0.426,0.056-0.903,0.006-1.268,0.186c-1.172,0.577-2.307,1.23-3.445,1.873
		c-0.463,0.262-0.897,0.574-1.344,0.863C59.183,34.995,62.062,35.231,62.642,32.883z M67.804,69.354
		c0,0.366-0.073,0.603,0.011,0.751c0.939,1.671,2.174,3.083,3.789,4.134c3.365,2.188,6.573,0.745,10.103-0.482
		c-0.501-0.492-0.801-0.986-1.234-1.177c-2.281-1.002-4.584-1.958-6.912-2.844c-0.341-0.13-0.856,0.217-1.296,0.324
		c-0.309,0.075-0.797,0.272-0.912,0.147C70.367,69.125,69.115,69.43,67.804,69.354z M56.002,67.687
		c-0.417,0.057-0.78-0.005-0.929,0.146c-1.391,1.407-2.758,2.839-4.077,4.313c-0.078,0.088,0.289,0.851,0.502,0.878
		c1.659,0.21,3.292,0.243,4.776-0.809c2.49-1.763,3.77-4.333,4.849-7.045c0.129-0.326,0.055-0.732,0.074-1.102
		c-0.437,0.084-1.03,0.018-1.281,0.279c-0.975,1.017-1.856,2.127-2.741,3.227c-0.392,0.487-0.71,1.032-1.062,1.551
		c-0.074-0.044-0.147-0.087-0.221-0.131C55.925,68.617,55.957,68.24,56.002,67.687z M73.544,87.48
		c-0.152,0.073-0.305,0.147-0.457,0.222c0.221,0.587,0.32,1.265,0.683,1.744c1.842,2.435,3.141,5.133,3.741,8.099
		c0.371,1.833,0.433,3.744,0.48,5.623c0.027,1.105-0.244,2.218-0.387,3.372c0.18,0.045,0.326,0.103,0.476,0.112
		s0.303-0.028,0.36-0.035c1.42-3.461,1.249-6.986,0.43-10.382C78.045,92.815,75.89,90.036,73.544,87.48z M74.436,30.604
		c1.756-2.004,1.756-2.004,1.233-4.992c-1.401,0.266-2.82,0.482-4.205,0.833c-0.381,0.097-0.661,0.596-0.986,0.911
		c0.077,0.103,0.153,0.205,0.23,0.308c0.631,0,1.265-0.03,1.894,0.012c0.355,0.023,0.703,0.165,1.054,0.253
		c-0.339,0.172-0.678,0.344-1.017,0.517c-0.069,0.036-0.137,0.077-0.207,0.119c0.072,1.039-0.924,2.603,1.214,2.72
		c0.099,0.333,0.453,0.758,0.57,0.701c0.894-0.44,1.748-0.962,2.592-1.495c0.089-0.057,0.029-0.35,0.053-0.82
		C75.932,30.027,75.184,30.315,74.436,30.604z M69.438,32.731c0.033,0.769,0.782,0.618,1.582,0.401
		c0.419-0.113,0.85-0.204,1.281-0.247c0.46-0.046,1.184,0.074,0.913-0.638c-0.167-0.438-0.863-0.71-1.369-0.963
		c-0.145-0.072-0.454,0.183-0.778,0.329c-0.129-1.208-0.246-2.296-0.38-3.556c-1.182-0.569-2.137-0.209-2.701,1.396
		c0.584-0.127,1.083-0.236,1.417-0.309c0,0.78,0,1.427,0,2.46c-0.499-0.53-0.751-0.99-1.132-1.158
		c-0.524-0.231-1.147-0.311-1.724-0.297c-0.138,0.003-0.466,0.8-0.351,0.939c0.271,0.33,0.75,0.494,1.157,0.703
		c0.156,0.08,0.353,0.077,0.513,0.152C68.306,32.15,68.735,32.377,69.438,32.731z M71.065,84.165
		c-1.122-1.715-2.19-3.349-3.396-5.192C67.222,80.693,69.7,84.407,71.065,84.165z M64.334,71.851
		c0.643-1.034,0.122-5.646-0.64-6.416C63.28,67.629,63.894,69.587,64.334,71.851z M75.654,22.472
		c-1.321-0.021-2.322,0.89-2.337,2.042C74.998,24.792,75.371,24.479,75.654,22.472z M68.292,36.402
		c1.047-0.469,2.296-0.499,2.349-1.98C68.993,33.932,68.228,34.534,68.292,36.402z M80.203,29.901
		c-0.088-0.093-0.177-0.186-0.265-0.278c-0.536,0.406-1.092,0.79-1.593,1.234c-0.124,0.109-0.07,0.418-0.099,0.635
		c0.521,0.001,1.042,0.013,1.562-0.004c0.141-0.004,0.278-0.097,0.395-0.142C80.203,30.826,80.203,30.364,80.203,29.901z
		 M78.192,27.213c-0.494,0.279-1.055,0.424-1.089,0.648c-0.1,0.653,0.013,1.337,0.051,2.213
		C78.677,29.37,78.204,28.385,78.192,27.213z M71.477,36.548c0.356-0.672,0.651-1.193,0.887-1.74
		c0.021-0.048-0.351-0.266-0.541-0.405c-0.295,0.505-0.61,1-0.863,1.526C70.925,36.001,71.197,36.221,71.477,36.548z M80.535,26.988
		c-0.073,0.096-0.146,0.192-0.219,0.288c0.209,0.316,0.424,0.899,0.626,0.895c0.422-0.01,0.836-0.329,1.253-0.521
		c-0.026-0.153-0.054-0.306-0.08-0.458C81.588,27.123,81.062,27.056,80.535,26.988z M75.08,34.49
		c0.326-0.373,0.699-0.616,0.691-0.846c-0.007-0.217-0.411-0.584-0.645-0.587c-0.24-0.003-0.646,0.332-0.68,0.562
		C74.417,33.833,74.781,34.104,75.08,34.49z"/>
	<path fill-rule="evenodd" clip-rule="evenodd" d="M83.854,126.454c1.158-1.584,3.004-1.091,4.374-1.892
		c0.053,0.129,0.105,0.258,0.158,0.387c-0.56,0.225-1.111,0.473-1.681,0.668c-1.048,0.361-0.951,0.593-0.428,1.458
		c0.72,1.188,1.264,2.54,1.592,3.893c0.545,2.245,1.099,4.419,3.029,5.943c0.168,0.132,0.137,0.515,0.198,0.78
		c-0.289-0.097-0.709-0.104-0.848-0.305c-1.335-1.933-2.635-3.886-2.886-6.325c-0.061-0.588-0.259-1.166-0.434-1.735
		c-0.412-1.34-0.884-2.358-2.701-2.443c-2.413-0.114-3.102-1.346-2.694-3.754c0.212-1.258,0.392-2.522,0.516-3.79
		c0.034-0.351-0.186-0.726-0.289-1.089c-0.304,0.145-0.61,0.285-0.912,0.436c-0.369,0.185-0.735,0.379-1.103,0.568
		c-0.072-0.111-0.144-0.223-0.215-0.334c0.579-0.434,1.208-0.817,1.719-1.322c0.277-0.274,0.574-0.819,0.483-1.13
		c-0.44-1.494-1.243-2.842-2.767-3.386c-1.681-0.6-4.025,0.292-4.283,2.478c-0.057,0.489,0.35,1.249,0.778,1.544
		c2.467,1.696,4.373,6.451,3.562,9.341c-0.474,1.684-1.104,3.322-1.624,4.993c-0.259,0.828-0.394,1.694-0.656,2.52
		c-0.104,0.327-0.406,0.592-0.789,1.122c-0.31-1.998-1.499-1.413-2.497-1.274c-0.989,0.137-1.972,0.32-2.958,0.483
		c-0.018-0.122-0.036-0.245-0.054-0.368c0.743-0.117,1.488-0.224,2.229-0.354c1.162-0.206,2.326-0.411,3.479-0.663
		c0.174-0.038,0.358-0.304,0.426-0.502c0.585-1.722,1.16-3.448,1.702-5.186c0.131-0.419,0.126-0.881,0.185-1.323
		c-0.13-0.074-0.26-0.147-0.39-0.221c-1.271,1.44-2.543,2.88-3.814,4.32c-0.074-0.063-0.147-0.127-0.222-0.19
		c1.162-1.468,2.308-2.949,3.512-4.382c0.129-0.153,0.6-0.021,1.058-0.021c-0.176-3.109-1.156-5.836-3.665-8.031
		c-1.146,0.866-2.247,1.699-3.348,2.532c-0.062-0.078-0.123-0.156-0.185-0.235c0.737-0.698,1.494-1.377,2.199-2.106
		c0.211-0.219,0.458-0.646,0.378-0.864c-0.599-1.649,0.493-2.609,1.487-3.479c1.899-1.661,4.835-0.906,6.114,1.323
		c1.363,2.375,0.986,4.855,0.746,7.355c-0.072,0.754-0.091,1.514-0.18,2.266C82.004,125.439,82.506,126.221,83.854,126.454z"/>
	<path fill-rule="evenodd" clip-rule="evenodd" d="M49.617,112.06c-1.069,0.311-1.078,1.433-1.541,2.208
		c-0.112-0.025-0.225-0.051-0.337-0.076c0.032-0.471,0.064-0.941,0.109-1.591c-0.868,0.096-1.706,0.188-2.545,0.28
		c-0.003-0.113-0.007-0.227-0.01-0.341c0.913-0.171,1.826-0.341,2.727-0.509c-0.006-1.453-0.394-1.794-1.69-1.543
		c-0.273,0.054-0.545,0.119-0.82,0.148c-0.334,0.037-0.672,0.042-0.738,0.045c0.361-0.367,0.798-0.887,1.317-1.306
		c0.251-0.203,0.65-0.264,0.993-0.306c3.763-0.465,7.52-0.995,11.294-1.342c2.965-0.272,5.95-0.348,8.928-0.442
		c2.054-0.064,4.111-0.012,6.217-0.012c-1.898,0.181-3.755,0.333-5.606,0.54c-3.745,0.42-7.485,0.888-11.23,1.301
		c-1.963,0.216-3.933,0.398-5.904,0.515c-1.27,0.074-2.002,0.597-2.048,1.544c-0.035,0.715,0.257,0.946,0.905,0.891L49.617,112.06z"
		/>
	<path fill-rule="evenodd" clip-rule="evenodd" d="M95.769,110.43c-3.234,0-6.47-0.021-9.703,0.01
		c-1.591,0.016-3.182,0.115-4.77,0.219c-0.28,0.019-0.547,0.245-0.819,0.375c0.152,0.252,0.245,0.603,0.469,0.739
		c0.798,0.488,1.612,0.966,2.47,1.334c2.182,0.937,4.445,1.699,6.568,2.749c1.575,0.778,1.987,2.475,2.159,4.069
		c0.31,2.862,2.108,4.229,4.612,4.989c1.606,0.486,2.622,1.786,2.541,3.414c-0.015,0.292-0.315,0.57-0.632,1.104
		c-0.183-1.152-0.234-1.972-0.465-2.738c-0.121-0.404-0.482-0.854-0.856-1.044c-1.345-0.681-1.694-0.52-2.351,0.847
		c-0.407,0.848-0.815,1.693-1.223,2.54c-0.124-0.036-0.248-0.072-0.372-0.108c0.053-0.318,0.043-0.665,0.171-0.948
		c0.327-0.721,0.682-1.434,1.089-2.11c0.442-0.736,0.139-1.219-0.465-1.596c-1.684-1.054-2.546-2.55-2.702-4.538
		c-0.067-0.858-0.413-1.695-0.633-2.542c-0.189-0.014-0.378-0.026-0.567-0.04c-0.482,1.301-0.964,2.601-1.446,3.9
		c-0.156-0.053-0.312-0.105-0.468-0.158c0.357-1.107,0.592-2.276,1.106-3.305c0.499-0.998,0.382-1.553-0.652-1.929
		c-1.492-0.542-2.964-1.148-4.476-1.63c-1.738-0.555-3.265-1.378-4.533-2.728c-0.374-0.398-1.062-0.5-1.485-0.685
		c0.39-0.206,0.937-0.494,1.541-0.812c0.395,1.188,1.563,0.655,2.54,0.669c0.264,0.004,0.527-0.189,0.795-0.199
		c3.859-0.141,7.719-0.27,11.579-0.389c0.337-0.011,0.677,0.065,1.016,0.102C95.794,110.137,95.781,110.283,95.769,110.43z"/>
	<path fill-rule="evenodd" clip-rule="evenodd" d="M58.228,127.046c0.348-0.269,0.672-0.723,1.047-0.769
		c0.856-0.105,1.087-0.638,1.051-1.302c-0.111-2.054,1.382-3.183,2.669-4.22c2.405-1.935,5.056-3.562,7.55-5.392
		c1.042-0.764,1.945-1.716,2.897-2.569c-0.02,0.083,0.004,0.41-0.148,0.577c-1.411,1.546-2.963,2.86-4.778,3.997
		c-2.393,1.498-4.49,3.482-6.644,5.34c-0.392,0.337-0.554,1.049-0.639,1.614c-0.255,1.705-0.842,3.241-2.043,4.495
		c-0.344,0.358-0.755,0.7-1.201,0.902c-0.898,0.406-1.833,0.743-2.774,1.037c-0.234,0.073-0.554-0.128-0.835-0.203
		c0.177-0.207,0.317-0.533,0.538-0.601c0.673-0.206,1.371-0.39,2.07-0.441c1.062-0.078,2.255-0.865,2.545-1.846
		c0.047-0.161-0.057-0.524-0.078-0.523c-0.324,0.017-0.646,0.077-0.968,0.128C58.4,127.196,58.314,127.121,58.228,127.046z"/>
	<path fill-rule="evenodd" clip-rule="evenodd" d="M57.047,120.301c1.152-0.896,2.318-1.775,3.446-2.701
		c0.24-0.197,0.338-0.565,0.502-0.854c-0.311-0.107-0.617-0.29-0.933-0.309c-1.45-0.088-2.904-0.107-4.353-0.205
		c-0.298-0.021-0.58-0.268-0.839-0.525c5.141,0.97,9.799-0.557,14.348-2.71c0.048,0.148,0.095,0.297,0.143,0.444
		c-1.363,0.589-2.717,1.195-4.091,1.757c-0.736,0.301-1.532,0.466-2.246,0.809c-0.358,0.172-0.574,0.623-0.889,0.911
		c-0.318,0.29-0.695,0.515-1.016,0.801c-0.884,0.787-1.727,1.623-2.64,2.373c-0.359,0.295-0.862,0.414-1.299,0.614
		C57.135,120.57,57.091,120.436,57.047,120.301z"/>
	<path fill-rule="evenodd" clip-rule="evenodd" d="M49.638,112.064c3.512-0.197,7.022-0.407,10.535-0.59
		c3.771-0.195,7.543-0.366,11.315-0.543c0.107-0.006,0.216,0.039,0.215,0.039c-0.297,0.422-0.604,0.855-1.003,1.422
		c0.05-1.065-0.552-1.294-1.382-1.239c-3.401,0.224-6.8,0.488-10.204,0.646c-3.16,0.148-6.325,0.181-9.492,0.263
		C49.617,112.06,49.638,112.064,49.638,112.064z"/>
	<path fill-rule="evenodd" clip-rule="evenodd" d="M86.382,130.238c0.001,1.762-1.39,2.978-1.812,4.573
		c-0.138-0.055-0.274-0.109-0.412-0.164c0.642-1.508,1.284-3.016,1.926-4.523C86.184,130.162,86.282,130.2,86.382,130.238z"/>
	<path fill-rule="evenodd" clip-rule="evenodd" d="M57.174,123.989c-0.14-0.263-0.278-0.521-0.416-0.779
		c1.252,0.435,2.183-1.184,3.358-0.706c0.02,0.117,0.04,0.233,0.061,0.35C59.199,123.224,58.222,123.593,57.174,123.989z"/>
	<path fill-rule="evenodd" clip-rule="evenodd" d="M104.342,109.411c0.985-0.277,1.971-0.555,2.956-0.831
		c0.045,0.215,0.091,0.43,0.137,0.645c-1.021,0.147-2.04,0.296-3.061,0.443C104.363,109.583,104.353,109.497,104.342,109.411z"/>
	<path fill-rule="evenodd" clip-rule="evenodd" fill="#FFFFFF" d="M77.629,37.797c0.529,0.064,0.909,0.11,1.411,0.171
		c-0.979-1.656-1.914-3.241-2.851-4.826c0.121-0.095,0.241-0.19,0.362-0.285c2.158,0.222,2.469,2.873,4.208,3.647
		c0.085-0.076,0.17-0.153,0.255-0.229c-0.229-0.34-0.536-0.654-0.666-1.029c-0.12-0.344-0.206-0.954-0.03-1.091
		c0.346-0.27,1.038-0.546,1.318-0.376c1.793,1.087,3.589,2.253,4.293,4.389c0.729,2.209,1.549,4.419,1.938,6.696
		c0.185,1.079-0.278,2.494-0.92,3.436c-0.986,1.45-2.297,2.714-3.616,3.895c-2.151,1.926-4.812,2.052-7.304,1.105
		c-2.571-0.977-4.091-3.158-4.656-5.896c-0.279-1.349-0.561-2.704-0.708-4.071c-0.083-0.775,0.007-1.601,0.19-2.363
		c0.325-1.351,0.741-2.684,1.21-3.992c0.121-0.336,0.586-0.549,1.051-0.708c-0.275,1.441-0.431,2.701,0.669,3.612
		c0-1.143-0.039-2.275,0.032-3.4c0.015-0.228,0.446-0.429,0.686-0.643c0.108,0.268,0.258,0.526,0.317,0.805
		c0.188,0.869,0.324,1.75,0.522,2.617c0.033,0.142,0.281,0.235,0.436,0.356c-0.118-1.67-0.233-3.289-0.349-4.907
		c0.203-0.061,0.406-0.122,0.609-0.183c0.273,0.5,0.72,0.976,0.791,1.503c0.332,2.447,0.541,4.911,0.835,7.363
		c0.155,1.295,0.389,2.582,0.604,3.869c0.043,0.258,0.166,0.502,0.43,0.726C78.862,44.592,77.633,41.335,77.629,37.797z"/>
	<path fill-rule="evenodd" clip-rule="evenodd" fill="#FFFFFF" d="M65.111,27.212c-0.71-0.363-1.421-0.723-2.129-1.09
		c-0.535-0.278-1.056-0.586-1.601-0.844c-2.337-1.108-4.712-2.123-7.349-2.192c-0.384-0.01-0.778,0.356-1.167,0.547
		c0.276,0.484,0.553,0.968,0.83,1.452c0.102-0.069,0.204-0.138,0.306-0.207c-0.122-0.182-0.261-0.354-0.362-0.547
		c-0.101-0.193-0.28-0.533-0.222-0.586c0.184-0.169,0.506-0.375,0.7-0.316c2.197,0.659,4.4,1.307,6.554,2.091
		c0.668,0.244,0.862,1.371,1.864,1.226c-0.023,0.325,0.061,0.717-0.093,0.959c-0.303,0.477-0.737,0.871-1.047,1.411
		c-4.143,0.796-8.349,1.044-12.513-0.255c-0.64-0.2-1.282-0.441-1.865-0.767c-1.082-0.606-1.353-1.6-1.066-2.749
		c0.64-2.571,2.325-4.411,4.592-5.512c4.448-2.161,8.812-1.671,12.591,1.5c1.687,1.416,2.878,3.423,4.28,5.173
		c0.073,0.09,0.009,0.29,0.009,0.66c-2.251-0.953-3.281-3.368-5.521-4.038c0.892,1.062,1.374,2.446,2.716,3.1
		c0.257,0.125,0.312,0.666,0.461,1.014L65.111,27.212z"/>
	<path fill-rule="evenodd" clip-rule="evenodd" fill="#FFFFFF" d="M84.741,32.569c-0.053-0.631-0.203-1.11-0.104-1.531
		c0.182-0.78,0.849-0.737,1.439-0.569c2.732,0.773,5.354,1.813,7.641,3.533c0.376,0.282,0.522,0.871,0.771,1.313
		c0.837-0.651,0.847-0.769,0.027-1.397c-2.417-1.855-5.102-3.159-8-4.102c-1.196-0.389-2.275-1.135-3.408-1.718
		c0.045-0.132,0.089-0.264,0.134-0.395c0.484-0.023,0.968-0.047,1.452-0.07c0.039-0.097,0.079-0.194,0.118-0.292
		c-1.157-0.43-2.294-0.933-3.479-1.262c-0.674-0.188-1.448-0.06-1.562-1.132c2.547-0.501,4.993-0.121,7.366,0.571
		c2.469,0.719,4.904,1.582,7.287,2.546c0.993,0.402,1.958,1.097,2.68,1.892c0.996,1.097,0.795,3.225,0.063,4.593
		c-1.175,2.197-2.685,4.02-4.929,5.166c-1.082,0.553-2.167,1.071-3.255-0.044c-0.193-0.198-0.695-0.405-0.822-0.307
		c-1.128,0.872-1.139-0.124-1.364-0.769c-0.9-2.58-2.842-4.242-5.004-5.721c-0.252-0.172-0.394-0.504-0.587-0.762
		c0.351-0.082,0.726-0.287,1.046-0.221C83.153,32.073,84.032,32.369,84.741,32.569z"/>
	<path fill-rule="evenodd" clip-rule="evenodd" fill="#FFFFFF" d="M71.33,15.203c0.034,0.809-0.423,1.512,0.345,2.455
		c0.476,0.585,0.253,2.106-0.16,2.963c-0.662,1.374-0.495,2.736-0.426,4.087c0.064,1.277-1.016,1.226-1.587,1.763
		c-0.239-0.293-0.622-0.558-0.69-0.886c-0.18-0.871-0.223-1.769-0.362-3.035c-0.563,1.062-0.745,1.332-1.541,0.52
		c-1.923-1.963-2.043-4.378-2.163-6.815c-0.064-1.307,1.089-1.796,2.019-2.414c3.088-2.052,9.132-0.865,11.043,1.22
		c1.201,1.31,1.23,1.601,0.07,2.911c-0.077,0.087-0.202,0.198-0.192,0.285c0.187,1.653-1.194,2.128-2.194,2.805
		c-2.474,1.674-2.876,1.443-3.126-1.612c-0.085-1.032-0.124-2.068-0.25-3.095c-0.053-0.43-0.278-0.839-0.425-1.258
		C71.571,15.132,71.45,15.167,71.33,15.203z"/>
	<path fill-rule="evenodd" clip-rule="evenodd" fill="#FFFFFF" d="M69.48,39.945c-0.015-0.028-0.003,0.015,0.023,0.042
		c0.945,0.984,0.484,4.934-0.66,5.624c-1.319,0.795-2.63,1.605-3.967,2.37c-1.567,0.897-3.234,0.667-4.881,0.3
		c-1.094-0.244-1.777-1.03-1.801-2.108c-0.027-1.215,0.161-2.443,0.334-3.653c0.248-1.723,1.984-2.051,3.014-3.034
		c1.027-0.98,2.209-1.816,3.399-2.602c0.609-0.402,1.382-0.555,2.082-0.821c0.102,0.145,0.203,0.291,0.305,0.436
		c-0.311,0.403-0.602,0.824-0.937,1.206c-1.126,1.285-2.717,2.222-3.037,4.101c-0.022,0.128,0.022,0.268,0.293,0.485
		c0.187-0.429,0.369-0.859,0.561-1.285c0.309-0.684,0.666-1.146,1.59-1.169c0.526-0.013,1.048-0.661,1.546-1.055
		c0.214-0.17,0.363-0.423,0.667-0.789c0.202,0.634,0.329,1.033,0.55,1.726c0.625-1.19,1.1-2.095,1.575-3
		c0.132,0.055,0.264,0.109,0.396,0.163C70.767,38.052,69.967,38.927,69.48,39.945z"/>
	<path fill-rule="evenodd" clip-rule="evenodd" fill="#FFFFFF" d="M89.596,25.148c-2.973-0.572-5.663-1.09-8.78-1.69
		c1.107-0.792,1.913-1.503,2.836-1.996c1.362-0.728,2.782-1.371,4.231-1.902c0.579-0.212,1.302-0.035,2.062-0.035
		c0.123-0.866-0.376-1.108-1.159-0.812c-1.522,0.575-3.022,1.213-4.514,1.864c-0.942,0.411-1.847,0.909-2.784,1.334
		c-0.24,0.109-0.648,0.225-0.793,0.108c-1.053-0.85-1.899-0.215-2.794,0.284c-0.216,0.121-0.505,0.11-0.899,0.186
		c0.281-1.421,0.809-2.458,2.027-3.108c2.849-1.521,5.871-2.58,8.989-3.351c1.146-0.283,2.362-0.341,3.551-0.381
		c1.259-0.041,2.058,0.918,2.162,2.218c0.208,2.57-1.662,3.814-3.284,5.172C89.794,23.586,88.918,23.855,89.596,25.148z"/>
	<path fill-rule="evenodd" clip-rule="evenodd" fill="#FFFFFF" d="M62.642,32.883c-0.58,2.348-3.459,2.112-4.401,4.123
		c0.447-0.289,0.881-0.602,1.344-0.863c1.138-0.643,2.273-1.296,3.445-1.873c0.365-0.18,0.842-0.13,1.268-0.186
		c-0.153,0.521-0.152,1.205-0.492,1.531c-0.762,0.731-1.771,1.201-2.537,1.928c-1.141,1.082-2.051,2.422-3.255,3.415
		c-1.414,1.167-3.207,1.581-5.018,1.3c-1.542-0.239-2.052-3.031-0.966-4.18c1.312-1.39,2.876-2.547,4.368-3.76
		c0.456-0.371,1.007-0.673,1.563-0.856c0.371-0.123,0.83,0.045,1.248,0.037c0.363-0.007,0.747-0.019,1.083-0.138
		c0.717-0.253,1.41-0.576,2.112-0.871C62.483,32.621,62.562,32.752,62.642,32.883z"/>
	<path fill-rule="evenodd" clip-rule="evenodd" fill="#FFFFFF" d="M67.804,69.354c1.311,0.076,2.562-0.229,3.549,0.854
		c0.114,0.125,0.603-0.073,0.912-0.147c0.439-0.106,0.955-0.454,1.296-0.324c2.328,0.885,4.631,1.842,6.912,2.844
		c0.434,0.19,0.733,0.685,1.234,1.177c-3.53,1.228-6.738,2.671-10.103,0.482c-1.615-1.051-2.849-2.463-3.789-4.134
		C67.731,69.957,67.804,69.72,67.804,69.354z"/>
	<path fill-rule="evenodd" clip-rule="evenodd" fill="#FFFFFF" d="M56.002,67.687c-0.046,0.553-0.077,0.93-0.108,1.307
		c0.073,0.043,0.147,0.087,0.221,0.131c0.352-0.519,0.67-1.064,1.062-1.551c0.885-1.1,1.766-2.209,2.741-3.227
		c0.251-0.262,0.845-0.195,1.281-0.279c-0.02,0.37,0.055,0.776-0.074,1.102c-1.079,2.713-2.359,5.283-4.849,7.045
		c-1.484,1.052-3.118,1.019-4.776,0.809c-0.213-0.027-0.581-0.79-0.502-0.878c1.318-1.474,2.686-2.906,4.077-4.313
		C55.222,67.682,55.585,67.744,56.002,67.687z"/>
	<path fill-rule="evenodd" clip-rule="evenodd" fill="#FFFFFF" d="M73.544,87.48c2.346,2.556,4.501,5.335,5.326,8.755
		c0.819,3.396,0.99,6.921-0.43,10.382c-0.058,0.007-0.211,0.045-0.36,0.035s-0.296-0.067-0.476-0.112
		c0.143-1.154,0.414-2.267,0.387-3.372c-0.048-1.879-0.109-3.79-0.48-5.623c-0.601-2.966-1.899-5.664-3.741-8.099
		c-0.362-0.479-0.462-1.157-0.683-1.744C73.239,87.628,73.392,87.554,73.544,87.48z"/>
	<path fill-rule="evenodd" clip-rule="evenodd" fill="#FFFFFF" d="M74.436,30.604c0.748-0.289,1.496-0.577,2.425-0.935
		c-0.023,0.47,0.036,0.763-0.053,0.82c-0.844,0.533-1.698,1.055-2.592,1.495c-0.117,0.058-0.472-0.367-0.57-0.701
		c-2.138-0.117-1.142-1.681-1.213-2.721c0.069-0.04,0.137-0.082,0.206-0.117c0.339-0.173,0.678-0.345,1.017-0.517
		c-0.351-0.088-0.698-0.23-1.054-0.253c-0.629-0.042-1.263-0.012-1.894-0.012c-0.077-0.103-0.153-0.205-0.23-0.308
		c0.326-0.314,0.605-0.814,0.986-0.911c1.385-0.351,2.804-0.566,4.205-0.833C76.191,28.6,76.191,28.6,74.436,30.604z"/>
	<path fill-rule="evenodd" clip-rule="evenodd" fill="#FFFFFF" d="M69.438,32.731c-0.703-0.354-1.133-0.581-1.573-0.787
		c-0.16-0.075-0.357-0.072-0.513-0.152c-0.407-0.209-0.886-0.373-1.157-0.703c-0.115-0.14,0.213-0.937,0.351-0.939
		c0.577-0.014,1.2,0.065,1.724,0.297c0.381,0.168,0.634,0.627,1.132,1.158c0-1.033,0-1.681,0-2.46
		c-0.334,0.073-0.833,0.181-1.417,0.309c0.563-1.605,1.519-1.965,2.701-1.396c0.135,1.26,0.251,2.348,0.38,3.556
		c0.325-0.146,0.633-0.401,0.778-0.329c0.506,0.253,1.202,0.525,1.369,0.963c0.271,0.712-0.453,0.592-0.913,0.638
		c-0.431,0.042-0.862,0.133-1.281,0.247C70.22,33.349,69.472,33.5,69.438,32.731z"/>
	<path fill-rule="evenodd" clip-rule="evenodd" fill="#FFFFFF" d="M65.08,27.242c0.561,0.138,1.133,0.246,1.676,0.437
		c0.132,0.046,0.281,0.495,0.23,0.539c-0.426,0.372-0.897,0.974-1.354,0.973c-1.074-0.002-2.146-0.299-3.267-0.484
		c0.029-0.768,0.558-0.801,1.201-0.878c0.533-0.064,1.032-0.401,1.546-0.617C65.111,27.212,65.08,27.242,65.08,27.242z"/>
	<path fill-rule="evenodd" clip-rule="evenodd" fill="#FFFFFF" d="M71.065,84.165c-1.365,0.242-3.843-3.472-3.396-5.192
		C68.875,80.816,69.943,82.45,71.065,84.165z"/>
	<path fill-rule="evenodd" clip-rule="evenodd" fill="#FFFFFF" d="M64.334,71.851c-0.44-2.264-1.054-4.222-0.64-6.416
		C64.456,66.204,64.977,70.817,64.334,71.851z"/>
	<path fill-rule="evenodd" clip-rule="evenodd" fill="#FFFFFF" d="M75.654,22.472c-0.283,2.006-0.656,2.32-2.337,2.042
		C73.332,23.362,74.333,22.452,75.654,22.472z"/>
	<path fill-rule="evenodd" clip-rule="evenodd" fill="#FFFFFF" d="M68.292,36.402c-0.065-1.868,0.7-2.47,2.349-1.98
		C70.588,35.903,69.34,35.933,68.292,36.402z"/>
	<path fill-rule="evenodd" clip-rule="evenodd" fill="#FFFFFF" d="M80.203,29.901c0,0.462,0,0.925,0,1.445
		c-0.116,0.044-0.254,0.137-0.395,0.142c-0.52,0.018-1.041,0.005-1.562,0.004c0.028-0.217-0.025-0.526,0.099-0.635
		c0.501-0.445,1.057-0.828,1.593-1.234C80.026,29.716,80.115,29.809,80.203,29.901z"/>
	<path fill-rule="evenodd" clip-rule="evenodd" fill="#FFFFFF" d="M78.192,27.213c0.012,1.172,0.484,2.157-1.038,2.862
		c-0.038-0.876-0.15-1.561-0.051-2.213C77.138,27.637,77.698,27.492,78.192,27.213z"/>
	<path fill-rule="evenodd" clip-rule="evenodd" fill="#FFFFFF" d="M71.477,36.548c-0.28-0.327-0.552-0.547-0.517-0.619
		c0.253-0.525,0.568-1.021,0.863-1.526c0.19,0.139,0.562,0.357,0.541,0.405C72.128,35.355,71.833,35.875,71.477,36.548z"/>
	<path fill-rule="evenodd" clip-rule="evenodd" fill="#FFFFFF" d="M80.535,26.988c0.526,0.068,1.053,0.135,1.58,0.202
		c0.026,0.153,0.054,0.306,0.08,0.458c-0.417,0.192-0.831,0.511-1.253,0.521c-0.202,0.004-0.417-0.578-0.626-0.895
		C80.39,27.18,80.462,27.084,80.535,26.988z"/>
	<path fill-rule="evenodd" clip-rule="evenodd" fill="#FFFFFF" d="M75.08,34.49c-0.299-0.386-0.663-0.657-0.633-0.871
		c0.034-0.23,0.439-0.565,0.68-0.562c0.233,0.003,0.638,0.37,0.645,0.587C75.779,33.875,75.406,34.117,75.08,34.49z"/>
</g>
</svg>
