<?xml version="1.0" encoding="utf-8"?>
<!-- Generator: Adobe Illustrator 16.0.0, SVG Export Plug-In . SVG Version: 6.00 Build 0)  -->
<!DOCTYPE svg PUBLIC "-//W3C//DTD SVG 1.1//EN" "http://www.w3.org/Graphics/SVG/1.1/DTD/svg11.dtd">
<svg version="1.1" id="Layer_1" xmlns="http://www.w3.org/2000/svg" xmlns:xlink="http://www.w3.org/1999/xlink" x="0px" y="0px"
	 width="144px" height="144px" viewBox="0 0 144 144" enable-background="new 0 0 144 144" xml:space="preserve">
<g>
	<path fill="#FFFFFF" d="M113.266,120.644c0.051-0.08,0.103-0.161,0.153-0.242c0.263,0.17,0.551,0.312,0.784,0.516
		c0.75,0.652,1.296,0.567,1.562-0.426c0.262-0.979,0.638-1.971,0.642-2.959c0.003-0.597-0.521-1.279-0.984-1.75
		c-0.155-0.157-0.858,0.342-1.305,0.329c-0.819-0.024-1.805,0.043-2.415-0.374c-1.189-0.812-2.244-1.865-3.218-2.942
		c-1.43-1.583-2.8-3.229-4.078-4.935c-0.792-1.058-1.435-2.244-1.996-3.442c-0.168-0.358,0-1.165,0.301-1.399
		c1.059-0.825,1.703-1.841,2.052-3.113c0.562-2.053,1.405-4.06,1.706-6.147c0.458-3.184-0.181-6.349-1.079-9.406
		c-0.554-1.887-1.484-3.659-2.153-5.516c-0.79-2.194-1.408-4.452-2.247-6.626c-0.345-0.895-0.106-1.228,0.642-1.529
		c0.663,1.597,0.705,1.617,2.181,1.021c0.32,0.836,0.642,1.675,1.105,2.887c0.763-1.386,1.427-1.354,2.242-0.551
		c0.236,0.233,0.875,0.232,1.254,0.109c0.708-0.231,1.062,0.022,1.505,0.545c0.718,0.85,1.562,1.574,2.715,0.547
		c0.101-0.09,0.292-0.123,0.437-0.112c1.321,0.099,2.641,0.231,3.963,0.31c0.342,0.021,0.79-0.002,1.022-0.2
		c0.717-0.609,1.01-0.307,1.479,0.348c0.6,0.835,1.26,1.824,2.649,1.364c0.118-1.437-0.925-1.732-2.021-1.992
		c0.484-0.904,0.949-0.913,1.636-0.338c1.133,0.949,1.765,0.93,2.473-0.002c-0.537-0.291-1.061-0.574-1.914-1.036
		c0.833-0.238,1.371-0.283,1.771-0.541c0.32-0.206,0.474-0.671,0.701-1.021c-0.426-0.154-0.881-0.483-1.271-0.419
		c-0.52,0.086-0.983,0.487-1.48,0.733c-0.199,0.099-0.446,0.241-0.633,0.197c-0.78-0.184-1.712-2.588-1.189-3.565
		c-0.82-0.446-1.618-1.193-2.483-1.282c-1.498-0.153-2.913,0.474-4.33,1.059c-1.784,0.737-3.688,1.091-5.417-0.332
		c-0.238-0.195-0.562-0.289-0.851-0.419c-4.721-2.137-8.803-5.081-11.947-9.265c-0.587-0.78-1.378-1.451-2.191-1.999
		c-0.51-0.343-1.255-0.566-1.726,0.28c-0.32,0.575-0.707,1.113-1.008,1.579c-1.339-0.845-2.458-1.507-3.522-2.246
		c-0.333-0.231-0.686-0.645-0.747-1.021c-0.227-1.396,0.344-2.259,1.586-2.865c0.515,0.494,0.905,1.053,1.438,1.281
		c0.188,0.081,0.718-0.65,1.101-1c0.229-0.211,0.483-0.583,0.716-0.575c1.987,0.072,2.625-1.559,3.344-2.837
		c0.361-0.642-0.005-1.638,0.616-2.431c0.409-0.523,0.567-0.673,1.059-0.202c0.284,0.272,0.642,0.467,0.967,0.697
		c0.133-0.089,0.266-0.177,0.399-0.266c-0.36-0.835-1.034-1.678-1.013-2.503c0.041-1.533-0.754-2.399-1.632-3.478
		c-2.251-2.764-2.915-6.161-3.234-9.622c-0.025-0.277,0.144-0.742,0.354-0.843c1.592-0.762,1.687-2.63,2.826-3.721
		c0.71-0.681,1.407-1.405,1.962-2.211c1.304-1.895,2.577-3.815,3.746-5.795c0.597-1.011,1.055-2.149,0.649-3.451
		c-0.393,0.293-0.634,0.661-0.894,1.013c-0.153,0.209-0.427,0.594-0.495,0.563c-1.377-0.619-1.768,0.628-2.239,1.318
		c-2.216,3.244-4.298,6.578-6.488,9.839c-0.525,0.783-1.222,1.489-1.97,2.061c-0.241,0.185-0.896-0.179-1.365-0.278
		C87.407,30,87.33,30.077,86.998,30.25c0.427,0.847,0.918,1.675,1.277,2.557c1.391,3.419,2.431,6.989,4.446,10.139
		c0.173,0.271,0.146,0.919-0.059,1.142c-2.234,2.428-4.516,4.811-6.8,7.193c-0.451,0.471-0.967,0.881-1.452,1.319
		c-0.09-0.055-0.181-0.11-0.271-0.165c0.102-0.29,0.187-0.585,0.308-0.866c0.258-0.599,0.658-1.166,0.777-1.788
		c0.28-1.467,0.39-2.966,0.644-4.439c0.359-2.086-0.15-3.906-1.806-5.207c-0.978-0.768-2.276-1.117-3.295-1.844
		c-1.102-0.787-2.057-1.784-3.043-2.724c-0.112-0.106-0.087-0.463-0.005-0.652c0.636-1.46,1.309-2.905,1.953-4.362
		c0.141-0.316,0.216-0.661,0.321-0.993c-0.12-0.063-0.24-0.127-0.361-0.191c-1.28,1.205-2.562,2.41-3.843,3.615
		c-0.089-0.076-0.178-0.151-0.267-0.227c0.255-0.551,0.511-1.102,0.932-2.008c-0.752,0.126-1.249,0.178-1.73,0.297
		c-0.866,0.214-1.716,0.691-2.442-0.371c-0.174-0.254-0.795-0.203-1.298-0.311c0.265,1.495,0.665,2.615,1.859,3.323
		c1.005,0.595,0.731,1.151-0.161,1.637c-0.343,0.187-0.636,0.472-0.933,0.733c-2.01,1.766-3.948,3.572-6.667,4.331
		c-1.19,0.333-2.307,1.176-3.269,2.006c-0.733,0.633-1.191,1.596-1.734,2.436c-0.999,1.547-0.981,1.828,0.153,3.282
		c0.314,0.403,0.679,0.765,1.129,1.267c-0.329,0.832-0.688,1.742-1.168,2.958c-1.554-2.032-2.909-3.655-4.085-5.398
		c-0.675-1-0.835-2.251-0.445-3.435c0.58-1.758,1.262-3.482,1.901-5.221c0.657-1.786,1.262-3.593,1.994-5.348
		c0.342-0.819,0.928-1.535,1.404-2.298c0.261-0.056,0.143-0.277,0.2-0.435c0.562-1.561-0.39-2.297-1.497-3.098
		c-1.445-1.046-2.824-2.2-4.142-3.405c-3.295-3.016-6.537-6.09-9.809-9.13c-0.228-0.211-0.53-0.481-0.799-0.483
		c-0.808-0.005-1.271-0.359-1.697-1.035c-0.444-0.703-1.279-0.578-1.604,0.166c-0.344,0.787,0.247,1.068,0.808,1.322
		c1.295,0.587,1.537,1.094,1.11,2.438c-0.154,0.484-0.346,0.957-0.455,1.253c0.804,0.676,1.421,1.322,2.157,1.775
		c0.645,0.397,1.417,0.774,2.144,0.799c0.725,0.024,0.959,0.146,1.099,0.857c0.081,0.409,0.696,1.102,0.849,1.047
		c1.744-0.623,1.774,0.842,2.188,1.754c0.258,0.569,0.491,0.791,1.188,0.871c0.726,0.083,1.432,0.628,2.053,1.096
		c0.14,0.105-0.126,0.725-0.172,1.112c-0.02,0.173-0.017,0.434,0.086,0.515c0.106,0.083,0.392,0.06,0.517-0.031
		c0.208-0.149,0.352-0.39,0.533-0.605c0.502,0.382,0.967,0.688,1.368,1.061c0.232,0.216,0.364,0.541,0.541,0.817
		c-0.276,0.069-0.566,0.104-0.822,0.217c-0.251,0.11-0.467,0.301-0.698,0.456c0.21,0.142,0.408,0.313,0.636,0.414
		c0.155,0.067,0.354,0.033,0.832,0.063c-0.794,1.382-1.483,2.582-2.207,3.842c0.725,0.327,0.915,0.927,0.597,1.786
		c-0.84,2.272-1.583,4.582-2.457,6.841c-0.375,0.969-0.993,1.842-1.472,2.773c-0.178,0.346-0.443,0.771-0.372,1.095
		c0.164,0.744,0.334,1.628,1.509,1.347c0.148-0.036,0.385,0.229,0.56,0.379c1.118,0.963,2.24,1.922,3.339,2.906
		c0.549,0.492,1.053,1.033,1.578,1.551c-0.091,0.118-0.183,0.235-0.274,0.353c-0.347-0.137-0.712-0.24-1.037-0.417
		c-1.987-1.086-2.104-1.045-3.057,1.031c-0.175,0.381-0.475,1.042-0.666,1.024c-1.43-0.133-1.595,1.043-2.1,1.869
		c-1.41,2.305-2.65,4.736-4.267,6.886c-1.829,2.432-4.388,4.094-7.12,5.432c-0.194,0.095-0.54,0.054-0.732-0.062
		c-0.399-0.239-0.636-0.95-1.257-0.318c-0.378,0.384-0.978,0.686-1.125,1.139c-0.705,2.155-2.438,3.327-4.197,4.383
		c-1.125,0.676-2.465,1.036-3.748,1.398c-2.423,0.686-4.886,1.23-7.309,1.918c-1.012,0.287-1.992,0.736-2.923,1.231
		c-0.229,0.122-0.324,1.03-0.287,1.044c1.463,0.531,0.489,1.447,0.419,2.242c-0.046,0.521,0.12,1.062,0.191,1.594
		c0.269-0.397,0.537-0.795,0.807-1.191c0.021-0.03,0.06-0.049,0.165-0.131c0.255,0.149,0.541,0.315,0.956,0.558
		c0.279-1.228,1.192-1.438,2.196-1.363c0-0.633-0.1-1.137,0.034-1.567c0.097-0.313,0.503-0.532,0.771-0.793
		c0.075,0.293,0.13,0.592,0.23,0.876c0.072,0.204,0.205,0.388,0.508,0.939c0.341-0.84,0.588-1.38,0.781-1.938
		c0.294-0.852,0.454-0.926,1.314-0.509c-1.324,1.603-1.35,2.054-0.105,2.593c0.12-0.308,0.239-0.614,0.426-1.095
		c1.323,1.367,2.576,0.263,3.844,0.179c0.07-0.431,0.13-0.799,0.189-1.161c1.597,0.179,2.56,0.479,3.069-0.783
		c0.783-0.372,1.555-0.515,1.63-0.825c0.115-0.476-0.25-1.067-0.403-1.58c0.8-0.477,0.852,1.488,1.592,0.41
		c0.33-0.48,0.167-1.299,0.228-1.964c0.708-0.383,1.21-0.948,1.749-1.475c0.388-0.38,0.799-0.747,1.246-1.052
		c0.444-0.302,0.946-0.519,1.551-0.84c0.143,0.119,0.437,0.365,0.999,0.835c0.275-0.916,0.496-1.652,0.755-2.515
		c0.354,0.449,0.61,0.773,0.875,1.109c0.871-0.443,0.86-1.238,0.534-1.773c-0.71-1.167,0.2-1.095,0.902-1.45
		c0.06,0.685,0.018,1.262,0.19,1.765c0.097,0.283,0.547,0.445,0.838,0.662c0.183-0.271,0.542-0.561,0.516-0.81
		c-0.079-0.731-0.368-1.44-0.458-2.172c-0.043-0.355,0.174-0.743,0.273-1.116c0.104,0.036,0.209,0.073,0.313,0.109
		c0.246,0.501,0.491,1.002,0.884,1.803c0.337-0.735,0.801-1.288,0.673-1.544c-0.677-1.354,0.461-1.422,1.257-1.847
		c-0.219-1.11,0.216-1.965,1.131-2.648c0.443-0.331,0.879-0.757,1.131-1.238c0.395-0.754,0.63-1.591,0.905-2.32
		c0.463,0,1.263,0.162,1.362-0.033c0.223-0.438,0.1-1.054,0.116-1.597c0.008-0.281-0.095-0.674,0.049-0.813
		c0.171-0.167,0.562-0.182,0.843-0.146c0.379,0.047,0.746,0.202,1.116,0.317c0.784,0.244,1.36,0.622,0.805,1.543
		c-1.137,1.886-2.243,3.794-3.46,5.628c-1.581,2.382-3.324,4.658-4.875,7.06c-1.848,2.863-3.755,5.714-5.281,8.75
		c-1.27,2.525-1.953,5.34-3.025,7.973c-1.746,4.284-2.928,8.584-1.407,13.216c1.085,3.306,2.504,6.353,5.558,8.347
		c0.304,0.198,0.569,0.657,0.612,1.023c0.306,2.614-0.901,4.456-3.003,5.897c-3.183,2.186-6.594,4.027-9.625,6.441
		c-1.042,0.829-2.232,1.316-3.597,1.451c-0.722,0.072-1.451,0.387-2.101,0.733c-0.258,0.138-0.463,0.691-0.402,0.998
		c0.039,0.199,0.62,0.444,0.927,0.408c0.819-0.098,1.627-0.312,2.427-0.526c0.678-0.182,1.34-0.427,2.21-0.709
		c-1.451,2.514-1.451,2.514-0.77,3.126c0.552-0.052,1.021-0.194,1.449-0.117c1.594,0.287,2.484-0.252,2.89-1.841
		c0.059-0.229,0.063-0.514,0.203-0.677c1.473-1.721,2.898-3.49,4.477-5.109c1.804-1.851,3.747-3.566,5.638-5.331
		c0.206-0.191,0.472-0.318,0.744-0.498c0.124,0.244,0.169,0.35,0.229,0.446c0.204,0.329,0.414,0.655,0.622,0.982
		c0.284-0.359,0.694-0.678,0.822-1.086c0.188-0.596,0.162-1.257,0.25-1.887c0.231-1.659,0.454-1.738,2.083-1.435
		c1.689,0.315,3.363,0.271,4.994-0.509c2.083-0.995,4.092-2.059,5.492-3.915c1.283,0.77,1.967,1.628,1.295,3.065
		c-0.103,0.22,0.083,0.61,0.202,0.893c0.604,1.428,1.23,2.847,1.908,4.403c1.466-0.242,1.811-1.586,2.521-2.771
		c-0.288,1.492,0.514,2.325,1.807,3.336c0.166-0.898,0.228-1.582,0.432-2.221c0.141-0.439,0.407-0.904,0.755-1.193
		c0.289-0.24,0.778-0.242,1.379-0.402c-0.223,0.98-0.442,1.844-0.604,2.719c-0.071,0.38-0.101,0.806,0.013,1.16
		c0.04,0.125,0.753,0.224,0.822,0.116c0.205-0.316,0.297-0.737,0.337-1.127c0.128-1.257,0.214-2.519,0.315-3.778
		c0.156-0.036,0.313-0.072,0.47-0.107c0.491,0.638,1.189,1.211,1.418,1.933c0.25,0.79-0.06,1.767,0.92,2.267
		c0.729-0.722,0.729-0.722,0.29-1.446c-0.626-1.032-0.312-2.815,0.662-3.465c0.365,0.695,0.577,1.573,1.134,2.022
		c0.56,0.451,1.456,0.524,2.224,0.634c0.116,0.016,0.336-0.669,0.501-1.032c0.272-0.602,0.538-1.205,0.869-1.948
		c0.922,1.449,0.922,1.448,2.045,0.366c0.087-0.083,0.17-0.18,0.273-0.232c1.492-0.759,1.754-2.274,2.161-3.65
		c0.394-1.325,0.244-2.822,1.403-3.888c0.197-0.182,0.229-0.564,0.299-0.863c0.194-0.823,0.367-1.65,0.639-2.884
		c2.985,3.927,6.514,6.342,11.198,6.75c0.009,0.044,0.029,0.119,0.037,0.195c0.106,1.12-1.518,2.429,0.368,3.373
		c0.089,0.045-0.004,0.387,0.057,0.566c0.119,0.351,0.288,0.684,0.325,0.769c0.766,0,1.569-0.196,1.729,0.04
		c0.335,0.499,0.542,1.27,0.42,1.849c-0.197,0.937-0.062,1.531,0.782,1.918c0.375-0.244,0.679-0.44,0.996-0.647
		c0.097,0.198,0.146,0.266,0.163,0.34c0.089,0.398,0.17,0.8,0.254,1.2c0.307-0.182,0.596-0.456,0.925-0.518
		c0.262-0.049,0.636,0.092,0.841,0.278c0.155,0.143,0.124,0.49,0.188,0.799c1.498-0.26,1.532,0.592,1.435,1.644
		c-0.046,0.496,0.122,1.013,0.199,1.565c0.58-0.157,0.93-0.252,1.42-0.386c-0.21,1.084-0.709,2.086,0.348,2.854
		c0.104,0.076-0.049,0.454,0.001,0.673c0.062,0.272,0.211,0.524,0.322,0.784c0.225-0.226,0.589-0.422,0.646-0.685
		c0.134-0.615,0.093-1.267,0.184-1.894c0.025-0.178,0.263-0.324,0.402-0.485c0.161,0.182,0.435,0.347,0.465,0.548
		c0.115,0.776,0.04,1.599,0.256,2.34c0.188,0.642,0.673,1.197,1.026,1.79c0.193-0.088,0.388-0.177,0.582-0.265
		C113.815,122.393,113.54,121.519,113.266,120.644z"/>
	<path fill-rule="evenodd" clip-rule="evenodd" d="M113.266,120.644c0.274,0.875,0.55,1.749,0.825,2.624
		c-0.194,0.088-0.389,0.177-0.582,0.265c-0.354-0.593-0.839-1.148-1.026-1.79c-0.216-0.741-0.141-1.563-0.256-2.34
		c-0.03-0.201-0.304-0.366-0.465-0.548c-0.14,0.161-0.377,0.308-0.402,0.485c-0.091,0.627-0.05,1.278-0.184,1.894
		c-0.057,0.263-0.421,0.459-0.646,0.685c-0.111-0.26-0.261-0.512-0.322-0.784c-0.05-0.219,0.104-0.597-0.001-0.673
		c-1.057-0.769-0.558-1.771-0.348-2.854c-0.49,0.134-0.84,0.229-1.42,0.386c-0.077-0.553-0.245-1.069-0.199-1.565
		c0.098-1.052,0.063-1.903-1.435-1.644c-0.063-0.309-0.032-0.656-0.188-0.799c-0.205-0.187-0.579-0.327-0.841-0.278
		c-0.329,0.062-0.618,0.336-0.925,0.518c-0.084-0.4-0.165-0.802-0.254-1.2c-0.017-0.074-0.066-0.142-0.163-0.34
		c-0.317,0.207-0.621,0.403-0.996,0.647c-0.845-0.387-0.979-0.981-0.782-1.918c0.122-0.579-0.085-1.35-0.42-1.849
		c-0.159-0.236-0.963-0.04-1.729-0.04c-0.037-0.085-0.206-0.418-0.325-0.769c-0.061-0.18,0.032-0.521-0.057-0.566
		c-1.886-0.944-0.262-2.253-0.368-3.373c-0.008-0.076-0.028-0.151-0.037-0.195c-4.685-0.408-8.213-2.823-11.198-6.75
		c-0.271,1.233-0.444,2.061-0.639,2.884c-0.07,0.299-0.102,0.682-0.299,0.863c-1.159,1.065-1.01,2.562-1.403,3.888
		c-0.407,1.376-0.669,2.892-2.161,3.65c-0.104,0.053-0.187,0.149-0.273,0.232c-1.123,1.082-1.123,1.083-2.045-0.366
		c-0.331,0.743-0.597,1.347-0.869,1.948c-0.165,0.363-0.385,1.048-0.501,1.032c-0.768-0.109-1.664-0.183-2.224-0.634
		c-0.557-0.449-0.769-1.327-1.134-2.022c-0.975,0.649-1.288,2.433-0.662,3.465c0.438,0.725,0.438,0.725-0.29,1.446
		c-0.979-0.5-0.67-1.477-0.92-2.267c-0.229-0.722-0.927-1.295-1.418-1.933c-0.156,0.035-0.313,0.071-0.47,0.107
		c-0.102,1.26-0.188,2.521-0.315,3.778c-0.04,0.39-0.132,0.811-0.337,1.127c-0.069,0.107-0.782,0.009-0.822-0.116
		c-0.113-0.354-0.083-0.78-0.013-1.16c0.162-0.875,0.382-1.738,0.604-2.719c-0.601,0.16-1.09,0.162-1.379,0.402
		c-0.348,0.289-0.614,0.754-0.755,1.193c-0.205,0.639-0.266,1.322-0.432,2.221c-1.293-1.011-2.095-1.844-1.807-3.336
		c-0.71,1.186-1.056,2.529-2.521,2.771c-0.677-1.557-1.304-2.976-1.908-4.403c-0.12-0.282-0.305-0.673-0.202-0.893
		c0.672-1.438-0.012-2.296-1.295-3.065c-1.4,1.856-3.409,2.92-5.492,3.915c-1.631,0.779-3.305,0.824-4.994,0.509
		c-1.629-0.304-1.852-0.225-2.083,1.435c-0.087,0.63-0.062,1.291-0.25,1.887c-0.128,0.408-0.538,0.727-0.822,1.086
		c-0.208-0.327-0.417-0.653-0.622-0.982c-0.06-0.097-0.105-0.202-0.229-0.446c-0.272,0.18-0.539,0.307-0.744,0.498
		c-1.892,1.765-3.834,3.48-5.638,5.331c-1.579,1.619-3.003,3.389-4.477,5.109c-0.14,0.163-0.145,0.447-0.203,0.677
		c-0.406,1.589-1.296,2.128-2.89,1.841c-0.428-0.077-0.897,0.065-1.449,0.117c-0.681-0.612-0.681-0.612,0.77-3.126
		c-0.87,0.282-1.532,0.527-2.21,0.709c-0.8,0.214-1.608,0.429-2.427,0.526c-0.307,0.036-0.888-0.209-0.927-0.408
		c-0.061-0.307,0.144-0.86,0.402-0.998c0.65-0.347,1.379-0.661,2.101-0.733c1.365-0.135,2.555-0.622,3.597-1.451
		c3.031-2.414,6.442-4.256,9.625-6.441c2.102-1.441,3.309-3.283,3.003-5.897c-0.043-0.366-0.308-0.825-0.612-1.023
		c-3.054-1.994-4.472-5.041-5.558-8.347c-1.521-4.632-0.338-8.932,1.407-13.216c1.073-2.633,1.756-5.447,3.025-7.973
		c1.526-3.035,3.433-5.887,5.281-8.75c1.55-2.401,3.293-4.677,4.875-7.06c1.217-1.834,2.323-3.742,3.46-5.628
		c0.555-0.921-0.021-1.299-0.805-1.543c-0.37-0.116-0.737-0.27-1.116-0.317c-0.281-0.036-0.671-0.021-0.843,0.146
		c-0.144,0.14-0.041,0.533-0.049,0.813c-0.016,0.543,0.107,1.158-0.116,1.597c-0.099,0.195-0.899,0.033-1.362,0.033
		c-0.275,0.729-0.511,1.566-0.905,2.32c-0.252,0.481-0.688,0.907-1.131,1.238c-0.915,0.683-1.35,1.538-1.131,2.648
		c-0.796,0.425-1.934,0.494-1.257,1.847c0.128,0.256-0.336,0.809-0.673,1.544c-0.393-0.801-0.638-1.302-0.884-1.803
		c-0.104-0.037-0.209-0.073-0.313-0.109c-0.1,0.373-0.317,0.76-0.273,1.116c0.09,0.732,0.378,1.44,0.458,2.172
		c0.026,0.249-0.333,0.539-0.516,0.81c-0.291-0.217-0.741-0.379-0.838-0.662c-0.172-0.503-0.13-1.08-0.19-1.765
		c-0.702,0.355-1.612,0.283-0.902,1.45c0.326,0.536,0.336,1.331-0.534,1.773c-0.265-0.336-0.521-0.66-0.875-1.109
		c-0.259,0.862-0.48,1.599-0.755,2.515c-0.562-0.47-0.856-0.716-0.999-0.835c-0.605,0.322-1.107,0.538-1.551,0.84
		c-0.447,0.305-0.858,0.672-1.246,1.052c-0.539,0.526-1.041,1.092-1.749,1.475c-0.061,0.665,0.102,1.483-0.228,1.964
		c-0.74,1.078-0.792-0.887-1.592-0.41c0.152,0.513,0.518,1.104,0.403,1.58c-0.075,0.311-0.847,0.453-1.63,0.825
		c-0.51,1.263-1.472,0.962-3.069,0.783c-0.059,0.362-0.119,0.73-0.189,1.161c-1.268,0.084-2.521,1.188-3.844-0.179
		c-0.187,0.48-0.307,0.787-0.426,1.095c-1.245-0.539-1.219-0.99,0.105-2.593c-0.861-0.417-1.021-0.343-1.314,0.509
		c-0.193,0.559-0.44,1.099-0.781,1.938c-0.303-0.552-0.436-0.735-0.508-0.939c-0.101-0.284-0.156-0.583-0.23-0.876
		c-0.268,0.261-0.674,0.479-0.771,0.793c-0.134,0.431-0.034,0.935-0.034,1.567c-1.004-0.074-1.917,0.136-2.196,1.363
		c-0.415-0.242-0.7-0.408-0.956-0.558c-0.104,0.082-0.144,0.101-0.165,0.131c-0.271,0.396-0.539,0.794-0.807,1.191
		c-0.071-0.532-0.237-1.072-0.191-1.594c0.07-0.795,1.044-1.711-0.419-2.242c-0.037-0.014,0.058-0.922,0.287-1.044
		c0.931-0.495,1.911-0.944,2.923-1.231c2.422-0.688,4.885-1.232,7.309-1.918c1.283-0.362,2.623-0.723,3.748-1.398
		c1.759-1.057,3.493-2.229,4.197-4.383c0.148-0.454,0.747-0.755,1.125-1.139c0.622-0.631,0.858,0.079,1.257,0.318
		c0.193,0.115,0.539,0.156,0.732,0.062c2.732-1.338,5.291-3,7.12-5.432c1.617-2.149,2.857-4.581,4.267-6.886
		c0.505-0.826,0.67-2.001,2.1-1.869c0.191,0.018,0.491-0.643,0.666-1.024c0.953-2.076,1.07-2.117,3.057-1.031
		c0.325,0.177,0.69,0.28,1.037,0.417c0.091-0.118,0.183-0.235,0.274-0.353c-0.524-0.519-1.029-1.06-1.578-1.551
		c-1.1-0.984-2.222-1.943-3.339-2.906c-0.174-0.15-0.411-0.415-0.56-0.379c-1.175,0.281-1.346-0.604-1.509-1.347
		c-0.071-0.324,0.194-0.75,0.372-1.095c0.479-0.931,1.097-1.804,1.472-2.773c0.874-2.259,1.616-4.568,2.457-6.841
		c0.318-0.858,0.128-1.459-0.597-1.786c0.724-1.26,1.413-2.46,2.207-3.842c-0.478-0.03-0.677,0.004-0.832-0.063
		c-0.229-0.1-0.426-0.272-0.636-0.414c0.231-0.155,0.447-0.345,0.698-0.456c0.256-0.113,0.546-0.148,0.822-0.217
		c-0.177-0.276-0.309-0.601-0.541-0.817c-0.401-0.373-0.866-0.679-1.368-1.061c-0.182,0.216-0.325,0.456-0.533,0.605
		c-0.125,0.09-0.411,0.114-0.517,0.031c-0.103-0.082-0.106-0.342-0.086-0.515c0.045-0.387,0.312-1.006,0.172-1.112
		c-0.621-0.468-1.327-1.013-2.053-1.096c-0.697-0.08-0.931-0.302-1.188-0.871c-0.413-0.912-0.443-2.377-2.188-1.754
		c-0.153,0.055-0.768-0.638-0.849-1.047c-0.14-0.71-0.374-0.833-1.099-0.857c-0.728-0.025-1.499-0.402-2.144-0.799
		c-0.736-0.453-1.353-1.099-2.157-1.775c0.108-0.296,0.301-0.769,0.455-1.253c0.427-1.345,0.185-1.852-1.11-2.438
		c-0.561-0.254-1.152-0.535-0.808-1.322c0.325-0.744,1.161-0.869,1.604-0.166c0.427,0.676,0.889,1.03,1.697,1.035
		c0.27,0.002,0.572,0.271,0.799,0.483c3.272,3.041,6.514,6.114,9.809,9.13c1.318,1.206,2.697,2.359,4.142,3.405
		c1.106,0.801,2.059,1.538,1.497,3.098c-0.057,0.158,0.061,0.379-0.2,0.435c-0.476,0.763-1.062,1.479-1.404,2.298
		c-0.732,1.754-1.337,3.562-1.994,5.348c-0.639,1.739-1.322,3.463-1.901,5.221c-0.39,1.183-0.229,2.435,0.445,3.435
		c1.177,1.743,2.531,3.366,4.085,5.398c0.48-1.216,0.84-2.126,1.168-2.958c-0.45-0.501-0.815-0.864-1.129-1.267
		c-1.134-1.454-1.151-1.735-0.153-3.282c0.542-0.84,1-1.803,1.734-2.436c0.962-0.83,2.079-1.673,3.269-2.006
		c2.719-0.759,4.658-2.564,6.667-4.331c0.297-0.261,0.59-0.547,0.933-0.733c0.893-0.486,1.166-1.042,0.161-1.637
		c-1.195-0.708-1.595-1.828-1.859-3.323c0.503,0.108,1.124,0.056,1.298,0.311c0.727,1.062,1.576,0.585,2.442,0.371
		c0.481-0.119,0.979-0.171,1.73-0.297c-0.421,0.907-0.677,1.458-0.932,2.008c0.089,0.076,0.178,0.151,0.267,0.227
		c1.281-1.205,2.562-2.41,3.843-3.615c0.121,0.063,0.241,0.127,0.361,0.191c-0.105,0.332-0.181,0.677-0.321,0.993
		c-0.645,1.457-1.317,2.901-1.953,4.362c-0.082,0.188-0.107,0.545,0.005,0.652c0.986,0.939,1.941,1.937,3.043,2.724
		c1.019,0.728,2.317,1.076,3.295,1.844c1.655,1.301,2.165,3.12,1.806,5.207c-0.254,1.473-0.363,2.972-0.644,4.439
		c-0.119,0.623-0.52,1.189-0.777,1.788c-0.121,0.281-0.206,0.577-0.308,0.866c0.09,0.055,0.181,0.11,0.271,0.165
		c0.485-0.438,1.001-0.849,1.452-1.319c2.284-2.382,4.565-4.765,6.8-7.193c0.205-0.223,0.231-0.872,0.059-1.142
		c-2.016-3.15-3.056-6.72-4.446-10.139c-0.359-0.882-0.851-1.71-1.277-2.557c0.332-0.172,0.409-0.25,0.468-0.237
		c0.469,0.099,1.124,0.462,1.365,0.278c0.748-0.571,1.444-1.278,1.97-2.061c2.19-3.261,4.272-6.595,6.488-9.839
		c0.472-0.69,0.862-1.937,2.239-1.318c0.068,0.031,0.342-0.354,0.495-0.563c0.26-0.353,0.501-0.72,0.894-1.013
		c0.405,1.302-0.053,2.44-0.649,3.451c-1.169,1.979-2.442,3.9-3.746,5.795c-0.555,0.806-1.252,1.531-1.962,2.211
		c-1.14,1.091-1.234,2.959-2.826,3.721c-0.21,0.101-0.379,0.566-0.354,0.843c0.319,3.461,0.983,6.858,3.234,9.622
		c0.878,1.078,1.673,1.944,1.632,3.478c-0.021,0.825,0.652,1.668,1.013,2.503c-0.134,0.088-0.267,0.177-0.399,0.266
		c-0.325-0.23-0.683-0.425-0.967-0.697c-0.491-0.471-0.649-0.321-1.059,0.202c-0.621,0.793-0.255,1.789-0.616,2.431
		c-0.719,1.279-1.356,2.91-3.344,2.837c-0.232-0.009-0.486,0.364-0.716,0.575c-0.383,0.35-0.913,1.081-1.101,1
		c-0.533-0.229-0.924-0.788-1.438-1.281c-1.242,0.605-1.812,1.469-1.586,2.865c0.062,0.376,0.414,0.789,0.747,1.021
		c1.064,0.739,2.184,1.401,3.522,2.246c0.301-0.466,0.688-1.004,1.008-1.579c0.471-0.846,1.216-0.623,1.726-0.28
		c0.813,0.548,1.604,1.219,2.191,1.999c3.145,4.184,7.227,7.128,11.947,9.265c0.288,0.13,0.612,0.224,0.851,0.419
		c1.729,1.422,3.633,1.069,5.417,0.332c1.417-0.585,2.832-1.212,4.33-1.059c0.865,0.088,1.663,0.835,2.483,1.282
		c-0.522,0.977,0.409,3.382,1.189,3.565c0.187,0.044,0.434-0.099,0.633-0.197c0.497-0.246,0.961-0.647,1.48-0.733
		c0.39-0.064,0.845,0.265,1.271,0.419c-0.228,0.35-0.381,0.814-0.701,1.021c-0.4,0.258-0.938,0.303-1.771,0.541
		c0.854,0.462,1.377,0.745,1.914,1.036c-0.708,0.932-1.34,0.951-2.473,0.002c-0.687-0.575-1.151-0.566-1.636,0.338
		c1.096,0.26,2.139,0.556,2.021,1.992c-1.39,0.46-2.05-0.529-2.649-1.364c-0.469-0.654-0.762-0.957-1.479-0.348
		c-0.232,0.198-0.681,0.221-1.022,0.2c-1.322-0.078-2.642-0.211-3.963-0.31c-0.145-0.011-0.336,0.022-0.437,0.112
		c-1.152,1.027-1.997,0.303-2.715-0.547c-0.442-0.522-0.797-0.776-1.505-0.545c-0.379,0.123-1.018,0.124-1.254-0.109
		c-0.815-0.803-1.479-0.835-2.242,0.551c-0.464-1.212-0.785-2.051-1.105-2.887c-1.476,0.597-1.518,0.576-2.181-1.021
		c-0.748,0.301-0.986,0.634-0.642,1.529c0.839,2.174,1.457,4.432,2.247,6.626c0.669,1.856,1.6,3.629,2.153,5.516
		c0.898,3.058,1.537,6.223,1.079,9.406c-0.301,2.088-1.144,4.095-1.706,6.147c-0.349,1.272-0.993,2.288-2.052,3.113
		c-0.301,0.234-0.469,1.041-0.301,1.399c0.562,1.198,1.204,2.385,1.996,3.442c1.278,1.706,2.648,3.352,4.078,4.935
		c0.974,1.077,2.028,2.13,3.218,2.942c0.61,0.417,1.596,0.35,2.415,0.374c0.446,0.013,1.149-0.486,1.305-0.329
		c0.463,0.471,0.987,1.153,0.984,1.75c-0.004,0.988-0.38,1.979-0.642,2.959c-0.266,0.993-0.812,1.078-1.562,0.426
		c-0.233-0.204-0.521-0.346-0.784-0.516C113.368,120.482,113.316,120.563,113.266,120.644z M67.337,64.688
		c2.481-0.242,1.758,1.53,1.954,2.896c0.141,0.977-1.144,2.132,0.332,2.95c0.065,0.037,0.071,0.364-0.009,0.452
		c-1.042,1.139-0.786,2.386-0.392,3.684c0.208,0.687,0.376,1.413,0.387,2.125c0.021,1.362-0.099,2.727-0.13,4.09
		c-0.037,1.615,0.476,2.913,1.989,3.763c1.031,0.578,1.96,1.342,2.93,2.031c0.971,0.69,1.693,0.442,1.989-0.758
		c0.434-1.762,1.024-3.52,1.166-5.31c0.315-3.965,0.58-7.951,0.514-11.923c-0.071-4.252-0.532-8.5-0.871-12.746
		c-0.033-0.409-0.345-1.072-0.636-1.139c-2.241-0.512-4.501-0.954-6.772-1.313c-0.877-0.139-1.476,0.23-1.21,1.339
		c0.051,0.213-0.418,0.798-0.539,0.769c-1.676-0.411-1.428,1.304-2.297,1.75c0.066,0.153,0.131,0.306,0.197,0.459
		c0.638-0.137,1.277-0.274,1.98-0.425c0,0.512-0.125,1.095,0.024,1.598c0.396,1.344-0.353,2.866-1.683,3.147
		c-0.775,0.164-1.144,0.555-0.998,1.716c0.719-1.031,2.176-0.394,2.48-1.78c0.02-0.089,0.535-0.173,0.738-0.08
		c0.131,0.06,0.23,0.509,0.141,0.675C68.276,63.297,67.851,63.892,67.337,64.688z M87.169,64.352
		c-0.083,0.087-0.166,0.174-0.25,0.262c0.121,0.273,0.23,0.551,0.363,0.818c1.629,3.289,3.257,6.579,4.897,9.863
		c0.62,1.241,1.228,2.494,1.925,3.692c0.569,0.979,1.371,1.83,1.882,2.833c1.061,2.082,1.671,4.316,1.156,6.654
		c-0.373,1.691-0.02,2.962,1.265,4.156c0.826,0.769,1.419,1.827,0.777,3.094c-0.078,0.155,0.033,0.406,0.056,0.613
		c0.094,0.05,0.187,0.1,0.28,0.149c0.403-0.497,1.023-0.938,1.171-1.501c0.417-1.594,0.803-3.229,0.894-4.864
		c0.084-1.527-0.369-3.08-0.326-4.614c0.051-1.784-0.178-3.456-0.955-5.06c-0.151-0.312-0.225-0.667-0.295-1.009
		c-0.451-2.213-0.959-4.314-2.809-5.959c-1.216-1.081-1.846-2.809-3.03-3.939c-1.742-1.662-3.733-3.066-5.646-4.543
		C88.137,64.698,87.623,64.562,87.169,64.352z M56.256,67.524c-0.093-0.086-0.187-0.172-0.28-0.258
		c-0.371,0.27-0.759,0.519-1.109,0.813c-0.668,0.562-1.344,1.121-1.965,1.733c-1.239,1.221-2.627,2.347-3.624,3.746
		c-2.215,3.11-3.77,6.58-4.821,10.26c-0.466,1.632-0.996,3.254-1.319,4.915c-0.216,1.112,0.27,2.42-1.194,3.053
		c-0.184,0.08-0.273,0.47-0.33,0.731c-0.151,0.699-0.357,1.405-0.366,2.111c-0.016,1.216-0.153,2.517,0.213,3.633
		c0.844,2.573,2.77,4.495,4.487,6.519c0.086,0.102,0.34,0.06,0.206,0.04c1.819-3.802,1.067-7.337-0.785-10.815
		c-0.179,0.305-0.396,0.591-0.526,0.911c-0.4,0.991-0.719,2.02-1.174,2.983c-0.146,0.309-0.617,0.462-0.939,0.687
		c-0.204-0.37-0.516-0.723-0.575-1.115c-0.043-0.285,0.233-0.629,0.393-0.934c0.529-1.012,1.134-1.988,1.59-3.03
		c0.602-1.373,1.097-2.793,1.624-4.198c0.296-0.791,0.587-1.586,0.836-2.394c0.215-0.697-0.162-1.667,0.961-1.931
		c0.127-0.03,0.201-0.307,0.292-0.475c1.005-1.861,1.998-3.73,3.017-5.585c0.878-1.6,1.859-3.146,2.659-4.782
		c0.654-1.337,1.096-2.777,1.655-4.161C55.516,69.153,55.896,68.342,56.256,67.524z M77.062,48.508
		c0.699,0.726,1.222,1.462,1.919,1.949c1.271,0.887,2.726,0.696,4.078,0.205c0.403-0.147,0.692-0.794,0.876-1.273
		c0.07-0.184-0.327-0.789-0.463-0.773c-1.764,0.2-2.662-1.054-3.438-2.206c-1.198-1.779-2.252-3.683-0.907-5.938
		c0.183-0.305,0.07-0.972-0.155-1.298c-0.698-1.01-1.366-2.156-2.339-2.825c-0.739-0.509-2.133-0.792-2.866-0.429
		c-1.364,0.675-2.459,1.895-3.638,2.864c0.681,0.952,1.209,1.69,1.738,2.428c0.09-0.059,0.181-0.117,0.271-0.176
		c-0.106-0.631-0.212-1.263-0.319-1.895c0.124-0.05,0.248-0.1,0.372-0.151c0.165,0.315,0.45,0.622,0.476,0.947
		c0.203,2.618-0.368,4.988-2.509,7.159c-0.281-1.422,0.757-1.97,1.064-2.797c0.307-0.824,1.053-1.692,0.377-2.849
		c-1.796,3.646-4.638,6.01-8.401,7.92c0.659,0.261,1.09,0.6,1.481,0.559c1.759-0.181,3.501-0.534,5.261-0.7
		c1.463-0.138,3.012-0.39,4.395-0.059C75.596,49.474,76.465,49.538,77.062,48.508z M61.583,93.537
		c-0.264-1.184-0.459-2.224-0.753-3.235c-0.061-0.209-0.501-0.293-0.739-0.471c-0.247-0.185-0.528-0.375-0.672-0.631
		c-0.163-0.291-0.217-0.653-0.272-0.992c-0.232-1.444-1.392-2.664-0.957-4.284c0.219-0.816,0.246-1.684,0.388-2.734
		c-1.605,0.877-2.975,1.591-4.309,2.367c-0.977,0.568-1.5,2.195-1.047,3.2c0.99,2.19,1.135,4.511,1.068,6.855
		c-0.017,0.584-0.283,1.157-0.38,1.744c-0.201,1.218,0.603,2.023,1.146,2.989c0.795,1.418,1.302,2.997,2.008,4.69
		c0.96-1.151,1.939-2.232,2.796-3.403c0.299-0.408,0.428-1.044,0.404-1.564c-0.051-1.112-0.292-2.213-0.382-3.324
		C59.773,93.405,60.019,93.223,61.583,93.537z M55.399,78.991c0.034-0.021,0.065-0.056,0.102-0.062
		c0.234-0.036,0.473-0.052,0.705-0.102c1.7-0.362,3.454-0.557,4.198-2.574c0.623-1.69,1.112-3.368,0.911-5.191
		c-0.078-0.71-0.074-1.428-0.134-2.141c-0.156-1.866-0.326-3.731-0.491-5.596c-0.171-0.056-0.342-0.112-0.513-0.167
		c-0.688,0.782-1.602,1.458-2.021,2.364c-1.314,2.836-2.371,5.791-3.667,8.635c-0.835,1.836-1.899,3.569-2.892,5.332
		c-0.318,0.563-0.501,1.046,0.173,1.556c0.553-0.854,1.067-1.649,1.581-2.445c0.146,0.085,0.292,0.169,0.437,0.254
		c-0.165,0.373-0.429,0.735-0.468,1.121c-0.04,0.396,0.047,0.865,0.241,1.211c0.646,1.158,1.463,1.043,2.409,0.287
		c0.551-0.44,1.236-0.71,1.832-1.101c0.187-0.123,0.279-0.391,0.421-0.603c-0.185-0.103-0.267-0.187-0.319-0.171
		c-0.409,0.126-0.818,0.256-1.216,0.412C55.512,80.476,55.256,80.277,55.399,78.991z M67.304,98.083
		c1.804,0.413,3.543,0.768,5.258,1.215c2.496,0.651,4.965,1.108,7.461-0.019c0.372-0.168,0.875-0.022,1.303-0.104
		c0.628-0.12,1.26-0.267,1.856-0.49c0.438-0.166,0.806-0.515,1.236-0.711c1.115-0.506,2.019-1.798,1.873-2.968
		c-0.057-0.465-0.406-0.921-0.72-1.301c-0.048-0.059-0.62,0.319-0.953,0.49c-0.173,0.089-0.348,0.178-0.529,0.247
		c-2.748,1.055-5.529,1.514-8.449,0.686c-0.641-0.182-1.396-0.042-2.086,0.05c-1.335,0.176-2.594,0.182-3.713-0.758
		c-0.315-0.265-0.806-0.318-1.187-0.458C68.162,95.466,67.736,96.768,67.304,98.083z M69.903,87.15
		c-0.38,1.615-0.738,3.064-1.049,4.522c-0.049,0.229,0.037,0.642,0.195,0.732c0.718,0.411,1.472,1.005,2.237,1.041
		c1.914,0.093,3.876,0.117,5.752-0.212c1.398-0.244,2.76-0.969,4.009-1.699c0.788-0.462,1.454-0.867,2.409-0.72
		c0.574,0.088,0.896-0.204,0.614-0.884c-0.804-1.94-1.567-3.896-2.362-5.841c-0.122-0.299-0.321-0.566-0.526-0.921
		c-0.838,0.989-1.412,2.047-2.299,2.629c-1.453,0.952-1.331,3.163-3.183,3.697c-0.086,0.024-0.122,0.198-0.194,0.293
		c-0.36,0.472-0.684,0.981-1.105,1.392c-0.217,0.211-0.629,0.357-0.917,0.311c-0.172-0.028-0.297-0.478-0.4-0.754
		c-0.108-0.287-0.073-0.687-0.262-0.874C71.898,88.948,70.922,88.087,69.903,87.15z M87.539,72.631
		c0.146,0.063,0.293,0.126,0.439,0.189c-0.129,0.438-0.218,0.894-0.396,1.31c-0.629,1.465-1.322,2.915,0.021,4.367
		c0.052,0.056,0.116,0.158,0.097,0.211c-0.505,1.351,0.767,1.234,1.392,1.802c0.144-0.358,0.287-0.602,0.337-0.862
		c0.28-1.454,0.728-2.811,1.79-3.927c0.196-0.206,0.176-0.828,0.015-1.131c-1.791-3.368-3.591-6.733-5.487-10.042
		c-0.361-0.629-1.155-1.01-1.927-1.653c0,0.726-0.023,1.189,0.005,1.649c0.121,1.979,0.362,3.956,0.358,5.934
		c-0.003,1.739-0.309,3.476-0.401,5.218c-0.019,0.354,0.316,1.033,0.485,1.032c0.505-0.002,1.101-0.155,1.484-0.467
		c0.327-0.266,0.396-0.839,0.604-1.265C86.74,74.204,87.144,73.419,87.539,72.631z M84.475,100.559
		c-0.1-0.109-0.2-0.218-0.301-0.327c-0.592,0.263-1.164,0.682-1.779,0.761c-2.075,0.266-4.162,0.492-6.251,0.565
		c-0.993,0.035-1.997-0.316-2.998-0.479c-1.521-0.247-3.048-0.464-4.564-0.733c-0.382-0.068-0.737-0.29-1.104-0.442
		c-0.887-0.368-1.265,0.324-1.528,0.888c-0.125,0.269,0.107,0.903,0.379,1.125c1.539,1.253,3.115,2.464,4.732,3.613
		c0.499,0.355,1.165,0.654,1.76,0.666c2.994,0.058,5.993,0.089,8.161-2.591c0.418-0.517,1.23-0.693,1.751-1.152
		C83.374,101.89,83.9,101.195,84.475,100.559z M92.53,84.384c-0.682,1.185-1.356,2.327-1.371,3.866
		c-0.013,1.408-0.48,2.808-0.675,4.222c-0.074,0.537-0.11,1.191,0.128,1.636c0.503,0.937,1.116,1.845,1.837,2.623
		c0.798,0.859,1.688,1.701,2.697,2.265c0.432,0.241,1.301-0.167,1.902-0.435c0.218-0.098,0.416-0.73,0.305-0.972
		c-0.223-0.481-0.675-1.228-1.015-1.218c-1.307,0.036-0.853-0.599-0.698-1.282c0.131-0.58,0.264-1.261,0.084-1.792
		C94.731,90.359,93.643,87.453,92.53,84.384z M52.463,89.333c-0.121,0.358-0.212,0.531-0.234,0.712
		c-0.324,2.635-0.63,5.271-0.958,7.906c-0.313,2.518-0.648,5.033-0.97,7.55c-0.062,0.489-0.152,1.032,0.625,0.944
		c0.624-0.07,1.239-0.206,1.859-0.307c1.596-0.258,3.264-2.145,2.864-3.609c-0.416-1.523-1.055-3.066-1.951-4.354
		c-0.957-1.376-1.023-2.827-0.578-4.142c0.523-1.542-0.151-2.867-0.164-4.289C52.954,89.648,52.739,89.556,52.463,89.333z
		 M89.353,92.086c1.171-2.555,0.391-5.553,2.57-7.964c-2.081-1.307-3.99-2.505-5.899-3.703c-0.137,0.119-0.274,0.237-0.411,0.355
		C87.748,84.257,87.522,88.495,89.353,92.086z M51.545,108.591c0.027,0.109,0.055,0.22,0.082,0.329
		c0.371,0.047,0.744,0.144,1.114,0.131c4.152-0.137,7.035-2.459,9.435-5.562c0.222-0.287,0.358-0.812,0.252-1.136
		c-0.143-0.439-0.499-0.88-0.886-1.132c-0.137-0.089-0.678,0.325-0.952,0.594c-0.301,0.295-0.456,0.744-0.765,1.027
		c-0.935,0.854-1.97,1.605-2.863,2.5c-1.294,1.297-2.768,2.237-4.526,2.754C52.12,108.19,51.842,108.423,51.545,108.591z
		 M62.032,80.548c-1.206,3.863-0.612,7.651,0.302,11.508C64.716,89.586,64.483,81.912,62.032,80.548z M108.709,70.48
		c-0.045,0.122-0.09,0.244-0.135,0.365c0.717,0.747,1.464,1.345,2.651,1.412c1.17,0.066,2.326,0.377,3.566,0.594
		c0.551-0.516,1.279-1.123,1.912-1.817c0.574-0.63,0.911-0.392,1.299,0.161c0.294,0.418,0.604,0.837,0.978,1.179
		c0.147,0.137,0.483,0.068,0.734,0.094c-0.007-0.251,0.079-0.562-0.036-0.743c-0.536-0.835-1.107-1.649-1.714-2.435
		c-0.158-0.206-0.532-0.443-0.73-0.389c-0.951,0.262-1.904,0.554-2.803,0.958c-1.514,0.679-3.021,1.183-4.702,0.692
		C109.409,70.458,109.051,70.5,108.709,70.48z M46.457,92.185c0.402,1.393,0.791,2.79,1.221,4.175
		c0.075,0.241,0.324,0.428,0.493,0.641c0.152-0.253,0.409-0.496,0.435-0.761c0.068-0.713-0.032-1.443,0.058-2.151
		c0.338-2.657,0.736-5.307,1.078-7.964c0.027-0.211-0.201-0.455-0.311-0.685c-0.188,0.115-0.473,0.187-0.551,0.354
		C47.931,87.836,46.575,89.739,46.457,92.185z M91.737,79.103c-0.456-0.382-0.696-0.583-0.938-0.784
		c-0.146,0.291-0.326,0.57-0.432,0.875c-0.429,1.242,0.175,1.852,1.307,2.23c0.622,0.209,1.167,0.641,1.77,0.923
		c0.572,0.268,1.176,0.471,1.765,0.703c0.062-0.075,0.125-0.149,0.188-0.224c-1.125-2.08-2.251-4.16-3.376-6.24
		c-0.136,0.037-0.271,0.074-0.407,0.111C91.652,77.454,91.691,78.21,91.737,79.103z M76.64,53.638
		c0.376-1.932,0.05-2.517-1.537-2.537c-1.692-0.021-3.389,0.187-5.081,0.325c-0.193,0.016-0.37,0.228-0.554,0.35
		c0.169,0.185,0.309,0.474,0.514,0.533c0.524,0.152,1.081,0.186,1.619,0.293C73.261,52.936,74.917,53.283,76.64,53.638z
		 M81.232,39.822c0.083,0.398,0.073,0.643,0.181,0.817c0.487,0.792,0.023,0.993-0.63,0.974c-1.122-0.033-1.289,0.178-0.943,1.361
		c3.179-1.319,3.179-1.319,3.978-0.634c-0.282,0.353-0.566,0.709-0.854,1.071c1.438,0.821,1.453,1.113,0.411,2.432
		c-0.295,0.374-0.351,0.937-0.516,1.413c0.16,0.061,0.32,0.122,0.48,0.183c0.496-1.171,2.069-1.641,1.724-3.404
		C84.644,41.899,83.692,40.388,81.232,39.822z M66.086,91.932c-0.326,0.47-0.654,0.828-0.851,1.249
		c-0.532,1.136-0.952,2.326-1.521,3.442c-0.622,1.221-0.307,2.205,1.039,2.801c1.359-1.255-1.164-1.222-0.688-2.238
		c0.131-0.032,0.312-0.111,0.497-0.119c1.655-0.069,2.099-0.383,2.241-2.057c0.077-0.9-0.183-1.831-0.312-2.745
		C66.48,92.181,66.32,92.118,66.086,91.932z M62.54,74.171c-0.058,0.416-0.277,1.133-0.149,1.201
		c1.373,0.733,1.188,1.58,0.315,2.552c-0.045,0.051-0.07,0.165-0.045,0.228c0.529,1.352,1.066,2.7,1.602,4.049
		c0.157-0.057,0.314-0.113,0.471-0.171C65.323,79.197,64.519,76.655,62.54,74.171z M79.645,70.972
		c-0.152,0.005-0.305,0.01-0.457,0.014c-0.151,3.302-0.303,6.603-0.454,9.903c0.141,0.036,0.28,0.071,0.421,0.106
		c0.639-0.564,1.256-1.155,1.159-2.172c-0.143-1.499-0.329-2.994-0.462-4.494C79.753,73.213,79.712,72.092,79.645,70.972z
		 M83.866,57.196c-0.141,0.1-0.281,0.2-0.422,0.3c0.86,1.705,1.664,3.441,2.618,5.091c0.248,0.43,0.937,0.713,1.474,0.828
		c0.325,0.07,0.769-0.281,1.108-0.517c0.081-0.056,0.01-0.564-0.081-0.594c-0.368-0.123-0.772-0.135-1.163-0.197
		c-0.353-0.056-0.899-0.014-1.01-0.211c-0.163-0.291-0.044-0.761,0.018-1.144c0.026-0.163,0.214-0.3,0.318-0.438
		C85.737,59.236,84.802,58.216,83.866,57.196z M93.321,26.952c2.306-2.529,4.037-5.136,5.447-8.227
		C97.127,19.447,93.223,25.277,93.321,26.952z M84.903,106.092c0.234-1.299,0.458-2.536,0.682-3.772
		c-0.076-0.059-0.152-0.118-0.229-0.177c-0.737,0.87-1.465,1.75-2.215,2.608c-0.663,0.76-1.485,1.485-0.229,2.418
		c0.256,0.189,0.518,0.372,0.777,0.559c0.078-0.313,0.177-0.623,0.227-0.94c0.028-0.184-0.021-0.38-0.041-0.624
		C84.266,106.136,84.605,106.112,84.903,106.092z M80.692,55.633c-0.904-0.17-1.484-0.279-2.219-0.417
		c0.134,1.949,0.26,3.797,0.386,5.646c0.73-1.093,1.228-2.164,1.586-3.28C80.648,56.949,80.622,56.242,80.692,55.633z
		 M84.517,92.076c-1.906-0.268-5.796,1.255-6.084,2.328C80.445,94.859,83.676,93.664,84.517,92.076z M94.784,65.57
		c0.111-0.108,0.224-0.217,0.335-0.326c-0.354-0.329-0.7-0.668-1.066-0.983c-0.188-0.161-0.548-0.242-0.598-0.422
		c-0.435-1.59-1.96-2.119-2.995-3.116c-0.14-0.136-0.494-0.05-0.748-0.066c-0.003,0.253-0.112,0.585,0.008,0.748
		C91.061,63.218,92.789,64.562,94.784,65.57z M47.966,18.01c2.182,2.332,4.402,4.706,6.777,7.245
		C54.739,23.957,49.303,18.438,47.966,18.01z M62.67,66.416c-0.033,0.22-0.108,0.386-0.072,0.522c0.433,1.635,0.87,3.27,1.344,4.893
		c0.047,0.161,0.343,0.249,0.523,0.37c0.101-0.233,0.304-0.476,0.286-0.699c-0.089-1.066-0.397-2.139-0.326-3.188
		C64.514,67.014,63.996,66.493,62.67,66.416z M101.021,67.068c-0.084,0.146-0.168,0.292-0.252,0.438
		c1.397,1.335,2.789,2.676,4.199,3.997c0.115,0.108,0.499,0.146,0.515,0.111c0.101-0.23,0.268-0.593,0.167-0.724
		c-0.637-0.829-1.249-1.716-2.044-2.373C102.856,67.899,101.892,67.541,101.021,67.068z M60.851,79.85
		c-1.847,0.852-2.317,5.099-0.953,6.909C60.225,84.39,60.517,82.271,60.851,79.85z M68.419,84.736
		c-0.161-0.033-0.322-0.067-0.482-0.101c-0.124,0.401-0.273,0.796-0.368,1.204c-0.348,1.489-0.704,2.979-0.996,4.479
		c-0.066,0.339,0.114,0.726,0.18,1.09c0.32-0.248,0.861-0.45,0.924-0.751c0.337-1.623,0.568-3.268,0.805-4.909
		C68.53,85.421,68.444,85.074,68.419,84.736z M69.989,85.133c-0.118,0.129-0.235,0.258-0.353,0.386
		c0.712,0.869,1.362,1.799,2.151,2.591c1.067,1.071,1.441,0.934,1.997-0.515C72.513,86.77,71.25,85.951,69.989,85.133z
		 M67.536,44.823c0.138,0.052,0.275,0.104,0.413,0.157c0.532-0.575,1.098-1.124,1.586-1.734c0.37-0.462,0.774-0.97,0.909-1.52
		c0.098-0.397-0.121-0.972-0.387-1.325c-0.182-0.241-0.689-0.237-1.051-0.343c-0.024,0.395-0.072,0.789-0.068,1.183
		c0.012,1.01,0.236,2.064-0.998,2.641C67.709,43.99,67.666,44.499,67.536,44.823z M64.919,55.825
		c0.833-0.565,1.55-0.975,2.154-1.511c0.173-0.153,0.021-0.672,0.018-1.024c-0.291,0.07-0.721,0.042-0.849,0.226
		c-0.771,1.105-1.005,1.099-1.736-0.169c-0.637,0.088-1.271,0.176-1.904,0.264c-0.028,0.147-0.056,0.293-0.084,0.44
		c0.623,0.22,1.247,0.44,1.87,0.66c0.051-0.092,0.102-0.184,0.153-0.275C64.649,54.834,64.758,55.232,64.919,55.825z M81.775,53.464
		c-0.51-0.361-0.832-0.646-1.201-0.838c-0.53-0.275-1.078-0.556-1.652-0.682c-0.235-0.052-0.558,0.293-0.841,0.458
		c0.245,0.402,0.516,1.162,0.731,1.147c1.056-0.073,1.815,0.155,2.113,1.697C81.327,54.405,81.548,53.942,81.775,53.464z
		 M49.365,99.117c-0.267,2.273-0.534,4.547-0.8,6.82C49.621,105.011,50.277,100.021,49.365,99.117z M82.513,83.353
		c1.103,2.284,1.674,4.692,3.064,7.021C86,89.082,83.502,83.527,82.513,83.353z M63.135,57.104c0.635,2.574,2.067,3.552,3.87,2.742
		C65.744,58.952,64.568,58.119,63.135,57.104z M99.522,73.551c0.126-0.089,0.251-0.178,0.377-0.268
		c-0.598-2.527-2.193-5.037-3.349-5.152C97.557,69.965,98.539,71.758,99.522,73.551z M66.536,73.499
		c-0.987,1.195-0.68,4.401,0.422,5.373C66.818,77.081,66.677,75.29,66.536,73.499z M79.8,109.998
		c0.114,0.043,0.228,0.085,0.342,0.128c0.533-1.027,1.066-2.054,1.6-3.081c-0.089-0.098-0.179-0.195-0.269-0.292
		c-0.741,0.539-1.482,1.077-2.211,1.607C79.464,108.978,79.632,109.487,79.8,109.998z M60.992,47.228
		c0.256-0.342,0.438-0.772,0.763-0.983c1.324-0.859,1.335-0.934-0.101-1.809C60.602,45.397,60.342,46.412,60.992,47.228z
		 M104.261,98.595c-0.15-0.1-0.3-0.2-0.45-0.301c-0.212,0.289-0.413,0.587-0.637,0.865c-0.407,0.508-0.845,0.991-1.232,1.513
		c-0.151,0.204-0.202,0.483-0.299,0.729c0.278-0.012,0.709,0.086,0.811-0.054C103.097,100.459,103.666,99.518,104.261,98.595z
		 M73.309,109.978c-0.28-0.732-0.339-1.393-0.696-1.673c-0.325-0.256-0.99-0.177-1.47-0.078c-0.146,0.03-0.175,0.62-0.18,0.641
		C71.796,109.262,72.383,109.539,73.309,109.978z M58.145,60.753c-0.72,0.789-1.439,1.578-2.159,2.367
		C57.886,62.775,58.41,62.244,58.145,60.753z M61.413,57.2c-1.293,0.627-0.749,1.422-0.44,2.142
		c0.084,0.195,0.354,0.311,0.539,0.463c0.138-0.209,0.417-0.44,0.389-0.624C61.802,58.539,61.598,57.912,61.413,57.2z M65.794,67.22
		c0.267,0.737,0.507,1.401,0.747,2.065c0.13-0.009,0.261-0.019,0.391-0.028c0-0.471,0-0.943,0-1.442
		c0.205-0.241,0.444-0.523,0.896-1.055C66.98,66.952,66.448,67.072,65.794,67.22z M78.755,83.427
		c0.152,0.102,0.305,0.203,0.456,0.304c0.554-0.785,1.119-1.563,1.644-2.367c0.059-0.09-0.079-0.371-0.199-0.489
		c-0.073-0.071-0.379-0.058-0.423,0.014C79.723,81.724,79.243,82.578,78.755,83.427z M27.367,77.973
		c0.046,0.124,0.093,0.248,0.139,0.371c1.708,0.635,2.249,0.381,2.05-1.202C28.793,77.432,28.08,77.702,27.367,77.973z
		 M66.123,44.443c1.412-0.38,0.614-1.339,0.734-2.07C65.416,42.395,65.283,42.786,66.123,44.443z M92.291,40.429
		c0.118-0.076,0.235-0.151,0.354-0.227c-0.236-1.788-0.879-2.822-1.833-2.692C91.32,38.514,91.806,39.471,92.291,40.429z
		 M90.331,36.225c0.178-0.082,0.355-0.163,0.533-0.245c-0.289-0.923-0.098-2.065-1.188-2.621c-0.119,0.049-0.238,0.099-0.357,0.148
		C89.656,34.413,89.994,35.319,90.331,36.225z M83.518,59.858c-0.108,0.024-0.217,0.048-0.326,0.072
		c0.129,0.821,0.258,1.641,0.422,2.682C84.512,61.596,84.457,61.177,83.518,59.858z M73.481,108.839
		c0.634,0.504,1.062,0.865,1.526,1.173c0.037,0.024,0.491-0.438,0.463-0.479c-0.3-0.443-0.632-0.875-1.024-1.236
		C74.384,108.239,73.982,108.55,73.481,108.839z M93.541,46.296c-0.1-0.1-0.198-0.199-0.297-0.299
		c-1.149,0.251-2.073,1.281-1.918,2.348C92.118,47.612,92.83,46.954,93.541,46.296z M118.305,73.453
		c-0.653-1.389-1.367-0.749-1.995-0.445c-0.154,0.074-0.164,0.447-0.239,0.684c0.603-0.014,1.206-0.016,1.808-0.051
		C118.028,73.632,118.173,73.515,118.305,73.453z M62.618,43.397c0.572,0.25,0.875,0.382,0.963,0.42
		c0.578-0.803,1.063-1.477,1.549-2.151c-0.086-0.084-0.171-0.168-0.257-0.252C64.178,42.025,63.482,42.637,62.618,43.397z
		 M54.531,46.934c-0.088,0.08-0.176,0.16-0.265,0.24c0.729,0.718,1.457,1.436,2.185,2.154c0.064-0.066,0.129-0.131,0.193-0.197
		C55.939,48.398,55.235,47.666,54.531,46.934z M51.142,87.139c-0.108-0.053-0.217-0.106-0.326-0.16
		c-0.145,0.635-0.319,1.265-0.418,1.906c-0.033,0.216,0.125,0.461,0.195,0.692c0.183-0.199,0.497-0.383,0.523-0.602
		C51.189,88.371,51.142,87.752,51.142,87.139z M93.081,58.887c-0.16-0.147-0.32-0.294-0.481-0.441
		c-0.396,0.418-0.794,0.837-1.19,1.255c0.189,0.166,0.378,0.331,0.567,0.496C92.345,59.76,92.713,59.323,93.081,58.887z
		 M101.18,97.217c-0.132-0.073-0.264-0.146-0.396-0.22c-0.286,0.467-0.614,0.917-0.827,1.415c-0.049,0.116,0.295,0.4,0.596,0.78
		C100.819,98.354,100.999,97.785,101.18,97.217z M63.771,47.556c0.174,0.105,0.348,0.21,0.521,0.315
		c0.286-0.347,0.572-0.693,0.858-1.04c-0.281-0.165-0.562-0.329-0.842-0.493C64.129,46.744,63.95,47.15,63.771,47.556z
		 M97.613,102.257c-0.051,0.212-0.102,0.423-0.153,0.635c0.498,0.1,0.995,0.219,1.498,0.27c0.058,0.006,0.154-0.374,0.233-0.575
		C98.666,102.476,98.14,102.366,97.613,102.257z"/>
	<path fill-rule="evenodd" clip-rule="evenodd" fill="#FFFFFF" d="M67.337,64.688c0.514-0.796,0.939-1.392,1.283-2.031
		c0.089-0.166-0.01-0.615-0.141-0.675c-0.203-0.093-0.718-0.009-0.738,0.08c-0.304,1.386-1.761,0.749-2.48,1.78
		c-0.146-1.161,0.223-1.552,0.998-1.716c1.331-0.281,2.08-1.804,1.683-3.147c-0.148-0.502-0.024-1.085-0.024-1.598
		c-0.703,0.151-1.342,0.289-1.98,0.425c-0.066-0.153-0.131-0.306-0.197-0.459c0.869-0.446,0.621-2.162,2.297-1.75
		c0.12,0.03,0.589-0.555,0.539-0.769c-0.266-1.109,0.333-1.478,1.21-1.339c2.271,0.359,4.531,0.801,6.772,1.313
		c0.291,0.067,0.603,0.73,0.636,1.139c0.339,4.246,0.8,8.494,0.871,12.746c0.066,3.972-0.198,7.958-0.514,11.923
		c-0.142,1.79-0.732,3.548-1.166,5.31c-0.296,1.2-1.019,1.448-1.989,0.758c-0.97-0.689-1.898-1.453-2.93-2.031
		c-1.513-0.85-2.026-2.147-1.989-3.763c0.031-1.363,0.151-2.728,0.13-4.09c-0.011-0.712-0.179-1.438-0.387-2.125
		c-0.394-1.298-0.65-2.545,0.392-3.684c0.081-0.088,0.075-0.416,0.009-0.452c-1.475-0.818-0.191-1.973-0.332-2.95
		C69.095,66.219,69.818,64.447,67.337,64.688z"/>
	<path fill-rule="evenodd" clip-rule="evenodd" fill="#FFFFFF" d="M87.169,64.352c0.454,0.211,0.968,0.347,1.354,0.645
		c1.913,1.478,3.904,2.881,5.646,4.543c1.185,1.131,1.814,2.858,3.03,3.939c1.85,1.645,2.357,3.746,2.809,5.959
		c0.07,0.342,0.144,0.697,0.295,1.009c0.777,1.604,1.006,3.275,0.955,5.06c-0.043,1.534,0.41,3.087,0.326,4.614
		c-0.091,1.636-0.477,3.271-0.894,4.864c-0.147,0.563-0.768,1.004-1.171,1.501c-0.094-0.05-0.187-0.1-0.28-0.149
		c-0.022-0.207-0.134-0.458-0.056-0.613c0.642-1.267,0.049-2.325-0.777-3.094c-1.284-1.194-1.638-2.465-1.265-4.156
		c0.515-2.338-0.096-4.572-1.156-6.654c-0.511-1.003-1.312-1.854-1.882-2.833c-0.697-1.198-1.305-2.451-1.925-3.692
		c-1.641-3.284-3.269-6.574-4.897-9.863c-0.133-0.267-0.242-0.545-0.363-0.818C87.003,64.526,87.086,64.438,87.169,64.352z"/>
	<path fill-rule="evenodd" clip-rule="evenodd" fill="#FFFFFF" d="M56.256,67.524c-0.36,0.818-0.74,1.629-1.075,2.458
		c-0.56,1.384-1.001,2.824-1.655,4.161c-0.8,1.636-1.78,3.183-2.659,4.782c-1.019,1.854-2.011,3.724-3.017,5.585
		c-0.09,0.168-0.164,0.444-0.292,0.475c-1.123,0.264-0.746,1.233-0.961,1.931c-0.249,0.808-0.54,1.603-0.836,2.394
		c-0.527,1.405-1.022,2.825-1.624,4.198c-0.457,1.042-1.061,2.019-1.59,3.03c-0.16,0.305-0.436,0.648-0.393,0.934
		c0.059,0.393,0.371,0.745,0.575,1.115c0.322-0.225,0.794-0.378,0.939-0.687c0.455-0.964,0.774-1.992,1.174-2.983
		c0.129-0.32,0.347-0.606,0.526-0.911c1.852,3.479,2.604,7.014,0.785,10.815c0.134,0.02-0.12,0.062-0.206-0.04
		c-1.717-2.023-3.643-3.945-4.487-6.519c-0.366-1.116-0.229-2.417-0.213-3.633c0.009-0.706,0.215-1.412,0.366-2.111
		c0.057-0.262,0.146-0.651,0.33-0.731c1.464-0.633,0.978-1.94,1.194-3.053c0.323-1.661,0.853-3.283,1.319-4.915
		c1.051-3.68,2.605-7.149,4.821-10.26c0.997-1.399,2.385-2.525,3.624-3.746c0.621-0.612,1.296-1.171,1.965-1.733
		c0.35-0.294,0.738-0.544,1.109-0.813C56.069,67.352,56.163,67.438,56.256,67.524z"/>
	<path fill-rule="evenodd" clip-rule="evenodd" fill="#FFFFFF" d="M77.062,48.508c-0.597,1.03-1.466,0.965-2.728,0.663
		c-1.383-0.331-2.932-0.079-4.395,0.059c-1.76,0.167-3.502,0.519-5.261,0.7c-0.392,0.041-0.823-0.298-1.481-0.559
		c3.764-1.91,6.605-4.274,8.401-7.92c0.676,1.157-0.07,2.025-0.377,2.849c-0.307,0.827-1.346,1.375-1.064,2.797
		c2.141-2.171,2.712-4.541,2.509-7.159c-0.025-0.326-0.311-0.632-0.476-0.947c-0.124,0.051-0.248,0.101-0.372,0.151
		c0.106,0.632,0.212,1.263,0.319,1.895c-0.09,0.059-0.181,0.117-0.271,0.176c-0.528-0.738-1.057-1.476-1.738-2.428
		c1.178-0.969,2.273-2.188,3.638-2.864c0.733-0.363,2.127-0.08,2.866,0.429c0.973,0.669,1.641,1.815,2.339,2.825
		c0.226,0.326,0.338,0.993,0.155,1.298c-1.345,2.254-0.291,4.158,0.907,5.938c0.775,1.152,1.674,2.405,3.438,2.206
		c0.136-0.015,0.533,0.59,0.463,0.773c-0.184,0.479-0.473,1.126-0.876,1.273c-1.353,0.491-2.808,0.682-4.078-0.205
		C78.283,49.971,77.761,49.234,77.062,48.508z M76.132,38.624c-1.794,1.722-2.199,4.633-1.097,6.779
		c0.331,0.645,0.843,1.254,1.415,1.692c0.265,0.203,0.873-0.042,1.391-0.09C73.998,44.826,75.48,41.768,76.132,38.624z"/>
	<path fill-rule="evenodd" clip-rule="evenodd" fill="#FFFFFF" d="M61.583,93.537c-1.564-0.314-1.81-0.132-1.701,1.207
		c0.09,1.111,0.331,2.212,0.382,3.324c0.024,0.521-0.105,1.156-0.404,1.564c-0.857,1.171-1.836,2.252-2.796,3.403
		c-0.706-1.693-1.212-3.272-2.008-4.69c-0.542-0.966-1.346-1.771-1.146-2.989c0.097-0.587,0.363-1.16,0.38-1.744
		c0.067-2.345-0.078-4.665-1.068-6.855c-0.453-1.005,0.071-2.632,1.047-3.2c1.334-0.776,2.704-1.49,4.309-2.367
		c-0.142,1.051-0.169,1.918-0.388,2.734c-0.435,1.62,0.724,2.84,0.957,4.284c0.055,0.339,0.109,0.701,0.272,0.992
		c0.144,0.256,0.425,0.446,0.672,0.631c0.238,0.178,0.678,0.262,0.739,0.471C61.124,91.313,61.319,92.354,61.583,93.537z"/>
	<path fill-rule="evenodd" clip-rule="evenodd" fill="#FFFFFF" d="M55.399,78.991c-0.143,1.286,0.112,1.484,1.289,1.02
		c0.398-0.156,0.807-0.286,1.216-0.412c0.052-0.016,0.134,0.068,0.319,0.171c-0.142,0.212-0.234,0.479-0.421,0.603
		c-0.595,0.391-1.28,0.66-1.832,1.101c-0.946,0.756-1.763,0.871-2.409-0.287c-0.193-0.346-0.281-0.815-0.241-1.211
		c0.039-0.386,0.303-0.748,0.468-1.121c-0.146-0.085-0.291-0.169-0.437-0.254c-0.514,0.796-1.028,1.591-1.581,2.445
		c-0.674-0.51-0.491-0.992-0.173-1.556c0.992-1.763,2.056-3.496,2.892-5.332c1.295-2.845,2.353-5.799,3.667-8.635
		c0.419-0.906,1.334-1.582,2.021-2.364c0.171,0.056,0.342,0.112,0.513,0.167c0.165,1.865,0.334,3.73,0.491,5.596
		c0.06,0.712,0.056,1.431,0.134,2.141c0.201,1.823-0.288,3.501-0.911,5.191c-0.744,2.018-2.499,2.212-4.198,2.574
		c-0.231,0.05-0.47,0.065-0.705,0.102C55.465,78.936,55.434,78.97,55.399,78.991z"/>
	<path fill-rule="evenodd" clip-rule="evenodd" fill="#FFFFFF" d="M67.304,98.083c0.432-1.315,0.858-2.617,1.351-4.12
		c0.381,0.14,0.872,0.193,1.187,0.458c1.119,0.939,2.378,0.934,3.713,0.758c0.689-0.092,1.445-0.231,2.086-0.05
		c2.92,0.828,5.701,0.369,8.449-0.686c0.182-0.069,0.356-0.158,0.529-0.247c0.333-0.171,0.905-0.549,0.953-0.49
		c0.313,0.38,0.663,0.836,0.72,1.301c0.146,1.17-0.758,2.462-1.873,2.968c-0.431,0.196-0.798,0.545-1.236,0.711
		c-0.597,0.224-1.229,0.37-1.856,0.49c-0.428,0.081-0.931-0.064-1.303,0.104c-2.496,1.127-4.965,0.67-7.461,0.019
		C70.848,98.851,69.108,98.496,67.304,98.083z"/>
	<path fill-rule="evenodd" clip-rule="evenodd" fill="#FFFFFF" d="M69.903,87.15c1.019,0.937,1.995,1.798,2.918,2.713
		c0.188,0.188,0.153,0.587,0.262,0.874c0.104,0.276,0.229,0.726,0.4,0.754c0.288,0.047,0.7-0.1,0.917-0.311
		c0.422-0.41,0.745-0.92,1.105-1.392c0.072-0.095,0.108-0.269,0.194-0.293c1.852-0.534,1.729-2.745,3.183-3.697
		c0.887-0.582,1.461-1.64,2.299-2.629c0.205,0.354,0.404,0.622,0.526,0.921c0.795,1.944,1.559,3.9,2.362,5.841
		c0.282,0.68-0.04,0.972-0.614,0.884c-0.955-0.147-1.621,0.258-2.409,0.72c-1.249,0.73-2.61,1.455-4.009,1.699
		c-1.876,0.329-3.838,0.305-5.752,0.212c-0.765-0.036-1.519-0.63-2.237-1.041c-0.159-0.091-0.244-0.503-0.195-0.732
		C69.165,90.215,69.523,88.766,69.903,87.15z"/>
	<path fill-rule="evenodd" clip-rule="evenodd" fill="#FFFFFF" d="M87.539,72.631c-0.396,0.788-0.799,1.573-1.186,2.366
		c-0.207,0.426-0.276,0.999-0.604,1.265c-0.384,0.312-0.979,0.465-1.484,0.467c-0.169,0.001-0.504-0.679-0.485-1.032
		c0.093-1.742,0.398-3.479,0.401-5.218c0.004-1.978-0.237-3.955-0.358-5.934c-0.028-0.46-0.005-0.923-0.005-1.649
		c0.771,0.643,1.565,1.024,1.927,1.653c1.896,3.309,3.696,6.673,5.487,10.042c0.161,0.303,0.182,0.925-0.015,1.131
		c-1.062,1.116-1.51,2.473-1.79,3.927c-0.05,0.261-0.193,0.504-0.337,0.862c-0.625-0.567-1.896-0.451-1.392-1.802
		c0.02-0.053-0.045-0.155-0.097-0.211c-1.343-1.452-0.649-2.902-0.021-4.367c0.179-0.416,0.268-0.872,0.396-1.31
		C87.832,72.757,87.686,72.694,87.539,72.631z"/>
	<path fill-rule="evenodd" clip-rule="evenodd" fill="#FFFFFF" d="M84.475,100.559c-0.574,0.637-1.101,1.331-1.741,1.894
		c-0.521,0.459-1.333,0.636-1.751,1.152c-2.168,2.68-5.167,2.648-8.161,2.591c-0.595-0.012-1.261-0.311-1.76-0.666
		c-1.618-1.149-3.193-2.36-4.732-3.613c-0.272-0.222-0.505-0.856-0.379-1.125c0.263-0.563,0.641-1.256,1.528-0.888
		c0.367,0.152,0.721,0.374,1.104,0.442c1.517,0.27,3.043,0.486,4.564,0.733c1.001,0.162,2.005,0.514,2.998,0.479
		c2.089-0.073,4.176-0.3,6.251-0.565c0.615-0.079,1.188-0.498,1.779-0.761C84.274,100.341,84.375,100.449,84.475,100.559z"/>
	<path fill-rule="evenodd" clip-rule="evenodd" fill="#FFFFFF" d="M92.53,84.384c1.112,3.069,2.201,5.976,3.194,8.913
		c0.18,0.531,0.047,1.212-0.084,1.792c-0.154,0.684-0.608,1.318,0.698,1.282c0.34-0.01,0.792,0.736,1.015,1.218
		c0.111,0.241-0.087,0.874-0.305,0.972c-0.602,0.268-1.471,0.676-1.902,0.435c-1.01-0.563-1.899-1.405-2.697-2.265
		c-0.721-0.778-1.334-1.687-1.837-2.623c-0.238-0.444-0.202-1.099-0.128-1.636c0.194-1.414,0.662-2.813,0.675-4.222
		C91.174,86.711,91.849,85.568,92.53,84.384z"/>
	<path fill-rule="evenodd" clip-rule="evenodd" fill="#FFFFFF" d="M52.463,89.333c0.275,0.223,0.491,0.315,0.492,0.411
		c0.013,1.422,0.687,2.747,0.164,4.289c-0.445,1.314-0.379,2.766,0.578,4.142c0.896,1.288,1.536,2.831,1.951,4.354
		c0.4,1.465-1.268,3.352-2.864,3.609c-0.62,0.101-1.235,0.236-1.859,0.307c-0.777,0.088-0.687-0.455-0.625-0.944
		c0.322-2.517,0.657-5.032,0.97-7.55c0.328-2.635,0.634-5.271,0.958-7.906C52.251,89.864,52.343,89.691,52.463,89.333z"/>
	<path fill-rule="evenodd" clip-rule="evenodd" fill="#FFFFFF" d="M89.353,92.086c-1.83-3.591-1.604-7.829-3.74-11.312
		c0.137-0.118,0.274-0.236,0.411-0.355c1.909,1.198,3.818,2.396,5.899,3.703C89.743,86.533,90.523,89.531,89.353,92.086z"/>
	<path fill-rule="evenodd" clip-rule="evenodd" fill="#FFFFFF" d="M51.545,108.591c0.296-0.168,0.574-0.4,0.892-0.494
		c1.758-0.517,3.231-1.457,4.526-2.754c0.893-0.895,1.928-1.646,2.863-2.5c0.309-0.283,0.464-0.732,0.765-1.027
		c0.274-0.269,0.815-0.683,0.952-0.594c0.387,0.252,0.743,0.692,0.886,1.132c0.105,0.323-0.031,0.849-0.252,1.136
		c-2.4,3.103-5.283,5.425-9.435,5.562c-0.37,0.013-0.743-0.084-1.114-0.131C51.6,108.811,51.573,108.7,51.545,108.591z"/>
	<path fill-rule="evenodd" clip-rule="evenodd" fill="#FFFFFF" d="M62.032,80.548c2.451,1.364,2.684,9.038,0.302,11.508
		C61.42,88.199,60.826,84.411,62.032,80.548z"/>
	<path fill-rule="evenodd" clip-rule="evenodd" fill="#FFFFFF" d="M108.709,70.48c0.342,0.02,0.7-0.023,1.021,0.071
		c1.682,0.491,3.188-0.013,4.702-0.692c0.898-0.403,1.852-0.695,2.803-0.958c0.198-0.055,0.572,0.183,0.73,0.389
		c0.606,0.786,1.178,1.6,1.714,2.435c0.115,0.181,0.029,0.492,0.036,0.743c-0.251-0.025-0.587,0.043-0.734-0.094
		c-0.373-0.342-0.684-0.761-0.978-1.179c-0.388-0.553-0.725-0.791-1.299-0.161c-0.633,0.694-1.361,1.301-1.912,1.817
		c-1.24-0.217-2.396-0.527-3.566-0.594c-1.188-0.067-1.935-0.666-2.651-1.412C108.619,70.724,108.664,70.602,108.709,70.48z"/>
	<path fill-rule="evenodd" clip-rule="evenodd" fill="#FFFFFF" d="M46.457,92.185c0.119-2.445,1.475-4.349,2.423-6.392
		c0.078-0.167,0.362-0.238,0.551-0.354c0.109,0.229,0.337,0.474,0.311,0.685c-0.342,2.657-0.739,5.307-1.078,7.964
		c-0.09,0.708,0.01,1.438-0.058,2.151C48.58,96.504,48.322,96.747,48.17,97c-0.169-0.213-0.418-0.399-0.493-0.641
		C47.248,94.975,46.859,93.577,46.457,92.185z"/>
	<path fill-rule="evenodd" clip-rule="evenodd" fill="#FFFFFF" d="M91.737,79.103c-0.046-0.893-0.085-1.648-0.124-2.405
		c0.136-0.037,0.271-0.074,0.407-0.111c1.125,2.08,2.251,4.16,3.376,6.24c-0.062,0.074-0.125,0.148-0.188,0.224
		c-0.589-0.232-1.192-0.436-1.765-0.703c-0.603-0.282-1.147-0.714-1.77-0.923c-1.132-0.379-1.735-0.988-1.307-2.23
		c0.105-0.305,0.286-0.584,0.432-0.875C91.041,78.52,91.281,78.721,91.737,79.103z"/>
	<path fill-rule="evenodd" clip-rule="evenodd" fill="#FFFFFF" d="M76.64,53.638c-1.723-0.355-3.379-0.702-5.039-1.036
		c-0.538-0.108-1.095-0.142-1.619-0.293c-0.205-0.059-0.345-0.349-0.514-0.533c0.184-0.122,0.361-0.334,0.554-0.35
		c1.692-0.139,3.388-0.347,5.081-0.325C76.689,51.121,77.016,51.706,76.64,53.638z"/>
	<path fill-rule="evenodd" clip-rule="evenodd" fill="#FFFFFF" d="M81.232,39.822c2.46,0.566,3.411,2.078,3.83,4.212
		c0.346,1.763-1.228,2.233-1.724,3.404c-0.16-0.061-0.32-0.122-0.48-0.183c0.165-0.476,0.221-1.039,0.516-1.413
		c1.042-1.319,1.026-1.611-0.411-2.432c0.288-0.361,0.572-0.718,0.854-1.071c-0.799-0.686-0.799-0.686-3.978,0.634
		c-0.346-1.183-0.179-1.394,0.943-1.361c0.653,0.019,1.117-0.182,0.63-0.974C81.306,40.465,81.315,40.22,81.232,39.822z"/>
	<path fill-rule="evenodd" clip-rule="evenodd" fill="#FFFFFF" d="M66.086,91.932c0.234,0.187,0.394,0.249,0.406,0.333
		c0.128,0.914,0.389,1.845,0.312,2.745c-0.143,1.674-0.586,1.987-2.241,2.057c-0.184,0.008-0.365,0.087-0.497,0.119
		c-0.476,1.017,2.047,0.983,0.688,2.238c-1.346-0.596-1.661-1.58-1.039-2.801c0.569-1.116,0.989-2.307,1.521-3.442
		C65.433,92.76,65.761,92.401,66.086,91.932z"/>
	<path fill-rule="evenodd" clip-rule="evenodd" fill="#FFFFFF" d="M62.54,74.171c1.979,2.484,2.783,5.026,2.193,7.858
		c-0.157,0.058-0.314,0.114-0.471,0.171c-0.536-1.349-1.073-2.697-1.602-4.049c-0.024-0.062,0-0.177,0.045-0.228
		c0.873-0.972,1.058-1.818-0.315-2.552C62.263,75.304,62.481,74.587,62.54,74.171z"/>
	<path fill-rule="evenodd" clip-rule="evenodd" fill="#FFFFFF" d="M79.645,70.972c0.067,1.12,0.108,2.241,0.207,3.358
		c0.133,1.5,0.319,2.995,0.462,4.494c0.097,1.017-0.521,1.607-1.159,2.172c-0.141-0.035-0.28-0.07-0.421-0.106
		c0.151-3.301,0.303-6.602,0.454-9.903C79.34,70.982,79.492,70.977,79.645,70.972z"/>
	<path fill-rule="evenodd" clip-rule="evenodd" fill="#FFFFFF" d="M83.866,57.196c0.936,1.02,1.871,2.04,2.86,3.118
		c-0.104,0.137-0.292,0.274-0.318,0.438c-0.062,0.383-0.181,0.854-0.018,1.144c0.11,0.198,0.657,0.156,1.01,0.211
		c0.391,0.062,0.795,0.075,1.163,0.197c0.091,0.03,0.162,0.538,0.081,0.594c-0.34,0.236-0.783,0.587-1.108,0.517
		c-0.537-0.115-1.226-0.398-1.474-0.828c-0.954-1.65-1.758-3.387-2.618-5.091C83.585,57.396,83.726,57.296,83.866,57.196z"/>
	<path fill-rule="evenodd" clip-rule="evenodd" fill="#FFFFFF" d="M93.321,26.952c-0.099-1.675,3.806-7.505,5.447-8.227
		C97.358,21.816,95.627,24.423,93.321,26.952z"/>
	<path fill-rule="evenodd" clip-rule="evenodd" fill="#FFFFFF" d="M84.903,106.092c-0.298,0.021-0.638,0.044-1.027,0.071
		c0.02,0.244,0.069,0.44,0.041,0.624c-0.05,0.317-0.148,0.627-0.227,0.94c-0.26-0.187-0.521-0.369-0.777-0.559
		c-1.257-0.933-0.435-1.658,0.229-2.418c0.75-0.858,1.478-1.738,2.215-2.608c0.076,0.059,0.152,0.118,0.229,0.177
		C85.361,103.556,85.138,104.793,84.903,106.092z"/>
	<path fill-rule="evenodd" clip-rule="evenodd" fill="#FFFFFF" d="M80.692,55.633c-0.07,0.609-0.044,1.316-0.247,1.949
		c-0.358,1.116-0.855,2.187-1.586,3.28c-0.126-1.849-0.252-3.697-0.386-5.646C79.208,55.354,79.788,55.463,80.692,55.633z"/>
	<path fill-rule="evenodd" clip-rule="evenodd" fill="#FFFFFF" d="M84.517,92.076c-0.841,1.588-4.071,2.783-6.084,2.328
		C78.721,93.331,82.61,91.809,84.517,92.076z"/>
	<path fill-rule="evenodd" clip-rule="evenodd" fill="#FFFFFF" d="M94.784,65.57c-1.995-1.007-3.724-2.352-5.064-4.167
		c-0.12-0.163-0.011-0.495-0.008-0.748c0.254,0.017,0.608-0.069,0.748,0.066c1.035,0.997,2.561,1.526,2.995,3.116
		c0.05,0.181,0.41,0.261,0.598,0.422c0.366,0.315,0.712,0.654,1.066,0.983C95.008,65.353,94.896,65.461,94.784,65.57z"/>
	<path fill-rule="evenodd" clip-rule="evenodd" fill="#FFFFFF" d="M47.966,18.01c1.337,0.428,6.773,5.947,6.777,7.245
		C52.368,22.716,50.147,20.342,47.966,18.01z"/>
	<path fill-rule="evenodd" clip-rule="evenodd" fill="#FFFFFF" d="M62.67,66.416c1.326,0.077,1.844,0.598,1.755,1.898
		c-0.071,1.049,0.237,2.122,0.326,3.188c0.019,0.224-0.185,0.466-0.286,0.699c-0.18-0.121-0.476-0.209-0.523-0.37
		c-0.474-1.624-0.912-3.258-1.344-4.893C62.562,66.802,62.637,66.636,62.67,66.416z"/>
	<path fill-rule="evenodd" clip-rule="evenodd" fill="#FFFFFF" d="M101.021,67.068c0.87,0.473,1.835,0.831,2.585,1.449
		c0.795,0.656,1.407,1.544,2.044,2.373c0.101,0.131-0.066,0.494-0.167,0.724c-0.016,0.036-0.399-0.002-0.515-0.111
		c-1.41-1.321-2.802-2.662-4.199-3.997C100.854,67.36,100.938,67.214,101.021,67.068z"/>
	<path fill-rule="evenodd" clip-rule="evenodd" fill="#FFFFFF" d="M60.851,79.85c-0.334,2.422-0.626,4.54-0.953,6.909
		C58.534,84.948,59.004,80.701,60.851,79.85z"/>
	<path fill-rule="evenodd" clip-rule="evenodd" fill="#FFFFFF" d="M68.419,84.736c0.025,0.338,0.11,0.685,0.063,1.013
		c-0.237,1.642-0.468,3.286-0.805,4.909c-0.063,0.301-0.604,0.503-0.924,0.751c-0.066-0.364-0.247-0.751-0.18-1.09
		c0.292-1.501,0.647-2.99,0.996-4.479c0.095-0.408,0.244-0.803,0.368-1.204C68.098,84.669,68.259,84.703,68.419,84.736z"/>
	<path fill-rule="evenodd" clip-rule="evenodd" fill="#FFFFFF" d="M69.989,85.133c1.262,0.818,2.524,1.637,3.795,2.462
		c-0.556,1.448-0.93,1.586-1.997,0.515c-0.79-0.792-1.439-1.722-2.151-2.591C69.753,85.391,69.871,85.262,69.989,85.133z"/>
	<path fill-rule="evenodd" clip-rule="evenodd" fill="#FFFFFF" d="M67.536,44.823c0.13-0.324,0.173-0.833,0.404-0.941
		c1.234-0.577,1.01-1.631,0.998-2.641c-0.004-0.394,0.044-0.789,0.068-1.183c0.362,0.105,0.869,0.102,1.051,0.343
		c0.266,0.353,0.485,0.928,0.387,1.325c-0.135,0.55-0.54,1.058-0.909,1.52c-0.488,0.611-1.054,1.159-1.586,1.734
		C67.811,44.928,67.674,44.875,67.536,44.823z"/>
	<path fill-rule="evenodd" clip-rule="evenodd" fill="#FFFFFF" d="M64.919,55.825c-0.161-0.592-0.27-0.991-0.378-1.389
		c-0.051,0.092-0.102,0.184-0.153,0.275c-0.623-0.22-1.247-0.44-1.87-0.66c0.028-0.147,0.057-0.293,0.084-0.44
		c0.634-0.087,1.268-0.175,1.904-0.264c0.731,1.268,0.965,1.274,1.736,0.169c0.128-0.184,0.559-0.156,0.849-0.226
		c0.003,0.352,0.155,0.871-0.018,1.024C66.469,54.85,65.752,55.259,64.919,55.825z"/>
	<path fill-rule="evenodd" clip-rule="evenodd" fill="#FFFFFF" d="M81.775,53.464c-0.228,0.478-0.448,0.94-0.85,1.783
		c-0.298-1.542-1.058-1.771-2.113-1.697c-0.216,0.015-0.486-0.745-0.731-1.147c0.283-0.165,0.605-0.51,0.841-0.458
		c0.574,0.126,1.122,0.407,1.652,0.682C80.943,52.818,81.266,53.103,81.775,53.464z"/>
	<path fill-rule="evenodd" clip-rule="evenodd" fill="#FFFFFF" d="M49.365,99.117c0.912,0.903,0.256,5.894-0.8,6.82
		C48.832,103.664,49.099,101.391,49.365,99.117z"/>
	<path fill-rule="evenodd" clip-rule="evenodd" fill="#FFFFFF" d="M82.513,83.353c0.989,0.175,3.487,5.729,3.064,7.021
		C84.187,88.045,83.615,85.637,82.513,83.353z"/>
	<path fill-rule="evenodd" clip-rule="evenodd" fill="#FFFFFF" d="M63.135,57.104c1.433,1.016,2.608,1.849,3.87,2.742
		C65.202,60.655,63.771,59.677,63.135,57.104z"/>
	<path fill-rule="evenodd" clip-rule="evenodd" fill="#FFFFFF" d="M99.522,73.551c-0.983-1.792-1.966-3.585-2.972-5.42
		c1.155,0.116,2.751,2.625,3.349,5.152C99.773,73.373,99.648,73.462,99.522,73.551z"/>
	<path fill-rule="evenodd" clip-rule="evenodd" fill="#FFFFFF" d="M66.536,73.499c0.141,1.791,0.282,3.582,0.422,5.373
		C65.856,77.9,65.549,74.694,66.536,73.499z"/>
	<path fill-rule="evenodd" clip-rule="evenodd" fill="#FFFFFF" d="M79.8,109.998c-0.168-0.511-0.336-1.021-0.538-1.638
		c0.729-0.53,1.47-1.068,2.211-1.607c0.09,0.097,0.18,0.194,0.269,0.292c-0.533,1.027-1.066,2.054-1.6,3.081
		C80.027,110.083,79.914,110.041,79.8,109.998z"/>
	<path fill-rule="evenodd" clip-rule="evenodd" fill="#FFFFFF" d="M60.992,47.228c-0.65-0.816-0.39-1.831,0.662-2.792
		c1.437,0.875,1.425,0.95,0.101,1.809C61.43,46.455,61.248,46.886,60.992,47.228z"/>
	<path fill-rule="evenodd" clip-rule="evenodd" fill="#FFFFFF" d="M104.261,98.595c-0.595,0.923-1.164,1.864-1.808,2.752
		c-0.102,0.14-0.532,0.042-0.811,0.054c0.097-0.245,0.147-0.524,0.299-0.729c0.388-0.521,0.825-1.005,1.232-1.513
		c0.224-0.278,0.425-0.576,0.637-0.865C103.961,98.395,104.11,98.495,104.261,98.595z"/>
	<path fill-rule="evenodd" clip-rule="evenodd" fill="#FFFFFF" d="M73.309,109.978c-0.926-0.438-1.512-0.716-2.346-1.11
		c0.005-0.021,0.035-0.61,0.18-0.641c0.48-0.099,1.145-0.178,1.47,0.078C72.97,108.585,73.028,109.245,73.309,109.978z"/>
	<path fill-rule="evenodd" clip-rule="evenodd" fill="#FFFFFF" d="M58.145,60.753c0.266,1.491-0.259,2.022-2.159,2.367
		C56.705,62.331,57.425,61.542,58.145,60.753z"/>
	<path fill-rule="evenodd" clip-rule="evenodd" fill="#FFFFFF" d="M61.413,57.2c0.185,0.712,0.389,1.338,0.488,1.981
		c0.028,0.184-0.251,0.415-0.389,0.624c-0.185-0.152-0.455-0.268-0.539-0.463C60.665,58.622,60.12,57.827,61.413,57.2z"/>
	<path fill-rule="evenodd" clip-rule="evenodd" fill="#FFFFFF" d="M65.794,67.22c0.653-0.147,1.186-0.268,2.034-0.459
		c-0.452,0.532-0.692,0.814-0.896,1.055c0,0.499,0,0.971,0,1.442c-0.13,0.009-0.26,0.019-0.391,0.028
		C66.301,68.621,66.061,67.957,65.794,67.22z"/>
	<path fill-rule="evenodd" clip-rule="evenodd" fill="#FFFFFF" d="M78.755,83.427c0.488-0.849,0.968-1.703,1.478-2.539
		c0.044-0.071,0.35-0.085,0.423-0.014c0.12,0.118,0.258,0.399,0.199,0.489c-0.524,0.804-1.09,1.582-1.644,2.367
		C79.06,83.63,78.907,83.528,78.755,83.427z"/>
	<path fill-rule="evenodd" clip-rule="evenodd" fill="#FFFFFF" d="M27.367,77.973c0.713-0.271,1.426-0.541,2.189-0.831
		c0.198,1.583-0.342,1.837-2.05,1.202C27.46,78.221,27.414,78.097,27.367,77.973z"/>
	<path fill-rule="evenodd" clip-rule="evenodd" fill="#FFFFFF" d="M66.123,44.443c-0.84-1.657-0.708-2.048,0.734-2.07
		C66.737,43.104,67.535,44.062,66.123,44.443z"/>
	<path fill-rule="evenodd" clip-rule="evenodd" fill="#FFFFFF" d="M92.291,40.429c-0.485-0.958-0.971-1.915-1.479-2.919
		c0.954-0.129,1.597,0.905,1.833,2.692C92.526,40.277,92.409,40.353,92.291,40.429z"/>
	<path fill-rule="evenodd" clip-rule="evenodd" fill="#FFFFFF" d="M90.331,36.225c-0.337-0.906-0.675-1.812-1.012-2.717
		c0.119-0.05,0.238-0.099,0.357-0.148c1.09,0.555,0.898,1.698,1.188,2.621C90.687,36.062,90.509,36.143,90.331,36.225z"/>
	<path fill-rule="evenodd" clip-rule="evenodd" fill="#FFFFFF" d="M83.518,59.858c0.939,1.319,0.994,1.738,0.096,2.754
		c-0.164-1.041-0.293-1.861-0.422-2.682C83.301,59.906,83.409,59.882,83.518,59.858z"/>
	<path fill-rule="evenodd" clip-rule="evenodd" fill="#FFFFFF" d="M73.481,108.839c0.501-0.289,0.902-0.6,0.965-0.543
		c0.393,0.361,0.725,0.793,1.024,1.236c0.028,0.042-0.426,0.504-0.463,0.479C74.544,109.704,74.115,109.343,73.481,108.839z"/>
	<path fill-rule="evenodd" clip-rule="evenodd" fill="#FFFFFF" d="M93.541,46.296c-0.711,0.658-1.423,1.315-2.215,2.049
		c-0.155-1.067,0.769-2.097,1.918-2.348C93.343,46.097,93.441,46.197,93.541,46.296z"/>
	<path fill-rule="evenodd" clip-rule="evenodd" fill="#FFFFFF" d="M118.305,73.453c-0.132,0.062-0.276,0.179-0.427,0.188
		c-0.602,0.035-1.205,0.037-1.808,0.051c0.075-0.236,0.085-0.609,0.239-0.684C116.938,72.704,117.651,72.064,118.305,73.453z"/>
	<path fill-rule="evenodd" clip-rule="evenodd" fill="#FFFFFF" d="M62.618,43.397c0.864-0.76,1.56-1.372,2.255-1.983
		c0.086,0.084,0.171,0.168,0.257,0.252c-0.486,0.674-0.971,1.348-1.549,2.151C63.493,43.779,63.19,43.646,62.618,43.397z"/>
	<path fill-rule="evenodd" clip-rule="evenodd" fill="#FFFFFF" d="M54.531,46.934c0.705,0.732,1.409,1.464,2.113,2.197
		c-0.064,0.066-0.128,0.131-0.193,0.197c-0.728-0.718-1.457-1.436-2.185-2.154C54.354,47.094,54.442,47.014,54.531,46.934z"/>
	<path fill-rule="evenodd" clip-rule="evenodd" fill="#FFFFFF" d="M51.142,87.139c0,0.613,0.047,1.232-0.025,1.837
		c-0.026,0.219-0.341,0.402-0.523,0.602c-0.07-0.231-0.229-0.477-0.195-0.692c0.099-0.642,0.273-1.271,0.418-1.906
		C50.925,87.032,51.034,87.086,51.142,87.139z"/>
	<path fill-rule="evenodd" clip-rule="evenodd" fill="#FFFFFF" d="M93.081,58.887c-0.368,0.437-0.736,0.873-1.104,1.31
		c-0.189-0.166-0.378-0.331-0.567-0.496c0.396-0.418,0.794-0.836,1.19-1.255C92.761,58.593,92.921,58.74,93.081,58.887z"/>
	<path fill-rule="evenodd" clip-rule="evenodd" fill="#FFFFFF" d="M101.18,97.217c-0.181,0.568-0.36,1.137-0.627,1.976
		c-0.301-0.38-0.645-0.664-0.596-0.78c0.213-0.498,0.541-0.948,0.827-1.415C100.916,97.07,101.048,97.144,101.18,97.217z"/>
	<path fill-rule="evenodd" clip-rule="evenodd" fill="#FFFFFF" d="M63.771,47.556c0.179-0.406,0.358-0.812,0.538-1.218
		c0.281,0.165,0.562,0.329,0.842,0.493c-0.286,0.347-0.572,0.693-0.858,1.04C64.118,47.766,63.944,47.661,63.771,47.556z"/>
	<path fill-rule="evenodd" clip-rule="evenodd" fill="#FFFFFF" d="M97.613,102.257c0.526,0.109,1.053,0.219,1.578,0.329
		c-0.079,0.201-0.176,0.581-0.233,0.575c-0.503-0.051-1-0.17-1.498-0.27C97.512,102.68,97.562,102.469,97.613,102.257z"/>
	<path fill-rule="evenodd" clip-rule="evenodd" d="M76.132,38.624c-0.651,3.144-2.134,6.202,1.709,8.382
		c-0.518,0.048-1.126,0.293-1.391,0.09c-0.572-0.438-1.084-1.048-1.415-1.692C73.933,43.257,74.338,40.346,76.132,38.624z"/>
</g>
</svg>
